<?xml version="1.0" encoding="utf-8"?>
<!-- Generator: Adobe Illustrator 24.2.1, SVG Export Plug-In . SVG Version: 6.00 Build 0)  -->
<svg version="1.1" id="Layer_1" xmlns="http://www.w3.org/2000/svg" xmlns:xlink="http://www.w3.org/1999/xlink" x="0px" y="0px"
	 viewBox="0 0 85 28.3" style="enable-background:new 0 0 85 28.3;" xml:space="preserve">
<style type="text/css">
	.st0{fill:#1D71B8;}
	.st1{fill:#F39200;}
</style>
<g>
	<g>
		<path class="st0" d="M3.5,9.1c0.6-0.3,1.2-0.4,1.9-0.4c1.2,0,2.3,0.4,3.2,1.3c0.9,0.9,1.3,1.9,1.3,3.2c0,1.2-0.4,2.3-1.3,3.2
			c-0.9,0.9-1.9,1.3-3.2,1.3c-0.7,0-1.3-0.1-1.9-0.4v0.1H1.2V6.8h2.2V9.1z M3.5,14.4c0.1,0.2,0.2,0.3,0.3,0.4c0.4,0.4,1,0.7,1.6,0.7
			c0.6,0,1.1-0.2,1.6-0.7c0.4-0.4,0.7-1,0.7-1.6c0-0.6-0.2-1.1-0.7-1.6C6.5,11.2,6,11,5.4,11c-0.6,0-1.2,0.2-1.6,0.7
			c-0.1,0.1-0.2,0.3-0.3,0.4V14.4z"/>
		<path class="st0" d="M17.3,14.4V9h2.2v8.3h-2.2v-0.1c-0.6,0.3-1.2,0.4-1.9,0.4c-1.2,0-2.3-0.4-3.2-1.3c-0.9-0.9-1.3-1.9-1.3-3.2V9
			h2.2v4.2c0,0.6,0.2,1.2,0.7,1.6c0.4,0.4,1,0.7,1.6,0.7c0.6,0,1.2-0.2,1.6-0.7C17.1,14.7,17.2,14.5,17.3,14.4z"/>
		<path class="st0" d="M27.5,17.3c-0.6,0.3-1.2,0.4-1.9,0.4c-1.2,0-2.3-0.4-3.2-1.3c-0.9-0.9-1.3-1.9-1.3-3.2V9h2.2v4.2
			c0,0.6,0.2,1.2,0.7,1.6c0.4,0.4,1,0.7,1.6,0.7c0.6,0,1.2-0.2,1.6-0.7c0.1-0.1,0.2-0.3,0.3-0.4V9h2.2v8.2c0,1.2-0.4,2.2-1.3,3.1
			c-0.8,0.8-1.9,1.3-3.1,1.3v-2.2c0.6,0,1.1-0.2,1.5-0.6C27.3,18.3,27.5,17.8,27.5,17.3z"/>
		<path class="st1" d="M34,19.6h-2.2V9H34v0.1c0.6-0.3,1.2-0.4,1.9-0.4c1.2,0,2.3,0.4,3.2,1.3c0.9,0.9,1.3,1.9,1.3,3.2
			c0,1.2-0.4,2.3-1.3,3.2c-0.9,0.9-1.9,1.3-3.2,1.3c-0.7,0-1.3-0.1-1.9-0.4V19.6z M34,14.4c0.1,0.1,0.2,0.3,0.3,0.4
			c0.4,0.4,1,0.7,1.6,0.7c0.6,0,1.1-0.2,1.6-0.7c0.4-0.4,0.7-1,0.7-1.6c0-0.6-0.2-1.2-0.7-1.6c-0.4-0.4-1-0.7-1.6-0.7
			c-0.6,0-1.2,0.2-1.6,0.7C34.2,11.7,34,11.9,34,12V14.4z"/>
		<path class="st1" d="M47.4,17.3c-0.6,0.3-1.2,0.4-1.9,0.4c-1.2,0-2.3-0.4-3.2-1.3c-0.9-0.9-1.3-1.9-1.3-3.2c0-1.2,0.4-2.3,1.3-3.2
			c0.9-0.9,1.9-1.3,3.2-1.3c0.7,0,1.3,0.1,1.9,0.4V9h2.2v8.3h-2.2V17.3z M47.4,14.4V12c-0.1-0.2-0.2-0.3-0.3-0.4
			c-0.4-0.4-1-0.7-1.6-0.7c-0.6,0-1.2,0.2-1.6,0.7c-0.4,0.4-0.7,1-0.7,1.6c0,0.6,0.2,1.1,0.7,1.6c0.4,0.4,1,0.7,1.6,0.7
			c0.6,0,1.1-0.2,1.6-0.7C47.2,14.7,47.4,14.5,47.4,14.4z"/>
		<path class="st1" d="M55.8,11c-0.6,0-1.2,0.2-1.6,0.7c-0.1,0.1-0.2,0.3-0.3,0.4v5.3h-2.2V9h2.2v0.1c0.6-0.3,1.2-0.4,1.9-0.4V11z"
			/>
		<path class="st1" d="M59.6,11.3v6.1h-2.2V6.8h2.2V9h1.6v2.2H59.6z"/>
		<path class="st1" d="M68.5,13.5c0.3,0.5,0.5,0.9,0.5,1.4c0,0.8-0.3,1.5-0.9,2.1s-1.4,0.8-2.5,0.8c-1.5,0-2.7-0.4-3.7-1.2l1.4-1.7
			c0.7,0.4,1.4,0.7,2.1,0.7c0.4,0,0.7,0,0.9-0.1c0.3-0.1,0.4-0.2,0.4-0.4c0-0.2-0.2-0.3-0.5-0.4L64.3,14c-0.6-0.1-1.1-0.4-1.5-0.9
			c-0.4-0.5-0.6-1-0.6-1.7c0-0.7,0.3-1.3,0.9-1.9c0.6-0.6,1.4-0.8,2.3-0.8c1.4,0,2.6,0.4,3.5,1.1l-1.4,1.7c-0.6-0.3-1.2-0.5-1.8-0.5
			c-0.5,0-0.8,0.1-1,0.2c-0.2,0.1-0.3,0.2-0.3,0.4c0,0.2,0.1,0.3,0.3,0.4l2,0.5C67.6,12.6,68.1,13,68.5,13.5z"/>
	</g>
	<g>
		<path class="st0" d="M70.4,11.7c0-0.8,0.3-1.6,0.9-2.2c0.6-0.6,1.3-0.9,2.2-0.9c0.8,0,1.6,0.3,2.2,0.9c0.6,0.6,0.9,1.3,0.9,2.2
			c0,0.8-0.3,1.5-0.9,2.1l-2,2h2.8v1.9h-5.8v-1.5l3.7-3.7c0.2-0.2,0.3-0.5,0.3-0.8c0-0.3-0.1-0.6-0.4-0.8c-0.2-0.2-0.5-0.4-0.8-0.4
			c-0.3,0-0.6,0.1-0.9,0.4c-0.2,0.2-0.4,0.5-0.4,0.8v0.4h-1.9V11.7z"/>
		<path class="st0" d="M82.8,8.9v5.3h1.1v1.9h-1.1v1.6h-1.9v-1.6h-3.5v-1.4l2.4-5.7H82.8z M80.9,14.2v-3.5l-1.3,3.5H80.9z"/>
	</g>
</g>
</svg>
