<?xml version="1.0" encoding="utf-8"?>
<!-- Generator: Adobe Illustrator 24.2.1, SVG Export Plug-In . SVG Version: 6.00 Build 0)  -->
<svg version="1.1" id="Layer_1" xmlns="http://www.w3.org/2000/svg" xmlns:xlink="http://www.w3.org/1999/xlink" x="0px" y="0px"
	 viewBox="0 0 56.7 56.7" style="enable-background:new 0 0 56.7 56.7;" xml:space="preserve">
<style type="text/css">
	.st0{fill:#231F20;}
</style>
<g>
	<path class="st0" d="M17,28.9c0.1,0.6,0.3,1.2,0.5,1.8c0.1,0.3,0.3,0.7,0.5,1c0.4,0.6,0.9,1,1.6,1.3c0.3,0.1,0.5,0.2,0.8,0.3
		c0.8,0.2,1.5,0.3,2.3,0.4c0.8,0.1,1.5,0.1,2.3,0.1c1.1,0,2.2,0.1,3.1,0.1c0.9,0,1.6,0,2.3,0c1,0,1.9-0.1,2.9-0.1
		c0.7,0,1.4-0.1,2.1-0.3c0.6-0.1,1.1-0.3,1.7-0.5c0.9-0.4,1.6-1,2-1.9c0.2-0.4,0.3-0.8,0.4-1.2c0.2-0.8,0.4-1.5,0.5-2.3
		c0.1-0.8,0.2-1.5,0.3-2.3c0.1-0.8,0.1-1.5,0.1-2.3c0-1.2,0-2.5-0.1-3.7c0-0.5-0.1-0.9-0.3-1.4c-0.2-0.8-0.7-1.4-1.3-1.9
		c-0.4-0.3-0.9-0.5-1.4-0.7c-0.7-0.2-1.3-0.3-2-0.4c-0.8-0.1-1.7-0.2-2.5-0.2c-0.9,0-1.8-0.1-2.6-0.1c-1.2,0-2.4,0-3.5,0
		c-1.3,0-2.7,0.1-4,0.2c-0.7,0.1-1.3,0.1-2,0.2C20,15,19.5,15.2,19,15.4c-0.9,0.4-1.6,1-2,1.9c-0.2,0.5-0.4,1-0.4,1.6
		c-0.1,0.6-0.1,1.1-0.1,1.7c0,0.7,0,1.5,0,2.2c0,1.3,0.1,2.6,0.3,4C16.8,27.4,16.9,28.1,17,28.9 M17.6,21.7c0-0.6,0-1.3,0.1-1.9
		c0-0.6,0.1-1.1,0.3-1.7c0.2-0.7,0.6-1.3,1.2-1.7c0.3-0.2,0.7-0.4,1.1-0.5c0.4-0.1,0.9-0.2,1.3-0.3c0.6-0.1,1.3-0.2,1.9-0.2
		c0.4,0,0.9-0.1,1.3-0.1c0.7,0,1.5-0.1,2.2-0.1c1.1,0,2.2,0,3.2,0c0.8,0,1.6,0.1,2.4,0.1c0.9,0,1.7,0.1,2.6,0.3
		c0.6,0.1,1.1,0.2,1.6,0.4c0.6,0.3,1.2,0.7,1.5,1.3c0.2,0.3,0.4,0.7,0.5,1.1c0.1,0.4,0.1,0.8,0.2,1.2c0.1,1.2,0.1,2.4,0.1,3.6
		c0,0.7-0.1,1.4-0.1,2.1c-0.1,0.6-0.1,1.2-0.2,1.7c-0.1,0.9-0.3,1.9-0.6,2.8c-0.1,0.3-0.2,0.6-0.4,0.9c-0.4,0.7-0.9,1.2-1.7,1.6
		c-0.5,0.2-1,0.3-1.4,0.4c-0.8,0.1-1.7,0.2-2.6,0.3C31,33,29.8,33,28.7,33h-0.3v0c-1,0-2,0-3-0.1c-0.7,0-1.5-0.1-2.2-0.1
		c-0.6-0.1-1.2-0.1-1.8-0.3c-0.3-0.1-0.6-0.2-0.9-0.3c-0.7-0.3-1.3-0.9-1.6-1.6c-0.2-0.5-0.4-1-0.5-1.5c-0.2-0.7-0.3-1.4-0.4-2.1
		c-0.1-0.8-0.2-1.6-0.2-2.4C17.6,23.6,17.6,22.6,17.6,21.7"/>
	<path class="st0" d="M11.4,37.8c0.1,0,0.1,0,0.2,0c0.2,0,0.3,0,0.5,0.1c0.2,0,0.3,0.1,0.3,0.3c0,0,0,0,0,0.1c0,0.3,0,0.5,0,0.8
		c0,0,0,0,0,0c-0.1,0-3,0-3.1,0v-0.4c0-0.1,0-0.3,0-0.4c0-0.2,0.1-0.3,0.3-0.3c0.1,0,0.2,0,0.3,0c0.1,0,0.3,0,0.4-0.1
		c0-0.1,0-0.2,0-0.3c0-0.1,0-0.2,0-0.3h-4v0.7c0.1,0,0.1,0,0.2,0c0.2,0,0.3,0,0.5,0.1c0.2,0,0.3,0.1,0.3,0.3c0,0.1,0,0.1,0,0.2v2.5
		c0,0.1,0,0.1,0,0.2c0,0.2-0.1,0.3-0.3,0.3c-0.2,0-0.3,0-0.5,0.1c-0.1,0-0.1,0-0.2,0v0.7c0.1,0,3.9,0,4,0v-0.7
		c-0.2,0-0.4-0.1-0.6-0.1c-0.2,0-0.4-0.1-0.4-0.4c0-0.3,0-0.5,0-0.8c0,0,0,0,0,0c0.2,0,3,0,3.1,0c0,0.3,0,0.5,0,0.8c0,0,0,0.1,0,0.1
		c0,0.2-0.1,0.3-0.3,0.3c-0.1,0-0.2,0-0.3,0c-0.1,0-0.3,0-0.4,0v0.7h4v-0.7c-0.1,0-0.1,0-0.2,0c-0.2,0-0.3,0-0.5-0.1
		c-0.2,0-0.3-0.1-0.3-0.3c0-0.1,0-0.1,0-0.2c0-0.8,0-1.6,0-2.5c0-0.1,0-0.1,0-0.2c0-0.2,0.1-0.3,0.3-0.3c0.1,0,0.2,0,0.3,0
		c0.1,0,0.2,0,0.4,0v-0.7h-4V37.8z"/>
	<path class="st0" d="M29.6,37.1v0.7c0,0,0,0,0.1,0c0.2,0,0.4,0,0.6,0.1c0.2,0,0.3,0.1,0.3,0.3c0,0,0,0.1,0,0.1v2.4c0,0,0,0.1,0,0.1
		c0-0.1-0.1-0.1-0.1-0.1c-0.8-1.1-1.7-2.2-2.5-3.3c-0.1-0.2-0.3-0.2-0.5-0.2c0,0-0.1,0-0.1,0h-3.3c0,0-0.1,0-0.1,0v0.7
		c0,0,0.1,0,0.1,0c0.2,0,0.3,0,0.5,0.1c0.2,0,0.3,0.1,0.3,0.3c0,0.1,0,0.1,0,0.2c0,0.8,0,1.6,0,2.5c0,0,0,0.1,0,0.1
		c0,0.2-0.1,0.3-0.4,0.4c-0.1,0-0.2,0-0.3,0c-0.1,0-0.2,0-0.3,0v0.7c0.1,0,3.1,0,3.2,0c0-0.1,0-0.6,0-0.7c-0.1,0-0.1,0-0.2,0
		c-0.2,0-0.3,0-0.5-0.1c-0.2,0-0.3-0.1-0.3-0.3c0,0,0-0.1,0-0.1c0-0.8,0-1.5,0-2.3v-0.1c0,0,0,0,0,0c0,0,0.1,0.1,0.1,0.1
		c0.8,1.1,1.7,2.2,2.5,3.3c0.1,0.2,0.3,0.3,0.5,0.3c0.8,0,1.6,0,2.4,0c0,0,0.1,0,0.1,0v-0.2v-3.5c0-0.1,0-0.1,0-0.2
		c0-0.2,0.1-0.3,0.3-0.4c0.1,0,0.2,0,0.3,0c0.1,0,0.2,0,0.4,0v-0.7C32.6,37.1,29.7,37.1,29.6,37.1"/>
	<path class="st0" d="M41.3,39.3c-0.1-0.6-0.3-1.2-0.8-1.5c-0.2-0.2-0.5-0.3-0.7-0.4c-0.5-0.2-1.1-0.3-1.7-0.3c-1.6,0-3.2,0-4.8,0
		c0,0-0.1,0-0.1,0v0.7c0.2,0,0.3,0,0.5,0.1c0.3,0,0.4,0.1,0.4,0.5v2.5c0,0.1,0,0.1,0,0.2c0,0.2-0.1,0.3-0.3,0.3c-0.1,0-0.2,0-0.3,0
		c-0.1,0-0.2,0-0.4,0v0.7h0.2c1.6,0,3.1,0,4.7,0c0.3,0,0.6,0,0.9,0c0.4,0,0.9-0.2,1.3-0.3c0.6-0.3,1-0.7,1.2-1.3
		C41.3,40,41.4,39.7,41.3,39.3 M39,40.3c0,0.1-0.1,0.3-0.1,0.4c-0.1,0.3-0.4,0.4-0.7,0.4c-0.1,0-0.3,0-0.4,0c-0.5,0-1,0-1.6,0
		c0,0-0.1,0-0.1,0v-3c0,0,0.1,0,0.1,0c0.5,0,1.1,0,1.6,0c0.2,0,0.4,0,0.6,0.1c0.3,0.1,0.5,0.3,0.6,0.5c0.1,0.3,0.1,0.5,0.1,0.8
		C39,39.7,39,40,39,40.3"/>
	<path class="st0" d="M22.8,37.7c-0.4-0.3-0.8-0.4-1.2-0.5c-0.6-0.2-1.3-0.2-1.9-0.2c-0.6,0-1.2,0-1.7,0.2c-0.4,0.1-0.8,0.2-1.2,0.5
		c-0.8,0.5-1.2,1.1-1.2,2c0,0.9,0.4,1.5,1.1,2c0.2,0.1,0.4,0.2,0.6,0.3c0.5,0.2,1,0.3,1.6,0.3c0.8,0.1,1.6,0,2.4-0.1
		c0.5-0.1,0.9-0.2,1.3-0.5c0.7-0.4,1.2-1,1.2-1.9C23.8,38.9,23.5,38.2,22.8,37.7 M21.4,40.2c-0.1,0.5-0.5,0.9-1,1
		c-0.5,0.1-1,0.1-1.5,0c-0.5-0.1-0.9-0.5-1-1c0-0.2-0.1-0.4-0.1-0.6c0-0.2,0-0.5,0.1-0.7c0.1-0.5,0.4-0.8,0.9-0.9
		c0.5-0.1,1-0.1,1.5,0c0.5,0.1,0.9,0.5,1,1C21.5,39.4,21.5,39.8,21.4,40.2"/>
	<path class="st0" d="M49.3,41c-0.4-0.6-0.7-1.1-1.1-1.7c-0.4-0.6-0.8-1.3-1.2-1.9c-0.1-0.2-0.3-0.3-0.6-0.3c-1.2,0-2.4,0-3.6,0
		c0,0-0.1,0-0.1,0v0.7c0,0,0.1,0,0.1,0c0.2,0,0.5,0.1,0.7,0.1c0.2,0,0.3,0.2,0.2,0.4c0,0,0,0.1,0,0.1c-0.6,0.9-1.1,1.8-1.7,2.7
		c0,0,0,0.1-0.1,0.1c-0.1,0.1-0.2,0.2-0.3,0.2c-0.1,0-0.2,0-0.3,0c-0.1,0-0.3,0-0.4,0v0.7c0.2,0,3.1,0,3.2,0v-0.7
		c-0.1,0-0.2,0-0.2,0c-0.1,0-0.3,0-0.4,0c-0.2,0-0.3-0.2-0.2-0.4c0.1-0.1,0.1-0.2,0.2-0.3c0-0.1,0.1-0.1,0.2-0.1c0.9,0,1.9,0,2.8,0
		c0,0,0,0,0.1,0c0,0,0.1,0,0.1,0c0.1,0.1,0.2,0.2,0.2,0.4c0.1,0.1,0,0.3-0.1,0.3c-0.1,0-0.2,0-0.3,0.1c-0.2,0-0.3,0-0.5,0v0.7
		c0,0,0,0,0,0c1.4,0,2.8,0,4.2,0c0,0,0,0,0.1,0c0,0,0,0,0,0c0,0,0,0,0,0v-0.6c-0.2,0-0.4-0.1-0.6-0.1C49.6,41.3,49.4,41.2,49.3,41
		 M44.2,39.6c0.3-0.5,0.6-1,0.9-1.5c0.1,0.1,0.9,1.3,1,1.5C46,39.7,44.3,39.7,44.2,39.6"/>
	<path class="st0" d="M21.3,17.3c0,0.4,0.1,0.9,0.1,1.3c0,0.7,0.1,1.4,0.1,2.1c0,0.6,0.1,1.1,0.1,1.7c0,0.7,0.1,1.3,0.1,2
		c0,0.5,0.1,1.1,0.1,1.6c0,0.7,0.1,1.5,0.2,2.2c0,0.6,0.1,1.2,0.1,1.8c0.1,0.7,0.1,1.4,0.2,2.1c0,0.1,0,0.1,0,0.2
		c0.4,0.1,2,0.2,2.4,0.2c0-0.1,0-0.1,0-0.2c0.2-0.8,0.4-1.5,0.6-2.3c0.1-0.4,0.3-0.8,0.5-1.2c0.2-0.5,0.6-0.7,1.2-0.8
		c0.5-0.1,0.9-0.1,1.4-0.1c0.5,0,0.9,0,1.4,0.1c0.5,0.1,0.9,0.3,1.1,0.8c0,0.1,0.1,0.2,0.1,0.3c0.2,0.4,0.3,0.8,0.4,1.2
		c0.2,0.7,0.4,1.3,0.5,2c0,0.1,0,0.1,0,0.2c0.5,0,2.2-0.1,2.4-0.2c0.4-5.3,0.8-10.7,1.1-16c-0.6-0.1-1.1-0.1-1.7-0.1
		c0,0,0,0.1,0,0.1c-0.2,1-0.4,2-0.7,3c-0.3,1.5-0.7,2.9-1.1,4.4c-0.1,0.5-0.3,0.9-0.5,1.4c-0.4,0.9-1.1,1.3-2,1.5
		c-0.3,0-0.7,0.1-1,0.1c-0.5,0-1,0-1.5-0.1c-0.6-0.1-1.2-0.4-1.6-0.9c-0.2-0.3-0.3-0.5-0.5-0.8c-0.2-0.5-0.4-1.1-0.5-1.6
		c-0.6-2.1-1-4.3-1.5-6.4c0-0.2-0.1-0.4-0.1-0.6c-0.6,0-1.1,0-1.7,0.1c0,0,0,0.1,0,0.1C21.2,16.7,21.3,17,21.3,17.3"/>
</g>
</svg>
