<?xml version="1.0" encoding="utf-8"?>
<!-- Generator: Adobe Illustrator 24.2.1, SVG Export Plug-In . SVG Version: 6.00 Build 0)  -->
<svg version="1.1" id="Layer_1" xmlns="http://www.w3.org/2000/svg" xmlns:xlink="http://www.w3.org/1999/xlink" x="0px" y="0px"
	 viewBox="0 0 56.7 56.7" style="enable-background:new 0 0 56.7 56.7;" xml:space="preserve">
<style type="text/css">
	.st0{fill:#231F20;}
</style>
<path class="st0" d="M28.3,14.4c-7.8,0-14,6.2-14,13.9c0,7.7,6.3,13.9,14,13.9c7.8,0,14.1-6.2,14.1-13.9
	C42.4,20.7,36.1,14.4,28.3,14.4 M28.3,41.7c-5.3,0-9.4-2.7-11.4-6.5l0.3-0.1c0.5,0.8,1.2,1.6,2.1,2.6c1.1,1.2,4.6,3.6,9,3.6
	c4.7,0,8.8-2.4,11.1-6.1c0.2,0,0.2-0.1,0.2-0.3c1.1-1.9,1.8-4.2,1.8-6.5c0-1.4-0.2-2.6-0.5-3.6c-0.2-0.8-0.6-1.6-0.8-1.9
	c0-0.1,0-0.1-0.1-0.2c0.1,0,0.1,0.1,0.1,0.2c0.2,0.4,0.7,1.3,0.9,1.9c0.3,0.8,0.8,1.9,0.8,3.7C41.8,35.7,35.8,41.7,28.3,41.7
	 M17.1,34.9l9.8-7.1l-0.8-0.5l-8.8,7.3c-1-1.8-1.7-4.1-1.7-6.3c0-6.9,5.5-12.5,12.5-12.5L26.3,27l0.8,0.5l1.1-11.6
	c0-0.1,0.1-0.1,0.1,0l0.1,12.3l2-1.2l-1.9-11.1C35.4,16,41,21.5,41,28.3c0,2.2-0.7,4.5-1.7,6.3l-8.8-7.3l-0.8,0.5l9.4,6.8
	c0.2,0.2,0.2,0.2-0.1,0.1l-10.6-6.1v2.3l10.6,4c-2.2,3.6-6.2,5.9-10.8,5.9c-4.6,0-8.5-2.3-10.8-5.9l10.6-4.1v-2.3l-11,6.4
	C16.9,35.1,16.8,35.1,17.1,34.9 M16.8,35c-0.5-1-1-2.3-1.2-3.4c0-0.1,0-0.1,0-0.2c0,0,0.1,0.1,0.1,0.2c0.3,1,0.6,1.9,1.3,3.2
	L16.8,35z M41.8,26c0,0-0.1-0.1-0.1-0.2c-1-3.2-1.9-4.4-3.6-6.3c-2.2-2.4-5.8-4.3-9.7-4.3c-7.4,0-13.4,6-13.4,13.4
	c0,2.2,0.5,4.1,0.9,5c0.5,1.1,1.2,2.6,1.3,2.7c0,0.1,0,0.1,0,0.2c-0.1,0-0.1-0.1-0.1-0.1c-0.2-0.3-1.1-2-1.4-2.7
	c-0.6-1.6-1.1-3.3-1.1-5.1c0-7.6,6.2-13.8,13.8-13.8c6.8,0,12.3,4.7,13.4,11C41.8,25.9,41.8,25.9,41.8,26"/>
</svg>
