<?xml version="1.0" encoding="utf-8"?>
<!-- Generator: Adobe Illustrator 24.2.1, SVG Export Plug-In . SVG Version: 6.00 Build 0)  -->
<svg version="1.1" id="Layer_1" xmlns="http://www.w3.org/2000/svg" xmlns:xlink="http://www.w3.org/1999/xlink" x="0px" y="0px"
	 viewBox="0 0 56.7 56.7" style="enable-background:new 0 0 56.7 56.7;" xml:space="preserve">
<style type="text/css">
	.st0{fill:#231F20;}
</style>
<g>
	<path class="st0" d="M34.3,39.2c0-1.7-1.4-3-3-3c-1.7,0-3,1.3-3,3c0,1.6,1.3,3,3,3C32.9,42.2,34.3,40.9,34.3,39.2 M29.7,39.2
		c0-1.1,0.7-1.9,1.7-1.9c0.9,0,1.6,0.8,1.7,1.9c0,1-0.8,1.9-1.7,1.9C30.4,41.1,29.6,40.3,29.7,39.2"/>
	<polygon class="st0" points="37.7,37.5 39.4,37.5 39.4,36.5 34.6,36.5 34.6,37.5 36.4,37.5 36.4,42.1 37.7,42.1 	"/>
	<path class="st0" d="M40.9,40.8h2.3l0.5,1.3h1.5l-2.3-5.6h-1.6L39,42.1h1.5L40.9,40.8z M42.1,37.8l0.8,2.1h-0.8h-0.8L42.1,37.8z"/>
	<polygon class="st0" points="13.2,42.1 14.5,42.1 14.5,37.5 16.2,37.5 16.2,36.5 11.5,36.5 11.5,37.5 13.2,37.5 	"/>
	<path class="st0" d="M22.5,39.2c0-1.7-1.4-3-3-3c-1.7,0-3,1.3-3,3c0,1.6,1.3,3,3,3C21.2,42.2,22.5,40.9,22.5,39.2 M17.9,39.2
		c0-1.1,0.7-1.9,1.7-1.9c0.9,0,1.7,0.8,1.7,1.9c0,1-0.7,1.9-1.7,1.9C18.6,41.1,17.9,40.3,17.9,39.2"/>
	<polygon class="st0" points="25.4,42.1 26,42.1 26,40 28.2,36.5 26.8,36.5 25.4,38.8 24,36.5 22.5,36.5 24.8,40 24.8,42.1 	"/>
	<path class="st0" d="M28,33.8c8.5,0,15.5-4.3,15.5-9.7c0-5.3-7-9.7-15.5-9.7c-8.5,0-15.5,4.3-15.5,9.7C12.5,29.5,19.5,33.8,28,33.8
		 M28,14.9c8.3,0,15,4.1,15,9.2c0,5.1-6.7,9.2-15,9.2c-8.3,0-15-4.1-15-9.2C13,19.1,19.7,14.9,28,14.9"/>
	<path class="st0" d="M24.2,21.6l0.2,0l0-0.2c0.4-2.2,1.2-4,2.2-4.8l0.6-0.5l-0.7,0c-3.6,0.2-6.3,1.2-6.7,2.4c0,0.1-0.1,0.3-0.1,0.4
		c0,0.2,0.1,0.4,0.2,0.6C20.4,20.5,22,21.3,24.2,21.6 M20.3,18.8c0.3-1,2.7-1.8,5.6-2.1c-0.8,1-1.5,2.5-1.8,4.4
		c-1.9-0.4-3.3-1-3.7-1.7c-0.1-0.1-0.1-0.3-0.1-0.4C20.2,19,20.3,18.9,20.3,18.8"/>
	<path class="st0" d="M25.9,21.6l0,0.3l0.3,0c0.6,0,1.3,0.1,1.9,0.1c0.6,0,1.3,0,1.9-0.1l0.3,0l0-0.3c-0.4-2-1.2-3.2-2.1-3.2
		C27,18.4,26.2,19.6,25.9,21.6 M28,18.8c0.7,0,1.3,1,1.6,2.6c-0.5,0-1.1,0.1-1.6,0.1c-0.5,0-1.1,0-1.6-0.1
		C26.7,19.8,27.3,18.8,28,18.8"/>
	<path class="st0" d="M31.5,21.4l0,0.2l0.2,0c2.2-0.4,3.8-1.1,4.3-1.9c0.2-0.3,0.2-0.7,0.1-1c-0.4-1.3-3.1-2.2-6.7-2.4l-0.7,0
		l0.6,0.5C30.3,17.5,31.1,19.2,31.5,21.4 M35.7,18.8c0,0.1,0,0.2,0,0.2c0,0.1,0,0.3-0.1,0.4c-0.4,0.7-1.8,1.3-3.7,1.7
		c-0.3-1.9-1-3.4-1.8-4.4C33.1,17,35.4,17.9,35.7,18.8"/>
	<path class="st0" d="M26.4,32.2l0.7,0.1l-0.6-0.5c-1.4-1.2-2.3-4.1-2.3-7.5l0-0.8l-0.2,0c-3.4-0.6-5.8-2-6.2-3.7l-0.1-0.4l-0.3,0.3
		c-1.6,1.4-2.5,3-2.5,4.7C15,28.3,19.9,31.7,26.4,32.2 M17.6,20.2c0.6,1.6,3,3,6.2,3.6c0,0.2,0,0.4,0,0.4c0,3.2,0.8,5.9,2,7.4
		c-5.9-0.6-10.3-3.7-10.3-7.3C15.5,22.8,16.2,21.4,17.6,20.2"/>
	<path class="st0" d="M30.3,23.9l0-0.3l-0.3,0c-0.7,0.1-1.4,0.1-2.1,0.1c-0.7,0-1.4,0-2.1-0.1l-0.3,0l0,0.3v0.1c0,3.2,1,5.6,2.3,5.6
		C29.3,29.5,30.3,27.1,30.3,23.9 M28,29.1c-0.9,0-1.8-2-1.8-4.9c0.6,0,1.2,0.1,1.8,0.1c0.6,0,1.2,0,1.8-0.1
		C29.8,27.1,28.9,29.1,28,29.1"/>
	<path class="st0" d="M31.7,23.4l0,0.8c0,3.4-0.9,6.3-2.3,7.5l-0.6,0.5l0.7-0.1c6.5-0.5,11.4-3.9,11.4-7.9c0-1.7-0.9-3.3-2.5-4.7
		l-0.3-0.3l-0.1,0.4c-0.3,1.6-2.8,3-6.2,3.7L31.7,23.4z M38.4,20.2c1.3,1.2,2.1,2.6,2.1,4.1c0,3.6-4.4,6.7-10.3,7.3
		c1.2-1.5,2-4.2,2-7.4c0,0,0-0.2,0-0.4C35.5,23.2,37.8,21.8,38.4,20.2"/>
</g>
</svg>
