<?xml version="1.0" encoding="utf-8"?>
<!-- Generator: Adobe Illustrator 24.2.1, SVG Export Plug-In . SVG Version: 6.00 Build 0)  -->
<svg version="1.1" id="Layer_1" xmlns="http://www.w3.org/2000/svg" xmlns:xlink="http://www.w3.org/1999/xlink" x="0px" y="0px"
	 viewBox="0 0 56.7 56.7" style="enable-background:new 0 0 56.7 56.7;" xml:space="preserve">
<style type="text/css">
	.st0{fill:#231F20;}
</style>
<g>
	<path class="st0" d="M24.5,24c-0.6,1-0.7,1.5-0.7,1.9c0,0.3,0,0.9,0.5,1.4c0.9,0.8,2.1,0.7,3.2,0.7h9.1c0.4,0,0.5-0.1,0.7-0.4
		c0.7-1.1,1.1-2.3,1.1-3.4c0-2.3-1.5-5.2-5.3-6.5l-0.4,0.6c3,1.4,4.3,3.3,4.3,5.9c0,0.7-0.2,1.5-0.6,2.2h-8.9
		c-0.5,0-0.6-0.6-0.4-0.9c0.8-1.4,1.6-2.6,2.5-3.9c0.9-1.2,1.8-2.3,2.7-3.5c0.3-0.3,0.1-0.6-0.4-0.7c-1-0.2-2.1-0.4-3.4-0.4
		c-7.3,0-9.9,4.2-9.9,7.2c0,3.3,2.7,7.2,9.9,7.2c4,0,6.7-1.3,8.2-3h-1.5c-1.3,1.2-3.6,2.1-6.7,2.1c-6.2,0-8.4-3.4-8.4-6.4
		c0-2.6,2.5-6.3,8.6-6.4c0.2,0,0.4,0.2,0.2,0.4C27.8,19.4,24.8,23.5,24.5,24"/>
	<path class="st0" d="M51.9,36H46c0.1-0.7,0.7-1.3,1.3-1.3h5.9l0-1.2H47c-2,0-3.6,1.6-3.6,3.5c0,0.1,0.1,0.2,0.2,0.2l7.1,0
		c0.4,0,0.6,0.3,0.6,0.7c0,0.4-0.4,0.7-0.8,0.7h-7.8v-5.1h-2.3v5.1h-4.2c-1.2,0-1.4-0.7-1.4-1.3v-3.8H31c-0.4,0.3-0.7,0.5-1.1,0.8
		l-2.3,1.4l-2.9-2.1h-4.6h-4.3c-1.2,0-2.1,0.3-2.7,0.8c-1.2,0.9-1.6,1.9-1.6,2.4h1.6c-0.7,0.5-1.1,1.1-1.4,1.8H6.5
		c-0.9,0-1.5-0.6-1.5-1.3v-3.8H2.8v4c0,1.4,1.4,2.4,3.5,2.4h13.8h3.3c0.4-0.2,0.7-0.5,1.1-0.7l2.3-1.4l3,2.1h3.4l-4.4-3.3l2.3-1.5
		c0.5-0.3,1-0.6,1.5-0.9v3.4c0,1.4,0.4,2.4,3.2,2.4l16.1,0c1.2,0,2-0.8,2-1.9C53.9,36.8,53,36,51.9,36 M23,38.5h-2.9h-5.5
		c0-0.7,0.7-1.3,1.4-1.3h4.1h1.1v-1.3h-1.1h-5.5c-0.1-0.4,0.6-1.1,1.2-1.1h4.4h1.7V34l3.9,2.8L23,38.5z"/>
</g>
</svg>
