<?xml version="1.0" encoding="utf-8"?>
<!-- Generator: Adobe Illustrator 24.2.1, SVG Export Plug-In . SVG Version: 6.00 Build 0)  -->
<svg version="1.1" id="Layer_1" xmlns="http://www.w3.org/2000/svg" xmlns:xlink="http://www.w3.org/1999/xlink" x="0px" y="0px"
	 viewBox="0 0 56.7 56.7" style="enable-background:new 0 0 56.7 56.7;" xml:space="preserve">
<style type="text/css">
	.st0{fill:#231F20;}
</style>
<g>
	<path class="st0" d="M31,18.3c-0.9-0.2-1.8-0.3-2.7-0.3c-0.9,0-1.8,0.1-2.6,0.3l2.6,7.3L31,18.3z"/>
	<path class="st0" d="M38.8,28.4c0-1.3-0.2-2.5-0.7-3.7l-5,12.9C36.5,35.8,38.8,32.4,38.8,28.4"/>
	<path class="st0" d="M33.6,19.3l-3.1,8.4h-1.3h-1.6h-1.4l-3.1-8.4c-1.1,0.6-2.1,1.5-2.9,2.5l4.4,11.3l1.6-4.1h1.2h1.7h1.2l1.6,4.1
		l4.4-11.4C35.6,20.8,34.6,20,33.6,19.3"/>
	<path class="st0" d="M28.4,14.4c-7.6,0-13.9,6.2-13.9,13.9c0,7.6,6.3,13.9,13.9,13.9c7.7,0,13.9-6.2,13.9-13.9
		C42.2,20.7,36,14.4,28.4,14.4 M28.4,40.5c-6.7,0-12.1-5.4-12.1-12.1c0-6.7,5.5-12.1,12.1-12.1c6.7,0,12.1,5.5,12.1,12.1
		C40.5,35,35,40.5,28.4,40.5"/>
	<path class="st0" d="M28.3,31.2l-2.7,7l0,0.2c0.9,0.2,1.8,0.4,2.8,0.4c0.9,0,1.8-0.1,2.6-0.3l0-0.3L28.3,31.2z"/>
	<path class="st0" d="M17.9,28.4c0,3.9,2.2,7.4,5.4,9.1l-4.8-12.6C18.1,26,17.9,27.1,17.9,28.4"/>
</g>
</svg>
