<?xml version="1.0" encoding="utf-8"?>
<!-- Generator: Adobe Illustrator 24.2.1, SVG Export Plug-In . SVG Version: 6.00 Build 0)  -->
<svg version="1.1" id="Layer_1" xmlns="http://www.w3.org/2000/svg" xmlns:xlink="http://www.w3.org/1999/xlink" x="0px" y="0px"
	 viewBox="0 0 56.7 56.7" style="enable-background:new 0 0 56.7 56.7;" xml:space="preserve">
<style type="text/css">
	.st0{fill:#231F20;}
	.st1{fill:none;stroke:#000000;stroke-width:0.555;stroke-miterlimit:10;}
	.st2{fill:none;stroke:#000000;stroke-width:0.556;stroke-miterlimit:10;}
	.st3{fill:none;stroke:#000000;stroke-width:0.554;stroke-miterlimit:10;}
</style>
<g>
	<polygon class="st0" points="28.3,10.8 23,20.1 28.3,29.4 33.7,20.1 	"/>
	<polygon class="st0" points="28.3,29.4 33.7,38.6 44.5,38.6 39.1,29.4 	"/>
	<polygon class="st0" points="12.2,38.6 23,38.6 28.3,29.4 17.6,29.4 	"/>
	<polygon class="st0" points="16.2,43.4 15.3,41.3 14.4,41.3 14.4,45.8 15.2,45.8 15.2,42.9 16.2,45 17.2,42.9 17.2,45.8 18,45.8 
		18,41.3 17.1,41.3 	"/>
	<line class="st1" x1="19.1" y1="45.8" x2="19.1" y2="41.3"/>
	<polygon class="st0" points="19.9,42 20.8,42 20.8,45.8 21.6,45.8 21.6,42 22.6,42 22.6,41.3 19.9,41.3 	"/>
	<path class="st0" d="M24.3,43.2c-0.6-0.3-0.9-0.5-0.9-0.8c0-0.3,0.2-0.4,0.6-0.4c0.4,0,0.6,0.4,0.6,0.7h0.8c0-0.8-0.4-1.4-1.4-1.4
		c-0.9,0-1.4,0.5-1.4,1.2c0,0.6,0.4,1,1,1.4c0.8,0.5,1,0.6,1,0.9c0,0.3-0.2,0.5-0.6,0.5c-0.5,0-0.7-0.4-0.7-0.8h-0.8
		c0,0.8,0.4,1.5,1.4,1.5c0.8,0,1.4-0.4,1.4-1.3C25.5,43.9,25.1,43.6,24.3,43.2"/>
	<path class="st0" d="M28.1,44.4c0,0.5-0.2,0.8-0.7,0.8c-0.5,0-0.8-0.3-0.8-0.8v-3.1h-0.8v3.1c0,1.2,0.8,1.5,1.6,1.5
		c0.7,0,1.5-0.3,1.5-1.5v-3.1h-0.8V44.4z"/>
	<path class="st0" d="M31.6,43.4c0.2,0,0.6-0.4,0.6-1c0-0.7-0.5-1.1-1.4-1.1h-1.5v4.5H31c0.8,0,1.4-0.5,1.4-1.2
		C32.4,43.8,31.9,43.5,31.6,43.4 M30.8,45.1h-0.6V42h0.6c0.4,0,0.6,0.2,0.6,0.6c0,0.4-0.2,0.6-0.6,0.6h-0.3v0.7h0.3
		c0.5,0,0.8,0.2,0.8,0.6C31.6,44.9,31.3,45.1,30.8,45.1"/>
	<polygon class="st0" points="39.9,43.1 38.3,43.1 38.3,41.3 37.4,41.3 37.4,45.8 38.3,45.8 38.3,43.8 39.9,43.8 39.9,45.8 
		40.7,45.8 40.7,41.3 39.9,41.3 	"/>
	<line class="st2" x1="33.2" y1="45.8" x2="33.2" y2="41.3"/>
	<line class="st3" x1="41.9" y1="45.8" x2="41.9" y2="41.3"/>
	<path class="st0" d="M35.9,43.2c-0.6-0.4-0.9-0.5-0.9-0.8c0-0.3,0.2-0.4,0.6-0.4c0.4,0,0.6,0.3,0.6,0.7h0.8c0-0.8-0.4-1.4-1.4-1.4
		c-0.9,0-1.4,0.5-1.4,1.2c0,0.6,0.4,1,1,1.3c0.8,0.5,1,0.6,1,0.9c0,0.3-0.2,0.5-0.6,0.5c-0.5,0-0.7-0.4-0.7-0.8h-0.8
		c0,0.9,0.4,1.5,1.4,1.5c0.8,0,1.4-0.4,1.4-1.2C37,43.8,36.6,43.6,35.9,43.2"/>
</g>
</svg>
