<?xml version="1.0" encoding="utf-8"?>
<!-- Generator: Adobe Illustrator 24.2.1, SVG Export Plug-In . SVG Version: 6.00 Build 0)  -->
<svg version="1.1" id="service_parts" xmlns="http://www.w3.org/2000/svg" xmlns:xlink="http://www.w3.org/1999/xlink" x="0px"
	 y="0px" viewBox="0 0 28.3 28.3" style="enable-background:new 0 0 28.3 28.3;" xml:space="preserve">
<style type="text/css">
	.st0{opacity:0;fill:#FFFFFF;}
	.st1{opacity:3.030303e-02;fill:#FCFCFC;}
	.st2{opacity:6.060606e-02;fill:#F9F9F9;}
	.st3{opacity:9.090909e-02;fill:#F5F5F5;}
	.st4{opacity:0.1212;fill:#F2F2F2;}
	.st5{opacity:0.1515;fill:#EFEFEF;}
	.st6{opacity:0.1818;fill:#ECECEC;}
	.st7{opacity:0.2121;fill:#E8E8E8;}
	.st8{opacity:0.2424;fill:#E5E5E5;}
	.st9{opacity:0.2727;fill:#E2E2E2;}
	.st10{opacity:0.303;fill:#DFDFDF;}
	.st11{opacity:0.3333;fill:#DBDBDB;}
	.st12{opacity:0.3636;fill:#D8D8D8;}
	.st13{opacity:0.3939;fill:#D5D5D5;}
	.st14{opacity:0.4242;fill:#D2D2D2;}
	.st15{opacity:0.4545;fill:#CECECE;}
	.st16{opacity:0.4848;fill:#CBCBCB;}
	.st17{opacity:0.5152;fill:#C8C8C8;}
	.st18{opacity:0.5455;fill:#C5C5C5;}
	.st19{opacity:0.5758;fill:#C1C1C1;}
	.st20{opacity:0.6061;fill:#BEBEBE;}
	.st21{opacity:0.6364;fill:#BBBBBB;}
	.st22{opacity:0.6667;fill:#B8B8B8;}
	.st23{opacity:0.697;fill:#B4B4B4;}
	.st24{opacity:0.7273;fill:#B1B1B1;}
	.st25{opacity:0.7576;fill:#AEAEAE;}
	.st26{opacity:0.7879;fill:#ABABAB;}
	.st27{opacity:0.8182;fill:#A7A7A7;}
	.st28{opacity:0.8485;fill:#A4A4A4;}
	.st29{opacity:0.8788;fill:#A1A1A1;}
	.st30{opacity:0.9091;fill:#9E9E9E;}
	.st31{opacity:0.9394;fill:#9A9A9A;}
	.st32{opacity:0.9697;fill:#979797;}
	.st33{fill:#949494;}
	.st34{fill:url(#SVGID_1_);}
	.st35{fill:#FFDB32;}
	.st36{clip-path:url(#SVGID_3_);}
	.st37{opacity:3.030303e-02;fill:#FEFCF9;}
	.st38{opacity:6.060606e-02;fill:#FEFAF3;}
	.st39{opacity:9.090909e-02;fill:#FDF7EE;}
	.st40{opacity:0.1212;fill:#FCF4E8;}
	.st41{opacity:0.1515;fill:#FCF2E2;}
	.st42{opacity:0.1818;fill:#FBEFDC;}
	.st43{opacity:0.2121;fill:#FAECD6;}
	.st44{opacity:0.2424;fill:#F9EAD0;}
	.st45{opacity:0.2727;fill:#F9E7CB;}
	.st46{opacity:0.303;fill:#F8E4C5;}
	.st47{opacity:0.3333;fill:#F7E2BF;}
	.st48{opacity:0.3636;fill:#F7DFB9;}
	.st49{opacity:0.3939;fill:#F6DCB3;}
	.st50{opacity:0.4242;fill:#F5DAAE;}
	.st51{opacity:0.4545;fill:#F5D7A8;}
	.st52{opacity:0.4848;fill:#F4D4A2;}
	.st53{opacity:0.5152;fill:#F3D29C;}
	.st54{opacity:0.5455;fill:#F2CF96;}
	.st55{opacity:0.5758;fill:#F2CC90;}
	.st56{opacity:0.6061;fill:#F1CA8B;}
	.st57{opacity:0.6364;fill:#F0C785;}
	.st58{opacity:0.6667;fill:#F0C47F;}
	.st59{opacity:0.697;fill:#EFC279;}
	.st60{opacity:0.7273;fill:#EEBF73;}
	.st61{opacity:0.7576;fill:#EEBC6E;}
	.st62{opacity:0.7879;fill:#EDBA68;}
	.st63{opacity:0.8182;fill:#ECB762;}
	.st64{opacity:0.8485;fill:#EBB45C;}
	.st65{opacity:0.8788;fill:#EBB256;}
	.st66{opacity:0.9091;fill:#EAAF50;}
	.st67{opacity:0.9394;fill:#E9AC4B;}
	.st68{opacity:0.9697;fill:#E9AA45;}
	.st69{fill:#E8A73F;}
	.st70{fill:url(#SVGID_4_);}
	.st71{fill:#FFFFFF;}
	.st72{fill:url(#SVGID_5_);}
	.st73{fill:url(#SVGID_6_);}
	.st74{fill:url(#SVGID_7_);}
	.st75{fill:url(#SVGID_8_);}
	.st76{fill:url(#SVGID_9_);}
	.st77{fill:url(#SVGID_10_);}
	.st78{fill:url(#SVGID_11_);}
	.st79{fill:url(#SVGID_12_);}
	.st80{fill:url(#SVGID_13_);}
	.st81{fill:url(#SVGID_14_);}
	.st82{fill:url(#SVGID_15_);}
	.st83{fill:url(#SVGID_16_);}
	.st84{fill:url(#SVGID_17_);}
	.st85{fill:url(#SVGID_18_);}
	.st86{fill:url(#SVGID_19_);}
	.st87{fill:url(#SVGID_20_);}
	.st88{fill:url(#SVGID_21_);}
	.st89{fill:url(#SVGID_22_);}
	.st90{fill:url(#SVGID_23_);}
	.st91{fill:url(#SVGID_24_);}
	.st92{fill:url(#SVGID_25_);}
	.st93{fill:#FF8A00;}
	.st94{fill:url(#SVGID_26_);}
	.st95{fill:#525252;}
	.st96{fill:#0E3E4B;}
	.st97{fill:url(#SVGID_27_);}
	.st98{fill:url(#SVGID_28_);}
	.st99{fill:url(#SVGID_29_);}
	.st100{fill:url(#SVGID_30_);}
	.st101{fill:#CECECE;}
	.st102{fill:url(#SVGID_31_);}
	.st103{fill:url(#SVGID_32_);}
	.st104{fill:#0084F2;}
</style>
<g>
	<g>
		<path class="st0" d="M23,12.9c-5.3-3.1-10.8-3.1-16.1,0l0,0c-2.6,1.5-4,3.1-4,4.6c0,1.6,1.3,3.1,4,4.6c5.3,3.1,10.8,3.1,16.1,0
			c2.6-1.5,4-3.1,4-4.6S25.7,14.5,23,12.9z"/>
		<path class="st1" d="M23,12.9c-5.3-3.1-10.8-3.1-16.1,0h0c-2.6,1.5-4,3.1-4,4.6c0,1.6,1.3,3.1,4,4.6c5.3,3.1,10.8,3.1,16.1,0
			c2.6-1.5,4-3.1,4-4.6S25.6,14.5,23,12.9z"/>
		<path class="st2" d="M22.9,12.9c-5.3-3.1-10.8-3.1-16.1,0h0c-2.6,1.5-4,3.1-4,4.6c0,1.6,1.3,3.1,4,4.6c5.3,3.1,10.8,3.1,16.1,0
			c2.6-1.5,4-3.1,4-4.6S25.6,14.5,22.9,12.9z"/>
		<path class="st3" d="M22.9,12.9c-5.3-3.1-10.8-3.1-16.1,0h0c-2.6,1.5-4,3.1-4,4.6c0,1.6,1.3,3.1,4,4.6c5.3,3.1,10.8,3.1,16.1,0
			c2.6-1.5,4-3.1,4-4.6S25.5,14.5,22.9,12.9z"/>
		<path class="st4" d="M22.8,12.9c-5.3-3.1-10.8-3.1-16.1,0h0c-2.6,1.5-4,3.1-4,4.6c0,1.6,1.3,3.1,4,4.6c5.3,3.1,10.8,3.1,16.1,0
			c2.6-1.5,4-3.1,4-4.6S25.5,14.5,22.8,12.9z"/>
		<path class="st5" d="M22.8,12.9c-5.3-3.1-10.8-3.1-16.1,0h0c-2.6,1.5-4,3.1-4,4.6c0,1.6,1.3,3.1,4,4.6c5.3,3.1,10.8,3.1,16.1,0
			c2.6-1.5,4-3.1,4-4.6S25.4,14.5,22.8,12.9z"/>
		<path class="st6" d="M22.7,12.9c-5.3-3.1-10.8-3.1-16.1,0h0c-2.6,1.5-4,3.1-4,4.6c0,1.6,1.3,3.1,4,4.6c5.3,3.1,10.8,3.1,16.1,0
			c2.6-1.5,4-3.1,4-4.6S25.4,14.5,22.7,12.9z"/>
		<path class="st7" d="M22.7,12.9c-5.3-3.1-10.8-3.1-16.1,0h0c-2.6,1.5-4,3.1-4,4.6c0,1.6,1.3,3.1,4,4.6c5.3,3.1,10.8,3.1,16.1,0
			c2.6-1.5,4-3.1,4-4.6S25.3,14.5,22.7,12.9z"/>
		<path class="st8" d="M22.6,12.9c-5.3-3.1-10.8-3.1-16.1,0h0c-2.6,1.5-4,3.1-4,4.6c0,1.6,1.3,3.1,4,4.6c5.3,3.1,10.8,3.1,16.1,0
			c2.6-1.5,4-3.1,4-4.6S25.3,14.5,22.6,12.9z"/>
		<path class="st9" d="M22.6,12.9c-5.3-3.1-10.8-3.1-16.1,0h0c-2.6,1.5-4,3.1-4,4.6c0,1.6,1.3,3.1,4,4.6c5.3,3.1,10.8,3.1,16.1,0
			c2.6-1.5,4-3.1,4-4.6S25.2,14.5,22.6,12.9z"/>
		<path class="st10" d="M22.5,12.9c-5.3-3.1-10.8-3.1-16.1,0h0c-2.6,1.5-4,3.1-4,4.6c0,1.6,1.3,3.1,4,4.6c5.3,3.1,10.8,3.1,16.1,0
			c2.6-1.5,4-3.1,4-4.6S25.2,14.5,22.5,12.9z"/>
		<path class="st11" d="M22.5,12.9c-5.3-3.1-10.8-3.1-16.1,0h0c-2.6,1.5-4,3.1-4,4.6c0,1.6,1.3,3.1,4,4.6c5.3,3.1,10.8,3.1,16.1,0
			c2.6-1.5,4-3.1,4-4.6S25.1,14.5,22.5,12.9z"/>
		<path class="st12" d="M22.4,12.9c-5.3-3.1-10.8-3.1-16.1,0h0c-2.6,1.5-4,3.1-4,4.6c0,1.6,1.3,3.1,4,4.6c5.3,3.1,10.8,3.1,16.1,0
			c2.6-1.5,4-3.1,4-4.6S25.1,14.5,22.4,12.9z"/>
		<path class="st13" d="M22.4,12.9c-5.3-3.1-10.8-3.1-16.1,0h0c-2.6,1.5-4,3.1-4,4.6c0,1.6,1.3,3.1,4,4.6c5.3,3.1,10.8,3.1,16.1,0
			c2.6-1.5,4-3.1,4-4.6S25,14.5,22.4,12.9z"/>
		<path class="st14" d="M22.3,12.9c-5.3-3.1-10.8-3.1-16.1,0h0c-2.6,1.5-4,3.1-4,4.6c0,1.6,1.3,3.1,4,4.6c5.3,3.1,10.8,3.1,16.1,0
			c2.6-1.5,4-3.1,4-4.6S25,14.5,22.3,12.9z"/>
		<path class="st15" d="M22.3,12.9c-5.3-3.1-10.8-3.1-16.1,0h0c-2.6,1.5-4,3.1-4,4.6c0,1.6,1.3,3.1,4,4.6c5.3,3.1,10.8,3.1,16.1,0
			c2.6-1.5,4-3.1,4-4.6S24.9,14.5,22.3,12.9z"/>
		<path class="st16" d="M22.2,12.9c-5.3-3.1-10.8-3.1-16.1,0h0c-2.6,1.5-4,3.1-4,4.6c0,1.6,1.3,3.1,4,4.6c5.3,3.1,10.8,3.1,16.1,0
			c2.6-1.5,4-3.1,4-4.6S24.9,14.5,22.2,12.9z"/>
		<path class="st17" d="M22.2,12.9c-5.3-3.1-10.8-3.1-16.1,0h0c-2.6,1.5-4,3.1-4,4.6c0,1.6,1.3,3.1,4,4.6c5.3,3.1,10.8,3.1,16.1,0
			c2.6-1.5,4-3.1,4-4.6S24.8,14.5,22.2,12.9z"/>
		<path class="st18" d="M22.1,12.9c-5.3-3.1-10.8-3.1-16.1,0h0c-2.6,1.5-4,3.1-4,4.6c0,1.6,1.3,3.1,4,4.6c5.3,3.1,10.8,3.1,16.1,0
			c2.6-1.5,4-3.1,4-4.6S24.8,14.5,22.1,12.9z"/>
		<path class="st19" d="M22.1,12.9c-5.3-3.1-10.8-3.1-16.1,0h0c-2.6,1.5-4,3.1-4,4.6c0,1.6,1.3,3.1,4,4.6c5.3,3.1,10.8,3.1,16.1,0
			c2.6-1.5,4-3.1,4-4.6S24.7,14.5,22.1,12.9z"/>
		<path class="st20" d="M22,12.9c-5.3-3.1-10.8-3.1-16.1,0h0c-2.6,1.5-4,3.1-4,4.6c0,1.6,1.3,3.1,4,4.6c5.3,3.1,10.8,3.1,16.1,0
			c2.6-1.5,4-3.1,4-4.6S24.7,14.5,22,12.9z"/>
		<path class="st21" d="M22,12.9c-5.3-3.1-10.8-3.1-16.1,0h0c-2.6,1.5-4,3.1-4,4.6c0,1.6,1.3,3.1,4,4.6c5.3,3.1,10.8,3.1,16.1,0
			c2.6-1.5,4-3.1,4-4.6S24.6,14.5,22,12.9z"/>
		<path class="st22" d="M21.9,12.9c-5.3-3.1-10.8-3.1-16.1,0h0c-2.6,1.5-4,3.1-4,4.6c0,1.6,1.3,3.1,4,4.6c5.3,3.1,10.8,3.1,16.1,0
			c2.6-1.5,4-3.1,4-4.6S24.6,14.5,21.9,12.9z"/>
		<path class="st23" d="M21.9,12.9c-5.3-3.1-10.8-3.1-16.1,0h0c-2.6,1.5-4,3.1-4,4.6c0,1.6,1.3,3.1,4,4.6c5.3,3.1,10.8,3.1,16.1,0
			c2.6-1.5,4-3.1,4-4.6S24.5,14.5,21.9,12.9z"/>
		<path class="st24" d="M21.8,12.9c-5.3-3.1-10.8-3.1-16.1,0h0c-2.6,1.5-4,3.1-4,4.6c0,1.6,1.3,3.1,4,4.6c5.3,3.1,10.8,3.1,16.1,0
			c2.6-1.5,4-3.1,4-4.6S24.5,14.5,21.8,12.9z"/>
		<path class="st25" d="M21.8,12.9c-5.3-3.1-10.8-3.1-16.1,0h0c-2.6,1.5-4,3.1-4,4.6c0,1.6,1.3,3.1,4,4.6c5.3,3.1,10.8,3.1,16.1,0
			c2.6-1.5,4-3.1,4-4.6S24.4,14.5,21.8,12.9z"/>
		<path class="st26" d="M21.7,12.9c-5.3-3.1-10.8-3.1-16.1,0h0c-2.6,1.5-4,3.1-4,4.6c0,1.6,1.3,3.1,4,4.6c5.3,3.1,10.8,3.1,16.1,0
			c2.6-1.5,4-3.1,4-4.6S24.4,14.5,21.7,12.9z"/>
		<path class="st27" d="M21.7,12.9c-5.3-3.1-10.8-3.1-16.1,0h0c-2.6,1.5-4,3.1-4,4.6c0,1.6,1.3,3.1,4,4.6c5.3,3.1,10.8,3.1,16.1,0
			c2.6-1.5,4-3.1,4-4.6S24.3,14.5,21.7,12.9z"/>
		<path class="st28" d="M21.6,12.9c-5.3-3.1-10.8-3.1-16.1,0h0c-2.6,1.5-4,3.1-4,4.6c0,1.6,1.3,3.1,4,4.6c5.3,3.1,10.8,3.1,16.1,0
			c2.6-1.5,4-3.1,4-4.6S24.3,14.5,21.6,12.9z"/>
		<path class="st29" d="M21.6,12.9c-5.3-3.1-10.8-3.1-16.1,0h0c-2.6,1.5-4,3.1-4,4.6c0,1.6,1.3,3.1,4,4.6c5.3,3.1,10.8,3.1,16.1,0
			c2.6-1.5,4-3.1,4-4.6S24.2,14.5,21.6,12.9z"/>
		<path class="st30" d="M21.5,12.9c-5.3-3.1-10.8-3.1-16.1,0h0c-2.6,1.5-4,3.1-4,4.6c0,1.6,1.3,3.1,4,4.6c5.3,3.1,10.8,3.1,16.1,0
			c2.6-1.5,4-3.1,4-4.6S24.2,14.5,21.5,12.9z"/>
		<path class="st31" d="M21.5,12.9c-5.3-3.1-10.8-3.1-16.1,0h0c-2.6,1.5-4,3.1-4,4.6c0,1.6,1.3,3.1,4,4.6c5.3,3.1,10.8,3.1,16.1,0
			c2.6-1.5,4-3.1,4-4.6S24.1,14.5,21.5,12.9z"/>
		<path class="st32" d="M21.4,12.9c-5.3-3.1-10.8-3.1-16.1,0h0c-2.6,1.5-4,3.1-4,4.6c0,1.6,1.3,3.1,4,4.6c5.3,3.1,10.8,3.1,16.1,0
			c2.6-1.5,4-3.1,4-4.6S24.1,14.5,21.4,12.9z"/>
		<path class="st33" d="M21.4,12.9c-5.3-3.1-10.8-3.1-16.1,0h0c-2.6,1.5-4,3.1-4,4.6c0,1.6,1.3,3.1,4,4.6c5.3,3.1,10.8,3.1,16.1,0
			c2.6-1.5,4-3.1,4-4.6S24,14.5,21.4,12.9z"/>
	</g>
	<g>
		<linearGradient id="SVGID_1_" gradientUnits="userSpaceOnUse" x1="1.3504" y1="19.8719" x2="25.3438" y2="19.8719">
			<stop  offset="0" style="stop-color:#FFED44"/>
			<stop  offset="7.192162e-02" style="stop-color:#FFF047"/>
			<stop  offset="0.3006" style="stop-color:#FFF24A"/>
			<stop  offset="0.5494" style="stop-color:#FFE23A"/>
			<stop  offset="0.7441" style="stop-color:#FFDC34"/>
			<stop  offset="1" style="stop-color:#F9B519"/>
		</linearGradient>
		<path class="st34" d="M21.4,19.9c-5.3,3.1-10.8,3.1-16.1,0c-2.6-1.5-4-3.1-4-4.6v2.3c0,1.6,1.3,3.1,4,4.6c5.3,3.1,10.8,3.1,16.1,0
			c2.6-1.5,4-3.1,4-4.6v-2.3C25.3,16.8,24,18.4,21.4,19.9z"/>
		<path class="st35" d="M21.4,10.6c-5.3-3.1-10.8-3.1-16.1,0l0,0c-2.6,1.5-4,3.1-4,4.6c0,1.6,1.3,3.1,4,4.6c5.3,3.1,10.8,3.1,16.1,0
			c2.6-1.5,4-3.1,4-4.6C25.3,13.7,24,12.1,21.4,10.6z"/>
	</g>
	<g>
		<defs>
			<path id="SVGID_2_" d="M21.4,10.6c-5.3-3.1-10.8-3.1-16.1,0l0,0c-2.6,1.5-4,3.1-4,4.6c0,1.6,1.3,3.1,4,4.6
				c5.3,3.1,10.8,3.1,16.1,0c2.6-1.5,4-3.1,4-4.6C25.3,13.7,24,12.1,21.4,10.6z"/>
		</defs>
		<clipPath id="SVGID_3_">
			<use xlink:href="#SVGID_2_"  style="overflow:visible;"/>
		</clipPath>
		<g class="st36">
			<path class="st0" d="M31.3,14.6c-0.1,0.1-0.2,0.2-0.3,0.3C31.1,14.8,31.2,14.7,31.3,14.6z M28,15.1C28,15.4,28,15.4,28,15.1
				c0-0.1,0-0.2-0.1-0.3c0,0,0,0,0,0c0.2-0.1,0.2-0.2,0.2-0.4l0-0.6c0,0,0-0.1,0-0.1c0.2,0.3,0.4,0.6,0.5,0.9
				c-0.1,0.4-0.4,0.7-0.7,1.1c0,0,0-0.1,0-0.1L28,15.1z M26.5,12.8l0-0.1c0.1,0,0.2,0.1,0.3,0.1C26.7,12.8,26.6,12.8,26.5,12.8z
				 M26.3,16.4c0.1,0.1,0.2,0.1,0.3,0.2c-0.1,0-0.2,0.1-0.3,0.1C26.3,16.6,26.3,16.5,26.3,16.4z M25,18.3c-0.2,0.1-0.5,0.2-0.8,0.3
				C24.5,18.5,24.8,18.4,25,18.3l5.8-3.3L25,18.3z M22,19.4c0.8,0.5,2.2,0.5,3,0l5.8-3.3c0.4-0.2,0.6-0.5,0.6-0.9l0-0.8l0-0.3
				c0,0.1,0,0.2,0,0.2c0-0.1,0-0.2,0-0.2c0-0.3-0.2-0.6-0.6-0.9l-5-2.9c0-0.1,0-0.2,0-0.2l0-2.1l0.9-0.5c0.5-0.3,0.6-0.7,0.3-0.9
				l-4.5-2.6c-0.4-0.2-1,0.1-1.3,0.8l-2.3,4c-0.2,0.4-0.3,0.6-0.1,0.7l1.3,0.8l0,0.7c0,0.1,0,0.1,0,0.2l-3.8,2.2
				c-0.4,0.2-0.6,0.5-0.6,0.9c0,0.1,0,0.1,0,0.2c0,0,0-0.1,0-0.2l0,0.3c0,0,0,0,0,0.1c0,0,0,0,0-0.1l0,0.8c0,0.3,0.2,0.6,0.6,0.9
				L22,19.4z M23.5,16.1L23.5,16.1c0,0,0,0.1,0,0.1C23.5,16.2,23.5,16.2,23.5,16.1z M23.7,16.1L23.7,16.1L23.7,16.1L23.7,16.1z
				 M23.6,13.2c0,0-0.1,0-0.1,0c0-0.4,0-0.6,0-0.6c0,0,0-0.1,0-0.1l0.1-0.1c0,0.1,0,0.1,0,0.2L23.6,13.2z M23.4,17.1
				c0.1-0.1,0.1-0.3,0.1-0.5l0-0.5c0.1,0,0.1,0,0.2,0c0,0.1,0,0.1,0,0.2c0,0.1-0.1,0.2-0.1,0.3l0,0c0,0,0,0,0,0c0,0,0,0,0,0
				c0,0.1,0,0.3,0,0.4C23.5,17.1,23.5,17.1,23.4,17.1z M22.2,11.2L22.2,11.2L22.2,11.2L22.2,11.2L22.2,11.2z M20.8,12.9
				c-0.1-0.1-0.2-0.2-0.3-0.2c0.1,0,0.2-0.1,0.3-0.1C20.8,12.7,20.8,12.9,20.8,12.9z M20.6,16.4l0,0.1c-0.1,0-0.2-0.1-0.3-0.1
				C20.4,16.5,20.5,16.5,20.6,16.4z M19.1,13.7l0,0.6c0,0.1,0,0.2,0.1,0.3c0,0,0,0,0,0c-0.2,0.1-0.2,0.2-0.2,0.4l0,0l0,0l0,0l0,0
				l0,0.6c0,0,0,0.1,0,0.1c-0.2-0.3-0.4-0.6-0.5-0.9C18.5,14.3,18.7,13.9,19.1,13.7C19.1,13.6,19.1,13.6,19.1,13.7
				C19.1,13.8,19.1,13.8,19.1,13.7z"/>
			<path class="st37" d="M31,14.6c-0.1,0.1-0.2,0.2-0.3,0.3C30.8,14.8,30.9,14.7,31,14.6z M27.7,15.1C27.7,15.4,27.7,15.4,27.7,15.1
				c0-0.1,0-0.2-0.1-0.3c0,0,0,0,0,0c0.2-0.1,0.2-0.2,0.2-0.4l0-0.6c0,0,0-0.1,0-0.1c0.2,0.3,0.4,0.6,0.5,0.9
				c-0.1,0.4-0.4,0.7-0.7,1.1c0,0,0-0.1,0-0.1L27.7,15.1z M26.2,12.8l0-0.1c0.1,0,0.2,0.1,0.3,0.1C26.4,12.8,26.3,12.8,26.2,12.8z
				 M26,16.4c0.1,0.1,0.2,0.1,0.3,0.2c-0.1,0-0.2,0.1-0.3,0.1C26,16.6,26,16.5,26,16.4z M24.7,18.3c-0.2,0.1-0.5,0.2-0.8,0.3
				C24.2,18.5,24.5,18.4,24.7,18.3l5.8-3.3L24.7,18.3z M21.7,19.4c0.8,0.5,2.2,0.5,3,0l5.8-3.3c0.4-0.2,0.6-0.5,0.6-0.9l0-0.8l0-0.3
				c0,0.1,0,0.2,0,0.2c0-0.1,0-0.2,0-0.2c0-0.3-0.2-0.6-0.6-0.9l-5-2.9c0-0.1,0-0.2,0-0.2l0-2.1l0.9-0.5c0.5-0.3,0.6-0.7,0.3-0.9
				l-4.5-2.6c-0.4-0.2-1,0.1-1.3,0.8l-2.3,4c-0.2,0.4-0.3,0.6-0.1,0.7l1.3,0.8l0,0.7c0,0.1,0,0.1,0,0.2L16,13.2
				c-0.4,0.2-0.6,0.5-0.6,0.9c0,0.1,0,0.1,0,0.2c0,0,0-0.1,0-0.2l0,0.3c0,0,0,0,0,0.1c0,0,0,0,0-0.1l0,0.8c0,0.3,0.2,0.6,0.6,0.9
				L21.7,19.4z M23.2,16.1c0,0,0,0.1,0,0.1C23.2,16.2,23.2,16.2,23.2,16.1L23.2,16.1z M23.4,16.1L23.4,16.1L23.4,16.1L23.4,16.1z
				 M23.3,13.2c0,0-0.1,0-0.1,0c0-0.4,0-0.6,0-0.6c0,0,0-0.1,0-0.1l0.1-0.1c0,0.1,0,0.1,0,0.2L23.3,13.2z M23.1,17.1
				c0.1-0.1,0.1-0.3,0.1-0.5l0-0.5c0.1,0,0.1,0,0.2,0c0,0.1,0,0.1,0,0.2c0,0.1-0.1,0.2-0.1,0.3l0,0c0,0,0,0,0,0c0,0,0,0,0,0
				c0,0.1,0,0.3,0,0.4C23.2,17.1,23.2,17.1,23.1,17.1z M21.9,11.2L21.9,11.2L21.9,11.2L21.9,11.2L21.9,11.2z M20.5,12.9
				c-0.1-0.1-0.2-0.2-0.3-0.2c0.1,0,0.2-0.1,0.3-0.1C20.5,12.7,20.5,12.9,20.5,12.9z M20.3,16.4l0,0.1c-0.1,0-0.2-0.1-0.3-0.1
				C20.1,16.5,20.2,16.5,20.3,16.4z M18.8,13.7l0,0.6c0,0.1,0,0.2,0.1,0.3c0,0,0,0,0,0c-0.2,0.1-0.2,0.2-0.2,0.4l0,0l0,0l0,0l0,0
				l0,0.6c0,0,0,0.1,0,0.1c-0.2-0.3-0.4-0.6-0.5-0.9C18.2,14.3,18.4,13.9,18.8,13.7C18.8,13.6,18.8,13.6,18.8,13.7
				C18.8,13.8,18.8,13.8,18.8,13.7z"/>
			<path class="st38" d="M30.7,14.6c-0.1,0.1-0.2,0.2-0.3,0.3C30.5,14.8,30.6,14.7,30.7,14.6z M27.4,15.1
				C27.4,15.4,27.4,15.4,27.4,15.1c0-0.1,0-0.2-0.1-0.3c0,0,0,0,0,0c0.2-0.1,0.2-0.2,0.2-0.4l0-0.6c0,0,0-0.1,0-0.1
				c0.2,0.3,0.4,0.6,0.5,0.9c-0.1,0.4-0.4,0.7-0.7,1.1c0,0,0-0.1,0-0.1L27.4,15.1z M25.9,12.8l0-0.1c0.1,0,0.2,0.1,0.3,0.1
				C26.1,12.8,26,12.8,25.9,12.8z M25.6,16.4c0.1,0.1,0.2,0.1,0.3,0.2c-0.1,0-0.2,0.1-0.3,0.1C25.7,16.6,25.7,16.5,25.6,16.4z
				 M24.4,18.3c-0.2,0.1-0.5,0.2-0.8,0.3C23.9,18.5,24.2,18.4,24.4,18.3l5.8-3.3L24.4,18.3z M21.4,19.4c0.8,0.5,2.2,0.5,3,0l5.8-3.3
				c0.4-0.2,0.6-0.5,0.6-0.9l0-0.8l0-0.3c0,0.1,0,0.2,0,0.2c0-0.1,0-0.2,0-0.2c0-0.3-0.2-0.6-0.6-0.9l-5-2.9c0-0.1,0-0.2,0-0.2
				l0-2.1l0.9-0.5c0.5-0.3,0.6-0.7,0.3-0.9l-4.5-2.6c-0.4-0.2-1,0.1-1.3,0.8l-2.3,4C18,9.1,18,9.3,18.1,9.4l1.3,0.8l0,0.7
				c0,0.1,0,0.1,0,0.2l-3.8,2.2c-0.4,0.2-0.6,0.5-0.6,0.9c0,0.1,0,0.1,0,0.2c0,0,0-0.1,0-0.2l0,0.3c0,0,0,0,0,0.1c0,0,0,0,0-0.1
				l0,0.8c0,0.3,0.2,0.6,0.6,0.9L21.4,19.4z M22.9,16.1c0,0,0,0.1,0,0.1C22.9,16.2,22.9,16.2,22.9,16.1L22.9,16.1z M23.1,16.1
				L23.1,16.1L23.1,16.1L23.1,16.1z M23,13.2c0,0-0.1,0-0.1,0c0-0.4,0-0.6,0-0.6c0,0,0-0.1,0-0.1l0.1-0.1c0,0.1,0,0.1,0,0.2L23,13.2
				z M22.8,17.1c0.1-0.1,0.1-0.3,0.1-0.5l0-0.5c0.1,0,0.1,0,0.2,0c0,0.1,0,0.1,0,0.2c0,0.1-0.1,0.2-0.1,0.3l0,0c0,0,0,0,0,0
				c0,0,0,0,0,0c0,0.1,0,0.3,0,0.4C22.9,17.1,22.9,17.1,22.8,17.1z M21.6,11.2L21.6,11.2L21.6,11.2L21.6,11.2L21.6,11.2z M20.2,12.9
				c-0.1-0.1-0.2-0.2-0.3-0.2c0.1,0,0.2-0.1,0.3-0.1C20.2,12.7,20.2,12.9,20.2,12.9z M20,16.4l0,0.1c-0.1,0-0.2-0.1-0.3-0.1
				C19.8,16.5,19.9,16.5,20,16.4z M18.5,13.7l0,0.6c0,0.1,0,0.2,0.1,0.3c0,0,0,0,0,0c-0.2,0.1-0.2,0.2-0.2,0.4l0,0l0,0l0,0l0,0
				l0,0.6c0,0,0,0.1,0,0.1c-0.2-0.3-0.4-0.6-0.5-0.9C17.9,14.3,18.1,13.9,18.5,13.7C18.5,13.6,18.5,13.6,18.5,13.7
				C18.5,13.8,18.5,13.8,18.5,13.7z"/>
			<path class="st39" d="M30.4,14.6c-0.1,0.1-0.2,0.2-0.3,0.3C30.2,14.8,30.3,14.7,30.4,14.6z M27.1,15.1
				C27.1,15.4,27.1,15.4,27.1,15.1c0-0.1,0-0.2-0.1-0.3c0,0,0,0,0,0c0.2-0.1,0.2-0.2,0.2-0.4l0-0.6c0,0,0-0.1,0-0.1
				c0.2,0.3,0.4,0.6,0.5,0.9c-0.1,0.4-0.4,0.7-0.7,1.1c0,0,0-0.1,0-0.1L27.1,15.1z M25.6,12.8l0-0.1c0.1,0,0.2,0.1,0.3,0.1
				C25.8,12.8,25.7,12.8,25.6,12.8z M25.3,16.4c0.1,0.1,0.2,0.1,0.3,0.2c-0.1,0-0.2,0.1-0.3,0.1C25.4,16.6,25.4,16.5,25.3,16.4z
				 M24.1,18.3c-0.2,0.1-0.5,0.2-0.8,0.3C23.6,18.5,23.9,18.4,24.1,18.3l5.8-3.3L24.1,18.3z M21.1,19.4c0.8,0.5,2.2,0.5,3,0l5.8-3.3
				c0.4-0.2,0.6-0.5,0.6-0.9l0-0.8l0-0.3c0,0.1,0,0.2,0,0.2c0-0.1,0-0.2,0-0.2c0-0.3-0.2-0.6-0.6-0.9l-5-2.9c0-0.1,0-0.2,0-0.2
				l0-2.1l0.9-0.5c0.5-0.3,0.6-0.7,0.3-0.9l-4.5-2.6c-0.4-0.2-1,0.1-1.3,0.8l-2.3,4c-0.2,0.4-0.3,0.6-0.1,0.7l1.3,0.8l0,0.7
				c0,0.1,0,0.1,0,0.2l-3.8,2.2c-0.4,0.2-0.6,0.5-0.6,0.9c0,0.1,0,0.1,0,0.2c0,0,0-0.1,0-0.2l0,0.3c0,0,0,0,0,0.1c0,0,0,0,0-0.1
				l0,0.8c0,0.3,0.2,0.6,0.6,0.9L21.1,19.4z M22.6,16.1c0,0,0,0.1,0,0.1C22.6,16.2,22.6,16.2,22.6,16.1L22.6,16.1z M22.8,16.1
				L22.8,16.1L22.8,16.1L22.8,16.1z M22.7,13.2c0,0-0.1,0-0.1,0c0-0.4,0-0.6,0-0.6c0,0,0-0.1,0-0.1l0.1-0.1c0,0.1,0,0.1,0,0.2
				L22.7,13.2z M22.5,17.1c0.1-0.1,0.1-0.3,0.1-0.5l0-0.5c0.1,0,0.1,0,0.2,0c0,0.1,0,0.1,0,0.2c0,0.1-0.1,0.2-0.1,0.3l0,0
				c0,0,0,0,0,0c0,0,0,0,0,0c0,0.1,0,0.3,0,0.4C22.6,17.1,22.6,17.1,22.5,17.1z M21.3,11.2L21.3,11.2L21.3,11.2L21.3,11.2L21.3,11.2
				z M19.9,12.9c-0.1-0.1-0.2-0.2-0.3-0.2c0.1,0,0.2-0.1,0.3-0.1C19.9,12.7,19.9,12.9,19.9,12.9z M19.7,16.4l0,0.1
				c-0.1,0-0.2-0.1-0.3-0.1C19.5,16.5,19.6,16.5,19.7,16.4z M18.2,13.7l0,0.6c0,0.1,0,0.2,0.1,0.3c0,0,0,0,0,0
				C18,14.6,18,14.7,18,14.9l0,0l0,0l0,0l0,0l0,0.6c0,0,0,0.1,0,0.1c-0.2-0.3-0.4-0.6-0.5-0.9C17.6,14.3,17.8,13.9,18.2,13.7
				C18.2,13.6,18.2,13.6,18.2,13.7C18.2,13.8,18.2,13.8,18.2,13.7z"/>
			<path class="st40" d="M30.1,14.6c-0.1,0.1-0.2,0.2-0.3,0.3C29.9,14.8,30,14.7,30.1,14.6z M26.8,15.1
				C26.8,15.4,26.8,15.4,26.8,15.1c0-0.1,0-0.2-0.1-0.3c0,0,0,0,0,0c0.2-0.1,0.2-0.2,0.2-0.4l0-0.6c0,0,0-0.1,0-0.1
				c0.2,0.3,0.4,0.6,0.5,0.9c-0.1,0.4-0.4,0.7-0.7,1.1c0,0,0-0.1,0-0.1L26.8,15.1z M25.3,12.8l0-0.1c0.1,0,0.2,0.1,0.3,0.1
				C25.5,12.8,25.4,12.8,25.3,12.8z M25,16.4c0.1,0.1,0.2,0.1,0.3,0.2c-0.1,0-0.2,0.1-0.3,0.1C25.1,16.6,25.1,16.5,25,16.4z
				 M23.8,18.3c-0.2,0.1-0.5,0.2-0.8,0.3C23.3,18.5,23.6,18.4,23.8,18.3l5.8-3.3L23.8,18.3z M20.8,19.4c0.8,0.5,2.2,0.5,3,0l5.8-3.3
				c0.4-0.2,0.6-0.5,0.6-0.9l0-0.8l0-0.3c0,0.1,0,0.2,0,0.2c0-0.1,0-0.2,0-0.2c0-0.3-0.2-0.6-0.6-0.9l-5-2.9c0-0.1,0-0.2,0-0.2
				l0-2.1l0.9-0.5c0.5-0.3,0.6-0.7,0.3-0.9l-4.5-2.6c-0.4-0.2-1,0.1-1.3,0.8l-2.3,4c-0.2,0.4-0.3,0.6-0.1,0.7l1.3,0.8l0,0.7
				c0,0.1,0,0.1,0,0.2L15,13.2c-0.4,0.2-0.6,0.5-0.6,0.9c0,0.1,0,0.1,0,0.2c0,0,0-0.1,0-0.2l0,0.3c0,0,0,0,0,0.1c0,0,0,0,0-0.1
				l0,0.8c0,0.3,0.2,0.6,0.6,0.9L20.8,19.4z M22.3,16.1c0,0,0,0.1,0,0.1C22.3,16.2,22.3,16.2,22.3,16.1L22.3,16.1z M22.5,16.1
				L22.5,16.1L22.5,16.1L22.5,16.1z M22.4,13.2c0,0-0.1,0-0.1,0c0-0.4,0-0.6,0-0.6c0,0,0-0.1,0-0.1l0.1-0.1c0,0.1,0,0.1,0,0.2
				L22.4,13.2z M22.2,17.1c0.1-0.1,0.1-0.3,0.1-0.5l0-0.5c0.1,0,0.1,0,0.2,0c0,0.1,0,0.1,0,0.2c0,0.1-0.1,0.2-0.1,0.3l0,0
				c0,0,0,0,0,0c0,0,0,0,0,0c0,0.1,0,0.3,0,0.4C22.3,17.1,22.3,17.1,22.2,17.1z M21,11.2L21,11.2L21,11.2L21,11.2L21,11.2z
				 M19.6,12.9c-0.1-0.1-0.2-0.2-0.3-0.2c0.1,0,0.2-0.1,0.3-0.1C19.6,12.7,19.6,12.9,19.6,12.9z M19.4,16.4l0,0.1
				c-0.1,0-0.2-0.1-0.3-0.1C19.2,16.5,19.3,16.5,19.4,16.4z M17.9,13.7l0,0.6c0,0.1,0,0.2,0.1,0.3c0,0,0,0,0,0
				c-0.2,0.1-0.2,0.2-0.2,0.4l0,0l0,0l0,0l0,0l0,0.6c0,0,0,0.1,0,0.1c-0.2-0.3-0.4-0.6-0.5-0.9C17.3,14.3,17.5,13.9,17.9,13.7
				C17.9,13.6,17.9,13.6,17.9,13.7C17.9,13.8,17.9,13.8,17.9,13.7z"/>
			<path class="st41" d="M29.8,14.6c-0.1,0.1-0.2,0.2-0.3,0.3C29.6,14.8,29.7,14.7,29.8,14.6z M26.5,15.1
				C26.5,15.4,26.5,15.4,26.5,15.1c0-0.1,0-0.2-0.1-0.3c0,0,0,0,0,0c0.2-0.1,0.2-0.2,0.2-0.4l0-0.6c0,0,0-0.1,0-0.1
				c0.2,0.3,0.4,0.6,0.5,0.9c-0.1,0.4-0.4,0.7-0.7,1.1c0,0,0-0.1,0-0.1L26.5,15.1z M25,12.8l0-0.1c0.1,0,0.2,0.1,0.3,0.1
				C25.2,12.8,25.1,12.8,25,12.8z M24.7,16.4c0.1,0.1,0.2,0.1,0.3,0.2c-0.1,0-0.2,0.1-0.3,0.1C24.7,16.6,24.8,16.5,24.7,16.4z
				 M23.5,18.3c-0.2,0.1-0.5,0.2-0.8,0.3C23,18.5,23.3,18.4,23.5,18.3l5.8-3.3L23.5,18.3z M20.5,19.4c0.8,0.5,2.2,0.5,3,0l5.8-3.3
				c0.4-0.2,0.6-0.5,0.6-0.9l0-0.8l0-0.3c0,0.1,0,0.2,0,0.2c0-0.1,0-0.2,0-0.2c0-0.3-0.2-0.6-0.6-0.9l-5-2.9c0-0.1,0-0.2,0-0.2
				l0-2.1l0.9-0.5c0.5-0.3,0.6-0.7,0.3-0.9L21,3.9c-0.4-0.2-1,0.1-1.3,0.8l-2.3,4c-0.2,0.4-0.3,0.6-0.1,0.7l1.3,0.8l0,0.7
				c0,0.1,0,0.1,0,0.2l-3.8,2.2c-0.4,0.2-0.6,0.5-0.6,0.9c0,0.1,0,0.1,0,0.2c0,0,0-0.1,0-0.2l0,0.3c0,0,0,0,0,0.1c0,0,0,0,0-0.1
				l0,0.8c0,0.3,0.2,0.6,0.6,0.9L20.5,19.4z M22,16.1c0,0,0,0.1,0,0.1C22,16.2,22,16.2,22,16.1L22,16.1z M22.2,16.1L22.2,16.1
				L22.2,16.1L22.2,16.1z M22.1,13.2c0,0-0.1,0-0.1,0c0-0.4,0-0.6,0-0.6c0,0,0-0.1,0-0.1l0.1-0.1c0,0.1,0,0.1,0,0.2L22.1,13.2z
				 M21.9,17.1C22,17,22,16.8,22,16.7l0-0.5c0.1,0,0.1,0,0.2,0c0,0.1,0,0.1,0,0.2c0,0.1-0.1,0.2-0.1,0.3l0,0c0,0,0,0,0,0
				c0,0,0,0,0,0c0,0.1,0,0.3,0,0.4C22,17.1,22,17.1,21.9,17.1z M20.7,11.2L20.7,11.2L20.7,11.2L20.7,11.2L20.7,11.2z M19.3,12.9
				c-0.1-0.1-0.2-0.2-0.3-0.2c0.1,0,0.2-0.1,0.3-0.1C19.3,12.7,19.3,12.9,19.3,12.9z M19.1,16.4l0,0.1c-0.1,0-0.2-0.1-0.3-0.1
				C18.9,16.5,19,16.5,19.1,16.4z M17.6,13.7l0,0.6c0,0.1,0,0.2,0.1,0.3c0,0,0,0,0,0c-0.2,0.1-0.2,0.2-0.2,0.4l0,0l0,0l0,0l0,0
				l0,0.6c0,0,0,0.1,0,0.1c-0.2-0.3-0.4-0.6-0.5-0.9C17,14.3,17.2,13.9,17.6,13.7C17.6,13.6,17.6,13.6,17.6,13.7
				C17.6,13.8,17.6,13.8,17.6,13.7z"/>
			<path class="st42" d="M29.5,14.6c-0.1,0.1-0.2,0.2-0.3,0.3C29.3,14.8,29.4,14.7,29.5,14.6z M26.2,15.1
				C26.2,15.4,26.2,15.4,26.2,15.1c0-0.1,0-0.2-0.1-0.3c0,0,0,0,0,0c0.2-0.1,0.2-0.2,0.2-0.4l0-0.6c0,0,0-0.1,0-0.1
				c0.2,0.3,0.4,0.6,0.5,0.9c-0.1,0.4-0.4,0.7-0.7,1.1c0,0,0-0.1,0-0.1L26.2,15.1z M24.7,12.8l0-0.1c0.1,0,0.2,0.1,0.3,0.1
				C24.9,12.8,24.8,12.8,24.7,12.8z M24.4,16.4c0.1,0.1,0.2,0.1,0.3,0.2c-0.1,0-0.2,0.1-0.3,0.1C24.4,16.6,24.4,16.5,24.4,16.4z
				 M23.2,18.3c-0.2,0.1-0.5,0.2-0.8,0.3C22.7,18.5,23,18.4,23.2,18.3L29,15L23.2,18.3z M20.2,19.4c0.8,0.5,2.2,0.5,3,0l5.8-3.3
				c0.4-0.2,0.6-0.5,0.6-0.9l0-0.8l0-0.3c0,0.1,0,0.2,0,0.2c0-0.1,0-0.2,0-0.2c0-0.3-0.2-0.6-0.6-0.9l-5-2.9c0-0.1,0-0.2,0-0.2L24,8
				l0.9-0.5c0.5-0.3,0.6-0.7,0.3-0.9l-4.5-2.6c-0.4-0.2-1,0.1-1.3,0.8l-2.3,4c-0.2,0.4-0.3,0.6-0.1,0.7l1.3,0.8l0,0.7
				c0,0.1,0,0.1,0,0.2l-3.8,2.2c-0.4,0.2-0.6,0.5-0.6,0.9c0,0.1,0,0.1,0,0.2c0,0,0-0.1,0-0.2l0,0.3c0,0,0,0,0,0.1c0,0,0,0,0-0.1
				l0,0.8c0,0.3,0.2,0.6,0.6,0.9L20.2,19.4z M21.7,16.1c0,0,0,0.1,0,0.1C21.7,16.2,21.7,16.2,21.7,16.1L21.7,16.1z M21.9,16.1
				L21.9,16.1L21.9,16.1L21.9,16.1z M21.8,13.2c0,0-0.1,0-0.1,0c0-0.4,0-0.6,0-0.6c0,0,0-0.1,0-0.1l0.1-0.1c0,0.1,0,0.1,0,0.2
				L21.8,13.2z M21.6,17.1c0.1-0.1,0.1-0.3,0.1-0.5l0-0.5c0.1,0,0.1,0,0.2,0c0,0.1,0,0.1,0,0.2c0,0.1-0.1,0.2-0.1,0.3l0,0
				c0,0,0,0,0,0c0,0,0,0,0,0c0,0.1,0,0.3,0,0.4C21.7,17.1,21.6,17.1,21.6,17.1z M20.4,11.2L20.4,11.2L20.4,11.2L20.4,11.2L20.4,11.2
				z M19,12.9c-0.1-0.1-0.2-0.2-0.3-0.2c0.1,0,0.2-0.1,0.3-0.1C19,12.7,19,12.9,19,12.9z M18.8,16.4l0,0.1c-0.1,0-0.2-0.1-0.3-0.1
				C18.6,16.5,18.7,16.5,18.8,16.4z M17.3,13.7l0,0.6c0,0.1,0,0.2,0.1,0.3c0,0,0,0,0,0c-0.2,0.1-0.2,0.2-0.2,0.4l0,0l0,0l0,0l0,0
				l0,0.6c0,0,0,0.1,0,0.1c-0.2-0.3-0.4-0.6-0.5-0.9C16.7,14.3,16.9,13.9,17.3,13.7C17.3,13.6,17.3,13.6,17.3,13.7
				C17.3,13.8,17.3,13.8,17.3,13.7z"/>
			<path class="st43" d="M29.2,14.6c-0.1,0.1-0.2,0.2-0.3,0.3C29,14.8,29.1,14.7,29.2,14.6z M25.9,15.1
				C25.9,15.4,25.9,15.4,25.9,15.1c0-0.1,0-0.2-0.1-0.3c0,0,0,0,0,0c0.2-0.1,0.2-0.2,0.2-0.4l0-0.6c0,0,0-0.1,0-0.1
				c0.2,0.3,0.4,0.6,0.5,0.9c-0.1,0.4-0.4,0.7-0.7,1.1c0,0,0-0.1,0-0.1L25.9,15.1z M24.4,12.8l0-0.1c0.1,0,0.2,0.1,0.3,0.1
				C24.6,12.8,24.5,12.8,24.4,12.8z M24.1,16.4c0.1,0.1,0.2,0.1,0.3,0.2c-0.1,0-0.2,0.1-0.3,0.1C24.1,16.6,24.1,16.5,24.1,16.4z
				 M22.9,18.3c-0.2,0.1-0.5,0.2-0.8,0.3C22.4,18.5,22.7,18.4,22.9,18.3l5.8-3.3L22.9,18.3z M19.9,19.4c0.8,0.5,2.2,0.5,3,0l5.8-3.3
				c0.4-0.2,0.6-0.5,0.6-0.9l0-0.8l0-0.3c0,0.1,0,0.2,0,0.2c0-0.1,0-0.2,0-0.2c0-0.3-0.2-0.6-0.6-0.9l-5-2.9c0-0.1,0-0.2,0-0.2
				l0-2.1l0.9-0.5c0.5-0.3,0.6-0.7,0.3-0.9l-4.5-2.6c-0.4-0.2-1,0.1-1.3,0.8l-2.3,4c-0.2,0.4-0.3,0.6-0.1,0.7l1.3,0.8l0,0.7
				c0,0.1,0,0.1,0,0.2l-3.8,2.2c-0.4,0.2-0.6,0.5-0.6,0.9c0,0.1,0,0.1,0,0.2c0,0,0-0.1,0-0.2l0,0.3c0,0,0,0,0,0.1c0,0,0,0,0-0.1
				l0,0.8c0,0.3,0.2,0.6,0.6,0.9L19.9,19.4z M21.4,16.1c0,0,0,0.1,0,0.1C21.4,16.2,21.4,16.2,21.4,16.1L21.4,16.1z M21.6,16.1
				L21.6,16.1L21.6,16.1L21.6,16.1z M21.5,13.2c0,0-0.1,0-0.1,0c0-0.4,0-0.6,0-0.6c0,0,0-0.1,0-0.1l0.1-0.1c0,0.1,0,0.1,0,0.2
				L21.5,13.2z M21.3,17.1c0.1-0.1,0.1-0.3,0.1-0.5l0-0.5c0.1,0,0.1,0,0.2,0c0,0.1,0,0.1,0,0.2c0,0.1-0.1,0.2-0.1,0.3l0,0
				c0,0,0,0,0,0c0,0,0,0,0,0c0,0.1,0,0.3,0,0.4C21.4,17.1,21.3,17.1,21.3,17.1z M20.1,11.2L20.1,11.2L20.1,11.2L20.1,11.2L20.1,11.2
				z M18.7,12.9c-0.1-0.1-0.2-0.2-0.3-0.2c0.1,0,0.2-0.1,0.3-0.1C18.7,12.7,18.7,12.9,18.7,12.9z M18.5,16.4l0,0.1
				c-0.1,0-0.2-0.1-0.3-0.1C18.3,16.5,18.4,16.5,18.5,16.4z M17,13.7l0,0.6c0,0.1,0,0.2,0.1,0.3c0,0,0,0,0,0
				c-0.2,0.1-0.2,0.2-0.2,0.4l0,0l0,0l0,0l0,0l0,0.6c0,0,0,0.1,0,0.1c-0.2-0.3-0.4-0.6-0.5-0.9C16.4,14.3,16.6,13.9,17,13.7
				C17,13.6,17,13.6,17,13.7C17,13.8,17,13.8,17,13.7z"/>
			<path class="st44" d="M28.9,14.6c-0.1,0.1-0.2,0.2-0.3,0.3C28.7,14.8,28.8,14.7,28.9,14.6z M25.6,15.1
				C25.6,15.4,25.6,15.4,25.6,15.1c0-0.1,0-0.2-0.1-0.3c0,0,0,0,0,0c0.2-0.1,0.2-0.2,0.2-0.4l0-0.6c0,0,0-0.1,0-0.1
				c0.2,0.3,0.4,0.6,0.5,0.9c-0.1,0.4-0.4,0.7-0.7,1.1c0,0,0-0.1,0-0.1L25.6,15.1z M24.1,12.8l0-0.1c0.1,0,0.2,0.1,0.3,0.1
				C24.3,12.8,24.2,12.8,24.1,12.8z M23.8,16.4c0.1,0.1,0.2,0.1,0.3,0.2c-0.1,0-0.2,0.1-0.3,0.1C23.8,16.6,23.8,16.5,23.8,16.4z
				 M22.6,18.3c-0.2,0.1-0.5,0.2-0.8,0.3C22.1,18.5,22.4,18.4,22.6,18.3l5.8-3.3L22.6,18.3z M19.6,19.4c0.8,0.5,2.2,0.5,3,0l5.8-3.3
				c0.4-0.2,0.6-0.5,0.6-0.9l0-0.8l0-0.3c0,0.1,0,0.2,0,0.2c0-0.1,0-0.2,0-0.2c0-0.3-0.2-0.6-0.6-0.9l-5-2.9c0-0.1,0-0.2,0-0.2
				l0-2.1l0.9-0.5c0.5-0.3,0.6-0.7,0.3-0.9l-4.5-2.6c-0.4-0.2-1,0.1-1.3,0.8l-2.3,4c-0.2,0.4-0.3,0.6-0.1,0.7l1.3,0.8l0,0.7
				c0,0.1,0,0.1,0,0.2l-3.8,2.2c-0.4,0.2-0.6,0.5-0.6,0.9c0,0.1,0,0.1,0,0.2c0,0,0-0.1,0-0.2l0,0.3c0,0,0,0,0,0.1c0,0,0,0,0-0.1
				l0,0.8c0,0.3,0.2,0.6,0.6,0.9L19.6,19.4z M21.1,16.1c0,0,0,0.1,0,0.1C21.1,16.2,21.1,16.2,21.1,16.1L21.1,16.1z M21.3,16.1
				L21.3,16.1L21.3,16.1L21.3,16.1z M21.2,13.2c0,0-0.1,0-0.1,0c0-0.4,0-0.6,0-0.6c0,0,0-0.1,0-0.1l0.1-0.1c0,0.1,0,0.1,0,0.2
				L21.2,13.2z M21,17.1c0.1-0.1,0.1-0.3,0.1-0.5l0-0.5c0.1,0,0.1,0,0.2,0c0,0.1,0,0.1,0,0.2c0,0.1-0.1,0.2-0.1,0.3l0,0c0,0,0,0,0,0
				c0,0,0,0,0,0c0,0.1,0,0.3,0,0.4C21.1,17.1,21,17.1,21,17.1z M19.8,11.2L19.8,11.2L19.8,11.2L19.8,11.2L19.8,11.2z M18.4,12.9
				c-0.1-0.1-0.2-0.2-0.3-0.2c0.1,0,0.2-0.1,0.3-0.1C18.4,12.7,18.4,12.9,18.4,12.9z M18.2,16.4l0,0.1c-0.1,0-0.2-0.1-0.3-0.1
				C18,16.5,18.1,16.5,18.2,16.4z M16.7,13.7l0,0.6c0,0.1,0,0.2,0.1,0.3c0,0,0,0,0,0c-0.2,0.1-0.2,0.2-0.2,0.4l0,0l0,0l0,0l0,0
				l0,0.6c0,0,0,0.1,0,0.1c-0.2-0.3-0.4-0.6-0.5-0.9C16.1,14.3,16.3,13.9,16.7,13.7C16.7,13.6,16.7,13.6,16.7,13.7
				C16.7,13.8,16.7,13.8,16.7,13.7z"/>
			<path class="st45" d="M28.6,14.6c-0.1,0.1-0.2,0.2-0.3,0.3C28.4,14.8,28.5,14.7,28.6,14.6z M25.3,15.1
				C25.3,15.4,25.3,15.4,25.3,15.1c0-0.1,0-0.2-0.1-0.3c0,0,0,0,0,0c0.2-0.1,0.2-0.2,0.2-0.4l0-0.6c0,0,0-0.1,0-0.1
				c0.2,0.3,0.4,0.6,0.5,0.9c-0.1,0.4-0.4,0.7-0.7,1.1c0,0,0-0.1,0-0.1L25.3,15.1z M23.8,12.8l0-0.1c0.1,0,0.2,0.1,0.3,0.1
				C24,12.8,23.9,12.8,23.8,12.8z M23.5,16.4c0.1,0.1,0.2,0.1,0.3,0.2c-0.1,0-0.2,0.1-0.3,0.1C23.5,16.6,23.5,16.5,23.5,16.4z
				 M22.3,18.3c-0.2,0.1-0.5,0.2-0.8,0.3C21.8,18.5,22.1,18.4,22.3,18.3l5.8-3.3L22.3,18.3z M19.3,19.4c0.8,0.5,2.2,0.5,3,0l5.8-3.3
				c0.4-0.2,0.6-0.5,0.6-0.9l0-0.8l0-0.3c0,0.1,0,0.2,0,0.2c0-0.1,0-0.2,0-0.2c0-0.3-0.2-0.6-0.6-0.9l-5-2.9c0-0.1,0-0.2,0-0.2
				l0-2.1L24,7.5c0.5-0.3,0.6-0.7,0.3-0.9l-4.5-2.6c-0.4-0.2-1,0.1-1.3,0.8l-2.3,4c-0.2,0.4-0.3,0.6-0.1,0.7l1.3,0.8l0,0.7
				c0,0.1,0,0.1,0,0.2l-3.8,2.2c-0.4,0.2-0.6,0.5-0.6,0.9c0,0.1,0,0.1,0,0.2c0,0,0-0.1,0-0.2l0,0.3c0,0,0,0,0,0.1c0,0,0,0,0-0.1
				l0,0.8c0,0.3,0.2,0.6,0.6,0.9L19.3,19.4z M20.8,16.1c0,0,0,0.1,0,0.1C20.8,16.2,20.8,16.2,20.8,16.1L20.8,16.1z M21,16.1L21,16.1
				L21,16.1L21,16.1z M20.8,13.2c0,0-0.1,0-0.1,0c0-0.4,0-0.6,0-0.6c0,0,0-0.1,0-0.1l0.1-0.1c0,0.1,0,0.1,0,0.2L20.8,13.2z
				 M20.7,17.1c0.1-0.1,0.1-0.3,0.1-0.5l0-0.5c0.1,0,0.1,0,0.2,0c0,0.1,0,0.1,0,0.2c0,0.1-0.1,0.2-0.1,0.3l0,0c0,0,0,0,0,0
				c0,0,0,0,0,0c0,0.1,0,0.3,0,0.4C20.8,17.1,20.7,17.1,20.7,17.1z M19.5,11.2L19.5,11.2L19.5,11.2L19.5,11.2L19.5,11.2z M18.1,12.9
				c-0.1-0.1-0.2-0.2-0.3-0.2c0.1,0,0.2-0.1,0.3-0.1C18.1,12.7,18.1,12.9,18.1,12.9z M17.9,16.4l0,0.1c-0.1,0-0.2-0.1-0.3-0.1
				C17.7,16.5,17.8,16.5,17.9,16.4z M16.4,13.7l0,0.6c0,0.1,0,0.2,0.1,0.3c0,0,0,0,0,0c-0.2,0.1-0.2,0.2-0.2,0.4l0,0l0,0l0,0l0,0
				l0,0.6c0,0,0,0.1,0,0.1c-0.2-0.3-0.4-0.6-0.5-0.9C15.8,14.3,16,13.9,16.4,13.7C16.4,13.6,16.4,13.6,16.4,13.7
				C16.4,13.8,16.4,13.8,16.4,13.7z"/>
			<path class="st46" d="M28.3,14.6c-0.1,0.1-0.2,0.2-0.3,0.3C28.1,14.8,28.2,14.7,28.3,14.6z M25,15.1C25,15.4,25,15.4,25,15.1
				c0-0.1,0-0.2-0.1-0.3c0,0,0,0,0,0c0.2-0.1,0.2-0.2,0.2-0.4l0-0.6c0,0,0-0.1,0-0.1c0.2,0.3,0.4,0.6,0.5,0.9
				c-0.1,0.4-0.4,0.7-0.7,1.1c0,0,0-0.1,0-0.1L25,15.1z M23.5,12.8l0-0.1c0.1,0,0.2,0.1,0.3,0.1C23.7,12.8,23.6,12.8,23.5,12.8z
				 M23.2,16.4c0.1,0.1,0.2,0.1,0.3,0.2c-0.1,0-0.2,0.1-0.3,0.1C23.2,16.6,23.2,16.5,23.2,16.4z M22,18.3c-0.2,0.1-0.5,0.2-0.8,0.3
				C21.5,18.5,21.8,18.4,22,18.3l5.8-3.3L22,18.3z M19,19.4c0.8,0.5,2.2,0.5,3,0l5.8-3.3c0.4-0.2,0.6-0.5,0.6-0.9l0-0.8l0-0.3
				c0,0.1,0,0.2,0,0.2c0-0.1,0-0.2,0-0.2c0-0.3-0.2-0.6-0.6-0.9l-5-2.9c0-0.1,0-0.2,0-0.2l0-2.1l0.9-0.5c0.5-0.3,0.6-0.7,0.3-0.9
				l-4.5-2.6c-0.4-0.2-1,0.1-1.3,0.8l-2.3,4c-0.2,0.4-0.3,0.6-0.1,0.7l1.3,0.8l0,0.7c0,0.1,0,0.1,0,0.2l-3.8,2.2
				c-0.4,0.2-0.6,0.5-0.6,0.9c0,0.1,0,0.1,0,0.2c0,0,0-0.1,0-0.2l0,0.3c0,0,0,0,0,0.1c0,0,0,0,0-0.1l0,0.8c0,0.3,0.2,0.6,0.6,0.9
				L19,19.4z M20.5,16.1c0,0,0,0.1,0,0.1C20.5,16.2,20.5,16.2,20.5,16.1L20.5,16.1z M20.7,16.1L20.7,16.1L20.7,16.1L20.7,16.1z
				 M20.5,13.2c0,0-0.1,0-0.1,0c0-0.4,0-0.6,0-0.6c0,0,0-0.1,0-0.1l0.1-0.1c0,0.1,0,0.1,0,0.2L20.5,13.2z M20.4,17.1
				c0.1-0.1,0.1-0.3,0.1-0.5l0-0.5c0.1,0,0.1,0,0.2,0c0,0.1,0,0.1,0,0.2c0,0.1-0.1,0.2-0.1,0.3l0,0c0,0,0,0,0,0c0,0,0,0,0,0
				c0,0.1,0,0.3,0,0.4C20.5,17.1,20.4,17.1,20.4,17.1z M19.2,11.2L19.2,11.2L19.2,11.2L19.2,11.2L19.2,11.2z M17.8,12.9
				c-0.1-0.1-0.2-0.2-0.3-0.2c0.1,0,0.2-0.1,0.3-0.1C17.8,12.7,17.8,12.9,17.8,12.9z M17.6,16.4l0,0.1c-0.1,0-0.2-0.1-0.3-0.1
				C17.3,16.5,17.5,16.5,17.6,16.4z M16.1,13.7l0,0.6c0,0.1,0,0.2,0.1,0.3c0,0,0,0,0,0c-0.2,0.1-0.2,0.2-0.2,0.4l0,0l0,0l0,0l0,0
				l0,0.6c0,0,0,0.1,0,0.1c-0.2-0.3-0.4-0.6-0.5-0.9C15.5,14.3,15.7,13.9,16.1,13.7C16.1,13.6,16.1,13.6,16.1,13.7
				C16.1,13.8,16.1,13.8,16.1,13.7z"/>
			<path class="st47" d="M28,14.6c-0.1,0.1-0.2,0.2-0.3,0.3C27.8,14.8,27.9,14.7,28,14.6z M24.7,15.1C24.7,15.4,24.7,15.4,24.7,15.1
				c0-0.1,0-0.2-0.1-0.3c0,0,0,0,0,0c0.2-0.1,0.2-0.2,0.2-0.4l0-0.6c0,0,0-0.1,0-0.1c0.2,0.3,0.4,0.6,0.5,0.9
				c-0.1,0.4-0.4,0.7-0.7,1.1c0,0,0-0.1,0-0.1L24.7,15.1z M23.2,12.8l0-0.1c0.1,0,0.2,0.1,0.3,0.1C23.4,12.8,23.3,12.8,23.2,12.8z
				 M22.9,16.4c0.1,0.1,0.2,0.1,0.3,0.2c-0.1,0-0.2,0.1-0.3,0.1C22.9,16.6,22.9,16.5,22.9,16.4z M21.7,18.3
				c-0.2,0.1-0.5,0.2-0.8,0.3C21.2,18.5,21.5,18.4,21.7,18.3l5.8-3.3L21.7,18.3z M18.7,19.4c0.8,0.5,2.2,0.5,3,0l5.8-3.3
				c0.4-0.2,0.6-0.5,0.6-0.9l0-0.8l0-0.3c0,0.1,0,0.2,0,0.2c0-0.1,0-0.2,0-0.2c0-0.3-0.2-0.6-0.6-0.9l-5-2.9c0-0.1,0-0.2,0-0.2
				l0-2.1l0.9-0.5c0.5-0.3,0.6-0.7,0.3-0.9l-4.5-2.6c-0.4-0.2-1,0.1-1.3,0.8l-2.3,4c-0.2,0.4-0.3,0.6-0.1,0.7l1.3,0.8l0,0.7
				c0,0.1,0,0.1,0,0.2l-3.8,2.2c-0.4,0.2-0.6,0.5-0.6,0.9c0,0.1,0,0.1,0,0.2c0,0,0-0.1,0-0.2l0,0.3c0,0,0,0,0,0.1c0,0,0,0,0-0.1
				l0,0.8c0,0.3,0.2,0.6,0.6,0.9L18.7,19.4z M20.2,16.1c0,0,0,0.1,0,0.1C20.2,16.2,20.2,16.2,20.2,16.1L20.2,16.1z M20.4,16.1
				L20.4,16.1L20.4,16.1L20.4,16.1z M20.2,13.2c0,0-0.1,0-0.1,0c0-0.4,0-0.6,0-0.6c0,0,0-0.1,0-0.1l0.1-0.1c0,0.1,0,0.1,0,0.2
				L20.2,13.2z M20.1,17.1c0.1-0.1,0.1-0.3,0.1-0.5l0-0.5c0.1,0,0.1,0,0.2,0c0,0.1,0,0.1,0,0.2c0,0.1-0.1,0.2-0.1,0.3l0,0
				c0,0,0,0,0,0c0,0,0,0,0,0c0,0.1,0,0.3,0,0.4C20.2,17.1,20.1,17.1,20.1,17.1z M18.9,11.2L18.9,11.2L18.9,11.2L18.9,11.2L18.9,11.2
				z M17.5,12.9c-0.1-0.1-0.2-0.2-0.3-0.2c0.1,0,0.2-0.1,0.3-0.1C17.5,12.7,17.5,12.9,17.5,12.9z M17.2,16.4l0,0.1
				c-0.1,0-0.2-0.1-0.3-0.1C17,16.5,17.1,16.5,17.2,16.4z M15.8,13.7l0,0.6c0,0.1,0,0.2,0.1,0.3c0,0,0,0,0,0
				c-0.2,0.1-0.2,0.2-0.2,0.4l0,0l0,0l0,0l0,0l0,0.6c0,0,0,0.1,0,0.1c-0.2-0.3-0.4-0.6-0.5-0.9C15.2,14.3,15.4,13.9,15.8,13.7
				C15.8,13.6,15.8,13.6,15.8,13.7C15.8,13.8,15.8,13.8,15.8,13.7z"/>
			<path class="st48" d="M27.7,14.6c-0.1,0.1-0.2,0.2-0.3,0.3C27.5,14.8,27.6,14.7,27.7,14.6z M24.4,15.1
				C24.4,15.4,24.4,15.4,24.4,15.1c0-0.1,0-0.2-0.1-0.3c0,0,0,0,0,0c0.2-0.1,0.2-0.2,0.2-0.4l0-0.6c0,0,0-0.1,0-0.1
				c0.2,0.3,0.4,0.6,0.5,0.9c-0.1,0.4-0.4,0.7-0.7,1.1c0,0,0-0.1,0-0.1L24.4,15.1z M22.9,12.8l0-0.1c0.1,0,0.2,0.1,0.3,0.1
				C23.1,12.8,23,12.8,22.9,12.8z M22.6,16.4c0.1,0.1,0.2,0.1,0.3,0.2c-0.1,0-0.2,0.1-0.3,0.1C22.6,16.6,22.6,16.5,22.6,16.4z
				 M21.4,18.3c-0.2,0.1-0.5,0.2-0.8,0.3C20.9,18.5,21.2,18.4,21.4,18.3l5.8-3.3L21.4,18.3z M18.4,19.4c0.8,0.5,2.2,0.5,3,0l5.8-3.3
				c0.4-0.2,0.6-0.5,0.6-0.9l0-0.8l0-0.3c0,0.1,0,0.2,0,0.2c0-0.1,0-0.2,0-0.2c0-0.3-0.2-0.6-0.6-0.9l-5-2.9c0-0.1,0-0.2,0-0.2
				l0-2.1l0.9-0.5c0.5-0.3,0.6-0.7,0.3-0.9l-4.5-2.6c-0.4-0.2-1,0.1-1.3,0.8l-2.3,4C15,9.1,15,9.3,15.1,9.4l1.3,0.8l0,0.7
				c0,0.1,0,0.1,0,0.2l-3.8,2.2c-0.4,0.2-0.6,0.5-0.6,0.9c0,0.1,0,0.1,0,0.2c0,0,0-0.1,0-0.2l0,0.3c0,0,0,0,0,0.1c0,0,0,0,0-0.1
				l0,0.8c0,0.3,0.2,0.6,0.6,0.9L18.4,19.4z M19.9,16.1c0,0,0,0.1,0,0.1C19.9,16.2,19.9,16.2,19.9,16.1L19.9,16.1z M20.1,16.1
				L20.1,16.1L20.1,16.1L20.1,16.1z M19.9,13.2c0,0-0.1,0-0.1,0c0-0.4,0-0.6,0-0.6c0,0,0-0.1,0-0.1l0.1-0.1c0,0.1,0,0.1,0,0.2
				L19.9,13.2z M19.8,17.1c0.1-0.1,0.1-0.3,0.1-0.5l0-0.5c0.1,0,0.1,0,0.2,0c0,0.1,0,0.1,0,0.2c0,0.1-0.1,0.2-0.1,0.3l0,0
				c0,0,0,0,0,0c0,0,0,0,0,0c0,0.1,0,0.3,0,0.4C19.9,17.1,19.8,17.1,19.8,17.1z M18.6,11.2L18.6,11.2L18.6,11.2L18.6,11.2L18.6,11.2
				z M17.2,12.9c-0.1-0.1-0.2-0.2-0.3-0.2c0.1,0,0.2-0.1,0.3-0.1C17.2,12.7,17.2,12.9,17.2,12.9z M16.9,16.4l0,0.1
				c-0.1,0-0.2-0.1-0.3-0.1C16.7,16.5,16.8,16.5,16.9,16.4z M15.5,13.7l0,0.6c0,0.1,0,0.2,0.1,0.3c0,0,0,0,0,0
				c-0.2,0.1-0.2,0.2-0.2,0.4l0,0l0,0l0,0l0,0l0,0.6c0,0,0,0.1,0,0.1c-0.2-0.3-0.4-0.6-0.5-0.9C14.9,14.3,15.1,13.9,15.5,13.7
				C15.5,13.6,15.5,13.6,15.5,13.7C15.5,13.8,15.5,13.8,15.5,13.7z"/>
			<path class="st49" d="M27.4,14.6c-0.1,0.1-0.2,0.2-0.3,0.3C27.2,14.8,27.3,14.7,27.4,14.6z M24.1,15.1
				C24.1,15.4,24.1,15.4,24.1,15.1c0-0.1,0-0.2-0.1-0.3c0,0,0,0,0,0c0.2-0.1,0.2-0.2,0.2-0.4l0-0.6c0,0,0-0.1,0-0.1
				c0.2,0.3,0.4,0.6,0.5,0.9c-0.1,0.4-0.4,0.7-0.7,1.1c0,0,0-0.1,0-0.1L24.1,15.1z M22.6,12.8l0-0.1c0.1,0,0.2,0.1,0.3,0.1
				C22.8,12.8,22.7,12.8,22.6,12.8z M22.3,16.4c0.1,0.1,0.2,0.1,0.3,0.2c-0.1,0-0.2,0.1-0.3,0.1C22.3,16.6,22.3,16.5,22.3,16.4z
				 M21.1,18.3c-0.2,0.1-0.5,0.2-0.8,0.3C20.6,18.5,20.9,18.4,21.1,18.3l5.8-3.3L21.1,18.3z M18.1,19.4c0.8,0.5,2.2,0.5,3,0l5.8-3.3
				c0.4-0.2,0.6-0.5,0.6-0.9l0-0.8l0-0.3c0,0.1,0,0.2,0,0.2c0-0.1,0-0.2,0-0.2c0-0.3-0.2-0.6-0.6-0.9l-5-2.9c0-0.1,0-0.2,0-0.2
				l0-2.1l0.9-0.5c0.5-0.3,0.6-0.7,0.3-0.9l-4.5-2.6c-0.4-0.2-1,0.1-1.3,0.8l-2.3,4c-0.2,0.4-0.3,0.6-0.1,0.7l1.3,0.8l0,0.7
				c0,0.1,0,0.1,0,0.2l-3.8,2.2c-0.4,0.2-0.6,0.5-0.6,0.9c0,0.1,0,0.1,0,0.2c0,0,0-0.1,0-0.2l0,0.3c0,0,0,0,0,0.1c0,0,0,0,0-0.1
				l0,0.8c0,0.3,0.2,0.6,0.6,0.9L18.1,19.4z M19.6,16.1c0,0,0,0.1,0,0.1C19.6,16.2,19.6,16.2,19.6,16.1L19.6,16.1z M19.8,16.1
				L19.8,16.1L19.8,16.1L19.8,16.1z M19.6,13.2c0,0-0.1,0-0.1,0c0-0.4,0-0.6,0-0.6c0,0,0-0.1,0-0.1l0.1-0.1c0,0.1,0,0.1,0,0.2
				L19.6,13.2z M19.5,17.1c0.1-0.1,0.1-0.3,0.1-0.5l0-0.5c0.1,0,0.1,0,0.2,0c0,0.1,0,0.1,0,0.2c0,0.1-0.1,0.2-0.1,0.3l0,0
				c0,0,0,0,0,0c0,0,0,0,0,0c0,0.1,0,0.3,0,0.4C19.6,17.1,19.5,17.1,19.5,17.1z M18.3,11.2L18.3,11.2L18.3,11.2L18.3,11.2L18.3,11.2
				z M16.9,12.9c-0.1-0.1-0.2-0.2-0.3-0.2c0.1,0,0.2-0.1,0.3-0.1C16.9,12.7,16.9,12.9,16.9,12.9z M16.6,16.4l0,0.1
				c-0.1,0-0.2-0.1-0.3-0.1C16.4,16.5,16.5,16.5,16.6,16.4z M15.1,13.7l0,0.6c0,0.1,0,0.2,0.1,0.3c0,0,0,0,0,0
				c-0.2,0.1-0.2,0.2-0.2,0.4l0,0l0,0l0,0l0,0l0,0.6c0,0,0,0.1,0,0.1c-0.2-0.3-0.4-0.6-0.5-0.9C14.6,14.3,14.8,13.9,15.1,13.7
				C15.2,13.6,15.1,13.6,15.1,13.7C15.1,13.8,15.1,13.8,15.1,13.7z"/>
			<path class="st50" d="M27.1,14.6c-0.1,0.1-0.2,0.2-0.3,0.3C26.9,14.8,27,14.7,27.1,14.6z M23.8,15.1
				C23.8,15.4,23.8,15.4,23.8,15.1c0-0.1,0-0.2-0.1-0.3c0,0,0,0,0,0c0.2-0.1,0.2-0.2,0.2-0.4l0-0.6c0,0,0-0.1,0-0.1
				c0.2,0.3,0.4,0.6,0.5,0.9c-0.1,0.4-0.4,0.7-0.7,1.1c0,0,0-0.1,0-0.1L23.8,15.1z M22.3,12.8l0-0.1c0.1,0,0.2,0.1,0.3,0.1
				C22.5,12.8,22.4,12.8,22.3,12.8z M22,16.4c0.1,0.1,0.2,0.1,0.3,0.2c-0.1,0-0.2,0.1-0.3,0.1C22,16.6,22,16.5,22,16.4z M20.8,18.3
				c-0.2,0.1-0.5,0.2-0.8,0.3C20.3,18.5,20.6,18.4,20.8,18.3l5.8-3.3L20.8,18.3z M17.8,19.4c0.8,0.5,2.2,0.5,3,0l5.8-3.3
				c0.4-0.2,0.6-0.5,0.6-0.9l0-0.8l0-0.3c0,0.1,0,0.2,0,0.2c0-0.1,0-0.2,0-0.2c0-0.3-0.2-0.6-0.6-0.9l-5-2.9c0-0.1,0-0.2,0-0.2
				l0-2.1l0.9-0.5c0.5-0.3,0.6-0.7,0.3-0.9l-4.5-2.6c-0.4-0.2-1,0.1-1.3,0.8l-2.3,4c-0.2,0.4-0.3,0.6-0.1,0.7l1.3,0.8l0,0.7
				c0,0.1,0,0.1,0,0.2L12,13.2c-0.4,0.2-0.6,0.5-0.6,0.9c0,0.1,0,0.1,0,0.2c0,0,0-0.1,0-0.2l0,0.3c0,0,0,0,0,0.1c0,0,0,0,0-0.1
				l0,0.8c0,0.3,0.2,0.6,0.6,0.9L17.8,19.4z M19.3,16.1c0,0,0,0.1,0,0.1C19.3,16.2,19.3,16.2,19.3,16.1L19.3,16.1z M19.5,16.1
				L19.5,16.1L19.5,16.1L19.5,16.1z M19.3,13.2c0,0-0.1,0-0.1,0c0-0.4,0-0.6,0-0.6c0,0,0-0.1,0-0.1l0.1-0.1c0,0.1,0,0.1,0,0.2
				L19.3,13.2z M19.2,17.1c0.1-0.1,0.1-0.3,0.1-0.5l0-0.5c0.1,0,0.1,0,0.2,0c0,0.1,0,0.1,0,0.2c0,0.1-0.1,0.2-0.1,0.3l0,0
				c0,0,0,0,0,0c0,0,0,0,0,0c0,0.1,0,0.3,0,0.4C19.3,17.1,19.2,17.1,19.2,17.1z M18,11.2L18,11.2L18,11.2L18,11.2L18,11.2z
				 M16.6,12.9c-0.1-0.1-0.2-0.2-0.3-0.2c0.1,0,0.2-0.1,0.3-0.1C16.6,12.7,16.6,12.9,16.6,12.9z M16.3,16.4l0,0.1
				c-0.1,0-0.2-0.1-0.3-0.1C16.1,16.5,16.2,16.5,16.3,16.4z M14.8,13.7l0,0.6c0,0.1,0,0.2,0.1,0.3c0,0,0,0,0,0
				c-0.2,0.1-0.2,0.2-0.2,0.4l0,0l0,0l0,0l0,0l0,0.6c0,0,0,0.1,0,0.1c-0.2-0.3-0.4-0.6-0.5-0.9C14.3,14.3,14.5,13.9,14.8,13.7
				C14.9,13.6,14.8,13.6,14.8,13.7C14.8,13.8,14.8,13.8,14.8,13.7z"/>
			<path class="st51" d="M26.8,14.6c-0.1,0.1-0.2,0.2-0.3,0.3C26.6,14.8,26.7,14.7,26.8,14.6z M23.5,15.1
				C23.5,15.4,23.5,15.4,23.5,15.1c0-0.1,0-0.2-0.1-0.3c0,0,0,0,0,0c0.2-0.1,0.2-0.2,0.2-0.4l0-0.6c0,0,0-0.1,0-0.1
				c0.2,0.3,0.4,0.6,0.5,0.9c-0.1,0.4-0.4,0.7-0.7,1.1c0,0,0-0.1,0-0.1L23.5,15.1z M22,12.8l0-0.1c0.1,0,0.2,0.1,0.3,0.1
				C22.2,12.8,22.1,12.8,22,12.8z M21.7,16.4c0.1,0.1,0.2,0.1,0.3,0.2c-0.1,0-0.2,0.1-0.3,0.1C21.7,16.6,21.7,16.5,21.7,16.4z
				 M20.5,18.3c-0.2,0.1-0.5,0.2-0.8,0.3C20,18.5,20.3,18.4,20.5,18.3l5.8-3.3L20.5,18.3z M17.5,19.4c0.8,0.5,2.2,0.5,3,0l5.8-3.3
				c0.4-0.2,0.6-0.5,0.6-0.9l0-0.8l0-0.3c0,0.1,0,0.2,0,0.2c0-0.1,0-0.2,0-0.2c0-0.3-0.2-0.6-0.6-0.9l-5-2.9c0-0.1,0-0.2,0-0.2
				l0-2.1l0.9-0.5c0.5-0.3,0.6-0.7,0.3-0.9L18,3.9c-0.4-0.2-1,0.1-1.3,0.8l-2.3,4c-0.2,0.4-0.3,0.6-0.1,0.7l1.3,0.8l0,0.7
				c0,0.1,0,0.1,0,0.2l-3.8,2.2c-0.4,0.2-0.6,0.5-0.6,0.9c0,0.1,0,0.1,0,0.2c0,0,0-0.1,0-0.2l0,0.3c0,0,0,0,0,0.1c0,0,0,0,0-0.1
				l0,0.8c0,0.3,0.2,0.6,0.6,0.9L17.5,19.4z M19,16.1c0,0,0,0.1,0,0.1C19,16.2,19,16.2,19,16.1L19,16.1z M19.2,16.1L19.2,16.1
				L19.2,16.1L19.2,16.1z M19,13.2c0,0-0.1,0-0.1,0c0-0.4,0-0.6,0-0.6c0,0,0-0.1,0-0.1l0.1-0.1c0,0.1,0,0.1,0,0.2L19,13.2z
				 M18.9,17.1c0.1-0.1,0.1-0.3,0.1-0.5l0-0.5c0.1,0,0.1,0,0.2,0c0,0.1,0,0.1,0,0.2c0,0.1-0.1,0.2-0.1,0.3l0,0c0,0,0,0,0,0
				c0,0,0,0,0,0c0,0.1,0,0.3,0,0.4C19,17.1,18.9,17.1,18.9,17.1z M17.7,11.2L17.7,11.2L17.7,11.2L17.7,11.2L17.7,11.2z M16.3,12.9
				c-0.1-0.1-0.2-0.2-0.3-0.2c0.1,0,0.2-0.1,0.3-0.1C16.3,12.7,16.3,12.9,16.3,12.9z M16,16.4l0,0.1c-0.1,0-0.2-0.1-0.3-0.1
				C15.8,16.5,15.9,16.5,16,16.4z M14.5,13.7l0,0.6c0,0.1,0,0.2,0.1,0.3c0,0,0,0,0,0c-0.2,0.1-0.2,0.2-0.2,0.4l0,0l0,0l0,0l0,0
				l0,0.6c0,0,0,0.1,0,0.1c-0.2-0.3-0.4-0.6-0.5-0.9C14,14.3,14.2,13.9,14.5,13.7C14.6,13.6,14.5,13.6,14.5,13.7
				C14.5,13.8,14.5,13.8,14.5,13.7z"/>
			<path class="st52" d="M26.4,14.6c-0.1,0.1-0.2,0.2-0.3,0.3C26.3,14.8,26.4,14.7,26.4,14.6z M23.2,15.1
				C23.2,15.4,23.2,15.4,23.2,15.1c0-0.1,0-0.2-0.1-0.3c0,0,0,0,0,0c0.2-0.1,0.2-0.2,0.2-0.4l0-0.6c0,0,0-0.1,0-0.1
				c0.2,0.3,0.4,0.6,0.5,0.9c-0.1,0.4-0.4,0.7-0.7,1.1c0,0,0-0.1,0-0.1L23.2,15.1z M21.7,12.8l0-0.1c0.1,0,0.2,0.1,0.3,0.1
				C21.9,12.8,21.8,12.8,21.7,12.8z M21.4,16.4c0.1,0.1,0.2,0.1,0.3,0.2c-0.1,0-0.2,0.1-0.3,0.1C21.4,16.6,21.4,16.5,21.4,16.4z
				 M20.2,18.3c-0.2,0.1-0.5,0.2-0.8,0.3C19.7,18.5,20,18.4,20.2,18.3L26,15L20.2,18.3z M17.2,19.4c0.8,0.5,2.2,0.5,3,0l5.8-3.3
				c0.4-0.2,0.6-0.5,0.6-0.9l0-0.8l0-0.3c0,0.1,0,0.2,0,0.2c0-0.1,0-0.2,0-0.2c0-0.3-0.2-0.6-0.6-0.9l-5-2.9c0-0.1,0-0.2,0-0.2L21,8
				l0.9-0.5c0.5-0.3,0.6-0.7,0.3-0.9l-4.5-2.6c-0.4-0.2-1,0.1-1.3,0.8l-2.3,4c-0.2,0.4-0.3,0.6-0.1,0.7l1.3,0.8l0,0.7
				c0,0.1,0,0.1,0,0.2l-3.8,2.2c-0.4,0.2-0.6,0.5-0.6,0.9c0,0.1,0,0.1,0,0.2c0,0,0-0.1,0-0.2l0,0.3c0,0,0,0,0,0.1c0,0,0,0,0-0.1
				l0,0.8c0,0.3,0.2,0.6,0.6,0.9L17.2,19.4z M18.7,16.1c0,0,0,0.1,0,0.1C18.7,16.2,18.7,16.2,18.7,16.1L18.7,16.1z M18.9,16.1
				L18.9,16.1L18.9,16.1L18.9,16.1z M18.7,13.2c0,0-0.1,0-0.1,0c0-0.4,0-0.6,0-0.6c0,0,0-0.1,0-0.1l0.1-0.1c0,0.1,0,0.1,0,0.2
				L18.7,13.2z M18.6,17.1c0.1-0.1,0.1-0.3,0.1-0.5l0-0.5c0.1,0,0.1,0,0.2,0c0,0.1,0,0.1,0,0.2c0,0.1-0.1,0.2-0.1,0.3l0,0
				c0,0,0,0,0,0c0,0,0,0,0,0c0,0.1,0,0.3,0,0.4C18.7,17.1,18.6,17.1,18.6,17.1z M17.4,11.2L17.4,11.2L17.4,11.2L17.4,11.2L17.4,11.2
				z M16,12.9c-0.1-0.1-0.2-0.2-0.3-0.2c0.1,0,0.2-0.1,0.3-0.1C16,12.7,16,12.9,16,12.9z M15.7,16.4l0,0.1c-0.1,0-0.2-0.1-0.3-0.1
				C15.5,16.5,15.6,16.5,15.7,16.4z M14.2,13.7l0,0.6c0,0.1,0,0.2,0.1,0.3c0,0,0,0,0,0c-0.2,0.1-0.2,0.2-0.2,0.4l0,0l0,0l0,0l0,0
				l0,0.6c0,0,0,0.1,0,0.1c-0.2-0.3-0.4-0.6-0.5-0.9C13.7,14.3,13.9,13.9,14.2,13.7C14.2,13.6,14.2,13.6,14.2,13.7
				C14.2,13.8,14.2,13.8,14.2,13.7z"/>
			<path class="st53" d="M26.1,14.6c-0.1,0.1-0.2,0.2-0.3,0.3C26,14.8,26.1,14.7,26.1,14.6z M22.9,15.1
				C22.9,15.4,22.9,15.4,22.9,15.1c0-0.1,0-0.2-0.1-0.3c0,0,0,0,0,0c0.2-0.1,0.2-0.2,0.2-0.4l0-0.6c0,0,0-0.1,0-0.1
				c0.2,0.3,0.4,0.6,0.5,0.9c-0.1,0.4-0.4,0.7-0.7,1.1c0,0,0-0.1,0-0.1L22.9,15.1z M21.4,12.8l0-0.1c0.1,0,0.2,0.1,0.3,0.1
				C21.6,12.8,21.5,12.8,21.4,12.8z M21.1,16.4c0.1,0.1,0.2,0.1,0.3,0.2c-0.1,0-0.2,0.1-0.3,0.1C21.1,16.6,21.1,16.5,21.1,16.4z
				 M19.9,18.3c-0.2,0.1-0.5,0.2-0.8,0.3C19.4,18.5,19.7,18.4,19.9,18.3l5.8-3.3L19.9,18.3z M16.9,19.4c0.8,0.5,2.2,0.5,3,0l5.8-3.3
				c0.4-0.2,0.6-0.5,0.6-0.9l0-0.8l0-0.3c0,0.1,0,0.2,0,0.2c0-0.1,0-0.2,0-0.2c0-0.3-0.2-0.6-0.6-0.9l-5-2.9c0-0.1,0-0.2,0-0.2
				l0-2.1l0.9-0.5c0.5-0.3,0.6-0.7,0.3-0.9l-4.5-2.6C17,3.7,16.4,4,16,4.7l-2.3,4c-0.2,0.4-0.3,0.6-0.1,0.7l1.3,0.8l0,0.7
				c0,0.1,0,0.1,0,0.2l-3.8,2.2c-0.4,0.2-0.6,0.5-0.6,0.9c0,0.1,0,0.1,0,0.2c0,0,0-0.1,0-0.2l0,0.3c0,0,0,0,0,0.1c0,0,0,0,0-0.1
				l0,0.8c0,0.3,0.2,0.6,0.6,0.9L16.9,19.4z M18.4,16.1c0,0,0,0.1,0,0.1C18.4,16.2,18.4,16.2,18.4,16.1L18.4,16.1z M18.6,16.1
				L18.6,16.1L18.6,16.1L18.6,16.1z M18.4,13.2c0,0-0.1,0-0.1,0c0-0.4,0-0.6,0-0.6c0,0,0-0.1,0-0.1l0.1-0.1c0,0.1,0,0.1,0,0.2
				L18.4,13.2z M18.2,17.1c0.1-0.1,0.1-0.3,0.1-0.5l0-0.5c0.1,0,0.1,0,0.2,0c0,0.1,0,0.1,0,0.2c0,0.1-0.1,0.2-0.1,0.3l0,0
				c0,0,0,0,0,0c0,0,0,0,0,0c0,0.1,0,0.3,0,0.4C18.4,17.1,18.3,17.1,18.2,17.1z M17.1,11.2L17.1,11.2L17.1,11.2L17.1,11.2L17.1,11.2
				z M15.7,12.9c-0.1-0.1-0.2-0.2-0.3-0.2c0.1,0,0.2-0.1,0.3-0.1C15.7,12.7,15.7,12.9,15.7,12.9z M15.4,16.4l0,0.1
				c-0.1,0-0.2-0.1-0.3-0.1C15.2,16.5,15.3,16.5,15.4,16.4z M13.9,13.7l0,0.6c0,0.1,0,0.2,0.1,0.3c0,0,0,0,0,0
				c-0.2,0.1-0.2,0.2-0.2,0.4l0,0l0,0l0,0l0,0l0,0.6c0,0,0,0.1,0,0.1c-0.2-0.3-0.4-0.6-0.5-0.9C13.4,14.3,13.6,13.9,13.9,13.7
				C13.9,13.6,13.9,13.6,13.9,13.7C13.9,13.8,13.9,13.8,13.9,13.7z"/>
			<path class="st54" d="M25.8,14.6c-0.1,0.1-0.2,0.2-0.3,0.3C25.7,14.8,25.8,14.7,25.8,14.6z M22.6,15.1
				C22.6,15.4,22.6,15.4,22.6,15.1c0-0.1,0-0.2-0.1-0.3c0,0,0,0,0,0c0.2-0.1,0.2-0.2,0.2-0.4l0-0.6c0,0,0-0.1,0-0.1
				c0.2,0.3,0.4,0.6,0.5,0.9c-0.1,0.4-0.4,0.7-0.7,1.1c0,0,0-0.1,0-0.1L22.6,15.1z M21.1,12.8l0-0.1c0.1,0,0.2,0.1,0.3,0.1
				C21.3,12.8,21.2,12.8,21.1,12.8z M20.8,16.4c0.1,0.1,0.2,0.1,0.3,0.2c-0.1,0-0.2,0.1-0.3,0.1C20.8,16.6,20.8,16.5,20.8,16.4z
				 M19.6,18.3c-0.2,0.1-0.5,0.2-0.8,0.3C19.1,18.5,19.4,18.4,19.6,18.3l5.8-3.3L19.6,18.3z M16.6,19.4c0.8,0.5,2.2,0.5,3,0l5.8-3.3
				c0.4-0.2,0.6-0.5,0.6-0.9l0-0.8l0-0.3c0,0.1,0,0.2,0,0.2c0-0.1,0-0.2,0-0.2c0-0.3-0.2-0.6-0.6-0.9l-5-2.9c0-0.1,0-0.2,0-0.2
				l0-2.1l0.9-0.5c0.5-0.3,0.6-0.7,0.3-0.9l-4.5-2.6c-0.4-0.2-1,0.1-1.3,0.8l-2.3,4c-0.2,0.4-0.3,0.6-0.1,0.7l1.3,0.8l0,0.7
				c0,0.1,0,0.1,0,0.2l-3.8,2.2c-0.4,0.2-0.6,0.5-0.6,0.9c0,0.1,0,0.1,0,0.2c0,0,0-0.1,0-0.2l0,0.3c0,0,0,0,0,0.1c0,0,0,0,0-0.1
				l0,0.8c0,0.3,0.2,0.6,0.6,0.9L16.6,19.4z M18.1,16.1c0,0,0,0.1,0,0.1C18.1,16.2,18.1,16.2,18.1,16.1L18.1,16.1z M18.3,16.1
				L18.3,16.1L18.3,16.1L18.3,16.1z M18.1,13.2c0,0-0.1,0-0.1,0c0-0.4,0-0.6,0-0.6c0,0,0-0.1,0-0.1l0.1-0.1c0,0.1,0,0.1,0,0.2
				L18.1,13.2z M17.9,17.1c0.1-0.1,0.1-0.3,0.1-0.5l0-0.5c0.1,0,0.1,0,0.2,0c0,0.1,0,0.1,0,0.2c0,0.1-0.1,0.2-0.1,0.3l0,0
				c0,0,0,0,0,0c0,0,0,0,0,0c0,0.1,0,0.3,0,0.4C18.1,17.1,18,17.1,17.9,17.1z M16.8,11.2L16.8,11.2L16.8,11.2L16.8,11.2L16.8,11.2z
				 M15.4,12.9c-0.1-0.1-0.2-0.2-0.3-0.2c0.1,0,0.2-0.1,0.3-0.1C15.4,12.7,15.4,12.9,15.4,12.9z M15.1,16.4l0,0.1
				c-0.1,0-0.2-0.1-0.3-0.1C14.9,16.5,15,16.5,15.1,16.4z M13.6,13.7l0,0.6c0,0.1,0,0.2,0.1,0.3c0,0,0,0,0,0
				c-0.2,0.1-0.2,0.2-0.2,0.4l0,0l0,0l0,0l0,0l0,0.6c0,0,0,0.1,0,0.1c-0.2-0.3-0.4-0.6-0.5-0.9C13.1,14.3,13.3,13.9,13.6,13.7
				C13.6,13.6,13.6,13.6,13.6,13.7C13.6,13.8,13.6,13.8,13.6,13.7z"/>
			<path class="st55" d="M25.5,14.6c-0.1,0.1-0.2,0.2-0.3,0.3C25.4,14.8,25.5,14.7,25.5,14.6z M22.3,15.1
				C22.3,15.4,22.3,15.4,22.3,15.1c0-0.1,0-0.2-0.1-0.3c0,0,0,0,0,0c0.2-0.1,0.2-0.2,0.2-0.4l0-0.6c0,0,0-0.1,0-0.1
				c0.2,0.3,0.4,0.6,0.5,0.9c-0.1,0.4-0.4,0.7-0.7,1.1c0,0,0-0.1,0-0.1L22.3,15.1z M20.8,12.8l0-0.1c0.1,0,0.2,0.1,0.3,0.1
				C21,12.8,20.9,12.8,20.8,12.8z M20.5,16.4c0.1,0.1,0.2,0.1,0.3,0.2c-0.1,0-0.2,0.1-0.3,0.1C20.5,16.6,20.5,16.5,20.5,16.4z
				 M19.3,18.3c-0.2,0.1-0.5,0.2-0.8,0.3C18.8,18.5,19.1,18.4,19.3,18.3l5.8-3.3L19.3,18.3z M16.3,19.4c0.8,0.5,2.2,0.5,3,0l5.8-3.3
				c0.4-0.2,0.6-0.5,0.6-0.9l0-0.8l0-0.3c0,0.1,0,0.2,0,0.2c0-0.1,0-0.2,0-0.2c0-0.3-0.2-0.6-0.6-0.9l-5-2.9c0-0.1,0-0.2,0-0.2
				l0-2.1L21,7.5c0.5-0.3,0.6-0.7,0.3-0.9l-4.5-2.6c-0.4-0.2-1,0.1-1.3,0.8l-2.3,4c-0.2,0.4-0.3,0.6-0.1,0.7l1.3,0.8l0,0.7
				c0,0.1,0,0.1,0,0.2l-3.8,2.2c-0.4,0.2-0.6,0.5-0.6,0.9c0,0.1,0,0.1,0,0.2c0,0,0-0.1,0-0.2l0,0.3c0,0,0,0,0,0.1c0,0,0,0,0-0.1
				l0,0.8c0,0.3,0.2,0.6,0.6,0.9L16.3,19.4z M17.8,16.1c0,0,0,0.1,0,0.1C17.8,16.2,17.8,16.2,17.8,16.1L17.8,16.1z M18,16.1L18,16.1
				L18,16.1L18,16.1z M17.8,13.2c0,0-0.1,0-0.1,0c0-0.4,0-0.6,0-0.6c0,0,0-0.1,0-0.1l0.1-0.1c0,0.1,0,0.1,0,0.2L17.8,13.2z
				 M17.6,17.1c0.1-0.1,0.1-0.3,0.1-0.5l0-0.5c0.1,0,0.1,0,0.2,0c0,0.1,0,0.1,0,0.2c0,0.1-0.1,0.2-0.1,0.3l0,0c0,0,0,0,0,0
				c0,0,0,0,0,0c0,0.1,0,0.3,0,0.4C17.8,17.1,17.7,17.1,17.6,17.1z M16.5,11.2L16.5,11.2L16.5,11.2L16.5,11.2L16.5,11.2z M15.1,12.9
				c-0.1-0.1-0.2-0.2-0.3-0.2c0.1,0,0.2-0.1,0.3-0.1C15.1,12.7,15.1,12.9,15.1,12.9z M14.8,16.4l0,0.1c-0.1,0-0.2-0.1-0.3-0.1
				C14.6,16.5,14.7,16.5,14.8,16.4z M13.3,13.7l0,0.6c0,0.1,0,0.2,0.1,0.3c0,0,0,0,0,0c-0.2,0.1-0.2,0.2-0.2,0.4l0,0l0,0l0,0l0,0
				l0,0.6c0,0,0,0.1,0,0.1c-0.2-0.3-0.4-0.6-0.5-0.9C12.7,14.3,13,13.9,13.3,13.7C13.3,13.6,13.3,13.6,13.3,13.7
				C13.3,13.8,13.3,13.8,13.3,13.7z"/>
			<path class="st56" d="M25.2,14.6c-0.1,0.1-0.2,0.2-0.3,0.3C25.1,14.8,25.2,14.7,25.2,14.6z M22,15.1C22,15.4,22,15.4,22,15.1
				c0-0.1,0-0.2-0.1-0.3c0,0,0,0,0,0c0.2-0.1,0.2-0.2,0.2-0.4l0-0.6c0,0,0-0.1,0-0.1c0.2,0.3,0.4,0.6,0.5,0.9
				c-0.1,0.4-0.4,0.7-0.7,1.1c0,0,0-0.1,0-0.1L22,15.1z M20.5,12.8l0-0.1c0.1,0,0.2,0.1,0.3,0.1C20.7,12.8,20.6,12.8,20.5,12.8z
				 M20.2,16.4c0.1,0.1,0.2,0.1,0.3,0.2c-0.1,0-0.2,0.1-0.3,0.1C20.2,16.6,20.2,16.5,20.2,16.4z M19,18.3c-0.2,0.1-0.5,0.2-0.8,0.3
				C18.5,18.5,18.8,18.4,19,18.3l5.8-3.3L19,18.3z M16,19.4c0.8,0.5,2.2,0.5,3,0l5.8-3.3c0.4-0.2,0.6-0.5,0.6-0.9l0-0.8l0-0.3
				c0,0.1,0,0.2,0,0.2c0-0.1,0-0.2,0-0.2c0-0.3-0.2-0.6-0.6-0.9l-5-2.9c0-0.1,0-0.2,0-0.2l0-2.1l0.9-0.5c0.5-0.3,0.6-0.7,0.3-0.9
				l-4.5-2.6c-0.4-0.2-1,0.1-1.3,0.8l-2.3,4c-0.2,0.4-0.3,0.6-0.1,0.7l1.3,0.8l0,0.7c0,0.1,0,0.1,0,0.2l-3.8,2.2
				c-0.4,0.2-0.6,0.5-0.6,0.9c0,0.1,0,0.1,0,0.2c0,0,0-0.1,0-0.2l0,0.3c0,0,0,0,0,0.1c0,0,0,0,0-0.1l0,0.8c0,0.3,0.2,0.6,0.6,0.9
				L16,19.4z M17.5,16.1c0,0,0,0.1,0,0.1C17.5,16.2,17.5,16.2,17.5,16.1L17.5,16.1z M17.7,16.1L17.7,16.1L17.7,16.1L17.7,16.1z
				 M17.5,13.2c0,0-0.1,0-0.1,0c0-0.4,0-0.6,0-0.6c0,0,0-0.1,0-0.1l0.1-0.1c0,0.1,0,0.1,0,0.2L17.5,13.2z M17.3,17.1
				c0.1-0.1,0.1-0.3,0.1-0.5l0-0.5c0.1,0,0.1,0,0.2,0c0,0.1,0,0.1,0,0.2c0,0.1-0.1,0.2-0.1,0.3l0,0c0,0,0,0,0,0c0,0,0,0,0,0
				c0,0.1,0,0.3,0,0.4C17.5,17.1,17.4,17.1,17.3,17.1z M16.2,11.2L16.2,11.2L16.2,11.2L16.2,11.2L16.2,11.2z M14.8,12.9
				c-0.1-0.1-0.2-0.2-0.3-0.2c0.1,0,0.2-0.1,0.3-0.1C14.8,12.7,14.8,12.9,14.8,12.9z M14.5,16.4l0,0.1c-0.1,0-0.2-0.1-0.3-0.1
				C14.3,16.5,14.4,16.5,14.5,16.4z M13,13.7l0,0.6c0,0.1,0,0.2,0.1,0.3c0,0,0,0,0,0c-0.2,0.1-0.2,0.2-0.2,0.4l0,0l0,0l0,0l0,0
				l0,0.6c0,0,0,0.1,0,0.1c-0.2-0.3-0.4-0.6-0.5-0.9C12.4,14.3,12.7,13.9,13,13.7C13,13.6,13,13.6,13,13.7C13,13.8,13,13.8,13,13.7z
				"/>
			<path class="st57" d="M24.9,14.6c-0.1,0.1-0.2,0.2-0.3,0.3C24.8,14.8,24.9,14.7,24.9,14.6z M21.6,15.1
				C21.6,15.4,21.6,15.4,21.6,15.1c0-0.1,0-0.2-0.1-0.3c0,0,0,0,0,0c0.2-0.1,0.2-0.2,0.2-0.4l0-0.6c0,0,0-0.1,0-0.1
				c0.2,0.3,0.4,0.6,0.5,0.9c-0.1,0.4-0.4,0.7-0.7,1.1c0,0,0-0.1,0-0.1L21.6,15.1z M20.2,12.8l0-0.1c0.1,0,0.2,0.1,0.3,0.1
				C20.4,12.8,20.3,12.8,20.2,12.8z M19.9,16.4c0.1,0.1,0.2,0.1,0.3,0.2c-0.1,0-0.2,0.1-0.3,0.1C19.9,16.6,19.9,16.5,19.9,16.4z
				 M18.7,18.3c-0.2,0.1-0.5,0.2-0.8,0.3C18.2,18.5,18.5,18.4,18.7,18.3l5.8-3.3L18.7,18.3z M15.7,19.4c0.8,0.5,2.2,0.5,3,0l5.8-3.3
				c0.4-0.2,0.6-0.5,0.6-0.9l0-0.8l0-0.3c0,0.1,0,0.2,0,0.2c0-0.1,0-0.2,0-0.2c0-0.3-0.2-0.6-0.6-0.9l-5-2.9c0-0.1,0-0.2,0-0.2
				l0-2.1l0.9-0.5c0.5-0.3,0.6-0.7,0.3-0.9l-4.5-2.6c-0.4-0.2-1,0.1-1.3,0.8l-2.3,4c-0.2,0.4-0.3,0.6-0.1,0.7l1.3,0.8l0,0.7
				c0,0.1,0,0.1,0,0.2l-3.8,2.2c-0.4,0.2-0.6,0.5-0.6,0.9c0,0.1,0,0.1,0,0.2c0,0,0-0.1,0-0.2l0,0.3c0,0,0,0,0,0.1c0,0,0,0,0-0.1
				l0,0.8c0,0.3,0.2,0.6,0.6,0.9L15.7,19.4z M17.2,16.1c0,0,0,0.1,0,0.1C17.2,16.2,17.2,16.2,17.2,16.1L17.2,16.1z M17.4,16.1
				L17.4,16.1L17.4,16.1L17.4,16.1z M17.2,13.2c0,0-0.1,0-0.1,0c0-0.4,0-0.6,0-0.6c0,0,0-0.1,0-0.1l0.1-0.1c0,0.1,0,0.1,0,0.2
				L17.2,13.2z M17,17.1c0.1-0.1,0.1-0.3,0.1-0.5l0-0.5c0.1,0,0.1,0,0.2,0c0,0.1,0,0.1,0,0.2c0,0.1-0.1,0.2-0.1,0.3l0,0c0,0,0,0,0,0
				c0,0,0,0,0,0c0,0.1,0,0.3,0,0.4C17.2,17.1,17.1,17.1,17,17.1z M15.9,11.2L15.9,11.2L15.9,11.2L15.9,11.2L15.9,11.2z M14.5,12.9
				c-0.1-0.1-0.2-0.2-0.3-0.2c0.1,0,0.2-0.1,0.3-0.1C14.5,12.7,14.5,12.9,14.5,12.9z M14.2,16.4l0,0.1c-0.1,0-0.2-0.1-0.3-0.1
				C14,16.5,14.1,16.5,14.2,16.4z M12.7,13.7l0,0.6c0,0.1,0,0.2,0.1,0.3c0,0,0,0,0,0c-0.2,0.1-0.2,0.2-0.2,0.4l0,0l0,0l0,0l0,0
				l0,0.6c0,0,0,0.1,0,0.1c-0.2-0.3-0.4-0.6-0.5-0.9C12.1,14.3,12.4,13.9,12.7,13.7C12.7,13.6,12.7,13.6,12.7,13.7
				C12.7,13.8,12.7,13.8,12.7,13.7z"/>
			<path class="st58" d="M24.6,14.6c-0.1,0.1-0.2,0.2-0.3,0.3C24.5,14.8,24.6,14.7,24.6,14.6z M21.3,15.1
				C21.3,15.4,21.3,15.4,21.3,15.1c0-0.1,0-0.2-0.1-0.3c0,0,0,0,0,0c0.2-0.1,0.2-0.2,0.2-0.4l0-0.6c0,0,0-0.1,0-0.1
				c0.2,0.3,0.4,0.6,0.5,0.9c-0.1,0.4-0.4,0.7-0.7,1.1c0,0,0-0.1,0-0.1L21.3,15.1z M19.9,12.8l0-0.1c0.1,0,0.2,0.1,0.3,0.1
				C20.1,12.8,20,12.8,19.9,12.8z M19.6,16.4c0.1,0.1,0.2,0.1,0.3,0.2c-0.1,0-0.2,0.1-0.3,0.1C19.6,16.6,19.6,16.5,19.6,16.4z
				 M18.4,18.3c-0.2,0.1-0.5,0.2-0.8,0.3C17.9,18.5,18.2,18.4,18.4,18.3l5.8-3.3L18.4,18.3z M15.4,19.4c0.8,0.5,2.2,0.5,3,0l5.8-3.3
				c0.4-0.2,0.6-0.5,0.6-0.9l0-0.8l0-0.3c0,0.1,0,0.2,0,0.2c0-0.1,0-0.2,0-0.2c0-0.3-0.2-0.6-0.6-0.9l-5-2.9c0-0.1,0-0.2,0-0.2
				l0-2.1l0.9-0.5c0.5-0.3,0.6-0.7,0.3-0.9l-4.5-2.6c-0.4-0.2-1,0.1-1.3,0.8l-2.3,4C12,9.1,11.9,9.3,12,9.4l1.3,0.8l0,0.7
				c0,0.1,0,0.1,0,0.2l-3.8,2.2C9.2,13.5,9,13.8,9,14.1c0,0.1,0,0.1,0,0.2c0,0,0-0.1,0-0.2l0,0.3c0,0,0,0,0,0.1c0,0,0,0,0-0.1l0,0.8
				c0,0.3,0.2,0.6,0.6,0.9L15.4,19.4z M16.9,16.1c0,0,0,0.1,0,0.1C16.9,16.2,16.9,16.2,16.9,16.1L16.9,16.1z M17.1,16.1L17.1,16.1
				L17.1,16.1L17.1,16.1z M16.9,13.2c0,0-0.1,0-0.1,0c0-0.4,0-0.6,0-0.6c0,0,0-0.1,0-0.1l0.1-0.1c0,0.1,0,0.1,0,0.2L16.9,13.2z
				 M16.7,17.1c0.1-0.1,0.1-0.3,0.1-0.5l0-0.5c0.1,0,0.1,0,0.2,0c0,0.1,0,0.1,0,0.2c0,0.1-0.1,0.2-0.1,0.3l0,0c0,0,0,0,0,0
				c0,0,0,0,0,0c0,0.1,0,0.3,0,0.4C16.9,17.1,16.8,17.1,16.7,17.1z M15.6,11.2L15.6,11.2L15.6,11.2L15.6,11.2L15.6,11.2z M14.2,12.9
				c-0.1-0.1-0.2-0.2-0.3-0.2c0.1,0,0.2-0.1,0.3-0.1C14.2,12.7,14.2,12.9,14.2,12.9z M13.9,16.4l0,0.1c-0.1,0-0.2-0.1-0.3-0.1
				C13.7,16.5,13.8,16.5,13.9,16.4z M12.4,13.7l0,0.6c0,0.1,0,0.2,0.1,0.3c0,0,0,0,0,0c-0.2,0.1-0.2,0.2-0.2,0.4l0,0l0,0l0,0l0,0
				l0,0.6c0,0,0,0.1,0,0.1c-0.2-0.3-0.4-0.6-0.5-0.9C11.8,14.3,12.1,13.9,12.4,13.7C12.4,13.6,12.4,13.6,12.4,13.7
				C12.4,13.8,12.4,13.8,12.4,13.7z"/>
			<path class="st59" d="M24.3,14.6c-0.1,0.1-0.2,0.2-0.3,0.3C24.1,14.8,24.3,14.7,24.3,14.6z M21,15.1C21,15.4,21,15.4,21,15.1
				c0-0.1,0-0.2-0.1-0.3c0,0,0,0,0,0c0.2-0.1,0.2-0.2,0.2-0.4l0-0.6c0,0,0-0.1,0-0.1c0.2,0.3,0.4,0.6,0.5,0.9
				c-0.1,0.4-0.4,0.7-0.7,1.1c0,0,0-0.1,0-0.1L21,15.1z M19.6,12.8l0-0.1c0.1,0,0.2,0.1,0.3,0.1C19.8,12.8,19.7,12.8,19.6,12.8z
				 M19.3,16.4c0.1,0.1,0.2,0.1,0.3,0.2c-0.1,0-0.2,0.1-0.3,0.1C19.3,16.6,19.3,16.5,19.3,16.4z M18.1,18.3
				c-0.2,0.1-0.5,0.2-0.8,0.3C17.6,18.5,17.9,18.4,18.1,18.3l5.8-3.3L18.1,18.3z M15.1,19.4c0.8,0.5,2.2,0.5,3,0l5.8-3.3
				c0.4-0.2,0.6-0.5,0.6-0.9l0-0.8l0-0.3c0,0.1,0,0.2,0,0.2c0-0.1,0-0.2,0-0.2c0-0.3-0.2-0.6-0.6-0.9l-5-2.9c0-0.1,0-0.2,0-0.2
				l0-2.1l0.9-0.5c0.5-0.3,0.6-0.7,0.3-0.9l-4.5-2.6c-0.4-0.2-1,0.1-1.3,0.8l-2.3,4c-0.2,0.4-0.3,0.6-0.1,0.7l1.3,0.8l0,0.7
				c0,0.1,0,0.1,0,0.2l-3.8,2.2c-0.4,0.2-0.6,0.5-0.6,0.9c0,0.1,0,0.1,0,0.2c0,0,0-0.1,0-0.2l0,0.3c0,0,0,0,0,0.1c0,0,0,0,0-0.1
				l0,0.8c0,0.3,0.2,0.6,0.6,0.9L15.1,19.4z M16.6,16.1c0,0,0,0.1,0,0.1C16.6,16.2,16.6,16.2,16.6,16.1L16.6,16.1z M16.8,16.1
				L16.8,16.1L16.8,16.1L16.8,16.1z M16.6,13.2c0,0-0.1,0-0.1,0c0-0.4,0-0.6,0-0.6c0,0,0-0.1,0-0.1l0.1-0.1c0,0.1,0,0.1,0,0.2
				L16.6,13.2z M16.4,17.1c0.1-0.1,0.1-0.3,0.1-0.5l0-0.5c0.1,0,0.1,0,0.2,0c0,0.1,0,0.1,0,0.2c0,0.1-0.1,0.2-0.1,0.3l0,0
				c0,0,0,0,0,0c0,0,0,0,0,0c0,0.1,0,0.3,0,0.4C16.6,17.1,16.5,17.1,16.4,17.1z M15.3,11.2L15.3,11.2L15.3,11.2L15.3,11.2L15.3,11.2
				z M13.9,12.9c-0.1-0.1-0.2-0.2-0.3-0.2c0.1,0,0.2-0.1,0.3-0.1C13.9,12.7,13.9,12.9,13.9,12.9z M13.6,16.4l0,0.1
				c-0.1,0-0.2-0.1-0.3-0.1C13.4,16.5,13.5,16.5,13.6,16.4z M12.1,13.7l0,0.6c0,0.1,0,0.2,0.1,0.3c0,0,0,0,0,0
				c-0.2,0.1-0.2,0.2-0.2,0.4l0,0l0,0l0,0l0,0l0,0.6c0,0,0,0.1,0,0.1c-0.2-0.3-0.4-0.6-0.5-0.9C11.5,14.3,11.8,13.9,12.1,13.7
				C12.1,13.6,12.1,13.6,12.1,13.7C12.1,13.8,12.1,13.8,12.1,13.7z"/>
			<path class="st60" d="M24,14.6c-0.1,0.1-0.2,0.2-0.3,0.3C23.8,14.8,24,14.7,24,14.6z M20.7,15.1C20.7,15.4,20.7,15.4,20.7,15.1
				c0-0.1,0-0.2-0.1-0.3c0,0,0,0,0,0c0.2-0.1,0.2-0.2,0.2-0.4l0-0.6c0,0,0-0.1,0-0.1c0.2,0.3,0.4,0.6,0.5,0.9
				c-0.1,0.4-0.4,0.7-0.7,1.1c0,0,0-0.1,0-0.1L20.7,15.1z M19.2,12.8l0-0.1c0.1,0,0.2,0.1,0.3,0.1C19.5,12.8,19.3,12.8,19.2,12.8z
				 M19,16.4c0.1,0.1,0.2,0.1,0.3,0.2c-0.1,0-0.2,0.1-0.3,0.1C19,16.6,19,16.5,19,16.4z M17.8,18.3c-0.2,0.1-0.5,0.2-0.8,0.3
				C17.3,18.5,17.6,18.4,17.8,18.3l5.8-3.3L17.8,18.3z M14.8,19.4c0.8,0.5,2.2,0.5,3,0l5.8-3.3c0.4-0.2,0.6-0.5,0.6-0.9l0-0.8l0-0.3
				c0,0.1,0,0.2,0,0.2c0-0.1,0-0.2,0-0.2c0-0.3-0.2-0.6-0.6-0.9l-5-2.9c0-0.1,0-0.2,0-0.2l0-2.1l0.9-0.5c0.5-0.3,0.6-0.7,0.3-0.9
				l-4.5-2.6c-0.4-0.2-1,0.1-1.3,0.8l-2.3,4c-0.2,0.4-0.3,0.6-0.1,0.7l1.3,0.8l0,0.7c0,0.1,0,0.1,0,0.2L9,13.2
				c-0.4,0.2-0.6,0.5-0.6,0.9c0,0.1,0,0.1,0,0.2c0,0,0-0.1,0-0.2l0,0.3c0,0,0,0,0,0.1c0,0,0,0,0-0.1l0,0.8c0,0.3,0.2,0.6,0.6,0.9
				L14.8,19.4z M16.3,16.1c0,0,0,0.1,0,0.1C16.2,16.2,16.3,16.2,16.3,16.1L16.3,16.1z M16.5,16.1L16.5,16.1L16.5,16.1L16.5,16.1z
				 M16.3,13.2c0,0-0.1,0-0.1,0c0-0.4,0-0.6,0-0.6c0,0,0-0.1,0-0.1l0.1-0.1c0,0.1,0,0.1,0,0.2L16.3,13.2z M16.1,17.1
				c0.1-0.1,0.1-0.3,0.1-0.5l0-0.5c0.1,0,0.1,0,0.2,0c0,0.1,0,0.1,0,0.2c0,0.1-0.1,0.2-0.1,0.3l0,0c0,0,0,0,0,0c0,0,0,0,0,0
				c0,0.1,0,0.3,0,0.4C16.3,17.1,16.2,17.1,16.1,17.1z M15,11.2L15,11.2L15,11.2L15,11.2L15,11.2z M13.6,12.9
				c-0.1-0.1-0.2-0.2-0.3-0.2c0.1,0,0.2-0.1,0.3-0.1C13.6,12.7,13.6,12.9,13.6,12.9z M13.3,16.4l0,0.1c-0.1,0-0.2-0.1-0.3-0.1
				C13.1,16.5,13.2,16.5,13.3,16.4z M11.8,13.7l0,0.6c0,0.1,0,0.2,0.1,0.3c0,0,0,0,0,0c-0.2,0.1-0.2,0.2-0.2,0.4l0,0l0,0l0,0l0,0
				l0,0.6c0,0,0,0.1,0,0.1c-0.2-0.3-0.4-0.6-0.5-0.9C11.2,14.3,11.5,13.9,11.8,13.7C11.8,13.6,11.8,13.6,11.8,13.7
				C11.8,13.8,11.8,13.8,11.8,13.7z"/>
			<path class="st61" d="M23.7,14.6c-0.1,0.1-0.2,0.2-0.3,0.3C23.5,14.8,23.7,14.7,23.7,14.6z M20.4,15.1
				C20.4,15.4,20.4,15.4,20.4,15.1c0-0.1,0-0.2-0.1-0.3c0,0,0,0,0,0c0.2-0.1,0.2-0.2,0.2-0.4l0-0.6c0,0,0-0.1,0-0.1
				c0.2,0.3,0.4,0.6,0.5,0.9c-0.1,0.4-0.4,0.7-0.7,1.1c0,0,0-0.1,0-0.1L20.4,15.1z M18.9,12.8l0-0.1c0.1,0,0.2,0.1,0.3,0.1
				C19.1,12.8,19,12.8,18.9,12.8z M18.7,16.4c0.1,0.1,0.2,0.1,0.3,0.2c-0.1,0-0.2,0.1-0.3,0.1C18.7,16.6,18.7,16.5,18.7,16.4z
				 M17.5,18.3c-0.2,0.1-0.5,0.2-0.8,0.3C17,18.5,17.3,18.4,17.5,18.3l5.8-3.3L17.5,18.3z M14.5,19.4c0.8,0.5,2.2,0.5,3,0l5.8-3.3
				c0.4-0.2,0.6-0.5,0.6-0.9l0-0.8l0-0.3c0,0.1,0,0.2,0,0.2c0-0.1,0-0.2,0-0.2c0-0.3-0.2-0.6-0.6-0.9l-5-2.9c0-0.1,0-0.2,0-0.2
				l0-2.1l0.9-0.5c0.5-0.3,0.6-0.7,0.3-0.9l-4.5-2.6c-0.4-0.2-1,0.1-1.3,0.8l-2.3,4c-0.2,0.4-0.3,0.6-0.1,0.7l1.3,0.8l0,0.7
				c0,0.1,0,0.1,0,0.2l-3.8,2.2c-0.4,0.2-0.6,0.5-0.6,0.9c0,0.1,0,0.1,0,0.2c0,0,0-0.1,0-0.2l0,0.3c0,0,0,0,0,0.1c0,0,0,0,0-0.1
				l0,0.8c0,0.3,0.2,0.6,0.6,0.9L14.5,19.4z M15.9,16.1c0,0,0,0.1,0,0.1C15.9,16.2,15.9,16.2,15.9,16.1L15.9,16.1z M16.2,16.1
				L16.2,16.1L16.2,16.1L16.2,16.1z M16,13.2c0,0-0.1,0-0.1,0c0-0.4,0-0.6,0-0.6c0,0,0-0.1,0-0.1l0.1-0.1c0,0.1,0,0.1,0,0.2L16,13.2
				z M15.8,17.1c0.1-0.1,0.1-0.3,0.1-0.5l0-0.5c0.1,0,0.1,0,0.2,0c0,0.1,0,0.1,0,0.2c0,0.1-0.1,0.2-0.1,0.3l0,0c0,0,0,0,0,0
				c0,0,0,0,0,0c0,0.1,0,0.3,0,0.4C16,17.1,15.9,17.1,15.8,17.1z M14.7,11.2L14.7,11.2L14.7,11.2L14.7,11.2L14.7,11.2z M13.3,12.9
				c-0.1-0.1-0.2-0.2-0.3-0.2c0.1,0,0.2-0.1,0.3-0.1C13.3,12.7,13.3,12.9,13.3,12.9z M13,16.4l0,0.1c-0.1,0-0.2-0.1-0.3-0.1
				C12.8,16.5,12.9,16.5,13,16.4z M11.5,13.7l0,0.6c0,0.1,0,0.2,0.1,0.3c0,0,0,0,0,0c-0.2,0.1-0.2,0.2-0.2,0.4l0,0l0,0l0,0l0,0
				l0,0.6c0,0,0,0.1,0,0.1c-0.2-0.3-0.4-0.6-0.5-0.9C10.9,14.3,11.2,13.9,11.5,13.7C11.5,13.6,11.5,13.6,11.5,13.7
				C11.5,13.8,11.5,13.8,11.5,13.7z"/>
			<path class="st62" d="M23.4,14.6c-0.1,0.1-0.2,0.2-0.3,0.3C23.2,14.8,23.3,14.7,23.4,14.6z M20.1,15.1
				C20.1,15.4,20.1,15.4,20.1,15.1c0-0.1,0-0.2-0.1-0.3c0,0,0,0,0,0c0.2-0.1,0.2-0.2,0.2-0.4l0-0.6c0,0,0-0.1,0-0.1
				c0.2,0.3,0.4,0.6,0.5,0.9c-0.1,0.4-0.4,0.7-0.7,1.1c0,0,0-0.1,0-0.1L20.1,15.1z M18.6,12.8l0-0.1c0.1,0,0.2,0.1,0.3,0.1
				C18.8,12.8,18.7,12.8,18.6,12.8z M18.4,16.4c0.1,0.1,0.2,0.1,0.3,0.2c-0.1,0-0.2,0.1-0.3,0.1C18.4,16.6,18.4,16.5,18.4,16.4z
				 M17.2,18.3c-0.2,0.1-0.5,0.2-0.8,0.3C16.7,18.5,16.9,18.4,17.2,18.3L23,15L17.2,18.3z M14.2,19.4c0.8,0.5,2.2,0.5,3,0l5.8-3.3
				c0.4-0.2,0.6-0.5,0.6-0.9l0-0.8l0-0.3c0,0.1,0,0.2,0,0.2c0-0.1,0-0.2,0-0.2c0-0.3-0.2-0.6-0.6-0.9l-5-2.9c0-0.1,0-0.2,0-0.2
				l0-2.1l0.9-0.5c0.5-0.3,0.6-0.7,0.3-0.9l-4.5-2.6c-0.4-0.2-1,0.1-1.3,0.8l-2.3,4c-0.2,0.4-0.3,0.6-0.1,0.7l1.3,0.8l0,0.7
				c0,0.1,0,0.1,0,0.2l-3.8,2.2c-0.4,0.2-0.6,0.5-0.6,0.9c0,0.1,0,0.1,0,0.2c0,0,0-0.1,0-0.2l0,0.3c0,0,0,0,0,0.1c0,0,0,0,0-0.1
				l0,0.8c0,0.3,0.2,0.6,0.6,0.9L14.2,19.4z M15.6,16.1c0,0,0,0.1,0,0.1C15.6,16.2,15.6,16.2,15.6,16.1L15.6,16.1z M15.9,16.1
				L15.9,16.1L15.9,16.1L15.9,16.1z M15.7,13.2c0,0-0.1,0-0.1,0c0-0.4,0-0.6,0-0.6c0,0,0-0.1,0-0.1l0.1-0.1c0,0.1,0,0.1,0,0.2
				L15.7,13.2z M15.5,17.1c0.1-0.1,0.1-0.3,0.1-0.5l0-0.5c0.1,0,0.1,0,0.2,0c0,0.1,0,0.1,0,0.2c0,0.1-0.1,0.2-0.1,0.3l0,0
				c0,0,0,0,0,0c0,0,0,0,0,0c0,0.1,0,0.3,0,0.4C15.7,17.1,15.6,17.1,15.5,17.1z M14.4,11.2L14.4,11.2L14.4,11.2L14.4,11.2L14.4,11.2
				z M13,12.9c-0.1-0.1-0.2-0.2-0.3-0.2c0.1,0,0.2-0.1,0.3-0.1C13,12.7,13,12.9,13,12.9z M12.7,16.4l0,0.1c-0.1,0-0.2-0.1-0.3-0.1
				C12.5,16.5,12.6,16.5,12.7,16.4z M11.2,13.7l0,0.6c0,0.1,0,0.2,0.1,0.3c0,0,0,0,0,0c-0.2,0.1-0.2,0.2-0.2,0.4l0,0l0,0l0,0l0,0
				l0,0.6c0,0,0,0.1,0,0.1c-0.2-0.3-0.4-0.6-0.5-0.9C10.6,14.3,10.9,13.9,11.2,13.7C11.2,13.6,11.2,13.6,11.2,13.7
				C11.2,13.8,11.2,13.8,11.2,13.7z"/>
			<path class="st63" d="M23.1,14.6c-0.1,0.1-0.2,0.2-0.3,0.3C22.9,14.8,23,14.7,23.1,14.6z M19.8,15.1
				C19.8,15.4,19.8,15.4,19.8,15.1c0-0.1,0-0.2-0.1-0.3c0,0,0,0,0,0c0.2-0.1,0.2-0.2,0.2-0.4l0-0.6c0,0,0-0.1,0-0.1
				c0.2,0.3,0.4,0.6,0.5,0.9c-0.1,0.4-0.4,0.7-0.7,1.1c0,0,0-0.1,0-0.1L19.8,15.1z M18.3,12.8l0-0.1c0.1,0,0.2,0.1,0.3,0.1
				C18.5,12.8,18.4,12.8,18.3,12.8z M18.1,16.4c0.1,0.1,0.2,0.1,0.3,0.2c-0.1,0-0.2,0.1-0.3,0.1C18.1,16.6,18.1,16.5,18.1,16.4z
				 M16.9,18.3c-0.2,0.1-0.5,0.2-0.8,0.3C16.4,18.5,16.6,18.4,16.9,18.3l5.8-3.3L16.9,18.3z M13.9,19.4c0.8,0.5,2.2,0.5,3,0l5.8-3.3
				c0.4-0.2,0.6-0.5,0.6-0.9l0-0.8l0-0.3c0,0.1,0,0.2,0,0.2c0-0.1,0-0.2,0-0.2c0-0.3-0.2-0.6-0.6-0.9l-5-2.9c0-0.1,0-0.2,0-0.2
				l0-2.1l0.9-0.5c0.5-0.3,0.6-0.7,0.3-0.9l-4.5-2.6C14,3.7,13.4,4,13,4.7l-2.3,4c-0.2,0.4-0.3,0.6-0.1,0.7l1.3,0.8l0,0.7
				c0,0.1,0,0.1,0,0.2l-3.8,2.2c-0.4,0.2-0.6,0.5-0.6,0.9c0,0.1,0,0.1,0,0.2c0,0,0-0.1,0-0.2l0,0.3c0,0,0,0,0,0.1c0,0,0,0,0-0.1
				l0,0.8c0,0.3,0.2,0.6,0.6,0.9L13.9,19.4z M15.3,16.1c0,0,0,0.1,0,0.1C15.3,16.2,15.3,16.2,15.3,16.1L15.3,16.1z M15.6,16.1
				L15.6,16.1L15.6,16.1L15.6,16.1z M15.4,13.2c0,0-0.1,0-0.1,0c0-0.4,0-0.6,0-0.6c0,0,0-0.1,0-0.1l0.1-0.1c0,0.1,0,0.1,0,0.2
				L15.4,13.2z M15.2,17.1c0.1-0.1,0.1-0.3,0.1-0.5l0-0.5c0.1,0,0.1,0,0.2,0c0,0.1,0,0.1,0,0.2c0,0.1-0.1,0.2-0.1,0.3l0,0
				c0,0,0,0,0,0c0,0,0,0,0,0c0,0.1,0,0.3,0,0.4C15.4,17.1,15.3,17.1,15.2,17.1z M14.1,11.2L14.1,11.2L14.1,11.2L14.1,11.2L14.1,11.2
				z M12.7,12.9c-0.1-0.1-0.2-0.2-0.3-0.2c0.1,0,0.2-0.1,0.3-0.1C12.6,12.7,12.7,12.9,12.7,12.9z M12.4,16.4l0,0.1
				c-0.1,0-0.2-0.1-0.3-0.1C12.2,16.5,12.3,16.5,12.4,16.4z M10.9,13.7l0,0.6c0,0.1,0,0.2,0.1,0.3c0,0,0,0,0,0
				c-0.2,0.1-0.2,0.2-0.2,0.4l0,0l0,0l0,0l0,0l0,0.6c0,0,0,0.1,0,0.1c-0.2-0.3-0.4-0.6-0.5-0.9C10.3,14.3,10.6,13.9,10.9,13.7
				C10.9,13.6,10.9,13.6,10.9,13.7C10.9,13.8,10.9,13.8,10.9,13.7z"/>
			<path class="st64" d="M22.8,14.6c-0.1,0.1-0.2,0.2-0.3,0.3C22.6,14.8,22.7,14.7,22.8,14.6z M19.5,15.1
				C19.5,15.4,19.5,15.4,19.5,15.1c0-0.1,0-0.2-0.1-0.3c0,0,0,0,0,0c0.2-0.1,0.2-0.2,0.2-0.4l0-0.6c0,0,0-0.1,0-0.1
				c0.2,0.3,0.4,0.6,0.5,0.9c-0.1,0.4-0.4,0.7-0.7,1.1c0,0,0-0.1,0-0.1L19.5,15.1z M18,12.8l0-0.1c0.1,0,0.2,0.1,0.3,0.1
				C18.2,12.8,18.1,12.8,18,12.8z M17.8,16.4c0.1,0.1,0.2,0.1,0.3,0.2c-0.1,0-0.2,0.1-0.3,0.1C17.8,16.6,17.8,16.5,17.8,16.4z
				 M16.6,18.3c-0.2,0.1-0.5,0.2-0.8,0.3C16.1,18.5,16.3,18.4,16.6,18.3l5.8-3.3L16.6,18.3z M13.6,19.4c0.8,0.5,2.2,0.5,3,0l5.8-3.3
				c0.4-0.2,0.6-0.5,0.6-0.9l0-0.8l0-0.3c0,0.1,0,0.2,0,0.2c0-0.1,0-0.2,0-0.2c0-0.3-0.2-0.6-0.6-0.9l-5-2.9c0-0.1,0-0.2,0-0.2
				l0-2.1l0.9-0.5c0.5-0.3,0.6-0.7,0.3-0.9L14,3.9c-0.4-0.2-1,0.1-1.3,0.8l-2.3,4c-0.2,0.4-0.3,0.6-0.1,0.7l1.3,0.8l0,0.7
				c0,0.1,0,0.1,0,0.2l-3.8,2.2c-0.4,0.2-0.6,0.5-0.6,0.9c0,0.1,0,0.1,0,0.2c0,0,0-0.1,0-0.2l0,0.3c0,0,0,0,0,0.1c0,0,0,0,0-0.1
				l0,0.8c0,0.3,0.2,0.6,0.6,0.9L13.6,19.4z M15,16.1c0,0,0,0.1,0,0.1C15,16.2,15,16.2,15,16.1L15,16.1z M15.3,16.1L15.3,16.1
				L15.3,16.1L15.3,16.1z M15.1,13.2c0,0-0.1,0-0.1,0c0-0.4,0-0.6,0-0.6c0,0,0-0.1,0-0.1l0.1-0.1c0,0.1,0,0.1,0,0.2L15.1,13.2z
				 M14.9,17.1C15,17,15,16.8,15,16.7l0-0.5c0.1,0,0.1,0,0.2,0c0,0.1,0,0.1,0,0.2c0,0.1-0.1,0.2-0.1,0.3l0,0c0,0,0,0,0,0
				c0,0,0,0,0,0c0,0.1,0,0.3,0,0.4C15.1,17.1,15,17.1,14.9,17.1z M13.8,11.2L13.8,11.2L13.8,11.2L13.8,11.2L13.8,11.2z M12.4,12.9
				c-0.1-0.1-0.2-0.2-0.3-0.2c0.1,0,0.2-0.1,0.3-0.1C12.3,12.7,12.4,12.9,12.4,12.9z M12.1,16.4l0,0.1c-0.1,0-0.2-0.1-0.3-0.1
				C11.9,16.5,12,16.5,12.1,16.4z M10.6,13.7l0,0.6c0,0.1,0,0.2,0.1,0.3c0,0,0,0,0,0c-0.2,0.1-0.2,0.2-0.2,0.4l0,0l0,0l0,0l0,0
				l0,0.6c0,0,0,0.1,0,0.1c-0.2-0.3-0.4-0.6-0.5-0.9C10,14.3,10.3,13.9,10.6,13.7C10.6,13.6,10.6,13.6,10.6,13.7
				C10.6,13.8,10.6,13.8,10.6,13.7z"/>
			<path class="st65" d="M22.5,14.6c-0.1,0.1-0.2,0.2-0.3,0.3C22.3,14.8,22.4,14.7,22.5,14.6z M19.2,15.1
				C19.2,15.4,19.2,15.4,19.2,15.1c0-0.1,0-0.2-0.1-0.3c0,0,0,0,0,0c0.2-0.1,0.2-0.2,0.2-0.4l0-0.6c0,0,0-0.1,0-0.1
				c0.2,0.3,0.4,0.6,0.5,0.9c-0.1,0.4-0.4,0.7-0.7,1.1c0,0,0-0.1,0-0.1L19.2,15.1z M17.7,12.8l0-0.1c0.1,0,0.2,0.1,0.3,0.1
				C17.9,12.8,17.8,12.8,17.7,12.8z M17.5,16.4c0.1,0.1,0.2,0.1,0.3,0.2c-0.1,0-0.2,0.1-0.3,0.1C17.5,16.6,17.5,16.5,17.5,16.4z
				 M16.3,18.3c-0.2,0.1-0.5,0.2-0.8,0.3C15.8,18.5,16,18.4,16.3,18.3l5.8-3.3L16.3,18.3z M13.3,19.4c0.8,0.5,2.2,0.5,3,0l5.8-3.3
				c0.4-0.2,0.6-0.5,0.6-0.9l0-0.8l0-0.3c0,0.1,0,0.2,0,0.2c0-0.1,0-0.2,0-0.2c0-0.3-0.2-0.6-0.6-0.9l-5-2.9c0-0.1,0-0.2,0-0.2L17,8
				L18,7.5c0.5-0.3,0.6-0.7,0.3-0.9l-4.5-2.6c-0.4-0.2-1,0.1-1.3,0.8l-2.3,4C9.9,9.1,9.8,9.3,9.9,9.4l1.3,0.8l0,0.7
				c0,0.1,0,0.1,0,0.2l-3.8,2.2c-0.4,0.2-0.6,0.5-0.6,0.9c0,0.1,0,0.1,0,0.2c0,0,0-0.1,0-0.2l0,0.3c0,0,0,0,0,0.1c0,0,0,0,0-0.1
				l0,0.8c0,0.3,0.2,0.6,0.6,0.9L13.3,19.4z M14.7,16.1c0,0,0,0.1,0,0.1C14.7,16.2,14.7,16.2,14.7,16.1L14.7,16.1z M15,16.1L15,16.1
				L15,16.1L15,16.1z M14.8,13.2c0,0-0.1,0-0.1,0c0-0.4,0-0.6,0-0.6c0,0,0-0.1,0-0.1l0.1-0.1c0,0.1,0,0.1,0,0.2L14.8,13.2z
				 M14.6,17.1c0.1-0.1,0.1-0.3,0.1-0.5l0-0.5c0.1,0,0.1,0,0.2,0c0,0.1,0,0.1,0,0.2c0,0.1-0.1,0.2-0.1,0.3l0,0c0,0,0,0,0,0
				c0,0,0,0,0,0c0,0.1,0,0.3,0,0.4C14.8,17.1,14.7,17.1,14.6,17.1z M13.5,11.2L13.5,11.2L13.5,11.2L13.5,11.2L13.5,11.2z M12.1,12.9
				c-0.1-0.1-0.2-0.2-0.3-0.2c0.1,0,0.2-0.1,0.3-0.1C12,12.7,12.1,12.9,12.1,12.9z M11.8,16.4l0,0.1c-0.1,0-0.2-0.1-0.3-0.1
				C11.6,16.5,11.7,16.5,11.8,16.4z M10.3,13.7l0,0.6c0,0.1,0,0.2,0.1,0.3c0,0,0,0,0,0c-0.2,0.1-0.2,0.2-0.2,0.4l0,0l0,0l0,0l0,0
				l0,0.6c0,0,0,0.1,0,0.1c-0.2-0.3-0.4-0.6-0.5-0.9C9.7,14.3,10,13.9,10.3,13.7C10.3,13.6,10.3,13.6,10.3,13.7
				C10.3,13.8,10.3,13.8,10.3,13.7z"/>
			<path class="st66" d="M22.2,14.6c-0.1,0.1-0.2,0.2-0.3,0.3C22,14.8,22.1,14.7,22.2,14.6z M18.9,15.1
				C18.9,15.4,18.9,15.4,18.9,15.1c0-0.1,0-0.2-0.1-0.3c0,0,0,0,0,0c0.2-0.1,0.2-0.2,0.2-0.4l0-0.6c0,0,0-0.1,0-0.1
				c0.2,0.3,0.4,0.6,0.5,0.9c-0.1,0.4-0.4,0.7-0.7,1.1c0,0,0-0.1,0-0.1L18.9,15.1z M17.4,12.8l0-0.1c0.1,0,0.2,0.1,0.3,0.1
				C17.6,12.8,17.5,12.8,17.4,12.8z M17.2,16.4c0.1,0.1,0.2,0.1,0.3,0.2c-0.1,0-0.2,0.1-0.3,0.1C17.2,16.6,17.2,16.5,17.2,16.4z
				 M16,18.3c-0.2,0.1-0.5,0.2-0.8,0.3C15.5,18.5,15.7,18.4,16,18.3l5.8-3.3L16,18.3z M13,19.4c0.8,0.5,2.2,0.5,3,0l5.8-3.3
				c0.4-0.2,0.6-0.5,0.6-0.9l0-0.8l0-0.3c0,0.1,0,0.2,0,0.2c0-0.1,0-0.2,0-0.2c0-0.3-0.2-0.6-0.6-0.9l-5-2.9c0-0.1,0-0.2,0-0.2
				l0-2.1l0.9-0.5c0.5-0.3,0.6-0.7,0.3-0.9l-4.5-2.6c-0.4-0.2-1,0.1-1.3,0.8l-2.3,4C9.6,9.1,9.5,9.3,9.6,9.4l1.3,0.8l0,0.7
				c0,0.1,0,0.1,0,0.2l-3.8,2.2c-0.4,0.2-0.6,0.5-0.6,0.9c0,0.1,0,0.1,0,0.2c0,0,0-0.1,0-0.2l0,0.3c0,0,0,0,0,0.1c0,0,0,0,0-0.1
				l0,0.8c0,0.3,0.2,0.6,0.6,0.9L13,19.4z M14.4,16.1c0,0,0,0.1,0,0.1C14.4,16.2,14.4,16.2,14.4,16.1L14.4,16.1z M14.7,16.1
				L14.7,16.1L14.7,16.1L14.7,16.1z M14.5,13.2c0,0-0.1,0-0.1,0c0-0.4,0-0.6,0-0.6c0,0,0-0.1,0-0.1l0.1-0.1c0,0.1,0,0.1,0,0.2
				L14.5,13.2z M14.3,17.1c0.1-0.1,0.1-0.3,0.1-0.5l0-0.5c0.1,0,0.1,0,0.2,0c0,0.1,0,0.1,0,0.2c0,0.1-0.1,0.2-0.1,0.3l0,0
				c0,0,0,0,0,0c0,0,0,0,0,0c0,0.1,0,0.3,0,0.4C14.5,17.1,14.4,17.1,14.3,17.1z M13.2,11.2L13.2,11.2L13.2,11.2L13.2,11.2L13.2,11.2
				z M11.8,12.9c-0.1-0.1-0.2-0.2-0.3-0.2c0.1,0,0.2-0.1,0.3-0.1C11.7,12.7,11.8,12.9,11.8,12.9z M11.5,16.4l0,0.1
				c-0.1,0-0.2-0.1-0.3-0.1C11.3,16.5,11.4,16.5,11.5,16.4z M10,13.7l0,0.6c0,0.1,0,0.2,0.1,0.3c0,0,0,0,0,0
				c-0.2,0.1-0.2,0.2-0.2,0.4l0,0l0,0l0,0l0,0l0,0.6c0,0,0,0.1,0,0.1c-0.2-0.3-0.4-0.6-0.5-0.9C9.4,14.3,9.7,13.9,10,13.7
				C10,13.6,10,13.6,10,13.7C10,13.8,10,13.8,10,13.7z"/>
			<path class="st67" d="M21.9,14.6c-0.1,0.1-0.2,0.2-0.3,0.3C21.7,14.8,21.8,14.7,21.9,14.6z M18.6,15.1
				C18.6,15.4,18.6,15.4,18.6,15.1c0-0.1,0-0.2-0.1-0.3c0,0,0,0,0,0c0.2-0.1,0.2-0.2,0.2-0.4l0-0.6c0,0,0-0.1,0-0.1
				c0.2,0.3,0.4,0.6,0.5,0.9c-0.1,0.4-0.4,0.7-0.7,1.1c0,0,0-0.1,0-0.1L18.6,15.1z M17.1,12.8l0-0.1c0.1,0,0.2,0.1,0.3,0.1
				C17.3,12.8,17.2,12.8,17.1,12.8z M16.9,16.4c0.1,0.1,0.2,0.1,0.3,0.2c-0.1,0-0.2,0.1-0.3,0.1C16.9,16.6,16.9,16.5,16.9,16.4z
				 M15.7,18.3c-0.2,0.1-0.5,0.2-0.8,0.3C15.2,18.5,15.4,18.4,15.7,18.3l5.8-3.3L15.7,18.3z M12.7,19.4c0.8,0.5,2.2,0.5,3,0l5.8-3.3
				c0.4-0.2,0.6-0.5,0.6-0.9l0-0.8l0-0.3c0,0.1,0,0.2,0,0.2c0-0.1,0-0.2,0-0.2c0-0.3-0.2-0.6-0.6-0.9l-5-2.9c0-0.1,0-0.2,0-0.2
				l0-2.1l0.9-0.5c0.5-0.3,0.6-0.7,0.3-0.9l-4.5-2.6c-0.4-0.2-1,0.1-1.3,0.8l-2.3,4C9.2,9.1,9.2,9.3,9.3,9.4l1.3,0.8l0,0.7
				c0,0.1,0,0.1,0,0.2l-3.8,2.2c-0.4,0.2-0.6,0.5-0.6,0.9c0,0.1,0,0.1,0,0.2c0,0,0-0.1,0-0.2l0,0.3c0,0,0,0,0,0.1c0,0,0,0,0-0.1
				l0,0.8c0,0.3,0.2,0.6,0.6,0.9L12.7,19.4z M14.1,16.1c0,0,0,0.1,0,0.1C14.1,16.2,14.1,16.2,14.1,16.1L14.1,16.1z M14.4,16.1
				L14.4,16.1L14.4,16.1L14.4,16.1z M14.2,13.2c0,0-0.1,0-0.1,0c0-0.4,0-0.6,0-0.6c0,0,0-0.1,0-0.1l0.1-0.1c0,0.1,0,0.1,0,0.2
				L14.2,13.2z M14,17.1c0.1-0.1,0.1-0.3,0.1-0.5l0-0.5c0.1,0,0.1,0,0.2,0c0,0.1,0,0.1,0,0.2c0,0.1-0.1,0.2-0.1,0.3l0,0c0,0,0,0,0,0
				c0,0,0,0,0,0c0,0.1,0,0.3,0,0.4C14.2,17.1,14.1,17.1,14,17.1z M12.9,11.2L12.9,11.2L12.9,11.2L12.9,11.2L12.9,11.2z M11.5,12.9
				c-0.1-0.1-0.2-0.2-0.3-0.2c0.1,0,0.2-0.1,0.3-0.1C11.4,12.7,11.5,12.9,11.5,12.9z M11.2,16.4l0,0.1c-0.1,0-0.2-0.1-0.3-0.1
				C11,16.5,11.1,16.5,11.2,16.4z M9.7,13.7l0,0.6c0,0.1,0,0.2,0.1,0.3c0,0,0,0,0,0c-0.2,0.1-0.2,0.2-0.2,0.4l0,0l0,0l0,0l0,0l0,0.6
				c0,0,0,0.1,0,0.1c-0.2-0.3-0.4-0.6-0.5-0.9C9.1,14.3,9.4,13.9,9.7,13.7C9.7,13.6,9.7,13.6,9.7,13.7C9.7,13.8,9.7,13.8,9.7,13.7z"
				/>
			<path class="st68" d="M21.6,14.6c-0.1,0.1-0.2,0.2-0.3,0.3C21.4,14.8,21.5,14.7,21.6,14.6z M18.3,15.1
				C18.3,15.4,18.3,15.4,18.3,15.1c0-0.1,0-0.2-0.1-0.3c0,0,0,0,0,0c0.2-0.1,0.2-0.2,0.2-0.4l0-0.6c0,0,0-0.1,0-0.1
				c0.2,0.3,0.4,0.6,0.5,0.9c-0.1,0.4-0.4,0.7-0.7,1.1c0,0,0-0.1,0-0.1L18.3,15.1z M16.8,12.8l0-0.1c0.1,0,0.2,0.1,0.3,0.1
				C17,12.8,16.9,12.8,16.8,12.8z M16.6,16.4c0.1,0.1,0.2,0.1,0.3,0.2c-0.1,0-0.2,0.1-0.3,0.1C16.6,16.6,16.6,16.5,16.6,16.4z
				 M15.4,18.3c-0.2,0.1-0.5,0.2-0.8,0.3C14.9,18.5,15.1,18.4,15.4,18.3l5.8-3.3L15.4,18.3z M12.4,19.4c0.8,0.5,2.2,0.5,3,0l5.8-3.3
				c0.4-0.2,0.6-0.5,0.6-0.9l0-0.8l0-0.3c0,0.1,0,0.2,0,0.2c0-0.1,0-0.2,0-0.2c0-0.3-0.2-0.6-0.6-0.9l-5-2.9c0-0.1,0-0.2,0-0.2
				l0-2.1l0.9-0.5c0.5-0.3,0.6-0.7,0.3-0.9l-4.5-2.6c-0.4-0.2-1,0.1-1.3,0.8l-2.3,4C8.9,9.1,8.9,9.3,9,9.4l1.3,0.8l0,0.7
				c0,0.1,0,0.1,0,0.2l-3.8,2.2C6.2,13.5,6,13.8,6,14.1c0,0.1,0,0.1,0,0.2c0,0,0-0.1,0-0.2l0,0.3c0,0,0,0,0,0.1c0,0,0,0,0-0.1l0,0.8
				c0,0.3,0.2,0.6,0.6,0.9L12.4,19.4z M13.8,16.1c0,0,0,0.1,0,0.1C13.8,16.2,13.8,16.2,13.8,16.1L13.8,16.1z M14.1,16.1L14.1,16.1
				L14.1,16.1L14.1,16.1z M13.9,13.2c0,0-0.1,0-0.1,0c0-0.4,0-0.6,0-0.6c0,0,0-0.1,0-0.1l0.1-0.1c0,0.1,0,0.1,0,0.2L13.9,13.2z
				 M13.7,17.1c0.1-0.1,0.1-0.3,0.1-0.5l0-0.5c0.1,0,0.1,0,0.2,0c0,0.1,0,0.1,0,0.2c0,0.1-0.1,0.2-0.1,0.3l0,0c0,0,0,0,0,0
				c0,0,0,0,0,0c0,0.1,0,0.3,0,0.4C13.9,17.1,13.8,17.1,13.7,17.1z M12.6,11.2L12.6,11.2L12.6,11.2L12.6,11.2L12.6,11.2z M11.2,12.9
				c-0.1-0.1-0.2-0.2-0.3-0.2c0.1,0,0.2-0.1,0.3-0.1C11.1,12.7,11.2,12.9,11.2,12.9z M10.9,16.4l0,0.1c-0.1,0-0.2-0.1-0.3-0.1
				C10.7,16.5,10.8,16.5,10.9,16.4z M9.4,13.7l0,0.6c0,0.1,0,0.2,0.1,0.3c0,0,0,0,0,0c-0.2,0.1-0.2,0.2-0.2,0.4l0,0l0,0l0,0l0,0
				l0,0.6c0,0,0,0.1,0,0.1c-0.2-0.3-0.4-0.6-0.5-0.9C8.8,14.3,9.1,13.9,9.4,13.7C9.4,13.6,9.4,13.6,9.4,13.7
				C9.4,13.8,9.4,13.8,9.4,13.7z"/>
			<path class="st69" d="M21.3,14.6c-0.1,0.1-0.2,0.2-0.3,0.3C21.1,14.8,21.2,14.7,21.3,14.6z M18,15.1C18,15.4,18,15.4,18,15.1
				c0-0.1,0-0.2-0.1-0.3c0,0,0,0,0,0c0.2-0.1,0.2-0.2,0.2-0.4l0-0.6c0,0,0-0.1,0-0.1c0.2,0.3,0.4,0.6,0.5,0.9
				c-0.1,0.4-0.4,0.7-0.7,1.1c0,0,0-0.1,0-0.1L18,15.1z M16.5,12.8l0-0.1c0.1,0,0.2,0.1,0.3,0.1C16.7,12.8,16.6,12.8,16.5,12.8z
				 M16.3,16.4c0.1,0.1,0.2,0.1,0.3,0.2c-0.1,0-0.2,0.1-0.3,0.1C16.3,16.6,16.3,16.5,16.3,16.4z M15.1,18.3
				c-0.2,0.1-0.5,0.2-0.8,0.3C14.6,18.5,14.8,18.4,15.1,18.3l5.8-3.3L15.1,18.3z M12.1,19.4c0.8,0.5,2.2,0.5,3,0l5.8-3.3
				c0.4-0.2,0.6-0.5,0.6-0.9l0-0.8l0-0.3c0,0.1,0,0.2,0,0.2c0-0.1,0-0.2,0-0.2c0-0.3-0.2-0.6-0.6-0.9l-5-2.9c0-0.1,0-0.2,0-0.2
				l0-2.1l0.9-0.5c0.5-0.3,0.6-0.7,0.3-0.9l-4.5-2.6c-0.4-0.2-1,0.1-1.3,0.8l-2.3,4C8.6,9.1,8.6,9.3,8.7,9.4l1.3,0.8l0,0.7
				c0,0.1,0,0.1,0,0.2l-3.8,2.2c-0.4,0.2-0.6,0.5-0.6,0.9c0,0.1,0,0.1,0,0.2c0,0,0-0.1,0-0.2l0,0.3c0,0,0,0,0,0.1c0,0,0,0,0-0.1
				l0,0.8c0,0.3,0.2,0.6,0.6,0.9L12.1,19.4z M13.5,16.1L13.5,16.1c0,0,0,0.1,0,0.1C13.5,16.2,13.5,16.2,13.5,16.1z M13.8,16.1
				L13.8,16.1L13.8,16.1L13.8,16.1z M13.6,13.2c0,0-0.1,0-0.1,0c0-0.4,0-0.6,0-0.6c0,0,0-0.1,0-0.1l0.1-0.1c0,0.1,0,0.1,0,0.2
				L13.6,13.2z M13.4,17.1c0.1-0.1,0.1-0.3,0.1-0.5l0-0.5c0.1,0,0.1,0,0.2,0c0,0.1,0,0.1,0,0.2c0,0.1-0.1,0.2-0.1,0.3l0,0
				c0,0,0,0,0,0c0,0,0,0,0,0c0,0.1,0,0.3,0,0.4C13.6,17.1,13.5,17.1,13.4,17.1z M12.3,11.2L12.3,11.2L12.3,11.2L12.3,11.2L12.3,11.2
				z M10.9,12.9c-0.1-0.1-0.2-0.2-0.3-0.2c0.1,0,0.2-0.1,0.3-0.1C10.8,12.7,10.9,12.9,10.9,12.9z M10.6,16.4l0,0.1
				c-0.1,0-0.2-0.1-0.3-0.1C10.4,16.5,10.5,16.5,10.6,16.4z M9.1,13.7l0,0.6c0,0.1,0,0.2,0.1,0.3c0,0,0,0,0,0
				c-0.2,0.1-0.2,0.2-0.2,0.4l0,0l0,0l0,0l0,0l0,0.6c0,0,0,0.1,0,0.1c-0.2-0.3-0.4-0.6-0.5-0.9C8.5,14.3,8.8,13.9,9.1,13.7
				C9.1,13.6,9.1,13.6,9.1,13.7C9.1,13.8,9.1,13.8,9.1,13.7z"/>
		</g>
	</g>
	<g>
		<g>
			
				<linearGradient id="SVGID_4_" gradientUnits="userSpaceOnUse" x1="-3143.3845" y1="1817.5913" x2="-3141.7615" y2="1820.4025" gradientTransform="matrix(-0.5 0.866 -0.866 -0.5 17.5286 3646.2163)">
				<stop  offset="0" style="stop-color:#FF6300"/>
				<stop  offset="3.361212e-02" style="stop-color:#FF6300"/>
				<stop  offset="0.3006" style="stop-color:#FF6300"/>
				<stop  offset="0.4658" style="stop-color:#F36300"/>
				<stop  offset="0.7711" style="stop-color:#E26300"/>
				<stop  offset="1" style="stop-color:#DC6300"/>
			</linearGradient>
			<path class="st70" d="M14.7,15.9c0.3-0.2,0.5-0.4,0.5-0.7l0-0.8c0,0.2-0.2,0.5-0.5,0.7c-0.6,0.4-1.7,0.4-2.3,0
				c-0.3-0.2-0.5-0.4-0.5-0.7l0,0.8c0,0.2,0.2,0.5,0.5,0.7C13,16.2,14.1,16.2,14.7,15.9z"/>
			<path class="st71" d="M12.4,15c-0.3-0.2-0.5-0.4-0.5-0.7v0c0-0.2,0.2-0.5,0.5-0.7c0.6-0.4,1.7-0.4,2.3,0c0.3,0.2,0.5,0.4,0.5,0.7
				v0c0,0.2-0.2,0.5-0.5,0.7C14.1,15.4,13.1,15.4,12.4,15z"/>
		</g>
		
			<linearGradient id="SVGID_5_" gradientUnits="userSpaceOnUse" x1="-3147.0344" y1="1815.5073" x2="-3141.7795" y2="1824.609" gradientTransform="matrix(-0.5 0.866 -0.866 -0.5 17.5286 3646.2163)">
			<stop  offset="0" style="stop-color:#383838"/>
			<stop  offset="9.571359e-02" style="stop-color:#3D3B3C"/>
			<stop  offset="0.3006" style="stop-color:#403D3E"/>
			<stop  offset="0.3969" style="stop-color:#333031"/>
			<stop  offset="0.6347" style="stop-color:#171616"/>
			<stop  offset="0.8436" style="stop-color:#060606"/>
			<stop  offset="1" style="stop-color:#000000"/>
		</linearGradient>
		<path class="st72" d="M9.8,13.1c2.1-1.2,5.4-1.2,7.4,0c1,0.6,1.5,1.4,1.5,2.1l0-0.8l0,0l0-0.3c0-0.8-0.5-1.6-1.5-2.1
			c-2.1-1.2-5.4-1.2-7.4,0c-1,0.6-1.5,1.4-1.5,2.1l0,0.3l0,0.8C8.3,14.4,8.8,13.6,9.8,13.1z"/>
		<g>
			
				<linearGradient id="SVGID_6_" gradientUnits="userSpaceOnUse" x1="-3144.7874" y1="1820.2999" x2="-3144.4912" y2="1820.8131" gradientTransform="matrix(-0.5 0.866 -0.866 -0.5 17.5286 3646.2163)">
				<stop  offset="0" style="stop-color:#D1D1D1"/>
				<stop  offset="0.2402" style="stop-color:#CDCDCD"/>
				<stop  offset="0.4991" style="stop-color:#C0C0C0"/>
				<stop  offset="0.7658" style="stop-color:#AAAAAA"/>
				<stop  offset="1" style="stop-color:#919191"/>
			</linearGradient>
			<path class="st73" d="M13.5,13.5c-0.1-0.6,0-0.9,0-0.9c0-0.2,0.2-0.6-0.2-0.8L13,12.5C13.3,12.7,13.6,13.8,13.5,13.5z"/>
			
				<linearGradient id="SVGID_7_" gradientUnits="userSpaceOnUse" x1="-3143.729" y1="1820.8811" x2="-3142.8945" y2="1822.3263" gradientTransform="matrix(-0.5 0.866 -0.866 -0.5 17.5286 3646.2163)">
				<stop  offset="0" style="stop-color:#D1D1D1"/>
				<stop  offset="0.2402" style="stop-color:#CDCDCD"/>
				<stop  offset="0.4991" style="stop-color:#C0C0C0"/>
				<stop  offset="0.7658" style="stop-color:#AAAAAA"/>
				<stop  offset="1" style="stop-color:#919191"/>
			</linearGradient>
			<path class="st74" d="M10.9,13c0,0-0.1-0.3,0-0.6c0.1-0.2,1,0.9,1.6,1.2l0,0.6C11.9,13.9,10.7,13.5,10.9,13z"/>
			
				<linearGradient id="SVGID_8_" gradientUnits="userSpaceOnUse" x1="-3142.595" y1="1820.879" x2="-3141.1736" y2="1823.3409" gradientTransform="matrix(-0.5 0.866 -0.866 -0.5 17.5286 3646.2163)">
				<stop  offset="0" style="stop-color:#D1D1D1"/>
				<stop  offset="0.2402" style="stop-color:#CDCDCD"/>
				<stop  offset="0.4991" style="stop-color:#C0C0C0"/>
				<stop  offset="0.7658" style="stop-color:#AAAAAA"/>
				<stop  offset="1" style="stop-color:#919191"/>
			</linearGradient>
			<path class="st75" d="M11.9,14.8l0-0.6c-0.9,0-2.2,0.2-2.7-0.2c-0.1-0.1-0.2-0.3-0.2-0.4l0,0.6c0,0.2,0.1,0.3,0.2,0.4
				C9.8,15,11.1,14.9,11.9,14.8z"/>
			
				<linearGradient id="SVGID_9_" gradientUnits="userSpaceOnUse" x1="-3141.5881" y1="1819.8555" x2="-3139.8706" y2="1822.8303" gradientTransform="matrix(-0.5 0.866 -0.866 -0.5 17.5286 3646.2163)">
				<stop  offset="0" style="stop-color:#D1D1D1"/>
				<stop  offset="0.2402" style="stop-color:#CDCDCD"/>
				<stop  offset="0.4991" style="stop-color:#C0C0C0"/>
				<stop  offset="0.7658" style="stop-color:#AAAAAA"/>
				<stop  offset="1" style="stop-color:#919191"/>
			</linearGradient>
			<path class="st76" d="M10.2,16.5c0.8,0.1,1.6-0.6,2.1-0.9l0-0.6c-0.6,0.4-1.3,1-2.1,0.9c-0.6-0.1-1.3-0.6-1.3-1l0,0.6
				C8.9,15.9,9.6,16.4,10.2,16.5z"/>
			
				<linearGradient id="SVGID_10_" gradientUnits="userSpaceOnUse" x1="-3141.2124" y1="1818.2491" x2="-3139.7454" y2="1820.7903" gradientTransform="matrix(-0.5 0.866 -0.866 -0.5 17.5286 3646.2163)">
				<stop  offset="0" style="stop-color:#D1D1D1"/>
				<stop  offset="0.2402" style="stop-color:#CDCDCD"/>
				<stop  offset="0.4991" style="stop-color:#C0C0C0"/>
				<stop  offset="0.7658" style="stop-color:#AAAAAA"/>
				<stop  offset="1" style="stop-color:#919191"/>
			</linearGradient>
			<path class="st77" d="M13.1,17.4c0.4-0.1,0.5-0.4,0.5-0.7l0-0.6c0,0.3-0.1,0.6-0.5,0.7c-0.7,0.3-2.5,0-2.5-0.6l0,0.6
				C10.6,17.4,12.4,17.7,13.1,17.4z"/>
			
				<linearGradient id="SVGID_11_" gradientUnits="userSpaceOnUse" x1="-3144.3135" y1="1819.8551" x2="-3144.2644" y2="1819.9403" gradientTransform="matrix(-0.5 0.866 -0.866 -0.5 17.5286 3646.2163)">
				<stop  offset="0" style="stop-color:#D1D1D1"/>
				<stop  offset="0.2402" style="stop-color:#CDCDCD"/>
				<stop  offset="0.4991" style="stop-color:#C0C0C0"/>
				<stop  offset="0.7658" style="stop-color:#AAAAAA"/>
				<stop  offset="1" style="stop-color:#919191"/>
			</linearGradient>
			<path class="st78" d="M13.6,13.2l0-0.6c0,0.3,0.1,0.6,0.1,0.8l0,0.6C13.7,13.8,13.6,13.5,13.6,13.2z"/>
			
				<linearGradient id="SVGID_12_" gradientUnits="userSpaceOnUse" x1="-3142.0674" y1="1818.4796" x2="-3142.0012" y2="1818.5939" gradientTransform="matrix(-0.5 0.866 -0.866 -0.5 17.5286 3646.2163)">
				<stop  offset="0" style="stop-color:#D1D1D1"/>
				<stop  offset="0.2402" style="stop-color:#CDCDCD"/>
				<stop  offset="0.4991" style="stop-color:#C0C0C0"/>
				<stop  offset="0.7658" style="stop-color:#AAAAAA"/>
				<stop  offset="1" style="stop-color:#919191"/>
			</linearGradient>
			<path class="st79" d="M13.6,15.9l0-0.6c0.1,0.2,0.1,0.4,0.1,0.7l0,0.6C13.7,16.3,13.7,16.1,13.6,15.9z"/>
			
				<linearGradient id="SVGID_13_" gradientUnits="userSpaceOnUse" x1="-3145.7017" y1="1817.3818" x2="-3144.7698" y2="1818.996" gradientTransform="matrix(-0.5 0.866 -0.866 -0.5 17.5286 3646.2163)">
				<stop  offset="0" style="stop-color:#D1D1D1"/>
				<stop  offset="0.2402" style="stop-color:#CDCDCD"/>
				<stop  offset="0.4991" style="stop-color:#C0C0C0"/>
				<stop  offset="0.7658" style="stop-color:#AAAAAA"/>
				<stop  offset="1" style="stop-color:#919191"/>
			</linearGradient>
			<path class="st80" d="M15.5,13.7c0.5-0.3,1.1-0.4,1.1-0.7l0-0.6c0,0.3-0.6,0.3-1.1,0.7c-0.4,0.2-0.6,0.4-0.8,0.6l0,0.6
				C14.9,14.1,15.1,13.9,15.5,13.7z"/>
			
				<linearGradient id="SVGID_14_" gradientUnits="userSpaceOnUse" x1="-3145.6606" y1="1815.3906" x2="-3144.1377" y2="1818.0286" gradientTransform="matrix(-0.5 0.866 -0.866 -0.5 17.5286 3646.2163)">
				<stop  offset="0" style="stop-color:#D1D1D1"/>
				<stop  offset="0.2402" style="stop-color:#CDCDCD"/>
				<stop  offset="0.4991" style="stop-color:#C0C0C0"/>
				<stop  offset="0.7658" style="stop-color:#AAAAAA"/>
				<stop  offset="1" style="stop-color:#919191"/>
			</linearGradient>
			<path class="st81" d="M16.4,14.8c0.7,0,1.2,0.2,1.6,0c0.2-0.1,0.2-0.2,0.2-0.4l0-0.6c0,0.1-0.1,0.3-0.2,0.4c-0.3,0.2-0.8,0-1.6,0
				c-0.5,0-0.9,0-1.3,0.1l0,0.6C15.6,14.8,15.9,14.8,16.4,14.8z"/>
			
				<linearGradient id="SVGID_15_" gradientUnits="userSpaceOnUse" x1="-3144.3071" y1="1814.851" x2="-3142.6741" y2="1817.6794" gradientTransform="matrix(-0.5 0.866 -0.866 -0.5 17.5286 3646.2163)">
				<stop  offset="0" style="stop-color:#D1D1D1"/>
				<stop  offset="0.2402" style="stop-color:#CDCDCD"/>
				<stop  offset="0.4991" style="stop-color:#C0C0C0"/>
				<stop  offset="0.7658" style="stop-color:#AAAAAA"/>
				<stop  offset="1" style="stop-color:#919191"/>
			</linearGradient>
			<path class="st82" d="M15.7,16c0.5,0.3,0.6,0.6,1.1,0.6c0.7,0,1.2-0.6,1.2-1l0-0.6c0,0.5-0.5,1-1.2,1c-0.5,0-0.6-0.3-1.1-0.6
				c-0.4-0.2-0.7-0.3-1-0.5l0,0.6C15.1,15.7,15.3,15.8,15.7,16z"/>
			
				<linearGradient id="SVGID_16_" gradientUnits="userSpaceOnUse" x1="-3142.521" y1="1815.8282" x2="-3141.1938" y2="1818.127" gradientTransform="matrix(-0.5 0.866 -0.866 -0.5 17.5286 3646.2163)">
				<stop  offset="0" style="stop-color:#D1D1D1"/>
				<stop  offset="0.2402" style="stop-color:#CDCDCD"/>
				<stop  offset="0.4991" style="stop-color:#C0C0C0"/>
				<stop  offset="0.7658" style="stop-color:#AAAAAA"/>
				<stop  offset="1" style="stop-color:#919191"/>
			</linearGradient>
			<path class="st83" d="M13.8,17.5c0.7,0.4,2.3-0.1,2.4-0.6c0,0,0.1-0.2,0-0.7c0-0.3-1.8,1.1-2.4,0.8c0,0-0.1-0.3-0.2-0.3
				C13.6,16.9,13.5,17.3,13.8,17.5z"/>
		</g>
		<g>
			
				<radialGradient id="SVGID_17_" cx="-1715.9388" cy="-557.5188" r="2.239" gradientTransform="matrix(-0.2764 0.4788 -0.4788 -0.2764 -724.7207 682.439)" gradientUnits="userSpaceOnUse">
				<stop  offset="1.026690e-03" style="stop-color:#EEEEEE"/>
				<stop  offset="0.8718" style="stop-color:#EBEBEB"/>
				<stop  offset="1" style="stop-color:#EAEAEA"/>
			</radialGradient>
			<path class="st84" d="M14.8,15c0.3,0.1,0.6,0.2,1,0.5c0.5,0.3,0.6,0.6,1.1,0.6c0.7,0,1.2-0.6,1.2-1c0-0.2-0.1-0.3-0.2-0.4
				c-0.5-0.4-1.8-0.2-2.7-0.2C15.2,14.6,15,14.8,14.8,15z"/>
			
				<radialGradient id="SVGID_18_" cx="-1717.7913" cy="-556.5586" r="2.4612" gradientTransform="matrix(-0.2764 0.4788 -0.4788 -0.2764 -724.7207 682.439)" gradientUnits="userSpaceOnUse">
				<stop  offset="1.026690e-03" style="stop-color:#EEEEEE"/>
				<stop  offset="0.8718" style="stop-color:#EBEBEB"/>
				<stop  offset="1" style="stop-color:#EAEAEA"/>
			</radialGradient>
			<path class="st85" d="M15.2,14.3c0.4,0,0.7-0.1,1.3-0.1c0.7,0,1.2,0.2,1.6,0c0.2-0.1,0.2-0.2,0.2-0.4c0-0.4-0.7-1-1.3-1
				c-0.8-0.1-1.6,0.6-2.1,0.9C15,13.9,15.2,14.1,15.2,14.3z"/>
			
				<radialGradient id="SVGID_19_" cx="-1717.9513" cy="-552.9896" r="2.2809" gradientTransform="matrix(-0.2764 0.4788 -0.4788 -0.2764 -724.7207 682.439)" gradientUnits="userSpaceOnUse">
				<stop  offset="1.026690e-03" style="stop-color:#EEEEEE"/>
				<stop  offset="0.8718" style="stop-color:#EBEBEB"/>
				<stop  offset="1" style="stop-color:#EAEAEA"/>
			</radialGradient>
			<path class="st86" d="M15.5,13.1c0.5-0.3,1.1-0.4,1.1-0.7v0c0-0.5-1.8-0.8-2.5-0.6c-0.4,0.1-0.5,0.4-0.5,0.7
				c0,0.3,0.1,0.6,0.1,0.8c0.4,0,0.7,0.1,1,0.2C14.9,13.5,15.1,13.3,15.5,13.1z"/>
			
				<radialGradient id="SVGID_20_" cx="-1716.0919" cy="-548.9308" r="2.215" gradientTransform="matrix(-0.2764 0.4788 -0.4788 -0.2764 -724.7207 682.439)" gradientUnits="userSpaceOnUse">
				<stop  offset="1.026690e-03" style="stop-color:#EEEEEE"/>
				<stop  offset="0.8718" style="stop-color:#EBEBEB"/>
				<stop  offset="1" style="stop-color:#EAEAEA"/>
			</radialGradient>
			<path class="st87" d="M13.5,13.4c-0.1-0.2-0.1-0.4-0.1-0.7c0,0,0,0,0-0.1c0-0.4,0.3-0.6,0-0.8c-0.7-0.4-2.3,0.1-2.4,0.6
				c-0.2,0.5,1,0.9,1.6,1.2C12.8,13.5,13.1,13.4,13.5,13.4z"/>
			
				<radialGradient id="SVGID_21_" cx="-1712.4136" cy="-547.2599" r="2.239" gradientTransform="matrix(-0.2764 0.4788 -0.4788 -0.2764 -724.7207 682.439)" gradientUnits="userSpaceOnUse">
				<stop  offset="1.026690e-03" style="stop-color:#EEEEEE"/>
				<stop  offset="0.8718" style="stop-color:#EBEBEB"/>
				<stop  offset="1" style="stop-color:#EAEAEA"/>
			</radialGradient>
			<path class="st88" d="M12.4,13.7c-0.3-0.1-0.6-0.2-1-0.5c-0.5-0.3-0.6-0.6-1.1-0.6c-0.7,0-1.2,0.6-1.2,1c0,0.2,0.1,0.3,0.2,0.4
				c0.5,0.4,1.8,0.2,2.7,0.2C12,14.1,12.1,13.9,12.4,13.7z"/>
			
				<radialGradient id="SVGID_22_" cx="-1710.561" cy="-548.2202" r="2.4612" gradientTransform="matrix(-0.2764 0.4788 -0.4788 -0.2764 -724.7207 682.439)" gradientUnits="userSpaceOnUse">
				<stop  offset="1.026690e-03" style="stop-color:#EEEEEE"/>
				<stop  offset="0.8718" style="stop-color:#EBEBEB"/>
				<stop  offset="1" style="stop-color:#EAEAEA"/>
			</radialGradient>
			<path class="st89" d="M11.9,14.4c-0.4,0-0.7,0.1-1.3,0.1c-0.7,0-1.2-0.2-1.6,0c-0.2,0.1-0.2,0.2-0.2,0.4c0,0.4,0.7,1,1.3,1
				c0.8,0.1,1.6-0.6,2.1-0.9C12.1,14.8,12,14.6,11.9,14.4z"/>
			
				<radialGradient id="SVGID_23_" cx="-1710.401" cy="-551.7893" r="2.2809" gradientTransform="matrix(-0.2764 0.4788 -0.4788 -0.2764 -724.7207 682.439)" gradientUnits="userSpaceOnUse">
				<stop  offset="1.026690e-03" style="stop-color:#EEEEEE"/>
				<stop  offset="0.8718" style="stop-color:#EBEBEB"/>
				<stop  offset="1" style="stop-color:#EAEAEA"/>
			</radialGradient>
			<path class="st90" d="M10.6,16.3L10.6,16.3c0,0.5,1.8,0.8,2.5,0.6c0.4-0.1,0.5-0.4,0.5-0.7c0-0.3-0.1-0.6-0.1-0.8
				c-0.4,0-0.7-0.1-1-0.2c-0.2,0.2-0.4,0.3-0.8,0.6C11.2,15.9,10.6,16,10.6,16.3z"/>
			
				<radialGradient id="SVGID_24_" cx="-1712.2604" cy="-555.8478" r="2.215" gradientTransform="matrix(-0.2764 0.4788 -0.4788 -0.2764 -724.7207 682.439)" gradientUnits="userSpaceOnUse">
				<stop  offset="1.026690e-03" style="stop-color:#EEEEEE"/>
				<stop  offset="0.8718" style="stop-color:#EBEBEB"/>
				<stop  offset="1" style="stop-color:#EAEAEA"/>
			</radialGradient>
			<path class="st91" d="M13.6,15.3c0.1,0.2,0.1,0.4,0.1,0.7c0,0,0,0,0,0.1c0,0.4-0.3,0.6,0,0.8c0.7,0.4,2.3-0.1,2.4-0.6
				c0.2-0.5-1-0.9-1.6-1.2C14.3,15.2,14,15.3,13.6,15.3z"/>
		</g>
		<g>
			
				<linearGradient id="SVGID_25_" gradientUnits="userSpaceOnUse" x1="-3143.8625" y1="1817.8667" x2="-3142.2393" y2="1820.678" gradientTransform="matrix(-0.5 0.866 -0.866 -0.5 17.5286 3646.2163)">
				<stop  offset="0" style="stop-color:#FF6300"/>
				<stop  offset="3.361212e-02" style="stop-color:#FF6300"/>
				<stop  offset="0.3006" style="stop-color:#FF6300"/>
				<stop  offset="0.4658" style="stop-color:#F36300"/>
				<stop  offset="0.7711" style="stop-color:#E26300"/>
				<stop  offset="1" style="stop-color:#DC6300"/>
			</linearGradient>
			<path class="st92" d="M14.7,15c0.3-0.2,0.5-0.4,0.5-0.7l0-0.3c0,0.2-0.2,0.5-0.5,0.7c-0.6,0.4-1.7,0.4-2.3,0
				c-0.3-0.2-0.5-0.4-0.5-0.7l0,0.3c0,0.2,0.2,0.5,0.5,0.7C13.1,15.4,14.1,15.4,14.7,15z"/>
			<path class="st93" d="M12.4,14.8c-0.3-0.2-0.5-0.4-0.5-0.7v0c0-0.2,0.2-0.5,0.5-0.7c0.6-0.4,1.7-0.4,2.3,0
				c0.3,0.2,0.5,0.4,0.5,0.7v0c0,0.2-0.2,0.5-0.5,0.7C14.1,15.1,13.1,15.1,12.4,14.8z"/>
		</g>
		<g>
			<linearGradient id="SVGID_26_" gradientUnits="userSpaceOnUse" x1="5.6606" y1="16.927" x2="21.4629" y2="16.927">
				<stop  offset="0" style="stop-color:#383838"/>
				<stop  offset="9.571359e-02" style="stop-color:#3D3B3C"/>
				<stop  offset="0.3006" style="stop-color:#403D3E"/>
				<stop  offset="0.3969" style="stop-color:#333031"/>
				<stop  offset="0.6347" style="stop-color:#171616"/>
				<stop  offset="0.8436" style="stop-color:#060606"/>
				<stop  offset="1" style="stop-color:#000000"/>
			</linearGradient>
			<path class="st94" d="M20.8,15l-5.8,3.3c-0.8,0.5-2.2,0.5-3,0L6.3,15c-0.4-0.2-0.6-0.5-0.6-0.9l0,0.3c0,0,0,0,0,0.1
				c0,0,0,0,0-0.1l0,0.8c0,0.3,0.2,0.6,0.6,0.9l5.8,3.3c0.8,0.5,2.2,0.5,3,0l5.8-3.3c0.4-0.2,0.6-0.5,0.6-0.9l0-0.8l0-0.3
				C21.5,14.4,21.3,14.7,20.8,15z"/>
			<path class="st95" d="M15.1,18.3l5.8-3.3c0.4-0.2,0.6-0.5,0.6-0.9c0-0.3-0.2-0.6-0.6-0.9l-5.8-3.3c-0.8-0.5-2.2-0.5-3,0l-5.8,3.3
				c-0.4,0.2-0.6,0.5-0.6,0.9c0,0.3,0.2,0.6,0.6,0.9l5.8,3.3C12.9,18.8,14.2,18.8,15.1,18.3z M8.3,14.1c0-0.8,0.5-1.6,1.5-2.1
				c2.1-1.2,5.4-1.2,7.4,0c1,0.6,1.5,1.4,1.5,2.1c0,0.8-0.5,1.6-1.5,2.1c-2.1,1.2-5.4,1.2-7.4,0C8.8,15.6,8.3,14.9,8.3,14.1z"/>
		</g>
		<g>
			<g>
				<path class="st96" d="M19.6,14.3c0.2,0.1,0.6,0.1,0.9,0c0.1-0.1,0.2-0.2,0.2-0.2c0-0.1-0.1-0.2-0.2-0.2c-0.2-0.1-0.6-0.1-0.9,0
					c-0.1,0.1-0.2,0.2-0.2,0.2C19.4,14.2,19.5,14.3,19.6,14.3z"/>
				<path class="st96" d="M14,10.6c0.1-0.1,0.2-0.2,0.2-0.2c0-0.1-0.1-0.2-0.2-0.2c-0.2-0.1-0.6-0.1-0.9,0C13,10.2,13,10.3,13,10.4
					c0,0.1,0.1,0.2,0.2,0.2C13.4,10.7,13.8,10.7,14,10.6z"/>
				<path class="st96" d="M13.1,18.1c0.2,0.1,0.6,0.1,0.9,0c0.1-0.1,0.2-0.2,0.2-0.2c0-0.1-0.1-0.2-0.2-0.2c-0.2-0.1-0.6-0.1-0.9,0
					C13,17.7,13,17.7,13,17.8C13,17.9,13,18,13.1,18.1z"/>
				<path class="st96" d="M7.5,14.3c0.1-0.1,0.2-0.2,0.2-0.2c0-0.1-0.1-0.2-0.2-0.2c-0.2-0.1-0.6-0.1-0.9,0
					c-0.1,0.1-0.2,0.2-0.2,0.2c0,0.1,0.1,0.2,0.2,0.2C6.9,14.5,7.3,14.5,7.5,14.3z"/>
			</g>
			<g>
				<g>
					
						<linearGradient id="SVGID_27_" gradientUnits="userSpaceOnUse" x1="-3140.6064" y1="1824.6393" x2="-3140.002" y2="1825.6863" gradientTransform="matrix(-0.5 0.866 -0.866 -0.5 17.5286 3646.2163)">
						<stop  offset="0" style="stop-color:#A8A8A8"/>
						<stop  offset="0.2559" style="stop-color:#D2CFD0"/>
						<stop  offset="0.4506" style="stop-color:#D8D5D6"/>
						<stop  offset="0.6994" style="stop-color:#E8E5E6"/>
						<stop  offset="0.9043" style="stop-color:#E5E3E4"/>
						<stop  offset="1" style="stop-color:#E0E0E0"/>
					</linearGradient>
					<path class="st97" d="M7.5,14.3c0.1-0.1,0.2-0.2,0.2-0.2l0-0.3c0,0.1-0.1,0.2-0.2,0.2c-0.2,0.1-0.6,0.1-0.9,0
						c-0.1-0.1-0.2-0.2-0.2-0.2l0,0.3c0,0.1,0.1,0.2,0.2,0.2C6.9,14.5,7.3,14.5,7.5,14.3z"/>
					
						<linearGradient id="SVGID_28_" gradientUnits="userSpaceOnUse" x1="-3147.0793" y1="1820.9023" x2="-3146.4749" y2="1821.9492" gradientTransform="matrix(-0.5 0.866 -0.866 -0.5 17.5286 3646.2163)">
						<stop  offset="0" style="stop-color:#A8A8A8"/>
						<stop  offset="0.2559" style="stop-color:#D2CFD0"/>
						<stop  offset="0.4506" style="stop-color:#D8D5D6"/>
						<stop  offset="0.6994" style="stop-color:#E8E5E6"/>
						<stop  offset="0.9043" style="stop-color:#E5E3E4"/>
						<stop  offset="1" style="stop-color:#E0E0E0"/>
					</linearGradient>
					<path class="st98" d="M14,10.6c0.1-0.1,0.2-0.2,0.2-0.2l0-0.3c0,0.1-0.1,0.2-0.2,0.2c-0.2,0.1-0.6,0.1-0.9,0
						C13,10.3,13,10.2,13,10.1l0,0.3c0,0.1,0.1,0.2,0.2,0.2C13.4,10.7,13.8,10.7,14,10.6z"/>
					
						<linearGradient id="SVGID_29_" gradientUnits="userSpaceOnUse" x1="-3140.6067" y1="1817.165" x2="-3140.0022" y2="1818.2122" gradientTransform="matrix(-0.5 0.866 -0.866 -0.5 17.5286 3646.2163)">
						<stop  offset="0" style="stop-color:#A8A8A8"/>
						<stop  offset="0.2559" style="stop-color:#D2CFD0"/>
						<stop  offset="0.4506" style="stop-color:#D8D5D6"/>
						<stop  offset="0.6994" style="stop-color:#E8E5E6"/>
						<stop  offset="0.9043" style="stop-color:#E5E3E4"/>
						<stop  offset="1" style="stop-color:#E0E0E0"/>
					</linearGradient>
					<path class="st99" d="M14,17.8c-0.2,0.1-0.6,0.1-0.9,0C13,17.7,13,17.6,13,17.6l0,0.3c0,0.1,0.1,0.2,0.2,0.2
						c0.2,0.1,0.6,0.1,0.9,0c0.1-0.1,0.2-0.2,0.2-0.2l0-0.3C14.2,17.6,14.1,17.7,14,17.8z"/>
					
						<linearGradient id="SVGID_30_" gradientUnits="userSpaceOnUse" x1="-3147.0793" y1="1813.4281" x2="-3146.4751" y2="1814.475" gradientTransform="matrix(-0.5 0.866 -0.866 -0.5 17.5286 3646.2163)">
						<stop  offset="0" style="stop-color:#A8A8A8"/>
						<stop  offset="0.2559" style="stop-color:#D2CFD0"/>
						<stop  offset="0.4506" style="stop-color:#D8D5D6"/>
						<stop  offset="0.6994" style="stop-color:#E8E5E6"/>
						<stop  offset="0.9043" style="stop-color:#E5E3E4"/>
						<stop  offset="1" style="stop-color:#E0E0E0"/>
					</linearGradient>
					<path class="st100" d="M20.5,14.3c0.1-0.1,0.2-0.2,0.2-0.2l0-0.3c0,0.1-0.1,0.2-0.2,0.2c-0.2,0.1-0.6,0.1-0.9,0
						c-0.1-0.1-0.2-0.2-0.2-0.2l0,0.3c0,0.1,0.1,0.2,0.2,0.2C19.8,14.5,20.2,14.5,20.5,14.3z"/>
				</g>
				<path class="st101" d="M19.6,14.1c0.2,0.1,0.6,0.1,0.9,0c0.1-0.1,0.2-0.2,0.2-0.2c0-0.1-0.1-0.2-0.2-0.2c-0.2-0.1-0.6-0.1-0.9,0
					c-0.1,0.1-0.2,0.2-0.2,0.2C19.4,13.9,19.5,14,19.6,14.1z"/>
				<path class="st101" d="M14,10.3c0.1-0.1,0.2-0.2,0.2-0.2c0-0.1-0.1-0.2-0.2-0.2c-0.2-0.1-0.6-0.1-0.9,0C13,9.9,13,10,13,10.1
					c0,0.1,0.1,0.2,0.2,0.2C13.4,10.5,13.8,10.5,14,10.3z"/>
				<path class="st101" d="M13.1,17.8c0.2,0.1,0.6,0.1,0.9,0c0.1-0.1,0.2-0.2,0.2-0.2c0-0.1-0.1-0.2-0.2-0.2c-0.2-0.1-0.6-0.1-0.9,0
					C13,17.4,13,17.5,13,17.6C13,17.6,13,17.7,13.1,17.8z"/>
				<path class="st101" d="M7.5,14.1c0.1-0.1,0.2-0.2,0.2-0.2c0-0.1-0.1-0.2-0.2-0.2c-0.2-0.1-0.6-0.1-0.9,0
					c-0.1,0.1-0.2,0.2-0.2,0.2c0,0.1,0.1,0.2,0.2,0.2C6.9,14.2,7.3,14.2,7.5,14.1z"/>
			</g>
		</g>
	</g>
	<g>
		<linearGradient id="SVGID_31_" gradientUnits="userSpaceOnUse" x1="10.7487" y1="11.7007" x2="11.8572" y2="9.7808">
			<stop  offset="0" style="stop-color:#0091FF"/>
			<stop  offset="8.041298e-02" style="stop-color:#009CFF"/>
			<stop  offset="0.226" style="stop-color:#00A7FF"/>
			<stop  offset="0.431" style="stop-color:#00AEFF"/>
			<stop  offset="1" style="stop-color:#00B0FF"/>
		</linearGradient>
		<path class="st102" d="M12.3,12.1l0-2.1l-2.2-1.3l0,2.1c0,0.3,0.1,0.5,0.3,0.6l2.2,1.3C12.4,12.6,12.3,12.4,12.3,12.1z"/>
		<linearGradient id="SVGID_32_" gradientUnits="userSpaceOnUse" x1="9.9678" y1="10.0992" x2="13.2833" y2="4.3567">
			<stop  offset="0" style="stop-color:#0091FF"/>
			<stop  offset="8.041298e-02" style="stop-color:#009CFF"/>
			<stop  offset="0.226" style="stop-color:#00A7FF"/>
			<stop  offset="0.431" style="stop-color:#00AEFF"/>
			<stop  offset="1" style="stop-color:#00B0FF"/>
		</linearGradient>
		<path class="st103" d="M12.5,3.9c-0.4-0.2-1,0.1-1.3,0.8l-2.3,4C8.6,9.1,8.6,9.3,8.7,9.4l2.2,1.3c-0.1-0.1-0.1-0.3,0.1-0.7l2.3-4
			c0.4-0.6,1-1,1.3-0.8L12.5,3.9z"/>
		<path class="st104" d="M11.3,10.6l0.9-0.5l0,2.1c0,0.3,0.1,0.5,0.3,0.6c0,0,0,0,0,0c0.2,0.1,0.4,0.1,0.7-0.1l1.7-1
			c0.5-0.3,0.9-1,0.9-1.6l0-2.1l0.9-0.5c0.5-0.3,0.6-0.7,0.3-0.9l-2.3-1.3l0,0c-0.4-0.2-1,0.1-1.3,0.8l-2.3,4
			c-0.2,0.4-0.3,0.6-0.1,0.7l0,0C11,10.7,11.1,10.7,11.3,10.6z"/>
	</g>
</g>
</svg>
