<?xml version="1.0" encoding="utf-8"?>
<!-- Generator: Adobe Illustrator 24.2.1, SVG Export Plug-In . SVG Version: 6.00 Build 0)  -->
<svg version="1.1" id="Layer_3" xmlns="http://www.w3.org/2000/svg" xmlns:xlink="http://www.w3.org/1999/xlink" x="0px" y="0px"
	 viewBox="0 0 28.3 28.3" style="enable-background:new 0 0 28.3 28.3;" xml:space="preserve">
<style type="text/css">
	.st0{opacity:0;fill:#FFFFFF;}
	.st1{opacity:3.030303e-02;fill:#FCFCFC;}
	.st2{opacity:6.060606e-02;fill:#F9F9F9;}
	.st3{opacity:9.090909e-02;fill:#F5F5F5;}
	.st4{opacity:0.1212;fill:#F2F2F2;}
	.st5{opacity:0.1515;fill:#EFEFEF;}
	.st6{opacity:0.1818;fill:#ECECEC;}
	.st7{opacity:0.2121;fill:#E8E8E8;}
	.st8{opacity:0.2424;fill:#E5E5E5;}
	.st9{opacity:0.2727;fill:#E2E2E2;}
	.st10{opacity:0.303;fill:#DFDFDF;}
	.st11{opacity:0.3333;fill:#DBDBDB;}
	.st12{opacity:0.3636;fill:#D8D8D8;}
	.st13{opacity:0.3939;fill:#D5D5D5;}
	.st14{opacity:0.4242;fill:#D2D2D2;}
	.st15{opacity:0.4545;fill:#CECECE;}
	.st16{opacity:0.4848;fill:#CBCBCB;}
	.st17{opacity:0.5152;fill:#C8C8C8;}
	.st18{opacity:0.5455;fill:#C5C5C5;}
	.st19{opacity:0.5758;fill:#C1C1C1;}
	.st20{opacity:0.6061;fill:#BEBEBE;}
	.st21{opacity:0.6364;fill:#BBBBBB;}
	.st22{opacity:0.6667;fill:#B8B8B8;}
	.st23{opacity:0.697;fill:#B4B4B4;}
	.st24{opacity:0.7273;fill:#B1B1B1;}
	.st25{opacity:0.7576;fill:#AEAEAE;}
	.st26{opacity:0.7879;fill:#ABABAB;}
	.st27{opacity:0.8182;fill:#A7A7A7;}
	.st28{opacity:0.8485;fill:#A4A4A4;}
	.st29{opacity:0.8788;fill:#A1A1A1;}
	.st30{opacity:0.9091;fill:#9E9E9E;}
	.st31{opacity:0.9394;fill:#9A9A9A;}
	.st32{opacity:0.9697;fill:#979797;}
	.st33{fill:#949494;}
	.st34{fill:#EF5619;}
	.st35{fill:url(#SVGID_1_);}
	.st36{clip-path:url(#SVGID_3_);}
	.st37{opacity:3.030303e-02;fill:#FEF8F7;}
	.st38{opacity:6.060606e-02;fill:#FDF1F0;}
	.st39{opacity:9.090909e-02;fill:#FCEBE8;}
	.st40{opacity:0.1212;fill:#FBE4E1;}
	.st41{opacity:0.1515;fill:#FADDD9;}
	.st42{opacity:0.1818;fill:#F9D6D2;}
	.st43{opacity:0.2121;fill:#F8CFCA;}
	.st44{opacity:0.2424;fill:#F7C9C3;}
	.st45{opacity:0.2727;fill:#F7C2BB;}
	.st46{opacity:0.303;fill:#F6BBB4;}
	.st47{opacity:0.3333;fill:#F5B4AC;}
	.st48{opacity:0.3636;fill:#F4AEA5;}
	.st49{opacity:0.3939;fill:#F3A79D;}
	.st50{opacity:0.4242;fill:#F2A096;}
	.st51{opacity:0.4545;fill:#F1998E;}
	.st52{opacity:0.4848;fill:#F09287;}
	.st53{opacity:0.5152;fill:#EF8C7F;}
	.st54{opacity:0.5455;fill:#EE8578;}
	.st55{opacity:0.5758;fill:#ED7E70;}
	.st56{opacity:0.6061;fill:#EC7769;}
	.st57{opacity:0.6364;fill:#EB7061;}
	.st58{opacity:0.6667;fill:#EA6A5A;}
	.st59{opacity:0.697;fill:#E96352;}
	.st60{opacity:0.7273;fill:#E85C4B;}
	.st61{opacity:0.7576;fill:#E85543;}
	.st62{opacity:0.7879;fill:#E74F3C;}
	.st63{opacity:0.8182;fill:#E64834;}
	.st64{opacity:0.8485;fill:#E5412D;}
	.st65{opacity:0.8788;fill:#E43A25;}
	.st66{opacity:0.9091;fill:#E3331E;}
	.st67{opacity:0.9394;fill:#E22D16;}
	.st68{opacity:0.9697;fill:#E1260F;}
	.st69{fill:#E01F07;}
	.st70{fill:url(#SVGID_4_);}
	.st71{fill:#454545;}
	.st72{fill:url(#SVGID_5_);}
	.st73{fill:url(#SVGID_6_);}
	.st74{fill:url(#SVGID_7_);}
	.st75{fill:url(#SVGID_8_);}
	.st76{fill:url(#SVGID_9_);}
	.st77{fill:url(#SVGID_10_);}
</style>
<g>
	<g>
		<path class="st0" d="M23,13c-5.3-3.1-10.8-3.1-16,0l0,0c-2.6,1.5-4,3.1-4,4.6c0,1.6,1.3,3.1,4,4.6c5.3,3.1,10.8,3.1,16,0
			c2.6-1.5,4-3.1,4-4.6C27,16,25.7,14.5,23,13z"/>
		<path class="st1" d="M23,13c-5.3-3.1-10.8-3.1-16,0l0,0c-2.6,1.5-4,3.1-4,4.6c0,1.6,1.3,3.1,4,4.6c5.3,3.1,10.8,3.1,16,0
			c2.6-1.5,4-3.1,4-4.6C27,16,25.6,14.5,23,13z"/>
		<path class="st2" d="M22.9,13c-5.3-3.1-10.8-3.1-16,0l0,0c-2.6,1.5-4,3.1-4,4.6c0,1.6,1.3,3.1,4,4.6c5.3,3.1,10.8,3.1,16,0
			c2.6-1.5,4-3.1,4-4.6C26.9,16,25.6,14.5,22.9,13z"/>
		<path class="st3" d="M22.9,13c-5.3-3.1-10.8-3.1-16,0l0,0c-2.6,1.5-4,3.1-4,4.6c0,1.6,1.3,3.1,4,4.6c5.3,3.1,10.8,3.1,16,0
			c2.6-1.5,4-3.1,4-4.6C26.9,16,25.5,14.5,22.9,13z"/>
		<path class="st4" d="M22.8,13c-5.3-3.1-10.8-3.1-16,0l0,0c-2.6,1.5-4,3.1-4,4.6c0,1.6,1.3,3.1,4,4.6c5.3,3.1,10.8,3.1,16,0
			c2.6-1.5,4-3.1,4-4.6C26.8,16,25.5,14.5,22.8,13z"/>
		<path class="st5" d="M22.8,13c-5.3-3.1-10.8-3.1-16,0l0,0c-2.6,1.5-4,3.1-4,4.6c0,1.6,1.3,3.1,4,4.6c5.3,3.1,10.8,3.1,16,0
			c2.6-1.5,4-3.1,4-4.6C26.8,16,25.4,14.5,22.8,13z"/>
		<path class="st6" d="M22.7,13c-5.3-3.1-10.8-3.1-16,0l0,0c-2.6,1.5-4,3.1-4,4.6c0,1.6,1.3,3.1,4,4.6c5.3,3.1,10.8,3.1,16,0
			c2.6-1.5,4-3.1,4-4.6C26.7,16,25.4,14.5,22.7,13z"/>
		<path class="st7" d="M22.7,13c-5.3-3.1-10.8-3.1-16,0l0,0c-2.6,1.5-4,3.1-4,4.6c0,1.6,1.3,3.1,4,4.6c5.3,3.1,10.8,3.1,16,0
			c2.6-1.5,4-3.1,4-4.6C26.7,16,25.3,14.5,22.7,13z"/>
		<path class="st8" d="M22.6,13c-5.3-3.1-10.8-3.1-16,0l0,0c-2.6,1.5-4,3.1-4,4.6c0,1.6,1.3,3.1,4,4.6c5.3,3.1,10.8,3.1,16,0
			c2.6-1.5,4-3.1,4-4.6C26.6,16,25.3,14.5,22.6,13z"/>
		<path class="st9" d="M22.6,13c-5.3-3.1-10.8-3.1-16,0l0,0c-2.6,1.5-4,3.1-4,4.6c0,1.6,1.3,3.1,4,4.6c5.3,3.1,10.8,3.1,16,0
			c2.6-1.5,4-3.1,4-4.6C26.6,16,25.2,14.5,22.6,13z"/>
		<path class="st10" d="M22.5,13c-5.3-3.1-10.8-3.1-16,0l0,0c-2.6,1.5-4,3.1-4,4.6c0,1.6,1.3,3.1,4,4.6c5.3,3.1,10.8,3.1,16,0
			c2.6-1.5,4-3.1,4-4.6C26.5,16,25.2,14.5,22.5,13z"/>
		<path class="st11" d="M22.5,13c-5.3-3.1-10.8-3.1-16,0l0,0c-2.6,1.5-4,3.1-4,4.6c0,1.6,1.3,3.1,4,4.6c5.3,3.1,10.8,3.1,16,0
			c2.6-1.5,4-3.1,4-4.6C26.5,16,25.1,14.5,22.5,13z"/>
		<path class="st12" d="M22.4,13c-5.3-3.1-10.8-3.1-16,0l0,0c-2.6,1.5-4,3.1-4,4.6c0,1.6,1.3,3.1,4,4.6c5.3,3.1,10.8,3.1,16,0
			c2.6-1.5,4-3.1,4-4.6C26.4,16,25.1,14.5,22.4,13z"/>
		<path class="st13" d="M22.4,13c-5.3-3.1-10.8-3.1-16,0l0,0c-2.6,1.5-4,3.1-4,4.6c0,1.6,1.3,3.1,4,4.6c5.3,3.1,10.8,3.1,16,0
			c2.6-1.5,4-3.1,4-4.6C26.4,16,25,14.5,22.4,13z"/>
		<path class="st14" d="M22.3,13c-5.3-3.1-10.8-3.1-16,0l0,0c-2.6,1.5-4,3.1-4,4.6c0,1.6,1.3,3.1,4,4.6c5.3,3.1,10.8,3.1,16,0
			c2.6-1.5,4-3.1,4-4.6C26.3,16,25,14.5,22.3,13z"/>
		<path class="st15" d="M22.3,13c-5.3-3.1-10.8-3.1-16,0l0,0c-2.6,1.5-4,3.1-4,4.6c0,1.6,1.3,3.1,4,4.6c5.3,3.1,10.8,3.1,16,0
			c2.6-1.5,4-3.1,4-4.6C26.3,16,24.9,14.5,22.3,13z"/>
		<path class="st16" d="M22.2,13c-5.3-3.1-10.8-3.1-16,0l0,0c-2.6,1.5-4,3.1-4,4.6c0,1.6,1.3,3.1,4,4.6c5.3,3.1,10.8,3.1,16,0
			c2.6-1.5,4-3.1,4-4.6C26.2,16,24.9,14.5,22.2,13z"/>
		<path class="st17" d="M22.2,13c-5.3-3.1-10.8-3.1-16,0l0,0c-2.6,1.5-4,3.1-4,4.6c0,1.6,1.3,3.1,4,4.6c5.3,3.1,10.8,3.1,16,0
			c2.6-1.5,4-3.1,4-4.6C26.2,16,24.8,14.5,22.2,13z"/>
		<path class="st18" d="M22.1,13c-5.3-3.1-10.8-3.1-16,0l0,0c-2.6,1.5-4,3.1-4,4.6c0,1.6,1.3,3.1,4,4.6c5.3,3.1,10.8,3.1,16,0
			c2.6-1.5,4-3.1,4-4.6C26.1,16,24.8,14.5,22.1,13z"/>
		<path class="st19" d="M22.1,13c-5.3-3.1-10.8-3.1-16,0l0,0c-2.6,1.5-4,3.1-4,4.6c0,1.6,1.3,3.1,4,4.6c5.3,3.1,10.8,3.1,16,0
			c2.6-1.5,4-3.1,4-4.6C26.1,16,24.7,14.5,22.1,13z"/>
		<path class="st20" d="M22,13c-5.3-3.1-10.8-3.1-16,0l0,0c-2.6,1.5-4,3.1-4,4.6c0,1.6,1.3,3.1,4,4.6c5.3,3.1,10.8,3.1,16,0
			c2.6-1.5,4-3.1,4-4.6C26,16,24.7,14.5,22,13z"/>
		<path class="st21" d="M22,13c-5.3-3.1-10.8-3.1-16,0l0,0c-2.6,1.5-4,3.1-4,4.6c0,1.6,1.3,3.1,4,4.6c5.3,3.1,10.8,3.1,16,0
			c2.6-1.5,4-3.1,4-4.6C26,16,24.6,14.5,22,13z"/>
		<path class="st22" d="M21.9,13c-5.3-3.1-10.8-3.1-16,0l0,0c-2.6,1.5-4,3.1-4,4.6c0,1.6,1.3,3.1,4,4.6c5.3,3.1,10.8,3.1,16,0
			c2.6-1.5,4-3.1,4-4.6C25.9,16,24.6,14.5,21.9,13z"/>
		<path class="st23" d="M21.9,13c-5.3-3.1-10.8-3.1-16,0l0,0c-2.6,1.5-4,3.1-4,4.6c0,1.6,1.3,3.1,4,4.6c5.3,3.1,10.8,3.1,16,0
			c2.6-1.5,4-3.1,4-4.6C25.9,16,24.5,14.5,21.9,13z"/>
		<path class="st24" d="M21.8,13c-5.3-3.1-10.8-3.1-16,0l0,0c-2.6,1.5-4,3.1-4,4.6c0,1.6,1.3,3.1,4,4.6c5.3,3.1,10.8,3.1,16,0
			c2.6-1.5,4-3.1,4-4.6C25.8,16,24.5,14.5,21.8,13z"/>
		<path class="st25" d="M21.8,13c-5.3-3.1-10.8-3.1-16,0l0,0c-2.6,1.5-4,3.1-4,4.6c0,1.6,1.3,3.1,4,4.6c5.3,3.1,10.8,3.1,16,0
			c2.6-1.5,4-3.1,4-4.6C25.8,16,24.4,14.5,21.8,13z"/>
		<path class="st26" d="M21.7,13c-5.3-3.1-10.8-3.1-16,0l0,0c-2.6,1.5-4,3.1-4,4.6c0,1.6,1.3,3.1,4,4.6c5.3,3.1,10.8,3.1,16,0
			c2.6-1.5,4-3.1,4-4.6C25.7,16,24.4,14.5,21.7,13z"/>
		<path class="st27" d="M21.7,13c-5.3-3.1-10.8-3.1-16,0l0,0c-2.6,1.5-4,3.1-4,4.6c0,1.6,1.3,3.1,4,4.6c5.3,3.1,10.8,3.1,16,0
			c2.6-1.5,4-3.1,4-4.6C25.7,16,24.3,14.5,21.7,13z"/>
		<path class="st28" d="M21.6,13c-5.3-3.1-10.8-3.1-16,0l0,0c-2.6,1.5-4,3.1-4,4.6c0,1.6,1.3,3.1,4,4.6c5.3,3.1,10.8,3.1,16,0
			c2.6-1.5,4-3.1,4-4.6C25.6,16,24.3,14.5,21.6,13z"/>
		<path class="st29" d="M21.6,13c-5.3-3.1-10.8-3.1-16,0l0,0c-2.6,1.5-4,3.1-4,4.6c0,1.6,1.3,3.1,4,4.6c5.3,3.1,10.8,3.1,16,0
			c2.6-1.5,4-3.1,4-4.6C25.6,16,24.2,14.5,21.6,13z"/>
		<path class="st30" d="M21.5,13c-5.3-3.1-10.8-3.1-16,0l0,0c-2.6,1.5-4,3.1-4,4.6c0,1.6,1.3,3.1,4,4.6c5.3,3.1,10.8,3.1,16,0
			c2.6-1.5,4-3.1,4-4.6C25.5,16,24.2,14.5,21.5,13z"/>
		<path class="st31" d="M21.5,13c-5.3-3.1-10.8-3.1-16,0l0,0c-2.6,1.5-4,3.1-4,4.6c0,1.6,1.3,3.1,4,4.6c5.3,3.1,10.8,3.1,16,0
			c2.6-1.5,4-3.1,4-4.6C25.5,16,24.1,14.5,21.5,13z"/>
		<path class="st32" d="M21.4,13c-5.3-3.1-10.8-3.1-16,0l0,0c-2.6,1.5-4,3.1-4,4.6c0,1.6,1.3,3.1,4,4.6c5.3,3.1,10.8,3.1,16,0
			c2.6-1.5,4-3.1,4-4.6C25.4,16,24.1,14.5,21.4,13z"/>
		<path class="st33" d="M21.4,13c-5.3-3.1-10.8-3.1-16,0l0,0c-2.6,1.5-4,3.1-4,4.6c0,1.6,1.3,3.1,4,4.6c5.3,3.1,10.8,3.1,16,0
			c2.6-1.5,4-3.1,4-4.6C25.4,16,24,14.5,21.4,13z"/>
	</g>
	<g>
		<path class="st34" d="M21.4,13c-5.3-3.1-10.8-3.1-16,0l0,0c-2.6,1.5-4,3.1-4,4.6c0,1.6,1.3,3.1,4,4.6c5.3,3.1,10.8,3.1,16,0
			c2.6-1.5,4-3.1,4-4.6C25.4,16,24,14.5,21.4,13z"/>
		
			<linearGradient id="SVGID_1_" gradientUnits="userSpaceOnUse" x1="-100.9978" y1="75.0717" x2="-77.0201" y2="75.0717" gradientTransform="matrix(1 0 0 1 102.3737 -55.1646)">
			<stop  offset="0" style="stop-color:#FF682B"/>
			<stop  offset="7.192162e-02" style="stop-color:#FF6B2E"/>
			<stop  offset="0.3006" style="stop-color:#FF6D31"/>
			<stop  offset="0.5494" style="stop-color:#F65D21"/>
			<stop  offset="0.7441" style="stop-color:#F3571B"/>
			<stop  offset="1" style="stop-color:#C93000"/>
		</linearGradient>
		<path class="st35" d="M21.4,19.9c-5.3,3.1-10.8,3.1-16,0c-2.6-1.5-4-3.1-4-4.6v2.3c0,1.6,1.3,3.1,4,4.6c5.3,3.1,10.8,3.1,16,0
			c2.6-1.5,4-3.1,4-4.6v-2.3C25.4,16.8,24,18.4,21.4,19.9z"/>
		<path class="st34" d="M21.4,10.7c-5.3-3.1-10.8-3.1-16,0l0,0c-2.6,1.5-4,3.1-4,4.6s1.3,3.1,4,4.6c5.3,3.1,10.8,3.1,16,0
			c2.6-1.5,4-3.1,4-4.6S24,12.2,21.4,10.7z"/>
	</g>
	<g>
		<defs>
			<path id="SVGID_2_" d="M21.4,10.7c-5.3-3.1-10.8-3.1-16,0l0,0c-2.6,1.5-4,3.1-4,4.6s1.3,3.1,4,4.6c5.3,3.1,10.8,3.1,16,0
				c2.6-1.5,4-3.1,4-4.6S24,12.2,21.4,10.7z"/>
		</defs>
		<clipPath id="SVGID_3_">
			<use xlink:href="#SVGID_2_"  style="overflow:visible;"/>
		</clipPath>
		<g class="st36">
			<path class="st0" d="M29.2,12.9c0,0.1,0,0.2,0,0.3C29.2,13.1,29.2,13,29.2,12.9L29.2,12.9z M29.2,13.8c0-0.2,0.1-0.4,0.1-0.6
				C29.2,13.4,29.2,13.6,29.2,13.8z M27.4,6.8l-0.5,0.3c-1-0.6-1.9-0.8-2.7-0.4l-0.7,0.4l0,0l0,0h0l0,0c-0.3,0.1-0.5,0.4-0.6,0.6
				l-2.4,1.4L20,9.4v0l-0.4,0.2c-0.3,0-0.6,0.1-0.9,0.2L18,10.2l0,0l0,0h0l0,0c-0.7,0.4-1.1,1.4-1,2.5l-1,0.6
				c-0.6,0.4-0.1,1.8,1.1,3.1c1,1.1,2.2,1.8,2.9,1.7c1,0.7,2,0.9,2.7,0.4c0.1,0,0.2-0.1,0.2-0.2c-0.1,0.1-0.1,0.1-0.2,0.2l0.7-0.4
				c0.3-0.1,0.5-0.4,0.6-0.6l0.4-0.2l0,0l1.9-1.1l0,0l0.9-0.5c0.3,0,0.6-0.1,0.9-0.2c0.2-0.1,0.3-0.2,0.4-0.4
				c-0.1,0.1-0.3,0.3-0.4,0.4L29,15c0.7-0.4,1.1-1.4,1-2.5l0.5-0.3c0.9-0.5,0.9-2.1,0-3.6C29.6,7.1,28.2,6.3,27.4,6.8z M26.1,7.5
				c-0.1,0-0.1-0.1-0.2-0.1C26,7.5,26.1,7.5,26.1,7.5L26.1,7.5z M28.8,14.8C28.8,14.8,28.8,14.8,28.8,14.8
				C28.8,14.8,28.8,14.8,28.8,14.8z"/>
			<path class="st37" d="M28.9,12.9c0,0.1,0,0.2,0,0.3C28.9,13.1,28.9,13,28.9,12.9L28.9,12.9z M28.9,13.8c0-0.2,0.1-0.4,0.1-0.6
				C28.9,13.4,28.9,13.6,28.9,13.8z M27.1,6.8l-0.5,0.3c-1-0.6-1.9-0.8-2.7-0.4l-0.7,0.4l0,0h0h0l0,0c-0.3,0.1-0.5,0.4-0.6,0.6
				l-2.4,1.4l-0.4,0.2v0l-0.4,0.2c-0.3,0-0.6,0.1-0.9,0.2l-0.7,0.4l0,0l0,0h0h0c-0.7,0.4-1.1,1.4-1,2.5l-1,0.6
				c-0.6,0.4-0.1,1.8,1.1,3.1c1,1.1,2.2,1.8,2.9,1.7c1,0.7,2,0.9,2.7,0.4c0.1,0,0.2-0.1,0.2-0.2c-0.1,0.1-0.1,0.1-0.2,0.2l0.7-0.4
				c0.3-0.1,0.5-0.4,0.6-0.6l0.4-0.2l0,0l1.9-1.1l0,0l0.9-0.5c0.3,0,0.6-0.1,0.9-0.2c0.2-0.1,0.3-0.2,0.4-0.4
				c-0.1,0.1-0.3,0.3-0.4,0.4l0.7-0.4c0.7-0.4,1.1-1.4,1-2.5l0.5-0.3c0.9-0.5,0.9-2.1,0-3.6C29.3,7.1,27.9,6.3,27.1,6.8z M25.8,7.5
				c-0.1,0-0.1-0.1-0.2-0.1C25.7,7.5,25.8,7.5,25.8,7.5L25.8,7.5z M28.5,14.8C28.5,14.8,28.5,14.8,28.5,14.8
				C28.5,14.8,28.5,14.8,28.5,14.8z"/>
			<path class="st38" d="M28.6,12.9c0,0.1,0,0.2,0,0.3C28.6,13.1,28.6,13,28.6,12.9L28.6,12.9z M28.6,13.8c0-0.2,0.1-0.4,0.1-0.6
				C28.6,13.4,28.6,13.6,28.6,13.8z M26.8,6.8l-0.5,0.3c-1-0.6-1.9-0.8-2.7-0.4l-0.7,0.4l0,0h0h0l0,0c-0.3,0.1-0.5,0.4-0.6,0.6
				l-2.4,1.4l-0.4,0.2v0L19,9.6c-0.3,0-0.6,0.1-0.9,0.2l-0.7,0.4l0,0l0,0h0h0c-0.7,0.4-1.1,1.4-1,2.5l-1,0.6
				c-0.6,0.4-0.1,1.8,1.1,3.1c1,1.1,2.2,1.8,2.9,1.7c1,0.7,2,0.9,2.7,0.4c0.1,0,0.2-0.1,0.2-0.2c-0.1,0.1-0.1,0.1-0.2,0.2l0.7-0.4
				c0.3-0.1,0.5-0.4,0.6-0.6l0.4-0.2l0,0l1.9-1.1l0,0l0.9-0.5c0.3,0,0.6-0.1,0.9-0.2c0.2-0.1,0.3-0.2,0.4-0.4
				c-0.1,0.1-0.3,0.3-0.4,0.4l0.7-0.4c0.7-0.4,1.1-1.4,1-2.5l0.5-0.3c0.9-0.5,0.9-2.1,0-3.6C29,7.1,27.6,6.3,26.8,6.8z M25.5,7.5
				c-0.1,0-0.1-0.1-0.2-0.1C25.4,7.5,25.4,7.5,25.5,7.5L25.5,7.5z M28.2,14.8C28.2,14.8,28.2,14.8,28.2,14.8
				C28.2,14.8,28.2,14.8,28.2,14.8z"/>
			<path class="st39" d="M28.3,12.9c0,0.1,0,0.2,0,0.3C28.3,13.1,28.3,13,28.3,12.9L28.3,12.9z M28.3,13.8c0-0.2,0.1-0.4,0.1-0.6
				C28.3,13.4,28.3,13.6,28.3,13.8z M26.5,6.8l-0.5,0.3c-1-0.6-1.9-0.8-2.7-0.4l-0.7,0.4l0,0h0h0l0,0c-0.3,0.1-0.5,0.4-0.6,0.6
				l-2.4,1.4l-0.4,0.2v0l-0.4,0.2c-0.3,0-0.6,0.1-0.9,0.2l-0.7,0.4l0,0l0,0h0h0c-0.7,0.4-1.1,1.4-1,2.5l-1,0.6
				c-0.6,0.4-0.1,1.8,1.1,3.1c1,1.1,2.2,1.8,2.9,1.7c1,0.7,2,0.9,2.7,0.4c0.1,0,0.2-0.1,0.2-0.2c-0.1,0.1-0.1,0.1-0.2,0.2l0.7-0.4
				c0.3-0.1,0.5-0.4,0.6-0.6l0.4-0.2l0,0l1.9-1.1l0,0l0.9-0.5c0.3,0,0.6-0.1,0.9-0.2c0.2-0.1,0.3-0.2,0.4-0.4
				c-0.1,0.1-0.3,0.3-0.4,0.4l0.7-0.4c0.7-0.4,1.1-1.4,1-2.5l0.5-0.3c0.9-0.5,0.9-2.1,0-3.6C28.7,7.1,27.3,6.3,26.5,6.8z M25.2,7.5
				c-0.1,0-0.1-0.1-0.2-0.1C25.1,7.5,25.1,7.5,25.2,7.5L25.2,7.5z M27.9,14.8C27.9,14.8,27.9,14.8,27.9,14.8
				C27.9,14.8,27.9,14.8,27.9,14.8z"/>
			<path class="st40" d="M28,12.9c0,0.1,0,0.2,0,0.3C28,13.1,28,13,28,12.9L28,12.9z M28,13.8c0-0.2,0.1-0.4,0.1-0.6
				C28,13.4,28,13.6,28,13.8z M26.2,6.8l-0.5,0.3c-1-0.6-1.9-0.8-2.7-0.4l-0.7,0.4l0,0h0h0l0,0c-0.3,0.1-0.5,0.4-0.6,0.6l-2.4,1.4
				l-0.4,0.2v0l-0.4,0.2c-0.3,0-0.6,0.1-0.9,0.2l-0.7,0.4l0,0l0,0h0h0c-0.7,0.4-1.1,1.4-1,2.5l-1,0.6c-0.6,0.4-0.1,1.8,1.1,3.1
				c1,1.1,2.2,1.8,2.9,1.7c1,0.7,2,0.9,2.7,0.4c0.1,0,0.2-0.1,0.2-0.2c-0.1,0.1-0.1,0.1-0.2,0.2l0.7-0.4c0.3-0.1,0.5-0.4,0.6-0.6
				l0.4-0.2l0,0l1.9-1.1l0,0l0.9-0.5c0.3,0,0.6-0.1,0.9-0.2c0.2-0.1,0.3-0.2,0.4-0.4c-0.1,0.1-0.3,0.3-0.4,0.4l0.7-0.4
				c0.7-0.4,1.1-1.4,1-2.5l0.5-0.3c0.9-0.5,0.9-2.1,0-3.6C28.4,7.1,27,6.3,26.2,6.8z M24.9,7.5c-0.1,0-0.1-0.1-0.2-0.1
				C24.8,7.5,24.8,7.5,24.9,7.5L24.9,7.5z M27.6,14.8C27.6,14.8,27.6,14.8,27.6,14.8C27.6,14.8,27.6,14.8,27.6,14.8z"/>
			<path class="st41" d="M27.7,12.9c0,0.1,0,0.2,0,0.3C27.7,13.1,27.7,13,27.7,12.9L27.7,12.9z M27.7,13.8c0-0.2,0.1-0.4,0.1-0.6
				C27.7,13.4,27.7,13.6,27.7,13.8z M25.9,6.8l-0.5,0.3c-1-0.6-1.9-0.8-2.7-0.4l-0.7,0.4l0,0h0h0l0,0c-0.3,0.1-0.5,0.4-0.6,0.6
				l-2.4,1.4l-0.4,0.2v0l-0.4,0.2c-0.3,0-0.6,0.1-0.9,0.2l-0.7,0.4l0,0l0,0h0h0c-0.7,0.4-1.1,1.4-1,2.5l-1,0.6
				c-0.6,0.4-0.1,1.8,1.1,3.1c1,1.1,2.2,1.8,2.9,1.7c1,0.7,2,0.9,2.7,0.4c0.1,0,0.2-0.1,0.2-0.2c-0.1,0.1-0.1,0.1-0.2,0.2l0.7-0.4
				c0.3-0.1,0.5-0.4,0.6-0.6l0.4-0.2l0,0l1.9-1.1l0,0l0.9-0.5c0.3,0,0.6-0.1,0.9-0.2c0.2-0.1,0.3-0.2,0.4-0.4
				c-0.1,0.1-0.3,0.3-0.4,0.4l0.7-0.4c0.7-0.4,1.1-1.4,1-2.5l0.5-0.3c0.9-0.5,0.9-2.1,0-3.6C28.1,7.1,26.7,6.3,25.9,6.8z M24.6,7.5
				c-0.1,0-0.1-0.1-0.2-0.1C24.5,7.5,24.5,7.5,24.6,7.5L24.6,7.5z M27.3,14.8C27.3,14.8,27.3,14.8,27.3,14.8
				C27.3,14.8,27.3,14.8,27.3,14.8z"/>
			<path class="st42" d="M27.4,12.9c0,0.1,0,0.2,0,0.3C27.4,13.1,27.4,13,27.4,12.9L27.4,12.9z M27.4,13.8c0-0.2,0.1-0.4,0.1-0.6
				C27.4,13.4,27.4,13.6,27.4,13.8z M25.6,6.8L25,7.1c-1-0.6-1.9-0.8-2.7-0.4l-0.7,0.4l0,0h0h0l0,0c-0.3,0.1-0.5,0.4-0.6,0.6
				l-2.4,1.4l-0.4,0.2v0l-0.4,0.2c-0.3,0-0.6,0.1-0.9,0.2l-0.7,0.4l0,0l0,0h0h0c-0.7,0.4-1.1,1.4-1,2.5l-1,0.6
				c-0.6,0.4-0.1,1.8,1.1,3.1c1,1.1,2.2,1.8,2.9,1.7c1,0.7,2,0.9,2.7,0.4c0.1,0,0.2-0.1,0.2-0.2c-0.1,0.1-0.1,0.1-0.2,0.2l0.7-0.4
				c0.3-0.1,0.5-0.4,0.6-0.6l0.4-0.2l0,0l1.9-1.1l0,0l0.9-0.5c0.3,0,0.6-0.1,0.9-0.2c0.2-0.1,0.3-0.2,0.4-0.4
				c-0.1,0.1-0.3,0.3-0.4,0.4l0.7-0.4c0.7-0.4,1.1-1.4,1-2.5l0.5-0.3c0.9-0.5,0.9-2.1,0-3.6C27.8,7.1,26.4,6.3,25.6,6.8z M24.3,7.5
				c-0.1,0-0.1-0.1-0.2-0.1C24.2,7.5,24.2,7.5,24.3,7.5L24.3,7.5z M27,14.8C27,14.8,27,14.8,27,14.8C27,14.8,27,14.8,27,14.8z"/>
			<path class="st43" d="M27.1,12.9c0,0.1,0,0.2,0,0.3C27.1,13.1,27.1,13,27.1,12.9L27.1,12.9z M27,13.8c0-0.2,0.1-0.4,0.1-0.6
				C27.1,13.4,27.1,13.6,27,13.8z M25.3,6.8l-0.5,0.3c-1-0.6-1.9-0.8-2.7-0.4l-0.7,0.4l0,0h0h0l0,0c-0.3,0.1-0.5,0.4-0.6,0.6
				l-2.4,1.4l-0.4,0.2v0l-0.4,0.2c-0.3,0-0.6,0.1-0.9,0.2l-0.7,0.4l0,0l0,0h0h0c-0.7,0.4-1.1,1.4-1,2.5l-1,0.6
				c-0.6,0.4-0.1,1.8,1.1,3.1c1,1.1,2.2,1.8,2.9,1.7c1,0.7,2,0.9,2.7,0.4c0.1,0,0.2-0.1,0.2-0.2c-0.1,0.1-0.1,0.1-0.2,0.2l0.7-0.4
				c0.3-0.1,0.5-0.4,0.6-0.6l0.4-0.2l0,0l1.9-1.1l0,0l0.9-0.5c0.3,0,0.6-0.1,0.9-0.2c0.2-0.1,0.3-0.2,0.4-0.4
				c-0.1,0.1-0.3,0.3-0.4,0.4l0.7-0.4c0.7-0.4,1.1-1.4,1-2.5l0.5-0.3c0.9-0.5,0.9-2.1,0-3.6C27.5,7.1,26.1,6.3,25.3,6.8z M24,7.5
				c-0.1,0-0.1-0.1-0.2-0.1C23.9,7.5,23.9,7.5,24,7.5L24,7.5z M26.7,14.8C26.7,14.8,26.7,14.8,26.7,14.8
				C26.7,14.8,26.7,14.8,26.7,14.8z"/>
			<path class="st44" d="M26.8,12.9c0,0.1,0,0.2,0,0.3C26.8,13.1,26.8,13,26.8,12.9L26.8,12.9z M26.7,13.8c0-0.2,0.1-0.4,0.1-0.6
				C26.8,13.4,26.8,13.6,26.7,13.8z M25,6.8l-0.5,0.3c-1-0.6-1.9-0.8-2.7-0.4L21,7.1l0,0h0h0l0,0c-0.3,0.1-0.5,0.4-0.6,0.6L18,9.1
				l-0.4,0.2v0l-0.4,0.2c-0.3,0-0.6,0.1-0.9,0.2l-0.7,0.4l0,0l0,0h0h0c-0.7,0.4-1.1,1.4-1,2.5l-1,0.6c-0.6,0.4-0.1,1.8,1.1,3.1
				c1,1.1,2.2,1.8,2.9,1.7c1,0.7,2,0.9,2.7,0.4c0.1,0,0.2-0.1,0.2-0.2c-0.1,0.1-0.1,0.1-0.2,0.2l0.7-0.4c0.3-0.1,0.5-0.4,0.6-0.6
				l0.4-0.2l0,0l1.9-1.1l0,0l0.9-0.5c0.3,0,0.6-0.1,0.9-0.2c0.2-0.1,0.3-0.2,0.4-0.4c-0.1,0.1-0.3,0.3-0.4,0.4l0.7-0.4
				c0.7-0.4,1.1-1.4,1-2.5l0.5-0.3c0.9-0.5,0.9-2.1,0-3.6C27.2,7.1,25.8,6.3,25,6.8z M23.7,7.5c-0.1,0-0.1-0.1-0.2-0.1
				C23.6,7.5,23.6,7.5,23.7,7.5L23.7,7.5z M26.4,14.8C26.4,14.8,26.4,14.8,26.4,14.8C26.4,14.8,26.4,14.8,26.4,14.8z"/>
			<path class="st45" d="M26.5,12.9c0,0.1,0,0.2,0,0.3C26.5,13.1,26.5,13,26.5,12.9L26.5,12.9z M26.4,13.8c0-0.2,0.1-0.4,0.1-0.6
				C26.5,13.4,26.5,13.6,26.4,13.8z M24.7,6.8l-0.5,0.3c-1-0.6-1.9-0.8-2.7-0.4l-0.7,0.4l0,0h0h0l0,0c-0.3,0.1-0.5,0.4-0.6,0.6
				l-2.4,1.4l-0.4,0.2v0l-0.4,0.2c-0.3,0-0.6,0.1-0.9,0.2l-0.7,0.4l0,0l0,0h0h0c-0.7,0.4-1.1,1.4-1,2.5l-1,0.6
				c-0.6,0.4-0.1,1.8,1.1,3.1c1,1.1,2.2,1.8,2.9,1.7c1,0.7,2,0.9,2.7,0.4c0.1,0,0.2-0.1,0.2-0.2c-0.1,0.1-0.1,0.1-0.2,0.2l0.7-0.4
				c0.3-0.1,0.5-0.4,0.6-0.6l0.4-0.2l0,0l1.9-1.1l0,0l0.9-0.5c0.3,0,0.6-0.1,0.9-0.2c0.2-0.1,0.3-0.2,0.4-0.4
				c-0.1,0.1-0.3,0.3-0.4,0.4l0.7-0.4c0.7-0.4,1.1-1.4,1-2.5l0.5-0.3c0.9-0.5,0.9-2.1,0-3.6C26.9,7.1,25.5,6.3,24.7,6.8z M23.4,7.5
				c-0.1,0-0.1-0.1-0.2-0.1C23.3,7.5,23.3,7.5,23.4,7.5L23.4,7.5z M26.1,14.8C26.1,14.8,26.1,14.8,26.1,14.8
				C26.1,14.8,26.1,14.8,26.1,14.8z"/>
			<path class="st46" d="M26.2,12.9c0,0.1,0,0.2,0,0.3C26.2,13.1,26.2,13,26.2,12.9L26.2,12.9z M26.1,13.8c0-0.2,0.1-0.4,0.1-0.6
				C26.2,13.4,26.2,13.6,26.1,13.8z M24.4,6.8l-0.5,0.3c-1-0.6-1.9-0.8-2.7-0.4l-0.7,0.4l0,0h0h0l0,0c-0.3,0.1-0.5,0.4-0.6,0.6
				l-2.4,1.4L17,9.4v0l-0.4,0.2c-0.3,0-0.6,0.1-0.9,0.2L15,10.2l0,0l0,0h0h0c-0.7,0.4-1.1,1.4-1,2.5l-1,0.6
				c-0.6,0.4-0.1,1.8,1.1,3.1c1,1.1,2.2,1.8,2.9,1.7c1,0.7,2,0.9,2.7,0.4c0.1,0,0.2-0.1,0.2-0.2c-0.1,0.1-0.1,0.1-0.2,0.2l0.7-0.4
				c0.3-0.1,0.5-0.4,0.6-0.6l0.4-0.2l0,0l1.9-1.1l0,0l0.9-0.5c0.3,0,0.6-0.1,0.9-0.2c0.2-0.1,0.3-0.2,0.4-0.4
				c-0.1,0.1-0.3,0.3-0.4,0.4L26,15c0.7-0.4,1.1-1.4,1-2.5l0.5-0.3c0.9-0.5,0.9-2.1,0-3.6C26.6,7.1,25.2,6.3,24.4,6.8z M23.1,7.5
				c-0.1,0-0.1-0.1-0.2-0.1C23,7.5,23,7.5,23.1,7.5L23.1,7.5z M25.8,14.8C25.8,14.8,25.8,14.8,25.8,14.8
				C25.8,14.8,25.8,14.8,25.8,14.8z"/>
			<path class="st47" d="M25.9,12.9c0,0.1,0,0.2,0,0.3C25.9,13.1,25.9,13,25.9,12.9L25.9,12.9z M25.8,13.8c0-0.2,0.1-0.4,0.1-0.6
				C25.9,13.4,25.9,13.6,25.8,13.8z M24.1,6.8l-0.5,0.3c-1-0.6-1.9-0.8-2.7-0.4l-0.7,0.4l0,0h0h0l0,0c-0.3,0.1-0.5,0.4-0.6,0.6
				l-2.4,1.4l-0.4,0.2v0l-0.4,0.2c-0.3,0-0.6,0.1-0.9,0.2l-0.7,0.4l0,0l0,0h0h0c-0.7,0.4-1.1,1.4-1,2.5l-1,0.6
				c-0.6,0.4-0.1,1.8,1.1,3.1c1,1.1,2.2,1.8,2.9,1.7c1,0.7,2,0.9,2.7,0.4c0.1,0,0.2-0.1,0.2-0.2c-0.1,0.1-0.1,0.1-0.2,0.2l0.7-0.4
				c0.3-0.1,0.5-0.4,0.6-0.6l0.4-0.2l0,0l1.9-1.1l0,0l0.9-0.5c0.3,0,0.6-0.1,0.9-0.2c0.2-0.1,0.3-0.2,0.4-0.4
				c-0.1,0.1-0.3,0.3-0.4,0.4l0.7-0.4c0.7-0.4,1.1-1.4,1-2.5l0.5-0.3c0.9-0.5,0.9-2.1,0-3.6C26.3,7.1,24.9,6.3,24.1,6.8z M22.8,7.5
				c-0.1,0-0.1-0.1-0.2-0.1C22.7,7.5,22.7,7.5,22.8,7.5L22.8,7.5z M25.5,14.8C25.5,14.8,25.5,14.8,25.5,14.8
				C25.5,14.8,25.5,14.8,25.5,14.8z"/>
			<path class="st48" d="M25.6,12.9c0,0.1,0,0.2,0,0.3C25.6,13.1,25.6,13,25.6,12.9L25.6,12.9z M25.5,13.8c0-0.2,0.1-0.4,0.1-0.6
				C25.6,13.4,25.6,13.6,25.5,13.8z M23.8,6.8l-0.5,0.3c-1-0.6-1.9-0.8-2.7-0.4l-0.7,0.4l0,0h0h0l0,0c-0.3,0.1-0.5,0.4-0.6,0.6
				l-2.4,1.4l-0.4,0.2v0L16,9.6c-0.3,0-0.6,0.1-0.9,0.2l-0.7,0.4l0,0l0,0h0h0c-0.7,0.4-1.1,1.4-1,2.5l-1,0.6
				c-0.6,0.4-0.1,1.8,1.1,3.1c1,1.1,2.2,1.8,2.9,1.7c1,0.7,2,0.9,2.7,0.4c0.1,0,0.2-0.1,0.2-0.2c-0.1,0.1-0.1,0.1-0.2,0.2l0.7-0.4
				c0.3-0.1,0.5-0.4,0.6-0.6l0.4-0.2l0,0l1.9-1.1l0,0l0.9-0.5c0.3,0,0.6-0.1,0.9-0.2c0.2-0.1,0.3-0.2,0.4-0.4
				c-0.1,0.1-0.3,0.3-0.4,0.4l0.7-0.4c0.7-0.4,1.1-1.4,1-2.5l0.5-0.3c0.9-0.5,0.9-2.1,0-3.6C26,7.1,24.6,6.3,23.8,6.8z M22.5,7.5
				c-0.1,0-0.1-0.1-0.2-0.1C22.4,7.5,22.4,7.5,22.5,7.5L22.5,7.5z M25.2,14.8C25.2,14.8,25.2,14.8,25.2,14.8
				C25.2,14.8,25.2,14.8,25.2,14.8z"/>
			<path class="st49" d="M25.3,12.9c0,0.1,0,0.2,0,0.3C25.3,13.1,25.3,13,25.3,12.9L25.3,12.9z M25.2,13.8c0-0.2,0.1-0.4,0.1-0.6
				C25.3,13.4,25.3,13.6,25.2,13.8z M23.5,6.8l-0.5,0.3c-1-0.6-1.9-0.8-2.7-0.4l-0.7,0.4l0,0h0h0l0,0c-0.3,0.1-0.5,0.4-0.6,0.6
				l-2.4,1.4l-0.4,0.2v0l-0.4,0.2c-0.3,0-0.6,0.1-0.9,0.2l-0.7,0.4l0,0l0,0h0h0c-0.7,0.4-1.1,1.4-1,2.5l-1,0.6
				c-0.6,0.4-0.1,1.8,1.1,3.1c1,1.1,2.2,1.8,2.9,1.7c1,0.7,2,0.9,2.7,0.4c0.1,0,0.2-0.1,0.2-0.2c-0.1,0.1-0.1,0.1-0.2,0.2l0.7-0.4
				c0.3-0.1,0.5-0.4,0.6-0.6l0.4-0.2l0,0l1.9-1.1l0,0l0.9-0.5c0.3,0,0.6-0.1,0.9-0.2c0.2-0.1,0.3-0.2,0.4-0.4
				c-0.1,0.1-0.3,0.3-0.4,0.4L25,15c0.7-0.4,1.1-1.4,1-2.5l0.5-0.3c0.9-0.5,0.9-2.1,0-3.6C25.7,7.1,24.3,6.3,23.5,6.8z M22.2,7.5
				c-0.1,0-0.1-0.1-0.2-0.1C22.1,7.5,22.1,7.5,22.2,7.5L22.2,7.5z M24.9,14.8C24.9,14.8,24.9,14.8,24.9,14.8
				C24.9,14.8,24.9,14.8,24.9,14.8z"/>
			<path class="st50" d="M25,12.9c0,0.1,0,0.2,0,0.3C25,13.1,25,13,25,12.9L25,12.9z M24.9,13.8c0-0.2,0.1-0.4,0.1-0.6
				C25,13.4,25,13.6,24.9,13.8z M23.2,6.8l-0.5,0.3c-1-0.6-1.9-0.8-2.7-0.4l-0.7,0.4l0,0h0h0l0,0c-0.3,0.1-0.5,0.4-0.6,0.6l-2.4,1.4
				l-0.4,0.2v0l-0.4,0.2c-0.3,0-0.6,0.1-0.9,0.2l-0.7,0.4l0,0l0,0h0h0c-0.7,0.4-1.1,1.4-1,2.5l-1,0.6c-0.6,0.4-0.1,1.8,1.1,3.1
				c1,1.1,2.2,1.8,2.9,1.7c1,0.7,2,0.9,2.7,0.4c0.1,0,0.2-0.1,0.2-0.2c-0.1,0.1-0.1,0.1-0.2,0.2l0.7-0.4c0.3-0.1,0.5-0.4,0.6-0.6
				l0.4-0.2l0,0l1.9-1.1l0,0l0.9-0.5c0.3,0,0.6-0.1,0.9-0.2c0.2-0.1,0.3-0.2,0.4-0.4c-0.1,0.1-0.3,0.3-0.4,0.4l0.7-0.4
				c0.7-0.4,1.1-1.4,1-2.5l0.5-0.3c0.9-0.5,0.9-2.1,0-3.6C25.4,7.1,24,6.3,23.2,6.8z M21.9,7.5c-0.1,0-0.1-0.1-0.2-0.1
				C21.8,7.5,21.8,7.5,21.9,7.5L21.9,7.5z M24.6,14.8C24.6,14.8,24.6,14.8,24.6,14.8C24.6,14.8,24.6,14.8,24.6,14.8z"/>
			<path class="st51" d="M24.7,12.9c0,0.1,0,0.2,0,0.3C24.7,13.1,24.7,13,24.7,12.9L24.7,12.9z M24.6,13.8c0-0.2,0.1-0.4,0.1-0.6
				C24.7,13.4,24.7,13.6,24.6,13.8z M22.9,6.8l-0.5,0.3c-1-0.6-1.9-0.8-2.7-0.4l-0.7,0.4l0,0h0h0l0,0c-0.3,0.1-0.5,0.4-0.6,0.6
				l-2.4,1.4l-0.4,0.2v0l-0.4,0.2c-0.3,0-0.6,0.1-0.9,0.2l-0.7,0.4l0,0l0,0h0h0c-0.7,0.4-1.1,1.4-1,2.5l-1,0.6
				c-0.6,0.4-0.1,1.8,1.1,3.1c1,1.1,2.2,1.8,2.9,1.7c1,0.7,2,0.9,2.7,0.4c0.1,0,0.2-0.1,0.2-0.2c-0.1,0.1-0.1,0.1-0.2,0.2l0.7-0.4
				c0.3-0.1,0.5-0.4,0.6-0.6l0.4-0.2l0,0l1.9-1.1l0,0l0.9-0.5c0.3,0,0.6-0.1,0.9-0.2c0.2-0.1,0.3-0.2,0.4-0.4
				c-0.1,0.1-0.3,0.3-0.4,0.4l0.7-0.4c0.7-0.4,1.1-1.4,1-2.5l0.5-0.3c0.9-0.5,0.9-2.1,0-3.6C25.1,7.1,23.7,6.3,22.9,6.8z M21.6,7.5
				c-0.1,0-0.1-0.1-0.2-0.1C21.5,7.5,21.5,7.5,21.6,7.5L21.6,7.5z M24.3,14.8C24.3,14.8,24.3,14.8,24.3,14.8
				C24.3,14.8,24.3,14.8,24.3,14.8z"/>
			<path class="st52" d="M24.4,12.9c0,0.1,0,0.2,0,0.3C24.4,13.1,24.4,13,24.4,12.9L24.4,12.9z M24.3,13.8c0-0.2,0.1-0.4,0.1-0.6
				C24.4,13.4,24.4,13.6,24.3,13.8z M22.6,6.8L22,7.1c-1-0.6-1.9-0.8-2.7-0.4l-0.7,0.4l0,0h0h0l0,0c-0.3,0.1-0.5,0.4-0.6,0.6
				l-2.4,1.4l-0.4,0.2v0l-0.4,0.2c-0.3,0-0.6,0.1-0.9,0.2l-0.7,0.4l0,0l0,0h0h0c-0.7,0.4-1.1,1.4-1,2.5l-1,0.6
				c-0.6,0.4-0.1,1.8,1.1,3.1c1,1.1,2.2,1.8,2.9,1.7c1,0.7,2,0.9,2.7,0.4c0.1,0,0.2-0.1,0.2-0.2c-0.1,0.1-0.1,0.1-0.2,0.2l0.7-0.4
				c0.3-0.1,0.5-0.4,0.6-0.6l0.4-0.2l0,0l1.9-1.1l0,0l0.9-0.5c0.3,0,0.6-0.1,0.9-0.2c0.2-0.1,0.3-0.2,0.4-0.4
				c-0.1,0.1-0.3,0.3-0.4,0.4l0.7-0.4c0.7-0.4,1.1-1.4,1-2.5l0.5-0.3c0.9-0.5,0.9-2.1,0-3.6C24.8,7.1,23.4,6.3,22.6,6.8z M21.3,7.5
				c-0.1,0-0.1-0.1-0.2-0.1C21.2,7.5,21.2,7.5,21.3,7.5L21.3,7.5z M24,14.8C24,14.8,24,14.8,24,14.8C24,14.8,24,14.8,24,14.8z"/>
			<path class="st53" d="M24.1,12.9c0,0.1,0,0.2,0,0.3C24.1,13.1,24.1,13,24.1,12.9L24.1,12.9z M24,13.8c0-0.2,0.1-0.4,0.1-0.6
				C24.1,13.4,24.1,13.6,24,13.8z M22.2,6.8l-0.5,0.3c-1-0.6-1.9-0.8-2.7-0.4l-0.7,0.4l0,0h0h0l0,0c-0.3,0.1-0.5,0.4-0.6,0.6
				l-2.4,1.4l-0.4,0.2v0l-0.4,0.2c-0.3,0-0.6,0.1-0.9,0.2l-0.7,0.4l0,0l0,0h0h0c-0.7,0.4-1.1,1.4-1,2.5l-1,0.6
				c-0.6,0.4-0.1,1.8,1.1,3.1c1,1.1,2.2,1.8,2.9,1.7c1,0.7,2,0.9,2.7,0.4c0.1,0,0.2-0.1,0.2-0.2c-0.1,0.1-0.1,0.1-0.2,0.2l0.7-0.4
				c0.3-0.1,0.5-0.4,0.6-0.6l0.4-0.2l0,0l1.9-1.1l0,0l0.9-0.5c0.3,0,0.6-0.1,0.9-0.2c0.2-0.1,0.3-0.2,0.4-0.4
				c-0.1,0.1-0.3,0.3-0.4,0.4l0.7-0.4c0.7-0.4,1.1-1.4,1-2.5l0.5-0.3c0.9-0.5,0.9-2.1,0-3.6C24.5,7.1,23.1,6.3,22.2,6.8z M21,7.5
				c-0.1,0-0.1-0.1-0.2-0.1C20.9,7.5,20.9,7.5,21,7.5L21,7.5z M23.7,14.8C23.7,14.8,23.7,14.8,23.7,14.8
				C23.7,14.8,23.7,14.8,23.7,14.8z"/>
			<path class="st54" d="M23.8,12.9c0,0.1,0,0.2,0,0.3C23.8,13.1,23.8,13,23.8,12.9L23.8,12.9z M23.7,13.8c0-0.2,0.1-0.4,0.1-0.6
				C23.8,13.4,23.8,13.6,23.7,13.8z M21.9,6.8l-0.5,0.3c-1-0.6-1.9-0.8-2.7-0.4L18,7.1l0,0h0h0l0,0c-0.3,0.1-0.5,0.4-0.6,0.6L15,9.1
				l-0.4,0.2v0l-0.4,0.2c-0.3,0-0.6,0.1-0.9,0.2l-0.7,0.4l0,0l0,0h0h0c-0.7,0.4-1.1,1.4-1,2.5l-1,0.6c-0.6,0.4-0.1,1.8,1.1,3.1
				c1,1.1,2.2,1.8,2.9,1.7c1,0.7,2,0.9,2.7,0.4c0.1,0,0.2-0.1,0.2-0.2c-0.1,0.1-0.1,0.1-0.2,0.2l0.7-0.4c0.3-0.1,0.5-0.4,0.6-0.6
				l0.4-0.2l0,0l1.9-1.1l0,0l0.9-0.5c0.3,0,0.6-0.1,0.9-0.2c0.2-0.1,0.3-0.2,0.4-0.4c-0.1,0.1-0.3,0.3-0.4,0.4l0.7-0.4
				c0.7-0.4,1.1-1.4,1-2.5l0.5-0.3c0.9-0.5,0.9-2.1,0-3.6C24.2,7.1,22.8,6.3,21.9,6.8z M20.7,7.5c-0.1,0-0.1-0.1-0.2-0.1
				C20.6,7.5,20.6,7.5,20.7,7.5L20.7,7.5z M23.4,14.8C23.4,14.8,23.4,14.8,23.4,14.8C23.4,14.8,23.4,14.8,23.4,14.8z"/>
			<path class="st55" d="M23.5,12.9c0,0.1,0,0.2,0,0.3C23.5,13.1,23.5,13,23.5,12.9L23.5,12.9z M23.4,13.8c0-0.2,0.1-0.4,0.1-0.6
				C23.5,13.4,23.5,13.6,23.4,13.8z M21.6,6.8l-0.5,0.3c-1-0.6-1.9-0.8-2.7-0.4l-0.7,0.4l0,0h0h0l0,0c-0.3,0.1-0.5,0.4-0.6,0.6
				l-2.4,1.4l-0.4,0.2v0l-0.4,0.2c-0.3,0-0.6,0.1-0.9,0.2l-0.7,0.4l0,0l0,0h0h0c-0.7,0.4-1.1,1.4-1,2.5l-1,0.6
				c-0.6,0.4-0.1,1.8,1.1,3.1c1,1.1,2.2,1.8,2.9,1.7c1,0.7,2,0.9,2.7,0.4c0.1,0,0.2-0.1,0.2-0.2c-0.1,0.1-0.1,0.1-0.2,0.2l0.7-0.4
				c0.3-0.1,0.5-0.4,0.6-0.6l0.4-0.2l0,0l1.9-1.1l0,0l0.9-0.5c0.3,0,0.6-0.1,0.9-0.2c0.2-0.1,0.3-0.2,0.4-0.4
				c-0.1,0.1-0.3,0.3-0.4,0.4l0.7-0.4c0.7-0.4,1.1-1.4,1-2.5l0.5-0.3c0.9-0.5,0.9-2.1,0-3.6C23.9,7.1,22.5,6.3,21.6,6.8z M20.4,7.5
				c-0.1,0-0.1-0.1-0.2-0.1C20.3,7.5,20.3,7.5,20.4,7.5L20.4,7.5z M23.1,14.8C23.1,14.8,23.1,14.8,23.1,14.8
				C23.1,14.8,23.1,14.8,23.1,14.8z"/>
			<path class="st56" d="M23.2,12.9c0,0.1,0,0.2,0,0.3C23.2,13.1,23.2,13,23.2,12.9L23.2,12.9z M23.1,13.8c0-0.2,0.1-0.4,0.1-0.6
				C23.2,13.4,23.2,13.6,23.1,13.8z M21.3,6.8l-0.5,0.3c-1-0.6-1.9-0.8-2.7-0.4l-0.7,0.4l0,0h0h0l0,0c-0.3,0.1-0.5,0.4-0.6,0.6
				l-2.4,1.4l-0.4,0.2v0l-0.4,0.2c-0.3,0-0.6,0.1-0.9,0.2L12,10.2l0,0l0,0h0h0c-0.7,0.4-1.1,1.4-1,2.5l-1,0.6
				c-0.6,0.4-0.1,1.8,1.1,3.1c1,1.1,2.2,1.8,2.9,1.7c1,0.7,2,0.9,2.7,0.4c0.1,0,0.2-0.1,0.2-0.2c-0.1,0.1-0.1,0.1-0.2,0.2l0.7-0.4
				c0.3-0.1,0.5-0.4,0.6-0.6l0.4-0.2l0,0l1.9-1.1l0,0l0.9-0.5c0.3,0,0.6-0.1,0.9-0.2c0.2-0.1,0.3-0.2,0.4-0.4
				c-0.1,0.1-0.3,0.3-0.4,0.4l0.7-0.4c0.7-0.4,1.1-1.4,1-2.5l0.5-0.3c0.9-0.5,0.9-2.1,0-3.6C23.6,7.1,22.2,6.3,21.3,6.8z M20.1,7.5
				c-0.1,0-0.1-0.1-0.2-0.1C20,7.5,20,7.5,20.1,7.5L20.1,7.5z M22.8,14.8C22.8,14.8,22.8,14.8,22.8,14.8
				C22.8,14.8,22.8,14.8,22.8,14.8z"/>
			<path class="st57" d="M22.9,12.9c0,0.1,0,0.2,0,0.3C22.9,13.1,22.9,13,22.9,12.9L22.9,12.9z M22.8,13.8c0-0.2,0.1-0.4,0.1-0.6
				C22.9,13.4,22.9,13.6,22.8,13.8z M21,6.8l-0.5,0.3c-1-0.6-1.9-0.8-2.7-0.4l-0.7,0.4l0,0h0h0l0,0c-0.3,0.1-0.5,0.4-0.6,0.6L14,9.1
				l-0.4,0.2v0l-0.4,0.2c-0.3,0-0.6,0.1-0.9,0.2l-0.7,0.4l0,0l0,0h0h0c-0.7,0.4-1.1,1.4-1,2.5l-1,0.6c-0.6,0.4-0.1,1.8,1.1,3.1
				c1,1.1,2.2,1.8,2.9,1.7c1,0.7,2,0.9,2.7,0.4c0.1,0,0.2-0.1,0.2-0.2c-0.1,0.1-0.1,0.1-0.2,0.2l0.7-0.4c0.3-0.1,0.5-0.4,0.6-0.6
				l0.4-0.2l0,0l1.9-1.1l0,0l0.9-0.5c0.3,0,0.6-0.1,0.9-0.2c0.2-0.1,0.3-0.2,0.4-0.4c-0.1,0.1-0.3,0.3-0.4,0.4l0.7-0.4
				c0.7-0.4,1.1-1.4,1-2.5l0.5-0.3c0.9-0.5,0.9-2.1,0-3.6C23.3,7.1,21.9,6.3,21,6.8z M19.8,7.5c-0.1,0-0.1-0.1-0.2-0.1
				C19.7,7.5,19.7,7.5,19.8,7.5L19.8,7.5z M22.5,14.8C22.5,14.8,22.5,14.8,22.5,14.8C22.5,14.8,22.5,14.8,22.5,14.8z"/>
			<path class="st58" d="M22.6,12.9c0,0.1,0,0.2,0,0.3C22.6,13.1,22.6,13,22.6,12.9L22.6,12.9z M22.5,13.8c0-0.2,0.1-0.4,0.1-0.6
				C22.6,13.4,22.5,13.6,22.5,13.8z M20.7,6.8l-0.5,0.3c-1-0.6-1.9-0.8-2.7-0.4l-0.7,0.4l0,0h0h0l0,0c-0.3,0.1-0.5,0.4-0.6,0.6
				l-2.4,1.4l-0.4,0.2v0L13,9.6c-0.3,0-0.6,0.1-0.9,0.2l-0.7,0.4l0,0l0,0h0h0c-0.7,0.4-1.1,1.4-1,2.5l-1,0.6
				c-0.6,0.4-0.1,1.8,1.1,3.1c1,1.1,2.2,1.8,2.9,1.7c1,0.7,2,0.9,2.7,0.4c0.1,0,0.2-0.1,0.2-0.2c-0.1,0.1-0.1,0.1-0.2,0.2l0.7-0.4
				c0.3-0.1,0.5-0.4,0.6-0.6l0.4-0.2l0,0l1.9-1.1l0,0l0.9-0.5c0.3,0,0.6-0.1,0.9-0.2c0.2-0.1,0.3-0.2,0.4-0.4
				c-0.1,0.1-0.3,0.3-0.4,0.4l0.7-0.4c0.7-0.4,1.1-1.4,1-2.5l0.5-0.3c0.9-0.5,0.9-2.1,0-3.6C23,7.1,21.6,6.3,20.7,6.8z M19.5,7.5
				c-0.1,0-0.1-0.1-0.2-0.1C19.4,7.5,19.4,7.5,19.5,7.5L19.5,7.5z M22.2,14.8C22.2,14.8,22.2,14.8,22.2,14.8
				C22.2,14.8,22.2,14.8,22.2,14.8z"/>
			<path class="st59" d="M22.3,12.9c0,0.1,0,0.2,0,0.3C22.3,13.1,22.3,13,22.3,12.9L22.3,12.9z M22.2,13.8c0-0.2,0.1-0.4,0.1-0.6
				C22.3,13.4,22.2,13.6,22.2,13.8z M20.4,6.8l-0.5,0.3c-1-0.6-1.9-0.8-2.7-0.4l-0.7,0.4l0,0h0h0l0,0c-0.3,0.1-0.5,0.4-0.6,0.6
				l-2.4,1.4L13,9.4v0l-0.4,0.2c-0.3,0-0.6,0.1-0.9,0.2l-0.7,0.4l0,0l0,0h0h0c-0.7,0.4-1.1,1.4-1,2.5l-1,0.6
				c-0.6,0.4-0.1,1.8,1.1,3.1c1,1.1,2.2,1.8,2.9,1.7c1,0.7,2,0.9,2.7,0.4c0.1,0,0.2-0.1,0.2-0.2c-0.1,0.1-0.1,0.1-0.2,0.2l0.7-0.4
				c0.3-0.1,0.5-0.4,0.6-0.6l0.4-0.2l0,0l1.9-1.1l0,0l0.9-0.5c0.3,0,0.6-0.1,0.9-0.2c0.2-0.1,0.3-0.2,0.4-0.4
				c-0.1,0.1-0.3,0.3-0.4,0.4L22,15c0.7-0.4,1.1-1.4,1-2.5l0.5-0.3c0.9-0.5,0.9-2.1,0-3.6C22.7,7.1,21.3,6.3,20.4,6.8z M19.2,7.5
				c-0.1,0-0.1-0.1-0.2-0.1C19.1,7.5,19.1,7.5,19.2,7.5L19.2,7.5z M21.9,14.8C21.9,14.8,21.9,14.8,21.9,14.8
				C21.9,14.8,21.9,14.8,21.9,14.8z"/>
			<path class="st60" d="M22,12.9c0,0.1,0,0.2,0,0.3C22,13.1,22,13,22,12.9L22,12.9z M21.9,13.8c0-0.2,0.1-0.4,0.1-0.6
				C22,13.4,21.9,13.6,21.9,13.8z M20.1,6.8l-0.5,0.3c-1-0.6-1.9-0.8-2.7-0.4l-0.7,0.4l0,0h0h0l0,0c-0.3,0.1-0.5,0.4-0.6,0.6
				l-2.4,1.4l-0.4,0.2v0l-0.4,0.2c-0.3,0-0.6,0.1-0.9,0.2l-0.7,0.4l0,0l0,0h0h0c-0.7,0.4-1.1,1.4-1,2.5l-1,0.6
				c-0.6,0.4-0.1,1.8,1.1,3.1c1,1.1,2.2,1.8,2.9,1.7c1,0.7,2,0.9,2.7,0.4c0.1,0,0.2-0.1,0.2-0.2c-0.1,0.1-0.1,0.1-0.2,0.2l0.7-0.4
				c0.3-0.1,0.5-0.4,0.6-0.6l0.4-0.2l0,0l1.9-1.1l0,0l0.9-0.5c0.3,0,0.6-0.1,0.9-0.2c0.2-0.1,0.3-0.2,0.4-0.4
				c-0.1,0.1-0.3,0.3-0.4,0.4l0.7-0.4c0.7-0.4,1.1-1.4,1-2.5l0.5-0.3c0.9-0.5,0.9-2.1,0-3.6C22.4,7.1,21,6.3,20.1,6.8z M18.9,7.5
				c-0.1,0-0.1-0.1-0.2-0.1C18.7,7.5,18.8,7.5,18.9,7.5L18.9,7.5z M21.6,14.8C21.6,14.8,21.6,14.8,21.6,14.8
				C21.6,14.8,21.6,14.8,21.6,14.8z"/>
			<path class="st61" d="M21.6,12.9c0,0.1,0,0.2,0,0.3C21.7,13.1,21.7,13,21.6,12.9L21.6,12.9z M21.6,13.8c0-0.2,0.1-0.4,0.1-0.6
				C21.7,13.4,21.6,13.6,21.6,13.8z M19.8,6.8l-0.5,0.3c-1-0.6-1.9-0.8-2.7-0.4l-0.7,0.4l0,0h0h0l0,0c-0.3,0.1-0.5,0.4-0.6,0.6
				l-2.4,1.4l-0.4,0.2v0l-0.4,0.2c-0.3,0-0.6,0.1-0.9,0.2l-0.7,0.4l0,0l0,0h0h0c-0.7,0.4-1.1,1.4-1,2.5l-1,0.6
				c-0.6,0.4-0.1,1.8,1.1,3.1c1,1.1,2.2,1.8,2.9,1.7c1,0.7,2,0.9,2.7,0.4c0.1,0,0.2-0.1,0.2-0.2c-0.1,0.1-0.1,0.1-0.2,0.2l0.7-0.4
				c0.3-0.1,0.5-0.4,0.6-0.6l0.4-0.2l0,0l1.9-1.1l0,0l0.9-0.5c0.3,0,0.6-0.1,0.9-0.2c0.2-0.1,0.3-0.2,0.4-0.4
				c-0.1,0.1-0.3,0.3-0.4,0.4l0.7-0.4c0.7-0.4,1.1-1.4,1-2.5l0.5-0.3c0.9-0.5,0.9-2.1,0-3.6C22.1,7.1,20.7,6.3,19.8,6.8z M18.5,7.5
				c-0.1,0-0.1-0.1-0.2-0.1C18.4,7.5,18.5,7.5,18.5,7.5L18.5,7.5z M21.3,14.8C21.3,14.8,21.3,14.8,21.3,14.8
				C21.3,14.8,21.3,14.8,21.3,14.8z"/>
			<path class="st62" d="M21.3,12.9c0,0.1,0,0.2,0,0.3C21.4,13.1,21.4,13,21.3,12.9L21.3,12.9z M21.3,13.8c0-0.2,0.1-0.4,0.1-0.6
				C21.4,13.4,21.3,13.6,21.3,13.8z M19.5,6.8L19,7.1c-1-0.6-1.9-0.8-2.7-0.4l-0.7,0.4l0,0h0h0l0,0c-0.3,0.1-0.5,0.4-0.6,0.6
				l-2.4,1.4l-0.4,0.2v0l-0.4,0.2c-0.3,0-0.6,0.1-0.9,0.2l-0.7,0.4l0,0l0,0h0h0c-0.7,0.4-1.1,1.4-1,2.5l-1,0.6
				c-0.6,0.4-0.1,1.8,1.1,3.1c1,1.1,2.2,1.8,2.9,1.7c1,0.7,2,0.9,2.7,0.4c0.1,0,0.2-0.1,0.2-0.2c-0.1,0.1-0.1,0.1-0.2,0.2l0.7-0.4
				c0.3-0.1,0.5-0.4,0.6-0.6l0.4-0.2l0,0l1.9-1.1l0,0l0.9-0.5c0.3,0,0.6-0.1,0.9-0.2c0.2-0.1,0.3-0.2,0.4-0.4
				c-0.1,0.1-0.3,0.3-0.4,0.4l0.7-0.4c0.7-0.4,1.1-1.4,1-2.5l0.5-0.3c0.9-0.5,0.9-2.1,0-3.6C21.8,7.1,20.4,6.3,19.5,6.8z M18.2,7.5
				c-0.1,0-0.1-0.1-0.2-0.1C18.1,7.5,18.2,7.5,18.2,7.5L18.2,7.5z M21,14.8C21,14.8,21,14.8,21,14.8C21,14.8,21,14.8,21,14.8z"/>
			<path class="st63" d="M21,12.9c0,0.1,0,0.2,0,0.3C21.1,13.1,21.1,13,21,12.9L21,12.9z M21,13.8c0-0.2,0.1-0.4,0.1-0.6
				C21.1,13.4,21,13.6,21,13.8z M19.2,6.8l-0.5,0.3c-1-0.6-1.9-0.8-2.7-0.4l-0.7,0.4l0,0h0h0l0,0c-0.3,0.1-0.5,0.4-0.6,0.6l-2.4,1.4
				l-0.4,0.2v0l-0.4,0.2c-0.3,0-0.6,0.1-0.9,0.2l-0.7,0.4l0,0l0,0h0h0c-0.7,0.4-1.1,1.4-1,2.5l-1,0.6c-0.6,0.4-0.1,1.8,1.1,3.1
				c1,1.1,2.2,1.8,2.9,1.7c1,0.7,2,0.9,2.7,0.4c0.1,0,0.2-0.1,0.2-0.2c-0.1,0.1-0.1,0.1-0.2,0.2l0.7-0.4c0.3-0.1,0.5-0.4,0.6-0.6
				l0.4-0.2l0,0l1.9-1.1l0,0l0.9-0.5c0.3,0,0.6-0.1,0.9-0.2c0.2-0.1,0.3-0.2,0.4-0.4c-0.1,0.1-0.3,0.3-0.4,0.4l0.7-0.4
				c0.7-0.4,1.1-1.4,1-2.5l0.5-0.3c0.9-0.5,0.9-2.1,0-3.6C21.5,7.1,20.1,6.3,19.2,6.8z M17.9,7.5c-0.1,0-0.1-0.1-0.2-0.1
				C17.8,7.5,17.9,7.5,17.9,7.5L17.9,7.5z M20.7,14.8C20.7,14.8,20.7,14.8,20.7,14.8C20.7,14.8,20.7,14.8,20.7,14.8z"/>
			<path class="st64" d="M20.7,12.9c0,0.1,0,0.2,0,0.3C20.8,13.1,20.7,13,20.7,12.9L20.7,12.9z M20.7,13.8c0-0.2,0.1-0.4,0.1-0.6
				C20.8,13.4,20.7,13.6,20.7,13.8z M18.9,6.8l-0.5,0.3c-1-0.6-1.9-0.8-2.7-0.4L15,7.1l0,0h0h0l0,0c-0.3,0.1-0.5,0.4-0.6,0.6
				l-2.4,1.4l-0.4,0.2v0l-0.4,0.2c-0.3,0-0.6,0.1-0.9,0.2l-0.7,0.4l0,0l0,0h0h0c-0.7,0.4-1.1,1.4-1,2.5l-1,0.6
				c-0.6,0.4-0.1,1.8,1.1,3.1c1,1.1,2.2,1.8,2.9,1.7c1,0.7,2,0.9,2.7,0.4c0.1,0,0.2-0.1,0.2-0.2c-0.1,0.1-0.1,0.1-0.2,0.2l0.7-0.4
				c0.3-0.1,0.5-0.4,0.6-0.6l0.4-0.2l0,0l1.9-1.1l0,0l0.9-0.5c0.3,0,0.6-0.1,0.9-0.2c0.2-0.1,0.3-0.2,0.4-0.4
				c-0.1,0.1-0.3,0.3-0.4,0.4l0.7-0.4c0.7-0.4,1.1-1.4,1-2.5l0.5-0.3c0.9-0.5,0.9-2.1,0-3.6C21.2,7.1,19.8,6.3,18.9,6.8z M17.6,7.5
				c-0.1,0-0.1-0.1-0.2-0.1C17.5,7.5,17.6,7.5,17.6,7.5L17.6,7.5z M20.4,14.8C20.4,14.8,20.4,14.8,20.4,14.8
				C20.4,14.8,20.4,14.8,20.4,14.8z"/>
			<path class="st65" d="M20.4,12.9c0,0.1,0,0.2,0,0.3C20.5,13.1,20.4,13,20.4,12.9L20.4,12.9z M20.4,13.8c0-0.2,0.1-0.4,0.1-0.6
				C20.5,13.4,20.4,13.6,20.4,13.8z M18.6,6.8l-0.5,0.3c-1-0.6-1.9-0.8-2.7-0.4l-0.7,0.4l0,0h0h0l0,0c-0.3,0.1-0.5,0.4-0.6,0.6
				l-2.4,1.4l-0.4,0.2v0l-0.4,0.2c-0.3,0-0.6,0.1-0.9,0.2l-0.7,0.4l0,0l0,0h0h0c-0.7,0.4-1.1,1.4-1,2.5l-1,0.6
				c-0.6,0.4-0.1,1.8,1.1,3.1c1,1.1,2.2,1.8,2.9,1.7c1,0.7,2,0.9,2.7,0.4c0.1,0,0.2-0.1,0.2-0.2c-0.1,0.1-0.1,0.1-0.2,0.2l0.7-0.4
				c0.3-0.1,0.5-0.4,0.6-0.6l0.4-0.2l0,0l1.9-1.1l0,0l0.9-0.5c0.3,0,0.6-0.1,0.9-0.2c0.2-0.1,0.3-0.2,0.4-0.4
				c-0.1,0.1-0.3,0.3-0.4,0.4l0.7-0.4c0.7-0.4,1.1-1.4,1-2.5l0.5-0.3c0.9-0.5,0.9-2.1,0-3.6C20.9,7.1,19.5,6.3,18.6,6.8z M17.3,7.5
				c-0.1,0-0.1-0.1-0.2-0.1C17.2,7.5,17.3,7.5,17.3,7.5L17.3,7.5z M20.1,14.8C20.1,14.8,20.1,14.8,20.1,14.8
				C20.1,14.8,20.1,14.8,20.1,14.8z"/>
			<path class="st66" d="M20.1,12.9c0,0.1,0,0.2,0,0.3C20.1,13.1,20.1,13,20.1,12.9L20.1,12.9z M20.1,13.8c0-0.2,0.1-0.4,0.1-0.6
				C20.1,13.4,20.1,13.6,20.1,13.8z M18.3,6.8l-0.5,0.3c-1-0.6-1.9-0.8-2.7-0.4l-0.7,0.4l0,0h0h0l0,0c-0.3,0.1-0.5,0.4-0.6,0.6
				l-2.4,1.4l-0.4,0.2v0l-0.4,0.2c-0.3,0-0.6,0.1-0.9,0.2l-0.7,0.4l0,0l0,0h0h0c-0.7,0.4-1.1,1.4-1,2.5l-1,0.6
				c-0.6,0.4-0.1,1.8,1.1,3.1c1,1.1,2.2,1.8,2.9,1.7c1,0.7,2,0.9,2.7,0.4c0.1,0,0.2-0.1,0.2-0.2c-0.1,0.1-0.1,0.1-0.2,0.2l0.7-0.4
				c0.3-0.1,0.5-0.4,0.6-0.6l0.4-0.2l0,0l1.9-1.1l0,0l0.9-0.5c0.3,0,0.6-0.1,0.9-0.2c0.2-0.1,0.3-0.2,0.4-0.4
				c-0.1,0.1-0.3,0.3-0.4,0.4l0.7-0.4c0.7-0.4,1.1-1.4,1-2.5l0.5-0.3c0.9-0.5,0.9-2.1,0-3.6C20.6,7.1,19.2,6.3,18.3,6.8z M17,7.5
				c-0.1,0-0.1-0.1-0.2-0.1C16.9,7.5,17,7.5,17,7.5L17,7.5z M19.8,14.8C19.8,14.8,19.8,14.8,19.8,14.8
				C19.8,14.8,19.8,14.8,19.8,14.8z"/>
			<path class="st67" d="M19.8,12.9c0,0.1,0,0.2,0,0.3C19.8,13.1,19.8,13,19.8,12.9L19.8,12.9z M19.8,13.8c0-0.2,0.1-0.4,0.1-0.6
				C19.8,13.4,19.8,13.6,19.8,13.8z M18,6.8l-0.5,0.3c-1-0.6-1.9-0.8-2.7-0.4l-0.7,0.4l0,0h0h0l0,0c-0.3,0.1-0.5,0.4-0.6,0.6L11,9.1
				l-0.4,0.2v0l-0.4,0.2c-0.3,0-0.6,0.1-0.9,0.2l-0.7,0.4l0,0l0,0h0h0c-0.7,0.4-1.1,1.4-1,2.5l-1,0.6c-0.6,0.4-0.1,1.8,1.1,3.1
				c1,1.1,2.2,1.8,2.9,1.7c1,0.7,2,0.9,2.7,0.4c0.1,0,0.2-0.1,0.2-0.2c-0.1,0.1-0.1,0.1-0.2,0.2l0.7-0.4c0.3-0.1,0.5-0.4,0.6-0.6
				l0.4-0.2l0,0l1.9-1.1l0,0l0.9-0.5c0.3,0,0.6-0.1,0.9-0.2c0.2-0.1,0.3-0.2,0.4-0.4c-0.1,0.1-0.3,0.3-0.4,0.4l0.7-0.4
				c0.7-0.4,1.1-1.4,1-2.5l0.5-0.3c0.9-0.5,0.9-2.1,0-3.6C20.3,7.1,18.9,6.3,18,6.8z M16.7,7.5c-0.1,0-0.1-0.1-0.2-0.1
				C16.6,7.5,16.7,7.5,16.7,7.5L16.7,7.5z M19.4,14.8C19.5,14.8,19.5,14.8,19.4,14.8C19.5,14.8,19.5,14.8,19.4,14.8z"/>
			<path class="st68" d="M19.5,12.9c0,0.1,0,0.2,0,0.3C19.5,13.1,19.5,13,19.5,12.9L19.5,12.9z M19.5,13.8c0-0.2,0.1-0.4,0.1-0.6
				C19.5,13.4,19.5,13.6,19.5,13.8z M17.7,6.8l-0.5,0.3c-1-0.6-1.9-0.8-2.7-0.4l-0.7,0.4l0,0h0h0l0,0c-0.3,0.1-0.5,0.4-0.6,0.6
				l-2.4,1.4l-0.4,0.2v0L9.9,9.6c-0.3,0-0.6,0.1-0.9,0.2l-0.7,0.4l0,0l0,0h0h0c-0.7,0.4-1.1,1.4-1,2.5l-1,0.6
				c-0.6,0.4-0.1,1.8,1.1,3.1c1,1.1,2.2,1.8,2.9,1.7c1,0.7,2,0.9,2.7,0.4c0.1,0,0.2-0.1,0.2-0.2c-0.1,0.1-0.1,0.1-0.2,0.2l0.7-0.4
				c0.3-0.1,0.5-0.4,0.6-0.6l0.4-0.2l0,0l1.9-1.1l0,0l0.9-0.5c0.3,0,0.6-0.1,0.9-0.2c0.2-0.1,0.3-0.2,0.4-0.4
				c-0.1,0.1-0.3,0.3-0.4,0.4l0.7-0.4c0.7-0.4,1.1-1.4,1-2.5l0.5-0.3c0.9-0.5,0.9-2.1,0-3.6C20,7.1,18.6,6.3,17.7,6.8z M16.4,7.5
				c-0.1,0-0.1-0.1-0.2-0.1C16.3,7.5,16.4,7.5,16.4,7.5L16.4,7.5z M19.1,14.8C19.2,14.8,19.2,14.8,19.1,14.8
				C19.2,14.8,19.2,14.8,19.1,14.8z"/>
			<path class="st69" d="M19.2,12.9c0,0.1,0,0.2,0,0.3C19.2,13.1,19.2,13,19.2,12.9L19.2,12.9z M19.2,13.8c0-0.2,0.1-0.4,0.1-0.6
				C19.2,13.4,19.2,13.6,19.2,13.8z M17.4,6.8l-0.5,0.3c-1-0.6-1.9-0.8-2.7-0.4l-0.7,0.4v0h0l0,0l0,0c-0.3,0.1-0.5,0.4-0.6,0.6
				l-2.4,1.4L10,9.4v0L9.6,9.6C9.3,9.6,9,9.7,8.8,9.8L8,10.2l0,0l0,0h0h0c-0.7,0.4-1.1,1.4-1,2.5l-1,0.6c-0.6,0.4-0.1,1.8,1.1,3.1
				c1,1.1,2.2,1.8,2.9,1.7c1,0.7,2,0.9,2.7,0.4c0.1,0,0.2-0.1,0.2-0.2c-0.1,0.1-0.1,0.1-0.2,0.2l0.7-0.4c0.3-0.1,0.5-0.4,0.6-0.6
				l0.4-0.2v0l1.9-1.1l0,0l0.9-0.5c0.3,0,0.6-0.1,0.9-0.2c0.2-0.1,0.3-0.2,0.4-0.4c-0.1,0.1-0.3,0.3-0.4,0.4L19,15
				c0.7-0.4,1.1-1.4,1-2.5l0.5-0.3c0.9-0.5,0.9-2.1,0-3.6C19.7,7.1,18.3,6.3,17.4,6.8z M16.1,7.5c-0.1,0-0.1-0.1-0.2-0.1
				C16,7.5,16.1,7.5,16.1,7.5L16.1,7.5z M18.8,14.8C18.8,14.8,18.9,14.8,18.8,14.8C18.9,14.8,18.8,14.8,18.8,14.8z"/>
		</g>
	</g>
	<g>
		<g>
			<g>
				
					<linearGradient id="SVGID_4_" gradientUnits="userSpaceOnUse" x1="-3118.3333" y1="5231.9419" x2="-3112.1355" y2="5231.9419" gradientTransform="matrix(0.5 0.866 0.866 -0.5 -2955.8911 5324.1548)">
					<stop  offset="0" style="stop-color:#383838"/>
					<stop  offset="9.571359e-02" style="stop-color:#3D3B3C"/>
					<stop  offset="0.3006" style="stop-color:#403D3E"/>
					<stop  offset="0.3969" style="stop-color:#333031"/>
					<stop  offset="0.6347" style="stop-color:#171616"/>
					<stop  offset="0.8436" style="stop-color:#060606"/>
					<stop  offset="1" style="stop-color:#000000"/>
				</linearGradient>
				<path class="st70" d="M15.7,11.3c-0.9-1.5-2.2-2.3-3.1-1.8l4.8-2.8c0.9-0.5,2.2,0.3,3.1,1.8c0.9,1.5,0.9,3.1,0,3.6l-4.8,2.8
					C16.6,14.4,16.6,12.8,15.7,11.3z"/>
				<path class="st71" d="M15.7,11.3c-0.9-1.5-2.2-2.3-3.1-1.8c-0.9,0.5-0.9,2.1,0,3.6c0.9,1.5,2.2,2.3,3.1,1.8
					C16.6,14.4,16.6,12.8,15.7,11.3z"/>
			</g>
		</g>
		<g>
			<g>
				
					<linearGradient id="SVGID_5_" gradientUnits="userSpaceOnUse" x1="-3120.0188" y1="5232.0317" x2="-3110.45" y2="5232.0317" gradientTransform="matrix(0.5 0.866 0.866 -0.5 -2955.8911 5324.1548)">
					<stop  offset="0" style="stop-color:#494949"/>
					<stop  offset="0.1124" style="stop-color:#504D4E"/>
					<stop  offset="0.3006" style="stop-color:#534F50"/>
					<stop  offset="0.4883" style="stop-color:#333031"/>
					<stop  offset="0.69" style="stop-color:#171616"/>
					<stop  offset="0.8673" style="stop-color:#060606"/>
					<stop  offset="1" style="stop-color:#000000"/>
				</linearGradient>
				<path class="st72" d="M18.3,9.9c-1.3-2.3-3.5-3.5-4.8-2.8l0.7-0.4c1.3-0.8,3.5,0.5,4.8,2.8c1.3,2.3,1.3,4.8,0,5.5l-0.7,0.4
					C19.6,14.6,19.6,12.2,18.3,9.9z"/>
				<path class="st71" d="M18.3,9.9c-1.3-2.3-3.5-3.5-4.8-2.8s-1.3,3.2,0,5.5c1.3,2.3,3.5,3.5,4.8,2.8C19.6,14.6,19.6,12.2,18.3,9.9
					z"/>
			</g>
		</g>
		<g>
			<g>
				
					<linearGradient id="SVGID_6_" gradientUnits="userSpaceOnUse" x1="-3119.7839" y1="5228.334" x2="-3110.6848" y2="5228.334" gradientTransform="matrix(0.5 0.866 0.866 -0.5 -2955.8911 5324.1548)">
					<stop  offset="0" style="stop-color:#383838"/>
					<stop  offset="9.571359e-02" style="stop-color:#3D3B3C"/>
					<stop  offset="0.3006" style="stop-color:#403D3E"/>
					<stop  offset="0.3969" style="stop-color:#333031"/>
					<stop  offset="0.6347" style="stop-color:#171616"/>
					<stop  offset="0.8436" style="stop-color:#060606"/>
					<stop  offset="1" style="stop-color:#000000"/>
				</linearGradient>
				<path class="st73" d="M12.6,13.1c-1.3-2.2-3.3-3.4-4.5-2.6l5.5-3.2c1.3-0.7,3.3,0.5,4.5,2.6s1.3,4.5,0,5.3l-5.5,3.2
					C13.9,17.6,13.9,15.3,12.6,13.1z"/>
				
					<linearGradient id="SVGID_7_" gradientUnits="userSpaceOnUse" x1="-3119.7839" y1="5228.5151" x2="-3110.6848" y2="5228.5151" gradientTransform="matrix(0.5 0.866 0.866 -0.5 -2955.8911 5324.1548)">
					<stop  offset="0" style="stop-color:#FFD100"/>
					<stop  offset="5.543414e-02" style="stop-color:#FFD300"/>
					<stop  offset="0.3006" style="stop-color:#FFD600"/>
					<stop  offset="0.3784" style="stop-color:#F9CC00"/>
					<stop  offset="0.6234" style="stop-color:#EAB000"/>
					<stop  offset="0.8388" style="stop-color:#E19F00"/>
					<stop  offset="1" style="stop-color:#DE9900"/>
				</linearGradient>
				<path class="st74" d="M14.6,12c-1.3-2.2-3.3-3.4-4.5-2.6l1.9-1.1c1.3-0.7,3.3,0.5,4.5,2.6c1.3,2.2,1.3,4.5,0,5.3l-1.9,1.1
					C15.8,16.5,15.8,14.2,14.6,12z"/>
				<path class="st71" d="M12.6,13.1c-1.3-2.2-3.3-3.4-4.5-2.6s-1.3,3.1,0,5.3s3.3,3.4,4.5,2.6C13.9,17.6,13.9,15.3,12.6,13.1z"/>
			</g>
		</g>
		<g>
			<g>
				
					<linearGradient id="SVGID_8_" gradientUnits="userSpaceOnUse" x1="-3120.0188" y1="5225.752" x2="-3110.4502" y2="5225.752" gradientTransform="matrix(0.5 0.866 0.866 -0.5 -2955.8911 5324.1548)">
					<stop  offset="0" style="stop-color:#494949"/>
					<stop  offset="0.1124" style="stop-color:#504D4E"/>
					<stop  offset="0.3006" style="stop-color:#534F50"/>
					<stop  offset="0.4883" style="stop-color:#333031"/>
					<stop  offset="0.69" style="stop-color:#171616"/>
					<stop  offset="0.8673" style="stop-color:#060606"/>
					<stop  offset="1" style="stop-color:#000000"/>
				</linearGradient>
				<path class="st75" d="M12.8,13c-1.3-2.3-3.5-3.5-4.8-2.8l0.7-0.4c1.3-0.8,3.5,0.5,4.8,2.8c1.3,2.3,1.3,4.8,0,5.5l-0.7,0.4
					C14.1,17.8,14.1,15.3,12.8,13z"/>
				<path class="st71" d="M12.8,13c-1.3-2.3-3.5-3.5-4.8-2.8c-1.3,0.8-1.3,3.2,0,5.5c1.3,2.3,3.5,3.5,4.8,2.8
					C14.1,17.8,14.1,15.3,12.8,13z"/>
			</g>
		</g>
		<g>
			<g>
				
					<linearGradient id="SVGID_9_" gradientUnits="userSpaceOnUse" x1="-3118.3333" y1="5223.1128" x2="-3112.1355" y2="5223.1128" gradientTransform="matrix(0.5 0.866 0.866 -0.5 -2955.8911 5324.1548)">
					<stop  offset="0" style="stop-color:#383838"/>
					<stop  offset="9.571359e-02" style="stop-color:#3D3B3C"/>
					<stop  offset="0.3006" style="stop-color:#403D3E"/>
					<stop  offset="0.3969" style="stop-color:#333031"/>
					<stop  offset="0.6347" style="stop-color:#171616"/>
					<stop  offset="0.8436" style="stop-color:#060606"/>
					<stop  offset="1" style="stop-color:#000000"/>
				</linearGradient>
				<path class="st76" d="M8.7,15.8c-0.9-1.5-1.8-3-2.7-2.5l2.7-1.6c0.9-0.5,2.2,0.3,3.1,1.8c0.9,1.5,0.9,3.1,0,3.6L10.4,18
					C8.4,17,9.5,17.3,8.7,15.8z"/>
				<path class="st71" d="M9.3,14.9c-1.2-1.3-2.7-1.9-3.3-1.5c-0.6,0.4-0.1,1.8,1.1,3.1c1.2,1.3,2.7,2,3.2,1.5
					C11,17.6,10.5,16.2,9.3,14.9z"/>
				
					<linearGradient id="SVGID_10_" gradientUnits="userSpaceOnUse" x1="-127.1793" y1="49.3759" x2="-124.514" y2="53.9924" gradientTransform="matrix(1 0 0 1 134.0643 -36.0193)">
					<stop  offset="0" style="stop-color:#000000"/>
					<stop  offset="0.1564" style="stop-color:#060606"/>
					<stop  offset="0.3653" style="stop-color:#171616"/>
					<stop  offset="0.6031" style="stop-color:#333031"/>
					<stop  offset="0.6994" style="stop-color:#403D3E"/>
					<stop  offset="0.9043" style="stop-color:#3D3B3C"/>
					<stop  offset="1" style="stop-color:#383838"/>
				</linearGradient>
				<path class="st77" d="M9.1,15c-1-1.1-2.3-1.7-2.8-1.3c-0.5,0.4-0.1,1.5,1,2.6c1,1.1,2.3,1.7,2.8,1.3C10.6,17.3,10.2,16.1,9.1,15
					z"/>
			</g>
		</g>
	</g>
</g>
</svg>
