<?xml version="1.0" encoding="utf-8"?>
<!-- Generator: Adobe Illustrator 24.2.1, SVG Export Plug-In . SVG Version: 6.00 Build 0)  -->
<svg version="1.1" id="Layer_3" xmlns="http://www.w3.org/2000/svg" xmlns:xlink="http://www.w3.org/1999/xlink" x="0px" y="0px"
	 viewBox="0 0 28.3 28.3" style="enable-background:new 0 0 28.3 28.3;" xml:space="preserve">
<style type="text/css">
	.st0{opacity:0;fill:#FFFFFF;}
	.st1{opacity:3.030303e-02;fill:#FCFCFC;}
	.st2{opacity:6.060606e-02;fill:#F9F9F9;}
	.st3{opacity:9.090909e-02;fill:#F5F5F5;}
	.st4{opacity:0.1212;fill:#F2F2F2;}
	.st5{opacity:0.1515;fill:#EFEFEF;}
	.st6{opacity:0.1818;fill:#ECECEC;}
	.st7{opacity:0.2121;fill:#E8E8E8;}
	.st8{opacity:0.2424;fill:#E5E5E5;}
	.st9{opacity:0.2727;fill:#E2E2E2;}
	.st10{opacity:0.303;fill:#DFDFDF;}
	.st11{opacity:0.3333;fill:#DBDBDB;}
	.st12{opacity:0.3636;fill:#D8D8D8;}
	.st13{opacity:0.3939;fill:#D5D5D5;}
	.st14{opacity:0.4242;fill:#D2D2D2;}
	.st15{opacity:0.4545;fill:#CECECE;}
	.st16{opacity:0.4848;fill:#CBCBCB;}
	.st17{opacity:0.5152;fill:#C8C8C8;}
	.st18{opacity:0.5455;fill:#C5C5C5;}
	.st19{opacity:0.5758;fill:#C1C1C1;}
	.st20{opacity:0.6061;fill:#BEBEBE;}
	.st21{opacity:0.6364;fill:#BBBBBB;}
	.st22{opacity:0.6667;fill:#B8B8B8;}
	.st23{opacity:0.697;fill:#B4B4B4;}
	.st24{opacity:0.7273;fill:#B1B1B1;}
	.st25{opacity:0.7576;fill:#AEAEAE;}
	.st26{opacity:0.7879;fill:#ABABAB;}
	.st27{opacity:0.8182;fill:#A7A7A7;}
	.st28{opacity:0.8485;fill:#A4A4A4;}
	.st29{opacity:0.8788;fill:#A1A1A1;}
	.st30{opacity:0.9091;fill:#9E9E9E;}
	.st31{opacity:0.9394;fill:#9A9A9A;}
	.st32{opacity:0.9697;fill:#979797;}
	.st33{fill:#949494;}
	.st34{fill:#ABCF00;}
	.st35{fill:url(#SVGID_1_);}
	.st36{fill:#EF5619;}
	.st37{clip-path:url(#SVGID_3_);}
	.st38{opacity:3.030303e-02;fill:#FEF8F7;}
	.st39{opacity:6.060606e-02;fill:#FDF1F0;}
	.st40{opacity:9.090909e-02;fill:#FCEBE8;}
	.st41{opacity:0.1212;fill:#FBE4E1;}
	.st42{opacity:0.1515;fill:#FADDD9;}
	.st43{opacity:0.1818;fill:#F9D6D2;}
	.st44{opacity:0.2121;fill:#F8CFCA;}
	.st45{opacity:0.2424;fill:#F7C9C3;}
	.st46{opacity:0.2727;fill:#F7C2BB;}
	.st47{opacity:0.303;fill:#F6BBB4;}
	.st48{opacity:0.3333;fill:#F5B4AC;}
	.st49{opacity:0.3636;fill:#F4AEA5;}
	.st50{opacity:0.3939;fill:#F3A79D;}
	.st51{opacity:0.4242;fill:#F2A096;}
	.st52{opacity:0.4545;fill:#F1998E;}
	.st53{opacity:0.4848;fill:#F09287;}
	.st54{opacity:0.5152;fill:#EF8C7F;}
	.st55{opacity:0.5455;fill:#EE8578;}
	.st56{opacity:0.5758;fill:#ED7E70;}
	.st57{opacity:0.6061;fill:#EC7769;}
	.st58{opacity:0.6364;fill:#EB7061;}
	.st59{opacity:0.6667;fill:#EA6A5A;}
	.st60{opacity:0.697;fill:#E96352;}
	.st61{opacity:0.7273;fill:#E85C4B;}
	.st62{opacity:0.7576;fill:#E85543;}
	.st63{opacity:0.7879;fill:#E74F3C;}
	.st64{opacity:0.8182;fill:#E64834;}
	.st65{opacity:0.8485;fill:#E5412D;}
	.st66{opacity:0.8788;fill:#E43A25;}
	.st67{opacity:0.9091;fill:#E3331E;}
	.st68{opacity:0.9394;fill:#E22D16;}
	.st69{opacity:0.9697;fill:#E1260F;}
	.st70{fill:#E01F07;}
	.st71{fill:url(#SVGID_4_);}
	.st72{fill:url(#SVGID_5_);}
	.st73{fill:url(#SVGID_6_);}
	.st74{fill:#DEDEDE;}
	.st75{fill:#5C7E82;}
	.st76{fill:url(#SVGID_7_);}
	.st77{fill:#9C9DA0;}
	.st78{fill:#666666;}
</style>
<g>
	<g>
		<path class="st0" d="M23,13c-5.3-3-10.7-3-16,0l0,0c-2.6,1.5-4,3.1-4,4.6c0,1.5,1.3,3.1,4,4.6c5.3,3,10.7,3,16,0
			c2.6-1.5,4-3.1,4-4.6S25.6,14.5,23,13z"/>
		<path class="st1" d="M22.9,13c-5.3-3-10.7-3-16,0l0,0c-2.6,1.5-4,3.1-4,4.6c0,1.5,1.3,3.1,4,4.6c5.3,3,10.7,3,16,0
			c2.6-1.5,4-3.1,4-4.6C26.9,16.1,25.6,14.5,22.9,13z"/>
		<path class="st2" d="M22.9,13c-5.3-3-10.7-3-16,0l0,0c-2.6,1.5-4,3.1-4,4.6c0,1.5,1.3,3.1,4,4.6c5.3,3,10.7,3,16,0
			c2.6-1.5,4-3.1,4-4.6C26.8,16.1,25.5,14.5,22.9,13z"/>
		<path class="st3" d="M22.8,13c-5.3-3-10.7-3-16,0l0,0c-2.6,1.5-4,3.1-4,4.6c0,1.5,1.3,3.1,4,4.6c5.3,3,10.7,3,16,0
			c2.6-1.5,4-3.1,4-4.6C26.8,16.1,25.5,14.5,22.8,13z"/>
		<path class="st4" d="M22.8,13c-5.3-3-10.7-3-16,0l0,0c-2.6,1.5-4,3.1-4,4.6c0,1.5,1.3,3.1,4,4.6c5.3,3,10.7,3,16,0
			c2.6-1.5,4-3.1,4-4.6C26.7,16.1,25.4,14.5,22.8,13z"/>
		<path class="st5" d="M22.7,13c-5.3-3-10.7-3-16,0l0,0c-2.6,1.5-4,3.1-4,4.6c0,1.5,1.3,3.1,4,4.6c5.3,3,10.7,3,16,0
			c2.6-1.5,4-3.1,4-4.6C26.7,16.1,25.4,14.5,22.7,13z"/>
		<path class="st6" d="M22.7,13c-5.3-3-10.7-3-16,0l0,0c-2.6,1.5-4,3.1-4,4.6c0,1.5,1.3,3.1,4,4.6c5.3,3,10.7,3,16,0
			c2.6-1.5,4-3.1,4-4.6C26.6,16.1,25.3,14.5,22.7,13z"/>
		<path class="st7" d="M22.6,13c-5.3-3-10.7-3-16,0l0,0c-2.6,1.5-4,3.1-4,4.6c0,1.5,1.3,3.1,4,4.6c5.3,3,10.7,3,16,0
			c2.6-1.5,4-3.1,4-4.6C26.6,16.1,25.3,14.5,22.6,13z"/>
		<path class="st8" d="M22.6,13c-5.3-3-10.7-3-16,0l0,0c-2.6,1.5-4,3.1-4,4.6c0,1.5,1.3,3.1,4,4.6c5.3,3,10.7,3,16,0
			c2.6-1.5,4-3.1,4-4.6C26.5,16.1,25.2,14.5,22.6,13z"/>
		<path class="st9" d="M22.5,13c-5.3-3-10.7-3-16,0l0,0c-2.6,1.5-4,3.1-4,4.6c0,1.5,1.3,3.1,4,4.6c5.3,3,10.7,3,16,0
			c2.6-1.5,4-3.1,4-4.6C26.5,16.1,25.2,14.5,22.5,13z"/>
		<path class="st10" d="M22.5,13c-5.3-3-10.7-3-16,0l0,0c-2.6,1.5-4,3.1-4,4.6c0,1.5,1.3,3.1,4,4.6c5.3,3,10.7,3,16,0
			c2.6-1.5,4-3.1,4-4.6C26.4,16.1,25.1,14.5,22.5,13z"/>
		<path class="st11" d="M22.4,13c-5.3-3-10.7-3-16,0l0,0c-2.6,1.5-4,3.1-4,4.6c0,1.5,1.3,3.1,4,4.6c5.3,3,10.7,3,16,0
			c2.6-1.5,4-3.1,4-4.6C26.4,16.1,25.1,14.5,22.4,13z"/>
		<path class="st12" d="M22.4,13c-5.3-3-10.7-3-16,0l0,0c-2.6,1.5-4,3.1-4,4.6c0,1.5,1.3,3.1,4,4.6c5.3,3,10.7,3,16,0
			c2.6-1.5,4-3.1,4-4.6C26.3,16.1,25,14.5,22.4,13z"/>
		<path class="st13" d="M22.3,13c-5.3-3-10.7-3-16,0l0,0c-2.6,1.5-4,3.1-4,4.6c0,1.5,1.3,3.1,4,4.6c5.3,3,10.7,3,16,0
			c2.6-1.5,4-3.1,4-4.6C26.3,16.1,25,14.5,22.3,13z"/>
		<path class="st14" d="M22.3,13c-5.3-3-10.7-3-16,0l0,0c-2.6,1.5-4,3.1-4,4.6c0,1.5,1.3,3.1,4,4.6c5.3,3,10.7,3,16,0
			c2.6-1.5,4-3.1,4-4.6C26.2,16.1,24.9,14.5,22.3,13z"/>
		<path class="st15" d="M22.2,13c-5.3-3-10.7-3-16,0l0,0c-2.6,1.5-4,3.1-4,4.6c0,1.5,1.3,3.1,4,4.6c5.3,3,10.7,3,16,0
			c2.6-1.5,4-3.1,4-4.6C26.2,16.1,24.9,14.5,22.2,13z"/>
		<path class="st16" d="M22.2,13c-5.3-3-10.7-3-16,0l0,0c-2.6,1.5-4,3.1-4,4.6c0,1.5,1.3,3.1,4,4.6c5.3,3,10.7,3,16,0
			c2.6-1.5,4-3.1,4-4.6C26.1,16.1,24.8,14.5,22.2,13z"/>
		<path class="st17" d="M22.1,13c-5.3-3-10.7-3-16,0l0,0c-2.6,1.5-4,3.1-4,4.6c0,1.5,1.3,3.1,4,4.6c5.3,3,10.7,3,16,0
			c2.6-1.5,4-3.1,4-4.6C26.1,16.1,24.8,14.5,22.1,13z"/>
		<path class="st18" d="M22.1,13c-5.3-3-10.7-3-16,0l0,0c-2.6,1.5-4,3.1-4,4.6c0,1.5,1.3,3.1,4,4.6c5.3,3,10.7,3,16,0
			c2.6-1.5,4-3.1,4-4.6C26,16.1,24.7,14.5,22.1,13z"/>
		<path class="st19" d="M22,13c-5.3-3-10.7-3-16,0l0,0c-2.6,1.5-4,3.1-4,4.6c0,1.5,1.3,3.1,4,4.6c5.3,3,10.7,3,16,0
			c2.6-1.5,4-3.1,4-4.6C26,16.1,24.7,14.5,22,13z"/>
		<path class="st20" d="M22,13c-5.3-3-10.7-3-16,0l0,0c-2.6,1.5-4,3.1-4,4.6c0,1.5,1.3,3.1,4,4.6c5.3,3,10.7,3,16,0
			c2.6-1.5,4-3.1,4-4.6C25.9,16.1,24.6,14.5,22,13z"/>
		<path class="st21" d="M21.9,13c-5.3-3-10.7-3-16,0l0,0c-2.6,1.5-4,3.1-4,4.6c0,1.5,1.3,3.1,4,4.6c5.3,3,10.7,3,16,0
			c2.6-1.5,4-3.1,4-4.6C25.9,16.1,24.6,14.5,21.9,13z"/>
		<path class="st22" d="M21.9,13c-5.3-3-10.7-3-16,0l0,0c-2.6,1.5-4,3.1-4,4.6c0,1.5,1.3,3.1,4,4.6c5.3,3,10.7,3,16,0
			c2.6-1.5,4-3.1,4-4.6C25.8,16.1,24.5,14.5,21.9,13z"/>
		<path class="st23" d="M21.8,13c-5.3-3-10.7-3-16,0l0,0c-2.6,1.5-4,3.1-4,4.6c0,1.5,1.3,3.1,4,4.6c5.3,3,10.7,3,16,0
			c2.6-1.5,4-3.1,4-4.6C25.8,16.1,24.5,14.5,21.8,13z"/>
		<path class="st24" d="M21.8,13c-5.3-3-10.7-3-16,0l0,0c-2.6,1.5-4,3.1-4,4.6c0,1.5,1.3,3.1,4,4.6c5.3,3,10.7,3,16,0
			c2.6-1.5,4-3.1,4-4.6C25.7,16.1,24.4,14.5,21.8,13z"/>
		<path class="st25" d="M21.7,13c-5.3-3-10.7-3-16,0l0,0c-2.6,1.5-4,3.1-4,4.6c0,1.5,1.3,3.1,4,4.6c5.3,3,10.7,3,16,0
			c2.6-1.5,4-3.1,4-4.6C25.7,16.1,24.4,14.5,21.7,13z"/>
		<path class="st26" d="M21.7,13c-5.3-3-10.7-3-16,0l0,0c-2.6,1.5-4,3.1-4,4.6c0,1.5,1.3,3.1,4,4.6c5.3,3,10.7,3,16,0
			c2.6-1.5,4-3.1,4-4.6C25.6,16.1,24.3,14.5,21.7,13z"/>
		<path class="st27" d="M21.6,13c-5.3-3-10.7-3-16,0l0,0c-2.6,1.5-4,3.1-4,4.6c0,1.5,1.3,3.1,4,4.6c5.3,3,10.7,3,16,0
			c2.6-1.5,4-3.1,4-4.6C25.6,16.1,24.3,14.5,21.6,13z"/>
		<path class="st28" d="M21.6,13c-5.3-3-10.7-3-16,0l0,0c-2.6,1.5-4,3.1-4,4.6c0,1.5,1.3,3.1,4,4.6c5.3,3,10.7,3,16,0
			c2.6-1.5,4-3.1,4-4.6C25.5,16.1,24.2,14.5,21.6,13z"/>
		<path class="st29" d="M21.5,13c-5.3-3-10.7-3-16,0l0,0c-2.6,1.5-4,3.1-4,4.6c0,1.5,1.3,3.1,4,4.6c5.3,3,10.7,3,16,0
			c2.6-1.5,4-3.1,4-4.6C25.5,16.1,24.2,14.5,21.5,13z"/>
		<path class="st30" d="M21.5,13c-5.3-3-10.7-3-16,0l0,0c-2.6,1.5-4,3.1-4,4.6c0,1.5,1.3,3.1,4,4.6c5.3,3,10.7,3,16,0
			c2.6-1.5,4-3.1,4-4.6C25.4,16.1,24.1,14.5,21.5,13z"/>
		<path class="st31" d="M21.4,13c-5.3-3-10.7-3-16,0l0,0c-2.6,1.5-4,3.1-4,4.6c0,1.5,1.3,3.1,4,4.6c5.3,3,10.7,3,16,0
			c2.6-1.5,4-3.1,4-4.6C25.4,16.1,24.1,14.5,21.4,13z"/>
		<path class="st32" d="M21.4,13c-5.3-3-10.7-3-16,0l0,0c-2.6,1.5-4,3.1-4,4.6c0,1.5,1.3,3.1,4,4.6c5.3,3,10.7,3,16,0
			c2.6-1.5,4-3.1,4-4.6C25.3,16.1,24,14.5,21.4,13z"/>
		<path class="st33" d="M21.3,13c-5.3-3-10.7-3-16,0l0,0c-2.6,1.5-4,3.1-4,4.6s1.3,3.1,4,4.6c5.3,3,10.7,3,16,0c2.6-1.5,4-3.1,4-4.6
			C25.3,16.1,24,14.5,21.3,13z"/>
	</g>
	<g>
		<path class="st34" d="M21.3,13c-5.3-3-10.7-3-16,0l0,0c-2.6,1.5-4,3.1-4,4.6s1.3,3.1,4,4.6c5.3,3,10.7,3,16,0c2.6-1.5,4-3.1,4-4.6
			S24,14.5,21.3,13z"/>
		
			<linearGradient id="SVGID_1_" gradientUnits="userSpaceOnUse" x1="-0.8359" y1="23.0128" x2="23.0614" y2="23.0128" gradientTransform="matrix(1 0 0 1 2.2313 -3.0903)">
			<stop  offset="0" style="stop-color:#FF682B"/>
			<stop  offset="7.192162e-02" style="stop-color:#FF6B2E"/>
			<stop  offset="0.3006" style="stop-color:#FF6D31"/>
			<stop  offset="0.5494" style="stop-color:#F65D21"/>
			<stop  offset="0.7441" style="stop-color:#F3571B"/>
			<stop  offset="1" style="stop-color:#C93000"/>
		</linearGradient>
		<path class="st35" d="M21.3,19.9c-5.3,3-10.7,3-16,0c-2.6-1.5-4-3.1-4-4.6v2.3c0,1.5,1.3,3.1,4,4.6c5.3,3,10.7,3,16,0
			c2.6-1.5,4-3.1,4-4.6v-2.3C25.3,16.9,24,18.4,21.3,19.9z"/>
		<path class="st36" d="M21.3,10.7c-5.3-3-10.7-3-16,0l0,0c-2.6,1.5-4,3.1-4,4.6c0,1.5,1.3,3.1,4,4.6c5.3,3,10.7,3,16,0
			c2.6-1.5,4-3.1,4-4.6S24,12.2,21.3,10.7z"/>
	</g>
	<g>
		<defs>
			<path id="SVGID_2_" d="M21.3,10.7c-5.3-3-10.7-3-16,0l0,0c-2.6,1.5-4,3.1-4,4.6c0,1.5,1.3,3.1,4,4.6c5.3,3,10.7,3,16,0
				c2.6-1.5,4-3.1,4-4.6S24,12.2,21.3,10.7z"/>
		</defs>
		<clipPath id="SVGID_3_">
			<use xlink:href="#SVGID_2_"  style="overflow:visible;"/>
		</clipPath>
		<g class="st37">
			<path class="st0" d="M26.7,9.7c0.2-1.1,0.2-1.9-0.3-3.3c-0.1-0.1-0.1-0.2-0.2-0.2l-1.1,0.6h0c0,0,0,0,0,0
				c-0.1,0.1-0.2,0.3-0.3,0.4l-0.7-0.9C23.9,6.3,23.9,6.1,24,6c0.2-0.2,0.5-0.7,1.1-1.6c0.1-0.1,0-0.3-0.1-0.4
				c-0.9-0.5-1.7-0.7-2.4-0.3l-1.9,1.1l0,0c-0.1,0.1-0.3,0.2-0.4,0.3c-1,0.8,0.6,3.9,1,5.4c0.4,1.6-0.1,2.7-0.4,3.8
				c-0.3,1,0.5,2.5,1.3,3c0.5,0.3,0.9,0.3,1.2,0c0,0,0.1-0.1,0.1-0.1c0,0.1-0.1,0.1-0.1,0.1l1.9-1.1c0.2-0.2,0.3-0.6,0.3-1.2
				c-0.2-1.3-0.4-2.1-0.5-2.6c0.2,0,0.4,0,0.6-0.1c0,0,0.1,0,0.1-0.1l1.9-1.1c0.1-0.1,0-0.3-0.1-0.4L26.7,9.7z"/>
			<path class="st38" d="M26.4,9.7c0.2-1.1,0.2-1.9-0.3-3.3c-0.1-0.1-0.1-0.2-0.2-0.2l-1.1,0.6h0c0,0,0,0,0,0
				c-0.1,0.1-0.2,0.3-0.3,0.4l-0.7-0.9c-0.1-0.1-0.1-0.3-0.1-0.4c0.2-0.2,0.5-0.7,1.1-1.6c0.1-0.1,0-0.3-0.1-0.4
				c-0.9-0.5-1.7-0.7-2.4-0.3l-1.9,1.1l0,0C20.3,4.9,20.2,5,20,5.1c-1,0.8,0.6,3.9,1,5.4c0.4,1.6-0.1,2.7-0.4,3.8
				c-0.3,1,0.5,2.5,1.3,3c0.5,0.3,0.9,0.3,1.2,0c0,0,0.1-0.1,0.1-0.1c0,0.1-0.1,0.1-0.1,0.1l1.9-1.1c0.2-0.2,0.3-0.6,0.3-1.2
				c-0.2-1.3-0.4-2.1-0.5-2.6c0.2,0,0.4,0,0.6-0.1c0,0,0.1,0,0.1-0.1l1.9-1.1c0.1-0.1,0-0.3-0.1-0.4L26.4,9.7z"/>
			<path class="st39" d="M26.1,9.7c0.2-1.1,0.2-1.9-0.3-3.3c-0.1-0.1-0.1-0.2-0.2-0.2l-1.1,0.6h0c0,0,0,0,0,0
				c-0.1,0.1-0.2,0.3-0.3,0.4l-0.7-0.9c-0.1-0.1-0.1-0.3-0.1-0.4c0.2-0.2,0.5-0.7,1.1-1.6c0.1-0.1,0-0.3-0.1-0.4
				c-0.9-0.5-1.7-0.7-2.4-0.3l-1.9,1.1l0,0C20,4.9,19.9,5,19.7,5.1c-1,0.8,0.6,3.9,1,5.4c0.4,1.6-0.1,2.7-0.4,3.8
				c-0.3,1,0.5,2.5,1.3,3c0.5,0.3,0.9,0.3,1.2,0c0,0,0.1-0.1,0.1-0.1c0,0.1-0.1,0.1-0.1,0.1l1.9-1.1c0.2-0.2,0.3-0.6,0.3-1.2
				c-0.2-1.3-0.4-2.1-0.5-2.6c0.2,0,0.4,0,0.6-0.1c0,0,0.1,0,0.1-0.1l1.9-1.1c0.1-0.1,0-0.3-0.1-0.4L26.1,9.7z"/>
			<path class="st40" d="M25.8,9.7C26,8.6,26,7.8,25.5,6.4c-0.1-0.1-0.1-0.2-0.2-0.2l-1.1,0.6h0c0,0,0,0,0,0
				c-0.1,0.1-0.2,0.3-0.3,0.4l-0.7-0.9C23,6.3,23,6.1,23.1,6c0.2-0.2,0.5-0.7,1.1-1.6c0.1-0.1,0-0.3-0.1-0.4
				c-0.9-0.5-1.7-0.7-2.4-0.3l-1.9,1.1l0,0c-0.1,0.1-0.3,0.2-0.4,0.3c-1,0.8,0.6,3.9,1,5.4c0.4,1.6-0.1,2.7-0.4,3.8
				c-0.3,1,0.5,2.5,1.3,3c0.5,0.3,0.9,0.3,1.2,0c0,0,0.1-0.1,0.1-0.1c0,0.1-0.1,0.1-0.1,0.1l1.9-1.1c0.2-0.2,0.3-0.6,0.3-1.2
				c-0.2-1.3-0.4-2.1-0.5-2.6c0.2,0,0.4,0,0.6-0.1c0,0,0.1,0,0.1-0.1l1.9-1.1c0.1-0.1,0-0.3-0.1-0.4L25.8,9.7z"/>
			<path class="st41" d="M25.5,9.7c0.2-1.1,0.2-1.9-0.3-3.3C25.1,6.3,25,6.2,25,6.2l-1.1,0.6h0c0,0,0,0,0,0
				c-0.1,0.1-0.2,0.3-0.3,0.4l-0.7-0.9c-0.1-0.1-0.1-0.3-0.1-0.4c0.2-0.2,0.5-0.7,1.1-1.6c0.1-0.1,0-0.3-0.1-0.4
				c-0.9-0.5-1.7-0.7-2.4-0.3l-1.9,1.1l0,0c-0.1,0.1-0.3,0.2-0.4,0.3c-1,0.8,0.6,3.9,1,5.4c0.4,1.6-0.1,2.7-0.4,3.8
				c-0.3,1,0.5,2.5,1.3,3c0.5,0.3,0.9,0.3,1.2,0c0,0,0.1-0.1,0.1-0.1c0,0.1-0.1,0.1-0.1,0.1l1.9-1.1c0.2-0.2,0.3-0.6,0.3-1.2
				c-0.2-1.3-0.4-2.1-0.5-2.6c0.2,0,0.4,0,0.6-0.1c0,0,0.1,0,0.1-0.1l1.9-1.1c0.1-0.1,0-0.3-0.1-0.4L25.5,9.7z"/>
			<path class="st42" d="M25.2,9.7c0.2-1.1,0.2-1.9-0.3-3.3c-0.1-0.1-0.1-0.2-0.2-0.2l-1.1,0.6h0c0,0,0,0,0,0
				c-0.1,0.1-0.2,0.3-0.3,0.4l-0.7-0.9c-0.1-0.1-0.1-0.3-0.1-0.4c0.2-0.2,0.5-0.7,1.1-1.6c0.1-0.1,0-0.3-0.1-0.4
				c-0.9-0.5-1.7-0.7-2.4-0.3l-1.9,1.1l0,0C19.1,4.9,19,5,18.8,5.1c-1,0.8,0.6,3.9,1,5.4c0.4,1.6-0.1,2.7-0.4,3.8
				c-0.3,1,0.5,2.5,1.3,3c0.5,0.3,0.9,0.3,1.2,0c0,0,0.1-0.1,0.1-0.1c0,0.1-0.1,0.1-0.1,0.1l1.9-1.1c0.2-0.2,0.3-0.6,0.3-1.2
				c-0.2-1.3-0.4-2.1-0.5-2.6c0.2,0,0.4,0,0.6-0.1c0,0,0.1,0,0.1-0.1l1.9-1.1c0.1-0.1,0-0.3-0.1-0.4L25.2,9.7z"/>
			<path class="st43" d="M24.9,9.7c0.2-1.1,0.2-1.9-0.3-3.3c-0.1-0.1-0.1-0.2-0.2-0.2l-1.1,0.6h0c0,0,0,0,0,0
				C23.1,7.1,23,7.2,23,7.3l-0.7-0.9c-0.1-0.1-0.1-0.3-0.1-0.4c0.2-0.2,0.5-0.7,1.1-1.6c0.1-0.1,0-0.3-0.1-0.4
				c-0.9-0.5-1.7-0.7-2.4-0.3l-1.9,1.1l0,0c-0.1,0.1-0.3,0.2-0.4,0.3c-1,0.8,0.6,3.9,1,5.4c0.4,1.6-0.1,2.7-0.4,3.8
				c-0.3,1,0.5,2.5,1.3,3c0.5,0.3,0.9,0.3,1.2,0c0,0,0.1-0.1,0.1-0.1c0,0.1-0.1,0.1-0.1,0.1l1.9-1.1c0.2-0.2,0.3-0.6,0.3-1.2
				c-0.2-1.3-0.4-2.1-0.5-2.6c0.2,0,0.4,0,0.6-0.1c0,0,0.1,0,0.1-0.1l1.9-1.1c0.1-0.1,0-0.3-0.1-0.4L24.9,9.7z"/>
			<path class="st44" d="M24.6,9.7c0.2-1.1,0.2-1.9-0.3-3.3c-0.1-0.1-0.1-0.2-0.2-0.2L23,6.9h0c0,0,0,0,0,0
				c-0.1,0.1-0.2,0.3-0.3,0.4l-0.7-0.9c-0.1-0.1-0.1-0.3-0.1-0.4C22,5.8,22.4,5.3,23,4.4c0.1-0.1,0-0.3-0.1-0.4
				c-0.9-0.5-1.7-0.7-2.4-0.3l-1.9,1.1l0,0c-0.1,0.1-0.3,0.2-0.4,0.3c-1,0.8,0.6,3.9,1,5.4c0.4,1.6-0.1,2.7-0.4,3.8
				c-0.3,1,0.5,2.5,1.3,3c0.5,0.3,0.9,0.3,1.2,0c0,0,0.1-0.1,0.1-0.1c0,0.1-0.1,0.1-0.1,0.1l1.9-1.1c0.2-0.2,0.3-0.6,0.3-1.2
				c-0.2-1.3-0.4-2.1-0.5-2.6c0.2,0,0.4,0,0.6-0.1c0,0,0.1,0,0.1-0.1l1.9-1.1c0.1-0.1,0-0.3-0.1-0.4L24.6,9.7z"/>
			<path class="st45" d="M24.3,9.7c0.2-1.1,0.2-1.9-0.3-3.3c-0.1-0.1-0.1-0.2-0.2-0.2l-1.1,0.6h0c0,0,0,0,0,0
				c-0.1,0.1-0.2,0.3-0.3,0.4l-0.7-0.9c-0.1-0.1-0.1-0.3-0.1-0.4c0.2-0.2,0.5-0.7,1.1-1.6c0.1-0.1,0-0.3-0.1-0.4
				c-0.9-0.5-1.7-0.7-2.4-0.3l-1.9,1.1l0,0C18.2,4.9,18,5,17.9,5.1c-1,0.8,0.6,3.9,1,5.4c0.4,1.6-0.1,2.7-0.4,3.8
				c-0.3,1,0.5,2.5,1.3,3c0.5,0.3,0.9,0.3,1.2,0c0,0,0.1-0.1,0.1-0.1c0,0.1-0.1,0.1-0.1,0.1l1.9-1.1c0.2-0.2,0.3-0.6,0.3-1.2
				c-0.2-1.3-0.4-2.1-0.5-2.6c0.2,0,0.4,0,0.6-0.1c0,0,0.1,0,0.1-0.1l1.9-1.1c0.1-0.1,0-0.3-0.1-0.4L24.3,9.7z"/>
			<path class="st46" d="M24,9.7c0.2-1.1,0.2-1.9-0.3-3.3c-0.1-0.1-0.1-0.2-0.2-0.2l-1.1,0.6h0c0,0,0,0,0,0
				c-0.1,0.1-0.2,0.3-0.3,0.4l-0.7-0.9c-0.1-0.1-0.1-0.3-0.1-0.4c0.2-0.2,0.5-0.7,1.1-1.6c0.1-0.1,0-0.3-0.1-0.4
				c-0.9-0.5-1.7-0.7-2.4-0.3L18,4.8l0,0c-0.1,0.1-0.3,0.2-0.4,0.3c-1,0.8,0.6,3.9,1,5.4c0.4,1.6-0.1,2.7-0.4,3.8
				c-0.3,1,0.5,2.5,1.3,3c0.5,0.3,0.9,0.3,1.2,0c0,0,0.1-0.1,0.1-0.1c0,0.1-0.1,0.1-0.1,0.1l1.9-1.1c0.2-0.2,0.3-0.6,0.3-1.2
				c-0.2-1.3-0.4-2.1-0.5-2.6c0.2,0,0.4,0,0.6-0.1c0,0,0.1,0,0.1-0.1l1.9-1.1c0.1-0.1,0-0.3-0.1-0.4L24,9.7z"/>
			<path class="st47" d="M23.7,9.7c0.2-1.1,0.2-1.9-0.3-3.3c-0.1-0.1-0.1-0.2-0.2-0.2L22,6.9h0c0,0,0,0,0,0
				c-0.1,0.1-0.2,0.3-0.3,0.4L21,6.4C20.9,6.3,20.9,6.1,21,6c0.2-0.2,0.5-0.7,1.1-1.6c0.1-0.1,0-0.3-0.1-0.4
				c-0.9-0.5-1.7-0.7-2.4-0.3l-1.9,1.1l0,0c-0.1,0.1-0.3,0.2-0.4,0.3c-1,0.8,0.6,3.9,1,5.4c0.4,1.6-0.1,2.7-0.4,3.8
				c-0.3,1,0.5,2.5,1.3,3c0.5,0.3,0.9,0.3,1.2,0c0,0,0.1-0.1,0.1-0.1c0,0.1-0.1,0.1-0.1,0.1l1.9-1.1c0.2-0.2,0.3-0.6,0.3-1.2
				c-0.2-1.3-0.4-2.1-0.5-2.6c0.2,0,0.4,0,0.6-0.1c0,0,0.1,0,0.1-0.1l1.9-1.1c0.1-0.1,0-0.3-0.1-0.4L23.7,9.7z"/>
			<path class="st48" d="M23.4,9.7c0.2-1.1,0.2-1.9-0.3-3.3c-0.1-0.1-0.1-0.2-0.2-0.2l-1.1,0.6h0c0,0,0,0,0,0
				c-0.1,0.1-0.2,0.3-0.3,0.4l-0.7-0.9c-0.1-0.1-0.1-0.3-0.1-0.4c0.2-0.2,0.5-0.7,1.1-1.6c0.1-0.1,0-0.3-0.1-0.4
				c-0.9-0.5-1.7-0.7-2.4-0.3l-1.9,1.1l0,0C17.3,4.9,17.1,5,17,5.1c-1,0.8,0.6,3.9,1,5.4c0.4,1.6-0.1,2.7-0.4,3.8
				c-0.3,1,0.5,2.5,1.3,3c0.5,0.3,0.9,0.3,1.2,0c0,0,0.1-0.1,0.1-0.1c0,0.1-0.1,0.1-0.1,0.1l1.9-1.1c0.2-0.2,0.3-0.6,0.3-1.2
				c-0.2-1.3-0.4-2.1-0.5-2.6c0.2,0,0.4,0,0.6-0.1c0,0,0.1,0,0.1-0.1l1.9-1.1c0.1-0.1,0-0.3-0.1-0.4L23.4,9.7z"/>
			<path class="st49" d="M23.1,9.7c0.2-1.1,0.2-1.9-0.3-3.3c-0.1-0.1-0.1-0.2-0.2-0.2l-1.1,0.6h0c0,0,0,0,0,0
				c-0.1,0.1-0.2,0.3-0.3,0.4l-0.7-0.9c-0.1-0.1-0.1-0.3-0.1-0.4c0.2-0.2,0.5-0.7,1.1-1.6c0.1-0.1,0-0.3-0.1-0.4
				c-0.9-0.5-1.7-0.7-2.4-0.3l-1.9,1.1l0,0C17,4.9,16.8,5,16.7,5.1c-1,0.8,0.6,3.9,1,5.4c0.4,1.6-0.1,2.7-0.4,3.8
				c-0.3,1,0.5,2.5,1.3,3c0.5,0.3,0.9,0.3,1.2,0c0,0,0.1-0.1,0.1-0.1c0,0.1-0.1,0.1-0.1,0.1l1.9-1.1c0.2-0.2,0.3-0.6,0.3-1.2
				c-0.2-1.3-0.4-2.1-0.5-2.6c0.2,0,0.4,0,0.6-0.1c0,0,0.1,0,0.1-0.1l1.9-1.1c0.1-0.1,0-0.3-0.1-0.4L23.1,9.7z"/>
			<path class="st50" d="M22.8,9.7C23,8.6,23,7.8,22.5,6.4c-0.1-0.1-0.1-0.2-0.2-0.2l-1.1,0.6h0c0,0,0,0,0,0
				c-0.1,0.1-0.2,0.3-0.3,0.4l-0.7-0.9C20,6.3,20,6.1,20.1,6c0.2-0.2,0.5-0.7,1.1-1.6c0.1-0.1,0-0.3-0.1-0.4
				c-0.9-0.5-1.7-0.7-2.4-0.3l-1.9,1.1l0,0c-0.1,0.1-0.3,0.2-0.4,0.3c-1,0.8,0.6,3.9,1,5.4c0.4,1.6-0.1,2.7-0.4,3.8
				c-0.3,1,0.5,2.5,1.3,3c0.5,0.3,0.9,0.3,1.2,0c0,0,0.1-0.1,0.1-0.1c0,0.1-0.1,0.1-0.1,0.1l1.9-1.1c0.2-0.2,0.3-0.6,0.3-1.2
				c-0.2-1.3-0.4-2.1-0.5-2.6c0.2,0,0.4,0,0.6-0.1c0,0,0.1,0,0.1-0.1l1.9-1.1c0.1-0.1,0-0.3-0.1-0.4L22.8,9.7z"/>
			<path class="st51" d="M22.5,9.7c0.2-1.1,0.2-1.9-0.3-3.3C22.1,6.3,22,6.2,22,6.2l-1.1,0.6h0c0,0,0,0,0,0
				c-0.1,0.1-0.2,0.3-0.3,0.4l-0.7-0.9c-0.1-0.1-0.1-0.3-0.1-0.4c0.2-0.2,0.5-0.7,1.1-1.6c0.1-0.1,0-0.3-0.1-0.4
				c-0.9-0.5-1.7-0.7-2.4-0.3l-1.9,1.1l0,0c-0.1,0.1-0.3,0.2-0.4,0.3c-1,0.8,0.6,3.9,1,5.4c0.4,1.6-0.1,2.7-0.4,3.8
				c-0.3,1,0.5,2.5,1.3,3c0.5,0.3,0.9,0.3,1.2,0c0,0,0.1-0.1,0.1-0.1c0,0.1-0.1,0.1-0.1,0.1l1.9-1.1c0.2-0.2,0.3-0.6,0.3-1.2
				c-0.2-1.3-0.4-2.1-0.5-2.6c0.2,0,0.4,0,0.6-0.1c0,0,0.1,0,0.1-0.1l1.9-1.1c0.1-0.1,0-0.3-0.1-0.4L22.5,9.7z"/>
			<path class="st52" d="M22.2,9.7c0.2-1.1,0.2-1.9-0.3-3.3c-0.1-0.1-0.1-0.2-0.2-0.2l-1.1,0.6h0c0,0,0,0,0,0
				c-0.1,0.1-0.2,0.3-0.3,0.4l-0.7-0.9c-0.1-0.1-0.1-0.3-0.1-0.4c0.2-0.2,0.5-0.7,1.1-1.6c0.1-0.1,0-0.3-0.1-0.4
				c-0.9-0.5-1.7-0.7-2.4-0.3l-1.9,1.1l0,0c-0.1,0.1-0.3,0.2-0.4,0.3c-1,0.8,0.6,3.9,1,5.4c0.4,1.6-0.1,2.7-0.4,3.8
				c-0.3,1,0.5,2.5,1.3,3c0.5,0.3,0.9,0.3,1.2,0c0,0,0.1-0.1,0.1-0.1c0,0.1-0.1,0.1-0.1,0.1l1.9-1.1c0.2-0.2,0.3-0.6,0.3-1.2
				c-0.2-1.3-0.4-2.1-0.5-2.6c0.2,0,0.4,0,0.6-0.1c0,0,0.1,0,0.1-0.1l1.9-1.1c0.1-0.1,0-0.3-0.1-0.4L22.2,9.7z"/>
			<path class="st53" d="M21.9,9.7c0.2-1.1,0.2-1.9-0.3-3.3c-0.1-0.1-0.1-0.2-0.2-0.2l-1.1,0.6h0c0,0,0,0,0,0
				C20.1,7.1,20,7.2,20,7.3l-0.7-0.9c-0.1-0.1-0.1-0.3-0.1-0.4c0.2-0.2,0.5-0.7,1.1-1.6c0.1-0.1,0-0.3-0.1-0.4
				c-0.9-0.5-1.7-0.7-2.4-0.3l-1.9,1.1l0,0c-0.1,0.1-0.3,0.2-0.4,0.3c-1,0.8,0.6,3.9,1,5.4c0.4,1.6-0.1,2.7-0.4,3.8
				c-0.3,1,0.5,2.5,1.3,3c0.5,0.3,0.9,0.3,1.2,0c0,0,0.1-0.1,0.1-0.1c0,0.1-0.1,0.1-0.1,0.1l1.9-1.1c0.2-0.2,0.3-0.6,0.3-1.2
				c-0.2-1.3-0.4-2.1-0.5-2.6c0.2,0,0.4,0,0.6-0.1c0,0,0.1,0,0.1-0.1l1.9-1.1c0.1-0.1,0-0.3-0.1-0.4L21.9,9.7z"/>
			<path class="st54" d="M21.6,9.7c0.2-1.1,0.2-1.9-0.3-3.3c-0.1-0.1-0.1-0.2-0.2-0.2l-1.1,0.6h0c0,0,0,0,0,0
				c-0.1,0.1-0.2,0.3-0.3,0.4l-0.7-0.9c-0.1-0.1-0.1-0.3-0.1-0.4C19,5.8,19.4,5.3,20,4.4c0.1-0.1,0-0.3-0.1-0.4
				c-0.9-0.5-1.7-0.7-2.4-0.3l-1.9,1.1l0,0c-0.1,0.1-0.3,0.2-0.4,0.3c-1,0.8,0.6,3.9,1,5.4c0.4,1.6-0.1,2.7-0.4,3.8
				c-0.3,1,0.5,2.5,1.3,3c0.5,0.3,0.9,0.3,1.2,0c0,0,0.1-0.1,0.1-0.1c0,0.1-0.1,0.1-0.1,0.1l1.9-1.1c0.2-0.2,0.3-0.6,0.3-1.2
				c-0.2-1.3-0.4-2.1-0.5-2.6c0.2,0,0.4,0,0.6-0.1c0,0,0.1,0,0.1-0.1l1.9-1.1c0.1-0.1,0-0.3-0.1-0.4L21.6,9.7z"/>
			<path class="st55" d="M21.3,9.7c0.2-1.1,0.2-1.9-0.3-3.3c-0.1-0.1-0.1-0.2-0.2-0.2l-1.1,0.6h0c0,0,0,0,0,0
				c-0.1,0.1-0.2,0.3-0.3,0.4l-0.7-0.9c-0.1-0.1-0.1-0.3-0.1-0.4c0.2-0.2,0.5-0.7,1.1-1.6c0.1-0.1,0-0.3-0.1-0.4
				c-0.9-0.5-1.7-0.7-2.4-0.3l-1.9,1.1l0,0C15.2,4.9,15,5,14.9,5.1c-1,0.8,0.6,3.9,1,5.4c0.4,1.6-0.1,2.7-0.4,3.8
				c-0.3,1,0.5,2.5,1.3,3c0.5,0.3,0.9,0.3,1.2,0c0,0,0.1-0.1,0.1-0.1c0,0.1-0.1,0.1-0.1,0.1l1.9-1.1c0.2-0.2,0.3-0.6,0.3-1.2
				c-0.2-1.3-0.4-2.1-0.5-2.6c0.2,0,0.4,0,0.6-0.1c0,0,0.1,0,0.1-0.1l1.9-1.1c0.1-0.1,0-0.3-0.1-0.4L21.3,9.7z"/>
			<path class="st56" d="M21,9.7c0.2-1.1,0.2-1.9-0.3-3.3c-0.1-0.1-0.1-0.2-0.2-0.2l-1.1,0.6h0c0,0,0,0,0,0
				c-0.1,0.1-0.2,0.3-0.3,0.4l-0.7-0.9c-0.1-0.1-0.1-0.3-0.1-0.4c0.2-0.2,0.5-0.7,1.1-1.6c0.1-0.1,0-0.3-0.1-0.4
				c-0.9-0.5-1.7-0.7-2.4-0.3L15,4.8l0,0c-0.1,0.1-0.3,0.2-0.4,0.3c-1,0.8,0.6,3.9,1,5.4c0.4,1.6-0.1,2.7-0.4,3.8
				c-0.3,1,0.5,2.5,1.3,3c0.5,0.3,0.9,0.3,1.2,0c0,0,0.1-0.1,0.1-0.1c0,0.1-0.1,0.1-0.1,0.1l1.9-1.1c0.2-0.2,0.3-0.6,0.3-1.2
				c-0.2-1.3-0.4-2.1-0.5-2.6c0.2,0,0.4,0,0.6-0.1c0,0,0.1,0,0.1-0.1l1.9-1.1c0.1-0.1,0-0.3-0.1-0.4L21,9.7z"/>
			<path class="st57" d="M20.7,9.7c0.2-1.1,0.2-1.9-0.3-3.3c-0.1-0.1-0.1-0.2-0.2-0.2L19,6.9h0c0,0,0,0,0,0
				c-0.1,0.1-0.2,0.3-0.3,0.4L18,6.4c-0.1-0.1-0.1-0.3-0.1-0.4c0.2-0.2,0.5-0.7,1.1-1.6c0.1-0.1,0-0.3-0.1-0.4
				c-0.9-0.5-1.7-0.7-2.4-0.3l-1.9,1.1l0,0c-0.1,0.1-0.3,0.2-0.4,0.3c-1,0.8,0.6,3.9,1,5.4c0.4,1.6-0.1,2.7-0.4,3.8
				c-0.3,1,0.5,2.5,1.3,3c0.5,0.3,0.9,0.3,1.2,0c0,0,0.1-0.1,0.1-0.1c0,0.1-0.1,0.1-0.1,0.1l1.9-1.1c0.2-0.2,0.3-0.6,0.3-1.2
				c-0.2-1.3-0.4-2.1-0.5-2.6c0.2,0,0.4,0,0.6-0.1c0,0,0.1,0,0.1-0.1l1.9-1.1c0.1-0.1,0-0.3-0.1-0.4L20.7,9.7z"/>
			<path class="st58" d="M20.4,9.7c0.2-1.1,0.2-1.9-0.3-3.3c-0.1-0.1-0.1-0.2-0.2-0.2l-1.1,0.6h0c0,0,0,0,0,0
				c-0.1,0.1-0.2,0.3-0.3,0.4l-0.7-0.9c-0.1-0.1-0.1-0.3-0.1-0.4c0.2-0.2,0.5-0.7,1.1-1.6c0.1-0.1,0-0.3-0.1-0.4
				c-0.9-0.5-1.7-0.7-2.4-0.3l-1.9,1.1l0,0C14.3,4.9,14.1,5,14,5.1c-1,0.8,0.6,3.9,1,5.4c0.4,1.6-0.1,2.7-0.4,3.8
				c-0.3,1,0.5,2.5,1.3,3c0.5,0.3,0.9,0.3,1.2,0c0,0,0.1-0.1,0.1-0.1c0,0.1-0.1,0.1-0.1,0.1l1.9-1.1c0.2-0.2,0.3-0.6,0.3-1.2
				c-0.2-1.3-0.4-2.1-0.5-2.6c0.2,0,0.4,0,0.6-0.1c0,0,0.1,0,0.1-0.1l1.9-1.1c0.1-0.1,0-0.3-0.1-0.4L20.4,9.7z"/>
			<path class="st59" d="M20.1,9.7c0.2-1.1,0.2-1.9-0.3-3.3c-0.1-0.1-0.1-0.2-0.2-0.2l-1.1,0.6h0c0,0,0,0,0,0
				c-0.1,0.1-0.2,0.3-0.3,0.4l-0.7-0.9c-0.1-0.1-0.1-0.3-0.1-0.4c0.2-0.2,0.5-0.7,1.1-1.6c0.1-0.1,0-0.3-0.1-0.4
				c-0.9-0.5-1.7-0.7-2.4-0.3l-1.9,1.1l0,0C14,4.9,13.8,5,13.7,5.1c-1,0.8,0.6,3.9,1,5.4c0.4,1.6-0.1,2.7-0.4,3.8
				c-0.3,1,0.5,2.5,1.3,3c0.5,0.3,0.9,0.3,1.2,0c0,0,0.1-0.1,0.1-0.1c0,0.1-0.1,0.1-0.1,0.1l1.9-1.1c0.2-0.2,0.3-0.6,0.3-1.2
				c-0.2-1.3-0.4-2.1-0.5-2.6c0.2,0,0.4,0,0.6-0.1c0,0,0.1,0,0.1-0.1l1.9-1.1c0.1-0.1,0-0.3-0.1-0.4L20.1,9.7z"/>
			<path class="st60" d="M19.8,9.7C20,8.6,20,7.8,19.5,6.4c-0.1-0.1-0.1-0.2-0.2-0.2l-1.1,0.6h0c0,0,0,0,0,0
				c-0.1,0.1-0.2,0.3-0.3,0.4l-0.7-0.9C17,6.3,17,6.1,17,6c0.2-0.2,0.5-0.7,1.1-1.6c0.1-0.1,0-0.3-0.1-0.4c-0.9-0.5-1.7-0.7-2.4-0.3
				l-1.9,1.1l0,0c-0.1,0.1-0.3,0.2-0.4,0.3c-1,0.8,0.6,3.9,1,5.4c0.4,1.6-0.1,2.7-0.4,3.8c-0.3,1,0.5,2.5,1.3,3
				c0.5,0.3,0.9,0.3,1.2,0c0,0,0.1-0.1,0.1-0.1c0,0.1-0.1,0.1-0.1,0.1l1.9-1.1c0.2-0.2,0.3-0.6,0.3-1.2c-0.2-1.3-0.4-2.1-0.5-2.6
				c0.2,0,0.4,0,0.6-0.1c0,0,0.1,0,0.1-0.1l1.9-1.1c0.1-0.1,0-0.3-0.1-0.4L19.8,9.7z"/>
			<path class="st61" d="M19.5,9.7c0.2-1.1,0.2-1.9-0.3-3.3C19.1,6.3,19,6.2,19,6.2l-1.1,0.6h0c0,0,0,0,0,0
				c-0.1,0.1-0.2,0.3-0.3,0.4l-0.7-0.9c-0.1-0.1-0.1-0.3-0.1-0.4c0.2-0.2,0.5-0.7,1.1-1.6c0.1-0.1,0-0.3-0.1-0.4
				c-0.9-0.5-1.7-0.7-2.4-0.3l-1.9,1.1l0,0c-0.1,0.1-0.3,0.2-0.4,0.3c-1,0.8,0.6,3.9,1,5.4c0.4,1.6-0.1,2.7-0.4,3.8
				c-0.3,1,0.5,2.5,1.3,3c0.5,0.3,0.9,0.3,1.2,0c0,0,0.1-0.1,0.1-0.1c0,0.1-0.1,0.1-0.1,0.1l1.9-1.1c0.2-0.2,0.3-0.6,0.3-1.2
				c-0.2-1.3-0.4-2.1-0.5-2.6c0.2,0,0.4,0,0.6-0.1c0,0,0.1,0,0.1-0.1l1.9-1.1c0.1-0.1,0-0.3-0.1-0.4L19.5,9.7z"/>
			<path class="st62" d="M19.2,9.7c0.2-1.1,0.2-1.9-0.3-3.3c-0.1-0.1-0.1-0.2-0.2-0.2l-1.1,0.6h0c0,0,0,0,0,0
				c-0.1,0.1-0.2,0.3-0.3,0.4l-0.7-0.9c-0.1-0.1-0.1-0.3-0.1-0.4c0.2-0.2,0.5-0.7,1.1-1.6c0.1-0.1,0-0.3-0.1-0.4
				c-0.9-0.5-1.7-0.7-2.4-0.3l-1.9,1.1l0,0c-0.1,0.1-0.3,0.2-0.4,0.3c-1,0.8,0.6,3.9,1,5.4c0.4,1.6-0.1,2.7-0.4,3.8
				c-0.3,1,0.5,2.5,1.3,3c0.5,0.3,0.9,0.3,1.2,0c0,0,0.1-0.1,0.1-0.1c0,0.1-0.1,0.1-0.1,0.1l1.9-1.1c0.2-0.2,0.3-0.6,0.3-1.2
				c-0.2-1.3-0.4-2.1-0.5-2.6c0.2,0,0.4,0,0.6-0.1c0,0,0.1,0,0.1-0.1l1.9-1.1c0.1-0.1,0-0.3-0.1-0.4L19.2,9.7z"/>
			<path class="st63" d="M18.9,9.7c0.2-1.1,0.2-1.9-0.3-3.3c-0.1-0.1-0.1-0.2-0.2-0.2l-1.1,0.6h0c0,0,0,0,0,0
				c-0.1,0.1-0.2,0.3-0.3,0.4l-0.7-0.9c-0.1-0.1-0.1-0.3-0.1-0.4c0.2-0.2,0.5-0.7,1.1-1.6c0.1-0.1,0-0.3-0.1-0.4
				c-0.9-0.5-1.7-0.7-2.4-0.3l-1.9,1.1l0,0c-0.1,0.1-0.3,0.2-0.4,0.3c-1,0.8,0.6,3.9,1,5.4c0.4,1.6-0.1,2.7-0.4,3.8
				c-0.3,1,0.5,2.5,1.3,3c0.5,0.3,0.9,0.3,1.2,0c0,0,0.1-0.1,0.1-0.1c0,0.1-0.1,0.1-0.1,0.1l1.9-1.1c0.2-0.2,0.3-0.6,0.3-1.2
				c-0.2-1.3-0.4-2.1-0.5-2.6c0.2,0,0.4,0,0.6-0.1c0,0,0.1,0,0.1-0.1l1.9-1.1c0.1-0.1,0-0.3-0.1-0.4L18.9,9.7z"/>
			<path class="st64" d="M18.6,9.7c0.2-1.1,0.2-1.9-0.3-3.3c-0.1-0.1-0.1-0.2-0.2-0.2l-1.1,0.6h0c0,0,0,0,0,0
				c-0.1,0.1-0.2,0.3-0.3,0.4l-0.7-0.9c-0.1-0.1-0.1-0.3-0.1-0.4C16,5.8,16.4,5.3,17,4.4c0.1-0.1,0-0.3-0.1-0.4
				c-0.9-0.5-1.7-0.7-2.4-0.3l-1.9,1.1l0,0c-0.1,0.1-0.3,0.2-0.4,0.3c-1,0.8,0.6,3.9,1,5.4c0.4,1.6-0.1,2.7-0.4,3.8
				c-0.3,1,0.5,2.5,1.3,3c0.5,0.3,0.9,0.3,1.2,0c0,0,0.1-0.1,0.1-0.1c0,0.1-0.1,0.1-0.1,0.1l1.9-1.1c0.2-0.2,0.3-0.6,0.3-1.2
				c-0.2-1.3-0.4-2.1-0.5-2.6c0.2,0,0.4,0,0.6-0.1c0,0,0.1,0,0.1-0.1l1.9-1.1c0.1-0.1,0-0.3-0.1-0.4L18.6,9.7z"/>
			<path class="st65" d="M18.3,9.7c0.2-1.1,0.2-1.9-0.3-3.3c-0.1-0.1-0.1-0.2-0.2-0.2l-1.1,0.6h0c0,0,0,0,0,0
				c-0.1,0.1-0.2,0.3-0.3,0.4l-0.7-0.9c-0.1-0.1-0.1-0.3-0.1-0.4c0.2-0.2,0.5-0.7,1.1-1.6c0.1-0.1,0-0.3-0.1-0.4
				c-0.9-0.5-1.7-0.7-2.4-0.3l-1.9,1.1l0,0C12.2,4.9,12,5,11.9,5.1c-1,0.8,0.6,3.9,1,5.4c0.4,1.6-0.1,2.7-0.4,3.8
				c-0.3,1,0.5,2.5,1.3,3c0.5,0.3,0.9,0.3,1.2,0c0,0,0.1-0.1,0.1-0.1c0,0.1-0.1,0.1-0.1,0.1l1.9-1.1c0.2-0.2,0.3-0.6,0.3-1.2
				c-0.2-1.3-0.4-2.1-0.5-2.6c0.2,0,0.4,0,0.6-0.1c0,0,0.1,0,0.1-0.1l1.9-1.1c0.1-0.1,0-0.3-0.1-0.4L18.3,9.7z"/>
			<path class="st66" d="M18,9.7c0.2-1.1,0.2-1.9-0.3-3.3c-0.1-0.1-0.1-0.2-0.2-0.2l-1.1,0.6h0c0,0,0,0,0,0
				c-0.1,0.1-0.2,0.3-0.3,0.4l-0.7-0.9c-0.1-0.1-0.1-0.3-0.1-0.4c0.2-0.2,0.5-0.7,1.1-1.6c0.1-0.1,0-0.3-0.1-0.4
				c-0.9-0.5-1.7-0.7-2.4-0.3L12,4.8l0,0c-0.1,0.1-0.3,0.2-0.4,0.3c-1,0.8,0.6,3.9,1,5.4c0.4,1.6-0.1,2.7-0.4,3.8
				c-0.3,1,0.5,2.5,1.3,3c0.5,0.3,0.9,0.3,1.2,0c0,0,0.1-0.1,0.1-0.1c0,0.1-0.1,0.1-0.1,0.1l1.9-1.1c0.2-0.2,0.3-0.6,0.3-1.2
				c-0.2-1.3-0.4-2.1-0.5-2.6c0.2,0,0.4,0,0.6-0.1c0,0,0.1,0,0.1-0.1l1.9-1.1c0.1-0.1,0-0.3-0.1-0.4L18,9.7z"/>
			<path class="st67" d="M17.7,9.7c0.2-1.1,0.2-1.9-0.3-3.3c-0.1-0.1-0.1-0.2-0.2-0.2L16,6.9h0c0,0,0,0,0,0
				c-0.1,0.1-0.2,0.3-0.3,0.4L15,6.4c-0.1-0.1-0.1-0.3-0.1-0.4c0.2-0.2,0.5-0.7,1.1-1.6c0.1-0.1,0-0.3-0.1-0.4
				c-0.9-0.5-1.7-0.7-2.4-0.3l-1.9,1.1l0,0c-0.1,0.1-0.3,0.2-0.4,0.3c-1,0.8,0.6,3.9,1,5.4c0.4,1.6-0.1,2.7-0.4,3.8
				c-0.3,1,0.5,2.5,1.3,3c0.5,0.3,0.9,0.3,1.2,0c0,0,0.1-0.1,0.1-0.1c0,0.1-0.1,0.1-0.1,0.1l1.9-1.1c0.2-0.2,0.3-0.6,0.3-1.2
				c-0.2-1.3-0.4-2.1-0.5-2.6c0.2,0,0.4,0,0.6-0.1c0,0,0.1,0,0.1-0.1l1.9-1.1c0.1-0.1,0-0.3-0.1-0.4L17.7,9.7z"/>
			<path class="st68" d="M17.4,9.7c0.2-1.1,0.2-1.9-0.3-3.3c-0.1-0.1-0.1-0.2-0.2-0.2l-1.1,0.6h0c0,0,0,0,0,0
				c-0.1,0.1-0.2,0.3-0.3,0.4l-0.7-0.9c-0.1-0.1-0.1-0.3-0.1-0.4c0.2-0.2,0.5-0.7,1.1-1.6c0.1-0.1,0-0.3-0.1-0.4
				c-0.9-0.5-1.7-0.7-2.4-0.3l-1.9,1.1l0,0C11.3,4.9,11.1,5,11,5.1c-1,0.8,0.6,3.9,1,5.4c0.4,1.6-0.1,2.7-0.4,3.8
				c-0.3,1,0.5,2.5,1.3,3c0.5,0.3,0.9,0.3,1.2,0c0,0,0.1-0.1,0.1-0.1c0,0.1-0.1,0.1-0.1,0.1l1.9-1.1c0.2-0.2,0.3-0.6,0.3-1.2
				c-0.2-1.3-0.4-2.1-0.5-2.6c0.2,0,0.4,0,0.6-0.1c0,0,0.1,0,0.1-0.1l1.9-1.1c0.1-0.1,0-0.3-0.1-0.4L17.4,9.7z"/>
			<path class="st69" d="M17.1,9.7c0.2-1.1,0.2-1.9-0.3-3.3c-0.1-0.1-0.1-0.2-0.2-0.2l-1.1,0.6h0c0,0,0,0,0,0
				c-0.1,0.1-0.2,0.3-0.3,0.4l-0.7-0.9c-0.1-0.1-0.1-0.3-0.1-0.4c0.2-0.2,0.5-0.7,1.1-1.6c0.1-0.1,0-0.3-0.1-0.4
				c-0.9-0.5-1.7-0.7-2.4-0.3l-1.9,1.1l0,0C11,4.9,10.8,5,10.7,5.1c-1,0.8,0.6,3.9,1,5.4c0.4,1.6-0.1,2.7-0.4,3.8
				c-0.3,1,0.5,2.5,1.3,3c0.5,0.3,0.9,0.3,1.2,0c0,0,0.1-0.1,0.1-0.1c0,0.1-0.1,0.1-0.1,0.1l1.9-1.1c0.2-0.2,0.3-0.6,0.3-1.2
				c-0.2-1.3-0.4-2.1-0.5-2.6c0.2,0,0.4,0,0.6-0.1c0,0,0.1,0,0.1-0.1l1.9-1.1c0.1-0.1,0-0.3-0.1-0.4L17.1,9.7z"/>
			<path class="st70" d="M16.8,9.7C17,8.6,17,7.8,16.4,6.4c-0.1-0.1-0.1-0.2-0.2-0.2l-1.1,0.6l0,0c0,0,0,0,0,0
				c-0.1,0.1-0.2,0.3-0.3,0.4l-0.7-0.9C14,6.3,14,6.1,14,6c0.2-0.2,0.5-0.7,1.1-1.6c0.1-0.1,0-0.3-0.1-0.4c-0.9-0.5-1.7-0.7-2.4-0.3
				l-1.9,1.1l0,0c-0.1,0.1-0.3,0.2-0.4,0.3c-1,0.8,0.6,3.9,1,5.4c0.4,1.6-0.1,2.7-0.4,3.8c-0.3,1,0.5,2.5,1.3,3
				c0.5,0.3,0.9,0.3,1.2,0c0,0,0.1-0.1,0.1-0.1c0,0.1-0.1,0.1-0.1,0.1l1.9-1.1c0.2-0.2,0.3-0.6,0.3-1.2c-0.2-1.3-0.4-2.1-0.5-2.6
				c0.2,0,0.4,0,0.6-0.1c0,0,0.1,0,0.1-0.1l1.9-1.1c0.1-0.1,0-0.3-0.1-0.4L16.8,9.7z"/>
		</g>
	</g>
	<g>
		<linearGradient id="SVGID_4_" gradientUnits="userSpaceOnUse" x1="12.5339" y1="14.3166" x2="13.5603" y2="16.0943">
			<stop  offset="0" style="stop-color:#717173"/>
			<stop  offset="0.1452" style="stop-color:#8B8B8F"/>
			<stop  offset="0.301" style="stop-color:#A3A4A8"/>
			<stop  offset="0.4127" style="stop-color:#AFAFB3"/>
			<stop  offset="0.6994" style="stop-color:#C9C9CD"/>
			<stop  offset="0.8363" style="stop-color:#CCCCD0"/>
			<stop  offset="0.936" style="stop-color:#D4D5D9"/>
			<stop  offset="1" style="stop-color:#DEE0E3"/>
		</linearGradient>
		<path class="st71" d="M14.2,15.4c-0.4-0.2-0.7-0.8-0.7-1.3c0-0.2,0.1-0.4,0.2-0.5l-1.9,1.1c-0.1,0.1-0.2,0.2-0.2,0.5
			c0,0.5,0.3,1,0.7,1.3c0.2,0.1,0.4,0.1,0.5,0.1l1.9-1.1C14.6,15.5,14.4,15.5,14.2,15.4z"/>
		<linearGradient id="SVGID_5_" gradientUnits="userSpaceOnUse" x1="13.5402" y1="12.6911" x2="15.4885" y2="16.0657">
			<stop  offset="0" style="stop-color:#717173"/>
			<stop  offset="4.982835e-02" style="stop-color:#7D7E80"/>
			<stop  offset="0.1966" style="stop-color:#9C9D9F"/>
			<stop  offset="0.3386" style="stop-color:#B3B4B6"/>
			<stop  offset="0.4721" style="stop-color:#C0C2C4"/>
			<stop  offset="0.5887" style="stop-color:#C5C7C9"/>
			<stop  offset="0.729" style="stop-color:#C1C3C5"/>
			<stop  offset="0.8656" style="stop-color:#B6B7BA"/>
			<stop  offset="1" style="stop-color:#A3A4A8"/>
		</linearGradient>
		<path class="st72" d="M15.6,14.9c-0.3-2.3-0.8-2.8-0.1-3.4l-1.9,1.1c-0.7,0.6-0.2,1.1,0.1,3.4c0.1,0.6,0,1-0.3,1.2l1.9-1.1
			C15.6,15.9,15.7,15.5,15.6,14.9z"/>
		<linearGradient id="SVGID_6_" gradientUnits="userSpaceOnUse" x1="12.5463" y1="3.7677" x2="17.015" y2="11.5077">
			<stop  offset="0" style="stop-color:#DEE0E3"/>
			<stop  offset="4.188340e-02" style="stop-color:#D9DADE"/>
			<stop  offset="9.507685e-02" style="stop-color:#C9CBCE"/>
			<stop  offset="0.1542" style="stop-color:#B0B1B5"/>
			<stop  offset="0.1785" style="stop-color:#A3A4A8"/>
			<stop  offset="0.193" style="stop-color:#929295"/>
			<stop  offset="0.2157" style="stop-color:#7B7B7E"/>
			<stop  offset="0.2298" style="stop-color:#737375"/>
			<stop  offset="0.3078" style="stop-color:#717173"/>
			<stop  offset="0.3553" style="stop-color:#808083"/>
			<stop  offset="0.4282" style="stop-color:#909094"/>
			<stop  offset="0.519" style="stop-color:#9B9C9F"/>
			<stop  offset="0.6464" style="stop-color:#A1A2A6"/>
			<stop  offset="1" style="stop-color:#A3A4A8"/>
		</linearGradient>
		<path class="st73" d="M17.6,10.7l-3.5-4.3C14,6.3,14,6.1,14,6c0.2-0.2,0.5-0.7,1.1-1.6c0.1-0.1,0-0.3-0.1-0.4
			c-0.9-0.5-1.7-0.7-2.4-0.3l-1.9,1.1c0.8-0.4,1.5-0.3,2.4,0.3c0.1,0.1,0.2,0.3,0.1,0.4c-0.6,0.9-1,1.4-1.1,1.6
			c-0.1,0.1,0,0.3,0.1,0.4l3.5,4.3c0.1,0.1,0.2,0.3,0.1,0.4l1.9-1.1C17.8,11.1,17.7,10.9,17.6,10.7z"/>
		<path class="st74" d="M11.4,10.4c-0.4-1.5-2-4.5-1-5.4c0.1-0.1,0.3-0.2,0.4-0.3c0.8-0.4,1.5-0.3,2.4,0.3c0.1,0.1,0.2,0.3,0.1,0.4
			c-0.6,0.9-1,1.4-1.1,1.6c-0.1,0.1,0,0.3,0.1,0.4l3.5,4.3c0.1,0.1,0.2,0.3,0.1,0.4c0,0,0,0-0.1,0.1c-0.5,0.3-1.6-0.1-2.1,0.4
			c-0.7,0.6-0.2,1.1,0.1,3.4c0.1,0.6,0,1-0.3,1.2c-0.3,0.3-0.7,0.3-1.2,0c-0.8-0.5-1.7-1.9-1.3-3C11.3,13.2,11.8,12,11.4,10.4z
			 M12.4,16.4c0.2,0.1,0.4,0.1,0.5,0.1c0.1-0.1,0.2-0.2,0.2-0.5c0-0.5-0.3-1-0.7-1.3c-0.2-0.1-0.4-0.1-0.5-0.1
			c-0.1,0.1-0.2,0.2-0.2,0.5C11.6,15.6,12,16.2,12.4,16.4z"/>
		<g>
			<g>
				<g>
					<g>
						<path class="st75" d="M16.7,10.2l-1.1,0.6c0,0,0,0,0,0L16.7,10.2C16.7,10.2,16.7,10.2,16.7,10.2z"/>
						<linearGradient id="SVGID_7_" gradientUnits="userSpaceOnUse" x1="15.0382" y1="6.9401" x2="16.839" y2="10.0593">
							<stop  offset="0" style="stop-color:#DEE0E3"/>
							<stop  offset="6.397092e-02" style="stop-color:#D4D5D9"/>
							<stop  offset="0.1637" style="stop-color:#CCCCD0"/>
							<stop  offset="0.3006" style="stop-color:#C9C9CD"/>
							<stop  offset="0.5873" style="stop-color:#AFAFB3"/>
							<stop  offset="0.699" style="stop-color:#A3A4A8"/>
							<stop  offset="0.8548" style="stop-color:#8B8B8F"/>
							<stop  offset="1" style="stop-color:#717173"/>
						</linearGradient>
						<path class="st76" d="M16.4,6.4c-0.1-0.1-0.1-0.2-0.2-0.2l-1.1,0.6c0.1,0,0.1,0,0.2,0.2c0.6,1.5,0.5,2.4,0.2,3.7l1.1-0.6
							C16.9,8.8,17,7.9,16.4,6.4z"/>
						<path class="st74" d="M15.3,7.1c-0.1-0.1-0.1-0.2-0.2-0.2c0,0,0,0,0,0c-0.9,1.3-1.3,1.8-1.3,1.8l1.7,2.1c0,0,0,0,0,0
							C15.8,9.5,15.9,8.6,15.3,7.1z"/>
					</g>
				</g>
			</g>
		</g>
		<g>
			<polygon class="st77" points="12.1,9.8 13.5,11.6 14.2,10.7 12.7,8.8 			"/>
			<g>
				<polygon class="st78" points="13.2,11.3 13.4,11.5 14.1,10.5 14,10.3 				"/>
				<polygon class="st78" points="13,11 13.1,11.2 13.8,10.1 13.7,10 				"/>
				<polygon class="st78" points="12.7,10.6 12.8,10.8 13.6,9.8 13.4,9.6 				"/>
				<polygon class="st78" points="12.4,10.3 12.6,10.5 13.3,9.5 13.1,9.3 				"/>
				<polygon class="st78" points="12.1,10 12.3,10.1 13,9.1 12.9,8.9 				"/>
			</g>
		</g>
	</g>
</g>
</svg>
