<?xml version="1.0" encoding="utf-8"?>
<!-- Generator: Adobe Illustrator 24.2.1, SVG Export Plug-In . SVG Version: 6.00 Build 0)  -->
<svg version="1.1" id="Layer_1" xmlns="http://www.w3.org/2000/svg" xmlns:xlink="http://www.w3.org/1999/xlink" x="0px" y="0px"
	 viewBox="0 0 170.1 170.1" style="enable-background:new 0 0 170.1 170.1;" xml:space="preserve">
<style type="text/css">
	.st0{fill:#4D4D4D;}
</style>
<g>
	<path class="st0" d="M121.1,69.9c0.7,0,1.3-0.3,1.6-0.9l4.2-7.2c0.2-0.4,0.3-0.9,0.2-1.4c-0.1-0.5-0.4-0.9-0.9-1.1l-3.2-1.9
		l-0.5-5.5c-0.1-0.6-0.4-1.2-0.9-1.5l-11.6-6.7c-0.5-0.3-1.2-0.3-1.7-0.1l-5,2.4l-3.2-1.9c-0.9-0.5-2.1-0.2-2.6,0.7l-4.2,7.2
		c-0.2,0.4-0.3,0.9-0.2,1.4c0.1,0.5,0.4,0.9,0.9,1.1l2.4,1.4l-6.8,3.2c-0.3,0.2-0.6,0.4-0.8,0.8l-3.1,5.3l-3.1-5.3
		c-0.2-0.3-0.5-0.6-0.8-0.8l-6.8-3.2l2.4-1.4c0.4-0.2,0.7-0.7,0.9-1.1c0.1-0.5,0.1-1-0.2-1.4l-4.2-7.2c-0.2-0.4-0.7-0.7-1.1-0.9
		c-0.5-0.1-1-0.1-1.4,0.2l-3.2,1.9l-5-2.4c-0.6-0.3-1.2-0.2-1.7,0.1l-11.6,6.7c-0.5,0.3-0.9,0.9-0.9,1.5l-0.5,5.5l-3.2,1.9
		c-0.9,0.5-1.2,1.7-0.7,2.6l4.2,7.2c0.3,0.6,1,0.9,1.6,0.9c0.3,0,0.6-0.1,0.9-0.3l2.4-1.4l-0.6,7.5c0,0.4,0.1,0.8,0.2,1.1l1.7,2.9
		c-4.2,2.5-7,7-7,12.2c0,7.8,6.4,14.2,14.2,14.2h3v1.1L62,110c-0.3,0.4-0.5,0.8-0.5,1.3v3h-4.9c-1,0-1.9,0.8-1.9,1.9v8.4
		c0,1,0.8,1.9,1.9,1.9h57.8c1,0,1.9-0.8,1.9-1.9v-8.4c0-1-0.8-1.9-1.9-1.9h-4.9v-3c0-0.5-0.2-1-0.5-1.3l-2.7-2.8v-1.1h3
		c7.8,0,14.2-6.4,14.2-14.2c0-5.2-2.8-9.8-7-12.2l1.7-2.9c0.2-0.3,0.3-0.7,0.2-1.1l-0.6-7.5l2.4,1.4
		C120.4,69.8,120.8,69.9,121.1,69.9z M99.7,48.1l2.5,1.4c0.5,0.3,1.2,0.3,1.7,0.1l5-2.4l9.9,5.7l0.5,5.5c0.1,0.6,0.4,1.2,0.9,1.5
		l2.5,1.4l-2.3,4l-23-13.3L99.7,48.1z M50.6,65.4l-2.3-4l2.5-1.4c0.5-0.3,0.9-0.9,0.9-1.5l0.5-5.5l9.9-5.7l5,2.4
		c0.6,0.3,1.2,0.2,1.7-0.1l2.5-1.4l2.3,4L50.6,65.4z M61.8,102.5c-5.8,0-10.4-4.7-10.4-10.4c0-3.8,2.1-7.2,5.1-9l5.1,8.8
		c0,0.1,0,0.1,0,0.2v4.9c0,0.5,0.2,1,0.5,1.3l2.7,2.8v1.4H61.8z M112.5,122.8H58.5v-4.6h54.1V122.8z M65.3,114.4v-2.3l2.7-2.8
		c0.3-0.4,0.5-0.8,0.5-1.3v-7.8c0-0.5-0.2-1-0.5-1.3l-2.7-2.8v-2.3h6.6c0.9,6.7,6.7,11.9,13.6,11.9c6.9,0,12.7-5.2,13.6-11.9h6.6
		v2.3l-2.7,2.8c-0.3,0.4-0.5,0.8-0.5,1.3v7.8c0,0.5,0.2,1,0.5,1.3l2.7,2.8v2.3H65.3z M75.5,92c0-5.5,4.5-10,10-10
		c5.5,0,10,4.5,10,10c0,5.5-4.5,10-10,10C80,102,75.5,97.5,75.5,92z M119.7,92c0,5.8-4.7,10.4-10.4,10.4h-3V101l2.7-2.8
		c0.3-0.4,0.5-0.8,0.5-1.3V92c0-0.1,0-0.1,0-0.2l5.1-8.8C117.6,84.9,119.7,88.2,119.7,92z M113.8,65.9l0.8,9.5l-8.5,14.6h-7
		c-0.9-6.7-6.7-11.9-13.6-11.9c-6.9,0-12.7,5.2-13.6,11.9h-7l-8.5-14.6l0.8-9.5l13.6-7.8l8.7,4.1l4.4,7.7c0.3,0.6,1,0.9,1.6,0.9
		c0.7,0,1.3-0.4,1.6-0.9l4.4-7.7l8.7-4.1L113.8,65.9z"/>
	<path class="st0" d="M85.5,95.8c2.1,0,3.8-1.7,3.8-3.8c0-2.1-1.7-3.8-3.8-3.8c-2.1,0-3.8,1.7-3.8,3.8
		C81.7,94.1,83.4,95.8,85.5,95.8z"/>
</g>
</svg>
