<?xml version="1.0" encoding="utf-8"?>
<!-- Generator: Adobe Illustrator 24.2.1, SVG Export Plug-In . SVG Version: 6.00 Build 0)  -->
<svg version="1.1" id="Layer_1" xmlns="http://www.w3.org/2000/svg" xmlns:xlink="http://www.w3.org/1999/xlink" x="0px" y="0px"
	 viewBox="0 0 170.1 170.1" style="enable-background:new 0 0 170.1 170.1;" xml:space="preserve">
<style type="text/css">
	.st0{fill:#4D4D4D;}
</style>
<g>
	<path class="st0" d="M112.6,74.9h-3.1l10.8-10.8c0.7-0.7,0.7-1.9,0-2.7l-3-3c-2.7-2.7-6.2-4.1-10-4.1c-3.8,0-7.3,1.5-10,4.1
		l-2.2,2.2V45.3c0-1-0.8-1.9-1.9-1.9H89c-7.8,0-14.1,6.3-14.1,14.1v3.1L64.1,49.8c-0.4-0.4-0.8-0.6-1.3-0.6c-0.5,0-1,0.2-1.3,0.6
		l-3,3c-5.5,5.5-5.5,14.4,0,19.9l2.2,2.2H45.3c-1,0-1.9,0.8-1.9,1.9v4.3c0,7.8,6.3,14.1,14.1,14.1h3.1L49.8,106
		c-0.7,0.7-0.7,1.9,0,2.7l3,3c2.7,2.7,6.2,4.1,10,4.1c3.8,0,7.3-1.5,10-4.1l2.2-2.2v15.3c0,1,0.8,1.9,1.9,1.9h4.3
		c7.8,0,14.1-6.3,14.1-14.1v-3.1l10.8,10.8c0.4,0.4,0.8,0.6,1.3,0.6s1-0.2,1.3-0.6l3-3c5.5-5.5,5.5-14.4,0-19.9l-2.2-2.2h15.3
		c1,0,1.9-0.8,1.9-1.9V89C126.7,81.2,120.4,74.9,112.6,74.9z M100,61.1c1.9-1.9,4.5-3,7.3-3s5.4,1.1,7.3,3l1.7,1.7l-11.7,11.7
		c-2.1-3.8-5.2-6.9-9-9L100,61.1z M85,103.5c-10.2,0-18.5-8.3-18.5-18.5c0-10.2,8.3-18.5,18.5-18.5c10.2,0,18.5,8.3,18.5,18.5
		C103.5,95.2,95.2,103.5,85,103.5z M89,47.2h2.4v16.6c-2-0.6-4.1-0.9-6.3-0.9s-4.3,0.3-6.3,0.9v-6.2C78.7,51.8,83.3,47.2,89,47.2z
		 M61.1,55.4l1.7-1.7l11.7,11.7c-3.8,2.1-6.9,5.2-9,9L61.1,70C57,66,57,59.5,61.1,55.4z M57.5,91.4c-5.7,0-10.3-4.6-10.3-10.3v-2.4
		h16.6c-0.6,2-0.9,4.1-0.9,6.3c0,2.2,0.3,4.3,0.9,6.3H57.5z M70,109c-1.9,1.9-4.5,3-7.3,3c-2.8,0-5.4-1.1-7.3-3l-1.7-1.7l11.7-11.7
		c2.1,3.8,5.2,6.9,9,9L70,109z M81.1,122.9h-2.4v-16.6c2,0.6,4.1,0.9,6.3,0.9s4.3-0.3,6.3-0.9v6.2C91.4,118.3,86.8,122.9,81.1,122.9
		z M109,114.6l-1.7,1.7l-11.7-11.7c3.8-2.1,6.9-5.2,9-9l4.4,4.4C113,104.1,113,110.6,109,114.6z M122.9,91.4h-16.6
		c0.6-2,0.9-4.1,0.9-6.3c0-2.2-0.3-4.3-0.9-6.3h6.2c5.7,0,10.3,4.6,10.3,10.3V91.4z"/>
	<path class="st0" d="M85,76.2c-4.9,0-8.9,4-8.9,8.9c0,4.9,4,8.9,8.9,8.9s8.9-4,8.9-8.9C93.9,80.2,89.9,76.2,85,76.2z M85,90.1
		c-2.8,0-5.1-2.3-5.1-5.1c0-2.8,2.3-5.1,5.1-5.1s5.1,2.3,5.1,5.1C90.1,87.9,87.9,90.1,85,90.1z"/>
</g>
</svg>
