<?xml version="1.0" encoding="utf-8"?>
<!-- Generator: Adobe Illustrator 24.2.1, SVG Export Plug-In . SVG Version: 6.00 Build 0)  -->
<svg version="1.1" id="Layer_3" xmlns="http://www.w3.org/2000/svg" xmlns:xlink="http://www.w3.org/1999/xlink" x="0px" y="0px"
	 viewBox="0 0 28.3 28.3" style="enable-background:new 0 0 28.3 28.3;" xml:space="preserve">
<style type="text/css">
	.st0{opacity:0;fill:#FFFFFF;}
	.st1{opacity:3.030303e-02;fill:#FCFCFC;}
	.st2{opacity:6.060606e-02;fill:#F9F9F9;}
	.st3{opacity:9.090909e-02;fill:#F5F5F5;}
	.st4{opacity:0.1212;fill:#F2F2F2;}
	.st5{opacity:0.1515;fill:#EFEFEF;}
	.st6{opacity:0.1818;fill:#ECECEC;}
	.st7{opacity:0.2121;fill:#E8E8E8;}
	.st8{opacity:0.2424;fill:#E5E5E5;}
	.st9{opacity:0.2727;fill:#E2E2E2;}
	.st10{opacity:0.303;fill:#DFDFDF;}
	.st11{opacity:0.3333;fill:#DBDBDB;}
	.st12{opacity:0.3636;fill:#D8D8D8;}
	.st13{opacity:0.3939;fill:#D5D5D5;}
	.st14{opacity:0.4242;fill:#D2D2D2;}
	.st15{opacity:0.4545;fill:#CECECE;}
	.st16{opacity:0.4848;fill:#CBCBCB;}
	.st17{opacity:0.5152;fill:#C8C8C8;}
	.st18{opacity:0.5455;fill:#C5C5C5;}
	.st19{opacity:0.5758;fill:#C1C1C1;}
	.st20{opacity:0.6061;fill:#BEBEBE;}
	.st21{opacity:0.6364;fill:#BBBBBB;}
	.st22{opacity:0.6667;fill:#B8B8B8;}
	.st23{opacity:0.697;fill:#B4B4B4;}
	.st24{opacity:0.7273;fill:#B1B1B1;}
	.st25{opacity:0.7576;fill:#AEAEAE;}
	.st26{opacity:0.7879;fill:#ABABAB;}
	.st27{opacity:0.8182;fill:#A7A7A7;}
	.st28{opacity:0.8485;fill:#A4A4A4;}
	.st29{opacity:0.8788;fill:#A1A1A1;}
	.st30{opacity:0.9091;fill:#9E9E9E;}
	.st31{opacity:0.9394;fill:#9A9A9A;}
	.st32{opacity:0.9697;fill:#979797;}
	.st33{fill:#949494;}
	.st34{fill:#2E2E2E;}
	.st35{fill:url(#SVGID_1_);}
	.st36{fill:#ABC700;}
	.st37{clip-path:url(#SVGID_3_);}
	.st38{opacity:3.030303e-02;fill:#FBFCF7;}
	.st39{opacity:6.060606e-02;fill:#F6F9F0;}
	.st40{opacity:9.090909e-02;fill:#F2F6E8;}
	.st41{opacity:0.1212;fill:#EDF2E0;}
	.st42{opacity:0.1515;fill:#E9EFD8;}
	.st43{opacity:0.1818;fill:#E4ECD1;}
	.st44{opacity:0.2121;fill:#E0E9C9;}
	.st45{opacity:0.2424;fill:#DBE6C1;}
	.st46{opacity:0.2727;fill:#D7E3B9;}
	.st47{opacity:0.303;fill:#D2DFB2;}
	.st48{opacity:0.3333;fill:#CEDCAA;}
	.st49{opacity:0.3636;fill:#CAD9A2;}
	.st50{opacity:0.3939;fill:#C5D69B;}
	.st51{opacity:0.4242;fill:#C1D393;}
	.st52{opacity:0.4545;fill:#BCD08B;}
	.st53{opacity:0.4848;fill:#B8CD83;}
	.st54{opacity:0.5152;fill:#B3C97C;}
	.st55{opacity:0.5455;fill:#AFC674;}
	.st56{opacity:0.5758;fill:#AAC36C;}
	.st57{opacity:0.6061;fill:#A6C064;}
	.st58{opacity:0.6364;fill:#A1BD5D;}
	.st59{opacity:0.6667;fill:#9DBA55;}
	.st60{opacity:0.697;fill:#99B74D;}
	.st61{opacity:0.7273;fill:#94B346;}
	.st62{opacity:0.7576;fill:#90B03E;}
	.st63{opacity:0.7879;fill:#8BAD36;}
	.st64{opacity:0.8182;fill:#87AA2E;}
	.st65{opacity:0.8485;fill:#82A727;}
	.st66{opacity:0.8788;fill:#7EA41F;}
	.st67{opacity:0.9091;fill:#79A017;}
	.st68{opacity:0.9394;fill:#759D0F;}
	.st69{opacity:0.9697;fill:#709A08;}
	.st70{fill:#6C9700;}
	.st71{fill:#262626;}
	.st72{fill:url(#SVGID_4_);}
	.st73{fill:#00436E;}
	.st74{fill:#008CFF;}
	.st75{fill:#C7C7C7;}
	.st76{fill:#FFFFFF;}
	.st77{fill:#FF4000;}
</style>
<g>
	<g>
		<path class="st0" d="M24,13c-5.3-3.1-10.7-3.1-16,0l0,0c-2.6,1.5-4,3.1-4,4.6c0,1.6,1.3,3.1,4,4.6c5.3,3.1,10.7,3.1,16,0
			c2.6-1.5,4-3.1,4-4.6C28,16.1,26.7,14.5,24,13z"/>
		<path class="st1" d="M23.9,13c-5.3-3.1-10.7-3.1-16,0l0,0c-2.6,1.5-4,3.1-4,4.6c0,1.6,1.3,3.1,4,4.6c5.3,3.1,10.7,3.1,16,0
			c2.6-1.5,4-3.1,4-4.6C27.9,16.1,26.6,14.5,23.9,13z"/>
		<path class="st2" d="M23.9,13c-5.3-3.1-10.7-3.1-16,0l0,0c-2.6,1.5-4,3.1-4,4.6c0,1.6,1.3,3.1,4,4.6c5.3,3.1,10.7,3.1,16,0
			c2.6-1.5,4-3.1,4-4.6C27.8,16.1,26.5,14.5,23.9,13z"/>
		<path class="st3" d="M23.8,13c-5.3-3.1-10.7-3.1-16,0l0,0c-2.6,1.5-4,3.1-4,4.6c0,1.6,1.3,3.1,4,4.6c5.3,3.1,10.7,3.1,16,0
			c2.6-1.5,4-3.1,4-4.6C27.7,16.1,26.4,14.5,23.8,13z"/>
		<path class="st4" d="M23.7,13c-5.3-3.1-10.7-3.1-16,0l0,0c-2.6,1.5-4,3.1-4,4.6c0,1.6,1.3,3.1,4,4.6c5.3,3.1,10.7,3.1,16,0
			c2.6-1.5,4-3.1,4-4.6C27.7,16.1,26.3,14.5,23.7,13z"/>
		<path class="st5" d="M23.6,13c-5.3-3.1-10.7-3.1-16,0l0,0c-2.6,1.5-4,3.1-4,4.6c0,1.6,1.3,3.1,4,4.6c5.3,3.1,10.7,3.1,16,0
			c2.6-1.5,4-3.1,4-4.6C27.6,16.1,26.3,14.5,23.6,13z"/>
		<path class="st6" d="M23.5,13c-5.3-3.1-10.7-3.1-16,0l0,0c-2.6,1.5-4,3.1-4,4.6c0,1.6,1.3,3.1,4,4.6c5.3,3.1,10.7,3.1,16,0
			c2.6-1.5,4-3.1,4-4.6C27.5,16.1,26.2,14.5,23.5,13z"/>
		<path class="st7" d="M23.5,13c-5.3-3.1-10.7-3.1-16,0l0,0c-2.6,1.5-4,3.1-4,4.6c0,1.6,1.3,3.1,4,4.6c5.3,3.1,10.7,3.1,16,0
			c2.6-1.5,4-3.1,4-4.6C27.4,16.1,26.1,14.5,23.5,13z"/>
		<path class="st8" d="M23.4,13c-5.3-3.1-10.7-3.1-16,0l0,0c-2.6,1.5-4,3.1-4,4.6c0,1.6,1.3,3.1,4,4.6c5.3,3.1,10.7,3.1,16,0
			c2.6-1.5,4-3.1,4-4.6C27.3,16.1,26,14.5,23.4,13z"/>
		<path class="st9" d="M23.3,13c-5.3-3.1-10.7-3.1-16,0l0,0c-2.6,1.5-4,3.1-4,4.6c0,1.6,1.3,3.1,4,4.6c5.3,3.1,10.7,3.1,16,0
			c2.6-1.5,4-3.1,4-4.6C27.3,16.1,25.9,14.5,23.3,13z"/>
		<path class="st10" d="M23.2,13c-5.3-3.1-10.7-3.1-16,0l0,0c-2.6,1.5-4,3.1-4,4.6c0,1.6,1.3,3.1,4,4.6c5.3,3.1,10.7,3.1,16,0
			c2.6-1.5,4-3.1,4-4.6C27.2,16.1,25.9,14.5,23.2,13z"/>
		<path class="st11" d="M23.1,13c-5.3-3.1-10.7-3.1-16,0l0,0c-2.6,1.5-4,3.1-4,4.6c0,1.6,1.3,3.1,4,4.6c5.3,3.1,10.7,3.1,16,0
			c2.6-1.5,4-3.1,4-4.6C27.1,16.1,25.8,14.5,23.1,13z"/>
		<path class="st12" d="M23,13c-5.3-3.1-10.7-3.1-16,0l0,0c-2.6,1.5-4,3.1-4,4.6c0,1.6,1.3,3.1,4,4.6c5.3,3.1,10.7,3.1,16,0
			c2.6-1.5,4-3.1,4-4.6C27,16.1,25.7,14.5,23,13z"/>
		<path class="st13" d="M23,13c-5.3-3.1-10.7-3.1-16,0l0,0c-2.6,1.5-4,3.1-4,4.6c0,1.6,1.3,3.1,4,4.6c5.3,3.1,10.7,3.1,16,0
			c2.6-1.5,4-3.1,4-4.6C26.9,16.1,25.6,14.5,23,13z"/>
		<path class="st14" d="M22.9,13c-5.3-3.1-10.7-3.1-16,0l0,0c-2.6,1.5-4,3.1-4,4.6c0,1.6,1.3,3.1,4,4.6c5.3,3.1,10.7,3.1,16,0
			c2.6-1.5,4-3.1,4-4.6C26.9,16.1,25.5,14.5,22.9,13z"/>
		<path class="st15" d="M22.8,13c-5.3-3.1-10.7-3.1-16,0l0,0c-2.6,1.5-4,3.1-4,4.6c0,1.6,1.3,3.1,4,4.6c5.3,3.1,10.7,3.1,16,0
			c2.6-1.5,4-3.1,4-4.6C26.8,16.1,25.5,14.5,22.8,13z"/>
		<path class="st16" d="M22.7,13c-5.3-3.1-10.7-3.1-16,0l0,0c-2.6,1.5-4,3.1-4,4.6c0,1.6,1.3,3.1,4,4.6c5.3,3.1,10.7,3.1,16,0
			c2.6-1.5,4-3.1,4-4.6C26.7,16.1,25.4,14.5,22.7,13z"/>
		<path class="st17" d="M22.6,13c-5.3-3.1-10.7-3.1-16,0l0,0c-2.6,1.5-4,3.1-4,4.6c0,1.6,1.3,3.1,4,4.6c5.3,3.1,10.7,3.1,16,0
			c2.6-1.5,4-3.1,4-4.6C26.6,16.1,25.3,14.5,22.6,13z"/>
		<path class="st18" d="M22.6,13c-5.3-3.1-10.7-3.1-16,0l0,0c-2.6,1.5-4,3.1-4,4.6c0,1.6,1.3,3.1,4,4.6c5.3,3.1,10.7,3.1,16,0
			c2.6-1.5,4-3.1,4-4.6C26.5,16.1,25.2,14.5,22.6,13z"/>
		<path class="st19" d="M22.5,13c-5.3-3.1-10.7-3.1-16,0l0,0c-2.6,1.5-4,3.1-4,4.6c0,1.6,1.3,3.1,4,4.6c5.3,3.1,10.7,3.1,16,0
			c2.6-1.5,4-3.1,4-4.6C26.5,16.1,25.1,14.5,22.5,13z"/>
		<path class="st20" d="M22.4,13c-5.3-3.1-10.7-3.1-16,0l0,0c-2.6,1.5-4,3.1-4,4.6c0,1.6,1.3,3.1,4,4.6c5.3,3.1,10.7,3.1,16,0
			c2.6-1.5,4-3.1,4-4.6C26.4,16.1,25.1,14.5,22.4,13z"/>
		<path class="st21" d="M22.3,13c-5.3-3.1-10.7-3.1-16,0l0,0c-2.6,1.5-4,3.1-4,4.6c0,1.6,1.3,3.1,4,4.6c5.3,3.1,10.7,3.1,16,0
			c2.6-1.5,4-3.1,4-4.6C26.3,16.1,25,14.5,22.3,13z"/>
		<path class="st22" d="M22.2,13c-5.3-3.1-10.7-3.1-16,0l0,0c-2.6,1.5-4,3.1-4,4.6c0,1.6,1.3,3.1,4,4.6c5.3,3.1,10.7,3.1,16,0
			c2.6-1.5,4-3.1,4-4.6C26.2,16.1,24.9,14.5,22.2,13z"/>
		<path class="st23" d="M22.2,13c-5.3-3.1-10.7-3.1-16,0l0,0c-2.6,1.5-4,3.1-4,4.6c0,1.6,1.3,3.1,4,4.6c5.3,3.1,10.7,3.1,16,0
			c2.6-1.5,4-3.1,4-4.6C26.1,16.1,24.8,14.5,22.2,13z"/>
		<path class="st24" d="M22.1,13c-5.3-3.1-10.7-3.1-16,0l0,0c-2.6,1.5-4,3.1-4,4.6c0,1.6,1.3,3.1,4,4.6c5.3,3.1,10.7,3.1,16,0
			c2.6-1.5,4-3.1,4-4.6C26.1,16.1,24.7,14.5,22.1,13z"/>
		<path class="st25" d="M22,13c-5.3-3.1-10.7-3.1-16,0l0,0c-2.6,1.5-4,3.1-4,4.6c0,1.6,1.3,3.1,4,4.6c5.3,3.1,10.7,3.1,16,0
			c2.6-1.5,4-3.1,4-4.6C26,16.1,24.7,14.5,22,13z"/>
		<path class="st26" d="M21.9,13c-5.3-3.1-10.7-3.1-16,0l0,0c-2.6,1.5-4,3.1-4,4.6c0,1.6,1.3,3.1,4,4.6c5.3,3.1,10.7,3.1,16,0
			c2.6-1.5,4-3.1,4-4.6C25.9,16.1,24.6,14.5,21.9,13z"/>
		<path class="st27" d="M21.8,13c-5.3-3.1-10.7-3.1-16,0l0,0c-2.6,1.5-4,3.1-4,4.6c0,1.6,1.3,3.1,4,4.6c5.3,3.1,10.7,3.1,16,0
			c2.6-1.5,4-3.1,4-4.6C25.8,16.1,24.5,14.5,21.8,13z"/>
		<path class="st28" d="M21.8,13c-5.3-3.1-10.7-3.1-16,0l0,0c-2.6,1.5-4,3.1-4,4.6c0,1.6,1.3,3.1,4,4.6c5.3,3.1,10.7,3.1,16,0
			c2.6-1.5,4-3.1,4-4.6C25.7,16.1,24.4,14.5,21.8,13z"/>
		<path class="st29" d="M21.7,13c-5.3-3.1-10.7-3.1-16,0l0,0c-2.6,1.5-4,3.1-4,4.6c0,1.6,1.3,3.1,4,4.6c5.3,3.1,10.7,3.1,16,0
			c2.6-1.5,4-3.1,4-4.6C25.7,16.1,24.3,14.5,21.7,13z"/>
		<path class="st30" d="M21.6,13c-5.3-3.1-10.7-3.1-16,0l0,0c-2.6,1.5-4,3.1-4,4.6c0,1.6,1.3,3.1,4,4.6c5.3,3.1,10.7,3.1,16,0
			c2.6-1.5,4-3.1,4-4.6C25.6,16.1,24.3,14.5,21.6,13z"/>
		<path class="st31" d="M21.5,13c-5.3-3.1-10.7-3.1-16,0l0,0c-2.6,1.5-4,3.1-4,4.6c0,1.6,1.3,3.1,4,4.6c5.3,3.1,10.7,3.1,16,0
			c2.6-1.5,4-3.1,4-4.6C25.5,16.1,24.2,14.5,21.5,13z"/>
		<path class="st32" d="M21.4,13c-5.3-3.1-10.7-3.1-16,0l0,0c-2.6,1.5-4,3.1-4,4.6c0,1.6,1.3,3.1,4,4.6c5.3,3.1,10.7,3.1,16,0
			c2.6-1.5,4-3.1,4-4.6C25.4,16.1,24.1,14.5,21.4,13z"/>
		<path class="st33" d="M21.4,13c-5.3-3.1-10.7-3.1-16,0l0,0c-2.6,1.5-4,3.1-4,4.6c0,1.6,1.3,3.1,4,4.6c5.3,3.1,10.7,3.1,16,0
			c2.6-1.5,4-3.1,4-4.6C25.3,16.1,24,14.5,21.4,13z"/>
	</g>
	<g>
		<path class="st34" d="M21.4,13c-5.3-3.1-10.7-3.1-16,0l0,0c-2.6,1.5-4,3.1-4,4.6c0,1.6,1.3,3.1,4,4.6c5.3,3.1,10.7,3.1,16,0
			c2.6-1.5,4-3.1,4-4.6C25.3,16.1,24,14.5,21.4,13z"/>
		<linearGradient id="SVGID_1_" gradientUnits="userSpaceOnUse" x1="1.3676" y1="19.9107" x2="25.3326" y2="19.9107">
			<stop  offset="0" style="stop-color:#C2DD00"/>
			<stop  offset="9.571359e-02" style="stop-color:#C7E000"/>
			<stop  offset="0.3006" style="stop-color:#CAE200"/>
			<stop  offset="0.5494" style="stop-color:#BAD200"/>
			<stop  offset="0.7441" style="stop-color:#B4CC00"/>
			<stop  offset="1" style="stop-color:#8AA500"/>
		</linearGradient>
		<path class="st35" d="M21.4,19.9c-5.3,3.1-10.7,3.1-16,0c-2.6-1.5-4-3.1-4-4.6v2.3c0,1.6,1.3,3.1,4,4.6c5.3,3.1,10.7,3.1,16,0
			c2.6-1.5,4-3.1,4-4.6v-2.3C25.3,16.8,24,18.4,21.4,19.9z"/>
		<path class="st36" d="M21.4,10.7c-5.3-3.1-10.7-3.1-16,0l0,0c-2.6,1.5-4,3.1-4,4.6s1.3,3.1,4,4.6c5.3,3.1,10.7,3.1,16,0
			c2.6-1.5,4-3.1,4-4.6S24,12.2,21.4,10.7z"/>
	</g>
	<g>
		<defs>
			<path id="SVGID_2_" d="M21.4,10.7c-5.3-3.1-10.7-3.1-16,0l0,0c-2.6,1.5-4,3.1-4,4.6s1.3,3.1,4,4.6c5.3,3.1,10.7,3.1,16,0
				c2.6-1.5,4-3.1,4-4.6S24,12.2,21.4,10.7z"/>
		</defs>
		<clipPath id="SVGID_3_">
			<use xlink:href="#SVGID_2_"  style="overflow:visible;"/>
		</clipPath>
		<g class="st37">
			<path class="st0" d="M27.7,8.7l-7.3-4.2L19.7,4c-0.4-0.3-0.8-0.3-1.1-0.1l-1.2,0.7l0,0c-0.3,0.2-0.5,0.5-0.5,1v5.9
				c0,1,0.7,2.3,1.6,2.8l0.7,0.4l7.3,4.2c0.4,0.3,0.8,0.3,1.1,0.1l0,0l1.2-0.7c0.3-0.2,0.5-0.5,0.5-1v-5.9
				C29.3,10.4,28.6,9.2,27.7,8.7z"/>
			<path class="st38" d="M27.4,8.7l-7.3-4.2L19.4,4c-0.4-0.3-0.8-0.3-1.1-0.1l-1.2,0.7l0,0c-0.3,0.2-0.5,0.5-0.5,1v5.9
				c0,1,0.7,2.3,1.6,2.8l0.7,0.4l7.3,4.2c0.4,0.3,0.8,0.3,1.1,0.1l0,0l1.2-0.7c0.3-0.2,0.5-0.5,0.5-1v-5.9
				C29,10.4,28.3,9.2,27.4,8.7z"/>
			<path class="st39" d="M27.1,8.7l-7.3-4.2L19.1,4c-0.4-0.3-0.8-0.3-1.1-0.1l-1.2,0.7l0,0c-0.3,0.2-0.5,0.5-0.5,1v5.9
				c0,1,0.7,2.3,1.6,2.8l0.7,0.4l7.3,4.2c0.4,0.3,0.8,0.3,1.1,0.1l0,0l1.2-0.7c0.3-0.2,0.5-0.5,0.5-1v-5.9
				C28.7,10.4,28,9.2,27.1,8.7z"/>
			<path class="st40" d="M26.8,8.7l-7.3-4.2L18.8,4c-0.4-0.3-0.8-0.3-1.1-0.1l-1.2,0.7l0,0c-0.3,0.2-0.5,0.5-0.5,1v5.9
				c0,1,0.7,2.3,1.6,2.8l0.7,0.4l7.3,4.2c0.4,0.3,0.8,0.3,1.1,0.1l0,0l1.2-0.7c0.3-0.2,0.5-0.5,0.5-1v-5.9
				C28.4,10.4,27.7,9.2,26.8,8.7z"/>
			<path class="st41" d="M26.5,8.7l-7.3-4.2L18.5,4c-0.4-0.3-0.8-0.3-1.1-0.1l-1.2,0.7l0,0c-0.3,0.2-0.5,0.5-0.5,1v5.9
				c0,1,0.7,2.3,1.6,2.8l0.7,0.4l7.3,4.2c0.4,0.3,0.8,0.3,1.1,0.1l0,0l1.2-0.7c0.3-0.2,0.5-0.5,0.5-1v-5.9
				C28.1,10.4,27.4,9.2,26.5,8.7z"/>
			<path class="st42" d="M26.2,8.7l-7.3-4.2L18.2,4c-0.4-0.3-0.8-0.3-1.1-0.1l-1.2,0.7l0,0c-0.3,0.2-0.5,0.5-0.5,1v5.9
				c0,1,0.7,2.3,1.6,2.8l0.7,0.4L25,19c0.4,0.3,0.8,0.3,1.1,0.1l0,0l1.2-0.7c0.3-0.2,0.5-0.5,0.5-1v-5.9
				C27.8,10.4,27.1,9.2,26.2,8.7z"/>
			<path class="st43" d="M25.9,8.7l-7.3-4.2L17.8,4c-0.4-0.3-0.8-0.3-1.1-0.1l-1.2,0.7l0,0c-0.3,0.2-0.5,0.5-0.5,1v5.9
				c0,1,0.7,2.3,1.6,2.8l0.7,0.4l7.3,4.2c0.4,0.3,0.8,0.3,1.1,0.1l0,0l1.2-0.7c0.3-0.2,0.5-0.5,0.5-1v-5.9
				C27.5,10.4,26.8,9.2,25.9,8.7z"/>
			<path class="st44" d="M25.6,8.7l-7.3-4.2L17.5,4c-0.4-0.3-0.8-0.3-1.1-0.1l-1.2,0.7l0,0c-0.3,0.2-0.5,0.5-0.5,1v5.9
				c0,1,0.7,2.3,1.6,2.8l0.7,0.4l7.3,4.2c0.4,0.3,0.8,0.3,1.1,0.1l0,0l1.2-0.7c0.3-0.2,0.5-0.5,0.5-1v-5.9
				C27.2,10.4,26.5,9.2,25.6,8.7z"/>
			<path class="st45" d="M25.3,8.7l-7.3-4.2L17.2,4c-0.4-0.3-0.8-0.3-1.1-0.1L15,4.6l0,0c-0.3,0.2-0.5,0.5-0.5,1v5.9
				c0,1,0.7,2.3,1.6,2.8l0.7,0.4l7.3,4.2c0.4,0.3,0.8,0.3,1.1,0.1l0,0l1.2-0.7c0.3-0.2,0.5-0.5,0.5-1v-5.9
				C26.9,10.4,26.2,9.2,25.3,8.7z"/>
			<path class="st46" d="M25,8.7l-7.3-4.2L16.9,4c-0.4-0.3-0.8-0.3-1.1-0.1l-1.2,0.7l0,0c-0.3,0.2-0.5,0.5-0.5,1v5.9
				c0,1,0.7,2.3,1.6,2.8l0.7,0.4l7.3,4.2c0.4,0.3,0.8,0.3,1.1,0.1l0,0l1.2-0.7c0.3-0.2,0.5-0.5,0.5-1v-5.9
				C26.6,10.4,25.9,9.2,25,8.7z"/>
			<path class="st47" d="M24.7,8.7l-7.3-4.2L16.6,4c-0.4-0.3-0.8-0.3-1.1-0.1l-1.2,0.7l0,0c-0.3,0.2-0.5,0.5-0.5,1v5.9
				c0,1,0.7,2.3,1.6,2.8l0.7,0.4l7.3,4.2c0.4,0.3,0.8,0.3,1.1,0.1l0,0l1.2-0.7c0.3-0.2,0.5-0.5,0.5-1v-5.9
				C26.3,10.4,25.6,9.2,24.7,8.7z"/>
			<path class="st48" d="M24.4,8.7L17,4.5L16.3,4c-0.4-0.3-0.8-0.3-1.1-0.1L14,4.6l0,0c-0.3,0.2-0.5,0.5-0.5,1v5.9
				c0,1,0.7,2.3,1.6,2.8l0.7,0.4l7.3,4.2c0.4,0.3,0.8,0.3,1.1,0.1l0,0l1.2-0.7c0.3-0.2,0.5-0.5,0.5-1v-5.9
				C26,10.4,25.3,9.2,24.4,8.7z"/>
			<path class="st49" d="M24.1,8.7l-7.3-4.2L16,4c-0.4-0.3-0.8-0.3-1.1-0.1l-1.2,0.7l0,0c-0.3,0.2-0.5,0.5-0.5,1v5.9
				c0,1,0.7,2.3,1.6,2.8l0.7,0.4l7.3,4.2c0.4,0.3,0.8,0.3,1.1,0.1l0,0l1.2-0.7c0.3-0.2,0.5-0.5,0.5-1v-5.9
				C25.7,10.4,24.9,9.2,24.1,8.7z"/>
			<path class="st50" d="M23.8,8.7l-7.3-4.2L15.7,4c-0.4-0.3-0.8-0.3-1.1-0.1l-1.2,0.7l0,0c-0.3,0.2-0.5,0.5-0.5,1v5.9
				c0,1,0.7,2.3,1.6,2.8l0.7,0.4l7.3,4.2c0.4,0.3,0.8,0.3,1.1,0.1l0,0l1.2-0.7c0.3-0.2,0.5-0.5,0.5-1v-5.9
				C25.4,10.4,24.6,9.2,23.8,8.7z"/>
			<path class="st51" d="M23.5,8.7l-7.3-4.2L15.4,4c-0.4-0.3-0.8-0.3-1.1-0.1l-1.2,0.7l0,0c-0.3,0.2-0.5,0.5-0.5,1v5.9
				c0,1,0.7,2.3,1.6,2.8l0.7,0.4l7.3,4.2c0.4,0.3,0.8,0.3,1.1,0.1l0,0l1.2-0.7c0.3-0.2,0.5-0.5,0.5-1v-5.9
				C25.1,10.4,24.3,9.2,23.5,8.7z"/>
			<path class="st52" d="M23.2,8.7l-7.3-4.2L15.1,4c-0.4-0.3-0.8-0.3-1.1-0.1l-1.2,0.7l0,0c-0.3,0.2-0.5,0.5-0.5,1v5.9
				c0,1,0.7,2.3,1.6,2.8l0.7,0.4L22,19c0.4,0.3,0.8,0.3,1.1,0.1l0,0l1.2-0.7c0.3-0.2,0.5-0.5,0.5-1v-5.9C24.8,10.4,24,9.2,23.2,8.7z
				"/>
			<path class="st53" d="M22.9,8.7l-7.3-4.2L14.8,4c-0.4-0.3-0.8-0.3-1.1-0.1l-1.2,0.7l0,0c-0.3,0.2-0.5,0.5-0.5,1v5.9
				c0,1,0.7,2.3,1.6,2.8l0.7,0.4l7.3,4.2c0.4,0.3,0.8,0.3,1.1,0.1l0,0l1.2-0.7c0.3-0.2,0.5-0.5,0.5-1v-5.9
				C24.5,10.4,23.7,9.2,22.9,8.7z"/>
			<path class="st54" d="M22.6,8.7l-7.3-4.2L14.5,4c-0.4-0.3-0.8-0.3-1.1-0.1l-1.2,0.7l0,0c-0.3,0.2-0.5,0.5-0.5,1v5.9
				c0,1,0.7,2.3,1.6,2.8l0.7,0.4l7.3,4.2c0.4,0.3,0.8,0.3,1.1,0.1l0,0l1.2-0.7c0.3-0.2,0.5-0.5,0.5-1v-5.9
				C24.2,10.4,23.4,9.2,22.6,8.7z"/>
			<path class="st55" d="M22.3,8.7l-7.3-4.2L14.2,4c-0.4-0.3-0.8-0.3-1.1-0.1l-1.2,0.7l0,0c-0.3,0.2-0.5,0.5-0.5,1v5.9
				c0,1,0.7,2.3,1.6,2.8l0.7,0.4l7.3,4.2c0.4,0.3,0.8,0.3,1.1,0.1l0,0l1.2-0.7c0.3-0.2,0.5-0.5,0.5-1v-5.9
				C23.9,10.4,23.1,9.2,22.3,8.7z"/>
			<path class="st56" d="M22,8.7l-7.3-4.2L13.9,4c-0.4-0.3-0.8-0.3-1.1-0.1l-1.2,0.7l0,0c-0.3,0.2-0.5,0.5-0.5,1v5.9
				c0,1,0.7,2.3,1.6,2.8l0.7,0.4l7.3,4.2c0.4,0.3,0.8,0.3,1.1,0.1l0,0l1.2-0.7c0.3-0.2,0.5-0.5,0.5-1v-5.9
				C23.5,10.4,22.8,9.2,22,8.7z"/>
			<path class="st57" d="M21.7,8.7l-7.3-4.2L13.6,4c-0.4-0.3-0.8-0.3-1.1-0.1l-1.2,0.7l0,0c-0.3,0.2-0.5,0.5-0.5,1v5.9
				c0,1,0.7,2.3,1.6,2.8l0.7,0.4l7.3,4.2c0.4,0.3,0.8,0.3,1.1,0.1l0,0l1.2-0.7c0.3-0.2,0.5-0.5,0.5-1v-5.9
				C23.2,10.4,22.5,9.2,21.7,8.7z"/>
			<path class="st58" d="M21.4,8.7L14,4.5L13.3,4c-0.4-0.3-0.8-0.3-1.1-0.1L11,4.6l0,0c-0.3,0.2-0.5,0.5-0.5,1v5.9
				c0,1,0.7,2.3,1.6,2.8l0.7,0.4l7.3,4.2c0.4,0.3,0.8,0.3,1.1,0.1l0,0l1.2-0.7c0.3-0.2,0.5-0.5,0.5-1v-5.9
				C22.9,10.4,22.2,9.2,21.4,8.7z"/>
			<path class="st59" d="M21,8.7l-7.3-4.2L13,4c-0.4-0.3-0.8-0.3-1.1-0.1l-1.2,0.7l0,0c-0.3,0.2-0.5,0.5-0.5,1v5.9
				c0,1,0.7,2.3,1.6,2.8l0.7,0.4l7.3,4.2c0.4,0.3,0.8,0.3,1.1,0.1l0,0l1.2-0.7c0.3-0.2,0.5-0.5,0.5-1v-5.9
				C22.6,10.4,21.9,9.2,21,8.7z"/>
			<path class="st60" d="M20.7,8.7l-7.3-4.2L12.7,4c-0.4-0.3-0.8-0.3-1.1-0.1l-1.2,0.7l0,0c-0.3,0.2-0.5,0.5-0.5,1v5.9
				c0,1,0.7,2.3,1.6,2.8l0.7,0.4l7.3,4.2c0.4,0.3,0.8,0.3,1.1,0.1l0,0l1.2-0.7c0.3-0.2,0.5-0.5,0.5-1v-5.9
				C22.3,10.4,21.6,9.2,20.7,8.7z"/>
			<path class="st61" d="M20.4,8.7l-7.3-4.2L12.4,4c-0.4-0.3-0.8-0.3-1.1-0.1l-1.2,0.7l0,0c-0.3,0.2-0.5,0.5-0.5,1v5.9
				c0,1,0.7,2.3,1.6,2.8l0.7,0.4l7.3,4.2c0.4,0.3,0.8,0.3,1.1,0.1l0,0l1.2-0.7c0.3-0.2,0.5-0.5,0.5-1v-5.9
				C22,10.4,21.3,9.2,20.4,8.7z"/>
			<path class="st62" d="M20.1,8.7l-7.3-4.2L12.1,4c-0.4-0.3-0.8-0.3-1.1-0.1L9.8,4.6l0,0c-0.3,0.2-0.5,0.5-0.5,1v5.9
				c0,1,0.7,2.3,1.6,2.8l0.7,0.4L19,19c0.4,0.3,0.8,0.3,1.1,0.1l0,0l1.2-0.7c0.3-0.2,0.5-0.5,0.5-1v-5.9C21.7,10.4,21,9.2,20.1,8.7z
				"/>
			<path class="st63" d="M19.8,8.7l-7.3-4.2L11.8,4c-0.4-0.3-0.8-0.3-1.1-0.1L9.5,4.6l0,0C9.2,4.8,9,5.1,9,5.6v5.9
				c0,1,0.7,2.3,1.6,2.8l0.7,0.4l7.3,4.2c0.4,0.3,0.8,0.3,1.1,0.1l0,0l1.2-0.7c0.3-0.2,0.5-0.5,0.5-1v-5.9
				C21.4,10.4,20.7,9.2,19.8,8.7z"/>
			<path class="st64" d="M19.5,8.7l-7.3-4.2L11.5,4c-0.4-0.3-0.8-0.3-1.1-0.1L9.2,4.6l0,0c-0.3,0.2-0.5,0.5-0.5,1v5.9
				c0,1,0.7,2.3,1.6,2.8l0.7,0.4l7.3,4.2c0.4,0.3,0.8,0.3,1.1,0.1l0,0l1.2-0.7c0.3-0.2,0.5-0.5,0.5-1v-5.9
				C21.1,10.4,20.4,9.2,19.5,8.7z"/>
			<path class="st65" d="M19.2,8.7l-7.3-4.2L11.2,4c-0.4-0.3-0.8-0.3-1.1-0.1L8.9,4.6l0,0c-0.3,0.2-0.5,0.5-0.5,1v5.9
				c0,1,0.7,2.3,1.6,2.8l0.7,0.4l7.3,4.2c0.4,0.3,0.8,0.3,1.1,0.1l0,0l1.2-0.7c0.3-0.2,0.5-0.5,0.5-1v-5.9
				C20.8,10.4,20.1,9.2,19.2,8.7z"/>
			<path class="st66" d="M18.9,8.7l-7.3-4.2L10.9,4c-0.4-0.3-0.8-0.3-1.1-0.1L8.6,4.6l0,0c-0.3,0.2-0.5,0.5-0.5,1v5.9
				c0,1,0.7,2.3,1.6,2.8l0.7,0.4l7.3,4.2c0.4,0.3,0.8,0.3,1.1,0.1l0,0l1.2-0.7c0.3-0.2,0.5-0.5,0.5-1v-5.9
				C20.5,10.4,19.8,9.2,18.9,8.7z"/>
			<path class="st67" d="M18.6,8.7l-7.3-4.2L10.6,4c-0.4-0.3-0.8-0.3-1.1-0.1L8.3,4.6l0,0C8,4.8,7.8,5.1,7.8,5.6v5.9
				c0,1,0.7,2.3,1.6,2.8l0.7,0.4l7.3,4.2c0.4,0.3,0.8,0.3,1.1,0.1l0,0l1.2-0.7c0.3-0.2,0.5-0.5,0.5-1v-5.9
				C20.2,10.4,19.5,9.2,18.6,8.7z"/>
			<path class="st68" d="M18.3,8.7L11,4.5L10.3,4C9.9,3.8,9.5,3.8,9.2,3.9L8,4.6l0,0c-0.3,0.2-0.5,0.5-0.5,1v5.9
				c0,1,0.7,2.3,1.6,2.8l0.7,0.4l7.3,4.2c0.4,0.3,0.8,0.3,1.1,0.1l0,0l1.2-0.7c0.3-0.2,0.5-0.5,0.5-1v-5.9
				C19.9,10.4,19.2,9.2,18.3,8.7z"/>
			<path class="st69" d="M18,8.7l-7.3-4.2L10,4C9.6,3.8,9.2,3.8,8.9,3.9L7.7,4.6l0,0c-0.3,0.2-0.5,0.5-0.5,1v5.9
				c0,1,0.7,2.3,1.6,2.8l0.7,0.4l7.3,4.2c0.4,0.3,0.8,0.3,1.1,0.1l0,0l1.2-0.7c0.3-0.2,0.5-0.5,0.5-1v-5.9
				C19.6,10.4,18.9,9.2,18,8.7z"/>
			<path class="st70" d="M17.7,8.7l-7.3-4.2L9.7,4C9.3,3.8,8.9,3.8,8.6,3.9L7.4,4.6l0,0c-0.3,0.2-0.5,0.5-0.5,1v5.9
				c0,1,0.7,2.3,1.6,2.8l0.7,0.4l7.3,4.2c0.4,0.3,0.8,0.3,1.1,0.1l0,0l1.2-0.7c0.3-0.2,0.5-0.5,0.5-1v-5.9
				C19.3,10.4,18.6,9.2,17.7,8.7z"/>
		</g>
	</g>
	<g>
		<g>
			<g>
				<g>
					<g>
						<g>
							<g>
								<path class="st71" d="M6.9,5.6v5.9c0,1,0.7,2.3,1.6,2.8l0.7,0.4l7.3,4.2c0.4,0.3,0.8,0.3,1.1,0.1c0.3-0.2,0.5-0.5,0.5-1
									v-5.9c0-1-0.7-2.3-1.6-2.8L9.2,5.1L8.5,4.7C8.1,4.5,7.7,4.4,7.4,4.6C7.1,4.8,6.9,5.1,6.9,5.6z"/>
							</g>
						</g>
					</g>
				</g>
			</g>
			<linearGradient id="SVGID_4_" gradientUnits="userSpaceOnUse" x1="10.5556" y1="2.7903" x2="19.3868" y2="18.0863">
				<stop  offset="0" style="stop-color:#383838"/>
				<stop  offset="9.571359e-02" style="stop-color:#3D3B3C"/>
				<stop  offset="0.3006" style="stop-color:#403D3E"/>
				<stop  offset="0.5494" style="stop-color:#302D2E"/>
				<stop  offset="0.7441" style="stop-color:#2A2728"/>
				<stop  offset="1" style="stop-color:#000000"/>
			</linearGradient>
			<path class="st72" d="M17.7,8.7l-7.3-4.2L9.7,4C9.3,3.8,8.9,3.8,8.6,3.9L7.4,4.6c0.3-0.2,0.7-0.1,1.1,0.1l0.7,0.4l7.3,4.2
				c0.9,0.5,1.6,1.7,1.6,2.8V18c0,0.5-0.2,0.9-0.5,1l1.2-0.7c0.3-0.2,0.5-0.5,0.5-1v-5.9C19.3,10.4,18.6,9.2,17.7,8.7z"/>
		</g>
		<g>
			<g>
				<path class="st73" d="M17.3,13.3c-0.1-0.1-0.1-0.1-0.2-0.1c-0.1,0-0.1-0.1-0.2-0.1c-0.1,0-0.2,0.1-0.2,0.3
					c0,0.2,0.1,0.4,0.2,0.6c0.1,0.1,0.1,0.1,0.2,0.2c0.1,0,0.1,0.1,0.2,0.1c0.1,0,0.2-0.1,0.3-0.2c0,0,0-0.1,0-0.1c0,0,0-0.1,0-0.1
					C17.5,13.6,17.4,13.4,17.3,13.3z"/>
			</g>
		</g>
		<g>
			<g>
				<path class="st73" d="M17.3,16.4c-0.1-0.1-0.1-0.1-0.2-0.1c-0.1,0-0.1-0.1-0.2-0.1c-0.1,0-0.2,0.1-0.2,0.3
					c0,0.2,0.1,0.4,0.2,0.6c0.1,0.1,0.1,0.1,0.2,0.2c0.1,0,0.1,0.1,0.2,0.1c0.1,0,0.2-0.1,0.3-0.2c0,0,0-0.1,0-0.1c0,0,0-0.1,0-0.1
					C17.5,16.8,17.4,16.6,17.3,16.4z"/>
			</g>
		</g>
		<g>
			<g>
				<path class="st73" d="M17.3,11.7c-0.1-0.1-0.1-0.1-0.2-0.1c-0.1,0-0.1-0.1-0.2-0.1c-0.1,0-0.2,0.1-0.2,0.3
					c0,0.2,0.1,0.4,0.2,0.6c0.1,0.1,0.1,0.1,0.2,0.2c0.1,0,0.1,0.1,0.2,0.1c0.1,0,0.2-0.1,0.3-0.2c0,0,0-0.1,0-0.1c0,0,0-0.1,0-0.1
					C17.5,12.1,17.4,11.9,17.3,11.7z"/>
			</g>
		</g>
		<g>
			<g>
				<path class="st73" d="M17.3,14.9c-0.1-0.1-0.1-0.1-0.2-0.1c-0.1,0-0.1-0.1-0.2-0.1c-0.1,0-0.2,0.1-0.2,0.3
					c0,0.2,0.1,0.4,0.2,0.6c0.1,0.1,0.1,0.1,0.2,0.2c0.1,0,0.1,0.1,0.2,0.1c0.1,0,0.2-0.1,0.3-0.2c0,0,0-0.1,0-0.1c0,0,0-0.1,0-0.1
					C17.5,15.2,17.4,15,17.3,14.9z"/>
			</g>
		</g>
		<g>
			<g>
				<g>
					<path class="st74" d="M14.8,9.2L9,5.8C8.2,5.3,7.5,5.8,7.5,6.7v4.4c0,1,0.7,2.1,1.5,2.6l5.9,3.4c0.8,0.5,1.5,0.1,1.5-0.9v-4.4
						C16.3,10.8,15.7,9.7,14.8,9.2z"/>
				</g>
			</g>
			<path class="st75" d="M14.8,9.9L9,6.5C8.5,6.2,8.1,6.4,8.1,7v4.4C8.1,12,8.5,12.7,9,13l5.9,3.4c0.5,0.3,0.9,0,0.9-0.6v-4.4
				C15.7,10.9,15.3,10.2,14.8,9.9z M12.1,11.3c0-0.3,0.2-0.4,0.5-0.3c0.3,0.2,0.5,0.5,0.5,0.8c0,0.3-0.2,0.4-0.5,0.3
				C12.3,12,12.1,11.6,12.1,11.3z M12.7,12.5c0.4,0.2,0.7,0,0.7-0.5c0-0.5-0.3-1.1-0.8-1.3c0,0,0,0-0.1,0l-0.1-0.5l2,1.1l1,2.9v0.3
				l-2.7-1.6L12.7,12.5z M14.8,11.5l0.7,0.4v1.6L14.8,11.5z M15.5,11.3v0.2L9.7,8.2L10,7.4l4.8,2.8C15.2,10.4,15.5,10.9,15.5,11.3z
				 M8.4,7.2c0-0.4,0.3-0.6,0.6-0.4l0.7,0.4L9.4,8l-1-0.6V7.2z M8.4,10.6V9.2l0.3-0.7L8.4,8.3l0,0.1V7.8l0.9,0.5L8.4,10.6z
				 M9.7,13.1L9,12l-0.2,0.1l0.5,0.8L9,12.7c-0.3-0.2-0.6-0.7-0.6-1.1v0l0.5-1.2l2.1,3.5L9.7,13.1z M11.4,14.1l-2.4-4l0.6-1.6
				l2.6,1.5l0.1,0.6c-0.2,0-0.4,0.2-0.4,0.5c0,0.4,0.2,0.9,0.6,1.2l0.2,2.5L11.4,14.1z M15.5,15.7c0,0.4-0.3,0.6-0.6,0.4l-0.5-0.3
				l-0.1-1l-0.3-0.1l0.1,0.9L12.9,15l-0.2-1.7l2.7,1.6V15.7z M10.4,11l1,1.4l-0.2,0.2l-1-1.4L10.4,11z M11.3,10.8l0.3,0.2v0.9
				l-0.3-0.2V10.8z M11.4,10.4l-1.3-0.7V9.4l1.3,0.7V10.4z M14.1,11.8l-0.9-0.5V11l0.9,0.5V11.8z M14.3,12.2l0.4,1.3l-0.3,0L14,12.2
				L14.3,12.2z M11.8,9.1l-1.4-0.8V8l1.4,0.8V9.1z M14.4,10.7l-1.6-0.9V9.5l1.6,0.9V10.7z"/>
		</g>
		<path class="st76" d="M12.6,12.3c0.3,0.2,0.6,0,0.6-0.4c0-0.4-0.3-0.9-0.6-1.1c-0.3-0.2-0.6,0-0.6,0.4
			C11.9,11.6,12.2,12.1,12.6,12.3z"/>
		<path class="st77" d="M12.6,12.1c0.3,0.2,0.5,0,0.5-0.3s-0.2-0.7-0.5-0.8c-0.3-0.2-0.5,0-0.5,0.3S12.3,12,12.6,12.1z"/>
	</g>
</g>
</svg>
