<?xml version="1.0" encoding="utf-8"?>
<!-- Generator: Adobe Illustrator 24.2.1, SVG Export Plug-In . SVG Version: 6.00 Build 0)  -->
<svg version="1.1" id="Layer_2" xmlns="http://www.w3.org/2000/svg" xmlns:xlink="http://www.w3.org/1999/xlink" x="0px" y="0px"
	 viewBox="0 0 28.3 28.3" style="enable-background:new 0 0 28.3 28.3;" xml:space="preserve">
<style type="text/css">
	.st0{opacity:0;fill:#FFFFFF;}
	.st1{opacity:3.030303e-02;fill:#FCFCFC;}
	.st2{opacity:6.060606e-02;fill:#F9F9F9;}
	.st3{opacity:9.090909e-02;fill:#F5F5F5;}
	.st4{opacity:0.1212;fill:#F2F2F2;}
	.st5{opacity:0.1515;fill:#EFEFEF;}
	.st6{opacity:0.1818;fill:#ECECEC;}
	.st7{opacity:0.2121;fill:#E8E8E8;}
	.st8{opacity:0.2424;fill:#E5E5E5;}
	.st9{opacity:0.2727;fill:#E2E2E2;}
	.st10{opacity:0.303;fill:#DFDFDF;}
	.st11{opacity:0.3333;fill:#DBDBDB;}
	.st12{opacity:0.3636;fill:#D8D8D8;}
	.st13{opacity:0.3939;fill:#D5D5D5;}
	.st14{opacity:0.4242;fill:#D2D2D2;}
	.st15{opacity:0.4545;fill:#CECECE;}
	.st16{opacity:0.4848;fill:#CBCBCB;}
	.st17{opacity:0.5152;fill:#C8C8C8;}
	.st18{opacity:0.5455;fill:#C5C5C5;}
	.st19{opacity:0.5758;fill:#C1C1C1;}
	.st20{opacity:0.6061;fill:#BEBEBE;}
	.st21{opacity:0.6364;fill:#BBBBBB;}
	.st22{opacity:0.6667;fill:#B8B8B8;}
	.st23{opacity:0.697;fill:#B4B4B4;}
	.st24{opacity:0.7273;fill:#B1B1B1;}
	.st25{opacity:0.7576;fill:#AEAEAE;}
	.st26{opacity:0.7879;fill:#ABABAB;}
	.st27{opacity:0.8182;fill:#A7A7A7;}
	.st28{opacity:0.8485;fill:#A4A4A4;}
	.st29{opacity:0.8788;fill:#A1A1A1;}
	.st30{opacity:0.9091;fill:#9E9E9E;}
	.st31{opacity:0.9394;fill:#9A9A9A;}
	.st32{opacity:0.9697;fill:#979797;}
	.st33{fill:#949494;}
	.st34{fill:url(#SVGID_1_);}
	.st35{fill:#ABC700;}
	.st36{clip-path:url(#SVGID_3_);}
	.st37{opacity:3.030303e-02;fill:#FAFBF7;}
	.st38{opacity:6.060606e-02;fill:#F5F7F0;}
	.st39{opacity:9.090909e-02;fill:#F0F3E8;}
	.st40{opacity:0.1212;fill:#EBEFE0;}
	.st41{opacity:0.1515;fill:#E7EBD8;}
	.st42{opacity:0.1818;fill:#E2E7D1;}
	.st43{opacity:0.2121;fill:#DDE3C9;}
	.st44{opacity:0.2424;fill:#D8DFC1;}
	.st45{opacity:0.2727;fill:#D3DCB9;}
	.st46{opacity:0.303;fill:#CED8B2;}
	.st47{opacity:0.3333;fill:#C9D4AA;}
	.st48{opacity:0.3636;fill:#C4D0A2;}
	.st49{opacity:0.3939;fill:#C0CC9B;}
	.st50{opacity:0.4242;fill:#BBC893;}
	.st51{opacity:0.4545;fill:#B6C48B;}
	.st52{opacity:0.4848;fill:#B1C083;}
	.st53{opacity:0.5152;fill:#ACBC7C;}
	.st54{opacity:0.5455;fill:#A7B874;}
	.st55{opacity:0.5758;fill:#A2B46C;}
	.st56{opacity:0.6061;fill:#9DB064;}
	.st57{opacity:0.6364;fill:#99AC5D;}
	.st58{opacity:0.6667;fill:#94A855;}
	.st59{opacity:0.697;fill:#8FA44D;}
	.st60{opacity:0.7273;fill:#8AA046;}
	.st61{opacity:0.7576;fill:#859D3E;}
	.st62{opacity:0.7879;fill:#809936;}
	.st63{opacity:0.8182;fill:#7B952E;}
	.st64{opacity:0.8485;fill:#769127;}
	.st65{opacity:0.8788;fill:#728D1F;}
	.st66{opacity:0.9091;fill:#6D8917;}
	.st67{opacity:0.9394;fill:#68850F;}
	.st68{opacity:0.9697;fill:#638108;}
	.st69{fill:#5E7D00;}
	.st70{fill:#2A2A2A;}
	.st71{fill:url(#SVGID_4_);}
	.st72{fill:url(#SVGID_5_);}
	.st73{fill:url(#SVGID_6_);}
	.st74{fill:url(#SVGID_7_);}
	.st75{fill:url(#SVGID_8_);}
	.st76{fill:url(#SVGID_9_);}
	.st77{fill:url(#SVGID_10_);}
	.st78{fill:url(#SVGID_11_);}
	.st79{fill:#FFE732;}
</style>
<g>
	<g>
		<path class="st0" d="M23,12.9c-5.3-3.1-10.8-3.1-16.1,0l0,0c-2.6,1.5-4,3.1-4,4.6c0,1.6,1.3,3.1,4,4.6c5.3,3.1,10.8,3.1,16.1,0
			c2.6-1.5,4-3.1,4-4.6S25.7,14.5,23,12.9z"/>
		<path class="st1" d="M23,12.9c-5.3-3.1-10.8-3.1-16.1,0l0,0c-2.6,1.5-4,3.1-4,4.6c0,1.6,1.3,3.1,4,4.6c5.3,3.1,10.8,3.1,16.1,0
			c2.6-1.5,4-3.1,4-4.6C27,16,25.6,14.5,23,12.9z"/>
		<path class="st2" d="M22.9,12.9c-5.3-3.1-10.8-3.1-16.1,0l0,0c-2.6,1.5-4,3.1-4,4.6c0,1.6,1.3,3.1,4,4.6c5.3,3.1,10.8,3.1,16.1,0
			c2.6-1.5,4-3.1,4-4.6C26.9,16,25.6,14.5,22.9,12.9z"/>
		<path class="st3" d="M22.9,12.9c-5.3-3.1-10.8-3.1-16.1,0l0,0c-2.6,1.5-4,3.1-4,4.6c0,1.6,1.3,3.1,4,4.6c5.3,3.1,10.8,3.1,16.1,0
			c2.6-1.5,4-3.1,4-4.6C26.9,16,25.5,14.5,22.9,12.9z"/>
		<path class="st4" d="M22.8,12.9c-5.3-3.1-10.8-3.1-16.1,0l0,0c-2.6,1.5-4,3.1-4,4.6c0,1.6,1.3,3.1,4,4.6c5.3,3.1,10.8,3.1,16.1,0
			c2.6-1.5,4-3.1,4-4.6C26.8,16,25.5,14.5,22.8,12.9z"/>
		<path class="st5" d="M22.8,12.9c-5.3-3.1-10.8-3.1-16.1,0l0,0c-2.6,1.5-4,3.1-4,4.6c0,1.6,1.3,3.1,4,4.6c5.3,3.1,10.8,3.1,16.1,0
			c2.6-1.5,4-3.1,4-4.6C26.8,16,25.4,14.5,22.8,12.9z"/>
		<path class="st6" d="M22.7,12.9c-5.3-3.1-10.8-3.1-16.1,0l0,0c-2.6,1.5-4,3.1-4,4.6c0,1.6,1.3,3.1,4,4.6c5.3,3.1,10.8,3.1,16.1,0
			c2.6-1.5,4-3.1,4-4.6C26.7,16,25.4,14.5,22.7,12.9z"/>
		<path class="st7" d="M22.7,12.9c-5.3-3.1-10.8-3.1-16.1,0l0,0c-2.6,1.5-4,3.1-4,4.6c0,1.6,1.3,3.1,4,4.6c5.3,3.1,10.8,3.1,16.1,0
			c2.6-1.5,4-3.1,4-4.6C26.7,16,25.3,14.5,22.7,12.9z"/>
		<path class="st8" d="M22.6,12.9c-5.3-3.1-10.8-3.1-16.1,0l0,0c-2.6,1.5-4,3.1-4,4.6c0,1.6,1.3,3.1,4,4.6c5.3,3.1,10.8,3.1,16.1,0
			c2.6-1.5,4-3.1,4-4.6C26.6,16,25.3,14.5,22.6,12.9z"/>
		<path class="st9" d="M22.6,12.9c-5.3-3.1-10.8-3.1-16.1,0l0,0c-2.6,1.5-4,3.1-4,4.6c0,1.6,1.3,3.1,4,4.6c5.3,3.1,10.8,3.1,16.1,0
			c2.6-1.5,4-3.1,4-4.6C26.6,16,25.2,14.5,22.6,12.9z"/>
		<path class="st10" d="M22.5,12.9c-5.3-3.1-10.8-3.1-16.1,0l0,0c-2.6,1.5-4,3.1-4,4.6c0,1.6,1.3,3.1,4,4.6c5.3,3.1,10.8,3.1,16.1,0
			c2.6-1.5,4-3.1,4-4.6C26.5,16,25.2,14.5,22.5,12.9z"/>
		<path class="st11" d="M22.5,12.9c-5.3-3.1-10.8-3.1-16.1,0l0,0c-2.6,1.5-4,3.1-4,4.6c0,1.6,1.3,3.1,4,4.6c5.3,3.1,10.8,3.1,16.1,0
			c2.6-1.5,4-3.1,4-4.6C26.5,16,25.1,14.5,22.5,12.9z"/>
		<path class="st12" d="M22.4,12.9c-5.3-3.1-10.8-3.1-16.1,0l0,0c-2.6,1.5-4,3.1-4,4.6c0,1.6,1.3,3.1,4,4.6c5.3,3.1,10.8,3.1,16.1,0
			c2.6-1.5,4-3.1,4-4.6C26.4,16,25.1,14.5,22.4,12.9z"/>
		<path class="st13" d="M22.4,12.9c-5.3-3.1-10.8-3.1-16.1,0l0,0c-2.6,1.5-4,3.1-4,4.6c0,1.6,1.3,3.1,4,4.6c5.3,3.1,10.8,3.1,16.1,0
			c2.6-1.5,4-3.1,4-4.6C26.4,16,25,14.5,22.4,12.9z"/>
		<path class="st14" d="M22.3,12.9c-5.3-3.1-10.8-3.1-16.1,0l0,0c-2.6,1.5-4,3.1-4,4.6c0,1.6,1.3,3.1,4,4.6c5.3,3.1,10.8,3.1,16.1,0
			c2.6-1.5,4-3.1,4-4.6C26.3,16,25,14.5,22.3,12.9z"/>
		<path class="st15" d="M22.3,12.9c-5.3-3.1-10.8-3.1-16.1,0l0,0c-2.6,1.5-4,3.1-4,4.6c0,1.6,1.3,3.1,4,4.6c5.3,3.1,10.8,3.1,16.1,0
			c2.6-1.5,4-3.1,4-4.6C26.3,16,24.9,14.5,22.3,12.9z"/>
		<path class="st16" d="M22.2,12.9c-5.3-3.1-10.8-3.1-16.1,0l0,0c-2.6,1.5-4,3.1-4,4.6c0,1.6,1.3,3.1,4,4.6c5.3,3.1,10.8,3.1,16.1,0
			c2.6-1.5,4-3.1,4-4.6C26.2,16,24.9,14.5,22.2,12.9z"/>
		<path class="st17" d="M22.2,12.9c-5.3-3.1-10.8-3.1-16.1,0l0,0c-2.6,1.5-4,3.1-4,4.6c0,1.6,1.3,3.1,4,4.6c5.3,3.1,10.8,3.1,16.1,0
			c2.6-1.5,4-3.1,4-4.6C26.2,16,24.8,14.5,22.2,12.9z"/>
		<path class="st18" d="M22.1,12.9c-5.3-3.1-10.8-3.1-16.1,0l0,0c-2.6,1.5-4,3.1-4,4.6c0,1.6,1.3,3.1,4,4.6c5.3,3.1,10.8,3.1,16.1,0
			c2.6-1.5,4-3.1,4-4.6C26.1,16,24.8,14.5,22.1,12.9z"/>
		<path class="st19" d="M22.1,12.9c-5.3-3.1-10.8-3.1-16.1,0l0,0c-2.6,1.5-4,3.1-4,4.6c0,1.6,1.3,3.1,4,4.6c5.3,3.1,10.8,3.1,16.1,0
			c2.6-1.5,4-3.1,4-4.6C26.1,16,24.7,14.5,22.1,12.9z"/>
		<path class="st20" d="M22,12.9c-5.3-3.1-10.8-3.1-16.1,0l0,0c-2.6,1.5-4,3.1-4,4.6c0,1.6,1.3,3.1,4,4.6c5.3,3.1,10.8,3.1,16.1,0
			c2.6-1.5,4-3.1,4-4.6C26,16,24.7,14.5,22,12.9z"/>
		<path class="st21" d="M22,12.9c-5.3-3.1-10.8-3.1-16.1,0l0,0c-2.6,1.5-4,3.1-4,4.6c0,1.6,1.3,3.1,4,4.6c5.3,3.1,10.8,3.1,16.1,0
			c2.6-1.5,4-3.1,4-4.6C26,16,24.6,14.5,22,12.9z"/>
		<path class="st22" d="M21.9,12.9c-5.3-3.1-10.8-3.1-16.1,0l0,0c-2.6,1.5-4,3.1-4,4.6c0,1.6,1.3,3.1,4,4.6c5.3,3.1,10.8,3.1,16.1,0
			c2.6-1.5,4-3.1,4-4.6C25.9,16,24.6,14.5,21.9,12.9z"/>
		<path class="st23" d="M21.9,12.9c-5.3-3.1-10.8-3.1-16.1,0l0,0c-2.6,1.5-4,3.1-4,4.6c0,1.6,1.3,3.1,4,4.6c5.3,3.1,10.8,3.1,16.1,0
			c2.6-1.5,4-3.1,4-4.6C25.9,16,24.5,14.5,21.9,12.9z"/>
		<path class="st24" d="M21.8,12.9c-5.3-3.1-10.8-3.1-16.1,0l0,0c-2.6,1.5-4,3.1-4,4.6c0,1.6,1.3,3.1,4,4.6c5.3,3.1,10.8,3.1,16.1,0
			c2.6-1.5,4-3.1,4-4.6C25.8,16,24.5,14.5,21.8,12.9z"/>
		<path class="st25" d="M21.8,12.9c-5.3-3.1-10.8-3.1-16.1,0l0,0c-2.6,1.5-4,3.1-4,4.6c0,1.6,1.3,3.1,4,4.6c5.3,3.1,10.8,3.1,16.1,0
			c2.6-1.5,4-3.1,4-4.6C25.8,16,24.4,14.5,21.8,12.9z"/>
		<path class="st26" d="M21.7,12.9c-5.3-3.1-10.8-3.1-16.1,0l0,0c-2.6,1.5-4,3.1-4,4.6c0,1.6,1.3,3.1,4,4.6c5.3,3.1,10.8,3.1,16.1,0
			c2.6-1.5,4-3.1,4-4.6C25.7,16,24.4,14.5,21.7,12.9z"/>
		<path class="st27" d="M21.7,12.9c-5.3-3.1-10.8-3.1-16.1,0l0,0c-2.6,1.5-4,3.1-4,4.6c0,1.6,1.3,3.1,4,4.6c5.3,3.1,10.8,3.1,16.1,0
			c2.6-1.5,4-3.1,4-4.6C25.7,16,24.3,14.5,21.7,12.9z"/>
		<path class="st28" d="M21.6,12.9c-5.3-3.1-10.8-3.1-16.1,0l0,0c-2.6,1.5-4,3.1-4,4.6c0,1.6,1.3,3.1,4,4.6c5.3,3.1,10.8,3.1,16.1,0
			c2.6-1.5,4-3.1,4-4.6C25.6,16,24.3,14.5,21.6,12.9z"/>
		<path class="st29" d="M21.6,12.9c-5.3-3.1-10.8-3.1-16.1,0l0,0c-2.6,1.5-4,3.1-4,4.6c0,1.6,1.3,3.1,4,4.6c5.3,3.1,10.8,3.1,16.1,0
			c2.6-1.5,4-3.1,4-4.6C25.6,16,24.2,14.5,21.6,12.9z"/>
		<path class="st30" d="M21.5,12.9c-5.3-3.1-10.8-3.1-16.1,0l0,0c-2.6,1.5-4,3.1-4,4.6c0,1.6,1.3,3.1,4,4.6c5.3,3.1,10.8,3.1,16.1,0
			c2.6-1.5,4-3.1,4-4.6C25.5,16,24.2,14.5,21.5,12.9z"/>
		<path class="st31" d="M21.5,12.9c-5.3-3.1-10.8-3.1-16.1,0l0,0c-2.6,1.5-4,3.1-4,4.6c0,1.6,1.3,3.1,4,4.6c5.3,3.1,10.8,3.1,16.1,0
			c2.6-1.5,4-3.1,4-4.6C25.5,16,24.1,14.5,21.5,12.9z"/>
		<path class="st32" d="M21.4,12.9c-5.3-3.1-10.8-3.1-16.1,0l0,0c-2.6,1.5-4,3.1-4,4.6c0,1.6,1.3,3.1,4,4.6c5.3,3.1,10.8,3.1,16.1,0
			c2.6-1.5,4-3.1,4-4.6C25.4,16,24.1,14.5,21.4,12.9z"/>
		<path class="st33" d="M21.4,12.9c-5.3-3.1-10.8-3.1-16.1,0l0,0c-2.6,1.5-4,3.1-4,4.6c0,1.6,1.3,3.1,4,4.6c5.3,3.1,10.8,3.1,16.1,0
			c2.6-1.5,4-3.1,4-4.6C25.4,16,24,14.5,21.4,12.9z"/>
	</g>
	<g>
		<linearGradient id="SVGID_1_" gradientUnits="userSpaceOnUse" x1="1.3676" y1="19.8667" x2="25.361" y2="19.8667">
			<stop  offset="0" style="stop-color:#C2DD00"/>
			<stop  offset="9.571359e-02" style="stop-color:#C7E000"/>
			<stop  offset="0.3006" style="stop-color:#CAE200"/>
			<stop  offset="0.5494" style="stop-color:#BAD200"/>
			<stop  offset="0.7441" style="stop-color:#B4CC00"/>
			<stop  offset="1" style="stop-color:#8AA500"/>
		</linearGradient>
		<path class="st34" d="M21.4,19.9c-5.3,3.1-10.8,3.1-16.1,0c-2.6-1.5-4-3.1-4-4.6v2.3c0,1.6,1.3,3.1,4,4.6c5.3,3.1,10.8,3.1,16.1,0
			c2.6-1.5,4-3.1,4-4.6v-2.3C25.4,16.8,24,18.4,21.4,19.9z"/>
		<path class="st35" d="M21.4,10.6c-5.3-3.1-10.8-3.1-16.1,0l0,0c-2.6,1.5-4,3.1-4,4.6s1.3,3.1,4,4.6c5.3,3.1,10.8,3.1,16.1,0
			c2.6-1.5,4-3.1,4-4.6S24,12.1,21.4,10.6z"/>
	</g>
	<g>
		<defs>
			<path id="SVGID_2_" d="M21.4,10.6c-5.3-3.1-10.8-3.1-16.1,0l0,0c-2.6,1.5-4,3.1-4,4.6s1.3,3.1,4,4.6c5.3,3.1,10.8,3.1,16.1,0
				c2.6-1.5,4-3.1,4-4.6S24,12.1,21.4,10.6z"/>
		</defs>
		<clipPath id="SVGID_3_">
			<use xlink:href="#SVGID_2_"  style="overflow:visible;"/>
		</clipPath>
		<g class="st36">
			<path class="st0" d="M20,16.6c0.2,0.1,0.4,0.2,0.6,0.3c0.1,0,0.2,0.1,0.3,0.1c0.3,0.1,0.5,0.2,0.8,0.2c0.2,0,0.4,0.1,0.6,0.1
				c0.3,0,0.7,0.1,1,0.1c1.2,0,2.4-0.3,3.3-0.8c0.9-0.5,1.4-1.2,1.4-1.9v-0.6c0,0.1,0,0.2,0,0.3v0c0-0.1,0-0.2,0-0.3
				c0-0.3-0.1-0.7-0.3-1l0-1.1c0.2-0.3,0.3-0.7,0.3-1v-0.6c0,0.3-0.1,0.7-0.3,1l0,0c0.2-0.3,0.3-0.7,0.3-1s-0.1-0.7-0.3-1l0-1.1
				c0.2-0.3,0.3-0.7,0.3-1V6.5c0-0.7-0.5-1.4-1.4-1.9c-1.8-1.1-4.8-1.1-6.7,0c-0.9,0.5-1.4,1.2-1.4,1.9l0,0v0.6c0,0.3,0.1,0.7,0.3,1
				v1.1c-0.2,0.3-0.3,0.7-0.3,1v0v0.6c0,0.3,0.1,0.7,0.3,1v1.1c-0.2,0.3-0.3,0.7-0.3,1v0v0.6v0C18.6,15.4,19.1,16.1,20,16.6z"/>
			<path class="st37" d="M19.7,16.6c0.2,0.1,0.4,0.2,0.6,0.3c0.1,0,0.2,0.1,0.3,0.1c0.3,0.1,0.5,0.2,0.8,0.2c0.2,0,0.4,0.1,0.6,0.1
				c0.3,0,0.7,0.1,1,0.1c1.2,0,2.4-0.3,3.3-0.8c0.9-0.5,1.4-1.2,1.4-1.9v-0.6c0,0.1,0,0.2,0,0.3v0c0-0.1,0-0.2,0-0.3
				c0-0.3-0.1-0.7-0.3-1l0-1.1c0.2-0.3,0.3-0.7,0.3-1v-0.6c0,0.3-0.1,0.7-0.3,1l0,0c0.2-0.3,0.3-0.7,0.3-1s-0.1-0.7-0.3-1l0-1.1
				c0.2-0.3,0.3-0.7,0.3-1V6.5c0-0.7-0.5-1.4-1.4-1.9c-1.8-1.1-4.8-1.1-6.7,0c-0.9,0.5-1.4,1.2-1.4,1.9l0,0v0.6c0,0.3,0.1,0.7,0.3,1
				v1.1c-0.2,0.3-0.3,0.7-0.3,1v0v0.6c0,0.3,0.1,0.7,0.3,1v1.1c-0.2,0.3-0.3,0.7-0.3,1v0v0.6v0C18.3,15.4,18.8,16.1,19.7,16.6z"/>
			<path class="st38" d="M19.4,16.6c0.2,0.1,0.4,0.2,0.6,0.3c0.1,0,0.2,0.1,0.3,0.1c0.3,0.1,0.5,0.2,0.8,0.2c0.2,0,0.4,0.1,0.6,0.1
				c0.3,0,0.7,0.1,1,0.1c1.2,0,2.4-0.3,3.3-0.8c0.9-0.5,1.4-1.2,1.4-1.9v-0.6c0,0.1,0,0.2,0,0.3v0c0-0.1,0-0.2,0-0.3
				c0-0.3-0.1-0.7-0.3-1l0-1.1c0.2-0.3,0.3-0.7,0.3-1v-0.6c0,0.3-0.1,0.7-0.3,1l0,0c0.2-0.3,0.3-0.7,0.3-1s-0.1-0.7-0.3-1l0-1.1
				c0.2-0.3,0.3-0.7,0.3-1V6.5c0-0.7-0.5-1.4-1.4-1.9c-1.8-1.1-4.8-1.1-6.7,0C18.5,5.2,18,5.8,18,6.5l0,0v0.6c0,0.3,0.1,0.7,0.3,1
				v1.1c-0.2,0.3-0.3,0.7-0.3,1v0v0.6c0,0.3,0.1,0.7,0.3,1v1.1c-0.2,0.3-0.3,0.7-0.3,1v0v0.6v0C18,15.4,18.5,16.1,19.4,16.6z"/>
			<path class="st39" d="M19.1,16.6c0.2,0.1,0.4,0.2,0.6,0.3c0.1,0,0.2,0.1,0.3,0.1c0.3,0.1,0.5,0.2,0.8,0.2c0.2,0,0.4,0.1,0.6,0.1
				c0.3,0,0.7,0.1,1,0.1c1.2,0,2.4-0.3,3.3-0.8c0.9-0.5,1.4-1.2,1.4-1.9v-0.6c0,0.1,0,0.2,0,0.3v0c0-0.1,0-0.2,0-0.3
				c0-0.3-0.1-0.7-0.3-1l0-1.1c0.2-0.3,0.3-0.7,0.3-1v-0.6c0,0.3-0.1,0.7-0.3,1l0,0c0.2-0.3,0.3-0.7,0.3-1s-0.1-0.7-0.3-1l0-1.1
				c0.2-0.3,0.3-0.7,0.3-1V6.5c0-0.7-0.5-1.4-1.4-1.9c-1.8-1.1-4.8-1.1-6.7,0c-0.9,0.5-1.4,1.2-1.4,1.9l0,0v0.6c0,0.3,0.1,0.7,0.3,1
				v1.1c-0.2,0.3-0.3,0.7-0.3,1v0v0.6c0,0.3,0.1,0.7,0.3,1v1.1c-0.2,0.3-0.3,0.7-0.3,1v0v0.6v0C17.7,15.4,18.2,16.1,19.1,16.6z"/>
			<path class="st40" d="M18.8,16.6c0.2,0.1,0.4,0.2,0.6,0.3c0.1,0,0.2,0.1,0.3,0.1c0.3,0.1,0.5,0.2,0.8,0.2c0.2,0,0.4,0.1,0.6,0.1
				c0.3,0,0.7,0.1,1,0.1c1.2,0,2.4-0.3,3.3-0.8c0.9-0.5,1.4-1.2,1.4-1.9v-0.6c0,0.1,0,0.2,0,0.3v0c0-0.1,0-0.2,0-0.3
				c0-0.3-0.1-0.7-0.3-1l0-1.1c0.2-0.3,0.3-0.7,0.3-1v-0.6c0,0.3-0.1,0.7-0.3,1l0,0c0.2-0.3,0.3-0.7,0.3-1s-0.1-0.7-0.3-1l0-1.1
				c0.2-0.3,0.3-0.7,0.3-1V6.5c0-0.7-0.5-1.4-1.4-1.9c-1.8-1.1-4.8-1.1-6.7,0c-0.9,0.5-1.4,1.2-1.4,1.9l0,0v0.6c0,0.3,0.1,0.7,0.3,1
				v1.1c-0.2,0.3-0.3,0.7-0.3,1v0v0.6c0,0.3,0.1,0.7,0.3,1v1.1c-0.2,0.3-0.3,0.7-0.3,1v0v0.6v0C17.4,15.4,17.9,16.1,18.8,16.6z"/>
			<path class="st41" d="M18.5,16.6c0.2,0.1,0.4,0.2,0.6,0.3c0.1,0,0.2,0.1,0.3,0.1c0.3,0.1,0.5,0.2,0.8,0.2c0.2,0,0.4,0.1,0.6,0.1
				c0.3,0,0.7,0.1,1,0.1c1.2,0,2.4-0.3,3.3-0.8c0.9-0.5,1.4-1.2,1.4-1.9v-0.6c0,0.1,0,0.2,0,0.3v0c0-0.1,0-0.2,0-0.3
				c0-0.3-0.1-0.7-0.3-1l0-1.1c0.2-0.3,0.3-0.7,0.3-1v-0.6c0,0.3-0.1,0.7-0.3,1l0,0c0.2-0.3,0.3-0.7,0.3-1s-0.1-0.7-0.3-1l0-1.1
				c0.2-0.3,0.3-0.7,0.3-1V6.5c0-0.7-0.5-1.4-1.4-1.9c-1.8-1.1-4.8-1.1-6.7,0c-0.9,0.5-1.4,1.2-1.4,1.9l0,0v0.6c0,0.3,0.1,0.7,0.3,1
				v1.1c-0.2,0.3-0.3,0.7-0.3,1v0v0.6c0,0.3,0.1,0.7,0.3,1v1.1c-0.2,0.3-0.3,0.7-0.3,1v0v0.6v0C17.1,15.4,17.6,16.1,18.5,16.6z"/>
			<path class="st42" d="M18.2,16.6c0.2,0.1,0.4,0.2,0.6,0.3c0.1,0,0.2,0.1,0.3,0.1c0.3,0.1,0.5,0.2,0.8,0.2c0.2,0,0.4,0.1,0.6,0.1
				c0.3,0,0.7,0.1,1,0.1c1.2,0,2.4-0.3,3.3-0.8c0.9-0.5,1.4-1.2,1.4-1.9v-0.6c0,0.1,0,0.2,0,0.3v0c0-0.1,0-0.2,0-0.3
				c0-0.3-0.1-0.7-0.3-1l0-1.1c0.2-0.3,0.3-0.7,0.3-1v-0.6c0,0.3-0.1,0.7-0.3,1l0,0c0.2-0.3,0.3-0.7,0.3-1s-0.1-0.7-0.3-1l0-1.1
				c0.2-0.3,0.3-0.7,0.3-1V6.5c0-0.7-0.5-1.4-1.4-1.9c-1.8-1.1-4.8-1.1-6.7,0c-0.9,0.5-1.4,1.2-1.4,1.9l0,0v0.6c0,0.3,0.1,0.7,0.3,1
				v1.1c-0.2,0.3-0.3,0.7-0.3,1v0v0.6c0,0.3,0.1,0.7,0.3,1v1.1c-0.2,0.3-0.3,0.7-0.3,1v0v0.6v0C16.8,15.4,17.3,16.1,18.2,16.6z"/>
			<path class="st43" d="M17.9,16.6c0.2,0.1,0.4,0.2,0.6,0.3c0.1,0,0.2,0.1,0.3,0.1c0.3,0.1,0.5,0.2,0.8,0.2c0.2,0,0.4,0.1,0.6,0.1
				c0.3,0,0.7,0.1,1,0.1c1.2,0,2.4-0.3,3.3-0.8c0.9-0.5,1.4-1.2,1.4-1.9v-0.6c0,0.1,0,0.2,0,0.3v0c0-0.1,0-0.2,0-0.3
				c0-0.3-0.1-0.7-0.3-1l0-1.1c0.2-0.3,0.3-0.7,0.3-1v-0.6c0,0.3-0.1,0.7-0.3,1l0,0c0.2-0.3,0.3-0.7,0.3-1s-0.1-0.7-0.3-1l0-1.1
				c0.2-0.3,0.3-0.7,0.3-1V6.5c0-0.7-0.5-1.4-1.4-1.9c-1.8-1.1-4.8-1.1-6.7,0c-0.9,0.5-1.4,1.2-1.4,1.9l0,0v0.6c0,0.3,0.1,0.7,0.3,1
				v1.1c-0.2,0.3-0.3,0.7-0.3,1v0v0.6c0,0.3,0.1,0.7,0.3,1v1.1c-0.2,0.3-0.3,0.7-0.3,1v0v0.6v0C16.5,15.4,17,16.1,17.9,16.6z"/>
			<path class="st44" d="M17.6,16.6c0.2,0.1,0.4,0.2,0.6,0.3c0.1,0,0.2,0.1,0.3,0.1c0.3,0.1,0.5,0.2,0.8,0.2c0.2,0,0.4,0.1,0.6,0.1
				c0.3,0,0.7,0.1,1,0.1c1.2,0,2.4-0.3,3.3-0.8c0.9-0.5,1.4-1.2,1.4-1.9v-0.6c0,0.1,0,0.2,0,0.3v0c0-0.1,0-0.2,0-0.3
				c0-0.3-0.1-0.7-0.3-1l0-1.1c0.2-0.3,0.3-0.7,0.3-1v-0.6c0,0.3-0.1,0.7-0.3,1l0,0c0.2-0.3,0.3-0.7,0.3-1s-0.1-0.7-0.3-1l0-1.1
				c0.2-0.3,0.3-0.7,0.3-1V6.5c0-0.7-0.5-1.4-1.4-1.9c-1.8-1.1-4.8-1.1-6.7,0c-0.9,0.5-1.4,1.2-1.4,1.9l0,0v0.6c0,0.3,0.1,0.7,0.3,1
				v1.1c-0.2,0.3-0.3,0.7-0.3,1v0v0.6c0,0.3,0.1,0.7,0.3,1v1.1c-0.2,0.3-0.3,0.7-0.3,1v0v0.6v0C16.2,15.4,16.7,16.1,17.6,16.6z"/>
			<path class="st45" d="M17.3,16.6c0.2,0.1,0.4,0.2,0.6,0.3c0.1,0,0.2,0.1,0.3,0.1c0.3,0.1,0.5,0.2,0.8,0.2c0.2,0,0.4,0.1,0.6,0.1
				c0.3,0,0.7,0.1,1,0.1c1.2,0,2.4-0.3,3.3-0.8c0.9-0.5,1.4-1.2,1.4-1.9v-0.6c0,0.1,0,0.2,0,0.3v0c0-0.1,0-0.2,0-0.3
				c0-0.3-0.1-0.7-0.3-1l0-1.1c0.2-0.3,0.3-0.7,0.3-1v-0.6c0,0.3-0.1,0.7-0.3,1l0,0c0.2-0.3,0.3-0.7,0.3-1s-0.1-0.7-0.3-1l0-1.1
				c0.2-0.3,0.3-0.7,0.3-1V6.5c0-0.7-0.5-1.4-1.4-1.9c-1.8-1.1-4.8-1.1-6.7,0c-0.9,0.5-1.4,1.2-1.4,1.9l0,0v0.6c0,0.3,0.1,0.7,0.3,1
				v1.1c-0.2,0.3-0.3,0.7-0.3,1v0v0.6c0,0.3,0.1,0.7,0.3,1v1.1c-0.2,0.3-0.3,0.7-0.3,1v0v0.6v0C15.9,15.4,16.4,16.1,17.3,16.6z"/>
			<path class="st46" d="M17,16.6c0.2,0.1,0.4,0.2,0.6,0.3c0.1,0,0.2,0.1,0.3,0.1c0.3,0.1,0.5,0.2,0.8,0.2c0.2,0,0.4,0.1,0.6,0.1
				c0.3,0,0.7,0.1,1,0.1c1.2,0,2.4-0.3,3.3-0.8c0.9-0.5,1.4-1.2,1.4-1.9v-0.6c0,0.1,0,0.2,0,0.3v0c0-0.1,0-0.2,0-0.3
				c0-0.3-0.1-0.7-0.3-1l0-1.1c0.2-0.3,0.3-0.7,0.3-1v-0.6c0,0.3-0.1,0.7-0.3,1l0,0c0.2-0.3,0.3-0.7,0.3-1s-0.1-0.7-0.3-1l0-1.1
				c0.2-0.3,0.3-0.7,0.3-1V6.5c0-0.7-0.5-1.4-1.4-1.9c-1.8-1.1-4.8-1.1-6.7,0c-0.9,0.5-1.4,1.2-1.4,1.9l0,0v0.6c0,0.3,0.1,0.7,0.3,1
				v1.1c-0.2,0.3-0.3,0.7-0.3,1v0v0.6c0,0.3,0.1,0.7,0.3,1v1.1c-0.2,0.3-0.3,0.7-0.3,1v0v0.6v0C15.6,15.4,16.1,16.1,17,16.6z"/>
			<path class="st47" d="M16.7,16.6c0.2,0.1,0.4,0.2,0.6,0.3c0.1,0,0.2,0.1,0.3,0.1c0.3,0.1,0.5,0.2,0.8,0.2c0.2,0,0.4,0.1,0.6,0.1
				c0.3,0,0.7,0.1,1,0.1c1.2,0,2.4-0.3,3.3-0.8c0.9-0.5,1.4-1.2,1.4-1.9v-0.6c0,0.1,0,0.2,0,0.3v0c0-0.1,0-0.2,0-0.3
				c0-0.3-0.1-0.7-0.3-1l0-1.1c0.2-0.3,0.3-0.7,0.3-1v-0.6c0,0.3-0.1,0.7-0.3,1l0,0c0.2-0.3,0.3-0.7,0.3-1s-0.1-0.7-0.3-1l0-1.1
				c0.2-0.3,0.3-0.7,0.3-1V6.5c0-0.7-0.5-1.4-1.4-1.9c-1.8-1.1-4.8-1.1-6.7,0c-0.9,0.5-1.4,1.2-1.4,1.9l0,0v0.6c0,0.3,0.1,0.7,0.3,1
				v1.1c-0.2,0.3-0.3,0.7-0.3,1v0v0.6c0,0.3,0.1,0.7,0.3,1v1.1c-0.2,0.3-0.3,0.7-0.3,1v0v0.6v0C15.3,15.4,15.8,16.1,16.7,16.6z"/>
			<path class="st48" d="M16.4,16.6c0.2,0.1,0.4,0.2,0.6,0.3c0.1,0,0.2,0.1,0.3,0.1c0.3,0.1,0.5,0.2,0.8,0.2c0.2,0,0.4,0.1,0.6,0.1
				c0.3,0,0.7,0.1,1,0.1c1.2,0,2.4-0.3,3.3-0.8c0.9-0.5,1.4-1.2,1.4-1.9v-0.6c0,0.1,0,0.2,0,0.3v0c0-0.1,0-0.2,0-0.3
				c0-0.3-0.1-0.7-0.3-1l0-1.1c0.2-0.3,0.3-0.7,0.3-1v-0.6c0,0.3-0.1,0.7-0.3,1l0,0c0.2-0.3,0.3-0.7,0.3-1s-0.1-0.7-0.3-1l0-1.1
				c0.2-0.3,0.3-0.7,0.3-1V6.5c0-0.7-0.5-1.4-1.4-1.9c-1.8-1.1-4.8-1.1-6.7,0C15.5,5.2,15,5.8,15,6.5l0,0v0.6c0,0.3,0.1,0.7,0.3,1
				v1.1c-0.2,0.3-0.3,0.7-0.3,1v0v0.6c0,0.3,0.1,0.7,0.3,1v1.1c-0.2,0.3-0.3,0.7-0.3,1v0v0.6v0C15,15.4,15.5,16.1,16.4,16.6z"/>
			<path class="st49" d="M16.1,16.6c0.2,0.1,0.4,0.2,0.6,0.3c0.1,0,0.2,0.1,0.3,0.1c0.3,0.1,0.5,0.2,0.8,0.2c0.2,0,0.4,0.1,0.6,0.1
				c0.3,0,0.7,0.1,1,0.1c1.2,0,2.4-0.3,3.3-0.8c0.9-0.5,1.4-1.2,1.4-1.9v-0.6c0,0.1,0,0.2,0,0.3v0c0-0.1,0-0.2,0-0.3
				c0-0.3-0.1-0.7-0.3-1l0-1.1c0.2-0.3,0.3-0.7,0.3-1v-0.6c0,0.3-0.1,0.7-0.3,1l0,0c0.2-0.3,0.3-0.7,0.3-1s-0.1-0.7-0.3-1l0-1.1
				c0.2-0.3,0.3-0.7,0.3-1V6.5c0-0.7-0.5-1.4-1.4-1.9c-1.8-1.1-4.8-1.1-6.7,0c-0.9,0.5-1.4,1.2-1.4,1.9l0,0v0.6c0,0.3,0.1,0.7,0.3,1
				v1.1c-0.2,0.3-0.3,0.7-0.3,1v0v0.6c0,0.3,0.1,0.7,0.3,1v1.1c-0.2,0.3-0.3,0.7-0.3,1v0v0.6v0C14.7,15.4,15.2,16.1,16.1,16.6z"/>
			<path class="st50" d="M15.8,16.6c0.2,0.1,0.4,0.2,0.6,0.3c0.1,0,0.2,0.1,0.3,0.1c0.3,0.1,0.5,0.2,0.8,0.2c0.2,0,0.4,0.1,0.6,0.1
				c0.3,0,0.7,0.1,1,0.1c1.2,0,2.4-0.3,3.3-0.8c0.9-0.5,1.4-1.2,1.4-1.9v-0.6c0,0.1,0,0.2,0,0.3v0c0-0.1,0-0.2,0-0.3
				c0-0.3-0.1-0.7-0.3-1l0-1.1c0.2-0.3,0.3-0.7,0.3-1v-0.6c0,0.3-0.1,0.7-0.3,1l0,0c0.2-0.3,0.3-0.7,0.3-1s-0.1-0.7-0.3-1l0-1.1
				c0.2-0.3,0.3-0.7,0.3-1V6.5c0-0.7-0.5-1.4-1.4-1.9c-1.8-1.1-4.8-1.1-6.7,0c-0.9,0.5-1.4,1.2-1.4,1.9l0,0v0.6c0,0.3,0.1,0.7,0.3,1
				v1.1c-0.2,0.3-0.3,0.7-0.3,1v0v0.6c0,0.3,0.1,0.7,0.3,1v1.1c-0.2,0.3-0.3,0.7-0.3,1v0v0.6v0C14.4,15.4,14.9,16.1,15.8,16.6z"/>
			<path class="st51" d="M15.5,16.6c0.2,0.1,0.4,0.2,0.6,0.3c0.1,0,0.2,0.1,0.3,0.1c0.3,0.1,0.5,0.2,0.8,0.2c0.2,0,0.4,0.1,0.6,0.1
				c0.3,0,0.7,0.1,1,0.1c1.2,0,2.4-0.3,3.3-0.8c0.9-0.5,1.4-1.2,1.4-1.9v-0.6c0,0.1,0,0.2,0,0.3v0c0-0.1,0-0.2,0-0.3
				c0-0.3-0.1-0.7-0.3-1l0-1.1c0.2-0.3,0.3-0.7,0.3-1v-0.6c0,0.3-0.1,0.7-0.3,1l0,0c0.2-0.3,0.3-0.7,0.3-1s-0.1-0.7-0.3-1l0-1.1
				c0.2-0.3,0.3-0.7,0.3-1V6.5c0-0.7-0.5-1.4-1.4-1.9c-1.8-1.1-4.8-1.1-6.7,0c-0.9,0.5-1.4,1.2-1.4,1.9l0,0v0.6c0,0.3,0.1,0.7,0.3,1
				v1.1c-0.2,0.3-0.3,0.7-0.3,1v0v0.6c0,0.3,0.1,0.7,0.3,1v1.1c-0.2,0.3-0.3,0.7-0.3,1v0v0.6v0C14.1,15.4,14.6,16.1,15.5,16.6z"/>
			<path class="st52" d="M15.2,16.6c0.2,0.1,0.4,0.2,0.6,0.3c0.1,0,0.2,0.1,0.3,0.1c0.3,0.1,0.5,0.2,0.8,0.2c0.2,0,0.4,0.1,0.6,0.1
				c0.3,0,0.7,0.1,1,0.1c1.2,0,2.4-0.3,3.3-0.8c0.9-0.5,1.4-1.2,1.4-1.9v-0.6c0,0.1,0,0.2,0,0.3v0c0-0.1,0-0.2,0-0.3
				c0-0.3-0.1-0.7-0.3-1l0-1.1c0.2-0.3,0.3-0.7,0.3-1v-0.6c0,0.3-0.1,0.7-0.3,1l0,0c0.2-0.3,0.3-0.7,0.3-1s-0.1-0.7-0.3-1l0-1.1
				c0.2-0.3,0.3-0.7,0.3-1V6.5c0-0.7-0.5-1.4-1.4-1.9c-1.8-1.1-4.8-1.1-6.7,0c-0.9,0.5-1.4,1.2-1.4,1.9l0,0v0.6c0,0.3,0.1,0.7,0.3,1
				v1.1c-0.2,0.3-0.3,0.7-0.3,1v0v0.6c0,0.3,0.1,0.7,0.3,1v1.1c-0.2,0.3-0.3,0.7-0.3,1v0v0.6v0C13.8,15.4,14.2,16.1,15.2,16.6z"/>
			<path class="st53" d="M14.9,16.6c0.2,0.1,0.4,0.2,0.6,0.3c0.1,0,0.2,0.1,0.3,0.1c0.3,0.1,0.5,0.2,0.8,0.2c0.2,0,0.4,0.1,0.6,0.1
				c0.3,0,0.7,0.1,1,0.1c1.2,0,2.4-0.3,3.3-0.8c0.9-0.5,1.4-1.2,1.4-1.9v-0.6c0,0.1,0,0.2,0,0.3v0c0-0.1,0-0.2,0-0.3
				c0-0.3-0.1-0.7-0.3-1l0-1.1c0.2-0.3,0.3-0.7,0.3-1v-0.6c0,0.3-0.1,0.7-0.3,1l0,0c0.2-0.3,0.3-0.7,0.3-1s-0.1-0.7-0.3-1l0-1.1
				c0.2-0.3,0.3-0.7,0.3-1V6.5c0-0.7-0.5-1.4-1.4-1.9c-1.8-1.1-4.8-1.1-6.7,0c-0.9,0.5-1.4,1.2-1.4,1.9l0,0v0.6c0,0.3,0.1,0.7,0.3,1
				v1.1c-0.2,0.3-0.3,0.7-0.3,1v0v0.6c0,0.3,0.1,0.7,0.3,1v1.1c-0.2,0.3-0.3,0.7-0.3,1v0v0.6v0C13.5,15.4,13.9,16.1,14.9,16.6z"/>
			<path class="st54" d="M14.6,16.6c0.2,0.1,0.4,0.2,0.6,0.3c0.1,0,0.2,0.1,0.3,0.1c0.3,0.1,0.5,0.2,0.8,0.2c0.2,0,0.4,0.1,0.6,0.1
				c0.3,0,0.7,0.1,1,0.1c1.2,0,2.4-0.3,3.3-0.8c0.9-0.5,1.4-1.2,1.4-1.9v-0.6c0,0.1,0,0.2,0,0.3v0c0-0.1,0-0.2,0-0.3
				c0-0.3-0.1-0.7-0.3-1l0-1.1c0.2-0.3,0.3-0.7,0.3-1v-0.6c0,0.3-0.1,0.7-0.3,1l0,0c0.2-0.3,0.3-0.7,0.3-1s-0.1-0.7-0.3-1l0-1.1
				c0.2-0.3,0.3-0.7,0.3-1V6.5c0-0.7-0.5-1.4-1.4-1.9c-1.8-1.1-4.8-1.1-6.7,0c-0.9,0.5-1.4,1.2-1.4,1.9l0,0v0.6c0,0.3,0.1,0.7,0.3,1
				v1.1c-0.2,0.3-0.3,0.7-0.3,1v0v0.6c0,0.3,0.1,0.7,0.3,1v1.1c-0.2,0.3-0.3,0.7-0.3,1v0v0.6v0C13.2,15.4,13.6,16.1,14.6,16.6z"/>
			<path class="st55" d="M14.3,16.6c0.2,0.1,0.4,0.2,0.6,0.3c0.1,0,0.2,0.1,0.3,0.1c0.3,0.1,0.5,0.2,0.8,0.2c0.2,0,0.4,0.1,0.6,0.1
				c0.3,0,0.7,0.1,1,0.1c1.2,0,2.4-0.3,3.3-0.8c0.9-0.5,1.4-1.2,1.4-1.9v-0.6c0,0.1,0,0.2,0,0.3v0c0-0.1,0-0.2,0-0.3
				c0-0.3-0.1-0.7-0.3-1l0-1.1c0.2-0.3,0.3-0.7,0.3-1v-0.6c0,0.3-0.1,0.7-0.3,1l0,0c0.2-0.3,0.3-0.7,0.3-1s-0.1-0.7-0.3-1l0-1.1
				c0.2-0.3,0.3-0.7,0.3-1V6.5c0-0.7-0.5-1.4-1.4-1.9c-1.8-1.1-4.8-1.1-6.7,0c-0.9,0.5-1.4,1.2-1.4,1.9l0,0v0.6c0,0.3,0.1,0.7,0.3,1
				v1.1c-0.2,0.3-0.3,0.7-0.3,1v0v0.6c0,0.3,0.1,0.7,0.3,1v1.1c-0.2,0.3-0.3,0.7-0.3,1v0v0.6v0C12.9,15.4,13.3,16.1,14.3,16.6z"/>
			<path class="st56" d="M14,16.6c0.2,0.1,0.4,0.2,0.6,0.3c0.1,0,0.2,0.1,0.3,0.1c0.3,0.1,0.5,0.2,0.8,0.2c0.2,0,0.4,0.1,0.6,0.1
				c0.3,0,0.7,0.1,1,0.1c1.2,0,2.4-0.3,3.3-0.8c0.9-0.5,1.4-1.2,1.4-1.9v-0.6c0,0.1,0,0.2,0,0.3v0c0-0.1,0-0.2,0-0.3
				c0-0.3-0.1-0.7-0.3-1l0-1.1c0.2-0.3,0.3-0.7,0.3-1v-0.6c0,0.3-0.1,0.7-0.3,1l0,0c0.2-0.3,0.3-0.7,0.3-1s-0.1-0.7-0.3-1l0-1.1
				c0.2-0.3,0.3-0.7,0.3-1V6.5c0-0.7-0.5-1.4-1.4-1.9c-1.8-1.1-4.8-1.1-6.7,0c-0.9,0.5-1.4,1.2-1.4,1.9l0,0v0.6c0,0.3,0.1,0.7,0.3,1
				v1.1c-0.2,0.3-0.3,0.7-0.3,1v0v0.6c0,0.3,0.1,0.7,0.3,1v1.1c-0.2,0.3-0.3,0.7-0.3,1v0v0.6v0C12.6,15.4,13,16.1,14,16.6z"/>
			<path class="st57" d="M13.7,16.6c0.2,0.1,0.4,0.2,0.6,0.3c0.1,0,0.2,0.1,0.3,0.1c0.3,0.1,0.5,0.2,0.8,0.2c0.2,0,0.4,0.1,0.6,0.1
				c0.3,0,0.7,0.1,1,0.1c1.2,0,2.4-0.3,3.3-0.8c0.9-0.5,1.4-1.2,1.4-1.9v-0.6c0,0.1,0,0.2,0,0.3v0c0-0.1,0-0.2,0-0.3
				c0-0.3-0.1-0.7-0.3-1l0-1.1c0.2-0.3,0.3-0.7,0.3-1v-0.6c0,0.3-0.1,0.7-0.3,1l0,0c0.2-0.3,0.3-0.7,0.3-1s-0.1-0.7-0.3-1l0-1.1
				c0.2-0.3,0.3-0.7,0.3-1V6.5c0-0.7-0.5-1.4-1.4-1.9c-1.8-1.1-4.8-1.1-6.7,0c-0.9,0.5-1.4,1.2-1.4,1.9l0,0v0.6c0,0.3,0.1,0.7,0.3,1
				v1.1c-0.2,0.3-0.3,0.7-0.3,1v0v0.6c0,0.3,0.1,0.7,0.3,1v1.1c-0.2,0.3-0.3,0.7-0.3,1v0v0.6v0C12.3,15.4,12.7,16.1,13.7,16.6z"/>
			<path class="st58" d="M13.4,16.6c0.2,0.1,0.4,0.2,0.6,0.3c0.1,0,0.2,0.1,0.3,0.1c0.3,0.1,0.5,0.2,0.8,0.2c0.2,0,0.4,0.1,0.6,0.1
				c0.3,0,0.7,0.1,1,0.1c1.2,0,2.4-0.3,3.3-0.8c0.9-0.5,1.4-1.2,1.4-1.9v-0.6c0,0.1,0,0.2,0,0.3v0c0-0.1,0-0.2,0-0.3
				c0-0.3-0.1-0.7-0.3-1l0-1.1c0.2-0.3,0.3-0.7,0.3-1v-0.6c0,0.3-0.1,0.7-0.3,1l0,0c0.2-0.3,0.3-0.7,0.3-1s-0.1-0.7-0.3-1l0-1.1
				c0.2-0.3,0.3-0.7,0.3-1V6.5c0-0.7-0.5-1.4-1.4-1.9c-1.8-1.1-4.8-1.1-6.7,0C12.4,5.2,12,5.8,12,6.5l0,0v0.6c0,0.3,0.1,0.7,0.3,1
				v1.1c-0.2,0.3-0.3,0.7-0.3,1v0v0.6c0,0.3,0.1,0.7,0.3,1v1.1c-0.2,0.3-0.3,0.7-0.3,1v0v0.6v0C12,15.4,12.4,16.1,13.4,16.6z"/>
			<path class="st59" d="M13.1,16.6c0.2,0.1,0.4,0.2,0.6,0.3c0.1,0,0.2,0.1,0.3,0.1c0.3,0.1,0.5,0.2,0.8,0.2c0.2,0,0.4,0.1,0.6,0.1
				c0.3,0,0.7,0.1,1,0.1c1.2,0,2.4-0.3,3.3-0.8c0.9-0.5,1.4-1.2,1.4-1.9v-0.6c0,0.1,0,0.2,0,0.3v0c0-0.1,0-0.2,0-0.3
				c0-0.3-0.1-0.7-0.3-1l0-1.1c0.2-0.3,0.3-0.7,0.3-1v-0.6c0,0.3-0.1,0.7-0.3,1l0,0c0.2-0.3,0.3-0.7,0.3-1s-0.1-0.7-0.3-1l0-1.1
				c0.2-0.3,0.3-0.7,0.3-1V6.5c0-0.7-0.5-1.4-1.4-1.9c-1.8-1.1-4.8-1.1-6.7,0c-0.9,0.5-1.4,1.2-1.4,1.9l0,0v0.6c0,0.3,0.1,0.7,0.3,1
				v1.1c-0.2,0.3-0.3,0.7-0.3,1v0v0.6c0,0.3,0.1,0.7,0.3,1v1.1c-0.2,0.3-0.3,0.7-0.3,1v0v0.6v0C11.7,15.4,12.1,16.1,13.1,16.6z"/>
			<path class="st60" d="M12.8,16.6c0.2,0.1,0.4,0.2,0.6,0.3c0.1,0,0.2,0.1,0.3,0.1c0.3,0.1,0.5,0.2,0.8,0.2c0.2,0,0.4,0.1,0.6,0.1
				c0.3,0,0.7,0.1,1,0.1c1.2,0,2.4-0.3,3.3-0.8c0.9-0.5,1.4-1.2,1.4-1.9v-0.6c0,0.1,0,0.2,0,0.3v0c0-0.1,0-0.2,0-0.3
				c0-0.3-0.1-0.7-0.3-1l0-1.1c0.2-0.3,0.3-0.7,0.3-1v-0.6c0,0.3-0.1,0.7-0.3,1l0,0c0.2-0.3,0.3-0.7,0.3-1s-0.1-0.7-0.3-1l0-1.1
				c0.2-0.3,0.3-0.7,0.3-1V6.5c0-0.7-0.5-1.4-1.4-1.9c-1.8-1.1-4.8-1.1-6.7,0c-0.9,0.5-1.4,1.2-1.4,1.9l0,0v0.6c0,0.3,0.1,0.7,0.3,1
				v1.1c-0.2,0.3-0.3,0.7-0.3,1v0v0.6c0,0.3,0.1,0.7,0.3,1v1.1c-0.2,0.3-0.3,0.7-0.3,1v0v0.6v0C11.4,15.4,11.8,16.1,12.8,16.6z"/>
			<path class="st61" d="M12.4,16.6c0.2,0.1,0.4,0.2,0.6,0.3c0.1,0,0.2,0.1,0.3,0.1c0.3,0.1,0.5,0.2,0.8,0.2c0.2,0,0.4,0.1,0.6,0.1
				c0.3,0,0.7,0.1,1,0.1c1.2,0,2.4-0.3,3.3-0.8c0.9-0.5,1.4-1.2,1.4-1.9v-0.6c0,0.1,0,0.2,0,0.3v0c0-0.1,0-0.2,0-0.3
				c0-0.3-0.1-0.7-0.3-1l0-1.1c0.2-0.3,0.3-0.7,0.3-1v-0.6c0,0.3-0.1,0.7-0.3,1l0,0c0.2-0.3,0.3-0.7,0.3-1s-0.1-0.7-0.3-1l0-1.1
				c0.2-0.3,0.3-0.7,0.3-1V6.5c0-0.7-0.5-1.4-1.4-1.9c-1.8-1.1-4.8-1.1-6.7,0c-0.9,0.5-1.4,1.2-1.4,1.9l0,0v0.6c0,0.3,0.1,0.7,0.3,1
				v1.1c-0.2,0.3-0.3,0.7-0.3,1v0v0.6c0,0.3,0.1,0.7,0.3,1v1.1c-0.2,0.3-0.3,0.7-0.3,1v0v0.6v0C11.1,15.4,11.5,16.1,12.4,16.6z"/>
			<path class="st62" d="M12.1,16.6c0.2,0.1,0.4,0.2,0.6,0.3c0.1,0,0.2,0.1,0.3,0.1c0.3,0.1,0.5,0.2,0.8,0.2c0.2,0,0.4,0.1,0.6,0.1
				c0.3,0,0.7,0.1,1,0.1c1.2,0,2.4-0.3,3.3-0.8c0.9-0.5,1.4-1.2,1.4-1.9v-0.6c0,0.1,0,0.2,0,0.3v0c0-0.1,0-0.2,0-0.3
				c0-0.3-0.1-0.7-0.3-1l0-1.1c0.2-0.3,0.3-0.7,0.3-1v-0.6c0,0.3-0.1,0.7-0.3,1l0,0c0.2-0.3,0.3-0.7,0.3-1s-0.1-0.7-0.3-1l0-1.1
				c0.2-0.3,0.3-0.7,0.3-1V6.5c0-0.7-0.5-1.4-1.4-1.9c-1.8-1.1-4.8-1.1-6.7,0c-0.9,0.5-1.4,1.2-1.4,1.9l0,0v0.6c0,0.3,0.1,0.7,0.3,1
				v1.1c-0.2,0.3-0.3,0.7-0.3,1v0v0.6c0,0.3,0.1,0.7,0.3,1v1.1c-0.2,0.3-0.3,0.7-0.3,1v0v0.6v0C10.8,15.4,11.2,16.1,12.1,16.6z"/>
			<path class="st63" d="M11.8,16.6c0.2,0.1,0.4,0.2,0.6,0.3c0.1,0,0.2,0.1,0.3,0.1c0.3,0.1,0.5,0.2,0.8,0.2c0.2,0,0.4,0.1,0.6,0.1
				c0.3,0,0.7,0.1,1,0.1c1.2,0,2.4-0.3,3.3-0.8c0.9-0.5,1.4-1.2,1.4-1.9v-0.6c0,0.1,0,0.2,0,0.3v0c0-0.1,0-0.2,0-0.3
				c0-0.3-0.1-0.7-0.3-1l0-1.1c0.2-0.3,0.3-0.7,0.3-1v-0.6c0,0.3-0.1,0.7-0.3,1l0,0c0.2-0.3,0.3-0.7,0.3-1s-0.1-0.7-0.3-1l0-1.1
				c0.2-0.3,0.3-0.7,0.3-1V6.5c0-0.7-0.5-1.4-1.4-1.9c-1.8-1.1-4.8-1.1-6.7,0c-0.9,0.5-1.4,1.2-1.4,1.9l0,0v0.6c0,0.3,0.1,0.7,0.3,1
				v1.1c-0.2,0.3-0.3,0.7-0.3,1v0v0.6c0,0.3,0.1,0.7,0.3,1v1.1c-0.2,0.3-0.3,0.7-0.3,1v0v0.6v0C10.5,15.4,10.9,16.1,11.8,16.6z"/>
			<path class="st64" d="M11.5,16.6c0.2,0.1,0.4,0.2,0.6,0.3c0.1,0,0.2,0.1,0.3,0.1c0.3,0.1,0.5,0.2,0.8,0.2c0.2,0,0.4,0.1,0.6,0.1
				c0.3,0,0.7,0.1,1,0.1c1.2,0,2.4-0.3,3.3-0.8c0.9-0.5,1.4-1.2,1.4-1.9v-0.6c0,0.1,0,0.2,0,0.3v0c0-0.1,0-0.2,0-0.3
				c0-0.3-0.1-0.7-0.3-1l0-1.1c0.2-0.3,0.3-0.7,0.3-1v-0.6c0,0.3-0.1,0.7-0.3,1l0,0c0.2-0.3,0.3-0.7,0.3-1s-0.1-0.7-0.3-1l0-1.1
				c0.2-0.3,0.3-0.7,0.3-1V6.5c0-0.7-0.5-1.4-1.4-1.9c-1.8-1.1-4.8-1.1-6.7,0c-0.9,0.5-1.4,1.2-1.4,1.9l0,0v0.6c0,0.3,0.1,0.7,0.3,1
				v1.1c-0.2,0.3-0.3,0.7-0.3,1v0v0.6c0,0.3,0.1,0.7,0.3,1v1.1c-0.2,0.3-0.3,0.7-0.3,1v0v0.6v0C10.2,15.4,10.6,16.1,11.5,16.6z"/>
			<path class="st65" d="M11.2,16.6c0.2,0.1,0.4,0.2,0.6,0.3c0.1,0,0.2,0.1,0.3,0.1c0.3,0.1,0.5,0.2,0.8,0.2c0.2,0,0.4,0.1,0.6,0.1
				c0.3,0,0.7,0.1,1,0.1c1.2,0,2.4-0.3,3.3-0.8c0.9-0.5,1.4-1.2,1.4-1.9v-0.6c0,0.1,0,0.2,0,0.3v0c0-0.1,0-0.2,0-0.3
				c0-0.3-0.1-0.7-0.3-1l0-1.1c0.2-0.3,0.3-0.7,0.3-1v-0.6c0,0.3-0.1,0.7-0.3,1l0,0c0.2-0.3,0.3-0.7,0.3-1s-0.1-0.7-0.3-1l0-1.1
				c0.2-0.3,0.3-0.7,0.3-1V6.5c0-0.7-0.5-1.4-1.4-1.9c-1.8-1.1-4.8-1.1-6.7,0c-0.9,0.5-1.4,1.2-1.4,1.9l0,0v0.6c0,0.3,0.1,0.7,0.3,1
				v1.1c-0.2,0.3-0.3,0.7-0.3,1v0v0.6c0,0.3,0.1,0.7,0.3,1v1.1c-0.2,0.3-0.3,0.7-0.3,1v0v0.6v0C9.9,15.4,10.3,16.1,11.2,16.6z"/>
			<path class="st66" d="M10.9,16.6c0.2,0.1,0.4,0.2,0.6,0.3c0.1,0,0.2,0.1,0.3,0.1c0.3,0.1,0.5,0.2,0.8,0.2c0.2,0,0.4,0.1,0.6,0.1
				c0.3,0,0.7,0.1,1,0.1c1.2,0,2.4-0.3,3.3-0.8c0.9-0.5,1.4-1.2,1.4-1.9v-0.6c0,0.1,0,0.2,0,0.3v0c0-0.1,0-0.2,0-0.3
				c0-0.3-0.1-0.7-0.3-1l0-1.1c0.2-0.3,0.3-0.7,0.3-1v-0.6c0,0.3-0.1,0.7-0.3,1l0,0c0.2-0.3,0.3-0.7,0.3-1s-0.1-0.7-0.3-1l0-1.1
				c0.2-0.3,0.3-0.7,0.3-1V6.5c0-0.7-0.5-1.4-1.4-1.9c-1.8-1.1-4.8-1.1-6.7,0C10,5.2,9.6,5.8,9.6,6.5l0,0v0.6c0,0.3,0.1,0.7,0.3,1
				v1.1c-0.2,0.3-0.3,0.7-0.3,1v0v0.6c0,0.3,0.1,0.7,0.3,1v1.1c-0.2,0.3-0.3,0.7-0.3,1v0v0.6v0C9.6,15.4,10,16.1,10.9,16.6z"/>
			<path class="st67" d="M10.6,16.6c0.2,0.1,0.4,0.2,0.6,0.3c0.1,0,0.2,0.1,0.3,0.1c0.3,0.1,0.5,0.2,0.8,0.2c0.2,0,0.4,0.1,0.6,0.1
				c0.3,0,0.7,0.1,1,0.1c1.2,0,2.4-0.3,3.3-0.8c0.9-0.5,1.4-1.2,1.4-1.9v-0.6c0,0.1,0,0.2,0,0.3v0c0-0.1,0-0.2,0-0.3
				c0-0.3-0.1-0.7-0.3-1l0-1.1c0.2-0.3,0.3-0.7,0.3-1v-0.6c0,0.3-0.1,0.7-0.3,1l0,0c0.2-0.3,0.3-0.7,0.3-1s-0.1-0.7-0.3-1l0-1.1
				c0.2-0.3,0.3-0.7,0.3-1V6.5c0-0.7-0.5-1.4-1.4-1.9c-1.8-1.1-4.8-1.1-6.7,0C9.7,5.2,9.3,5.8,9.3,6.5l0,0v0.6c0,0.3,0.1,0.7,0.3,1
				v1.1c-0.2,0.3-0.3,0.7-0.3,1v0v0.6c0,0.3,0.1,0.7,0.3,1v1.1c-0.2,0.3-0.3,0.7-0.3,1v0v0.6v0C9.3,15.4,9.7,16.1,10.6,16.6z"/>
			<path class="st68" d="M10.3,16.6c0.2,0.1,0.4,0.2,0.6,0.3c0.1,0,0.2,0.1,0.3,0.1c0.3,0.1,0.5,0.2,0.8,0.2c0.2,0,0.4,0.1,0.6,0.1
				c0.3,0,0.7,0.1,1,0.1c1.2,0,2.4-0.3,3.3-0.8c0.9-0.5,1.4-1.2,1.4-1.9v-0.6c0,0.1,0,0.2,0,0.3v0c0-0.1,0-0.2,0-0.3
				c0-0.3-0.1-0.7-0.3-1l0-1.1c0.2-0.3,0.3-0.7,0.3-1v-0.6c0,0.3-0.1,0.7-0.3,1l0,0c0.2-0.3,0.3-0.7,0.3-1s-0.1-0.7-0.3-1l0-1.1
				c0.2-0.3,0.3-0.7,0.3-1V6.5c0-0.7-0.5-1.4-1.4-1.9c-1.8-1.1-4.8-1.1-6.7,0C9.4,5.2,8.9,5.8,8.9,6.5l0,0v0.6c0,0.3,0.1,0.7,0.3,1
				v1.1c-0.2,0.3-0.3,0.7-0.3,1v0v0.6c0,0.3,0.1,0.7,0.3,1v1.1c-0.2,0.3-0.3,0.7-0.3,1v0v0.6v0C8.9,15.4,9.4,16.1,10.3,16.6z"/>
			<path class="st69" d="M10,16.6c0.2,0.1,0.4,0.2,0.6,0.3c0.1,0,0.2,0.1,0.3,0.1c0.3,0.1,0.5,0.2,0.8,0.2c0.2,0,0.4,0.1,0.6,0.1
				c0.3,0,0.7,0.1,1,0.1c1.2,0,2.4-0.3,3.3-0.8c0.9-0.5,1.4-1.2,1.4-1.9v-0.6c0,0.1,0,0.2,0,0.3v0c0-0.1,0-0.2,0-0.3
				c0-0.3-0.1-0.7-0.3-1l0-1.1c0.2-0.3,0.3-0.7,0.3-1v-0.6c0,0.3-0.1,0.7-0.3,1l0,0c0.2-0.3,0.3-0.7,0.3-1s-0.1-0.7-0.3-1l0-1.1
				c0.2-0.3,0.3-0.7,0.3-1V6.5c0-0.7-0.5-1.4-1.4-1.9c-1.8-1.1-4.8-1.1-6.7,0C9.1,5.2,8.6,5.8,8.6,6.5l0,0v0.6c0,0.3,0.1,0.7,0.3,1
				v1.1c-0.2,0.3-0.3,0.7-0.3,1v0v0.6c0,0.3,0.1,0.7,0.3,1v1.1c-0.2,0.3-0.3,0.7-0.3,1v0v0.6v0C8.6,15.4,9.1,16.1,10,16.6z"/>
		</g>
	</g>
	<g>
		<g>
			<path class="st70" d="M16.7,12.8c-1.8-1.1-4.8-1.1-6.7,0c-0.9,0.5-1.4,1.2-1.4,1.9c0,0.7,0.5,1.4,1.4,1.9c1.8,1.1,4.8,1.1,6.7,0
				c0.9-0.5,1.4-1.2,1.4-1.9C18.1,14,17.6,13.3,16.7,12.8z"/>
			
				<linearGradient id="SVGID_4_" gradientUnits="userSpaceOnUse" x1="-2463.9727" y1="633.0114" x2="-2459.2556" y2="641.1818" gradientTransform="matrix(-0.5 0.866 -0.866 -0.5 -665.7171 2466.0464)">
				<stop  offset="0" style="stop-color:#000000"/>
				<stop  offset="0.1403" style="stop-color:#060606"/>
				<stop  offset="0.3278" style="stop-color:#171616"/>
				<stop  offset="0.541" style="stop-color:#333031"/>
				<stop  offset="0.6994" style="stop-color:#4C4849"/>
				<stop  offset="0.8808" style="stop-color:#494647"/>
				<stop  offset="1" style="stop-color:#414141"/>
			</linearGradient>
			<path class="st71" d="M16.7,16.6c0.9-0.5,1.4-1.2,1.4-1.9l0-0.6c0,0.7-0.5,1.4-1.4,1.9c-1.8,1.1-4.8,1.1-6.7,0
				c-0.9-0.5-1.4-1.2-1.4-1.9v0.6c0,0.7,0.5,1.4,1.4,1.9C11.9,17.7,14.9,17.7,16.7,16.6z"/>
			<path class="st70" d="M16.7,12.1c-1.8-1.1-4.8-1.1-6.7,0c-0.9,0.5-1.4,1.2-1.4,1.9c0,0.7,0.5,1.4,1.4,1.9c1.8,1.1,4.8,1.1,6.7,0
				c0.9-0.5,1.4-1.2,1.4-1.9C18.1,13.4,17.6,12.7,16.7,12.1z"/>
		</g>
		<g>
			<g>
				<path class="st70" d="M16.5,12.2c-1.7-1-4.5-1-6.2,0C9.4,12.7,9,13.3,9,14c0,0.6,0.4,1.3,1.3,1.8c1.7,1,4.5,1,6.2,0
					c0.9-0.5,1.3-1.1,1.3-1.8S17.3,12.7,16.5,12.2z"/>
				
					<linearGradient id="SVGID_5_" gradientUnits="userSpaceOnUse" x1="-2465.7029" y1="634.403" x2="-2461.3257" y2="641.9844" gradientTransform="matrix(-0.5 0.866 -0.866 -0.5 -665.7171 2466.0464)">
					<stop  offset="0" style="stop-color:#000000"/>
					<stop  offset="0.2848" style="stop-color:#181717"/>
					<stop  offset="0.6994" style="stop-color:#383435"/>
					<stop  offset="0.9423" style="stop-color:#323131"/>
					<stop  offset="1" style="stop-color:#303030"/>
				</linearGradient>
				<path class="st72" d="M16.5,15.8c0.9-0.5,1.3-1.1,1.3-1.8v-3.4c0,0.6-0.4,1.3-1.3,1.8c-1.7,1-4.5,1-6.2,0
					C9.4,11.9,9,11.2,9,10.6L9,14c0,0.6,0.4,1.3,1.3,1.8C12,16.7,14.8,16.7,16.5,15.8z"/>
			</g>
			<g>
				
					<linearGradient id="SVGID_6_" gradientUnits="userSpaceOnUse" x1="-2467.2297" y1="634.8918" x2="-2462.5125" y2="643.0622" gradientTransform="matrix(-0.5 0.866 -0.866 -0.5 -665.7171 2466.0464)">
					<stop  offset="0" style="stop-color:#000000"/>
					<stop  offset="0.1403" style="stop-color:#060606"/>
					<stop  offset="0.3278" style="stop-color:#171616"/>
					<stop  offset="0.541" style="stop-color:#333031"/>
					<stop  offset="0.6994" style="stop-color:#4C4849"/>
					<stop  offset="0.8808" style="stop-color:#494647"/>
					<stop  offset="1" style="stop-color:#414141"/>
				</linearGradient>
				<path class="st73" d="M16.7,12.9c0.9-0.5,1.4-1.2,1.4-1.9l0-0.6c0,0.7-0.5,1.4-1.4,1.9c-1.8,1.1-4.8,1.1-6.7,0
					c-0.9-0.5-1.4-1.2-1.4-1.9v0.6c0,0.7,0.5,1.4,1.4,1.9C11.9,13.9,14.9,13.9,16.7,12.9z"/>
				<path class="st70" d="M16.7,8.4c-1.8-1.1-4.8-1.1-6.7,0c-0.9,0.5-1.4,1.2-1.4,1.9c0,0.7,0.5,1.4,1.4,1.9c1.8,1.1,4.8,1.1,6.7,0
					c0.9-0.5,1.4-1.2,1.4-1.9C18.1,9.6,17.6,8.9,16.7,8.4z"/>
			</g>
		</g>
		<g>
			<g>
				<path class="st70" d="M16.5,8.4c-1.7-1-4.5-1-6.2,0C9.4,8.9,9,9.6,9,10.2c0,0.6,0.4,1.3,1.3,1.8c1.7,1,4.5,1,6.2,0
					c0.9-0.5,1.3-1.1,1.3-1.8S17.3,8.9,16.5,8.4z"/>
				
					<linearGradient id="SVGID_7_" gradientUnits="userSpaceOnUse" x1="-2468.9597" y1="636.2834" x2="-2464.5828" y2="643.8649" gradientTransform="matrix(-0.5 0.866 -0.866 -0.5 -665.7171 2466.0464)">
					<stop  offset="0" style="stop-color:#000000"/>
					<stop  offset="0.2848" style="stop-color:#181717"/>
					<stop  offset="0.6994" style="stop-color:#383435"/>
					<stop  offset="0.9423" style="stop-color:#323131"/>
					<stop  offset="1" style="stop-color:#303030"/>
				</linearGradient>
				<path class="st74" d="M16.5,12c0.9-0.5,1.3-1.1,1.3-1.8V6.8c0,0.6-0.4,1.3-1.3,1.8c-1.7,1-4.5,1-6.2,0C9.4,8.1,9,7.5,9,6.8
					l0,3.4c0,0.6,0.4,1.3,1.3,1.8C12,13,14.8,13,16.5,12z"/>
				<path class="st70" d="M16.5,5c-1.7-1-4.5-1-6.2,0C9.4,5.5,9,6.2,9,6.8c0,0.6,0.4,1.3,1.3,1.8c1.7,1,4.5,1,6.2,0
					c0.9-0.5,1.3-1.1,1.3-1.8S17.3,5.5,16.5,5z"/>
			</g>
			<linearGradient id="SVGID_8_" gradientUnits="userSpaceOnUse" x1="9.0685" y1="6.5451" x2="17.6603" y2="6.5451">
				<stop  offset="0" style="stop-color:#000000"/>
				<stop  offset="0.1403" style="stop-color:#060606"/>
				<stop  offset="0.3278" style="stop-color:#171616"/>
				<stop  offset="0.541" style="stop-color:#333031"/>
				<stop  offset="0.6994" style="stop-color:#4C4849"/>
				<stop  offset="0.8808" style="stop-color:#494647"/>
				<stop  offset="1" style="stop-color:#414141"/>
			</linearGradient>
			<path class="st75" d="M16.4,8.3c1.7-1,1.7-2.5,0-3.5c-1.7-1-4.4-1-6.1,0c-1.7,1-1.7,2.5,0,3.5C12,9.3,14.7,9.3,16.4,8.3z"/>
			
				<radialGradient id="SVGID_9_" cx="-77.922" cy="-257.0395" r="11.508" gradientTransform="matrix(1.1058 0 0 1.1058 94.373 290.7462)" gradientUnits="userSpaceOnUse">
				<stop  offset="0" style="stop-color:#414141"/>
				<stop  offset="0.4182" style="stop-color:#282828"/>
				<stop  offset="0.7441" style="stop-color:#1A1A1A"/>
				<stop  offset="1" style="stop-color:#000000"/>
			</radialGradient>
			<path class="st76" d="M16.4,8.5c1.7-1,1.7-2.5,0-3.5c-1.7-1-4.4-1-6.1,0c-1.7,1-1.7,2.5,0,3.5C12,9.5,14.7,9.5,16.4,8.5z"/>
			<g>
				
					<linearGradient id="SVGID_10_" gradientUnits="userSpaceOnUse" x1="-2470.4866" y1="636.7723" x2="-2465.7695" y2="644.9426" gradientTransform="matrix(-0.5 0.866 -0.866 -0.5 -665.7171 2466.0464)">
					<stop  offset="0" style="stop-color:#000000"/>
					<stop  offset="0.1403" style="stop-color:#060606"/>
					<stop  offset="0.3278" style="stop-color:#171616"/>
					<stop  offset="0.541" style="stop-color:#333031"/>
					<stop  offset="0.6994" style="stop-color:#4C4849"/>
					<stop  offset="0.8808" style="stop-color:#494647"/>
					<stop  offset="1" style="stop-color:#414141"/>
				</linearGradient>
				<path class="st77" d="M16.7,9.1c0.9-0.5,1.4-1.2,1.4-1.9l0-0.6c0,0.7-0.5,1.4-1.4,1.9c-1.8,1.1-4.8,1.1-6.7,0
					C9.1,7.9,8.6,7.2,8.6,6.5v0.6c0,0.7,0.5,1.4,1.4,1.9C11.9,10.2,14.9,10.2,16.7,9.1z"/>
				<path class="st70" d="M16.7,8.5c0.9-0.5,1.4-1.2,1.4-1.9s-0.5-1.4-1.4-1.9c-1.8-1.1-4.8-1.1-6.7,0C9.1,5.2,8.6,5.8,8.6,6.5
					c0,0.7,0.5,1.4,1.4,1.9C11.9,9.5,14.9,9.5,16.7,8.5z M10.3,4.8c1.7-1,4.4-1,6.1,0c0.8,0.5,1.3,1.1,1.3,1.8s-0.4,1.3-1.3,1.8
					c-1.7,1-4.4,1-6.1,0C9.5,7.8,9.1,7.2,9.1,6.5S9.5,5.3,10.3,4.8z"/>
			</g>
		</g>
		<g>
			<path class="st70" d="M16.2,6.3c-0.4-0.3-1.2-0.3-1.6,0c-0.2,0.1-0.3,0.3-0.3,0.5c0,0.2,0.1,0.3,0.3,0.5c0.4,0.3,1.2,0.3,1.6,0
				c0.2-0.1,0.3-0.3,0.3-0.5C16.5,6.6,16.4,6.4,16.2,6.3z"/>
			
				<linearGradient id="SVGID_11_" gradientUnits="userSpaceOnUse" x1="-2469.9138" y1="640.8707" x2="-2471.0527" y2="638.8981" gradientTransform="matrix(-0.5 0.866 -0.866 -0.5 -665.7171 2466.0464)">
				<stop  offset="0" style="stop-color:#FFE324"/>
				<stop  offset="3.361212e-02" style="stop-color:#FFE325"/>
				<stop  offset="0.3006" style="stop-color:#FFE228"/>
				<stop  offset="0.325" style="stop-color:#FFE027"/>
				<stop  offset="0.5645" style="stop-color:#FFCF1E"/>
				<stop  offset="0.7441" style="stop-color:#FFC91B"/>
				<stop  offset="1" style="stop-color:#F6910C"/>
			</linearGradient>
			<path class="st78" d="M16.2,7.2c0.2-0.1,0.3-0.3,0.3-0.5l0-0.9c0,0.2-0.1,0.3-0.3,0.5c-0.4,0.3-1.2,0.3-1.6,0
				c-0.2-0.1-0.3-0.3-0.3-0.5v0.9c0,0.2,0.1,0.3,0.3,0.5C15,7.5,15.7,7.5,16.2,7.2z"/>
			<path class="st79" d="M16.2,5.4c-0.4-0.3-1.2-0.3-1.6,0c-0.2,0.1-0.3,0.3-0.3,0.5c0,0.2,0.1,0.3,0.3,0.5c0.4,0.3,1.2,0.3,1.6,0
				c0.2-0.1,0.3-0.3,0.3-0.5C16.5,5.7,16.4,5.6,16.2,5.4z"/>
		</g>
	</g>
</g>
</svg>
