<?xml version="1.0" encoding="utf-8"?>
<!-- Generator: Adobe Illustrator 24.2.1, SVG Export Plug-In . SVG Version: 6.00 Build 0)  -->
<svg version="1.1" id="Layer_3" xmlns="http://www.w3.org/2000/svg" xmlns:xlink="http://www.w3.org/1999/xlink" x="0px" y="0px"
	 viewBox="0 0 28.3 28.3" style="enable-background:new 0 0 28.3 28.3;" xml:space="preserve">
<style type="text/css">
	.st0{opacity:0;fill:#FFFFFF;}
	.st1{opacity:3.030303e-02;fill:#FCFCFC;}
	.st2{opacity:6.060606e-02;fill:#F9F9F9;}
	.st3{opacity:9.090909e-02;fill:#F5F5F5;}
	.st4{opacity:0.1212;fill:#F2F2F2;}
	.st5{opacity:0.1515;fill:#EFEFEF;}
	.st6{opacity:0.1818;fill:#ECECEC;}
	.st7{opacity:0.2121;fill:#E8E8E8;}
	.st8{opacity:0.2424;fill:#E5E5E5;}
	.st9{opacity:0.2727;fill:#E2E2E2;}
	.st10{opacity:0.303;fill:#DFDFDF;}
	.st11{opacity:0.3333;fill:#DBDBDB;}
	.st12{opacity:0.3636;fill:#D8D8D8;}
	.st13{opacity:0.3939;fill:#D5D5D5;}
	.st14{opacity:0.4242;fill:#D2D2D2;}
	.st15{opacity:0.4545;fill:#CECECE;}
	.st16{opacity:0.4848;fill:#CBCBCB;}
	.st17{opacity:0.5152;fill:#C8C8C8;}
	.st18{opacity:0.5455;fill:#C5C5C5;}
	.st19{opacity:0.5758;fill:#C1C1C1;}
	.st20{opacity:0.6061;fill:#BEBEBE;}
	.st21{opacity:0.6364;fill:#BBBBBB;}
	.st22{opacity:0.6667;fill:#B8B8B8;}
	.st23{opacity:0.697;fill:#B4B4B4;}
	.st24{opacity:0.7273;fill:#B1B1B1;}
	.st25{opacity:0.7576;fill:#AEAEAE;}
	.st26{opacity:0.7879;fill:#ABABAB;}
	.st27{opacity:0.8182;fill:#A7A7A7;}
	.st28{opacity:0.8485;fill:#A4A4A4;}
	.st29{opacity:0.8788;fill:#A1A1A1;}
	.st30{opacity:0.9091;fill:#9E9E9E;}
	.st31{opacity:0.9394;fill:#9A9A9A;}
	.st32{opacity:0.9697;fill:#979797;}
	.st33{fill:#949494;}
	.st34{fill:#ABCF00;}
	.st35{fill:url(#SVGID_1_);}
	.st36{fill:#008CFF;}
	.st37{clip-path:url(#SVGID_3_);}
	.st38{opacity:3.030303e-02;fill:#F7F9FF;}
	.st39{opacity:6.060606e-02;fill:#F0F4FF;}
	.st40{opacity:9.090909e-02;fill:#E8EEFF;}
	.st41{opacity:0.1212;fill:#E0E9FF;}
	.st42{opacity:0.1515;fill:#D8E3FF;}
	.st43{opacity:0.1818;fill:#D1DEFF;}
	.st44{opacity:0.2121;fill:#C9D8FF;}
	.st45{opacity:0.2424;fill:#C1D2FF;}
	.st46{opacity:0.2727;fill:#B9CDFF;}
	.st47{opacity:0.303;fill:#B2C7FF;}
	.st48{opacity:0.3333;fill:#AAC2FF;}
	.st49{opacity:0.3636;fill:#A2BCFF;}
	.st50{opacity:0.3939;fill:#9BB7FF;}
	.st51{opacity:0.4242;fill:#93B1FF;}
	.st52{opacity:0.4545;fill:#8BABFF;}
	.st53{opacity:0.4848;fill:#83A6FF;}
	.st54{opacity:0.5152;fill:#7CA0FF;}
	.st55{opacity:0.5455;fill:#749BFF;}
	.st56{opacity:0.5758;fill:#6C95FF;}
	.st57{opacity:0.6061;fill:#648FFF;}
	.st58{opacity:0.6364;fill:#5D8AFF;}
	.st59{opacity:0.6667;fill:#5584FF;}
	.st60{opacity:0.697;fill:#4D7FFF;}
	.st61{opacity:0.7273;fill:#4679FF;}
	.st62{opacity:0.7576;fill:#3E74FF;}
	.st63{opacity:0.7879;fill:#366EFF;}
	.st64{opacity:0.8182;fill:#2E68FF;}
	.st65{opacity:0.8485;fill:#2763FF;}
	.st66{opacity:0.8788;fill:#1F5DFF;}
	.st67{opacity:0.9091;fill:#1758FF;}
	.st68{opacity:0.9394;fill:#0F52FF;}
	.st69{opacity:0.9697;fill:#084DFF;}
	.st70{fill:#0047FF;}
	.st71{fill:url(#SVGID_4_);}
	.st72{fill:#F8FFFF;}
	.st73{fill:url(#SVGID_5_);}
	.st74{fill:#BA531C;}
	.st75{fill:url(#SVGID_6_);}
	.st76{fill:url(#SVGID_7_);}
	.st77{fill:url(#SVGID_8_);}
	.st78{fill:url(#SVGID_9_);}
	.st79{fill:url(#SVGID_10_);}
	.st80{fill:url(#SVGID_11_);}
	.st81{fill:url(#SVGID_12_);}
	.st82{fill:url(#SVGID_13_);}
	.st83{fill:url(#SVGID_14_);}
	.st84{fill:url(#SVGID_15_);}
	.st85{fill:url(#SVGID_16_);}
	.st86{fill:url(#SVGID_17_);}
	.st87{fill:url(#SVGID_18_);}
	.st88{fill:url(#SVGID_19_);}
	.st89{fill:url(#SVGID_20_);}
	.st90{fill:url(#SVGID_21_);}
	.st91{fill:url(#SVGID_22_);}
	.st92{fill:url(#SVGID_23_);}
	.st93{fill:url(#SVGID_24_);}
	.st94{fill:url(#SVGID_25_);}
	.st95{fill:url(#SVGID_26_);}
	.st96{fill:url(#SVGID_27_);}
	.st97{fill:url(#SVGID_28_);}
	.st98{fill:url(#SVGID_29_);}
	.st99{fill:url(#SVGID_30_);}
	.st100{fill:url(#SVGID_31_);}
	.st101{fill:url(#SVGID_32_);}
	.st102{fill:url(#SVGID_33_);}
	.st103{fill:url(#SVGID_34_);}
	.st104{fill:url(#SVGID_35_);}
	.st105{fill:url(#SVGID_36_);}
	.st106{fill:url(#SVGID_37_);}
	.st107{fill:url(#SVGID_38_);}
	.st108{fill:#FE9E0F;}
	.st109{fill:url(#SVGID_39_);}
	.st110{fill:url(#SVGID_40_);}
	.st111{fill:url(#SVGID_41_);}
	.st112{fill:url(#SVGID_42_);}
	.st113{fill:url(#SVGID_43_);}
	.st114{fill:#32414A;}
</style>
<g>
	<g>
		<path class="st0" d="M23,13c-5.3-3.1-10.7-3.1-16,0l0,0c-2.6,1.5-4,3.1-4,4.6s1.3,3.1,4,4.6c5.3,3.1,10.7,3.1,16,0
			c2.6-1.5,4-3.1,4-4.6C27,16.1,25.7,14.5,23,13z"/>
		<path class="st1" d="M23,13c-5.3-3.1-10.7-3.1-16,0l0,0c-2.6,1.5-4,3.1-4,4.6s1.3,3.1,4,4.6c5.3,3.1,10.7,3.1,16,0
			c2.6-1.5,4-3.1,4-4.6C26.9,16.1,25.6,14.5,23,13z"/>
		<path class="st2" d="M22.9,13c-5.3-3.1-10.7-3.1-16,0l0,0c-2.6,1.5-4,3.1-4,4.6s1.3,3.1,4,4.6c5.3,3.1,10.7,3.1,16,0
			c2.6-1.5,4-3.1,4-4.6C26.9,16.1,25.6,14.5,22.9,13z"/>
		<path class="st3" d="M22.9,13c-5.3-3.1-10.7-3.1-16,0l0,0c-2.6,1.5-4,3.1-4,4.6s1.3,3.1,4,4.6c5.3,3.1,10.7,3.1,16,0
			c2.6-1.5,4-3.1,4-4.6C26.8,16.1,25.5,14.5,22.9,13z"/>
		<path class="st4" d="M22.8,13c-5.3-3.1-10.7-3.1-16,0l0,0c-2.6,1.5-4,3.1-4,4.6s1.3,3.1,4,4.6c5.3,3.1,10.7,3.1,16,0
			c2.6-1.5,4-3.1,4-4.6C26.8,16.1,25.5,14.5,22.8,13z"/>
		<path class="st5" d="M22.8,13c-5.3-3.1-10.7-3.1-16,0l0,0c-2.6,1.5-4,3.1-4,4.6s1.3,3.1,4,4.6c5.3,3.1,10.7,3.1,16,0
			c2.6-1.5,4-3.1,4-4.6C26.7,16.1,25.4,14.5,22.8,13z"/>
		<path class="st6" d="M22.7,13c-5.3-3.1-10.7-3.1-16,0l0,0c-2.6,1.5-4,3.1-4,4.6s1.3,3.1,4,4.6c5.3,3.1,10.7,3.1,16,0
			c2.6-1.5,4-3.1,4-4.6C26.7,16.1,25.4,14.5,22.7,13z"/>
		<path class="st7" d="M22.7,13c-5.3-3.1-10.7-3.1-16,0l0,0c-2.6,1.5-4,3.1-4,4.6s1.3,3.1,4,4.6c5.3,3.1,10.7,3.1,16,0
			c2.6-1.5,4-3.1,4-4.6C26.6,16.1,25.3,14.5,22.7,13z"/>
		<path class="st8" d="M22.6,13c-5.3-3.1-10.7-3.1-16,0l0,0c-2.6,1.5-4,3.1-4,4.6s1.3,3.1,4,4.6c5.3,3.1,10.7,3.1,16,0
			c2.6-1.5,4-3.1,4-4.6C26.6,16.1,25.3,14.5,22.6,13z"/>
		<path class="st9" d="M22.6,13c-5.3-3.1-10.7-3.1-16,0l0,0c-2.6,1.5-4,3.1-4,4.6s1.3,3.1,4,4.6c5.3,3.1,10.7,3.1,16,0
			c2.6-1.5,4-3.1,4-4.6C26.5,16.1,25.2,14.5,22.6,13z"/>
		<path class="st10" d="M22.5,13c-5.3-3.1-10.7-3.1-16,0l0,0c-2.6,1.5-4,3.1-4,4.6s1.3,3.1,4,4.6c5.3,3.1,10.7,3.1,16,0
			c2.6-1.5,4-3.1,4-4.6C26.5,16.1,25.2,14.5,22.5,13z"/>
		<path class="st11" d="M22.5,13c-5.3-3.1-10.7-3.1-16,0l0,0c-2.6,1.5-4,3.1-4,4.6s1.3,3.1,4,4.6c5.3,3.1,10.7,3.1,16,0
			c2.6-1.5,4-3.1,4-4.6C26.4,16.1,25.1,14.5,22.5,13z"/>
		<path class="st12" d="M22.4,13c-5.3-3.1-10.7-3.1-16,0l0,0c-2.6,1.5-4,3.1-4,4.6s1.3,3.1,4,4.6c5.3,3.1,10.7,3.1,16,0
			c2.6-1.5,4-3.1,4-4.6C26.4,16.1,25.1,14.5,22.4,13z"/>
		<path class="st13" d="M22.4,13c-5.3-3.1-10.7-3.1-16,0l0,0c-2.6,1.5-4,3.1-4,4.6s1.3,3.1,4,4.6c5.3,3.1,10.7,3.1,16,0
			c2.6-1.5,4-3.1,4-4.6C26.3,16.1,25,14.5,22.4,13z"/>
		<path class="st14" d="M22.3,13c-5.3-3.1-10.7-3.1-16,0l0,0c-2.6,1.5-4,3.1-4,4.6s1.3,3.1,4,4.6c5.3,3.1,10.7,3.1,16,0
			c2.6-1.5,4-3.1,4-4.6C26.3,16.1,25,14.5,22.3,13z"/>
		<path class="st15" d="M22.3,13c-5.3-3.1-10.7-3.1-16,0l0,0c-2.6,1.5-4,3.1-4,4.6s1.3,3.1,4,4.6c5.3,3.1,10.7,3.1,16,0
			c2.6-1.5,4-3.1,4-4.6C26.3,16.1,24.9,14.5,22.3,13z"/>
		<path class="st16" d="M22.2,13c-5.3-3.1-10.7-3.1-16,0l0,0c-2.6,1.5-4,3.1-4,4.6s1.3,3.1,4,4.6c5.3,3.1,10.7,3.1,16,0
			c2.6-1.5,4-3.1,4-4.6C26.2,16.1,24.9,14.5,22.2,13z"/>
		<path class="st17" d="M22.2,13c-5.3-3.1-10.7-3.1-16,0l0,0c-2.6,1.5-4,3.1-4,4.6s1.3,3.1,4,4.6c5.3,3.1,10.7,3.1,16,0
			c2.6-1.5,4-3.1,4-4.6C26.2,16.1,24.8,14.5,22.2,13z"/>
		<path class="st18" d="M22.1,13c-5.3-3.1-10.7-3.1-16,0l0,0c-2.6,1.5-4,3.1-4,4.6s1.3,3.1,4,4.6c5.3,3.1,10.7,3.1,16,0
			c2.6-1.5,4-3.1,4-4.6C26.1,16.1,24.8,14.5,22.1,13z"/>
		<path class="st19" d="M22.1,13c-5.3-3.1-10.7-3.1-16,0l0,0c-2.6,1.5-4,3.1-4,4.6s1.3,3.1,4,4.6c5.3,3.1,10.7,3.1,16,0
			c2.6-1.5,4-3.1,4-4.6C26.1,16.1,24.7,14.5,22.1,13z"/>
		<path class="st20" d="M22,13c-5.3-3.1-10.7-3.1-16,0l0,0c-2.6,1.5-4,3.1-4,4.6s1.3,3.1,4,4.6c5.3,3.1,10.7,3.1,16,0
			c2.6-1.5,4-3.1,4-4.6C26,16.1,24.7,14.5,22,13z"/>
		<path class="st21" d="M22,13c-5.3-3.1-10.7-3.1-16,0l0,0c-2.6,1.5-4,3.1-4,4.6s1.3,3.1,4,4.6c5.3,3.1,10.7,3.1,16,0
			c2.6-1.5,4-3.1,4-4.6C26,16.1,24.6,14.5,22,13z"/>
		<path class="st22" d="M21.9,13c-5.3-3.1-10.7-3.1-16,0l0,0c-2.6,1.5-4,3.1-4,4.6s1.3,3.1,4,4.6c5.3,3.1,10.7,3.1,16,0
			c2.6-1.5,4-3.1,4-4.6C25.9,16.1,24.6,14.5,21.9,13z"/>
		<path class="st23" d="M21.9,13c-5.3-3.1-10.7-3.1-16,0l0,0c-2.6,1.5-4,3.1-4,4.6s1.3,3.1,4,4.6c5.3,3.1,10.7,3.1,16,0
			c2.6-1.5,4-3.1,4-4.6C25.9,16.1,24.5,14.5,21.9,13z"/>
		<path class="st24" d="M21.8,13c-5.3-3.1-10.7-3.1-16,0l0,0c-2.6,1.5-4,3.1-4,4.6s1.3,3.1,4,4.6c5.3,3.1,10.7,3.1,16,0
			c2.6-1.5,4-3.1,4-4.6C25.8,16.1,24.5,14.5,21.8,13z"/>
		<path class="st25" d="M21.8,13c-5.3-3.1-10.7-3.1-16,0l0,0c-2.6,1.5-4,3.1-4,4.6s1.3,3.1,4,4.6c5.3,3.1,10.7,3.1,16,0
			c2.6-1.5,4-3.1,4-4.6C25.8,16.1,24.4,14.5,21.8,13z"/>
		<path class="st26" d="M21.7,13c-5.3-3.1-10.7-3.1-16,0l0,0c-2.6,1.5-4,3.1-4,4.6s1.3,3.1,4,4.6c5.3,3.1,10.7,3.1,16,0
			c2.6-1.5,4-3.1,4-4.6C25.7,16.1,24.4,14.5,21.7,13z"/>
		<path class="st27" d="M21.7,13c-5.3-3.1-10.7-3.1-16,0l0,0c-2.6,1.5-4,3.1-4,4.6s1.3,3.1,4,4.6c5.3,3.1,10.7,3.1,16,0
			c2.6-1.5,4-3.1,4-4.6C25.7,16.1,24.3,14.5,21.7,13z"/>
		<path class="st28" d="M21.6,13c-5.3-3.1-10.7-3.1-16,0l0,0c-2.6,1.5-4,3.1-4,4.6s1.3,3.1,4,4.6c5.3,3.1,10.7,3.1,16,0
			c2.6-1.5,4-3.1,4-4.6C25.6,16.1,24.3,14.5,21.6,13z"/>
		<path class="st29" d="M21.6,13c-5.3-3.1-10.7-3.1-16,0l0,0c-2.6,1.5-4,3.1-4,4.6s1.3,3.1,4,4.6c5.3,3.1,10.7,3.1,16,0
			c2.6-1.5,4-3.1,4-4.6C25.6,16.1,24.2,14.5,21.6,13z"/>
		<path class="st30" d="M21.5,13c-5.3-3.1-10.7-3.1-16,0l0,0c-2.6,1.5-4,3.1-4,4.6s1.3,3.1,4,4.6c5.3,3.1,10.7,3.1,16,0
			c2.6-1.5,4-3.1,4-4.6C25.5,16.1,24.2,14.5,21.5,13z"/>
		<path class="st31" d="M21.5,13c-5.3-3.1-10.7-3.1-16,0l0,0c-2.6,1.5-4,3.1-4,4.6s1.3,3.1,4,4.6c5.3,3.1,10.7,3.1,16,0
			c2.6-1.5,4-3.1,4-4.6C25.5,16.1,24.1,14.5,21.5,13z"/>
		<path class="st32" d="M21.4,13c-5.3-3.1-10.7-3.1-16,0l0,0c-2.6,1.5-4,3.1-4,4.6s1.3,3.1,4,4.6c5.3,3.1,10.7,3.1,16,0
			c2.6-1.5,4-3.1,4-4.6C25.4,16.1,24.1,14.5,21.4,13z"/>
		<path class="st33" d="M21.4,13c-5.3-3.1-10.7-3.1-16,0l0,0c-2.6,1.5-4,3.1-4,4.6s1.3,3.1,4,4.6c5.3,3.1,10.7,3.1,16,0
			c2.6-1.5,4-3.1,4-4.6C25.4,16.1,24,14.5,21.4,13z"/>
	</g>
	<g>
		<path class="st34" d="M21.4,13c-5.3-3.1-10.7-3.1-16,0l0,0c-2.6,1.5-4,3.1-4,4.6s1.3,3.1,4,4.6c5.3,3.1,10.7,3.1,16,0
			c2.6-1.5,4-3.1,4-4.6C25.4,16.1,24,14.5,21.4,13z"/>
		
			<linearGradient id="SVGID_1_" gradientUnits="userSpaceOnUse" x1="-207.4204" y1="25.704" x2="-183.4763" y2="25.704" gradientTransform="matrix(1 0 0 1 208.8327 -5.7905)">
			<stop  offset="0" style="stop-color:#00AAFF"/>
			<stop  offset="3.940326e-02" style="stop-color:#00A9FF"/>
			<stop  offset="0.3524" style="stop-color:#00A6FF"/>
			<stop  offset="0.5368" style="stop-color:#0086DD"/>
			<stop  offset="0.7441" style="stop-color:#0066BA"/>
			<stop  offset="1" style="stop-color:#0041AD"/>
		</linearGradient>
		<path class="st35" d="M21.4,19.9c-5.3,3.1-10.7,3.1-16,0c-2.6-1.5-4-3.1-4-4.6v2.3c0,1.5,1.3,3.1,4,4.6c5.3,3.1,10.7,3.1,16,0
			c2.6-1.5,4-3.1,4-4.6v-2.3C25.4,16.9,24,18.4,21.4,19.9z"/>
		<path class="st36" d="M21.4,10.7c-5.3-3.1-10.7-3.1-16,0l0,0c-2.6,1.5-4,3.1-4,4.6s1.3,3.1,4,4.6c5.3,3.1,10.7,3.1,16,0
			c2.6-1.5,4-3.1,4-4.6C25.4,13.8,24,12.2,21.4,10.7z"/>
	</g>
	<g>
		<defs>
			<path id="SVGID_2_" d="M21.4,10.7c-5.3-3.1-10.7-3.1-16,0l0,0c-2.6,1.5-4,3.1-4,4.6s1.3,3.1,4,4.6c5.3,3.1,10.7,3.1,16,0
				c2.6-1.5,4-3.1,4-4.6C25.4,13.8,24,12.2,21.4,10.7z"/>
		</defs>
		<clipPath id="SVGID_3_">
			<use xlink:href="#SVGID_2_"  style="overflow:visible;"/>
		</clipPath>
		<g class="st37">
			<path class="st0" d="M26.8,13.2c0.1,0.5,0.1,0.9,0.1,1.4c0,0.8-0.2,1.5-0.4,2c0.3-0.5,0.4-1.2,0.4-2
				C26.9,14.2,26.9,13.7,26.8,13.2z M23.1,13.4L23.1,13.4L23.1,13.4L23.1,13.4z M23.4,5.8c-0.3-0.2-0.6-0.3-1-0.4
				c0-0.2,0-0.2-0.1-0.3c-0.1-0.1-0.2-0.2-0.3-0.5c-0.4-0.7-0.8-1.1-1.2-1.1c-0.3,0.1-0.6,0.2-0.9,0.3l-1.5,0.9l0,0L18,4.9
				c0.3-0.2,0.6-0.3,0.9-0.3c0.1,0,0.3,0,0.4,0c-0.1-0.1-0.2-0.1-0.4,0c-0.3,0.1-0.6,0.2-0.9,0.3c0,0,0,0,0,0
				c-1.1,0.6-1.8,2.1-1.8,4c0,0.8,0.3,1.1,0.9,1.6c0.4,0.3,0.5,0.5,0.8,0.4c0.6,2.5,2.4,5.2,4.5,6.4c1.3,0.7,2.5,0.8,3.3,0.3l0,0
				l1.1-0.7c0.9-0.5,1.4-1.5,1.4-3C28.1,11,26,7.3,23.4,5.8z M20.8,5.9L20.8,5.9C21,6,21.2,6,21.4,6.1C21.2,6,21,6,20.8,5.9z
				 M22.7,13.5c-0.1,0-0.1,0-0.2,0c0,0,0,0,0,0c0,0-0.1,0-0.1-0.1C22.5,13.5,22.6,13.5,22.7,13.5C22.8,13.5,22.7,13.5,22.7,13.5z
				 M23,13.5C23,13.5,23,13.5,23,13.5c-0.1,0-0.2,0-0.2,0c0,0,0,0,0,0C22.9,13.5,23,13.5,23,13.5C23.1,13.5,23,13.5,23,13.5z
				 M23.5,12.7C23.4,12.7,23.4,12.7,23.5,12.7c-0.8-0.4-1.3-1.4-1.3-2.2c0,0,0-0.1,0-0.1c0,0,0.1,0,0.1,0c0.7,0.4,1.2,1.4,1.2,2.2
				C23.5,12.7,23.5,12.7,23.5,12.7z"/>
			<path class="st38" d="M26.5,13.2c0.1,0.5,0.1,0.9,0.1,1.4c0,0.8-0.2,1.5-0.4,2c0.3-0.5,0.4-1.2,0.4-2
				C26.6,14.2,26.6,13.7,26.5,13.2z M22.8,13.4L22.8,13.4L22.8,13.4L22.8,13.4z M23.1,5.8c-0.3-0.2-0.6-0.3-1-0.4
				c0-0.2,0-0.2-0.1-0.3c-0.1-0.1-0.2-0.2-0.3-0.5c-0.4-0.7-0.8-1.1-1.2-1.1c-0.3,0.1-0.6,0.2-0.9,0.3l-1.5,0.9l0,0l-0.4,0.2
				c0.3-0.2,0.6-0.3,0.9-0.3c0.1,0,0.3,0,0.4,0c-0.1-0.1-0.2-0.1-0.4,0c-0.3,0.1-0.6,0.2-0.9,0.3c0,0,0,0,0,0
				c-1.1,0.6-1.8,2.1-1.8,4c0,0.8,0.3,1.1,0.9,1.6c0.4,0.3,0.5,0.5,0.8,0.4c0.6,2.5,2.4,5.2,4.5,6.4c1.3,0.7,2.5,0.8,3.3,0.3l0,0
				l1.1-0.7c0.9-0.5,1.4-1.5,1.4-3C27.8,11,25.7,7.3,23.1,5.8z M20.5,5.9L20.5,5.9c0.2,0,0.4,0.1,0.6,0.2C20.9,6,20.7,6,20.5,5.9z
				 M22.4,13.5c-0.1,0-0.1,0-0.2,0c0,0,0,0,0,0c0,0-0.1,0-0.1-0.1C22.2,13.5,22.3,13.5,22.4,13.5C22.4,13.5,22.4,13.5,22.4,13.5z
				 M22.7,13.5C22.7,13.5,22.7,13.5,22.7,13.5c-0.1,0-0.2,0-0.2,0c0,0,0,0,0,0C22.6,13.5,22.7,13.5,22.7,13.5
				C22.8,13.5,22.7,13.5,22.7,13.5z M23.2,12.7C23.1,12.7,23.1,12.7,23.2,12.7c-0.8-0.4-1.3-1.4-1.3-2.2c0,0,0-0.1,0-0.1
				c0,0,0.1,0,0.1,0c0.7,0.4,1.2,1.4,1.2,2.2C23.2,12.7,23.2,12.7,23.2,12.7z"/>
			<path class="st39" d="M26.2,13.2c0.1,0.5,0.1,0.9,0.1,1.4c0,0.8-0.2,1.5-0.4,2c0.3-0.5,0.4-1.2,0.4-2
				C26.3,14.2,26.3,13.7,26.2,13.2z M22.5,13.4L22.5,13.4L22.5,13.4L22.5,13.4z M22.8,5.8c-0.3-0.2-0.6-0.3-1-0.4
				c0-0.2,0-0.2-0.1-0.3c-0.1-0.1-0.2-0.2-0.3-0.5c-0.4-0.7-0.8-1.1-1.2-1.1c-0.3,0.1-0.6,0.2-0.9,0.3l-1.5,0.9l0,0l-0.4,0.2
				c0.3-0.2,0.6-0.3,0.9-0.3c0.1,0,0.3,0,0.4,0c-0.1-0.1-0.2-0.1-0.4,0c-0.3,0.1-0.6,0.2-0.9,0.3c0,0,0,0,0,0
				c-1.1,0.6-1.8,2.1-1.8,4c0,0.8,0.3,1.1,0.9,1.6c0.4,0.3,0.5,0.5,0.8,0.4c0.6,2.5,2.4,5.2,4.5,6.4c1.3,0.7,2.5,0.8,3.3,0.3l0,0
				l1.1-0.7c0.9-0.5,1.4-1.5,1.4-3C27.5,11,25.4,7.3,22.8,5.8z M20.2,5.9L20.2,5.9c0.2,0,0.4,0.1,0.6,0.2C20.6,6,20.4,6,20.2,5.9z
				 M22.1,13.5c-0.1,0-0.1,0-0.2,0c0,0,0,0,0,0c0,0-0.1,0-0.1-0.1C21.9,13.5,22,13.5,22.1,13.5C22.1,13.5,22.1,13.5,22.1,13.5z
				 M22.4,13.5C22.4,13.5,22.4,13.5,22.4,13.5c-0.1,0-0.2,0-0.2,0c0,0,0,0,0,0C22.3,13.5,22.4,13.5,22.4,13.5
				C22.5,13.5,22.4,13.5,22.4,13.5z M22.9,12.7C22.8,12.7,22.8,12.7,22.9,12.7c-0.8-0.4-1.3-1.4-1.3-2.2c0,0,0-0.1,0-0.1
				c0,0,0.1,0,0.1,0c0.7,0.4,1.2,1.4,1.2,2.2C22.9,12.7,22.9,12.7,22.9,12.7z"/>
			<path class="st40" d="M25.9,13.2c0.1,0.5,0.1,0.9,0.1,1.4c0,0.8-0.2,1.5-0.4,2c0.3-0.5,0.4-1.2,0.4-2C26,14.2,26,13.7,25.9,13.2z
				 M22.2,13.4L22.2,13.4L22.2,13.4L22.2,13.4z M22.5,5.8c-0.3-0.2-0.6-0.3-1-0.4c0-0.2,0-0.2-0.1-0.3c-0.1-0.1-0.2-0.2-0.3-0.5
				c-0.4-0.7-0.8-1.1-1.2-1.1c-0.3,0.1-0.6,0.2-0.9,0.3l-1.5,0.9l0,0l-0.4,0.2c0.3-0.2,0.6-0.3,0.9-0.3c0.1,0,0.3,0,0.4,0
				c-0.1-0.1-0.2-0.1-0.4,0c-0.3,0.1-0.6,0.2-0.9,0.3c0,0,0,0,0,0c-1.1,0.6-1.8,2.1-1.8,4c0,0.8,0.3,1.1,0.9,1.6
				c0.4,0.3,0.5,0.5,0.8,0.4c0.6,2.5,2.4,5.2,4.5,6.4c1.3,0.7,2.5,0.8,3.3,0.3l0,0l1.1-0.7c0.9-0.5,1.4-1.5,1.4-3
				C27.2,11,25.1,7.3,22.5,5.8z M19.9,5.9L19.9,5.9c0.2,0,0.4,0.1,0.6,0.2C20.3,6,20.1,6,19.9,5.9z M21.8,13.5c-0.1,0-0.1,0-0.2,0
				c0,0,0,0,0,0c0,0-0.1,0-0.1-0.1C21.6,13.5,21.7,13.5,21.8,13.5C21.8,13.5,21.8,13.5,21.8,13.5z M22.1,13.5
				C22.1,13.5,22.1,13.5,22.1,13.5c-0.1,0-0.2,0-0.2,0c0,0,0,0,0,0C22,13.5,22.1,13.5,22.1,13.5C22.2,13.5,22.1,13.5,22.1,13.5z
				 M22.6,12.7C22.5,12.7,22.5,12.7,22.6,12.7c-0.8-0.4-1.3-1.4-1.3-2.2c0,0,0-0.1,0-0.1c0,0,0.1,0,0.1,0c0.7,0.4,1.2,1.4,1.2,2.2
				C22.6,12.7,22.6,12.7,22.6,12.7z"/>
			<path class="st41" d="M25.6,13.2c0.1,0.5,0.1,0.9,0.1,1.4c0,0.8-0.2,1.5-0.4,2c0.3-0.5,0.4-1.2,0.4-2
				C25.7,14.2,25.7,13.7,25.6,13.2z M21.9,13.4L21.9,13.4L21.9,13.4L21.9,13.4z M22.2,5.8c-0.3-0.2-0.6-0.3-1-0.4
				c0-0.2,0-0.2-0.1-0.3c-0.1-0.1-0.2-0.2-0.3-0.5c-0.4-0.7-0.8-1.1-1.2-1.1c-0.3,0.1-0.6,0.2-0.9,0.3l-1.5,0.9l0,0l-0.4,0.2
				c0.3-0.2,0.6-0.3,0.9-0.3c0.1,0,0.3,0,0.4,0c-0.1-0.1-0.2-0.1-0.4,0c-0.3,0.1-0.6,0.2-0.9,0.3c0,0,0,0,0,0
				c-1.1,0.6-1.8,2.1-1.8,4c0,0.8,0.3,1.1,0.9,1.6c0.4,0.3,0.5,0.5,0.8,0.4c0.6,2.5,2.4,5.2,4.5,6.4c1.3,0.7,2.5,0.8,3.3,0.3l0,0
				l1.1-0.7c0.9-0.5,1.4-1.5,1.4-3C26.9,11,24.8,7.3,22.2,5.8z M19.6,5.9L19.6,5.9C19.8,6,20,6,20.2,6.1C20,6,19.8,6,19.6,5.9z
				 M21.5,13.5c-0.1,0-0.1,0-0.2,0c0,0,0,0,0,0c0,0-0.1,0-0.1-0.1C21.3,13.5,21.4,13.5,21.5,13.5C21.5,13.5,21.5,13.5,21.5,13.5z
				 M21.8,13.5C21.8,13.5,21.8,13.5,21.8,13.5c-0.1,0-0.2,0-0.2,0c0,0,0,0,0,0C21.7,13.5,21.8,13.5,21.8,13.5
				C21.9,13.5,21.8,13.5,21.8,13.5z M22.3,12.7C22.2,12.7,22.2,12.7,22.3,12.7c-0.8-0.4-1.3-1.4-1.3-2.2c0,0,0-0.1,0-0.1
				c0,0,0.1,0,0.1,0c0.7,0.4,1.2,1.4,1.2,2.2C22.3,12.7,22.3,12.7,22.3,12.7z"/>
			<path class="st42" d="M25.3,13.2c0.1,0.5,0.1,0.9,0.1,1.4c0,0.8-0.2,1.5-0.4,2c0.3-0.5,0.4-1.2,0.4-2
				C25.4,14.2,25.4,13.7,25.3,13.2z M21.6,13.4L21.6,13.4L21.6,13.4L21.6,13.4z M21.9,5.8c-0.3-0.2-0.6-0.3-1-0.4
				c0-0.2,0-0.2-0.1-0.3c-0.1-0.1-0.2-0.2-0.3-0.5c-0.4-0.7-0.8-1.1-1.2-1.1c-0.3,0.1-0.6,0.2-0.9,0.3l-1.5,0.9l0,0l-0.4,0.2
				c0.3-0.2,0.6-0.3,0.9-0.3c0.1,0,0.3,0,0.4,0c-0.1-0.1-0.2-0.1-0.4,0c-0.3,0.1-0.6,0.2-0.9,0.3c0,0,0,0,0,0
				c-1.1,0.6-1.8,2.1-1.8,4c0,0.8,0.3,1.1,0.9,1.6c0.4,0.3,0.5,0.5,0.8,0.4c0.6,2.5,2.4,5.2,4.5,6.4c1.3,0.7,2.5,0.8,3.3,0.3l0,0
				l1.1-0.7c0.9-0.5,1.4-1.5,1.4-3C26.6,11,24.5,7.3,21.9,5.8z M19.3,5.9L19.3,5.9c0.2,0,0.4,0.1,0.6,0.2C19.7,6,19.5,6,19.3,5.9z
				 M21.2,13.5c-0.1,0-0.1,0-0.2,0c0,0,0,0,0,0c0,0-0.1,0-0.1-0.1C21,13.5,21.1,13.5,21.2,13.5C21.2,13.5,21.2,13.5,21.2,13.5z
				 M21.5,13.5C21.5,13.5,21.5,13.5,21.5,13.5c-0.1,0-0.2,0-0.2,0c0,0,0,0,0,0C21.4,13.5,21.5,13.5,21.5,13.5
				C21.6,13.5,21.5,13.5,21.5,13.5z M22,12.7C21.9,12.7,21.9,12.7,22,12.7c-0.8-0.4-1.3-1.4-1.3-2.2c0,0,0-0.1,0-0.1
				c0,0,0.1,0,0.1,0c0.7,0.4,1.2,1.4,1.2,2.2C22,12.7,22,12.7,22,12.7z"/>
			<path class="st43" d="M25,13.2c0.1,0.5,0.1,0.9,0.1,1.4c0,0.8-0.2,1.5-0.4,2c0.3-0.5,0.4-1.2,0.4-2C25.1,14.2,25.1,13.7,25,13.2z
				 M21.3,13.4L21.3,13.4L21.3,13.4L21.3,13.4z M21.6,5.8c-0.3-0.2-0.6-0.3-1-0.4c0-0.2,0-0.2-0.1-0.3c-0.1-0.1-0.2-0.2-0.3-0.5
				c-0.4-0.7-0.8-1.1-1.2-1.1c-0.3,0.1-0.6,0.2-0.9,0.3l-1.5,0.9l0,0l-0.4,0.2c0.3-0.2,0.6-0.3,0.9-0.3c0.1,0,0.3,0,0.4,0
				c-0.1-0.1-0.2-0.1-0.4,0c-0.3,0.1-0.6,0.2-0.9,0.3c0,0,0,0,0,0c-1.1,0.6-1.8,2.1-1.8,4c0,0.8,0.3,1.1,0.9,1.6
				c0.4,0.3,0.5,0.5,0.8,0.4c0.6,2.5,2.4,5.2,4.5,6.4c1.3,0.7,2.5,0.8,3.3,0.3l0,0l1.1-0.7c0.9-0.5,1.4-1.5,1.4-3
				C26.3,11,24.2,7.3,21.6,5.8z M19,5.9L19,5.9c0.2,0,0.4,0.1,0.6,0.2C19.4,6,19.2,6,19,5.9z M20.9,13.5c-0.1,0-0.1,0-0.2,0
				c0,0,0,0,0,0c0,0-0.1,0-0.1-0.1C20.7,13.5,20.8,13.5,20.9,13.5C20.9,13.5,20.9,13.5,20.9,13.5z M21.2,13.5
				C21.2,13.5,21.2,13.5,21.2,13.5c-0.1,0-0.2,0-0.2,0c0,0,0,0,0,0C21.1,13.5,21.2,13.5,21.2,13.5C21.3,13.5,21.2,13.5,21.2,13.5z
				 M21.7,12.7C21.6,12.7,21.6,12.7,21.7,12.7c-0.8-0.4-1.3-1.4-1.3-2.2c0,0,0-0.1,0-0.1c0,0,0.1,0,0.1,0c0.7,0.4,1.2,1.4,1.2,2.2
				C21.7,12.7,21.7,12.7,21.7,12.7z"/>
			<path class="st44" d="M24.7,13.2c0.1,0.5,0.1,0.9,0.1,1.4c0,0.8-0.2,1.5-0.4,2c0.3-0.5,0.4-1.2,0.4-2
				C24.8,14.2,24.8,13.7,24.7,13.2z M21,13.4L21,13.4L21,13.4L21,13.4z M21.3,5.8c-0.3-0.2-0.6-0.3-1-0.4c0-0.2,0-0.2-0.1-0.3
				c-0.1-0.1-0.2-0.2-0.3-0.5c-0.4-0.7-0.8-1.1-1.2-1.1c-0.3,0.1-0.6,0.2-0.9,0.3l-1.5,0.9l0,0l-0.4,0.2c0.3-0.2,0.6-0.3,0.9-0.3
				c0.1,0,0.3,0,0.4,0c-0.1-0.1-0.2-0.1-0.4,0c-0.3,0.1-0.6,0.2-0.9,0.3c0,0,0,0,0,0C14.7,5.5,14,7,14,8.9c0,0.8,0.3,1.1,0.9,1.6
				c0.4,0.3,0.5,0.5,0.8,0.4c0.6,2.5,2.4,5.2,4.5,6.4c1.3,0.7,2.5,0.8,3.3,0.3l0,0l1.1-0.7c0.9-0.5,1.4-1.5,1.4-3
				C26,11,23.9,7.3,21.3,5.8z M18.7,5.9L18.7,5.9c0.2,0,0.4,0.1,0.6,0.2C19.1,6,18.9,6,18.7,5.9z M20.6,13.5c-0.1,0-0.1,0-0.2,0
				c0,0,0,0,0,0c0,0-0.1,0-0.1-0.1C20.4,13.5,20.5,13.5,20.6,13.5C20.6,13.5,20.6,13.5,20.6,13.5z M20.9,13.5
				C20.9,13.5,20.8,13.5,20.9,13.5c-0.1,0-0.2,0-0.2,0c0,0,0,0,0,0C20.8,13.5,20.9,13.5,20.9,13.5C21,13.5,20.9,13.5,20.9,13.5z
				 M21.4,12.7C21.3,12.7,21.3,12.7,21.4,12.7c-0.8-0.4-1.3-1.4-1.3-2.2c0,0,0-0.1,0-0.1c0,0,0.1,0,0.1,0c0.7,0.4,1.2,1.4,1.2,2.2
				C21.4,12.7,21.4,12.7,21.4,12.7z"/>
			<path class="st45" d="M24.4,13.2c0.1,0.5,0.1,0.9,0.1,1.4c0,0.8-0.2,1.5-0.4,2c0.3-0.5,0.4-1.2,0.4-2
				C24.5,14.2,24.5,13.7,24.4,13.2z M20.7,13.4L20.7,13.4L20.7,13.4L20.7,13.4z M21,5.8c-0.3-0.2-0.6-0.3-1-0.4c0-0.2,0-0.2-0.1-0.3
				c-0.1-0.1-0.2-0.2-0.3-0.5c-0.4-0.7-0.8-1.1-1.2-1.1c-0.3,0.1-0.6,0.2-0.9,0.3l-1.5,0.9l0,0l-0.4,0.2c0.3-0.2,0.6-0.3,0.9-0.3
				c0.1,0,0.3,0,0.4,0c-0.1-0.1-0.2-0.1-0.4,0c-0.3,0.1-0.6,0.2-0.9,0.3c0,0,0,0,0,0c-1.1,0.6-1.8,2.1-1.8,4c0,0.8,0.3,1.1,0.9,1.6
				c0.4,0.3,0.5,0.5,0.8,0.4c0.6,2.5,2.4,5.2,4.5,6.4c1.3,0.7,2.5,0.8,3.3,0.3l0,0l1.1-0.7c0.9-0.5,1.4-1.5,1.4-3
				C25.7,11,23.6,7.3,21,5.8z M18.4,5.9L18.4,5.9C18.6,6,18.8,6,19,6.1C18.8,6,18.6,6,18.4,5.9z M20.3,13.5c-0.1,0-0.1,0-0.2,0
				c0,0,0,0,0,0c0,0-0.1,0-0.1-0.1C20.1,13.5,20.2,13.5,20.3,13.5C20.3,13.5,20.3,13.5,20.3,13.5z M20.6,13.5
				C20.6,13.5,20.5,13.5,20.6,13.5c-0.1,0-0.2,0-0.2,0c0,0,0,0,0,0C20.5,13.5,20.6,13.5,20.6,13.5C20.7,13.5,20.6,13.5,20.6,13.5z
				 M21.1,12.7C21,12.7,21,12.7,21.1,12.7c-0.8-0.4-1.3-1.4-1.3-2.2c0,0,0-0.1,0-0.1c0,0,0.1,0,0.1,0c0.7,0.4,1.2,1.4,1.2,2.2
				C21.1,12.7,21.1,12.7,21.1,12.7z"/>
			<path class="st46" d="M24.1,13.2c0.1,0.5,0.1,0.9,0.1,1.4c0,0.8-0.2,1.5-0.4,2c0.3-0.5,0.4-1.2,0.4-2
				C24.2,14.2,24.2,13.7,24.1,13.2z M20.4,13.4L20.4,13.4L20.4,13.4L20.4,13.4z M20.7,5.8c-0.3-0.2-0.6-0.3-1-0.4
				c0-0.2,0-0.2-0.1-0.3c-0.1-0.1-0.2-0.2-0.3-0.5c-0.4-0.7-0.8-1.1-1.2-1.1c-0.3,0.1-0.6,0.2-0.9,0.3l-1.5,0.9l0,0l-0.4,0.2
				c0.3-0.2,0.6-0.3,0.9-0.3c0.1,0,0.3,0,0.4,0c-0.1-0.1-0.2-0.1-0.4,0c-0.3,0.1-0.6,0.2-0.9,0.3c0,0,0,0,0,0
				c-1.1,0.6-1.8,2.1-1.8,4c0,0.8,0.3,1.1,0.9,1.6c0.4,0.3,0.5,0.5,0.8,0.4c0.6,2.5,2.4,5.2,4.5,6.4c1.3,0.7,2.5,0.8,3.3,0.3l0,0
				L24,17c0.9-0.5,1.4-1.5,1.4-3C25.4,11,23.3,7.3,20.7,5.8z M18.1,5.9L18.1,5.9c0.2,0,0.4,0.1,0.6,0.2C18.5,6,18.3,6,18.1,5.9z
				 M20,13.5c-0.1,0-0.1,0-0.2,0c0,0,0,0,0,0c0,0-0.1,0-0.1-0.1C19.8,13.5,19.9,13.5,20,13.5C20,13.5,20,13.5,20,13.5z M20.3,13.5
				C20.3,13.5,20.2,13.5,20.3,13.5c-0.1,0-0.2,0-0.2,0c0,0,0,0,0,0C20.2,13.5,20.3,13.5,20.3,13.5C20.4,13.5,20.3,13.5,20.3,13.5z
				 M20.8,12.7C20.7,12.7,20.7,12.7,20.8,12.7c-0.8-0.4-1.3-1.4-1.3-2.2c0,0,0-0.1,0-0.1c0,0,0.1,0,0.1,0c0.7,0.4,1.2,1.4,1.2,2.2
				C20.8,12.7,20.8,12.7,20.8,12.7z"/>
			<path class="st47" d="M23.8,13.2c0.1,0.5,0.1,0.9,0.1,1.4c0,0.8-0.2,1.5-0.4,2c0.3-0.5,0.4-1.2,0.4-2
				C23.9,14.2,23.9,13.7,23.8,13.2z M20.1,13.4L20.1,13.4L20.1,13.4L20.1,13.4z M20.4,5.8c-0.3-0.2-0.6-0.3-1-0.4
				c0-0.2,0-0.2-0.1-0.3c-0.1-0.1-0.2-0.2-0.3-0.5c-0.4-0.7-0.8-1.1-1.2-1.1c-0.3,0.1-0.6,0.2-0.9,0.3l-1.5,0.9l0,0L15,4.9
				c0.3-0.2,0.6-0.3,0.9-0.3c0.1,0,0.3,0,0.4,0c-0.1-0.1-0.2-0.1-0.4,0c-0.3,0.1-0.6,0.2-0.9,0.3c0,0,0,0,0,0
				c-1.1,0.6-1.8,2.1-1.8,4c0,0.8,0.3,1.1,0.9,1.6c0.4,0.3,0.5,0.5,0.8,0.4c0.6,2.5,2.4,5.2,4.5,6.4c1.3,0.7,2.5,0.8,3.3,0.3l0,0
				l1.1-0.7c0.9-0.5,1.4-1.5,1.4-3C25.1,11,23,7.3,20.4,5.8z M17.8,5.9L17.8,5.9C18,6,18.2,6,18.4,6.1C18.2,6,18,6,17.8,5.9z
				 M19.7,13.5c-0.1,0-0.1,0-0.2,0c0,0,0,0,0,0c0,0-0.1,0-0.1-0.1C19.5,13.5,19.6,13.5,19.7,13.5C19.7,13.5,19.7,13.5,19.7,13.5z
				 M20,13.5C20,13.5,19.9,13.5,20,13.5c-0.1,0-0.2,0-0.2,0c0,0,0,0,0,0C19.9,13.5,20,13.5,20,13.5C20.1,13.5,20,13.5,20,13.5z
				 M20.5,12.7C20.4,12.7,20.4,12.7,20.5,12.7c-0.8-0.4-1.3-1.4-1.3-2.2c0,0,0-0.1,0-0.1c0,0,0.1,0,0.1,0c0.7,0.4,1.2,1.4,1.2,2.2
				C20.5,12.7,20.5,12.7,20.5,12.7z"/>
			<path class="st48" d="M23.5,13.2c0.1,0.5,0.1,0.9,0.1,1.4c0,0.8-0.2,1.5-0.4,2c0.3-0.5,0.4-1.2,0.4-2
				C23.6,14.2,23.6,13.7,23.5,13.2z M19.8,13.4L19.8,13.4L19.8,13.4L19.8,13.4z M20.1,5.8c-0.3-0.2-0.6-0.3-1-0.4
				c0-0.2,0-0.2-0.1-0.3c-0.1-0.1-0.2-0.2-0.3-0.5c-0.4-0.7-0.8-1.1-1.2-1.1c-0.3,0.1-0.6,0.2-0.9,0.3L15,4.7l0,0l-0.4,0.2
				c0.3-0.2,0.6-0.3,0.9-0.3c0.1,0,0.3,0,0.4,0c-0.1-0.1-0.2-0.1-0.4,0c-0.3,0.1-0.6,0.2-0.9,0.3c0,0,0,0,0,0
				c-1.1,0.6-1.8,2.1-1.8,4c0,0.8,0.3,1.1,0.9,1.6c0.4,0.3,0.5,0.5,0.8,0.4c0.6,2.5,2.4,5.2,4.5,6.4c1.3,0.7,2.5,0.8,3.3,0.3l0,0
				l1.1-0.7c0.9-0.5,1.4-1.5,1.4-3C24.8,11,22.7,7.3,20.1,5.8z M17.5,5.9L17.5,5.9c0.2,0,0.4,0.1,0.6,0.2C17.9,6,17.7,6,17.5,5.9z
				 M19.4,13.5c-0.1,0-0.1,0-0.2,0c0,0,0,0,0,0c0,0-0.1,0-0.1-0.1C19.2,13.5,19.3,13.5,19.4,13.5C19.4,13.5,19.4,13.5,19.4,13.5z
				 M19.7,13.5C19.7,13.5,19.6,13.5,19.7,13.5c-0.1,0-0.2,0-0.2,0c0,0,0,0,0,0C19.6,13.5,19.7,13.5,19.7,13.5
				C19.8,13.5,19.7,13.5,19.7,13.5z M20.2,12.7C20.1,12.7,20.1,12.7,20.2,12.7c-0.8-0.4-1.3-1.4-1.3-2.2c0,0,0-0.1,0-0.1
				c0,0,0.1,0,0.1,0c0.7,0.4,1.2,1.4,1.2,2.2C20.2,12.7,20.2,12.7,20.2,12.7z"/>
			<path class="st49" d="M23.2,13.2c0.1,0.5,0.1,0.9,0.1,1.4c0,0.8-0.2,1.5-0.4,2c0.3-0.5,0.4-1.2,0.4-2
				C23.3,14.2,23.3,13.7,23.2,13.2z M19.5,13.4L19.5,13.4L19.5,13.4L19.5,13.4z M19.8,5.8c-0.3-0.2-0.6-0.3-1-0.4
				c0-0.2,0-0.2-0.1-0.3c-0.1-0.1-0.2-0.2-0.3-0.5c-0.4-0.7-0.8-1.1-1.2-1.1c-0.3,0.1-0.6,0.2-0.9,0.3l-1.5,0.9l0,0l-0.4,0.2
				c0.3-0.2,0.6-0.3,0.9-0.3c0.1,0,0.3,0,0.4,0c-0.1-0.1-0.2-0.1-0.4,0c-0.3,0.1-0.6,0.2-0.9,0.3c0,0,0,0,0,0
				c-1.1,0.6-1.8,2.1-1.8,4c0,0.8,0.3,1.1,0.9,1.6c0.4,0.3,0.5,0.5,0.8,0.4c0.6,2.5,2.4,5.2,4.5,6.4c1.3,0.7,2.5,0.8,3.3,0.3l0,0
				l1.1-0.7c0.9-0.5,1.4-1.5,1.4-3C24.5,11,22.4,7.3,19.8,5.8z M17.2,5.9L17.2,5.9c0.2,0,0.4,0.1,0.6,0.2C17.6,6,17.4,6,17.2,5.9z
				 M19.1,13.5c-0.1,0-0.1,0-0.2,0c0,0,0,0,0,0c0,0-0.1,0-0.1-0.1C18.9,13.5,19,13.5,19.1,13.5C19.1,13.5,19.1,13.5,19.1,13.5z
				 M19.4,13.5C19.4,13.5,19.3,13.5,19.4,13.5c-0.1,0-0.2,0-0.2,0c0,0,0,0,0,0C19.3,13.5,19.4,13.5,19.4,13.5
				C19.5,13.5,19.4,13.5,19.4,13.5z M19.9,12.7C19.8,12.7,19.8,12.7,19.9,12.7c-0.8-0.4-1.3-1.4-1.3-2.2c0,0,0-0.1,0-0.1
				c0,0,0.1,0,0.1,0c0.7,0.4,1.2,1.4,1.2,2.2C19.9,12.7,19.9,12.7,19.9,12.7z"/>
			<path class="st50" d="M22.9,13.2c0.1,0.5,0.1,0.9,0.1,1.4c0,0.8-0.2,1.5-0.4,2c0.3-0.5,0.4-1.2,0.4-2C23,14.2,23,13.7,22.9,13.2z
				 M19.2,13.4L19.2,13.4L19.2,13.4L19.2,13.4z M19.5,5.8c-0.3-0.2-0.6-0.3-1-0.4c0-0.2,0-0.2-0.1-0.3c-0.1-0.1-0.2-0.2-0.3-0.5
				c-0.4-0.7-0.8-1.1-1.2-1.1c-0.3,0.1-0.6,0.2-0.9,0.3l-1.5,0.9l0,0l-0.4,0.2c0.3-0.2,0.6-0.3,0.9-0.3c0.1,0,0.3,0,0.4,0
				c-0.1-0.1-0.2-0.1-0.4,0c-0.3,0.1-0.6,0.2-0.9,0.3c0,0,0,0,0,0c-1.1,0.6-1.8,2.1-1.8,4c0,0.8,0.3,1.1,0.9,1.6
				c0.4,0.3,0.5,0.5,0.8,0.4c0.6,2.5,2.4,5.2,4.5,6.4c1.3,0.7,2.5,0.8,3.3,0.3l0,0l1.1-0.7c0.9-0.5,1.4-1.5,1.4-3
				C24.2,11,22,7.3,19.5,5.8z M16.9,5.9L16.9,5.9c0.2,0,0.4,0.1,0.6,0.2C17.3,6,17.1,6,16.9,5.9z M18.8,13.5c-0.1,0-0.1,0-0.2,0
				c0,0,0,0,0,0c0,0-0.1,0-0.1-0.1C18.6,13.5,18.7,13.5,18.8,13.5C18.8,13.5,18.8,13.5,18.8,13.5z M19.1,13.5
				C19.1,13.5,19,13.5,19.1,13.5c-0.1,0-0.2,0-0.2,0c0,0,0,0,0,0C19,13.5,19.1,13.5,19.1,13.5C19.2,13.5,19.1,13.5,19.1,13.5z
				 M19.6,12.7C19.5,12.7,19.5,12.7,19.6,12.7c-0.8-0.4-1.3-1.4-1.3-2.2c0,0,0-0.1,0-0.1c0,0,0.1,0,0.1,0c0.7,0.4,1.2,1.4,1.2,2.2
				C19.6,12.7,19.6,12.7,19.6,12.7z"/>
			<path class="st51" d="M22.6,13.2c0.1,0.5,0.1,0.9,0.1,1.4c0,0.8-0.2,1.5-0.4,2c0.3-0.5,0.4-1.2,0.4-2
				C22.7,14.2,22.7,13.7,22.6,13.2z M18.9,13.4L18.9,13.4L18.9,13.4L18.9,13.4z M19.2,5.8c-0.3-0.2-0.6-0.3-1-0.4
				c0-0.2,0-0.2-0.1-0.3c-0.1-0.1-0.2-0.2-0.3-0.5c-0.4-0.7-0.8-1.1-1.2-1.1c-0.3,0.1-0.6,0.2-0.9,0.3l-1.5,0.9l0,0l-0.4,0.2
				c0.3-0.2,0.6-0.3,0.9-0.3c0.1,0,0.3,0,0.4,0c-0.1-0.1-0.2-0.1-0.4,0c-0.3,0.1-0.6,0.2-0.9,0.3c0,0,0,0,0,0
				c-1.1,0.6-1.8,2.1-1.8,4c0,0.8,0.3,1.1,0.9,1.6c0.4,0.3,0.5,0.5,0.8,0.4c0.6,2.5,2.4,5.2,4.5,6.4c1.3,0.7,2.5,0.8,3.3,0.3l0,0
				l1.1-0.7c0.9-0.5,1.4-1.5,1.4-3C23.9,11,21.7,7.3,19.2,5.8z M16.6,5.9L16.6,5.9C16.8,6,17,6,17.2,6.1C17,6,16.8,6,16.6,5.9z
				 M18.5,13.5c-0.1,0-0.1,0-0.2,0c0,0,0,0,0,0c0,0-0.1,0-0.1-0.1C18.3,13.5,18.4,13.5,18.5,13.5C18.5,13.5,18.5,13.5,18.5,13.5z
				 M18.8,13.5C18.8,13.5,18.7,13.5,18.8,13.5c-0.1,0-0.2,0-0.2,0c0,0,0,0,0,0C18.7,13.5,18.8,13.5,18.8,13.5
				C18.9,13.5,18.8,13.5,18.8,13.5z M19.2,12.7C19.2,12.7,19.2,12.7,19.2,12.7c-0.8-0.4-1.3-1.4-1.3-2.2c0,0,0-0.1,0-0.1
				c0,0,0.1,0,0.1,0c0.7,0.4,1.2,1.4,1.2,2.2C19.3,12.7,19.3,12.7,19.2,12.7z"/>
			<path class="st52" d="M22.3,13.2c0.1,0.5,0.1,0.9,0.1,1.4c0,0.8-0.2,1.5-0.4,2c0.3-0.5,0.4-1.2,0.4-2
				C22.4,14.2,22.4,13.7,22.3,13.2z M18.6,13.4L18.6,13.4L18.6,13.4L18.6,13.4z M18.8,5.8c-0.3-0.2-0.6-0.3-1-0.4
				c0-0.2,0-0.2-0.1-0.3c-0.1-0.1-0.2-0.2-0.3-0.5c-0.4-0.7-0.8-1.1-1.2-1.1c-0.3,0.1-0.6,0.2-0.9,0.3l-1.5,0.9l0,0l-0.4,0.2
				c0.3-0.2,0.6-0.3,0.9-0.3c0.1,0,0.3,0,0.4,0c-0.1-0.1-0.2-0.1-0.4,0c-0.3,0.1-0.6,0.2-0.9,0.3c0,0,0,0,0,0
				c-1.1,0.6-1.8,2.1-1.8,4c0,0.8,0.3,1.1,0.9,1.6c0.4,0.3,0.5,0.5,0.8,0.4c0.6,2.5,2.4,5.2,4.5,6.4c1.3,0.7,2.5,0.8,3.3,0.3l0,0
				l1.1-0.7c0.9-0.5,1.4-1.5,1.4-3C23.5,11,21.4,7.3,18.8,5.8z M16.3,5.9L16.3,5.9c0.2,0,0.4,0.1,0.6,0.2C16.7,6,16.5,6,16.3,5.9z
				 M18.2,13.5c-0.1,0-0.1,0-0.2,0c0,0,0,0,0,0c0,0-0.1,0-0.1-0.1C18,13.5,18.1,13.5,18.2,13.5C18.2,13.5,18.2,13.5,18.2,13.5z
				 M18.5,13.5C18.5,13.5,18.4,13.5,18.5,13.5c-0.1,0-0.2,0-0.2,0c0,0,0,0,0,0C18.4,13.5,18.5,13.5,18.5,13.5
				C18.6,13.5,18.5,13.5,18.5,13.5z M18.9,12.7C18.9,12.7,18.9,12.7,18.9,12.7c-0.8-0.4-1.3-1.4-1.3-2.2c0,0,0-0.1,0-0.1
				c0,0,0.1,0,0.1,0c0.7,0.4,1.2,1.4,1.2,2.2C19,12.7,18.9,12.7,18.9,12.7z"/>
			<path class="st53" d="M22,13.2c0.1,0.5,0.1,0.9,0.1,1.4c0,0.8-0.2,1.5-0.4,2c0.3-0.5,0.4-1.2,0.4-2C22.1,14.2,22.1,13.7,22,13.2z
				 M18.3,13.4L18.3,13.4L18.3,13.4L18.3,13.4z M18.5,5.8c-0.3-0.2-0.6-0.3-1-0.4c0-0.2,0-0.2-0.1-0.3c-0.1-0.1-0.2-0.2-0.3-0.5
				c-0.4-0.7-0.8-1.1-1.2-1.1c-0.3,0.1-0.6,0.2-0.9,0.3l-1.5,0.9l0,0l-0.4,0.2c0.3-0.2,0.6-0.3,0.9-0.3c0.1,0,0.3,0,0.4,0
				c-0.1-0.1-0.2-0.1-0.4,0c-0.3,0.1-0.6,0.2-0.9,0.3c0,0,0,0,0,0c-1.1,0.6-1.8,2.1-1.8,4c0,0.8,0.3,1.1,0.9,1.6
				c0.4,0.3,0.5,0.5,0.8,0.4c0.6,2.5,2.4,5.2,4.5,6.4c1.3,0.7,2.5,0.8,3.3,0.3l0,0l1.1-0.7c0.9-0.5,1.4-1.5,1.4-3
				C23.2,11,21.1,7.3,18.5,5.8z M16,5.9L16,5.9c0.2,0,0.4,0.1,0.6,0.2C16.4,6,16.2,6,16,5.9z M17.9,13.5c-0.1,0-0.1,0-0.2,0
				c0,0,0,0,0,0c0,0-0.1,0-0.1-0.1C17.7,13.5,17.8,13.5,17.9,13.5C17.9,13.5,17.9,13.5,17.9,13.5z M18.2,13.5
				C18.2,13.5,18.1,13.5,18.2,13.5c-0.1,0-0.2,0-0.2,0c0,0,0,0,0,0C18.1,13.5,18.2,13.5,18.2,13.5C18.3,13.5,18.2,13.5,18.2,13.5z
				 M18.6,12.7C18.6,12.7,18.6,12.7,18.6,12.7c-0.8-0.4-1.3-1.4-1.3-2.2c0,0,0-0.1,0-0.1c0,0,0.1,0,0.1,0c0.7,0.4,1.2,1.4,1.2,2.2
				C18.7,12.7,18.6,12.7,18.6,12.7z"/>
			<path class="st54" d="M21.7,13.2c0.1,0.5,0.1,0.9,0.1,1.4c0,0.8-0.2,1.5-0.4,2c0.3-0.5,0.4-1.2,0.4-2
				C21.8,14.2,21.8,13.7,21.7,13.2z M18,13.4L18,13.4L18,13.4L18,13.4z M18.2,5.8c-0.3-0.2-0.6-0.3-0.9-0.4c0-0.2,0-0.2-0.1-0.3
				c-0.1-0.1-0.2-0.2-0.3-0.5c-0.4-0.7-0.8-1.1-1.2-1.1c-0.3,0.1-0.6,0.2-0.9,0.3l-1.5,0.9l0,0l-0.4,0.2c0.3-0.2,0.6-0.3,0.9-0.3
				c0.1,0,0.3,0,0.4,0c-0.1-0.1-0.2-0.1-0.4,0c-0.3,0.1-0.6,0.2-0.9,0.3c0,0,0,0,0,0C11.7,5.5,11,7,11,8.9c0,0.8,0.3,1.1,0.9,1.6
				c0.4,0.3,0.5,0.5,0.8,0.4c0.6,2.5,2.4,5.2,4.5,6.4c1.3,0.7,2.5,0.8,3.3,0.3l0,0l1.1-0.7c0.9-0.5,1.4-1.5,1.4-3
				C22.9,11,20.8,7.3,18.2,5.8z M15.7,5.9L15.7,5.9c0.2,0,0.4,0.1,0.6,0.2C16.1,6,15.9,6,15.7,5.9z M17.6,13.5c-0.1,0-0.1,0-0.2,0
				c0,0,0,0,0,0c0,0-0.1,0-0.1-0.1C17.4,13.5,17.5,13.5,17.6,13.5C17.6,13.5,17.6,13.5,17.6,13.5z M17.9,13.5
				C17.9,13.5,17.8,13.5,17.9,13.5c-0.1,0-0.2,0-0.2,0c0,0,0,0,0,0C17.8,13.5,17.9,13.5,17.9,13.5C17.9,13.5,17.9,13.5,17.9,13.5z
				 M18.3,12.7C18.3,12.7,18.3,12.7,18.3,12.7c-0.8-0.4-1.3-1.4-1.3-2.2c0,0,0-0.1,0-0.1c0,0,0.1,0,0.1,0c0.7,0.4,1.2,1.4,1.2,2.2
				C18.4,12.7,18.3,12.7,18.3,12.7z"/>
			<path class="st55" d="M21.4,13.2c0.1,0.5,0.1,0.9,0.1,1.4c0,0.8-0.2,1.5-0.4,2c0.3-0.5,0.4-1.2,0.4-2
				C21.5,14.2,21.5,13.7,21.4,13.2z M17.7,13.4L17.7,13.4L17.7,13.4L17.7,13.4z M17.9,5.8c-0.3-0.2-0.6-0.3-0.9-0.4
				c0-0.2,0-0.2-0.1-0.3c-0.1-0.1-0.2-0.2-0.3-0.5c-0.4-0.7-0.8-1.1-1.2-1.1c-0.3,0.1-0.6,0.2-0.9,0.3l-1.5,0.9l0,0l-0.4,0.2
				c0.3-0.2,0.6-0.3,0.9-0.3c0.1,0,0.3,0,0.4,0c-0.1-0.1-0.2-0.1-0.4,0c-0.3,0.1-0.6,0.2-0.9,0.3c0,0,0,0,0,0
				c-1.1,0.6-1.8,2.1-1.8,4c0,0.8,0.3,1.1,0.9,1.6C12,10.9,12,11,12.3,11c0.6,2.5,2.4,5.2,4.5,6.4c1.3,0.7,2.5,0.8,3.3,0.3l0,0
				l1.1-0.7c0.9-0.5,1.4-1.5,1.4-3C22.6,11,20.5,7.3,17.9,5.8z M15.4,5.9L15.4,5.9C15.6,6,15.8,6,16,6.1C15.8,6,15.6,6,15.4,5.9z
				 M17.3,13.5c-0.1,0-0.1,0-0.2,0c0,0,0,0,0,0c0,0-0.1,0-0.1-0.1C17.1,13.5,17.2,13.5,17.3,13.5C17.3,13.5,17.3,13.5,17.3,13.5z
				 M17.6,13.5C17.6,13.5,17.5,13.5,17.6,13.5c-0.1,0-0.2,0-0.2,0c0,0,0,0,0,0C17.5,13.5,17.6,13.5,17.6,13.5
				C17.6,13.5,17.6,13.5,17.6,13.5z M18,12.7C18,12.7,18,12.7,18,12.7c-0.8-0.4-1.3-1.4-1.3-2.2c0,0,0-0.1,0-0.1c0,0,0.1,0,0.1,0
				c0.7,0.4,1.2,1.4,1.2,2.2C18.1,12.7,18,12.7,18,12.7z"/>
			<path class="st56" d="M21.1,13.2c0.1,0.5,0.1,0.9,0.1,1.4c0,0.8-0.2,1.5-0.4,2c0.3-0.5,0.4-1.2,0.4-2
				C21.2,14.2,21.1,13.7,21.1,13.2z M17.4,13.4L17.4,13.4L17.4,13.4L17.4,13.4z M17.6,5.8c-0.3-0.2-0.6-0.3-0.9-0.4
				c0-0.2,0-0.2-0.1-0.3c-0.1-0.1-0.2-0.2-0.3-0.5c-0.4-0.7-0.8-1.1-1.2-1.1c-0.3,0.1-0.6,0.2-0.9,0.3l-1.5,0.9l0,0l-0.4,0.2
				c0.3-0.2,0.6-0.3,0.9-0.3c0.1,0,0.3,0,0.4,0c-0.1-0.1-0.2-0.1-0.4,0c-0.3,0.1-0.6,0.2-0.9,0.3c0,0,0,0,0,0
				c-1.1,0.6-1.8,2.1-1.8,4c0,0.8,0.3,1.1,0.9,1.6c0.4,0.3,0.5,0.5,0.8,0.4c0.6,2.5,2.4,5.2,4.5,6.4c1.3,0.7,2.5,0.8,3.3,0.3l0,0
				L21,17c0.9-0.5,1.4-1.5,1.4-3C22.3,11,20.2,7.3,17.6,5.8z M15.1,5.9L15.1,5.9c0.2,0,0.4,0.1,0.6,0.2C15.5,6,15.3,6,15.1,5.9z
				 M17,13.5c-0.1,0-0.1,0-0.2,0c0,0,0,0,0,0c0,0-0.1,0-0.1-0.1C16.8,13.5,16.9,13.5,17,13.5C17,13.5,17,13.5,17,13.5z M17.3,13.5
				C17.3,13.5,17.2,13.5,17.3,13.5c-0.1,0-0.2,0-0.2,0c0,0,0,0,0,0C17.2,13.5,17.3,13.5,17.3,13.5C17.3,13.5,17.3,13.5,17.3,13.5z
				 M17.7,12.7C17.7,12.7,17.7,12.7,17.7,12.7c-0.8-0.4-1.3-1.4-1.3-2.2c0,0,0-0.1,0-0.1c0,0,0.1,0,0.1,0c0.7,0.4,1.2,1.4,1.2,2.2
				C17.7,12.7,17.7,12.7,17.7,12.7z"/>
			<path class="st57" d="M20.8,13.2c0.1,0.5,0.1,0.9,0.1,1.4c0,0.8-0.2,1.5-0.4,2c0.3-0.5,0.4-1.2,0.4-2
				C20.9,14.2,20.8,13.7,20.8,13.2z M17.1,13.4L17.1,13.4L17.1,13.4L17.1,13.4z M17.3,5.8c-0.3-0.2-0.6-0.3-0.9-0.4
				c0-0.2,0-0.2-0.1-0.3c-0.1-0.1-0.2-0.2-0.3-0.5c-0.4-0.7-0.8-1.1-1.2-1.1c-0.3,0.1-0.6,0.2-0.9,0.3l-1.5,0.9l0,0l-0.4,0.2
				c0.3-0.2,0.6-0.3,0.9-0.3c0.1,0,0.3,0,0.4,0c-0.1-0.1-0.2-0.1-0.4,0c-0.3,0.1-0.6,0.2-0.9,0.3c0,0,0,0,0,0
				c-1.1,0.6-1.8,2.1-1.8,4c0,0.8,0.3,1.1,0.9,1.6c0.4,0.3,0.5,0.5,0.8,0.4c0.6,2.5,2.4,5.2,4.5,6.4c1.3,0.7,2.5,0.8,3.3,0.3l0,0
				l1.1-0.7c0.9-0.5,1.4-1.5,1.4-3C22,11,19.9,7.3,17.3,5.8z M14.8,5.9L14.8,5.9C15,6,15.2,6,15.4,6.1C15.2,6,15,6,14.8,5.9z
				 M16.7,13.5c-0.1,0-0.1,0-0.2,0c0,0,0,0,0,0c0,0-0.1,0-0.1-0.1C16.5,13.5,16.6,13.5,16.7,13.5C16.7,13.5,16.7,13.5,16.7,13.5z
				 M17,13.5C17,13.5,16.9,13.5,17,13.5c-0.1,0-0.2,0-0.2,0c0,0,0,0,0,0C16.9,13.5,17,13.5,17,13.5C17,13.5,17,13.5,17,13.5z
				 M17.4,12.7C17.4,12.7,17.4,12.7,17.4,12.7c-0.8-0.4-1.3-1.4-1.3-2.2c0,0,0-0.1,0-0.1c0,0,0.1,0,0.1,0c0.7,0.4,1.2,1.4,1.2,2.2
				C17.4,12.7,17.4,12.7,17.4,12.7z"/>
			<path class="st58" d="M20.5,13.2c0.1,0.5,0.1,0.9,0.1,1.4c0,0.8-0.2,1.5-0.4,2c0.3-0.5,0.4-1.2,0.4-2
				C20.6,14.2,20.5,13.7,20.5,13.2z M16.8,13.4L16.8,13.4L16.8,13.4L16.8,13.4z M17,5.8c-0.3-0.2-0.6-0.3-0.9-0.4
				c0-0.2,0-0.2-0.1-0.3c-0.1-0.1-0.2-0.2-0.3-0.5c-0.4-0.7-0.8-1.1-1.2-1.1c-0.3,0.1-0.6,0.2-0.9,0.3L12,4.7l0,0l-0.4,0.2
				c0.3-0.2,0.6-0.3,0.9-0.3c0.1,0,0.3,0,0.4,0c-0.1-0.1-0.2-0.1-0.4,0c-0.3,0.1-0.6,0.2-0.9,0.3c0,0,0,0,0,0
				c-1.1,0.6-1.8,2.1-1.8,4c0,0.8,0.3,1.1,0.9,1.6c0.4,0.3,0.5,0.5,0.8,0.4c0.6,2.5,2.4,5.2,4.5,6.4c1.3,0.7,2.5,0.8,3.3,0.3l0,0
				l1.1-0.7c0.9-0.5,1.4-1.5,1.4-3C21.7,11,19.6,7.3,17,5.8z M14.5,5.9L14.5,5.9c0.2,0,0.4,0.1,0.6,0.2C14.9,6,14.7,6,14.5,5.9z
				 M16.4,13.5c-0.1,0-0.1,0-0.2,0c0,0,0,0,0,0c0,0-0.1,0-0.1-0.1C16.2,13.5,16.3,13.5,16.4,13.5C16.4,13.5,16.4,13.5,16.4,13.5z
				 M16.7,13.5C16.6,13.5,16.6,13.5,16.7,13.5c-0.1,0-0.2,0-0.2,0c0,0,0,0,0,0C16.6,13.5,16.7,13.5,16.7,13.5
				C16.7,13.5,16.7,13.5,16.7,13.5z M17.1,12.7C17.1,12.7,17.1,12.7,17.1,12.7c-0.8-0.4-1.3-1.4-1.3-2.2c0,0,0-0.1,0-0.1
				c0,0,0.1,0,0.1,0c0.7,0.4,1.2,1.4,1.2,2.2C17.1,12.7,17.1,12.7,17.1,12.7z"/>
			<path class="st59" d="M20.2,13.2c0.1,0.5,0.1,0.9,0.1,1.4c0,0.8-0.2,1.5-0.4,2c0.3-0.5,0.4-1.2,0.4-2
				C20.3,14.2,20.2,13.7,20.2,13.2z M16.5,13.4L16.5,13.4L16.5,13.4L16.5,13.4z M16.7,5.8c-0.3-0.2-0.6-0.3-0.9-0.4
				c0-0.2,0-0.2-0.1-0.3c-0.1-0.1-0.2-0.2-0.3-0.5c-0.4-0.7-0.8-1.1-1.2-1.1c-0.3,0.1-0.6,0.2-0.9,0.3l-1.5,0.9l0,0l-0.4,0.2
				c0.3-0.2,0.6-0.3,0.9-0.3c0.1,0,0.3,0,0.4,0c-0.1-0.1-0.2-0.1-0.4,0c-0.3,0.1-0.6,0.2-0.9,0.3c0,0,0,0,0,0
				c-1.1,0.6-1.8,2.1-1.8,4c0,0.8,0.3,1.1,0.9,1.6c0.4,0.3,0.5,0.5,0.8,0.4c0.6,2.5,2.4,5.2,4.5,6.4c1.3,0.7,2.5,0.8,3.3,0.3l0,0
				l1.1-0.7c0.9-0.5,1.4-1.5,1.4-3C21.4,11,19.3,7.3,16.7,5.8z M14.2,5.9L14.2,5.9c0.2,0,0.4,0.1,0.6,0.2C14.6,6,14.4,6,14.2,5.9z
				 M16.1,13.5c-0.1,0-0.1,0-0.2,0c0,0,0,0,0,0c0,0-0.1,0-0.1-0.1C15.9,13.5,16,13.5,16.1,13.5C16.1,13.5,16.1,13.5,16.1,13.5z
				 M16.4,13.5C16.3,13.5,16.3,13.5,16.4,13.5c-0.1,0-0.2,0-0.2,0c0,0,0,0,0,0C16.3,13.5,16.4,13.5,16.4,13.5
				C16.4,13.5,16.4,13.5,16.4,13.5z M16.8,12.7C16.8,12.7,16.8,12.7,16.8,12.7c-0.8-0.4-1.3-1.4-1.3-2.2c0,0,0-0.1,0-0.1
				c0,0,0.1,0,0.1,0c0.7,0.4,1.2,1.4,1.2,2.2C16.8,12.7,16.8,12.7,16.8,12.7z"/>
			<path class="st60" d="M19.9,13.2c0.1,0.5,0.1,0.9,0.1,1.4c0,0.8-0.2,1.5-0.4,2c0.3-0.5,0.4-1.2,0.4-2
				C20,14.2,19.9,13.7,19.9,13.2z M16.2,13.4L16.2,13.4L16.2,13.4L16.2,13.4z M16.4,5.8c-0.3-0.2-0.6-0.3-0.9-0.4
				c0-0.2,0-0.2-0.1-0.3c-0.1-0.1-0.2-0.2-0.3-0.5c-0.4-0.7-0.8-1.1-1.2-1.1c-0.3,0.1-0.6,0.2-0.9,0.3l-1.5,0.9l0,0L11,4.9
				c0.3-0.2,0.6-0.3,0.9-0.3c0.1,0,0.3,0,0.4,0c-0.1-0.1-0.2-0.1-0.4,0c-0.3,0.1-0.6,0.2-0.9,0.3c0,0,0,0,0,0C9.9,5.5,9.2,7,9.2,8.9
				c0,0.8,0.3,1.1,0.9,1.6c0.4,0.3,0.5,0.5,0.8,0.4c0.6,2.5,2.4,5.2,4.5,6.4c1.3,0.7,2.5,0.8,3.3,0.3l0,0l1.1-0.7
				c0.9-0.5,1.4-1.5,1.4-3C21.1,11,19,7.3,16.4,5.8z M13.9,5.9L13.9,5.9c0.2,0,0.4,0.1,0.6,0.2C14.3,6,14.1,6,13.9,5.9z M15.8,13.5
				c-0.1,0-0.1,0-0.2,0c0,0,0,0,0,0c0,0-0.1,0-0.1-0.1C15.6,13.5,15.7,13.5,15.8,13.5C15.8,13.5,15.8,13.5,15.8,13.5z M16.1,13.5
				C16,13.5,16,13.5,16.1,13.5c-0.1,0-0.2,0-0.2,0c0,0,0,0,0,0C16,13.5,16.1,13.5,16.1,13.5C16.1,13.5,16.1,13.5,16.1,13.5z
				 M16.5,12.7C16.5,12.7,16.5,12.7,16.5,12.7c-0.8-0.4-1.3-1.4-1.3-2.2c0,0,0-0.1,0-0.1c0,0,0.1,0,0.1,0c0.7,0.4,1.2,1.4,1.2,2.2
				C16.5,12.7,16.5,12.7,16.5,12.7z"/>
			<path class="st61" d="M19.5,13.2c0.1,0.5,0.1,0.9,0.1,1.4c0,0.8-0.2,1.5-0.4,2c0.3-0.5,0.4-1.2,0.4-2
				C19.7,14.2,19.6,13.7,19.5,13.2z M15.9,13.4L15.9,13.4L15.9,13.4L15.9,13.4z M16.1,5.8c-0.3-0.2-0.6-0.3-0.9-0.4
				c0-0.2,0-0.2-0.1-0.3c-0.1-0.1-0.2-0.2-0.3-0.5c-0.4-0.7-0.8-1.1-1.2-1.1c-0.3,0.1-0.6,0.2-0.9,0.3l-1.5,0.9l0,0l-0.4,0.2
				c0.3-0.2,0.6-0.3,0.9-0.3c0.1,0,0.3,0,0.4,0c-0.1-0.1-0.2-0.1-0.4,0c-0.3,0.1-0.6,0.2-0.9,0.3c0,0,0,0,0,0C9.6,5.5,8.9,7,8.9,8.9
				c0,0.8,0.3,1.1,0.9,1.6c0.4,0.3,0.5,0.5,0.8,0.4c0.6,2.5,2.4,5.2,4.5,6.4c1.3,0.7,2.5,0.8,3.3,0.3l0,0l1.1-0.7
				c0.9-0.5,1.4-1.5,1.4-3C20.8,11,18.7,7.3,16.1,5.8z M13.6,5.9L13.6,5.9C13.8,6,14,6,14.2,6.1C14,6,13.8,6,13.6,5.9z M15.5,13.5
				c-0.1,0-0.1,0-0.2,0c0,0,0,0,0,0c0,0-0.1,0-0.1-0.1C15.3,13.5,15.4,13.5,15.5,13.5C15.5,13.5,15.5,13.5,15.5,13.5z M15.8,13.5
				C15.7,13.5,15.7,13.5,15.8,13.5c-0.1,0-0.2,0-0.2,0c0,0,0,0,0,0C15.7,13.5,15.8,13.5,15.8,13.5C15.8,13.5,15.8,13.5,15.8,13.5z
				 M16.2,12.7C16.2,12.7,16.2,12.7,16.2,12.7c-0.8-0.4-1.3-1.4-1.3-2.2c0,0,0-0.1,0-0.1c0,0,0.1,0,0.1,0c0.7,0.4,1.2,1.4,1.2,2.2
				C16.2,12.7,16.2,12.7,16.2,12.7z"/>
			<path class="st62" d="M19.2,13.2c0.1,0.5,0.1,0.9,0.1,1.4c0,0.8-0.2,1.5-0.4,2c0.3-0.5,0.4-1.2,0.4-2
				C19.4,14.2,19.3,13.7,19.2,13.2z M15.6,13.4L15.6,13.4L15.6,13.4L15.6,13.4z M15.8,5.8c-0.3-0.2-0.6-0.3-0.9-0.4
				c0-0.2,0-0.2-0.1-0.3c-0.1-0.1-0.2-0.2-0.3-0.5c-0.4-0.7-0.8-1.1-1.2-1.1c-0.3,0.1-0.6,0.2-0.9,0.3l-1.5,0.9l0,0l-0.4,0.2
				c0.3-0.2,0.6-0.3,0.9-0.3c0.1,0,0.3,0,0.4,0c-0.1-0.1-0.2-0.1-0.4,0c-0.3,0.1-0.6,0.2-0.9,0.3c0,0,0,0,0,0C9.3,5.5,8.6,7,8.6,8.9
				c0,0.8,0.3,1.1,0.9,1.6c0.4,0.3,0.5,0.5,0.8,0.4c0.6,2.5,2.4,5.2,4.5,6.4c1.3,0.7,2.5,0.8,3.3,0.3l0,0l1.1-0.7
				c0.9-0.5,1.4-1.5,1.4-3C20.5,11,18.4,7.3,15.8,5.8z M13.3,5.9L13.3,5.9c0.2,0,0.4,0.1,0.6,0.2C13.7,6,13.5,6,13.3,5.9z
				 M15.2,13.5c-0.1,0-0.1,0-0.2,0c0,0,0,0,0,0c0,0-0.1,0-0.1-0.1C15,13.5,15.1,13.5,15.2,13.5C15.2,13.5,15.2,13.5,15.2,13.5z
				 M15.5,13.5C15.4,13.5,15.4,13.5,15.5,13.5c-0.1,0-0.2,0-0.2,0c0,0,0,0,0,0C15.4,13.5,15.5,13.5,15.5,13.5
				C15.5,13.5,15.5,13.5,15.5,13.5z M15.9,12.7C15.9,12.7,15.9,12.7,15.9,12.7c-0.8-0.4-1.3-1.4-1.3-2.2c0,0,0-0.1,0-0.1
				c0,0,0.1,0,0.1,0c0.7,0.4,1.2,1.4,1.2,2.2C15.9,12.7,15.9,12.7,15.9,12.7z"/>
			<path class="st63" d="M18.9,13.2c0.1,0.5,0.1,0.9,0.1,1.4c0,0.8-0.2,1.5-0.4,2c0.3-0.5,0.4-1.2,0.4-2
				C19.1,14.2,19,13.7,18.9,13.2z M15.3,13.4L15.3,13.4L15.3,13.4L15.3,13.4z M15.5,5.8c-0.3-0.2-0.6-0.3-0.9-0.4
				c0-0.2,0-0.2-0.1-0.3c-0.1-0.1-0.2-0.2-0.3-0.5c-0.4-0.7-0.8-1.1-1.2-1.1c-0.3,0.1-0.6,0.2-0.9,0.3l-1.5,0.9l0,0l-0.4,0.2
				c0.3-0.2,0.6-0.3,0.9-0.3c0.1,0,0.3,0,0.4,0c-0.1-0.1-0.2-0.1-0.4,0c-0.3,0.1-0.6,0.2-0.9,0.3c0,0,0,0,0,0C9,5.5,8.3,7,8.3,8.9
				c0,0.8,0.3,1.1,0.9,1.6C9.6,10.9,9.6,11,9.9,11c0.6,2.5,2.4,5.2,4.5,6.4c1.3,0.7,2.5,0.8,3.3,0.3l0,0l1.1-0.7
				c0.9-0.5,1.4-1.5,1.4-3C20.2,11,18.1,7.3,15.5,5.8z M13,5.9L13,5.9c0.2,0,0.4,0.1,0.6,0.2C13.4,6,13.2,6,13,5.9z M14.9,13.5
				c-0.1,0-0.1,0-0.2,0c0,0,0,0,0,0c0,0-0.1,0-0.1-0.1C14.7,13.5,14.8,13.5,14.9,13.5C14.9,13.5,14.9,13.5,14.9,13.5z M15.2,13.5
				C15.1,13.5,15.1,13.5,15.2,13.5c-0.1,0-0.2,0-0.2,0c0,0,0,0,0,0C15.1,13.5,15.2,13.5,15.2,13.5C15.2,13.5,15.2,13.5,15.2,13.5z
				 M15.6,12.7C15.6,12.7,15.6,12.7,15.6,12.7c-0.8-0.4-1.3-1.4-1.3-2.2c0,0,0-0.1,0-0.1c0,0,0.1,0,0.1,0c0.7,0.4,1.2,1.4,1.2,2.2
				C15.6,12.7,15.6,12.7,15.6,12.7z"/>
			<path class="st64" d="M18.6,13.2c0.1,0.5,0.1,0.9,0.1,1.4c0,0.8-0.2,1.5-0.4,2c0.3-0.5,0.4-1.2,0.4-2
				C18.8,14.2,18.7,13.7,18.6,13.2z M15,13.4L15,13.4L15,13.4L15,13.4z M15.2,5.8c-0.3-0.2-0.6-0.3-0.9-0.4c0-0.2,0-0.2-0.1-0.3
				c-0.1-0.1-0.2-0.2-0.3-0.5c-0.4-0.7-0.8-1.1-1.2-1.1c-0.3,0.1-0.6,0.2-0.9,0.3l-1.5,0.9l0,0L9.8,4.9c0.3-0.2,0.6-0.3,0.9-0.3
				c0.1,0,0.3,0,0.4,0c-0.1-0.1-0.2-0.1-0.4,0c-0.3,0.1-0.6,0.2-0.9,0.3c0,0,0,0,0,0C8.7,5.5,8,7,8,8.9c0,0.8,0.3,1.1,0.9,1.6
				C9.3,10.9,9.3,11,9.6,11c0.6,2.5,2.4,5.2,4.5,6.4c1.3,0.7,2.5,0.8,3.3,0.3l0,0l1.1-0.7c0.9-0.5,1.4-1.5,1.4-3
				C19.9,11,17.8,7.3,15.2,5.8z M12.7,5.9L12.7,5.9c0.2,0,0.4,0.1,0.6,0.2C13.1,6,12.9,6,12.7,5.9z M14.6,13.5c-0.1,0-0.1,0-0.2,0
				c0,0,0,0,0,0c0,0-0.1,0-0.1-0.1C14.4,13.5,14.5,13.5,14.6,13.5C14.6,13.5,14.6,13.5,14.6,13.5z M14.9,13.5
				C14.8,13.5,14.8,13.5,14.9,13.5c-0.1,0-0.2,0-0.2,0c0,0,0,0,0,0C14.8,13.5,14.9,13.5,14.9,13.5C14.9,13.5,14.9,13.5,14.9,13.5z
				 M15.3,12.7C15.3,12.7,15.3,12.7,15.3,12.7c-0.8-0.4-1.3-1.4-1.3-2.2c0,0,0-0.1,0-0.1c0,0,0.1,0,0.1,0c0.7,0.4,1.2,1.4,1.2,2.2
				C15.3,12.7,15.3,12.7,15.3,12.7z"/>
			<path class="st65" d="M18.3,13.2c0.1,0.5,0.1,0.9,0.1,1.4c0,0.8-0.2,1.5-0.4,2c0.3-0.5,0.4-1.2,0.4-2
				C18.5,14.2,18.4,13.7,18.3,13.2z M14.7,13.4L14.7,13.4L14.7,13.4L14.7,13.4z M14.9,5.8c-0.3-0.2-0.6-0.3-0.9-0.4
				c0-0.2,0-0.2-0.1-0.3c-0.1-0.1-0.2-0.2-0.3-0.5c-0.4-0.7-0.8-1.1-1.2-1.1c-0.3,0.1-0.6,0.2-0.9,0.3L9.9,4.7l0,0L9.5,4.9
				c0.3-0.2,0.6-0.3,0.9-0.3c0.1,0,0.3,0,0.4,0c-0.1-0.1-0.2-0.1-0.4,0c-0.3,0.1-0.6,0.2-0.9,0.3c0,0,0,0,0,0C8.4,5.5,7.7,7,7.7,8.9
				c0,0.8,0.3,1.1,0.9,1.6C9,10.9,9,11,9.3,11c0.6,2.5,2.4,5.2,4.5,6.4c1.3,0.7,2.5,0.8,3.3,0.3l0,0l1.1-0.7c0.9-0.5,1.4-1.5,1.4-3
				C19.6,11,17.5,7.3,14.9,5.8z M12.4,5.9L12.4,5.9C12.6,6,12.8,6,13,6.1C12.8,6,12.6,6,12.4,5.9z M14.3,13.5c-0.1,0-0.1,0-0.2,0
				c0,0,0,0,0,0c0,0-0.1,0-0.1-0.1C14.1,13.5,14.2,13.5,14.3,13.5C14.3,13.5,14.3,13.5,14.3,13.5z M14.6,13.5
				C14.5,13.5,14.5,13.5,14.6,13.5c-0.1,0-0.2,0-0.2,0c0,0,0,0,0,0C14.5,13.5,14.6,13.5,14.6,13.5C14.6,13.5,14.6,13.5,14.6,13.5z
				 M15,12.7C15,12.7,15,12.7,15,12.7c-0.8-0.4-1.3-1.4-1.3-2.2c0,0,0-0.1,0-0.1c0,0,0.1,0,0.1,0c0.7,0.4,1.2,1.4,1.2,2.2
				C15,12.7,15,12.7,15,12.7z"/>
			<path class="st66" d="M18,13.2c0.1,0.5,0.1,0.9,0.1,1.4c0,0.8-0.2,1.5-0.4,2c0.3-0.5,0.4-1.2,0.4-2C18.2,14.2,18.1,13.7,18,13.2z
				 M14.4,13.4L14.4,13.4L14.4,13.4L14.4,13.4z M14.6,5.8c-0.3-0.2-0.6-0.3-0.9-0.4c0-0.2,0-0.2-0.1-0.3c-0.1-0.1-0.2-0.2-0.3-0.5
				c-0.4-0.7-0.8-1.1-1.2-1.1c-0.3,0.1-0.6,0.2-0.9,0.3L9.6,4.7l0,0L9.2,4.9c0.3-0.2,0.6-0.3,0.9-0.3c0.1,0,0.3,0,0.4,0
				c-0.1-0.1-0.2-0.1-0.4,0C9.8,4.6,9.5,4.7,9.2,4.9c0,0,0,0,0,0C8.1,5.5,7.4,7,7.4,8.9c0,0.8,0.3,1.1,0.9,1.6C8.7,10.9,8.7,11,9,11
				c0.6,2.5,2.4,5.2,4.5,6.4c1.3,0.7,2.5,0.8,3.3,0.3l0,0l1.1-0.7c0.9-0.5,1.4-1.5,1.4-3C19.3,11,17.2,7.3,14.6,5.8z M12.1,5.9
				L12.1,5.9c0.2,0,0.4,0.1,0.6,0.2C12.5,6,12.3,6,12.1,5.9z M14,13.5c-0.1,0-0.1,0-0.2,0c0,0,0,0,0,0c0,0-0.1,0-0.1-0.1
				C13.8,13.5,13.9,13.5,14,13.5C14,13.5,14,13.5,14,13.5z M14.3,13.5C14.2,13.5,14.2,13.5,14.3,13.5c-0.1,0-0.2,0-0.2,0
				c0,0,0,0,0,0C14.1,13.5,14.3,13.5,14.3,13.5C14.3,13.5,14.3,13.5,14.3,13.5z M14.7,12.7C14.7,12.7,14.7,12.7,14.7,12.7
				c-0.8-0.4-1.3-1.4-1.3-2.2c0,0,0-0.1,0-0.1c0,0,0.1,0,0.1,0c0.7,0.4,1.2,1.4,1.2,2.2C14.7,12.7,14.7,12.7,14.7,12.7z"/>
			<path class="st67" d="M17.7,13.2c0.1,0.5,0.1,0.9,0.1,1.4c0,0.8-0.2,1.5-0.4,2c0.3-0.5,0.4-1.2,0.4-2
				C17.9,14.2,17.8,13.7,17.7,13.2z M14.1,13.4L14.1,13.4L14.1,13.4L14.1,13.4z M14.3,5.8c-0.3-0.2-0.6-0.3-0.9-0.4
				c0-0.2,0-0.2-0.1-0.3c-0.1-0.1-0.2-0.2-0.3-0.5c-0.4-0.7-0.8-1.1-1.2-1.1c-0.3,0.1-0.6,0.2-0.9,0.3L9.3,4.7l0,0L8.9,4.9
				c0.3-0.2,0.6-0.3,0.9-0.3c0.1,0,0.3,0,0.4,0c-0.1-0.1-0.2-0.1-0.4,0C9.5,4.6,9.2,4.7,8.9,4.9c0,0,0,0,0,0C7.8,5.5,7.1,7,7.1,8.9
				c0,0.8,0.3,1.1,0.9,1.6C8.4,10.9,8.4,11,8.7,11c0.6,2.5,2.4,5.2,4.5,6.4c1.3,0.7,2.5,0.8,3.3,0.3l0,0l1.1-0.7
				c0.9-0.5,1.4-1.5,1.4-3C19,11,16.9,7.3,14.3,5.8z M11.8,5.9L11.8,5.9C12,6,12.2,6,12.4,6.1C12.2,6,12,6,11.8,5.9z M13.7,13.5
				c-0.1,0-0.1,0-0.2,0c0,0,0,0,0,0c0,0-0.1,0-0.1-0.1C13.5,13.5,13.6,13.5,13.7,13.5C13.7,13.5,13.7,13.5,13.7,13.5z M14,13.5
				C13.9,13.5,13.9,13.5,14,13.5c-0.1,0-0.2,0-0.2,0c0,0,0,0,0,0C13.8,13.5,14,13.5,14,13.5C14,13.5,14,13.5,14,13.5z M14.4,12.7
				C14.4,12.7,14.4,12.7,14.4,12.7c-0.8-0.4-1.3-1.4-1.3-2.2c0,0,0-0.1,0-0.1c0,0,0.1,0,0.1,0c0.7,0.4,1.2,1.4,1.2,2.2
				C14.4,12.7,14.4,12.7,14.4,12.7z"/>
			<path class="st68" d="M17.4,13.2c0.1,0.5,0.1,0.9,0.1,1.4c0,0.8-0.2,1.5-0.4,2c0.3-0.5,0.4-1.2,0.4-2
				C17.6,14.2,17.5,13.7,17.4,13.2z M13.8,13.4L13.8,13.4L13.8,13.4L13.8,13.4z M14,5.8c-0.3-0.2-0.6-0.3-0.9-0.4
				c0-0.2,0-0.2-0.1-0.3c-0.1-0.1-0.2-0.2-0.3-0.5c-0.4-0.7-0.8-1.1-1.2-1.1c-0.3,0.1-0.6,0.2-0.9,0.3L9,4.7l0,0L8.6,4.9
				c0.3-0.2,0.6-0.3,0.9-0.3c0.1,0,0.3,0,0.4,0c-0.1-0.1-0.2-0.1-0.4,0C9.2,4.6,8.9,4.7,8.6,4.9c0,0,0,0,0,0C7.5,5.5,6.8,7,6.8,8.9
				c0,0.8,0.3,1.1,0.9,1.6C8.1,10.9,8.1,11,8.4,11c0.6,2.5,2.4,5.2,4.5,6.4c1.3,0.7,2.5,0.8,3.3,0.3l0,0l1.1-0.7
				c0.9-0.5,1.4-1.5,1.4-3C18.7,11,16.6,7.3,14,5.8z M11.5,5.9L11.5,5.9c0.2,0,0.4,0.1,0.6,0.2C11.9,6,11.7,6,11.5,5.9z M13.4,13.5
				c-0.1,0-0.1,0-0.2,0c0,0,0,0,0,0c0,0-0.1,0-0.1-0.1C13.1,13.5,13.3,13.5,13.4,13.5C13.4,13.5,13.4,13.5,13.4,13.5z M13.7,13.5
				C13.6,13.5,13.6,13.5,13.7,13.5c-0.1,0-0.2,0-0.2,0c0,0,0,0,0,0C13.5,13.5,13.7,13.5,13.7,13.5C13.7,13.5,13.7,13.5,13.7,13.5z
				 M14.1,12.7C14.1,12.7,14.1,12.7,14.1,12.7c-0.8-0.4-1.3-1.4-1.3-2.2c0,0,0-0.1,0-0.1c0,0,0.1,0,0.1,0c0.7,0.4,1.2,1.4,1.2,2.2
				C14.1,12.7,14.1,12.7,14.1,12.7z"/>
			<path class="st69" d="M17.1,13.2c0.1,0.5,0.1,0.9,0.1,1.4c0,0.8-0.2,1.5-0.4,2c0.3-0.5,0.4-1.2,0.4-2
				C17.3,14.2,17.2,13.7,17.1,13.2z M13.5,13.4L13.5,13.4L13.5,13.4L13.5,13.4z M13.7,5.8c-0.3-0.2-0.6-0.3-0.9-0.4
				c0-0.2,0-0.2-0.1-0.3c-0.1-0.1-0.2-0.2-0.3-0.5c-0.4-0.7-0.8-1.1-1.2-1.1c-0.3,0.1-0.6,0.2-0.9,0.3L8.7,4.7l0,0L8.3,4.9
				c0.3-0.2,0.6-0.3,0.9-0.3c0.1,0,0.3,0,0.4,0c-0.1-0.1-0.2-0.1-0.4,0C8.9,4.6,8.6,4.7,8.3,4.9c0,0,0,0,0,0C7.2,5.5,6.5,7,6.5,8.9
				c0,0.8,0.3,1.1,0.9,1.6C7.8,10.9,7.8,11,8.1,11c0.6,2.5,2.4,5.2,4.5,6.4c1.3,0.7,2.5,0.8,3.3,0.3l0,0L17,17
				c0.9-0.5,1.4-1.5,1.4-3C18.4,11,16.3,7.3,13.7,5.8z M11.2,5.9L11.2,5.9c0.2,0,0.4,0.1,0.6,0.2C11.6,6,11.4,6,11.2,5.9z
				 M13.1,13.5c-0.1,0-0.1,0-0.2,0c0,0,0,0,0,0c0,0-0.1,0-0.1-0.1C12.8,13.5,13,13.5,13.1,13.5C13.1,13.5,13.1,13.5,13.1,13.5z
				 M13.4,13.5C13.3,13.5,13.3,13.5,13.4,13.5c-0.1,0-0.2,0-0.2,0c0,0,0,0,0,0C13.2,13.5,13.4,13.5,13.4,13.5
				C13.4,13.5,13.4,13.5,13.4,13.5z M13.8,12.7C13.8,12.7,13.8,12.7,13.8,12.7c-0.8-0.4-1.3-1.4-1.3-2.2c0,0,0-0.1,0-0.1
				c0,0,0.1,0,0.1,0c0.7,0.4,1.2,1.4,1.2,2.2C13.8,12.7,13.8,12.7,13.8,12.7z"/>
			<path class="st70" d="M16.8,13.2c0.1,0.5,0.1,0.9,0.1,1.4c0,0.8-0.2,1.5-0.4,2c0.3-0.5,0.4-1.2,0.4-2
				C17,14.2,16.9,13.7,16.8,13.2z M13.2,13.4L13.2,13.4L13.2,13.4L13.2,13.4z M13.4,5.8c-0.3-0.2-0.6-0.3-0.9-0.4
				c0-0.2,0-0.2-0.1-0.3c-0.1-0.1-0.2-0.2-0.3-0.5c-0.4-0.7-0.8-1.1-1.2-1.1c-0.3,0.1-0.6,0.2-0.9,0.3L8.4,4.7l0,0L8,4.9
				c0.3-0.2,0.6-0.3,0.9-0.3c0.1,0,0.3,0,0.4,0c-0.1-0.1-0.2-0.1-0.4,0C8.6,4.6,8.3,4.7,8,4.9c0,0,0,0,0,0C6.9,5.5,6.2,7,6.2,8.9
				c0,0.8,0.3,1.1,0.9,1.6C7.5,10.9,7.5,11,7.8,11c0.6,2.5,2.4,5.2,4.5,6.4c1.3,0.7,2.5,0.8,3.3,0.3l0,0l1.1-0.7
				c0.9-0.5,1.4-1.5,1.4-3C18.1,11,16,7.3,13.4,5.8z M10.9,5.9L10.9,5.9c0.2,0,0.4,0.1,0.6,0.2C11.3,6,11.1,6,10.9,5.9z M12.8,13.5
				c-0.1,0-0.1,0-0.2,0c0,0,0,0,0,0c0,0-0.1,0-0.1-0.1C12.5,13.5,12.7,13.5,12.8,13.5C12.8,13.5,12.8,13.5,12.8,13.5z M13.1,13.5
				C13,13.5,13,13.5,13.1,13.5c-0.1,0-0.2,0-0.2,0c0,0,0,0,0,0C12.9,13.5,13.1,13.5,13.1,13.5C13.1,13.5,13.1,13.5,13.1,13.5z
				 M13.5,12.7C13.5,12.7,13.5,12.7,13.5,12.7c-0.8-0.4-1.3-1.4-1.3-2.2c0,0,0-0.1,0-0.1c0,0,0.1,0,0.1,0c0.7,0.4,1.2,1.4,1.2,2.2
				C13.5,12.7,13.5,12.7,13.5,12.7z"/>
		</g>
	</g>
</g>
<g>
	<linearGradient id="SVGID_4_" gradientUnits="userSpaceOnUse" x1="19.4208" y1="14.6413" x2="6.3739" y2="14.6413">
		<stop  offset="2.673800e-03" style="stop-color:#9EA5A9"/>
		<stop  offset="0.2219" style="stop-color:#DEE5E9"/>
		<stop  offset="0.4118" style="stop-color:#D1D8DC"/>
		<stop  offset="0.8396" style="stop-color:#9EA5A9"/>
		<stop  offset="1" style="stop-color:#6F7980"/>
	</linearGradient>
	<path class="st71" d="M19.4,14.3c0-0.8-0.7-1.5-1.9-2.1c-2.6-1.2-6.7-1.2-9.2,0c-1.3,0.6-1.9,1.4-1.9,2.2l0,0.7
		c0,0.8,0.7,1.5,1.9,2.1c2.6,1.2,6.7,1.2,9.2,0c1.3-0.6,1.9-1.4,1.9-2.2L19.4,14.3z"/>
	<path class="st72" d="M17.5,12.1c2.6,1.2,2.6,3.1,0,4.3c-2.6,1.2-6.7,1.2-9.2,0c-2.6-1.2-2.6-3.1,0-4.3
		C10.8,10.9,15,10.9,17.5,12.1z"/>
	<linearGradient id="SVGID_5_" gradientUnits="userSpaceOnUse" x1="10.4377" y1="11.0032" x2="19.152" y2="22.4609">
		<stop  offset="0" style="stop-color:#C5CCD0"/>
		<stop  offset="1" style="stop-color:#A8AFB3"/>
	</linearGradient>
	<path class="st73" d="M17.4,12.1c2.5,1.2,2.5,3.1,0,4.3c-2.5,1.2-6.6,1.2-9.1,0s-2.5-3.1,0-4.3C10.9,10.9,14.9,10.9,17.4,12.1z"/>
	<g>
		<polygon class="st74" points="14.7,9.1 14.7,16.7 14.6,16.7 14.6,9.1 		"/>
		<polygon class="st74" points="11.3,9.1 11.3,16.7 11.1,16.7 11.2,9.1 		"/>
		<polygon class="st74" points="14.2,9.1 14.1,16.8 14,16.8 14,9.1 		"/>
		<polygon class="st74" points="11.9,9.1 11.8,16.8 11.7,16.8 11.7,9.1 		"/>
		<polygon class="st74" points="13.6,9.2 13.6,16.8 13.4,16.8 13.4,9.2 		"/>
		<polygon class="st74" points="12.4,9.2 12.4,16.8 12.3,16.8 12.3,9.2 		"/>
		<polygon class="st74" points="13,9.2 13,16.9 12.8,16.9 12.9,9.2 		"/>
		<linearGradient id="SVGID_6_" gradientUnits="userSpaceOnUse" x1="18.3417" y1="10.9107" x2="21.4349" y2="10.9107">
			<stop  offset="0" style="stop-color:#C95A1E"/>
			<stop  offset="1" style="stop-color:#FE912A"/>
		</linearGradient>
		<polygon class="st75" points="19.2,7.1 19.2,14.7 18.3,14.8 18.4,7.1 		"/>
		<linearGradient id="SVGID_7_" gradientUnits="userSpaceOnUse" x1="18.2013" y1="11.1976" x2="19.7876" y2="11.1976">
			<stop  offset="0" style="stop-color:#C95A1E"/>
			<stop  offset="1" style="stop-color:#FE912A"/>
		</linearGradient>
		<polygon class="st76" points="19.1,7.4 19.1,15 18.2,15 18.2,7.4 		"/>
		<linearGradient id="SVGID_8_" gradientUnits="userSpaceOnUse" x1="18.0035" y1="11.4759" x2="19.6697" y2="11.4759">
			<stop  offset="0" style="stop-color:#C95A1E"/>
			<stop  offset="1" style="stop-color:#FE912A"/>
		</linearGradient>
		<polygon class="st77" points="18.9,7.7 18.9,15.3 18,15.3 18,7.6 		"/>
		<linearGradient id="SVGID_9_" gradientUnits="userSpaceOnUse" x1="17.7492" y1="11.7427" x2="19.1168" y2="11.7427">
			<stop  offset="0" style="stop-color:#C95A1E"/>
			<stop  offset="1" style="stop-color:#FE912A"/>
		</linearGradient>
		<polygon class="st78" points="18.6,8 18.6,15.6 17.7,15.5 17.8,7.9 		"/>
		<linearGradient id="SVGID_10_" gradientUnits="userSpaceOnUse" x1="17.4412" y1="11.9949" x2="18.8196" y2="11.9949">
			<stop  offset="0" style="stop-color:#C95A1E"/>
			<stop  offset="1" style="stop-color:#FE912A"/>
		</linearGradient>
		<polygon class="st79" points="18.3,8.2 18.3,15.9 17.4,15.8 17.5,8.1 		"/>
		<linearGradient id="SVGID_11_" gradientUnits="userSpaceOnUse" x1="17.0836" y1="12.2294" x2="18.2861" y2="12.2294">
			<stop  offset="0" style="stop-color:#C95A1E"/>
			<stop  offset="1" style="stop-color:#FE912A"/>
		</linearGradient>
		<polygon class="st80" points="17.9,8.5 17.9,16.2 17.1,16 17.1,8.3 		"/>
		<linearGradient id="SVGID_12_" gradientUnits="userSpaceOnUse" x1="16.6809" y1="12.4441" x2="17.7384" y2="12.4441">
			<stop  offset="0" style="stop-color:#C95A1E"/>
			<stop  offset="1" style="stop-color:#FE912A"/>
		</linearGradient>
		<polygon class="st81" points="17.4,8.7 17.4,16.4 16.7,16.2 16.7,8.5 		"/>
		<linearGradient id="SVGID_13_" gradientUnits="userSpaceOnUse" x1="16.2373" y1="12.6368" x2="17.1445" y2="12.6368">
			<stop  offset="0" style="stop-color:#C95A1E"/>
			<stop  offset="1" style="stop-color:#FE912A"/>
		</linearGradient>
		<polygon class="st82" points="16.9,8.9 16.9,16.6 16.2,16.3 16.3,8.7 		"/>
		<linearGradient id="SVGID_14_" gradientUnits="userSpaceOnUse" x1="15.7565" y1="12.805" x2="16.5271" y2="12.805">
			<stop  offset="0" style="stop-color:#C95A1E"/>
			<stop  offset="1" style="stop-color:#FE912A"/>
		</linearGradient>
		<polygon class="st83" points="16.4,9.1 16.4,16.8 15.8,16.5 15.8,8.8 		"/>
		<linearGradient id="SVGID_15_" gradientUnits="userSpaceOnUse" x1="15.245" y1="12.947" x2="15.8089" y2="12.947">
			<stop  offset="0" style="stop-color:#C95A1E"/>
			<stop  offset="1" style="stop-color:#FE912A"/>
		</linearGradient>
		<polygon class="st84" points="15.8,9.3 15.8,16.9 15.2,16.6 15.3,9 		"/>
		<linearGradient id="SVGID_16_" gradientUnits="userSpaceOnUse" x1="14.707" y1="13.061" x2="15.1968" y2="13.061">
			<stop  offset="0" style="stop-color:#C95A1E"/>
			<stop  offset="1" style="stop-color:#FE912A"/>
		</linearGradient>
		<polygon class="st85" points="15.2,9.4 15.2,17.1 14.7,16.7 14.7,9.1 		"/>
		<linearGradient id="SVGID_17_" gradientUnits="userSpaceOnUse" x1="14.1497" y1="13.1461" x2="14.5602" y2="13.1461">
			<stop  offset="0" style="stop-color:#C95A1E"/>
			<stop  offset="1" style="stop-color:#FE912A"/>
		</linearGradient>
		<polygon class="st86" points="14.6,9.5 14.5,17.2 14.1,16.8 14.2,9.1 		"/>
		<linearGradient id="SVGID_18_" gradientUnits="userSpaceOnUse" x1="11.8469" y1="13.1823" x2="11.9064" y2="13.1823">
			<stop  offset="0" style="stop-color:#C95A1E"/>
			<stop  offset="1" style="stop-color:#FE912A"/>
		</linearGradient>
		<polygon class="st87" points="11.9,9.6 11.9,17.2 11.8,16.8 11.9,9.1 		"/>
		<linearGradient id="SVGID_19_" gradientUnits="userSpaceOnUse" x1="13.5789" y1="13.2011" x2="13.9053" y2="13.2011">
			<stop  offset="0" style="stop-color:#C95A1E"/>
			<stop  offset="1" style="stop-color:#FE912A"/>
		</linearGradient>
		<polygon class="st88" points="13.9,9.6 13.9,17.2 13.6,16.8 13.6,9.2 		"/>
		<linearGradient id="SVGID_20_" gradientUnits="userSpaceOnUse" x1="12.4209" y1="13.2193" x2="12.5711" y2="13.2193">
			<stop  offset="0" style="stop-color:#C95A1E"/>
			<stop  offset="1" style="stop-color:#FE912A"/>
		</linearGradient>
		<polygon class="st89" points="12.6,9.6 12.5,17.3 12.4,16.8 12.4,9.2 		"/>
		<linearGradient id="SVGID_21_" gradientUnits="userSpaceOnUse" x1="13.0003" y1="13.2255" x2="13.2397" y2="13.2255">
			<stop  offset="0" style="stop-color:#C95A1E"/>
			<stop  offset="1" style="stop-color:#FE912A"/>
		</linearGradient>
		<polygon class="st90" points="13.2,9.6 13.2,17.3 13,16.9 13,9.2 		"/>
		<linearGradient id="SVGID_22_" gradientUnits="userSpaceOnUse" x1="6.528" y1="10.6183" x2="7.4133" y2="10.6183">
			<stop  offset="0" style="stop-color:#C95A1E"/>
			<stop  offset="1" style="stop-color:#FE912A"/>
		</linearGradient>
		<polygon class="st91" points="7.4,6.8 7.4,14.5 6.5,14.4 6.5,6.8 		"/>
		<linearGradient id="SVGID_23_" gradientUnits="userSpaceOnUse" x1="6.6044" y1="10.9108" x2="7.4975" y2="10.9108">
			<stop  offset="0" style="stop-color:#C95A1E"/>
			<stop  offset="1" style="stop-color:#FE912A"/>
		</linearGradient>
		<polygon class="st92" points="7.5,7.1 7.5,14.8 6.6,14.7 6.6,7.1 		"/>
		<linearGradient id="SVGID_24_" gradientUnits="userSpaceOnUse" x1="6.7499" y1="11.1977" x2="7.6408" y2="11.1977">
			<stop  offset="0" style="stop-color:#C95A1E"/>
			<stop  offset="1" style="stop-color:#FE912A"/>
		</linearGradient>
		<polygon class="st93" points="7.6,7.4 7.6,15 6.7,15 6.8,7.4 		"/>
		<linearGradient id="SVGID_25_" gradientUnits="userSpaceOnUse" x1="7.5291" y1="11.4761" x2="5.8405" y2="11.4761">
			<stop  offset="0" style="stop-color:#C95A1E"/>
			<stop  offset="1" style="stop-color:#FE912A"/>
		</linearGradient>
		<polygon class="st94" points="7.8,7.6 7.8,15.3 7,15.3 7,7.7 		"/>
		<linearGradient id="SVGID_26_" gradientUnits="userSpaceOnUse" x1="8.0878" y1="11.7428" x2="6.0837" y2="11.7428">
			<stop  offset="0" style="stop-color:#C95A1E"/>
			<stop  offset="1" style="stop-color:#FE912A"/>
		</linearGradient>
		<polygon class="st95" points="8.1,7.9 8.1,15.5 7.2,15.6 7.3,8 		"/>
		<linearGradient id="SVGID_27_" gradientUnits="userSpaceOnUse" x1="8.4013" y1="11.9947" x2="6.5622" y2="11.9947">
			<stop  offset="0" style="stop-color:#C95A1E"/>
			<stop  offset="1" style="stop-color:#FE912A"/>
		</linearGradient>
		<polygon class="st96" points="8.4,8.1 8.4,15.8 7.6,15.9 7.6,8.2 		"/>
		<linearGradient id="SVGID_28_" gradientUnits="userSpaceOnUse" x1="8.764" y1="12.2295" x2="7.2417" y2="12.2295">
			<stop  offset="0" style="stop-color:#C95A1E"/>
			<stop  offset="1" style="stop-color:#FE912A"/>
		</linearGradient>
		<polygon class="st97" points="8.8,8.3 8.8,16 8,16.2 8,8.5 		"/>
		<linearGradient id="SVGID_29_" gradientUnits="userSpaceOnUse" x1="9.1854" y1="12.4441" x2="7.7446" y2="12.4441">
			<stop  offset="0" style="stop-color:#C95A1E"/>
			<stop  offset="1" style="stop-color:#FE912A"/>
		</linearGradient>
		<polygon class="st98" points="9.2,8.5 9.2,16.2 8.4,16.4 8.5,8.7 		"/>
		<linearGradient id="SVGID_30_" gradientUnits="userSpaceOnUse" x1="9.6362" y1="12.6368" x2="8.7391" y2="12.6368">
			<stop  offset="0" style="stop-color:#C95A1E"/>
			<stop  offset="1" style="stop-color:#FE912A"/>
		</linearGradient>
		<polygon class="st99" points="9.6,8.7 9.6,16.3 8.9,16.6 9,8.9 		"/>
		<linearGradient id="SVGID_31_" gradientUnits="userSpaceOnUse" x1="10.0969" y1="12.805" x2="9.4756" y2="12.805">
			<stop  offset="0" style="stop-color:#C95A1E"/>
			<stop  offset="1" style="stop-color:#FE912A"/>
		</linearGradient>
		<polygon class="st100" points="10.1,8.8 10.1,16.5 9.5,16.8 9.5,9.1 		"/>
		<linearGradient id="SVGID_32_" gradientUnits="userSpaceOnUse" x1="10.6163" y1="12.947" x2="10.0367" y2="12.947">
			<stop  offset="0" style="stop-color:#C95A1E"/>
			<stop  offset="1" style="stop-color:#FE912A"/>
		</linearGradient>
		<polygon class="st101" points="10.6,9 10.6,16.6 10.1,16.9 10.1,9.3 		"/>
		<linearGradient id="SVGID_33_" gradientUnits="userSpaceOnUse" x1="11.1652" y1="13.0609" x2="10.6898" y2="13.0609">
			<stop  offset="0" style="stop-color:#C95A1E"/>
			<stop  offset="1" style="stop-color:#FE912A"/>
		</linearGradient>
		<polygon class="st102" points="11.2,9.1 11.1,16.7 10.7,17.1 10.7,9.4 		"/>
		<linearGradient id="SVGID_34_" gradientUnits="userSpaceOnUse" x1="11.714" y1="13.1461" x2="11.2908" y2="13.1461">
			<stop  offset="0" style="stop-color:#C95A1E"/>
			<stop  offset="1" style="stop-color:#FE912A"/>
		</linearGradient>
		<polygon class="st103" points="11.7,9.1 11.7,16.8 11.3,17.2 11.3,9.5 		"/>
		<linearGradient id="SVGID_35_" gradientUnits="userSpaceOnUse" x1="13.9669" y1="13.1824" x2="14.0202" y2="13.1824">
			<stop  offset="0" style="stop-color:#C95A1E"/>
			<stop  offset="1" style="stop-color:#FE912A"/>
		</linearGradient>
		<polygon class="st104" points="14,9.1 14,16.8 14,17.2 14,9.6 		"/>
		<linearGradient id="SVGID_36_" gradientUnits="userSpaceOnUse" x1="12.3118" y1="13.2011" x2="11.9883" y2="13.2011">
			<stop  offset="0" style="stop-color:#C95A1E"/>
			<stop  offset="1" style="stop-color:#FE912A"/>
		</linearGradient>
		<polygon class="st105" points="12.3,9.2 12.3,16.8 12,17.2 12,9.6 		"/>
		<linearGradient id="SVGID_37_" gradientUnits="userSpaceOnUse" x1="13.4684" y1="13.2191" x2="13.2823" y2="13.2191">
			<stop  offset="0" style="stop-color:#C95A1E"/>
			<stop  offset="1" style="stop-color:#FE912A"/>
		</linearGradient>
		<polygon class="st106" points="13.4,9.2 13.4,16.8 13.3,17.3 13.3,9.6 		"/>
		<linearGradient id="SVGID_38_" gradientUnits="userSpaceOnUse" x1="12.8605" y1="13.2254" x2="12.6246" y2="13.2254">
			<stop  offset="0" style="stop-color:#C95A1E"/>
			<stop  offset="1" style="stop-color:#FE912A"/>
		</linearGradient>
		<polygon class="st107" points="12.9,9.2 12.8,16.9 12.6,17.3 12.7,9.6 		"/>
		<polygon class="st108" points="6.5,6.8 6.5,14.4 6.5,14.4 6.5,6.7 		"/>
		<polygon class="st108" points="19.2,7 19.2,14.7 19.2,14.7 19.2,7.1 		"/>
		<polygon class="st108" points="6.6,7.1 6.6,14.7 6.6,14.7 6.6,7 		"/>
		<polygon class="st108" points="19.1,7.3 19.1,15 19.1,15 19.1,7.4 		"/>
		<polygon class="st108" points="6.8,7.4 6.7,15 6.7,15 6.7,7.3 		"/>
		<polygon class="st108" points="18.9,7.6 18.9,15.3 18.9,15.3 18.9,7.7 		"/>
		<polygon class="st108" points="7,7.7 7,15.3 6.9,15.3 7,7.6 		"/>
		<polygon class="st108" points="18.6,7.9 18.6,15.6 18.6,15.6 18.6,8 		"/>
		<polygon class="st108" points="7.3,8 7.2,15.6 7.2,15.6 7.2,7.9 		"/>
		<polygon class="st108" points="18.3,8.2 18.3,15.9 18.3,15.9 18.3,8.2 		"/>
		<polygon class="st108" points="7.6,8.2 7.6,15.9 7.5,15.9 7.6,8.2 		"/>
		<polygon class="st108" points="17.9,8.5 17.9,16.1 17.9,16.2 17.9,8.5 		"/>
		<polygon class="st108" points="8,8.5 8,16.2 7.9,16.1 7.9,8.5 		"/>
		<polygon class="st108" points="17.5,8.7 17.5,16.4 17.4,16.4 17.4,8.7 		"/>
		<polygon class="st108" points="8.5,8.7 8.4,16.4 8.4,16.4 8.4,8.7 		"/>
		<polygon class="st108" points="17,8.9 17,16.6 16.9,16.6 16.9,8.9 		"/>
		<polygon class="st108" points="9,8.9 8.9,16.6 8.9,16.6 8.9,8.9 		"/>
		<polygon class="st108" points="16.5,9.1 16.4,16.8 16.4,16.8 16.4,9.1 		"/>
		<polygon class="st108" points="9.5,9.1 9.5,16.8 9.4,16.8 9.4,9.1 		"/>
		<polygon class="st108" points="15.9,9.3 15.9,16.9 15.8,16.9 15.8,9.3 		"/>
		<polygon class="st108" points="10.1,9.3 10.1,16.9 10,16.9 10,9.3 		"/>
		<polygon class="st108" points="15.3,9.4 15.3,17.1 15.2,17.1 15.2,9.4 		"/>
		<polygon class="st108" points="10.7,9.4 10.7,17.1 10.6,17.1 10.6,9.4 		"/>
		<polygon class="st108" points="14.6,9.5 14.6,17.2 14.5,17.2 14.6,9.5 		"/>
		<polygon class="st108" points="11.3,9.5 11.3,17.2 11.2,17.2 11.3,9.5 		"/>
		<polygon class="st108" points="14,9.6 14,17.2 13.9,17.2 13.9,9.6 		"/>
		<polygon class="st108" points="12,9.6 12,17.2 11.9,17.2 11.9,9.6 		"/>
		<polygon class="st108" points="13.3,9.6 13.3,17.3 13.2,17.3 13.2,9.6 		"/>
		<polygon class="st108" points="12.7,9.6 12.6,17.3 12.5,17.3 12.6,9.6 		"/>
	</g>
	<linearGradient id="SVGID_39_" gradientUnits="userSpaceOnUse" x1="19.318" y1="6.2315" x2="6.4772" y2="6.2315">
		<stop  offset="2.673800e-03" style="stop-color:#9EA5A9"/>
		<stop  offset="0.2219" style="stop-color:#DEE5E9"/>
		<stop  offset="0.4118" style="stop-color:#D1D8DC"/>
		<stop  offset="0.8396" style="stop-color:#9EA5A9"/>
		<stop  offset="1" style="stop-color:#6F7980"/>
	</linearGradient>
	<path class="st109" d="M19.3,5.9c0-0.8-0.6-1.5-1.9-2.1c-2.5-1.2-6.6-1.2-9.1,0C7.1,4.3,6.5,5.1,6.5,5.9l0,0.7
		c0,0.8,0.6,1.5,1.9,2.1c2.5,1.2,6.6,1.2,9.1,0c1.3-0.6,1.9-1.4,1.9-2.1L19.3,5.9z"/>
	<path class="st72" d="M17.5,3.7C20,4.9,20,6.8,17.5,8c-2.5,1.2-6.6,1.2-9.1,0c-2.5-1.2-2.5-3.1,0-4.3C10.9,2.6,14.9,2.6,17.5,3.7z"
		/>
	<linearGradient id="SVGID_40_" gradientUnits="userSpaceOnUse" x1="10.4768" y1="2.651" x2="19.0534" y2="13.9276">
		<stop  offset="0" style="stop-color:#DEE5E9"/>
		<stop  offset="1" style="stop-color:#C1C8CC"/>
	</linearGradient>
	<path class="st110" d="M17.4,3.8c2.5,1.2,2.5,3,0,4.2c-2.5,1.2-6.5,1.2-8.9,0C6,6.8,6,4.9,8.5,3.8C10.9,2.6,14.9,2.6,17.4,3.8z"/>
	<path class="st72" d="M15.8,4.5c1.6,0.7,1.6,1.9,0,2.7c-1.6,0.7-4.1,0.7-5.7,0c-1.6-0.7-1.6-1.9,0-2.7C11.6,3.7,14.2,3.7,15.8,4.5z
		"/>
	<linearGradient id="SVGID_41_" gradientUnits="userSpaceOnUse" x1="9.0181" y1="5.8555" x2="16.967" y2="5.8555">
		<stop  offset="2.673800e-03" style="stop-color:#9EA5A9"/>
		<stop  offset="0.2219" style="stop-color:#DEE5E9"/>
		<stop  offset="0.4118" style="stop-color:#D1D8DC"/>
		<stop  offset="0.8396" style="stop-color:#9EA5A9"/>
		<stop  offset="1" style="stop-color:#6F7980"/>
	</linearGradient>
	<path class="st111" d="M15.8,4.5c1.6,0.7,1.6,1.9,0,2.7c-1.6,0.7-4.1,0.7-5.7,0c-1.6-0.7-1.6-1.9,0-2.7C11.6,3.8,14.2,3.8,15.8,4.5
		z"/>
	<linearGradient id="SVGID_42_" gradientUnits="userSpaceOnUse" x1="11.102" y1="4.2714" x2="16.2546" y2="9.1489">
		<stop  offset="0" style="stop-color:#DEE5E9"/>
		<stop  offset="1" style="stop-color:#C1C8CC"/>
	</linearGradient>
	<path class="st112" d="M15.8,4.8c-1.6-0.7-4.1-0.7-5.7,0C9.3,5.1,9,5.5,8.9,6C9,6.4,9.3,6.9,10.1,7.2c1.6,0.7,4.1,0.7,5.7,0
		c0.7-0.3,1.1-0.8,1.2-1.2C16.9,5.5,16.5,5.1,15.8,4.8z"/>
	<path class="st72" d="M14.1,5.2c0.7,0.3,0.7,0.8,0,1.1c-0.7,0.3-1.7,0.3-2.4,0c-0.7-0.3-0.7-0.8,0-1.1C12.4,4.9,13.4,4.9,14.1,5.2z
		"/>
	<linearGradient id="SVGID_43_" gradientUnits="userSpaceOnUse" x1="11.287" y1="5.8525" x2="14.6067" y2="5.8525">
		<stop  offset="2.673800e-03" style="stop-color:#9EA5A9"/>
		<stop  offset="0.2219" style="stop-color:#DEE5E9"/>
		<stop  offset="0.4118" style="stop-color:#D1D8DC"/>
		<stop  offset="0.8396" style="stop-color:#9EA5A9"/>
		<stop  offset="1" style="stop-color:#6F7980"/>
	</linearGradient>
	<path class="st113" d="M14.1,5.3c0.7,0.3,0.7,0.8,0,1.1c-0.7,0.3-1.7,0.3-2.4,0c-0.7-0.3-0.7-0.8,0-1.1C12.4,5,13.4,5,14.1,5.3z"/>
	<path class="st114" d="M14.1,5.7c-0.7-0.3-1.7-0.3-2.4,0c-0.2,0.1-0.4,0.2-0.4,0.3c0.1,0.1,0.2,0.2,0.4,0.3c0.7,0.3,1.7,0.3,2.4,0
		c0.2-0.1,0.4-0.2,0.4-0.3C14.5,5.9,14.3,5.8,14.1,5.7z"/>
</g>
</svg>
