<?xml version="1.0" encoding="utf-8"?>
<!-- Generator: Adobe Illustrator 24.2.1, SVG Export Plug-In . SVG Version: 6.00 Build 0)  -->
<svg version="1.1" id="Layer_2" xmlns="http://www.w3.org/2000/svg" xmlns:xlink="http://www.w3.org/1999/xlink" x="0px" y="0px"
	 viewBox="0 0 28.3 28.3" style="enable-background:new 0 0 28.3 28.3;" xml:space="preserve">
<style type="text/css">
	.st0{opacity:0;fill:#FFFFFF;}
	.st1{opacity:3.030303e-02;fill:#FCFCFC;}
	.st2{opacity:6.060606e-02;fill:#F9F9F9;}
	.st3{opacity:9.090909e-02;fill:#F5F5F5;}
	.st4{opacity:0.1212;fill:#F2F2F2;}
	.st5{opacity:0.1515;fill:#EFEFEF;}
	.st6{opacity:0.1818;fill:#ECECEC;}
	.st7{opacity:0.2121;fill:#E8E8E8;}
	.st8{opacity:0.2424;fill:#E5E5E5;}
	.st9{opacity:0.2727;fill:#E2E2E2;}
	.st10{opacity:0.303;fill:#DFDFDF;}
	.st11{opacity:0.3333;fill:#DBDBDB;}
	.st12{opacity:0.3636;fill:#D8D8D8;}
	.st13{opacity:0.3939;fill:#D5D5D5;}
	.st14{opacity:0.4242;fill:#D2D2D2;}
	.st15{opacity:0.4545;fill:#CECECE;}
	.st16{opacity:0.4848;fill:#CBCBCB;}
	.st17{opacity:0.5152;fill:#C8C8C8;}
	.st18{opacity:0.5455;fill:#C5C5C5;}
	.st19{opacity:0.5758;fill:#C1C1C1;}
	.st20{opacity:0.6061;fill:#BEBEBE;}
	.st21{opacity:0.6364;fill:#BBBBBB;}
	.st22{opacity:0.6667;fill:#B8B8B8;}
	.st23{opacity:0.697;fill:#B4B4B4;}
	.st24{opacity:0.7273;fill:#B1B1B1;}
	.st25{opacity:0.7576;fill:#AEAEAE;}
	.st26{opacity:0.7879;fill:#ABABAB;}
	.st27{opacity:0.8182;fill:#A7A7A7;}
	.st28{opacity:0.8485;fill:#A4A4A4;}
	.st29{opacity:0.8788;fill:#A1A1A1;}
	.st30{opacity:0.9091;fill:#9E9E9E;}
	.st31{opacity:0.9394;fill:#9A9A9A;}
	.st32{opacity:0.9697;fill:#979797;}
	.st33{fill:#949494;}
	.st34{fill:#ABCF00;}
	.st35{fill:url(#SVGID_1_);}
	.st36{fill:#37384F;}
	.st37{clip-path:url(#SVGID_3_);}
	.st38{opacity:3.030303e-02;fill:#F8F8F8;}
	.st39{opacity:6.060606e-02;fill:#F1F1F1;}
	.st40{opacity:9.090909e-02;fill:#E9E9EA;}
	.st41{opacity:0.1212;fill:#E2E2E3;}
	.st42{opacity:0.1515;fill:#DBDBDC;}
	.st43{opacity:0.1818;fill:#D4D4D6;}
	.st44{opacity:0.2121;fill:#CDCDCF;}
	.st45{opacity:0.2424;fill:#C5C5C8;}
	.st46{opacity:0.2727;fill:#BEBEC1;}
	.st47{opacity:0.303;fill:#B7B7BA;}
	.st48{opacity:0.3333;fill:#B0B0B3;}
	.st49{opacity:0.3636;fill:#A8A8AC;}
	.st50{opacity:0.3939;fill:#A1A1A5;}
	.st51{opacity:0.4242;fill:#9A9A9E;}
	.st52{opacity:0.4545;fill:#939397;}
	.st53{opacity:0.4848;fill:#8C8C90;}
	.st54{opacity:0.5152;fill:#84848A;}
	.st55{opacity:0.5455;fill:#7D7D83;}
	.st56{opacity:0.5758;fill:#76767C;}
	.st57{opacity:0.6061;fill:#6F6F75;}
	.st58{opacity:0.6364;fill:#68686E;}
	.st59{opacity:0.6667;fill:#606067;}
	.st60{opacity:0.697;fill:#595960;}
	.st61{opacity:0.7273;fill:#525259;}
	.st62{opacity:0.7576;fill:#4B4B52;}
	.st63{opacity:0.7879;fill:#43434B;}
	.st64{opacity:0.8182;fill:#3C3C44;}
	.st65{opacity:0.8485;fill:#35353E;}
	.st66{opacity:0.8788;fill:#2E2E37;}
	.st67{opacity:0.9091;fill:#272730;}
	.st68{opacity:0.9394;fill:#1F1F29;}
	.st69{opacity:0.9697;fill:#181822;}
	.st70{fill:#11111B;}
	.st71{fill:url(#SVGID_4_);}
	.st72{fill:url(#SVGID_5_);}
	.st73{fill:#F0F7F7;}
	.st74{fill:#262626;}
	.st75{fill:url(#SVGID_6_);}
	.st76{fill:url(#SVGID_7_);}
	.st77{opacity:0.2;fill:#FFFFFF;}
	.st78{opacity:0.4;fill:#FFFFFF;}
</style>
<g>
	<g>
		<path class="st0" d="M23,13c-5.3-3.1-10.7-3.1-16,0l0,0c-2.6,1.5-4,3.1-4,4.6c0,1.6,1.3,3.1,4,4.6c5.3,3.1,10.7,3.1,16,0
			c2.6-1.5,4-3.1,4-4.6C27,16.1,25.7,14.5,23,13z"/>
		<path class="st1" d="M23,13c-5.3-3.1-10.7-3.1-16,0l0,0c-2.6,1.5-4,3.1-4,4.6c0,1.6,1.3,3.1,4,4.6c5.3,3.1,10.7,3.1,16,0
			c2.6-1.5,4-3.1,4-4.6C26.9,16.1,25.6,14.5,23,13z"/>
		<path class="st2" d="M22.9,13c-5.3-3.1-10.7-3.1-16,0l0,0c-2.6,1.5-4,3.1-4,4.6c0,1.6,1.3,3.1,4,4.6c5.3,3.1,10.7,3.1,16,0
			c2.6-1.5,4-3.1,4-4.6C26.9,16.1,25.6,14.5,22.9,13z"/>
		<path class="st3" d="M22.9,13c-5.3-3.1-10.7-3.1-16,0l0,0c-2.6,1.5-4,3.1-4,4.6c0,1.6,1.3,3.1,4,4.6c5.3,3.1,10.7,3.1,16,0
			c2.6-1.5,4-3.1,4-4.6C26.8,16.1,25.5,14.5,22.9,13z"/>
		<path class="st4" d="M22.8,13c-5.3-3.1-10.7-3.1-16,0l0,0c-2.6,1.5-4,3.1-4,4.6c0,1.6,1.3,3.1,4,4.6c5.3,3.1,10.7,3.1,16,0
			c2.6-1.5,4-3.1,4-4.6C26.8,16.1,25.5,14.5,22.8,13z"/>
		<path class="st5" d="M22.8,13c-5.3-3.1-10.7-3.1-16,0l0,0c-2.6,1.5-4,3.1-4,4.6c0,1.6,1.3,3.1,4,4.6c5.3,3.1,10.7,3.1,16,0
			c2.6-1.5,4-3.1,4-4.6C26.7,16.1,25.4,14.5,22.8,13z"/>
		<path class="st6" d="M22.7,13c-5.3-3.1-10.7-3.1-16,0l0,0c-2.6,1.5-4,3.1-4,4.6c0,1.6,1.3,3.1,4,4.6c5.3,3.1,10.7,3.1,16,0
			c2.6-1.5,4-3.1,4-4.6C26.7,16.1,25.4,14.5,22.7,13z"/>
		<path class="st7" d="M22.7,13c-5.3-3.1-10.7-3.1-16,0l0,0c-2.6,1.5-4,3.1-4,4.6c0,1.6,1.3,3.1,4,4.6c5.3,3.1,10.7,3.1,16,0
			c2.6-1.5,4-3.1,4-4.6C26.6,16.1,25.3,14.5,22.7,13z"/>
		<path class="st8" d="M22.6,13c-5.3-3.1-10.7-3.1-16,0l0,0c-2.6,1.5-4,3.1-4,4.6c0,1.6,1.3,3.1,4,4.6c5.3,3.1,10.7,3.1,16,0
			c2.6-1.5,4-3.1,4-4.6C26.6,16.1,25.3,14.5,22.6,13z"/>
		<path class="st9" d="M22.6,13c-5.3-3.1-10.7-3.1-16,0l0,0c-2.6,1.5-4,3.1-4,4.6c0,1.6,1.3,3.1,4,4.6c5.3,3.1,10.7,3.1,16,0
			c2.6-1.5,4-3.1,4-4.6C26.5,16.1,25.2,14.5,22.6,13z"/>
		<path class="st10" d="M22.5,13c-5.3-3.1-10.7-3.1-16,0l0,0c-2.6,1.5-4,3.1-4,4.6c0,1.6,1.3,3.1,4,4.6c5.3,3.1,10.7,3.1,16,0
			c2.6-1.5,4-3.1,4-4.6C26.5,16.1,25.2,14.5,22.5,13z"/>
		<path class="st11" d="M22.5,13c-5.3-3.1-10.7-3.1-16,0l0,0c-2.6,1.5-4,3.1-4,4.6c0,1.6,1.3,3.1,4,4.6c5.3,3.1,10.7,3.1,16,0
			c2.6-1.5,4-3.1,4-4.6C26.4,16.1,25.1,14.5,22.5,13z"/>
		<path class="st12" d="M22.4,13c-5.3-3.1-10.7-3.1-16,0l0,0c-2.6,1.5-4,3.1-4,4.6c0,1.6,1.3,3.1,4,4.6c5.3,3.1,10.7,3.1,16,0
			c2.6-1.5,4-3.1,4-4.6C26.4,16.1,25.1,14.5,22.4,13z"/>
		<path class="st13" d="M22.4,13c-5.3-3.1-10.7-3.1-16,0l0,0c-2.6,1.5-4,3.1-4,4.6c0,1.6,1.3,3.1,4,4.6c5.3,3.1,10.7,3.1,16,0
			c2.6-1.5,4-3.1,4-4.6C26.3,16.1,25,14.5,22.4,13z"/>
		<path class="st14" d="M22.3,13c-5.3-3.1-10.7-3.1-16,0l0,0c-2.6,1.5-4,3.1-4,4.6c0,1.6,1.3,3.1,4,4.6c5.3,3.1,10.7,3.1,16,0
			c2.6-1.5,4-3.1,4-4.6C26.3,16.1,25,14.5,22.3,13z"/>
		<path class="st15" d="M22.3,13c-5.3-3.1-10.7-3.1-16,0l0,0c-2.6,1.5-4,3.1-4,4.6c0,1.6,1.3,3.1,4,4.6c5.3,3.1,10.7,3.1,16,0
			c2.6-1.5,4-3.1,4-4.6C26.2,16.1,24.9,14.5,22.3,13z"/>
		<path class="st16" d="M22.2,13c-5.3-3.1-10.7-3.1-16,0l0,0c-2.6,1.5-4,3.1-4,4.6c0,1.6,1.3,3.1,4,4.6c5.3,3.1,10.7,3.1,16,0
			c2.6-1.5,4-3.1,4-4.6C26.2,16.1,24.9,14.5,22.2,13z"/>
		<path class="st17" d="M22.2,13c-5.3-3.1-10.7-3.1-16,0l0,0c-2.6,1.5-4,3.1-4,4.6c0,1.6,1.3,3.1,4,4.6c5.3,3.1,10.7,3.1,16,0
			c2.6-1.5,4-3.1,4-4.6C26.1,16.1,24.8,14.5,22.2,13z"/>
		<path class="st18" d="M22.1,13c-5.3-3.1-10.7-3.1-16,0l0,0c-2.6,1.5-4,3.1-4,4.6c0,1.6,1.3,3.1,4,4.6c5.3,3.1,10.7,3.1,16,0
			c2.6-1.5,4-3.1,4-4.6C26.1,16.1,24.8,14.5,22.1,13z"/>
		<path class="st19" d="M22.1,13c-5.3-3.1-10.7-3.1-16,0l0,0c-2.6,1.5-4,3.1-4,4.6c0,1.6,1.3,3.1,4,4.6c5.3,3.1,10.7,3.1,16,0
			c2.6-1.5,4-3.1,4-4.6C26,16.1,24.7,14.5,22.1,13z"/>
		<path class="st20" d="M22,13c-5.3-3.1-10.7-3.1-16,0l0,0c-2.6,1.5-4,3.1-4,4.6c0,1.6,1.3,3.1,4,4.6c5.3,3.1,10.7,3.1,16,0
			c2.6-1.5,4-3.1,4-4.6C26,16.1,24.7,14.5,22,13z"/>
		<path class="st21" d="M22,13c-5.3-3.1-10.7-3.1-16,0l0,0c-2.6,1.5-4,3.1-4,4.6c0,1.6,1.3,3.1,4,4.6c5.3,3.1,10.7,3.1,16,0
			c2.6-1.5,4-3.1,4-4.6C25.9,16.1,24.6,14.5,22,13z"/>
		<path class="st22" d="M21.9,13c-5.3-3.1-10.7-3.1-16,0l0,0c-2.6,1.5-4,3.1-4,4.6c0,1.6,1.3,3.1,4,4.6c5.3,3.1,10.7,3.1,16,0
			c2.6-1.5,4-3.1,4-4.6C25.9,16.1,24.6,14.5,21.9,13z"/>
		<path class="st23" d="M21.9,13c-5.3-3.1-10.7-3.1-16,0l0,0c-2.6,1.5-4,3.1-4,4.6c0,1.6,1.3,3.1,4,4.6c5.3,3.1,10.7,3.1,16,0
			c2.6-1.5,4-3.1,4-4.6C25.8,16.1,24.5,14.5,21.9,13z"/>
		<path class="st24" d="M21.8,13c-5.3-3.1-10.7-3.1-16,0l0,0c-2.6,1.5-4,3.1-4,4.6c0,1.6,1.3,3.1,4,4.6c5.3,3.1,10.7,3.1,16,0
			c2.6-1.5,4-3.1,4-4.6C25.8,16.1,24.5,14.5,21.8,13z"/>
		<path class="st25" d="M21.8,13c-5.3-3.1-10.7-3.1-16,0l0,0c-2.6,1.5-4,3.1-4,4.6c0,1.6,1.3,3.1,4,4.6c5.3,3.1,10.7,3.1,16,0
			c2.6-1.5,4-3.1,4-4.6C25.7,16.1,24.4,14.5,21.8,13z"/>
		<path class="st26" d="M21.7,13c-5.3-3.1-10.7-3.1-16,0l0,0c-2.6,1.5-4,3.1-4,4.6c0,1.6,1.3,3.1,4,4.6c5.3,3.1,10.7,3.1,16,0
			c2.6-1.5,4-3.1,4-4.6C25.7,16.1,24.4,14.5,21.7,13z"/>
		<path class="st27" d="M21.7,13c-5.3-3.1-10.7-3.1-16,0l0,0c-2.6,1.5-4,3.1-4,4.6c0,1.6,1.3,3.1,4,4.6c5.3,3.1,10.7,3.1,16,0
			c2.6-1.5,4-3.1,4-4.6C25.6,16.1,24.3,14.5,21.7,13z"/>
		<path class="st28" d="M21.6,13c-5.3-3.1-10.7-3.1-16,0l0,0c-2.6,1.5-4,3.1-4,4.6c0,1.6,1.3,3.1,4,4.6c5.3,3.1,10.7,3.1,16,0
			c2.6-1.5,4-3.1,4-4.6C25.6,16.1,24.3,14.5,21.6,13z"/>
		<path class="st29" d="M21.6,13c-5.3-3.1-10.7-3.1-16,0l0,0c-2.6,1.5-4,3.1-4,4.6c0,1.6,1.3,3.1,4,4.6c5.3,3.1,10.7,3.1,16,0
			c2.6-1.5,4-3.1,4-4.6C25.5,16.1,24.2,14.5,21.6,13z"/>
		<path class="st30" d="M21.5,13c-5.3-3.1-10.7-3.1-16,0l0,0c-2.6,1.5-4,3.1-4,4.6c0,1.6,1.3,3.1,4,4.6c5.3,3.1,10.7,3.1,16,0
			c2.6-1.5,4-3.1,4-4.6C25.5,16.1,24.2,14.5,21.5,13z"/>
		<path class="st31" d="M21.5,13c-5.3-3.1-10.7-3.1-16,0l0,0c-2.6,1.5-4,3.1-4,4.6c0,1.6,1.3,3.1,4,4.6c5.3,3.1,10.7,3.1,16,0
			c2.6-1.5,4-3.1,4-4.6C25.4,16.1,24.1,14.5,21.5,13z"/>
		<path class="st32" d="M21.4,13c-5.3-3.1-10.7-3.1-16,0l0,0c-2.6,1.5-4,3.1-4,4.6c0,1.6,1.3,3.1,4,4.6c5.3,3.1,10.7,3.1,16,0
			c2.6-1.5,4-3.1,4-4.6C25.4,16.1,24.1,14.5,21.4,13z"/>
		<path class="st33" d="M21.4,13c-5.3-3.1-10.7-3.1-16,0l0,0c-2.6,1.5-4,3.1-4,4.6c0,1.6,1.3,3.1,4,4.6c5.3,3.1,10.7,3.1,16,0
			c2.6-1.5,4-3.1,4-4.6C25.3,16.1,24,14.5,21.4,13z"/>
	</g>
	<g>
		<path class="st34" d="M21.4,13c-5.3-3.1-10.7-3.1-16,0l0,0c-2.6,1.5-4,3.1-4,4.6c0,1.6,1.3,3.1,4,4.6c5.3,3.1,10.7,3.1,16,0
			c2.6-1.5,4-3.1,4-4.6C25.3,16.1,24,14.5,21.4,13z"/>
		
			<linearGradient id="SVGID_1_" gradientUnits="userSpaceOnUse" x1="-127.3469" y1="-3.0397" x2="-103.3737" y2="-3.0397" gradientTransform="matrix(1 0 0 1 128.7228 22.9478)">
			<stop  offset="0" style="stop-color:#545770"/>
			<stop  offset="9.538691e-02" style="stop-color:#50536B"/>
			<stop  offset="0.2996" style="stop-color:#4E5168"/>
			<stop  offset="0.3775" style="stop-color:#464960"/>
			<stop  offset="0.587" style="stop-color:#353850"/>
			<stop  offset="0.7441" style="stop-color:#2F324A"/>
			<stop  offset="1" style="stop-color:#20233D"/>
		</linearGradient>
		<path class="st35" d="M21.4,19.9c-5.3,3.1-10.7,3.1-16,0c-2.6-1.5-4-3.1-4-4.6v2.3c0,1.6,1.3,3.1,4,4.6c5.3,3.1,10.7,3.1,16,0
			c2.6-1.5,4-3.1,4-4.6v-2.3C25.3,16.8,24,18.4,21.4,19.9z"/>
		<path class="st36" d="M21.4,10.7c-5.3-3.1-10.7-3.1-16,0l0,0c-2.6,1.5-4,3.1-4,4.6c0,1.6,1.3,3.1,4,4.6c5.3,3.1,10.7,3.1,16,0
			c2.6-1.5,4-3.1,4-4.6C25.3,13.7,24,12.2,21.4,10.7z"/>
	</g>
	<g>
		<defs>
			<path id="SVGID_2_" d="M21.4,10.7c-5.3-3.1-10.7-3.1-16,0l0,0c-2.6,1.5-4,3.1-4,4.6c0,1.6,1.3,3.1,4,4.6c5.3,3.1,10.7,3.1,16,0
				c2.6-1.5,4-3.1,4-4.6C25.3,13.7,24,12.2,21.4,10.7z"/>
		</defs>
		<clipPath id="SVGID_3_">
			<use xlink:href="#SVGID_2_"  style="overflow:visible;"/>
		</clipPath>
		<g class="st37">
			<path class="st0" d="M25.7,17.7L25.7,17.7l1.5-0.9c0.8-0.5,1.4-1.5,1.5-2.9c1.6-2,1.8-4.8,0.5-7.2c-1.4-2.5-4.2-3.6-6.8-3.1
				c-1-0.4-2-0.3-2.7,0.1l-1.5,0.9c0.1-0.1,0.2-0.1,0.4-0.2c-0.1,0-0.3,0.1-0.4,0.2c-1,0.6-1.6,1.7-1.6,3.4c0,3.4,2.4,7.5,5.3,9.2
				C23.4,18.2,24.7,18.3,25.7,17.7z"/>
			<path class="st38" d="M25.4,17.7L25.4,17.7l1.5-0.9c0.8-0.5,1.4-1.5,1.5-2.9c1.6-2,1.8-4.8,0.5-7.2c-1.4-2.5-4.2-3.6-6.8-3.1
				c-1-0.4-2-0.3-2.7,0.1l-1.5,0.9c0.1-0.1,0.2-0.1,0.4-0.2c-0.1,0-0.3,0.1-0.4,0.2c-1,0.6-1.6,1.7-1.6,3.4c0,3.4,2.4,7.5,5.3,9.2
				C23.1,18.2,24.4,18.3,25.4,17.7z"/>
			<path class="st39" d="M25.1,17.7L25.1,17.7l1.5-0.9c0.8-0.5,1.4-1.5,1.5-2.9c1.6-2,1.8-4.8,0.5-7.2c-1.4-2.5-4.2-3.6-6.8-3.1
				c-1-0.4-2-0.3-2.7,0.1l-1.5,0.9c0.1-0.1,0.2-0.1,0.4-0.2c-0.1,0-0.3,0.1-0.4,0.2c-1,0.6-1.6,1.7-1.6,3.4c0,3.4,2.4,7.5,5.3,9.2
				C22.8,18.2,24.1,18.3,25.1,17.7z"/>
			<path class="st40" d="M24.8,17.7L24.8,17.7l1.5-0.9c0.8-0.5,1.4-1.5,1.5-2.9c1.6-2,1.8-4.8,0.5-7.2c-1.4-2.5-4.2-3.6-6.8-3.1
				c-1-0.4-2-0.3-2.7,0.1l-1.5,0.9c0.1-0.1,0.2-0.1,0.4-0.2c-0.1,0-0.3,0.1-0.4,0.2c-1,0.6-1.6,1.7-1.6,3.4c0,3.4,2.4,7.5,5.3,9.2
				C22.5,18.2,23.8,18.3,24.8,17.7z"/>
			<path class="st41" d="M24.5,17.7L24.5,17.7l1.5-0.9c0.8-0.5,1.4-1.5,1.5-2.9c1.6-2,1.8-4.8,0.5-7.2c-1.4-2.5-4.2-3.6-6.8-3.1
				c-1-0.4-2-0.3-2.7,0.1l-1.5,0.9c0.1-0.1,0.2-0.1,0.4-0.2c-0.1,0-0.3,0.1-0.4,0.2c-1,0.6-1.6,1.7-1.6,3.4c0,3.4,2.4,7.5,5.3,9.2
				C22.2,18.2,23.5,18.3,24.5,17.7z"/>
			<path class="st42" d="M24.2,17.7L24.2,17.7l1.5-0.9c0.8-0.5,1.4-1.5,1.5-2.9c1.6-2,1.8-4.8,0.5-7.2c-1.4-2.5-4.2-3.6-6.8-3.1
				c-1-0.4-2-0.3-2.7,0.1l-1.5,0.9c0.1-0.1,0.2-0.1,0.4-0.2c-0.1,0-0.3,0.1-0.4,0.2c-1,0.6-1.6,1.7-1.6,3.4c0,3.4,2.4,7.5,5.3,9.2
				C21.9,18.2,23.2,18.3,24.2,17.7z"/>
			<path class="st43" d="M23.9,17.7L23.9,17.7l1.5-0.9c0.8-0.5,1.4-1.5,1.5-2.9c1.6-2,1.8-4.8,0.5-7.2c-1.4-2.5-4.2-3.6-6.8-3.1
				c-1-0.4-2-0.3-2.7,0.1l-1.5,0.9c0.1-0.1,0.2-0.1,0.4-0.2c-0.1,0-0.3,0.1-0.4,0.2c-1,0.6-1.6,1.7-1.6,3.4c0,3.4,2.4,7.5,5.3,9.2
				C21.6,18.2,22.9,18.3,23.9,17.7z"/>
			<path class="st44" d="M23.6,17.7L23.6,17.7l1.5-0.9c0.8-0.5,1.4-1.5,1.5-2.9c1.6-2,1.8-4.8,0.5-7.2c-1.4-2.5-4.2-3.6-6.8-3.1
				c-1-0.4-2-0.3-2.7,0.1L16,4.7c0.1-0.1,0.2-0.1,0.4-0.2c-0.1,0-0.3,0.1-0.4,0.2c-1,0.6-1.6,1.7-1.6,3.4c0,3.4,2.4,7.5,5.3,9.2
				C21.3,18.2,22.6,18.3,23.6,17.7z"/>
			<path class="st45" d="M23.3,17.7L23.3,17.7l1.5-0.9c0.8-0.5,1.4-1.5,1.5-2.9c1.6-2,1.8-4.8,0.5-7.2c-1.4-2.5-4.2-3.6-6.8-3.1
				c-1-0.4-2-0.3-2.7,0.1l-1.5,0.9c0.1-0.1,0.2-0.1,0.4-0.2c-0.1,0-0.3,0.1-0.4,0.2c-1,0.6-1.6,1.7-1.6,3.4c0,3.4,2.4,7.5,5.3,9.2
				C21,18.2,22.3,18.3,23.3,17.7z"/>
			<path class="st46" d="M23,17.7L23,17.7l1.5-0.9c0.8-0.5,1.4-1.5,1.5-2.9c1.6-2,1.8-4.8,0.5-7.2c-1.4-2.5-4.2-3.6-6.8-3.1
				c-1-0.4-2-0.3-2.7,0.1l-1.5,0.9c0.1-0.1,0.2-0.1,0.4-0.2c-0.1,0-0.3,0.1-0.4,0.2c-1,0.6-1.6,1.7-1.6,3.4c0,3.4,2.4,7.5,5.3,9.2
				C20.7,18.2,22,18.3,23,17.7z"/>
			<path class="st47" d="M22.6,17.7L22.6,17.7l1.5-0.9c0.8-0.5,1.4-1.5,1.5-2.9c1.6-2,1.8-4.8,0.5-7.2c-1.4-2.5-4.2-3.6-6.8-3.1
				c-1-0.4-2-0.3-2.7,0.1l-1.5,0.9c0.1-0.1,0.2-0.1,0.4-0.2c-0.1,0-0.3,0.1-0.4,0.2c-1,0.6-1.6,1.7-1.6,3.4c0,3.4,2.4,7.5,5.3,9.2
				C20.4,18.2,21.7,18.3,22.6,17.7z"/>
			<path class="st48" d="M22.3,17.7L22.3,17.7l1.5-0.9c0.8-0.5,1.4-1.5,1.5-2.9c1.6-2,1.8-4.8,0.5-7.2c-1.4-2.5-4.2-3.6-6.8-3.1
				c-1-0.4-2-0.3-2.7,0.1l-1.5,0.9c0.1-0.1,0.2-0.1,0.4-0.2c-0.1,0-0.3,0.1-0.4,0.2c-1,0.6-1.6,1.7-1.6,3.4c0,3.4,2.4,7.5,5.3,9.2
				C20.1,18.2,21.4,18.3,22.3,17.7z"/>
			<path class="st49" d="M22,17.7L22,17.7l1.5-0.9c0.8-0.5,1.4-1.5,1.5-2.9c1.6-2,1.8-4.8,0.5-7.2c-1.4-2.5-4.2-3.6-6.8-3.1
				c-1-0.4-2-0.3-2.7,0.1l-1.5,0.9c0.1-0.1,0.2-0.1,0.4-0.2c-0.1,0-0.3,0.1-0.4,0.2c-1,0.6-1.6,1.7-1.6,3.4c0,3.4,2.4,7.5,5.3,9.2
				C19.8,18.2,21.1,18.3,22,17.7z"/>
			<path class="st50" d="M21.7,17.7L21.7,17.7l1.5-0.9c0.8-0.5,1.4-1.5,1.5-2.9c1.6-2,1.8-4.8,0.5-7.2c-1.4-2.5-4.2-3.6-6.8-3.1
				c-1-0.4-2-0.3-2.7,0.1l-1.5,0.9c0.1-0.1,0.2-0.1,0.4-0.2c-0.1,0-0.3,0.1-0.4,0.2c-1,0.6-1.6,1.7-1.6,3.4c0,3.4,2.4,7.5,5.3,9.2
				C19.5,18.2,20.8,18.3,21.7,17.7z"/>
			<path class="st51" d="M21.4,17.7L21.4,17.7l1.5-0.9c0.8-0.5,1.4-1.5,1.5-2.9c1.6-2,1.8-4.8,0.5-7.2c-1.4-2.5-4.2-3.6-6.8-3.1
				c-1-0.4-2-0.3-2.7,0.1l-1.5,0.9c0.1-0.1,0.2-0.1,0.4-0.2c-0.1,0-0.3,0.1-0.4,0.2c-1,0.6-1.6,1.7-1.6,3.4c0,3.4,2.4,7.5,5.3,9.2
				C19.2,18.2,20.5,18.3,21.4,17.7z"/>
			<path class="st52" d="M21.1,17.7L21.1,17.7l1.5-0.9c0.8-0.5,1.4-1.5,1.5-2.9c1.6-2,1.8-4.8,0.5-7.2c-1.4-2.5-4.2-3.6-6.8-3.1
				c-1-0.4-2-0.3-2.7,0.1l-1.5,0.9c0.1-0.1,0.2-0.1,0.4-0.2c-0.1,0-0.3,0.1-0.4,0.2c-1,0.6-1.6,1.7-1.6,3.4c0,3.4,2.4,7.5,5.3,9.2
				C18.8,18.2,20.2,18.3,21.1,17.7z"/>
			<path class="st53" d="M20.8,17.7L20.8,17.7l1.5-0.9c0.8-0.5,1.4-1.5,1.5-2.9c1.6-2,1.8-4.8,0.5-7.2c-1.4-2.5-4.2-3.6-6.8-3.1
				c-1-0.4-2-0.3-2.7,0.1l-1.5,0.9c0.1-0.1,0.2-0.1,0.4-0.2c-0.1,0-0.3,0.1-0.4,0.2c-1,0.6-1.6,1.7-1.6,3.4c0,3.4,2.4,7.5,5.3,9.2
				C18.5,18.2,19.9,18.3,20.8,17.7z"/>
			<path class="st54" d="M20.5,17.7L20.5,17.7l1.5-0.9c0.8-0.5,1.4-1.5,1.5-2.9c1.6-2,1.8-4.8,0.5-7.2c-1.4-2.5-4.2-3.6-6.8-3.1
				c-1-0.4-2-0.3-2.7,0.1L13,4.7c0.1-0.1,0.2-0.1,0.4-0.2c-0.1,0-0.3,0.1-0.4,0.2c-1,0.6-1.6,1.7-1.6,3.4c0,3.4,2.4,7.5,5.3,9.2
				C18.2,18.2,19.6,18.3,20.5,17.7z"/>
			<path class="st55" d="M20.2,17.7L20.2,17.7l1.5-0.9c0.8-0.5,1.4-1.5,1.5-2.9c1.6-2,1.8-4.8,0.5-7.2c-1.4-2.5-4.2-3.6-6.8-3.1
				c-1-0.4-2-0.3-2.7,0.1l-1.5,0.9c0.1-0.1,0.2-0.1,0.4-0.2c-0.1,0-0.3,0.1-0.4,0.2c-1,0.6-1.6,1.7-1.6,3.4c0,3.4,2.4,7.5,5.3,9.2
				C17.9,18.2,19.3,18.3,20.2,17.7z"/>
			<path class="st56" d="M19.9,17.7L19.9,17.7l1.5-0.9c0.8-0.5,1.4-1.5,1.5-2.9c1.6-2,1.8-4.8,0.5-7.2c-1.4-2.5-4.2-3.6-6.8-3.1
				c-1-0.4-2-0.3-2.7,0.1l-1.5,0.9c0.1-0.1,0.2-0.1,0.4-0.2c-0.1,0-0.3,0.1-0.4,0.2c-1,0.6-1.6,1.7-1.6,3.4c0,3.4,2.4,7.5,5.3,9.2
				C17.6,18.2,19,18.3,19.9,17.7z"/>
			<path class="st57" d="M19.6,17.7L19.6,17.7l1.5-0.9c0.8-0.5,1.4-1.5,1.5-2.9c1.6-2,1.8-4.8,0.5-7.2c-1.4-2.5-4.2-3.6-6.8-3.1
				c-1-0.4-2-0.3-2.7,0.1l-1.5,0.9c0.1-0.1,0.2-0.1,0.4-0.2c-0.1,0-0.3,0.1-0.4,0.2c-1,0.6-1.6,1.7-1.6,3.4c0,3.4,2.4,7.5,5.3,9.2
				C17.3,18.2,18.7,18.3,19.6,17.7z"/>
			<path class="st58" d="M19.3,17.7L19.3,17.7l1.5-0.9c0.8-0.5,1.4-1.5,1.5-2.9c1.6-2,1.8-4.8,0.5-7.2c-1.4-2.5-4.2-3.6-6.8-3.1
				c-1-0.4-2-0.3-2.7,0.1l-1.5,0.9c0.1-0.1,0.2-0.1,0.4-0.2c-0.1,0-0.3,0.1-0.4,0.2c-1,0.6-1.6,1.7-1.6,3.4c0,3.4,2.4,7.5,5.3,9.2
				C17,18.2,18.4,18.3,19.3,17.7z"/>
			<path class="st59" d="M19,17.7L19,17.7l1.5-0.9c0.8-0.5,1.4-1.5,1.5-2.9c1.6-2,1.8-4.8,0.5-7.2c-1.4-2.5-4.2-3.6-6.8-3.1
				c-1-0.4-2-0.3-2.7,0.1l-1.5,0.9c0.1-0.1,0.2-0.1,0.4-0.2c-0.1,0-0.3,0.1-0.4,0.2c-1,0.6-1.6,1.7-1.6,3.4c0,3.4,2.4,7.5,5.3,9.2
				C16.7,18.2,18.1,18.3,19,17.7z"/>
			<path class="st60" d="M18.7,17.7L18.7,17.7l1.5-0.9c0.8-0.5,1.4-1.5,1.5-2.9c1.6-2,1.8-4.8,0.5-7.2c-1.4-2.5-4.2-3.6-6.8-3.1
				c-1-0.4-2-0.3-2.7,0.1l-1.5,0.9c0.1-0.1,0.2-0.1,0.4-0.2c-0.1,0-0.3,0.1-0.4,0.2c-1,0.6-1.6,1.7-1.6,3.4c0,3.4,2.4,7.5,5.3,9.2
				C16.4,18.2,17.8,18.3,18.7,17.7z"/>
			<path class="st61" d="M18.4,17.7L18.4,17.7l1.5-0.9c0.8-0.5,1.4-1.5,1.5-2.9c1.6-2,1.8-4.8,0.5-7.2c-1.4-2.5-4.2-3.6-6.8-3.1
				c-1-0.4-2-0.3-2.7,0.1l-1.5,0.9c0.1-0.1,0.2-0.1,0.4-0.2c-0.1,0-0.3,0.1-0.4,0.2c-1,0.6-1.6,1.7-1.6,3.4c0,3.4,2.4,7.5,5.3,9.2
				C16.1,18.2,17.5,18.3,18.4,17.7z"/>
			<path class="st62" d="M18.1,17.7L18.1,17.7l1.5-0.9c0.8-0.5,1.4-1.5,1.5-2.9c1.6-2,1.8-4.8,0.5-7.2c-1.4-2.5-4.2-3.6-6.8-3.1
				c-1-0.4-2-0.3-2.7,0.1l-1.5,0.9c0.1-0.1,0.2-0.1,0.4-0.2c-0.1,0-0.3,0.1-0.4,0.2C9.6,5.2,9,6.4,9,8.1c0,3.4,2.4,7.5,5.3,9.2
				C15.8,18.2,17.2,18.3,18.1,17.7z"/>
			<path class="st63" d="M17.8,17.7L17.8,17.7l1.5-0.9c0.8-0.5,1.4-1.5,1.5-2.9c1.6-2,1.8-4.8,0.5-7.2c-1.4-2.5-4.2-3.6-6.8-3.1
				c-1-0.4-2-0.3-2.7,0.1l-1.5,0.9c0.1-0.1,0.2-0.1,0.4-0.2c-0.1,0-0.3,0.1-0.4,0.2c-1,0.6-1.6,1.7-1.6,3.4c0,3.4,2.4,7.5,5.3,9.2
				C15.5,18.2,16.9,18.3,17.8,17.7z"/>
			<path class="st64" d="M17.5,17.7L17.5,17.7l1.5-0.9c0.8-0.5,1.4-1.5,1.5-2.9c1.6-2,1.8-4.8,0.5-7.2c-1.4-2.5-4.2-3.6-6.8-3.1
				c-1-0.4-2-0.3-2.7,0.1L10,4.7c0.1-0.1,0.2-0.1,0.4-0.2c-0.1,0-0.3,0.1-0.4,0.2C9,5.2,8.4,6.4,8.4,8.1c0,3.4,2.4,7.5,5.3,9.2
				C15.2,18.2,16.6,18.3,17.5,17.7z"/>
			<path class="st65" d="M17.2,17.7L17.2,17.7l1.5-0.9c0.8-0.5,1.4-1.5,1.5-2.9c1.6-2,1.8-4.8,0.5-7.2c-1.4-2.5-4.2-3.6-6.8-3.1
				c-1-0.4-2-0.3-2.7,0.1L9.7,4.7c0.1-0.1,0.2-0.1,0.4-0.2c-0.1,0-0.3,0.1-0.4,0.2c-1,0.6-1.6,1.7-1.6,3.4c0,3.4,2.4,7.5,5.3,9.2
				C14.9,18.2,16.2,18.3,17.2,17.7z"/>
			<path class="st66" d="M16.9,17.7L16.9,17.7l1.5-0.9c0.8-0.5,1.4-1.5,1.5-2.9c1.6-2,1.8-4.8,0.5-7.2c-1.4-2.5-4.2-3.6-6.8-3.1
				c-1-0.4-2-0.3-2.7,0.1L9.4,4.7c0.1-0.1,0.2-0.1,0.4-0.2c-0.1,0-0.3,0.1-0.4,0.2c-1,0.6-1.6,1.7-1.6,3.4c0,3.4,2.4,7.5,5.3,9.2
				C14.6,18.2,15.9,18.3,16.9,17.7z"/>
			<path class="st67" d="M16.6,17.7L16.6,17.7l1.5-0.9c0.8-0.5,1.4-1.5,1.5-2.9c1.6-2,1.8-4.8,0.5-7.2c-1.4-2.5-4.2-3.6-6.8-3.1
				c-1-0.4-2-0.3-2.7,0.1L9.1,4.7c0.1-0.1,0.2-0.1,0.4-0.2c-0.1,0-0.3,0.1-0.4,0.2c-1,0.6-1.6,1.7-1.6,3.4c0,3.4,2.4,7.5,5.3,9.2
				C14.3,18.2,15.6,18.3,16.6,17.7z"/>
			<path class="st68" d="M16.3,17.7L16.3,17.7l1.5-0.9c0.8-0.5,1.4-1.5,1.5-2.9c1.6-2,1.8-4.8,0.5-7.2c-1.4-2.5-4.2-3.6-6.8-3.1
				c-1-0.4-2-0.3-2.7,0.1L8.8,4.7C8.9,4.6,9,4.6,9.2,4.5C9,4.6,8.9,4.6,8.8,4.7c-1,0.6-1.6,1.7-1.6,3.4c0,3.4,2.4,7.5,5.3,9.2
				C14,18.2,15.3,18.3,16.3,17.7z"/>
			<path class="st69" d="M16,17.7L16,17.7l1.5-0.9c0.8-0.5,1.4-1.5,1.5-2.9c1.6-2,1.8-4.8,0.5-7.2c-1.4-2.5-4.2-3.6-6.8-3.1
				c-1-0.4-2-0.3-2.7,0.1L8.5,4.7c0.1-0.1,0.2-0.1,0.4-0.2c-0.1,0-0.3,0.1-0.4,0.2c-1,0.6-1.6,1.7-1.6,3.4c0,3.4,2.4,7.5,5.3,9.2
				C13.7,18.2,15,18.3,16,17.7z"/>
			<path class="st70" d="M15.7,17.7L15.7,17.7l1.5-0.9c0.8-0.5,1.4-1.5,1.5-2.9c1.6-2,1.8-4.8,0.5-7.2c-1.4-2.5-4.2-3.6-6.8-3.1
				c-1-0.4-2-0.3-2.7,0.1L8.2,4.7c0.1-0.1,0.2-0.1,0.4-0.2c-0.1,0-0.3,0.1-0.4,0.2c-1,0.6-1.6,1.7-1.6,3.4c0,3.4,2.4,7.5,5.3,9.2
				C13.4,18.2,14.7,18.3,15.7,17.7z"/>
		</g>
	</g>
	<g>
		
			<linearGradient id="SVGID_4_" gradientUnits="userSpaceOnUse" x1="1327.9609" y1="-2334.8445" x2="1340.8723" y2="-2334.8445" gradientTransform="matrix(-0.5 -0.866 -0.866 0.5 -1339.9482 2332.3655)">
			<stop  offset="0" style="stop-color:#8AB4D1"/>
			<stop  offset="0.1436" style="stop-color:#A1C4DB"/>
			<stop  offset="0.3676" style="stop-color:#BFDAE7"/>
			<stop  offset="0.5882" style="stop-color:#D5E9F0"/>
			<stop  offset="0.8017" style="stop-color:#E2F2F5"/>
			<stop  offset="1" style="stop-color:#E6F5F7"/>
		</linearGradient>
		<path class="st71" d="M10.4,4.4c3.1-1.8,7-0.7,8.8,2.4s0.7,7-2.4,8.8h0c-1.8,1-4.7-0.6-6.5-3.7C8.6,8.8,8.6,5.5,10.4,4.4L10.4,4.4
			L10.4,4.4z"/>
		<g>
			<g>
				<g>
					<g>
						
							<linearGradient id="SVGID_5_" gradientUnits="userSpaceOnUse" x1="-122.9895" y1="-22.6956" x2="-115.4758" y2="-9.6815" gradientTransform="matrix(1 0 0 1 133.8116 25.8587)">
							<stop  offset="0" style="stop-color:#F0F7F7"/>
							<stop  offset="0.2556" style="stop-color:#ECF4F6"/>
							<stop  offset="0.5308" style="stop-color:#DFEDF3"/>
							<stop  offset="0.814" style="stop-color:#C9E1EF"/>
							<stop  offset="1" style="stop-color:#B7D6EB"/>
						</linearGradient>
						<path class="st72" d="M13.5,4.2C12,3.3,10.7,3.3,9.7,3.8L8.2,4.7c1-0.6,2.3-0.5,3.8,0.4c2.9,1.7,5.3,5.8,5.3,9.2
							c0,1.7-0.6,2.9-1.6,3.4l1.5-0.9c1-0.6,1.6-1.7,1.6-3.4C18.8,10,16.4,5.9,13.5,4.2z"/>
						<g>
							<g>
								<path class="st73" d="M6.6,8.1c0-1.7,0.6-2.9,1.6-3.4c1-0.6,2.3-0.5,3.8,0.4c2.9,1.7,5.3,5.8,5.3,9.2c0,1.7-0.6,2.9-1.6,3.4
									c-1,0.6-2.3,0.5-3.8-0.4C9,15.6,6.6,11.5,6.6,8.1z"/>
							</g>
						</g>
						<g>
							<g>
								<path class="st74" d="M7.4,8.6c0-2.9,2-4,4.5-2.6c2.5,1.4,4.5,4.9,4.5,7.8c0,2.9-2,4-4.5,2.6C9.4,15,7.4,11.5,7.4,8.6z"/>
							</g>
						</g>
						
							<radialGradient id="SVGID_6_" cx="-152.5659" cy="31.1661" r="10.2747" gradientTransform="matrix(1 0 0 1 166.985 -16.0138)" gradientUnits="userSpaceOnUse">
							<stop  offset="0" style="stop-color:#FFE32E"/>
							<stop  offset="0.2302" style="stop-color:#FFDD29"/>
							<stop  offset="0.5442" style="stop-color:#FFCB1C"/>
							<stop  offset="0.905" style="stop-color:#FFAF07"/>
							<stop  offset="1" style="stop-color:#FFA600"/>
						</radialGradient>
						<path class="st75" d="M7.7,8.7C7.7,6,9.6,5,11.9,6.3c2.3,1.4,4.2,4.6,4.2,7.3c0,2.7-1.9,3.8-4.2,2.4
							C9.6,14.7,7.7,11.4,7.7,8.7z"/>
					</g>
				</g>
			</g>
			
				<radialGradient id="SVGID_7_" cx="-5797.8442" cy="489.174" r="2.8867" gradientTransform="matrix(0.5 0.866 0.866 -0.5 2488.627 5276.7725)" gradientUnits="userSpaceOnUse">
				<stop  offset="0" style="stop-color:#FFC100"/>
				<stop  offset="0.1622" style="stop-color:#FEBA00"/>
				<stop  offset="0.4026" style="stop-color:#FAA600"/>
				<stop  offset="0.6915" style="stop-color:#F38500"/>
				<stop  offset="1" style="stop-color:#EB5A00"/>
			</radialGradient>
			<path class="st76" d="M14.5,12.5c-1.1,0.6-2.5,0.3-3.1-0.8c-0.6-1.1-0.3-2.5,0.8-3.1l0,0c0.6-0.4,1.6,0.2,2.3,1.3
				C15.1,11,15.1,12.2,14.5,12.5L14.5,12.5L14.5,12.5z"/>
		</g>
		<g>
			<path class="st77" d="M11.9,6.3C9.6,5,7.7,6.1,7.7,8.8c0,2.7,1.9,5.9,4.2,7.3c2.3,1.3,4.2,0.2,4.2-2.4
				C16.2,10.9,14.3,7.7,11.9,6.3z M8.4,9.1c0-0.7,0.2-1.3,0.4-1.7c-0.1,1.3-0.1,2.6,0,4C8.5,10.6,8.4,9.8,8.4,9.1z M8.8,11.7
				c0,0.3,0,0.6,0.1,0.9c-0.2-0.3-0.3-0.6-0.4-0.9c0-0.5-0.1-0.9-0.1-1.3C8.5,10.8,8.6,11.2,8.8,11.7z M8.4,7.9c0-0.4,0-0.7,0.1-1.1
				c0.1-0.2,0.3-0.3,0.4-0.4c0,0.2,0,0.5-0.1,0.7C8.6,7.2,8.5,7.5,8.4,7.9z M8.9,7.1C9.1,7,9.2,6.9,9.4,6.8c-0.1,1.8-0.1,3.8,0,5.8
				C9.2,12.3,9.1,12,9,11.7C8.9,10.1,8.8,8.6,8.9,7.1z M10,6.5c0.1,0,0.3,0,0.4,0c-0.1,2.4-0.1,4.9,0,7.5c-0.1-0.1-0.3-0.3-0.4-0.5
				C9.9,11.1,9.9,8.8,10,6.5z M9.9,13.4c-0.1-0.2-0.3-0.4-0.4-0.6c-0.2-2.1-0.2-4.1,0-6.1c0.1-0.1,0.3-0.1,0.4-0.1
				C9.7,8.7,9.8,11,9.9,13.4z M10.5,6.5c0.1,0,0.2,0,0.4,0.1c-0.1,2.6-0.1,5.2,0,7.9c-0.1-0.1-0.2-0.2-0.4-0.4
				C10.4,11.5,10.4,9,10.5,6.5z M11,6.6c0.1,0,0.2,0.1,0.4,0.1c-0.1,2.7-0.1,5.4,0,8.2c-0.1-0.1-0.2-0.2-0.4-0.3
				C10.9,11.9,10.9,9.2,11,6.6z M11.5,6.8c0.1,0.1,0.2,0.1,0.4,0.2c0,2.8,0,5.5,0,8.3c-0.1-0.1-0.2-0.2-0.4-0.2
				C11.5,12.2,11.5,9.5,11.5,6.8z M12,7c0.1,0.1,0.2,0.2,0.4,0.2c0,2.8,0,5.5,0,8.2c-0.1-0.1-0.2-0.1-0.4-0.2C12,12.5,12,9.8,12,7z
				 M12.5,7.3c0.1,0.1,0.2,0.2,0.4,0.3c0.1,2.7,0.1,5.4,0,8c-0.1,0-0.2-0.1-0.4-0.1C12.5,12.8,12.5,10.1,12.5,7.3z M13,7.8
				c0.1,0.1,0.3,0.2,0.4,0.4c0.1,2.6,0.1,5.2,0,7.6c-0.1,0-0.2,0-0.4-0.1C13.1,13.1,13.1,10.5,13,7.8z M13.5,8.3
				c0.1,0.1,0.3,0.3,0.4,0.5c0.2,2.4,0.1,4.8,0,7c-0.1,0-0.2,0-0.4,0C13.6,13.3,13.6,10.8,13.5,8.3z M14,8.9
				c0.1,0.2,0.3,0.4,0.4,0.6c0.1,2.1,0.1,4.1,0,6.1c-0.1,0.1-0.3,0.1-0.4,0.1C14.1,13.5,14.1,11.3,14,8.9z M14,8.7
				c0-0.2,0-0.3,0-0.5c0.1,0.2,0.3,0.3,0.4,0.5c0,0.2,0,0.4,0,0.5C14.2,9.1,14.1,8.9,14,8.7z M13.8,8.5c-0.1-0.2-0.2-0.3-0.4-0.4
				c0-0.1,0-0.3,0-0.4c0.1,0.1,0.3,0.3,0.4,0.4C13.8,8.2,13.8,8.4,13.8,8.5z M13.3,8c-0.1-0.1-0.2-0.2-0.4-0.4c0-0.1,0-0.3,0-0.4
				c0.1,0.1,0.2,0.2,0.4,0.3C13.3,7.7,13.3,7.8,13.3,8z M12.8,7.5c-0.1-0.1-0.2-0.2-0.4-0.3c0-0.1,0-0.2,0-0.4
				c0.1,0.1,0.2,0.2,0.4,0.3C12.8,7.2,12.8,7.4,12.8,7.5z M12.4,7.1C12.2,7,12.1,6.9,12,6.9c0-0.1,0-0.2,0-0.4
				c0.1,0.1,0.2,0.1,0.4,0.2C12.4,6.9,12.4,7,12.4,7.1z M11.9,6.8c-0.1-0.1-0.2-0.1-0.4-0.2c0-0.1,0-0.2,0-0.4
				c0.1,0.1,0.2,0.1,0.4,0.2C11.9,6.6,11.9,6.7,11.9,6.8z M11.4,6.6c-0.1-0.1-0.2-0.1-0.4-0.1c0-0.1,0-0.2,0-0.4
				c0.1,0,0.2,0.1,0.4,0.1C11.4,6.3,11.4,6.5,11.4,6.6z M10.9,6.4c-0.1,0-0.2-0.1-0.4-0.1c0-0.1,0-0.3,0-0.4c0.1,0,0.2,0,0.4,0.1
				C10.9,6.2,10.9,6.3,10.9,6.4z M10.4,6.3c-0.1,0-0.3,0-0.4,0c0-0.1,0-0.3,0-0.4c0.1,0,0.2,0,0.4,0C10.4,6.1,10.4,6.2,10.4,6.3z
				 M9.9,6.4c-0.1,0-0.3,0.1-0.4,0.1c0-0.2,0-0.3,0-0.5c0.1,0,0.3-0.1,0.4-0.1C9.9,6.1,9.9,6.2,9.9,6.4z M9.9,13.6
				c0,0.2,0,0.4,0,0.6c-0.1-0.2-0.3-0.3-0.4-0.5c0-0.2,0-0.4-0.1-0.7C9.7,13.2,9.8,13.4,9.9,13.6z M10.1,13.7
				c0.1,0.2,0.2,0.3,0.4,0.4c0,0.2,0,0.4,0,0.6c-0.1-0.1-0.2-0.3-0.4-0.4C10.1,14.1,10.1,13.9,10.1,13.7z M10.6,14.3
				c0.1,0.1,0.2,0.2,0.4,0.4c0,0.2,0,0.3,0,0.5c-0.1-0.1-0.2-0.2-0.4-0.3C10.6,14.7,10.6,14.5,10.6,14.3z M11,14.8
				c0.1,0.1,0.2,0.2,0.4,0.3c0,0.2,0,0.3,0,0.5c-0.1-0.1-0.2-0.2-0.4-0.3C11.1,15.1,11.1,14.9,11,14.8z M11.5,15.2
				c0.1,0.1,0.2,0.2,0.4,0.2c0,0.2,0,0.3,0,0.5c-0.1-0.1-0.2-0.1-0.3-0.2C11.5,15.5,11.5,15.3,11.5,15.2z M12,15.5
				c0.1,0.1,0.2,0.1,0.4,0.2c0,0.2,0,0.3,0,0.5c-0.1-0.1-0.2-0.1-0.3-0.2C12,15.8,12,15.6,12,15.5z M12.5,15.7
				c0.1,0.1,0.2,0.1,0.4,0.1c0,0.2,0,0.3,0,0.5c-0.1,0-0.2-0.1-0.4-0.1C12.5,16,12.5,15.8,12.5,15.7z M13,15.8
				c0.1,0,0.2,0.1,0.4,0.1c0,0.2,0,0.3,0,0.5c-0.1,0-0.2,0-0.4-0.1C12.9,16.2,13,16,13,15.8z M13.5,15.9c0.1,0,0.3,0,0.4,0
				c0,0.2,0,0.4,0,0.5c-0.1,0-0.2,0-0.4,0C13.4,16.3,13.4,16.1,13.5,15.9z M14,15.9c0.1,0,0.3-0.1,0.4-0.1c0,0.2,0,0.4-0.1,0.6
				c-0.1,0-0.3,0-0.4,0.1C13.9,16.3,13.9,16.1,14,15.9z M14.5,9.7c0.2,0.3,0.3,0.6,0.4,0.8c0.1,1.6,0.1,3.1,0,4.6
				c-0.1,0.1-0.3,0.3-0.4,0.4C14.7,13.7,14.7,11.7,14.5,9.7z M15.1,11c0.3,0.8,0.4,1.5,0.4,2.2c0,0.7-0.2,1.3-0.5,1.8
				C15.2,13.7,15.2,12.3,15.1,11z M15.5,14.4c0,0.4,0,0.8-0.1,1.2c-0.1,0.2-0.3,0.3-0.4,0.4c0-0.3,0.1-0.5,0.1-0.8
				C15.2,15,15.4,14.8,15.5,14.4z M15.1,10.6c0-0.2,0-0.5-0.1-0.7c0.2,0.3,0.3,0.6,0.4,0.9c0,0.4,0.1,0.8,0.1,1.2
				C15.4,11.5,15.3,11.1,15.1,10.6z M14.9,9.6c0,0.2,0,0.5,0.1,0.7c-0.1-0.3-0.3-0.5-0.4-0.8c0-0.2,0-0.4,0-0.6
				C14.6,9.2,14.7,9.4,14.9,9.6z M9.4,6c0,0.2,0,0.3,0,0.5C9.2,6.6,9.1,6.7,9,6.8C9,6.6,9,6.4,9,6.2C9.1,6.1,9.3,6.1,9.4,6z M8.3,7
				c-0.1,1.4-0.1,2.8,0,4.2C8,10.4,7.9,9.6,7.9,8.8C7.9,8.1,8,7.5,8.3,7z M9,12.8C9,12.6,9,12.3,9,12c0.1,0.3,0.3,0.5,0.4,0.8
				c0,0.2,0,0.5,0.1,0.7C9.3,13.3,9.2,13.1,9,12.8z M14.4,16.4c0-0.2,0-0.4,0.1-0.6c0.2-0.1,0.3-0.2,0.4-0.3c0,0.3,0,0.5-0.1,0.7
				C14.7,16.3,14.6,16.3,14.4,16.4z M15.6,15.4c0.1-1.3,0.1-2.8,0-4.2c0.3,0.8,0.4,1.6,0.4,2.3C16,14.3,15.9,15,15.6,15.4z"/>
			<path class="st77" d="M11.9,16c-2.3-1.3-4.2-4.6-4.2-7.3c0-2.7,1.9-3.7,4.2-2.4c2.3,1.3,4.2,4.6,4.2,7.3
				C16.1,16.3,14.3,17.4,11.9,16z M11.5,15.3c0,0.1,0,0.2,0,0.3l0,0l0,0c0.1,0.1,0.2,0.2,0.3,0.2l0,0l0-0.5l0,0
				c-0.1-0.1-0.2-0.1-0.4-0.2l0,0L11.5,15.3z M12.4,15.6c-0.1-0.1-0.2-0.1-0.4-0.2l0,0l0,0.5l0,0c0.1,0.1,0.2,0.1,0.3,0.2l0,0l0,0
				c0-0.1,0-0.2,0-0.3L12.4,15.6L12.4,15.6z M12.8,15.8c-0.1,0-0.2-0.1-0.4-0.1l0,0l0,0.2c0,0.1,0,0.2,0,0.3l0,0l0,0
				c0.1,0,0.2,0.1,0.4,0.1l0,0l0,0C12.8,16.1,12.9,16,12.8,15.8L12.8,15.8L12.8,15.8z M11,14.8c0,0.2,0,0.3,0,0.5l0,0l0,0
				c0.1,0.1,0.2,0.2,0.4,0.3l0,0l0,0c0-0.1,0-0.2,0-0.3l0-0.2l0,0C11.3,15,11.2,14.9,11,14.8L11,14.8L11,14.8z M10.5,14.3
				c0,0.2,0,0.4,0,0.5l0,0l0,0c0.1,0.1,0.2,0.2,0.4,0.3l0,0l0,0c0-0.2,0-0.3,0-0.5l0,0l0,0C10.8,14.5,10.7,14.4,10.5,14.3L10.5,14.3
				L10.5,14.3z M13.3,15.9c-0.1,0-0.2,0-0.4-0.1l0,0l0,0c0,0.2,0,0.3,0,0.5l0,0l0,0c0.1,0,0.2,0.1,0.4,0.1l0,0l0,0
				C13.3,16.3,13.3,16.1,13.3,15.9L13.3,15.9L13.3,15.9z M10,13.7c0,0.2,0,0.4,0,0.6l0,0l0,0c0.1,0.1,0.2,0.3,0.4,0.4l0,0l0,0
				c0-0.2,0-0.4,0-0.6l0,0l0,0C10.3,14,10.2,13.9,10,13.7L10,13.7L10,13.7z M13.8,15.9c-0.1,0-0.2,0-0.4,0l0,0l0,0
				c0,0.2,0,0.3,0,0.5l0,0l0,0c0.1,0,0.3,0,0.4,0h0l0,0C13.8,16.3,13.8,16.1,13.8,15.9L13.8,15.9L13.8,15.9z M14.3,15.8
				c-0.1,0.1-0.3,0.1-0.4,0.1l0,0l0,0c0,0.2,0,0.4,0,0.6l0,0l0,0c0.1,0,0.3,0,0.4-0.1l0,0l0,0C14.3,16.2,14.4,16,14.3,15.8
				L14.3,15.8L14.3,15.8z M9.5,13c0,0.2,0,0.5,0.1,0.7l0,0l0,0c0.1,0.2,0.3,0.3,0.4,0.5l0,0l0-0.1c0-0.2,0-0.4,0-0.6l0,0l0,0
				C9.8,13.4,9.7,13.2,9.5,13L9.5,13L9.5,13z M11.9,6.9c-0.1-0.1-0.2-0.1-0.4-0.2l0,0l0,0c0,2.7,0,5.5,0,8.2l0,0l0,0
				c0.1,0.1,0.2,0.2,0.4,0.2l0,0l0,0C11.9,12.5,11.9,9.7,11.9,6.9L11.9,6.9L11.9,6.9z M12,7c0,2.7,0,5.5,0,8.3l0,0l0,0
				c0.1,0.1,0.2,0.1,0.4,0.2l0,0l0,0c0-2.7,0.1-5.5,0-8.2l0,0l0,0C12.2,7.2,12.1,7.1,12,7L12,7L12,7z M12.5,7.3
				c0.1,2.7,0.1,5.5,0,8.2l0,0l0,0c0.1,0,0.2,0.1,0.4,0.1l0,0l0,0c0.1-2.6,0.1-5.3,0-8l0,0l0,0C12.7,7.5,12.6,7.4,12.5,7.3L12.5,7.3
				L12.5,7.3z M11.4,6.7c-0.1,0-0.2-0.1-0.4-0.1l0,0l0,0c-0.1,2.6-0.1,5.3,0,8l0,0l0,0c0.1,0.1,0.2,0.2,0.4,0.3l0,0l0,0
				C11.4,12.2,11.4,9.4,11.4,6.7L11.4,6.7L11.4,6.7z M13,7.7c0.1,2.7,0.1,5.4,0,7.9l0,0l0,0c0.1,0,0.3,0.1,0.4,0.1l0,0l0,0
				c0.1-2.5,0.1-5,0-7.6l0,0l0,0C13.2,8,13.1,7.9,13,7.7L13,7.7L13,7.7z M10.9,6.5c-0.1,0-0.3-0.1-0.4-0.1l0,0l0,0
				c-0.1,2.5-0.1,5,0,7.6l0,0l0,0c0.1,0.1,0.2,0.2,0.4,0.4l0,0l0,0C10.8,11.8,10.8,9.1,10.9,6.5L10.9,6.5L10.9,6.5z M9,12
				c0,0.3,0,0.5,0.1,0.8l0,0l0,0c0.1,0.2,0.3,0.4,0.4,0.7l0,0.1l0-0.1c0-0.2,0-0.5-0.1-0.7l0,0l0,0C9.3,12.5,9.1,12.3,9,12L9,12
				L9,12z M14.9,15.4c-0.1,0.1-0.3,0.2-0.4,0.3l0,0l0,0c0,0.2,0,0.4-0.1,0.6l0,0.1l0,0c0.1,0,0.3-0.1,0.4-0.2l0,0l0,0
				C14.9,15.9,14.9,15.7,14.9,15.4L14.9,15.4L14.9,15.4z M10.4,6.5c-0.1,0-0.3,0-0.4,0l0,0l0,0c-0.2,2.2-0.1,4.6,0,7l0,0l0,0
				c0.1,0.2,0.3,0.3,0.4,0.5l0,0l0,0C10.3,11.4,10.3,8.9,10.4,6.5L10.4,6.5L10.4,6.5z M13.4,8.3c0.1,2.6,0.1,5.1,0,7.5l0,0l0,0
				c0.1,0,0.3,0,0.4,0l0,0l0,0c0.2-2.2,0.2-4.6,0-7l0,0l0,0C13.7,8.6,13.6,8.4,13.4,8.3L13.4,8.3L13.4,8.3z M14,8.9
				c0.2,2.3,0.1,4.6,0,6.8l0,0.1l0,0c0.1,0,0.3-0.1,0.4-0.1l0,0l0,0c0.2-1.9,0.2-4,0-6.1l0,0l0,0C14.3,9.3,14.1,9.1,14,8.9L14,8.9
				L14,8.9z M9.9,6.5c-0.1,0-0.3,0.1-0.4,0.1l0,0l0,0c-0.1,1.9-0.1,4,0,6.1l0,0l0,0c0.1,0.2,0.3,0.4,0.4,0.6l0,0.1l0-0.1
				C9.8,11,9.8,8.7,9.9,6.5L9.9,6.5L9.9,6.5z M8.4,10.3c0,0.4,0,0.9,0.1,1.3l0,0l0,0c0.1,0.3,0.3,0.6,0.4,0.9l0,0.1l0-0.1
				c0-0.3-0.1-0.6-0.1-0.9l0,0l0,0C8.7,11.2,8.5,10.8,8.4,10.3L8.4,10.3z M15.5,14.4c-0.1,0.3-0.3,0.6-0.4,0.8l0,0l0,0
				c0,0.3,0,0.5-0.1,0.8l0,0.1l0,0c0.2-0.1,0.3-0.3,0.4-0.4l0,0l0,0C15.5,15.3,15.5,14.9,15.5,14.4L15.5,14.4z M9.3,6.7
				C9.2,6.8,9,7,8.9,7.1l0,0l0,0c-0.1,1.5-0.1,3,0,4.6l0,0l0,0c0.1,0.3,0.3,0.6,0.4,0.8l0,0.1l0-0.1C9.3,10.6,9.3,8.6,9.3,6.7
				L9.3,6.7L9.3,6.7z M14.5,9.7c0.1,2,0.1,3.9,0,5.8l0,0.1l0,0c0.2-0.1,0.3-0.2,0.4-0.4l0,0l0,0c0.1-1.5,0.1-3,0-4.6l0,0l0,0
				C14.8,10.3,14.7,10,14.5,9.7L14.5,9.7L14.5,9.7z M15.6,11.2c0.1,1.5,0.1,2.9,0,4.2l0,0c0.3-0.5,0.5-1.1,0.5-1.9
				C16,12.8,15.9,12,15.6,11.2L15.6,11.2z M8.3,7C8,7.5,7.8,8.1,7.8,8.8c0,0.8,0.2,1.6,0.5,2.4l0,0C8.2,9.8,8.2,8.4,8.3,7L8.3,7z
				 M8.8,7.3C8.5,7.7,8.3,8.3,8.3,9c0,0.7,0.2,1.5,0.5,2.3l0,0C8.7,10,8.7,8.6,8.8,7.3L8.8,7.3z M15.1,10.9c0.1,1.4,0.1,2.7,0,4l0,0
				c0.3-0.4,0.5-1.1,0.5-1.8C15.6,12.5,15.4,11.7,15.1,10.9L15.1,10.9z M8.9,6.3C8.7,6.4,8.5,6.6,8.4,6.7l0,0l0,0
				c0,0.4-0.1,0.7-0.1,1.1l0,0C8.5,7.5,8.6,7.3,8.8,7l0,0l0,0C8.9,6.8,8.9,6.6,8.9,6.3L8.9,6.3L8.9,6.3z M15,9.9
				c0,0.3,0,0.5,0.1,0.7l0,0l0,0c0.2,0.5,0.3,0.9,0.4,1.4l0,0c0-0.4,0-0.8-0.1-1.2l0,0l0,0C15.3,10.5,15.2,10.2,15,9.9L15,9.9
				L15,9.9z M14.4,8.9c0,0.2,0,0.4,0,0.6l0,0l0,0c0.2,0.3,0.3,0.5,0.4,0.8l0,0.1l0-0.1c0-0.2,0-0.4-0.1-0.7l0,0l0,0
				C14.8,9.4,14.6,9.1,14.4,8.9L14.4,8.9L14.4,8.9z M9.4,6C9.3,6.1,9.1,6.1,9,6.2l0,0l0,0c0,0.2,0,0.4-0.1,0.6l0,0.1l0,0
				c0.1-0.1,0.3-0.2,0.4-0.3l0,0l0,0C9.4,6.4,9.4,6.2,9.4,6L9.4,6L9.4,6z M13.9,8.2c0,0.2,0,0.3,0,0.5l0,0l0,0
				c0.1,0.2,0.3,0.4,0.4,0.6l0,0.1l0-0.1c0-0.2,0-0.4,0-0.5l0,0l0,0C14.2,8.6,14.1,8.4,13.9,8.2L13.9,8.2L13.9,8.2z M9.9,5.9
				c-0.1,0-0.3,0-0.4,0.1l0,0l0,0c0,0.2,0,0.3,0,0.5l0,0.1l0,0c0.1-0.1,0.3-0.1,0.4-0.1l0,0l0,0C9.9,6.2,10,6.1,9.9,5.9L9.9,5.9
				L9.9,5.9z M10.4,5.9c-0.1,0-0.3,0-0.4,0l0,0l0,0c0,0.1,0,0.3,0,0.4l0,0l0,0c0.1,0,0.2,0,0.4,0l0,0l0,0
				C10.5,6.2,10.5,6.1,10.4,5.9L10.4,5.9L10.4,5.9z M13.4,7.7c0,0.1,0,0.3,0,0.4l0,0l0,0c0.1,0.1,0.3,0.3,0.4,0.4l0,0l0-0.1
				c0-0.2,0-0.3,0-0.5l0,0l0,0C13.7,7.9,13.6,7.8,13.4,7.7L13.4,7.7L13.4,7.7z M10.9,6c-0.1,0-0.2-0.1-0.4-0.1l0,0l0,0
				c0,0.1,0,0.3,0,0.4l0,0l0,0c0.1,0,0.2,0,0.4,0.1l0,0l0,0C10.9,6.3,11,6.2,10.9,6L10.9,6L10.9,6z M12.9,7.2c0,0.1,0,0.3,0,0.4l0,0
				l0,0c0.1,0.1,0.2,0.2,0.4,0.4l0,0l0,0c0-0.1,0-0.3,0-0.4l0,0l0,0C13.2,7.4,13.1,7.3,12.9,7.2L12.9,7.2L12.9,7.2z M11.4,6.2
				c-0.1-0.1-0.2-0.1-0.4-0.1l0,0l0,0c0,0.1,0,0.2,0,0.4l0,0l0,0c0.1,0,0.2,0.1,0.4,0.1l0,0l0-0.2C11.4,6.4,11.4,6.3,11.4,6.2
				L11.4,6.2L11.4,6.2z M12.5,6.8c0,0.1,0,0.1,0,0.2l0,0.2l0,0c0.1,0.1,0.2,0.2,0.4,0.3l0,0l0,0c0-0.1,0-0.3,0-0.4l0,0l0,0
				C12.7,7,12.6,6.9,12.5,6.8L12.5,6.8L12.5,6.8z M12,6.9L12,6.9C12.1,7,12.2,7,12.4,7.1l0,0l0-0.4l0,0c-0.1-0.1-0.2-0.2-0.4-0.2
				l0,0L12,6.9z M11.9,6.4c-0.1-0.1-0.2-0.1-0.4-0.2l0,0l0,0.4l0,0c0.1,0.1,0.2,0.1,0.4,0.2l0,0L11.9,6.4L11.9,6.4z"/>
			<path class="st78" d="M11.9,16c-2.3-1.3-4.2-4.6-4.2-7.2c0-2.7,1.9-3.7,4.2-2.4c2.3,1.3,4.2,4.6,4.2,7.2
				C16.1,16.3,14.2,17.3,11.9,16z M12.4,15.6c-0.1-0.1-0.2-0.1-0.4-0.2l0,0l0,0.6l0,0c0.1,0.1,0.2,0.1,0.4,0.2l0,0l0,0
				c0-0.1,0-0.2,0-0.3L12.4,15.6L12.4,15.6z M11.5,15.3c0,0.1,0,0.2,0,0.3l0,0l0,0c0.1,0.1,0.2,0.2,0.4,0.2l0,0l0-0.6l0,0
				c-0.1-0.1-0.2-0.1-0.4-0.2l0,0L11.5,15.3z M12.8,15.8c-0.1,0-0.2-0.1-0.4-0.1l0,0l0,0.2c0,0.1,0,0.2,0,0.3l0,0l0,0
				c0.1,0.1,0.2,0.1,0.4,0.1l0,0l0,0C12.9,16.2,12.9,16,12.8,15.8L12.8,15.8L12.8,15.8z M11,14.8c0,0.2,0,0.3,0,0.5l0,0l0,0
				c0.1,0.1,0.2,0.2,0.4,0.3l0,0l0-0.1c0-0.1,0-0.2,0-0.3l0-0.2l0,0C11.3,14.9,11.2,14.8,11,14.8L11,14.8L11,14.8z M13.3,15.9
				c-0.1,0-0.2,0-0.4-0.1l0,0l0,0c0,0.2,0,0.3,0,0.5l0,0.1l0,0c0.1,0,0.2,0.1,0.4,0.1l0,0l0,0C13.3,16.3,13.4,16.1,13.3,15.9
				L13.3,15.9L13.3,15.9z M10.5,14.3c0,0.2,0,0.4,0,0.5l0,0l0,0c0.1,0.1,0.2,0.2,0.4,0.3l0,0l0-0.1c0-0.2,0-0.3,0-0.5l0,0l0,0
				C10.8,14.5,10.7,14.4,10.5,14.3L10.5,14.3L10.5,14.3z M13.8,15.9c-0.1,0-0.2,0-0.4,0l0,0l0,0c0,0.2,0,0.3,0,0.5l0,0.1l0.1,0
				c0.1,0,0.3,0,0.4,0h0l0,0C13.8,16.3,13.9,16.1,13.8,15.9L13.8,15.9L13.8,15.9z M10,13.7c0,0.2,0,0.4,0,0.6l0,0l0,0
				c0.1,0.1,0.2,0.3,0.4,0.4l0.1,0.1l0-0.1c0-0.2,0-0.4,0-0.6l0,0l0,0C10.3,14,10.2,13.9,10,13.7L10,13.7L10,13.7z M9.5,13
				c0,0.2,0,0.5,0.1,0.7l0,0l0,0c0.1,0.2,0.3,0.3,0.4,0.5l0.1,0.1l0-0.1c0-0.2,0-0.4,0-0.6l0,0l0,0C9.8,13.4,9.7,13.2,9.5,13l0-0.1
				L9.5,13z M14.3,15.7c-0.1,0.1-0.3,0.1-0.4,0.1l0,0l0,0c0,0.2,0,0.4,0,0.6l0,0.1l0.1,0c0.1,0,0.3,0,0.4-0.1l0,0l0,0
				C14.4,16.2,14.4,16,14.3,15.7L14.3,15.7L14.3,15.7z M11.9,6.9c-0.1-0.1-0.2-0.1-0.4-0.2l0,0l0,0c0,2.7,0,5.5,0,8.2l0,0l0,0
				c0.1,0.1,0.2,0.2,0.4,0.2l0,0l0,0C11.9,12.5,11.9,9.7,11.9,6.9L11.9,6.9L11.9,6.9z M12,7c0,2.7,0,5.5,0,8.3l0,0l0,0
				c0.1,0.1,0.2,0.1,0.4,0.2l0,0l0,0c0-2.7,0.1-5.5,0-8.2l0,0l0,0C12.2,7.1,12.1,7.1,12,7L12,7L12,7z M12.4,7.3
				c0.1,2.7,0.1,5.5,0,8.2l0,0l0,0c0.1,0,0.2,0.1,0.4,0.1l0,0l0,0c0.1-2.6,0.1-5.3,0-8l0,0l0,0C12.7,7.5,12.6,7.4,12.4,7.3L12.4,7.3
				L12.4,7.3z M11.4,6.7c-0.1,0-0.2-0.1-0.4-0.1l0,0l0,0c-0.1,2.6-0.1,5.3,0,8l0,0l0,0c0.1,0.1,0.2,0.2,0.4,0.3l0,0l0-0.1
				C11.4,12.2,11.4,9.4,11.4,6.7L11.4,6.7L11.4,6.7z M12.9,7.7c0.1,2.7,0.1,5.4,0,7.9l0,0.1l0,0c0.1,0,0.3,0.1,0.4,0.1l0,0l0,0
				c0.1-2.5,0.1-5,0-7.6l0,0l0,0C13.2,8,13.1,7.8,12.9,7.7L12.9,7.7L12.9,7.7z M10.9,6.5c-0.1,0-0.3-0.1-0.4-0.1l0,0l0,0
				c-0.1,2.5-0.1,5,0,7.6l0,0l0,0c0.1,0.1,0.2,0.2,0.4,0.4l0,0l0-0.1C10.8,11.8,10.8,9.2,10.9,6.5L10.9,6.5L10.9,6.5z M8.9,12
				c0,0.3,0,0.5,0.1,0.8l0,0l0,0c0.1,0.2,0.3,0.4,0.4,0.7l0.1,0.1l0-0.1c0-0.2,0-0.5-0.1-0.7l0,0l0,0C9.3,12.5,9.1,12.3,8.9,12
				l0-0.2L8.9,12z M14.9,15.4c-0.1,0.1-0.3,0.2-0.4,0.3l0,0l0,0c0,0.2,0,0.4-0.1,0.6l0,0.1l0.1,0c0.1,0,0.3-0.1,0.4-0.2l0,0l0,0
				C14.9,15.9,14.9,15.7,14.9,15.4L14.9,15.4L14.9,15.4z M10.4,6.5c-0.1,0-0.3,0-0.4,0l0,0l0,0c-0.2,2.2-0.1,4.6,0,7l0,0l0,0
				c0.1,0.2,0.3,0.3,0.4,0.5l0.1,0.1l0-0.1C10.3,11.5,10.3,8.9,10.4,6.5L10.4,6.5L10.4,6.5z M13.4,8.2c0.1,2.6,0.1,5.1,0,7.5l0,0.1
				l0.1,0c0.1,0,0.3,0,0.4,0l0,0l0,0c0.2-2.2,0.2-4.6,0-7l0,0l0,0C13.7,8.5,13.6,8.4,13.4,8.2L13.4,8.2L13.4,8.2z M13.9,8.9
				c0.2,2.3,0.1,4.6,0,6.8l0,0.1l0.1,0c0.1,0,0.3-0.1,0.4-0.1l0,0l0,0c0.2-1.9,0.2-4,0-6.1l0,0l0,0C14.3,9.3,14.1,9.1,13.9,8.9
				L13.9,8.9L13.9,8.9z M9.9,6.5c-0.1,0-0.3,0.1-0.4,0.1l0,0l0,0c-0.1,1.9-0.1,4,0,6.1l0,0l0,0c0.1,0.2,0.3,0.4,0.4,0.6l0.1,0.1
				l0-0.1C9.8,11,9.8,8.7,9.9,6.5L9.9,6.5L9.9,6.5z M8.3,10.3L8.3,10.3c0,0.5,0,0.9,0.1,1.4l0,0l0,0c0.1,0.3,0.3,0.6,0.4,0.9L9,12.7
				l0-0.1c0-0.3-0.1-0.6-0.1-0.9l0,0l0,0C8.7,11.2,8.5,10.8,8.3,10.3L8.3,10.3L8.3,10.3z M15.5,14.4c-0.1,0.3-0.3,0.6-0.4,0.8l0,0
				l0,0c0,0.3,0,0.5-0.1,0.8l0,0.1l0.1-0.1c0.2-0.1,0.3-0.3,0.4-0.4l0,0l0,0C15.5,15.3,15.5,14.9,15.5,14.4L15.5,14.4L15.5,14.4
				L15.5,14.4z M9.3,6.7C9.2,6.8,9,6.9,8.9,7.1l0,0l0,0c-0.1,1.5-0.1,3,0,4.6l0,0l0,0c0.1,0.3,0.3,0.6,0.4,0.9l0.1,0.1l0-0.1
				C9.3,10.6,9.3,8.6,9.3,6.7L9.3,6.7L9.3,6.7z M14.5,9.7c0.1,2,0.1,3.9,0,5.7l0,0.1l0.1,0c0.2-0.1,0.3-0.2,0.4-0.4l0,0l0,0
				c0.1-1.5,0.1-3,0-4.6l0,0l0,0C14.8,10.3,14.7,10,14.5,9.7l0-0.1L14.5,9.7z M15.6,11.2L15.6,11.2c0.1,1.5,0.1,2.9,0,4.2l0,0
				l0.1,0.1l0,0c0.3-0.5,0.5-1.1,0.5-1.9C16.1,12.8,15.9,12,15.6,11.2L15.6,11.2L15.6,11.2z M8.3,7C8,7.5,7.8,8.1,7.8,8.8
				c0,0.8,0.2,1.6,0.5,2.4l0,0l0.1,0l0,0C8.2,9.8,8.2,8.4,8.3,7L8.3,7L8.3,7L8.3,7z M8.8,7.3C8.5,7.7,8.3,8.3,8.3,9
				c0,0.7,0.2,1.5,0.5,2.3l0,0l0.1,0l0,0C8.8,10,8.8,8.6,8.8,7.3L8.8,7.3L8.8,7.3L8.8,7.3z M15.1,10.9L15.1,10.9
				c0.1,1.4,0.1,2.7,0,4l0,0l0.1,0.1l0,0c0.3-0.4,0.5-1.1,0.5-1.8C15.6,12.5,15.4,11.7,15.1,10.9L15.1,10.9L15.1,10.9z M8.8,6.3
				C8.7,6.4,8.5,6.5,8.4,6.7l0,0l0,0c0,0.4-0.1,0.7-0.1,1.1l0,0l0.1,0.1l0,0C8.5,7.6,8.7,7.3,8.9,7l0,0l0,0C8.9,6.8,8.9,6.6,8.8,6.3
				L8.8,6.3L8.8,6.3z M15,9.8c0,0.3,0,0.5,0.1,0.7l0,0l0,0c0.2,0.5,0.3,0.9,0.4,1.4l0,0l0.1,0l0,0c0-0.4,0-0.8-0.1-1.2l0,0l0,0
				C15.4,10.5,15.2,10.2,15,9.8l0-0.1L15,9.8z M14.4,8.9c0,0.2,0,0.4,0,0.6l0,0l0,0c0.2,0.3,0.3,0.5,0.4,0.8l0.1,0.2l0-0.2
				c0-0.2,0-0.4-0.1-0.7l0,0l0,0C14.8,9.4,14.6,9.1,14.4,8.9l0-0.1L14.4,8.9z M9.4,6C9.3,6,9.1,6.1,9,6.2l0,0l0,0
				c0,0.2,0,0.4-0.1,0.6l0,0.1L9,6.9c0.1-0.1,0.3-0.2,0.4-0.3l0,0l0,0C9.4,6.4,9.4,6.2,9.4,6L9.4,6L9.4,6z M13.9,8.2
				c0,0.2,0,0.3,0,0.5l0,0l0,0c0.1,0.2,0.3,0.4,0.4,0.6l0.1,0.1l0-0.1c0-0.2,0-0.4,0-0.5l0,0l0,0C14.2,8.6,14.1,8.4,13.9,8.2
				L13.9,8.2L13.9,8.2z M9.9,5.9c-0.1,0-0.3,0-0.4,0.1l0,0l0,0c0,0.2,0,0.3,0,0.5l0,0.1l0.1,0c0.1-0.1,0.3-0.1,0.4-0.1l0,0l0,0
				C10,6.2,10,6.1,9.9,5.9L9.9,5.9L9.9,5.9z M10.4,5.9c-0.1,0-0.3,0-0.4,0l0,0l0,0c0,0.1,0,0.3,0,0.4l0,0.1l0.1,0c0.1,0,0.2,0,0.4,0
				l0,0l0,0C10.5,6.2,10.5,6.1,10.4,5.9L10.4,5.9L10.4,5.9z M13.4,7.7c0,0.1,0,0.3,0,0.4l0,0l0,0c0.1,0.1,0.3,0.3,0.4,0.4l0.1,0.1
				l0-0.1c0-0.2,0-0.3,0-0.5l0,0l0,0C13.7,7.9,13.6,7.8,13.4,7.7L13.4,7.7L13.4,7.7z M10.9,6c-0.1,0-0.2-0.1-0.4-0.1l0,0l0,0
				c0,0.1,0,0.3,0,0.4l0,0.1l0.1,0c0.1,0,0.2,0,0.4,0.1l0,0l0,0C11,6.3,11,6.2,10.9,6L10.9,6L10.9,6z M12.9,7.2c0,0.1,0,0.3,0,0.4
				l0,0l0,0c0.1,0.1,0.2,0.2,0.4,0.4L13.4,8l0-0.1c0-0.1,0-0.3,0-0.4l0,0l0,0C13.2,7.4,13.1,7.3,12.9,7.2L12.9,7.2L12.9,7.2z
				 M12.4,6.8c0,0.1,0,0.1,0,0.2l0,0.2l0,0c0.1,0.1,0.2,0.2,0.4,0.3l0,0l0-0.1c0-0.1,0-0.3,0-0.4l0,0l0,0C12.7,7,12.6,6.9,12.4,6.8
				L12.4,6.8L12.4,6.8z M11.4,6.2C11.3,6.1,11.2,6.1,11,6l0,0l0,0c0,0.1,0,0.2,0,0.4l0,0.1l0,0c0.1,0,0.2,0.1,0.4,0.1l0,0l0-0.2
				C11.4,6.4,11.4,6.3,11.4,6.2L11.4,6.2L11.4,6.2z M11.9,6.4c-0.1-0.1-0.2-0.1-0.4-0.2l0,0l0,0.4l0,0c0.1,0.1,0.2,0.1,0.4,0.2l0,0
				L11.9,6.4L11.9,6.4z M12,6.9L12,6.9c0.2,0.1,0.3,0.2,0.4,0.3l0,0l0-0.4l0,0c-0.1-0.1-0.2-0.2-0.4-0.2l0,0L12,6.9z"/>
		</g>
	</g>
</g>
</svg>
