<?xml version="1.0" encoding="utf-8"?>
<!-- Generator: Adobe Illustrator 24.2.1, SVG Export Plug-In . SVG Version: 6.00 Build 0)  -->
<svg version="1.1" id="Layer_1" xmlns="http://www.w3.org/2000/svg" xmlns:xlink="http://www.w3.org/1999/xlink" x="0px" y="0px"
	 viewBox="0 0 170.1 170.1" style="enable-background:new 0 0 170.1 170.1;" xml:space="preserve">
<style type="text/css">
	.st0{fill:#4D4D4D;}
</style>
<g>
	<path class="st0" d="M67.9,44l-6.3,6.3c-0.4,0.4-0.6,0.8-0.6,1.3v24.7h-5v-2.2c0-1-0.8-1.9-1.9-1.9h-4.7c-3.3,0-6,2.7-6,6v13.5
		c0,3.3,2.7,6,6,6h4.7c1,0,1.9-0.8,1.9-1.9v-2.2h5v24.7c0,0.5,0.2,1,0.6,1.3l6.3,6.3c0.4,0.4,0.8,0.6,1.3,0.6h49.2
		c0.5,0,1-0.2,1.3-0.6l6.3-6.3c0.4-0.4,0.6-0.8,0.6-1.3V51.6c0-0.5-0.2-1-0.6-1.3l-6.3-6.3c-0.4-0.4-0.8-0.6-1.3-0.6H69.2
		C68.7,43.4,68.3,43.6,67.9,44z M76.3,122.9V47.2h35.1v75.7H76.3z M49.4,94.1c-1.2,0-2.2-1-2.2-2.2V78.3c0-1.2,1-2.2,2.2-2.2h2.8v18
		H49.4z M56,90v-9.8h5V90H56z M70,122.9l-5.2-5.2V52.4l5.2-5.2h2.5v75.7H70z M117.7,47.2l5.2,5.2v65.3l-5.2,5.2h-2.5V47.2H117.7z"/>
	<path class="st0" d="M81.6,111.2c0,1,0.8,1.9,1.9,1.9h20.8c1,0,1.9-0.8,1.9-1.9c0-1-0.8-1.9-1.9-1.9H83.5
		C82.4,109.3,81.6,110.2,81.6,111.2z"/>
	<path class="st0" d="M81.6,100.7c0,1,0.8,1.9,1.9,1.9h20.8c1,0,1.9-0.8,1.9-1.9s-0.8-1.9-1.9-1.9H83.5
		C82.4,98.8,81.6,99.7,81.6,100.7z"/>
	<path class="st0" d="M81.6,90.3c0,1,0.8,1.9,1.9,1.9h20.8c1,0,1.9-0.8,1.9-1.9c0-1-0.8-1.9-1.9-1.9H83.5
		C82.4,88.4,81.6,89.2,81.6,90.3z"/>
	<path class="st0" d="M81.6,79.8c0,1,0.8,1.9,1.9,1.9h20.8c1,0,1.9-0.8,1.9-1.9c0-1-0.8-1.9-1.9-1.9H83.5
		C82.4,77.9,81.6,78.8,81.6,79.8z"/>
	<path class="st0" d="M81.6,69.3c0,1,0.8,1.9,1.9,1.9h20.8c1,0,1.9-0.8,1.9-1.9s-0.8-1.9-1.9-1.9H83.5
		C82.4,67.5,81.6,68.3,81.6,69.3z"/>
	<path class="st0" d="M81.6,58.9c0,1,0.8,1.9,1.9,1.9h20.8c1,0,1.9-0.8,1.9-1.9c0-1-0.8-1.9-1.9-1.9H83.5
		C82.4,57,81.6,57.8,81.6,58.9z"/>
</g>
</svg>
