<?xml version="1.0" encoding="utf-8"?>
<!-- Generator: Adobe Illustrator 24.2.1, SVG Export Plug-In . SVG Version: 6.00 Build 0)  -->
<svg version="1.1" id="Layer_2" xmlns="http://www.w3.org/2000/svg" xmlns:xlink="http://www.w3.org/1999/xlink" x="0px" y="0px"
	 viewBox="0 0 28.3 28.3" style="enable-background:new 0 0 28.3 28.3;" xml:space="preserve">
<style type="text/css">
	.st0{opacity:0;fill:#FFFFFF;}
	.st1{opacity:3.030303e-02;fill:#FCFCFC;}
	.st2{opacity:6.060606e-02;fill:#F9F9F9;}
	.st3{opacity:9.090909e-02;fill:#F5F5F5;}
	.st4{opacity:0.1212;fill:#F2F2F2;}
	.st5{opacity:0.1515;fill:#EFEFEF;}
	.st6{opacity:0.1818;fill:#ECECEC;}
	.st7{opacity:0.2121;fill:#E8E8E8;}
	.st8{opacity:0.2424;fill:#E5E5E5;}
	.st9{opacity:0.2727;fill:#E2E2E2;}
	.st10{opacity:0.303;fill:#DFDFDF;}
	.st11{opacity:0.3333;fill:#DBDBDB;}
	.st12{opacity:0.3636;fill:#D8D8D8;}
	.st13{opacity:0.3939;fill:#D5D5D5;}
	.st14{opacity:0.4242;fill:#D2D2D2;}
	.st15{opacity:0.4545;fill:#CECECE;}
	.st16{opacity:0.4848;fill:#CBCBCB;}
	.st17{opacity:0.5152;fill:#C8C8C8;}
	.st18{opacity:0.5455;fill:#C5C5C5;}
	.st19{opacity:0.5758;fill:#C1C1C1;}
	.st20{opacity:0.6061;fill:#BEBEBE;}
	.st21{opacity:0.6364;fill:#BBBBBB;}
	.st22{opacity:0.6667;fill:#B8B8B8;}
	.st23{opacity:0.697;fill:#B4B4B4;}
	.st24{opacity:0.7273;fill:#B1B1B1;}
	.st25{opacity:0.7576;fill:#AEAEAE;}
	.st26{opacity:0.7879;fill:#ABABAB;}
	.st27{opacity:0.8182;fill:#A7A7A7;}
	.st28{opacity:0.8485;fill:#A4A4A4;}
	.st29{opacity:0.8788;fill:#A1A1A1;}
	.st30{opacity:0.9091;fill:#9E9E9E;}
	.st31{opacity:0.9394;fill:#9A9A9A;}
	.st32{opacity:0.9697;fill:#979797;}
	.st33{fill:#949494;}
	.st34{fill:#FF9B00;}
	.st35{fill:url(#SVGID_1_);}
	.st36{fill:#008CFF;}
	.st37{clip-path:url(#SVGID_3_);}
	.st38{opacity:3.030303e-02;fill:#F7F9FF;}
	.st39{opacity:6.060606e-02;fill:#F0F4FF;}
	.st40{opacity:9.090909e-02;fill:#E8EEFF;}
	.st41{opacity:0.1212;fill:#E0E9FF;}
	.st42{opacity:0.1515;fill:#D8E3FF;}
	.st43{opacity:0.1818;fill:#D1DEFF;}
	.st44{opacity:0.2121;fill:#C9D8FF;}
	.st45{opacity:0.2424;fill:#C1D2FF;}
	.st46{opacity:0.2727;fill:#B9CDFF;}
	.st47{opacity:0.303;fill:#B2C7FF;}
	.st48{opacity:0.3333;fill:#AAC2FF;}
	.st49{opacity:0.3636;fill:#A2BCFF;}
	.st50{opacity:0.3939;fill:#9BB7FF;}
	.st51{opacity:0.4242;fill:#93B1FF;}
	.st52{opacity:0.4545;fill:#8BABFF;}
	.st53{opacity:0.4848;fill:#83A6FF;}
	.st54{opacity:0.5152;fill:#7CA0FF;}
	.st55{opacity:0.5455;fill:#749BFF;}
	.st56{opacity:0.5758;fill:#6C95FF;}
	.st57{opacity:0.6061;fill:#648FFF;}
	.st58{opacity:0.6364;fill:#5D8AFF;}
	.st59{opacity:0.6667;fill:#5584FF;}
	.st60{opacity:0.697;fill:#4D7FFF;}
	.st61{opacity:0.7273;fill:#4679FF;}
	.st62{opacity:0.7576;fill:#3E74FF;}
	.st63{opacity:0.7879;fill:#366EFF;}
	.st64{opacity:0.8182;fill:#2E68FF;}
	.st65{opacity:0.8485;fill:#2763FF;}
	.st66{opacity:0.8788;fill:#1F5DFF;}
	.st67{opacity:0.9091;fill:#1758FF;}
	.st68{opacity:0.9394;fill:#0F52FF;}
	.st69{opacity:0.9697;fill:#084DFF;}
	.st70{fill:#0047FF;}
	.st71{fill:url(#SVGID_4_);}
	.st72{fill:url(#SVGID_5_);}
	.st73{fill:#2D3E50;}
	.st74{fill:#3B3E52;}
	.st75{fill:#E4E6EB;}
	.st76{fill:url(#SVGID_6_);}
	.st77{fill:url(#SVGID_7_);}
	.st78{fill:#9E9FA3;}
	.st79{fill:url(#SVGID_8_);}
	.st80{fill:url(#SVGID_9_);}
	.st81{fill:url(#SVGID_10_);}
	.st82{fill:url(#SVGID_11_);}
</style>
<g>
	<g>
		<path class="st0" d="M22.9,13c-5.3-3-10.7-3-16,0l0,0C4.3,14.6,3,16.1,3,17.6s1.3,3.1,3.9,4.6c5.3,3,10.7,3,16,0
			c2.6-1.5,3.9-3.1,3.9-4.6C26.8,16.1,25.5,14.6,22.9,13z"/>
		<path class="st1" d="M22.8,13c-5.3-3-10.7-3-16,0l0,0c-2.6,1.5-3.9,3.1-3.9,4.6s1.3,3.1,3.9,4.6c5.3,3,10.7,3,16,0
			c2.6-1.5,3.9-3.1,3.9-4.6C26.8,16.1,25.5,14.6,22.8,13z"/>
		<path class="st2" d="M22.8,13c-5.3-3-10.7-3-16,0l0,0c-2.6,1.5-3.9,3.1-3.9,4.6s1.3,3.1,3.9,4.6c5.3,3,10.7,3,16,0
			c2.6-1.5,3.9-3.1,3.9-4.6C26.7,16.1,25.4,14.6,22.8,13z"/>
		<path class="st3" d="M22.7,13c-5.3-3-10.7-3-16,0l0,0c-2.6,1.5-3.9,3.1-3.9,4.6s1.3,3.1,3.9,4.6c5.3,3,10.7,3,16,0
			c2.6-1.5,3.9-3.1,3.9-4.6C26.7,16.1,25.4,14.6,22.7,13z"/>
		<path class="st4" d="M22.7,13c-5.3-3-10.7-3-16,0l0,0c-2.6,1.5-3.9,3.1-3.9,4.6s1.3,3.1,3.9,4.6c5.3,3,10.7,3,16,0
			c2.6-1.5,3.9-3.1,3.9-4.6C26.6,16.1,25.3,14.6,22.7,13z"/>
		<path class="st5" d="M22.6,13c-5.3-3-10.7-3-16,0l0,0c-2.6,1.5-3.9,3.1-3.9,4.6s1.3,3.1,3.9,4.6c5.3,3,10.7,3,16,0
			c2.6-1.5,3.9-3.1,3.9-4.6C26.6,16.1,25.3,14.6,22.6,13z"/>
		<path class="st6" d="M22.6,13c-5.3-3-10.7-3-16,0l0,0c-2.6,1.5-3.9,3.1-3.9,4.6s1.3,3.1,3.9,4.6c5.3,3,10.7,3,16,0
			c2.6-1.5,3.9-3.1,3.9-4.6C26.5,16.1,25.2,14.6,22.6,13z"/>
		<path class="st7" d="M22.5,13c-5.3-3-10.7-3-16,0l0,0c-2.6,1.5-3.9,3.1-3.9,4.6s1.3,3.1,3.9,4.6c5.3,3,10.7,3,16,0
			c2.6-1.5,3.9-3.1,3.9-4.6C26.5,16.1,25.2,14.6,22.5,13z"/>
		<path class="st8" d="M22.5,13c-5.3-3-10.7-3-16,0l0,0c-2.6,1.5-3.9,3.1-3.9,4.6s1.3,3.1,3.9,4.6c5.3,3,10.7,3,16,0
			c2.6-1.5,3.9-3.1,3.9-4.6C26.4,16.1,25.1,14.6,22.5,13z"/>
		<path class="st9" d="M22.5,13c-5.3-3-10.7-3-16,0l0,0c-2.6,1.5-3.9,3.1-3.9,4.6s1.3,3.1,3.9,4.6c5.3,3,10.7,3,16,0
			c2.6-1.5,3.9-3.1,3.9-4.6C26.4,16.1,25.1,14.6,22.5,13z"/>
		<path class="st10" d="M22.4,13c-5.3-3-10.7-3-16,0l0,0c-2.6,1.5-3.9,3.1-3.9,4.6s1.3,3.1,3.9,4.6c5.3,3,10.7,3,16,0
			c2.6-1.5,3.9-3.1,3.9-4.6C26.3,16.1,25,14.6,22.4,13z"/>
		<path class="st11" d="M22.4,13c-5.3-3-10.7-3-16,0l0,0c-2.6,1.5-3.9,3.1-3.9,4.6s1.3,3.1,3.9,4.6c5.3,3,10.7,3,16,0
			c2.6-1.5,3.9-3.1,3.9-4.6C26.3,16.1,25,14.6,22.4,13z"/>
		<path class="st12" d="M22.3,13c-5.3-3-10.7-3-16,0l0,0c-2.6,1.5-3.9,3.1-3.9,4.6s1.3,3.1,3.9,4.6c5.3,3,10.7,3,16,0
			c2.6-1.5,3.9-3.1,3.9-4.6C26.3,16.1,24.9,14.6,22.3,13z"/>
		<path class="st13" d="M22.3,13c-5.3-3-10.7-3-16,0l0,0c-2.6,1.5-3.9,3.1-3.9,4.6s1.3,3.1,3.9,4.6c5.3,3,10.7,3,16,0
			c2.6-1.5,3.9-3.1,3.9-4.6C26.2,16.1,24.9,14.6,22.3,13z"/>
		<path class="st14" d="M22.2,13c-5.3-3-10.7-3-16,0l0,0c-2.6,1.5-3.9,3.1-3.9,4.6s1.3,3.1,3.9,4.6c5.3,3,10.7,3,16,0
			c2.6-1.5,3.9-3.1,3.9-4.6C26.2,16.1,24.8,14.6,22.2,13z"/>
		<path class="st15" d="M22.2,13c-5.3-3-10.7-3-16,0l0,0c-2.6,1.5-3.9,3.1-3.9,4.6s1.3,3.1,3.9,4.6c5.3,3,10.7,3,16,0
			c2.6-1.5,3.9-3.1,3.9-4.6C26.1,16.1,24.8,14.6,22.2,13z"/>
		<path class="st16" d="M22.1,13c-5.3-3-10.7-3-16,0l0,0c-2.6,1.5-3.9,3.1-3.9,4.6s1.3,3.1,3.9,4.6c5.3,3,10.7,3,16,0
			c2.6-1.5,3.9-3.1,3.9-4.6C26.1,16.1,24.7,14.6,22.1,13z"/>
		<path class="st17" d="M22.1,13c-5.3-3-10.7-3-16,0l0,0c-2.6,1.5-3.9,3.1-3.9,4.6s1.3,3.1,3.9,4.6c5.3,3,10.7,3,16,0
			c2.6-1.5,3.9-3.1,3.9-4.6C26,16.1,24.7,14.6,22.1,13z"/>
		<path class="st18" d="M22,13c-5.3-3-10.7-3-16,0l0,0c-2.6,1.5-3.9,3.1-3.9,4.6s1.3,3.1,3.9,4.6c5.3,3,10.7,3,16,0
			c2.6-1.5,3.9-3.1,3.9-4.6C26,16.1,24.6,14.6,22,13z"/>
		<path class="st19" d="M22,13c-5.3-3-10.7-3-16,0l0,0c-2.6,1.5-3.9,3.1-3.9,4.6s1.3,3.1,3.9,4.6c5.3,3,10.7,3,16,0
			c2.6-1.5,3.9-3.1,3.9-4.6C25.9,16.1,24.6,14.6,22,13z"/>
		<path class="st20" d="M21.9,13c-5.3-3-10.7-3-16,0l0,0C3.3,14.6,2,16.1,2,17.6s1.3,3.1,3.9,4.6c5.3,3,10.7,3,16,0
			c2.6-1.5,3.9-3.1,3.9-4.6C25.9,16.1,24.5,14.6,21.9,13z"/>
		<path class="st21" d="M21.9,13c-5.3-3-10.7-3-16,0l0,0C3.3,14.6,2,16.1,2,17.6s1.3,3.1,3.9,4.6c5.3,3,10.7,3,16,0
			c2.6-1.5,3.9-3.1,3.9-4.6C25.8,16.1,24.5,14.6,21.9,13z"/>
		<path class="st22" d="M21.8,13c-5.3-3-10.7-3-16,0l0,0c-2.6,1.5-3.9,3.1-3.9,4.6s1.3,3.1,3.9,4.6c5.3,3,10.7,3,16,0
			c2.6-1.5,3.9-3.1,3.9-4.6C25.8,16.1,24.4,14.6,21.8,13z"/>
		<path class="st23" d="M21.8,13c-5.3-3-10.7-3-16,0l0,0c-2.6,1.5-3.9,3.1-3.9,4.6s1.3,3.1,3.9,4.6c5.3,3,10.7,3,16,0
			c2.6-1.5,3.9-3.1,3.9-4.6C25.7,16.1,24.4,14.6,21.8,13z"/>
		<path class="st24" d="M21.7,13c-5.3-3-10.7-3-16,0l0,0c-2.6,1.5-3.9,3.1-3.9,4.6s1.3,3.1,3.9,4.6c5.3,3,10.7,3,16,0
			c2.6-1.5,3.9-3.1,3.9-4.6C25.7,16.1,24.3,14.6,21.7,13z"/>
		<path class="st25" d="M21.7,13c-5.3-3-10.7-3-16,0l0,0c-2.6,1.5-3.9,3.1-3.9,4.6s1.3,3.1,3.9,4.6c5.3,3,10.7,3,16,0
			c2.6-1.5,3.9-3.1,3.9-4.6C25.6,16.1,24.3,14.6,21.7,13z"/>
		<path class="st26" d="M21.6,13c-5.3-3-10.7-3-16,0l0,0c-2.6,1.5-3.9,3.1-3.9,4.6s1.3,3.1,3.9,4.6c5.3,3,10.7,3,16,0
			c2.6-1.5,3.9-3.1,3.9-4.6C25.6,16.1,24.3,14.6,21.6,13z"/>
		<path class="st27" d="M21.6,13c-5.3-3-10.7-3-16,0l0,0c-2.6,1.5-3.9,3.1-3.9,4.6s1.3,3.1,3.9,4.6c5.3,3,10.7,3,16,0
			c2.6-1.5,3.9-3.1,3.9-4.6C25.5,16.1,24.2,14.6,21.6,13z"/>
		<path class="st28" d="M21.5,13c-5.3-3-10.7-3-16,0l0,0c-2.6,1.5-3.9,3.1-3.9,4.6s1.3,3.1,3.9,4.6c5.3,3,10.7,3,16,0
			c2.6-1.5,3.9-3.1,3.9-4.6C25.5,16.1,24.2,14.6,21.5,13z"/>
		<path class="st29" d="M21.5,13c-5.3-3-10.7-3-16,0l0,0c-2.6,1.5-3.9,3.1-3.9,4.6s1.3,3.1,3.9,4.6c5.3,3,10.7,3,16,0
			c2.6-1.5,3.9-3.1,3.9-4.6C25.4,16.1,24.1,14.6,21.5,13z"/>
		<path class="st30" d="M21.4,13c-5.3-3-10.7-3-16,0l0,0c-2.6,1.5-3.9,3.1-3.9,4.6s1.3,3.1,3.9,4.6c5.3,3,10.7,3,16,0
			c2.6-1.5,3.9-3.1,3.9-4.6C25.4,16.1,24.1,14.6,21.4,13z"/>
		<path class="st31" d="M21.4,13c-5.3-3-10.7-3-16,0l0,0c-2.6,1.5-3.9,3.1-3.9,4.6s1.3,3.1,3.9,4.6c5.3,3,10.7,3,16,0
			c2.6-1.5,3.9-3.1,3.9-4.6C25.3,16.1,24,14.6,21.4,13z"/>
		<path class="st32" d="M21.3,13c-5.3-3-10.7-3-16,0l0,0c-2.6,1.5-3.9,3.1-3.9,4.6s1.3,3.1,3.9,4.6c5.3,3,10.7,3,16,0
			c2.6-1.5,3.9-3.1,3.9-4.6C25.3,16.1,24,14.6,21.3,13z"/>
		<path class="st33" d="M21.3,13c-5.3-3-10.7-3-16,0l0,0c-2.6,1.5-3.9,3.1-3.9,4.6s1.3,3.1,3.9,4.6c5.3,3,10.7,3,16,0
			c2.6-1.5,3.9-3.1,3.9-4.6C25.2,16.1,23.9,14.6,21.3,13z"/>
	</g>
	<g>
		<path class="st34" d="M21.3,13c-5.3-3-10.7-3-16,0l0,0c-2.6,1.5-3.9,3.1-3.9,4.6s1.3,3.1,3.9,4.6c5.3,3,10.7,3,16,0
			c2.6-1.5,3.9-3.1,3.9-4.6C25.2,16.1,23.9,14.6,21.3,13z"/>
		
			<linearGradient id="SVGID_1_" gradientUnits="userSpaceOnUse" x1="-101.2316" y1="23.1003" x2="-77.3821" y2="23.1003" gradientTransform="matrix(1 0 0 1 102.6075 -3.1676)">
			<stop  offset="0" style="stop-color:#00AAFF"/>
			<stop  offset="3.940326e-02" style="stop-color:#00A9FF"/>
			<stop  offset="0.3524" style="stop-color:#00A6FF"/>
			<stop  offset="0.5368" style="stop-color:#0086DD"/>
			<stop  offset="0.7441" style="stop-color:#0066BA"/>
			<stop  offset="1" style="stop-color:#0041AD"/>
		</linearGradient>
		<path class="st35" d="M21.3,19.9c-5.3,3-10.7,3-16,0c-2.6-1.5-3.9-3.1-3.9-4.6v2.3c0,1.5,1.3,3.1,3.9,4.6c5.3,3,10.7,3,16,0
			c2.6-1.5,3.9-3.1,3.9-4.6v-2.3C25.2,16.9,23.9,18.4,21.3,19.9z"/>
		<path class="st36" d="M21.3,10.7c-5.3-3-10.7-3-16,0l0,0c-2.6,1.5-3.9,3.1-3.9,4.6c0,1.5,1.3,3.1,3.9,4.6c5.3,3,10.7,3,16,0
			c2.6-1.5,3.9-3.1,3.9-4.6C25.2,13.8,23.9,12.3,21.3,10.7z"/>
	</g>
	<g>
		<defs>
			<path id="SVGID_2_" d="M21.3,10.7c-5.3-3-10.7-3-16,0l0,0c-2.6,1.5-3.9,3.1-3.9,4.6c0,1.5,1.3,3.1,3.9,4.6c5.3,3,10.7,3,16,0
				c2.6-1.5,3.9-3.1,3.9-4.6C25.2,13.8,23.9,12.3,21.3,10.7z"/>
		</defs>
		<clipPath id="SVGID_3_">
			<use xlink:href="#SVGID_2_"  style="overflow:visible;"/>
		</clipPath>
		<g class="st37">
			<path class="st0" d="M25.2,7.4c-0.1,0.1-0.2,0.2-0.3,0.2C25,7.6,25.1,7.5,25.2,7.4z M23.8,16.8c0.1-0.1,0.1-0.3,0.1-0.5
				c0-0.1,0-0.1,0-0.2l0,0c0,0.1,0,0.1,0,0.2C23.9,16.4,23.8,16.6,23.8,16.8z M23.8,15.6c0-0.1-0.1-0.2-0.1-0.3
				C23.7,15.4,23.7,15.5,23.8,15.6L23.8,15.6z M24.9,10.2v-0.2V9.9V9.7V9.6V9.4V9.3V9.1v0c0,0,0,0,0,0c0.5-0.3,0.7-0.6,0.7-1V6.7v0
				c0-0.4-0.2-0.7-0.7-1c0,0-0.1,0-0.1,0v0c0-0.2-0.1-0.4-0.3-0.6c0,0,0,0,0-0.1c0-0.5-0.3-1-0.7-1.3c-0.2-0.1-0.4-0.1-0.5-0.1
				l-1.2,0.7c-0.1,0.1-0.2,0.2-0.2,0.5c0,0,0,0.1,0,0.1c-0.1,0-0.1,0-0.1,0c-0.1,0-0.1,0.1-0.1,0.2v0.5c0,0-0.1,0-0.1,0
				c-0.5,0.3-0.7,0.6-0.7,1c0,0.1,0,0.1,0,0.2c0-0.1,0-0.1,0-0.2v1.4c0,0.4,0.2,0.7,0.7,1c0,0,0,0,0,0v0v0.2v0.2v0.2v0.2v0.2v0.2
				v0.2v0.2v0c0,0,0,0,0,0c-0.5,0.3-0.7,0.6-0.7,1c0,0.1,0,0.1,0,0.2c0-0.1,0-0.1,0-0.2v2.3c0,0.3,0.1,0.5,0.4,0.8
				c0,0.1,0,0.1,0,0.2c0,0.9,0.6,1.9,1.3,2.3c0.4,0.2,0.7,0.2,0.9,0.1h0l1.4-0.8c0.2-0.1,0.4-0.4,0.4-0.9c0-0.3-0.1-0.6-0.2-0.8
				c0.4-0.3,0.6-0.6,0.6-0.9v-2.3v0c0-0.4-0.2-0.7-0.7-1c0,0,0,0,0,0v0V10.2z M21.7,15L21.7,15c0,0.1,0,0.3,0.1,0.4
				C21.7,15.2,21.7,15.1,21.7,15z M22.6,4.4C22.6,4.4,22.6,4.5,22.6,4.4L22.6,4.4C22.6,4.5,22.6,4.4,22.6,4.4
				c-0.1,0-0.2-0.1-0.2-0.1C22.4,4.4,22.5,4.4,22.6,4.4z M22.2,4.8c0,0.1-0.1,0.1-0.1,0.2c0,0.1,0,0.3,0.1,0.4l0,0
				c-0.1-0.1-0.1-0.3-0.1-0.4C22.1,4.9,22.2,4.8,22.2,4.8z M21.9,12.6c0.3,0.1,0.6,0.2,0.9,0.2C22.5,12.7,22.2,12.7,21.9,12.6z
				 M23.1,16.5c-0.1,0.1-0.3,0.1-0.5,0C22.9,16.6,23,16.6,23.1,16.5L23.1,16.5L23.1,16.5z M23.6,15.1L23.6,15.1L23.6,15.1L23.6,15.1
				L23.6,15.1z"/>
			<path class="st38" d="M24.9,7.4c-0.1,0.1-0.2,0.2-0.3,0.2C24.7,7.6,24.8,7.5,24.9,7.4z M23.5,16.8c0.1-0.1,0.1-0.3,0.1-0.5
				c0-0.1,0-0.1,0-0.2l0,0c0,0.1,0,0.1,0,0.2C23.6,16.4,23.5,16.6,23.5,16.8z M23.5,15.6c0-0.1-0.1-0.2-0.1-0.3
				C23.4,15.4,23.4,15.5,23.5,15.6L23.5,15.6z M24.6,10.2v-0.2V9.9V9.7V9.6V9.4V9.3V9.1v0c0,0,0,0,0,0c0.5-0.3,0.7-0.6,0.7-1V6.7v0
				c0-0.4-0.2-0.7-0.7-1c0,0-0.1,0-0.1,0v0c0-0.2-0.1-0.4-0.3-0.6c0,0,0,0,0-0.1c0-0.5-0.3-1-0.7-1.3c-0.2-0.1-0.4-0.1-0.5-0.1
				l-1.2,0.7c-0.1,0.1-0.2,0.2-0.2,0.5c0,0,0,0.1,0,0.1c-0.1,0-0.1,0-0.1,0c-0.1,0-0.1,0.1-0.1,0.2v0.5c0,0-0.1,0-0.1,0
				c-0.5,0.3-0.7,0.6-0.7,1c0,0.1,0,0.1,0,0.2c0-0.1,0-0.1,0-0.2v1.4c0,0.4,0.2,0.7,0.7,1c0,0,0,0,0,0v0v0.2v0.2v0.2v0.2v0.2v0.2
				v0.2v0.2v0c0,0,0,0,0,0c-0.5,0.3-0.7,0.6-0.7,1c0,0.1,0,0.1,0,0.2c0-0.1,0-0.1,0-0.2v2.3c0,0.3,0.1,0.5,0.4,0.8
				c0,0.1,0,0.1,0,0.2c0,0.9,0.6,1.9,1.3,2.3c0.4,0.2,0.7,0.2,0.9,0.1h0l1.4-0.8c0.2-0.1,0.4-0.4,0.4-0.9c0-0.3-0.1-0.6-0.2-0.8
				c0.4-0.3,0.6-0.6,0.6-0.9v-2.3v0c0-0.4-0.2-0.7-0.7-1c0,0,0,0,0,0v0V10.2z M21.4,15L21.4,15c0,0.1,0,0.3,0.1,0.4
				C21.4,15.2,21.4,15.1,21.4,15z M22.3,4.4C22.3,4.4,22.3,4.5,22.3,4.4L22.3,4.4C22.3,4.5,22.3,4.4,22.3,4.4
				c-0.1,0-0.2-0.1-0.2-0.1C22.1,4.4,22.2,4.4,22.3,4.4z M21.9,4.8c0,0.1-0.1,0.1-0.1,0.2c0,0.1,0,0.3,0.1,0.4l0,0
				c-0.1-0.1-0.1-0.3-0.1-0.4C21.8,4.9,21.9,4.8,21.9,4.8z M21.6,12.6c0.3,0.1,0.6,0.2,0.9,0.2C22.2,12.7,21.9,12.7,21.6,12.6z
				 M22.8,16.5c-0.1,0.1-0.3,0.1-0.5,0C22.6,16.6,22.7,16.6,22.8,16.5L22.8,16.5L22.8,16.5z M23.3,15.1L23.3,15.1L23.3,15.1
				L23.3,15.1L23.3,15.1z"/>
			<path class="st39" d="M24.6,7.4c-0.1,0.1-0.2,0.2-0.3,0.2C24.4,7.6,24.5,7.5,24.6,7.4z M23.2,16.8c0.1-0.1,0.1-0.3,0.1-0.5
				c0-0.1,0-0.1,0-0.2l0,0c0,0.1,0,0.1,0,0.2C23.3,16.4,23.2,16.6,23.2,16.8z M23.2,15.6c0-0.1-0.1-0.2-0.1-0.3
				C23.1,15.4,23.1,15.5,23.2,15.6L23.2,15.6z M24.3,10.2v-0.2V9.9V9.7V9.6V9.4V9.3V9.1v0c0,0,0,0,0,0c0.5-0.3,0.7-0.6,0.7-1V6.7v0
				c0-0.4-0.2-0.7-0.7-1c0,0-0.1,0-0.1,0v0c0-0.2-0.1-0.4-0.3-0.6c0,0,0,0,0-0.1c0-0.5-0.3-1-0.7-1.3c-0.2-0.1-0.4-0.1-0.5-0.1
				l-1.2,0.7c-0.1,0.1-0.2,0.2-0.2,0.5c0,0,0,0.1,0,0.1c-0.1,0-0.1,0-0.1,0C21.1,5,21,5.1,21,5.2v0.5c0,0-0.1,0-0.1,0
				c-0.5,0.3-0.7,0.6-0.7,1c0,0.1,0,0.1,0,0.2c0-0.1,0-0.1,0-0.2v1.4c0,0.4,0.2,0.7,0.7,1c0,0,0,0,0,0v0v0.2v0.2v0.2v0.2v0.2v0.2
				v0.2v0.2v0c0,0,0,0,0,0c-0.5,0.3-0.7,0.6-0.7,1c0,0.1,0,0.1,0,0.2c0-0.1,0-0.1,0-0.2v2.3c0,0.3,0.1,0.5,0.4,0.8
				c0,0.1,0,0.1,0,0.2c0,0.9,0.6,1.9,1.3,2.3c0.4,0.2,0.7,0.2,0.9,0.1h0l1.4-0.8c0.2-0.1,0.4-0.4,0.4-0.9c0-0.3-0.1-0.6-0.2-0.8
				c0.4-0.3,0.6-0.6,0.6-0.9v-2.3v0c0-0.4-0.2-0.7-0.7-1c0,0,0,0,0,0v0V10.2z M21.1,15L21.1,15c0,0.1,0,0.3,0.1,0.4
				C21.1,15.2,21.1,15.1,21.1,15z M22,4.4C22,4.4,22,4.5,22,4.4L22,4.4C22,4.5,22,4.4,22,4.4c-0.1,0-0.2-0.1-0.2-0.1
				C21.8,4.4,21.9,4.4,22,4.4z M21.6,4.8c0,0.1-0.1,0.1-0.1,0.2c0,0.1,0,0.3,0.1,0.4l0,0c-0.1-0.1-0.1-0.3-0.1-0.4
				C21.5,4.9,21.6,4.8,21.6,4.8z M21.3,12.6c0.3,0.1,0.6,0.2,0.9,0.2C21.9,12.7,21.6,12.7,21.3,12.6z M22.5,16.5
				c-0.1,0.1-0.3,0.1-0.5,0C22.3,16.6,22.4,16.6,22.5,16.5L22.5,16.5L22.5,16.5z M23,15.1L23,15.1L23,15.1L23,15.1L23,15.1z"/>
			<path class="st40" d="M24.3,7.4c-0.1,0.1-0.2,0.2-0.3,0.2C24.1,7.6,24.2,7.5,24.3,7.4z M22.9,16.8c0.1-0.1,0.1-0.3,0.1-0.5
				c0-0.1,0-0.1,0-0.2l0,0c0,0.1,0,0.1,0,0.2C23,16.4,22.9,16.6,22.9,16.8z M22.9,15.6c0-0.1-0.1-0.2-0.1-0.3
				C22.8,15.4,22.8,15.5,22.9,15.6L22.9,15.6z M24,10.2v-0.2V9.9V9.7V9.6V9.4V9.3V9.1v0c0,0,0,0,0,0c0.5-0.3,0.7-0.6,0.7-1V6.7v0
				c0-0.4-0.2-0.7-0.7-1c0,0-0.1,0-0.1,0v0c0-0.2-0.1-0.4-0.3-0.6c0,0,0,0,0-0.1c0-0.5-0.3-1-0.7-1.3c-0.2-0.1-0.4-0.1-0.5-0.1
				l-1.2,0.7C21,4.5,21,4.6,21,4.8c0,0,0,0.1,0,0.1c-0.1,0-0.1,0-0.1,0c-0.1,0-0.1,0.1-0.1,0.2v0.5c0,0-0.1,0-0.1,0
				c-0.5,0.3-0.7,0.6-0.7,1c0,0.1,0,0.1,0,0.2c0-0.1,0-0.1,0-0.2v1.4c0,0.4,0.2,0.7,0.7,1c0,0,0,0,0,0v0v0.2v0.2v0.2v0.2v0.2v0.2
				v0.2v0.2v0c0,0,0,0,0,0c-0.5,0.3-0.7,0.6-0.7,1c0,0.1,0,0.1,0,0.2c0-0.1,0-0.1,0-0.2v2.3c0,0.3,0.1,0.5,0.4,0.8
				c0,0.1,0,0.1,0,0.2c0,0.9,0.6,1.9,1.3,2.3c0.4,0.2,0.7,0.2,0.9,0.1h0l1.4-0.8c0.2-0.1,0.4-0.4,0.4-0.9c0-0.3-0.1-0.6-0.2-0.8
				c0.4-0.3,0.6-0.6,0.6-0.9v-2.3v0c0-0.4-0.2-0.7-0.7-1c0,0,0,0,0,0v0V10.2z M20.8,15L20.8,15c0,0.1,0,0.3,0.1,0.4
				C20.8,15.2,20.8,15.1,20.8,15z M21.7,4.4C21.7,4.4,21.7,4.5,21.7,4.4L21.7,4.4C21.7,4.5,21.7,4.4,21.7,4.4
				c-0.1,0-0.2-0.1-0.2-0.1C21.5,4.4,21.6,4.4,21.7,4.4z M21.3,4.8c0,0.1-0.1,0.1-0.1,0.2c0,0.1,0,0.3,0.1,0.4l0,0
				c-0.1-0.1-0.1-0.3-0.1-0.4C21.2,4.9,21.3,4.8,21.3,4.8z M21,12.6c0.3,0.1,0.6,0.2,0.9,0.2C21.6,12.7,21.3,12.7,21,12.6z
				 M22.2,16.5c-0.1,0.1-0.3,0.1-0.5,0C22,16.6,22.1,16.6,22.2,16.5L22.2,16.5L22.2,16.5z M22.7,15.1L22.7,15.1L22.7,15.1L22.7,15.1
				L22.7,15.1z"/>
			<path class="st41" d="M24,7.4c-0.1,0.1-0.2,0.2-0.3,0.2C23.8,7.6,23.9,7.5,24,7.4z M22.6,16.8c0.1-0.1,0.1-0.3,0.1-0.5
				c0-0.1,0-0.1,0-0.2l0,0c0,0.1,0,0.1,0,0.2C22.7,16.4,22.6,16.6,22.6,16.8z M22.6,15.6c0-0.1-0.1-0.2-0.1-0.3
				C22.5,15.4,22.5,15.5,22.6,15.6L22.6,15.6z M23.7,10.2v-0.2V9.9V9.7V9.6V9.4V9.3V9.1v0c0,0,0,0,0,0c0.5-0.3,0.7-0.6,0.7-1V6.7v0
				c0-0.4-0.2-0.7-0.7-1c0,0-0.1,0-0.1,0v0c0-0.2-0.1-0.4-0.3-0.6c0,0,0,0,0-0.1c0-0.5-0.3-1-0.7-1.3c-0.2-0.1-0.4-0.1-0.5-0.1
				l-1.2,0.7c-0.1,0.1-0.2,0.2-0.2,0.5c0,0,0,0.1,0,0.1c-0.1,0-0.1,0-0.1,0c-0.1,0-0.1,0.1-0.1,0.2v0.5c0,0-0.1,0-0.1,0
				c-0.5,0.3-0.7,0.6-0.7,1c0,0.1,0,0.1,0,0.2c0-0.1,0-0.1,0-0.2v1.4c0,0.4,0.2,0.7,0.7,1c0,0,0,0,0,0v0v0.2v0.2v0.2v0.2v0.2v0.2
				v0.2v0.2v0c0,0,0,0,0,0c-0.5,0.3-0.7,0.6-0.7,1c0,0.1,0,0.1,0,0.2c0-0.1,0-0.1,0-0.2v2.3c0,0.3,0.1,0.5,0.4,0.8
				c0,0.1,0,0.1,0,0.2c0,0.9,0.6,1.9,1.3,2.3c0.4,0.2,0.7,0.2,0.9,0.1h0l1.4-0.8c0.2-0.1,0.4-0.4,0.4-0.9c0-0.3-0.1-0.6-0.2-0.8
				c0.4-0.3,0.6-0.6,0.6-0.9v-2.3v0c0-0.4-0.2-0.7-0.7-1c0,0,0,0,0,0v0V10.2z M20.5,15L20.5,15c0,0.1,0,0.3,0.1,0.4
				C20.5,15.2,20.5,15.1,20.5,15z M21.4,4.4C21.4,4.4,21.4,4.5,21.4,4.4L21.4,4.4C21.4,4.5,21.4,4.4,21.4,4.4
				c-0.1,0-0.2-0.1-0.2-0.1C21.2,4.4,21.3,4.4,21.4,4.4z M21,4.8c0,0.1-0.1,0.1-0.1,0.2c0,0.1,0,0.3,0.1,0.4l0,0
				C21,5.3,20.9,5.1,20.9,5C20.9,4.9,21,4.8,21,4.8z M20.7,12.6c0.3,0.1,0.6,0.2,0.9,0.2C21.3,12.7,21,12.7,20.7,12.6z M21.9,16.5
				c-0.1,0.1-0.3,0.1-0.5,0C21.7,16.6,21.8,16.6,21.9,16.5L21.9,16.5L21.9,16.5z M22.4,15.1L22.4,15.1L22.4,15.1L22.4,15.1
				L22.4,15.1z"/>
			<path class="st42" d="M23.7,7.4c-0.1,0.1-0.2,0.2-0.3,0.2C23.5,7.6,23.6,7.5,23.7,7.4z M22.3,16.8c0.1-0.1,0.1-0.3,0.1-0.5
				c0-0.1,0-0.1,0-0.2l0,0c0,0.1,0,0.1,0,0.2C22.4,16.4,22.3,16.6,22.3,16.8z M22.3,15.6c0-0.1-0.1-0.2-0.1-0.3
				C22.2,15.4,22.2,15.5,22.3,15.6L22.3,15.6z M23.4,10.2v-0.2V9.9V9.7V9.6V9.4V9.3V9.1v0c0,0,0,0,0,0c0.5-0.3,0.7-0.6,0.7-1V6.7v0
				c0-0.4-0.2-0.7-0.7-1c0,0-0.1,0-0.1,0v0c0-0.2-0.1-0.4-0.3-0.6c0,0,0,0,0-0.1c0-0.5-0.3-1-0.7-1.3c-0.2-0.1-0.4-0.1-0.5-0.1
				l-1.2,0.7c-0.1,0.1-0.2,0.2-0.2,0.5c0,0,0,0.1,0,0.1c-0.1,0-0.1,0-0.1,0c-0.1,0-0.1,0.1-0.1,0.2v0.5c0,0-0.1,0-0.1,0
				c-0.5,0.3-0.7,0.6-0.7,1c0,0.1,0,0.1,0,0.2c0-0.1,0-0.1,0-0.2v1.4c0,0.4,0.2,0.7,0.7,1c0,0,0,0,0,0v0v0.2v0.2v0.2v0.2v0.2v0.2
				v0.2v0.2v0c0,0,0,0,0,0c-0.5,0.3-0.7,0.6-0.7,1c0,0.1,0,0.1,0,0.2c0-0.1,0-0.1,0-0.2v2.3c0,0.3,0.1,0.5,0.4,0.8
				c0,0.1,0,0.1,0,0.2c0,0.9,0.6,1.9,1.3,2.3c0.4,0.2,0.7,0.2,0.9,0.1h0l1.4-0.8c0.2-0.1,0.4-0.4,0.4-0.9c0-0.3-0.1-0.6-0.2-0.8
				c0.4-0.3,0.6-0.6,0.6-0.9v-2.3v0c0-0.4-0.2-0.7-0.7-1c0,0,0,0,0,0v0V10.2z M20.2,15L20.2,15c0,0.1,0,0.3,0.1,0.4
				C20.2,15.2,20.2,15.1,20.2,15z M21.1,4.4C21.1,4.4,21.1,4.5,21.1,4.4L21.1,4.4C21.1,4.5,21.1,4.4,21.1,4.4
				c-0.1,0-0.2-0.1-0.2-0.1C20.9,4.4,21,4.4,21.1,4.4z M20.7,4.8c0,0.1-0.1,0.1-0.1,0.2c0,0.1,0,0.3,0.1,0.4l0,0
				c-0.1-0.1-0.1-0.3-0.1-0.4C20.6,4.9,20.7,4.8,20.7,4.8z M20.4,12.6c0.3,0.1,0.6,0.2,0.9,0.2C21,12.7,20.7,12.7,20.4,12.6z
				 M21.6,16.5c-0.1,0.1-0.3,0.1-0.5,0C21.4,16.6,21.5,16.6,21.6,16.5L21.6,16.5L21.6,16.5z M22.1,15.1L22.1,15.1L22.1,15.1
				L22.1,15.1L22.1,15.1z"/>
			<path class="st43" d="M23.4,7.4c-0.1,0.1-0.2,0.2-0.3,0.2C23.2,7.6,23.3,7.5,23.4,7.4z M22,16.8c0.1-0.1,0.1-0.3,0.1-0.5
				c0-0.1,0-0.1,0-0.2l0,0c0,0.1,0,0.1,0,0.2C22.1,16.4,22,16.6,22,16.8z M22,15.6c0-0.1-0.1-0.2-0.1-0.3
				C21.9,15.4,21.9,15.5,22,15.6L22,15.6z M23.1,10.2v-0.2V9.9V9.7V9.6V9.4V9.3V9.1v0c0,0,0,0,0,0c0.5-0.3,0.7-0.6,0.7-1V6.7v0
				c0-0.4-0.2-0.7-0.7-1c0,0-0.1,0-0.1,0v0c0-0.2-0.1-0.4-0.3-0.6c0,0,0,0,0-0.1c0-0.5-0.3-1-0.7-1.3c-0.2-0.1-0.4-0.1-0.5-0.1
				l-1.2,0.7c-0.1,0.1-0.2,0.2-0.2,0.5c0,0,0,0.1,0,0.1c-0.1,0-0.1,0-0.1,0c-0.1,0-0.1,0.1-0.1,0.2v0.5c0,0-0.1,0-0.1,0
				c-0.5,0.3-0.7,0.6-0.7,1c0,0.1,0,0.1,0,0.2c0-0.1,0-0.1,0-0.2v1.4c0,0.4,0.2,0.7,0.7,1c0,0,0,0,0,0v0v0.2v0.2v0.2v0.2v0.2v0.2
				v0.2v0.2v0c0,0,0,0,0,0c-0.5,0.3-0.7,0.6-0.7,1c0,0.1,0,0.1,0,0.2c0-0.1,0-0.1,0-0.2v2.3c0,0.3,0.1,0.5,0.4,0.8
				c0,0.1,0,0.1,0,0.2c0,0.9,0.6,1.9,1.3,2.3c0.4,0.2,0.7,0.2,0.9,0.1h0l1.4-0.8c0.2-0.1,0.4-0.4,0.4-0.9c0-0.3-0.1-0.6-0.2-0.8
				c0.4-0.3,0.6-0.6,0.6-0.9v-2.3v0c0-0.4-0.2-0.7-0.7-1c0,0,0,0,0,0v0V10.2z M19.9,15L19.9,15c0,0.1,0,0.3,0.1,0.4
				C19.9,15.2,19.9,15.1,19.9,15z M20.8,4.4C20.8,4.4,20.8,4.5,20.8,4.4L20.8,4.4C20.8,4.5,20.8,4.4,20.8,4.4
				c-0.1,0-0.2-0.1-0.2-0.1C20.6,4.4,20.7,4.4,20.8,4.4z M20.4,4.8c0,0.1-0.1,0.1-0.1,0.2c0,0.1,0,0.3,0.1,0.4l0,0
				c-0.1-0.1-0.1-0.3-0.1-0.4C20.3,4.9,20.4,4.8,20.4,4.8z M20.1,12.6c0.3,0.1,0.6,0.2,0.9,0.2C20.7,12.7,20.4,12.7,20.1,12.6z
				 M21.3,16.5c-0.1,0.1-0.3,0.1-0.5,0C21.1,16.6,21.2,16.6,21.3,16.5L21.3,16.5L21.3,16.5z M21.8,15.1L21.8,15.1L21.8,15.1
				L21.8,15.1L21.8,15.1z"/>
			<path class="st44" d="M23.1,7.4c-0.1,0.1-0.2,0.2-0.3,0.2C22.9,7.6,23,7.5,23.1,7.4z M21.7,16.8c0.1-0.1,0.1-0.3,0.1-0.5
				c0-0.1,0-0.1,0-0.2l0,0c0,0.1,0,0.1,0,0.2C21.8,16.4,21.7,16.6,21.7,16.8z M21.7,15.6c0-0.1-0.1-0.2-0.1-0.3
				C21.6,15.4,21.6,15.5,21.7,15.6L21.7,15.6z M22.8,10.2v-0.2V9.9V9.7V9.6V9.4V9.3V9.1v0c0,0,0,0,0,0c0.5-0.3,0.7-0.6,0.7-1V6.7v0
				c0-0.4-0.2-0.7-0.7-1c0,0-0.1,0-0.1,0v0c0-0.2-0.1-0.4-0.3-0.6c0,0,0,0,0-0.1c0-0.5-0.3-1-0.7-1.3c-0.2-0.1-0.4-0.1-0.5-0.1
				L20,4.4c-0.1,0.1-0.2,0.2-0.2,0.5c0,0,0,0.1,0,0.1c-0.1,0-0.1,0-0.1,0c-0.1,0-0.1,0.1-0.1,0.2v0.5c0,0-0.1,0-0.1,0
				c-0.5,0.3-0.7,0.6-0.7,1c0,0.1,0,0.1,0,0.2c0-0.1,0-0.1,0-0.2v1.4c0,0.4,0.2,0.7,0.7,1c0,0,0,0,0,0v0v0.2v0.2v0.2v0.2v0.2v0.2
				v0.2v0.2v0c0,0,0,0,0,0c-0.5,0.3-0.7,0.6-0.7,1c0,0.1,0,0.1,0,0.2c0-0.1,0-0.1,0-0.2v2.3c0,0.3,0.1,0.5,0.4,0.8
				c0,0.1,0,0.1,0,0.2c0,0.9,0.6,1.9,1.3,2.3c0.4,0.2,0.7,0.2,0.9,0.1h0l1.4-0.8c0.2-0.1,0.4-0.4,0.4-0.9c0-0.3-0.1-0.6-0.2-0.8
				c0.4-0.3,0.6-0.6,0.6-0.9v-2.3v0c0-0.4-0.2-0.7-0.7-1c0,0,0,0,0,0v0V10.2z M19.6,15L19.6,15c0,0.1,0,0.3,0.1,0.4
				C19.6,15.2,19.6,15.1,19.6,15z M20.5,4.4C20.5,4.4,20.5,4.5,20.5,4.4L20.5,4.4C20.5,4.5,20.5,4.4,20.5,4.4
				c-0.1,0-0.2-0.1-0.2-0.1C20.3,4.4,20.4,4.4,20.5,4.4z M20.1,4.8C20.1,4.8,20,4.9,20,5c0,0.1,0,0.3,0.1,0.4l0,0
				C20.1,5.3,20,5.1,20,5C20,4.9,20.1,4.8,20.1,4.8z M19.8,12.6c0.3,0.1,0.6,0.2,0.9,0.2C20.4,12.7,20.1,12.7,19.8,12.6z M21,16.5
				c-0.1,0.1-0.3,0.1-0.5,0C20.8,16.6,20.9,16.6,21,16.5L21,16.5L21,16.5z M21.5,15.1L21.5,15.1L21.5,15.1L21.5,15.1L21.5,15.1z"/>
			<path class="st45" d="M22.8,7.4c-0.1,0.1-0.2,0.2-0.3,0.2C22.6,7.6,22.7,7.5,22.8,7.4z M21.4,16.8c0.1-0.1,0.1-0.3,0.1-0.5
				c0-0.1,0-0.1,0-0.2l0,0c0,0.1,0,0.1,0,0.2C21.5,16.4,21.4,16.6,21.4,16.8z M21.4,15.6c0-0.1-0.1-0.2-0.1-0.3
				C21.3,15.4,21.3,15.5,21.4,15.6L21.4,15.6z M22.5,10.2v-0.2V9.9V9.7V9.6V9.4V9.3V9.1v0c0,0,0,0,0,0c0.5-0.3,0.7-0.6,0.7-1V6.7v0
				c0-0.4-0.2-0.7-0.7-1c0,0-0.1,0-0.1,0v0c0-0.2-0.1-0.4-0.3-0.6c0,0,0,0,0-0.1c0-0.5-0.3-1-0.7-1.3c-0.2-0.1-0.4-0.1-0.5-0.1
				l-1.2,0.7c-0.1,0.1-0.2,0.2-0.2,0.5c0,0,0,0.1,0,0.1c-0.1,0-0.1,0-0.1,0c-0.1,0-0.1,0.1-0.1,0.2v0.5c0,0-0.1,0-0.1,0
				c-0.5,0.3-0.7,0.6-0.7,1c0,0.1,0,0.1,0,0.2c0-0.1,0-0.1,0-0.2v1.4c0,0.4,0.2,0.7,0.7,1c0,0,0,0,0,0v0v0.2v0.2v0.2v0.2v0.2v0.2
				v0.2v0.2v0c0,0,0,0,0,0c-0.5,0.3-0.7,0.6-0.7,1c0,0.1,0,0.1,0,0.2c0-0.1,0-0.1,0-0.2v2.3c0,0.3,0.1,0.5,0.4,0.8
				c0,0.1,0,0.1,0,0.2c0,0.9,0.6,1.9,1.3,2.3c0.4,0.2,0.7,0.2,0.9,0.1h0l1.4-0.8c0.2-0.1,0.4-0.4,0.4-0.9c0-0.3-0.1-0.6-0.2-0.8
				c0.4-0.3,0.6-0.6,0.6-0.9v-2.3v0c0-0.4-0.2-0.7-0.7-1c0,0,0,0,0,0v0V10.2z M19.3,15L19.3,15c0,0.1,0,0.3,0.1,0.4
				C19.3,15.2,19.3,15.1,19.3,15z M20.2,4.4C20.2,4.4,20.2,4.5,20.2,4.4L20.2,4.4C20.2,4.5,20.2,4.4,20.2,4.4
				c-0.1,0-0.2-0.1-0.2-0.1C20,4.4,20.1,4.4,20.2,4.4z M19.8,4.8c0,0.1-0.1,0.1-0.1,0.2c0,0.1,0,0.3,0.1,0.4l0,0
				c-0.1-0.1-0.1-0.3-0.1-0.4C19.7,4.9,19.8,4.8,19.8,4.8z M19.5,12.6c0.3,0.1,0.6,0.2,0.9,0.2C20.1,12.7,19.8,12.7,19.5,12.6z
				 M20.7,16.5c-0.1,0.1-0.3,0.1-0.5,0C20.5,16.6,20.6,16.6,20.7,16.5L20.7,16.5L20.7,16.5z M21.2,15.1L21.2,15.1L21.2,15.1
				L21.2,15.1L21.2,15.1z"/>
			<path class="st46" d="M22.5,7.4c-0.1,0.1-0.2,0.2-0.3,0.2C22.3,7.6,22.4,7.5,22.5,7.4z M21.1,16.8c0.1-0.1,0.1-0.3,0.1-0.5
				c0-0.1,0-0.1,0-0.2l0,0c0,0.1,0,0.1,0,0.2C21.2,16.4,21.1,16.6,21.1,16.8z M21.1,15.6c0-0.1-0.1-0.2-0.1-0.3
				C21,15.4,21,15.5,21.1,15.6L21.1,15.6z M22.2,10.2v-0.2V9.9V9.7V9.6V9.4V9.3V9.1v0c0,0,0,0,0,0c0.5-0.3,0.7-0.6,0.7-1V6.7v0
				c0-0.4-0.2-0.7-0.7-1c0,0-0.1,0-0.1,0v0c0-0.2-0.1-0.4-0.3-0.6c0,0,0,0,0-0.1c0-0.5-0.3-1-0.7-1.3c-0.2-0.1-0.4-0.1-0.5-0.1
				l-1.2,0.7c-0.1,0.1-0.2,0.2-0.2,0.5c0,0,0,0.1,0,0.1c-0.1,0-0.1,0-0.1,0c-0.1,0-0.1,0.1-0.1,0.2v0.5c0,0-0.1,0-0.1,0
				c-0.5,0.3-0.7,0.6-0.7,1c0,0.1,0,0.1,0,0.2c0-0.1,0-0.1,0-0.2v1.4c0,0.4,0.2,0.7,0.7,1c0,0,0,0,0,0v0v0.2v0.2v0.2v0.2v0.2v0.2
				v0.2v0.2v0c0,0,0,0,0,0c-0.5,0.3-0.7,0.6-0.7,1c0,0.1,0,0.1,0,0.2c0-0.1,0-0.1,0-0.2v2.3c0,0.3,0.1,0.5,0.4,0.8
				c0,0.1,0,0.1,0,0.2c0,0.9,0.6,1.9,1.3,2.3c0.4,0.2,0.7,0.2,0.9,0.1h0l1.4-0.8c0.2-0.1,0.4-0.4,0.4-0.9c0-0.3-0.1-0.6-0.2-0.8
				c0.4-0.3,0.6-0.6,0.6-0.9v-2.3v0c0-0.4-0.2-0.7-0.7-1c0,0,0,0,0,0v0V10.2z M19,15L19,15c0,0.1,0,0.3,0.1,0.4
				C19,15.2,19,15.1,19,15z M19.9,4.4C19.9,4.4,19.9,4.5,19.9,4.4L19.9,4.4C19.9,4.5,19.9,4.4,19.9,4.4c-0.1,0-0.2-0.1-0.2-0.1
				C19.7,4.4,19.8,4.4,19.9,4.4z M19.5,4.8c0,0.1-0.1,0.1-0.1,0.2c0,0.1,0,0.3,0.1,0.4l0,0c-0.1-0.1-0.1-0.3-0.1-0.4
				C19.4,4.9,19.5,4.8,19.5,4.8z M19.2,12.6c0.3,0.1,0.6,0.2,0.9,0.2C19.8,12.7,19.5,12.7,19.2,12.6z M20.4,16.5
				c-0.1,0.1-0.3,0.1-0.5,0C20.2,16.6,20.3,16.6,20.4,16.5L20.4,16.5L20.4,16.5z M20.9,15.1L20.9,15.1L20.9,15.1L20.9,15.1
				L20.9,15.1z"/>
			<path class="st47" d="M22.2,7.4c-0.1,0.1-0.2,0.2-0.3,0.2C22,7.6,22.1,7.5,22.2,7.4z M20.8,16.8c0.1-0.1,0.1-0.3,0.1-0.5
				c0-0.1,0-0.1,0-0.2l0,0c0,0.1,0,0.1,0,0.2C20.9,16.4,20.8,16.6,20.8,16.8z M20.8,15.6c0-0.1-0.1-0.2-0.1-0.3
				C20.7,15.4,20.7,15.5,20.8,15.6L20.8,15.6z M21.9,10.2v-0.2V9.9V9.7V9.6V9.4V9.3V9.1v0c0,0,0,0,0,0c0.5-0.3,0.7-0.6,0.7-1V6.7v0
				c0-0.4-0.2-0.7-0.7-1c0,0-0.1,0-0.1,0v0c0-0.2-0.1-0.4-0.3-0.6c0,0,0,0,0-0.1c0-0.5-0.3-1-0.7-1.3c-0.2-0.1-0.4-0.1-0.5-0.1
				l-1.2,0.7c-0.1,0.1-0.2,0.2-0.2,0.5c0,0,0,0.1,0,0.1c-0.1,0-0.1,0-0.1,0c-0.1,0-0.1,0.1-0.1,0.2v0.5c0,0-0.1,0-0.1,0
				c-0.5,0.3-0.7,0.6-0.7,1c0,0.1,0,0.1,0,0.2c0-0.1,0-0.1,0-0.2v1.4c0,0.4,0.2,0.7,0.7,1c0,0,0,0,0,0v0v0.2v0.2v0.2v0.2v0.2v0.2
				v0.2v0.2v0c0,0,0,0,0,0c-0.5,0.3-0.7,0.6-0.7,1c0,0.1,0,0.1,0,0.2c0-0.1,0-0.1,0-0.2v2.3c0,0.3,0.1,0.5,0.4,0.8
				c0,0.1,0,0.1,0,0.2c0,0.9,0.6,1.9,1.3,2.3c0.4,0.2,0.7,0.2,0.9,0.1h0l1.4-0.8c0.2-0.1,0.4-0.4,0.4-0.9c0-0.3-0.1-0.6-0.2-0.8
				c0.4-0.3,0.6-0.6,0.6-0.9v-2.3v0c0-0.4-0.2-0.7-0.7-1c0,0,0,0,0,0v0V10.2z M18.7,15L18.7,15c0,0.1,0,0.3,0.1,0.4
				C18.7,15.2,18.7,15.1,18.7,15z M19.6,4.4C19.6,4.4,19.6,4.5,19.6,4.4L19.6,4.4C19.6,4.5,19.6,4.4,19.6,4.4
				c-0.1,0-0.2-0.1-0.2-0.1C19.4,4.4,19.5,4.4,19.6,4.4z M19.2,4.8c0,0.1-0.1,0.1-0.1,0.2c0,0.1,0,0.3,0.1,0.4l0,0
				c-0.1-0.1-0.1-0.3-0.1-0.4C19.1,4.9,19.2,4.8,19.2,4.8z M18.9,12.6c0.3,0.1,0.6,0.2,0.9,0.2C19.5,12.7,19.2,12.7,18.9,12.6z
				 M20.1,16.5c-0.1,0.1-0.3,0.1-0.5,0C19.9,16.6,20,16.6,20.1,16.5L20.1,16.5L20.1,16.5z M20.6,15.1L20.6,15.1L20.6,15.1L20.6,15.1
				L20.6,15.1z"/>
			<path class="st48" d="M21.9,7.4c-0.1,0.1-0.2,0.2-0.3,0.2C21.7,7.6,21.8,7.5,21.9,7.4z M20.5,16.8c0.1-0.1,0.1-0.3,0.1-0.5
				c0-0.1,0-0.1,0-0.2l0,0c0,0.1,0,0.1,0,0.2C20.6,16.4,20.5,16.6,20.5,16.8z M20.5,15.6c0-0.1-0.1-0.2-0.1-0.3
				C20.4,15.4,20.4,15.5,20.5,15.6L20.5,15.6z M21.6,10.2v-0.2V9.9V9.7V9.6V9.4V9.3V9.1v0c0,0,0,0,0,0c0.5-0.3,0.7-0.6,0.7-1V6.7v0
				c0-0.4-0.2-0.7-0.7-1c0,0-0.1,0-0.1,0v0c0-0.2-0.1-0.4-0.3-0.6c0,0,0,0,0-0.1c0-0.5-0.3-1-0.7-1.3c-0.2-0.1-0.4-0.1-0.5-0.1
				l-1.2,0.7c-0.1,0.1-0.2,0.2-0.2,0.5c0,0,0,0.1,0,0.1c-0.1,0-0.1,0-0.1,0c-0.1,0-0.1,0.1-0.1,0.2v0.5c0,0-0.1,0-0.1,0
				c-0.5,0.3-0.7,0.6-0.7,1c0,0.1,0,0.1,0,0.2c0-0.1,0-0.1,0-0.2v1.4c0,0.4,0.2,0.7,0.7,1c0,0,0,0,0,0v0v0.2v0.2v0.2v0.2v0.2v0.2
				v0.2v0.2v0c0,0,0,0,0,0c-0.5,0.3-0.7,0.6-0.7,1c0,0.1,0,0.1,0,0.2c0-0.1,0-0.1,0-0.2v2.3c0,0.3,0.1,0.5,0.4,0.8
				c0,0.1,0,0.1,0,0.2c0,0.9,0.6,1.9,1.3,2.3c0.4,0.2,0.7,0.2,0.9,0.1h0l1.4-0.8c0.2-0.1,0.4-0.4,0.4-0.9c0-0.3-0.1-0.6-0.2-0.8
				c0.4-0.3,0.6-0.6,0.6-0.9v-2.3v0c0-0.4-0.2-0.7-0.7-1c0,0,0,0,0,0v0V10.2z M18.4,15L18.4,15c0,0.1,0,0.3,0.1,0.4
				C18.4,15.2,18.4,15.1,18.4,15z M19.3,4.4C19.3,4.4,19.3,4.5,19.3,4.4L19.3,4.4C19.3,4.5,19.3,4.4,19.3,4.4
				c-0.1,0-0.2-0.1-0.2-0.1C19.1,4.4,19.2,4.4,19.3,4.4z M18.9,4.8c0,0.1-0.1,0.1-0.1,0.2c0,0.1,0,0.3,0.1,0.4l0,0
				c-0.1-0.1-0.1-0.3-0.1-0.4C18.8,4.9,18.8,4.8,18.9,4.8z M18.6,12.6c0.3,0.1,0.6,0.2,0.9,0.2C19.1,12.7,18.9,12.7,18.6,12.6z
				 M19.8,16.5c-0.1,0.1-0.3,0.1-0.5,0C19.6,16.6,19.7,16.6,19.8,16.5L19.8,16.5L19.8,16.5z M20.3,15.1L20.3,15.1L20.3,15.1
				L20.3,15.1L20.3,15.1z"/>
			<path class="st49" d="M21.6,7.4c-0.1,0.1-0.2,0.2-0.3,0.2C21.4,7.6,21.5,7.5,21.6,7.4z M20.2,16.8c0.1-0.1,0.1-0.3,0.1-0.5
				c0-0.1,0-0.1,0-0.2l0,0c0,0.1,0,0.1,0,0.2C20.3,16.4,20.2,16.6,20.2,16.8z M20.2,15.6c0-0.1-0.1-0.2-0.1-0.3
				C20.1,15.4,20.1,15.5,20.2,15.6L20.2,15.6z M21.3,10.2v-0.2V9.9V9.7V9.6V9.4V9.3V9.1v0c0,0,0,0,0,0c0.5-0.3,0.7-0.6,0.7-1V6.7v0
				c0-0.4-0.2-0.7-0.7-1c0,0-0.1,0-0.1,0v0c0-0.2-0.1-0.4-0.3-0.6c0,0,0,0,0-0.1c0-0.5-0.3-1-0.7-1.3c-0.2-0.1-0.4-0.1-0.5-0.1
				l-1.2,0.7c-0.1,0.1-0.2,0.2-0.2,0.5c0,0,0,0.1,0,0.1c-0.1,0-0.1,0-0.1,0C18,5,18,5.1,18,5.2v0.5c0,0-0.1,0-0.1,0
				c-0.5,0.3-0.7,0.6-0.7,1c0,0.1,0,0.1,0,0.2c0-0.1,0-0.1,0-0.2v1.4c0,0.4,0.2,0.7,0.7,1c0,0,0,0,0,0v0v0.2v0.2v0.2v0.2v0.2v0.2
				v0.2v0.2v0c0,0,0,0,0,0c-0.5,0.3-0.7,0.6-0.7,1c0,0.1,0,0.1,0,0.2c0-0.1,0-0.1,0-0.2v2.3c0,0.3,0.1,0.5,0.4,0.8
				c0,0.1,0,0.1,0,0.2c0,0.9,0.6,1.9,1.3,2.3c0.4,0.2,0.7,0.2,0.9,0.1h0l1.4-0.8c0.2-0.1,0.4-0.4,0.4-0.9c0-0.3-0.1-0.6-0.2-0.8
				c0.4-0.3,0.6-0.6,0.6-0.9v-2.3v0c0-0.4-0.2-0.7-0.7-1c0,0,0,0,0,0v0V10.2z M18.1,15L18.1,15c0,0.1,0,0.3,0.1,0.4
				C18.1,15.2,18.1,15.1,18.1,15z M19,4.4C19,4.4,19,4.5,19,4.4L19,4.4C19,4.5,19,4.4,19,4.4c-0.1,0-0.2-0.1-0.2-0.1
				C18.8,4.4,18.9,4.4,19,4.4z M18.6,4.8c0,0.1-0.1,0.1-0.1,0.2c0,0.1,0,0.3,0.1,0.4l0,0c-0.1-0.1-0.1-0.3-0.1-0.4
				C18.5,4.9,18.5,4.8,18.6,4.8z M18.3,12.6c0.3,0.1,0.6,0.2,0.9,0.2C18.8,12.7,18.6,12.7,18.3,12.6z M19.5,16.5
				c-0.1,0.1-0.3,0.1-0.5,0C19.3,16.6,19.4,16.6,19.5,16.5L19.5,16.5L19.5,16.5z M20,15.1L20,15.1L20,15.1L20,15.1L20,15.1z"/>
			<path class="st50" d="M21.3,7.4c-0.1,0.1-0.2,0.2-0.3,0.2C21.1,7.6,21.2,7.5,21.3,7.4z M19.9,16.8c0.1-0.1,0.1-0.3,0.1-0.5
				c0-0.1,0-0.1,0-0.2l0,0c0,0.1,0,0.1,0,0.2C20,16.4,19.9,16.6,19.9,16.8z M19.9,15.6c0-0.1-0.1-0.2-0.1-0.3
				C19.8,15.4,19.8,15.5,19.9,15.6L19.9,15.6z M21,10.2v-0.2V9.9V9.7V9.6V9.4V9.3V9.1v0c0,0,0,0,0,0c0.5-0.3,0.7-0.6,0.7-1V6.7v0
				c0-0.4-0.2-0.7-0.7-1c0,0-0.1,0-0.1,0v0c0-0.2-0.1-0.4-0.3-0.6c0,0,0,0,0-0.1c0-0.5-0.3-1-0.7-1.3c-0.2-0.1-0.4-0.1-0.5-0.1
				l-1.2,0.7C18,4.5,18,4.6,18,4.8c0,0,0,0.1,0,0.1c-0.1,0-0.1,0-0.1,0c-0.1,0-0.1,0.1-0.1,0.2v0.5c0,0-0.1,0-0.1,0
				c-0.5,0.3-0.7,0.6-0.7,1c0,0.1,0,0.1,0,0.2c0-0.1,0-0.1,0-0.2v1.4c0,0.4,0.2,0.7,0.7,1c0,0,0,0,0,0v0v0.2v0.2v0.2v0.2v0.2v0.2
				v0.2v0.2v0c0,0,0,0,0,0c-0.5,0.3-0.7,0.6-0.7,1c0,0.1,0,0.1,0,0.2c0-0.1,0-0.1,0-0.2v2.3c0,0.3,0.1,0.5,0.4,0.8
				c0,0.1,0,0.1,0,0.2c0,0.9,0.6,1.9,1.3,2.3c0.4,0.2,0.7,0.2,0.9,0.1h0l1.4-0.8c0.2-0.1,0.4-0.4,0.4-0.9c0-0.3-0.1-0.6-0.2-0.8
				c0.4-0.3,0.6-0.6,0.6-0.9v-2.3v0c0-0.4-0.2-0.7-0.7-1c0,0,0,0,0,0v0V10.2z M17.8,15L17.8,15c0,0.1,0,0.3,0.1,0.4
				C17.8,15.2,17.8,15.1,17.8,15z M18.7,4.4C18.7,4.4,18.7,4.5,18.7,4.4L18.7,4.4C18.7,4.5,18.7,4.4,18.7,4.4
				c-0.1,0-0.2-0.1-0.2-0.1C18.5,4.4,18.6,4.4,18.7,4.4z M18.3,4.8c0,0.1-0.1,0.1-0.1,0.2c0,0.1,0,0.3,0.1,0.4l0,0
				c-0.1-0.1-0.1-0.3-0.1-0.4C18.2,4.9,18.2,4.8,18.3,4.8z M18,12.6c0.3,0.1,0.6,0.2,0.9,0.2C18.5,12.7,18.3,12.7,18,12.6z
				 M19.2,16.5c-0.1,0.1-0.3,0.1-0.5,0C19,16.6,19.1,16.6,19.2,16.5L19.2,16.5L19.2,16.5z M19.7,15.1L19.7,15.1L19.7,15.1L19.7,15.1
				L19.7,15.1z"/>
			<path class="st51" d="M21,7.4c-0.1,0.1-0.2,0.2-0.3,0.2C20.8,7.6,20.9,7.5,21,7.4z M19.6,16.8c0.1-0.1,0.1-0.3,0.1-0.5
				c0-0.1,0-0.1,0-0.2l0,0c0,0.1,0,0.1,0,0.2C19.7,16.4,19.6,16.6,19.6,16.8z M19.6,15.6c0-0.1-0.1-0.2-0.1-0.3
				C19.5,15.4,19.5,15.5,19.6,15.6L19.6,15.6z M20.7,10.2v-0.2V9.9V9.7V9.6V9.4V9.3V9.1v0c0,0,0,0,0,0c0.5-0.3,0.7-0.6,0.7-1V6.7v0
				c0-0.4-0.2-0.7-0.7-1c0,0-0.1,0-0.1,0v0c0-0.2-0.1-0.4-0.3-0.6c0,0,0,0,0-0.1c0-0.5-0.3-1-0.7-1.3c-0.2-0.1-0.4-0.1-0.5-0.1
				l-1.2,0.7c-0.1,0.1-0.2,0.2-0.2,0.5c0,0,0,0.1,0,0.1c-0.1,0-0.1,0-0.1,0c-0.1,0-0.1,0.1-0.1,0.2v0.5c0,0-0.1,0-0.1,0
				c-0.5,0.3-0.7,0.6-0.7,1c0,0.1,0,0.1,0,0.2c0-0.1,0-0.1,0-0.2v1.4c0,0.4,0.2,0.7,0.7,1c0,0,0,0,0,0v0v0.2v0.2v0.2v0.2v0.2v0.2
				v0.2v0.2v0c0,0,0,0,0,0c-0.5,0.3-0.7,0.6-0.7,1c0,0.1,0,0.1,0,0.2c0-0.1,0-0.1,0-0.2v2.3c0,0.3,0.1,0.5,0.4,0.8
				c0,0.1,0,0.1,0,0.2c0,0.9,0.6,1.9,1.3,2.3c0.4,0.2,0.7,0.2,0.9,0.1h0l1.4-0.8c0.2-0.1,0.4-0.4,0.4-0.9c0-0.3-0.1-0.6-0.2-0.8
				c0.4-0.3,0.6-0.6,0.6-0.9v-2.3v0c0-0.4-0.2-0.7-0.7-1c0,0,0,0,0,0v0V10.2z M17.5,15L17.5,15c0,0.1,0,0.3,0.1,0.4
				C17.5,15.2,17.5,15.1,17.5,15z M18.4,4.4C18.4,4.4,18.4,4.5,18.4,4.4L18.4,4.4C18.4,4.5,18.4,4.4,18.4,4.4
				c-0.1,0-0.2-0.1-0.2-0.1C18.2,4.4,18.3,4.4,18.4,4.4z M18,4.8c0,0.1-0.1,0.1-0.1,0.2c0,0.1,0,0.3,0.1,0.4l0,0
				C18,5.3,17.9,5.1,17.9,5C17.9,4.9,17.9,4.8,18,4.8z M17.7,12.6c0.3,0.1,0.6,0.2,0.9,0.2C18.2,12.7,18,12.7,17.7,12.6z M18.9,16.5
				c-0.1,0.1-0.3,0.1-0.5,0C18.7,16.6,18.8,16.6,18.9,16.5L18.9,16.5L18.9,16.5z M19.4,15.1L19.4,15.1L19.4,15.1L19.4,15.1
				L19.4,15.1z"/>
			<path class="st52" d="M20.7,7.4c-0.1,0.1-0.2,0.2-0.3,0.2C20.5,7.6,20.6,7.5,20.7,7.4z M19.3,16.8c0.1-0.1,0.1-0.3,0.1-0.5
				c0-0.1,0-0.1,0-0.2l0,0c0,0.1,0,0.1,0,0.2C19.4,16.4,19.3,16.6,19.3,16.8z M19.3,15.6c0-0.1-0.1-0.2-0.1-0.3
				C19.2,15.4,19.2,15.5,19.3,15.6L19.3,15.6z M20.4,10.2v-0.2V9.9V9.7V9.6V9.4V9.3V9.1v0c0,0,0,0,0,0c0.5-0.3,0.7-0.6,0.7-1V6.7v0
				c0-0.4-0.2-0.7-0.7-1c0,0-0.1,0-0.1,0v0c0-0.2-0.1-0.4-0.3-0.6c0,0,0,0,0-0.1c0-0.5-0.3-1-0.7-1.3c-0.2-0.1-0.4-0.1-0.5-0.1
				l-1.2,0.7c-0.1,0.1-0.2,0.2-0.2,0.5c0,0,0,0.1,0,0.1c-0.1,0-0.1,0-0.1,0c-0.1,0-0.1,0.1-0.1,0.2v0.5c0,0-0.1,0-0.1,0
				c-0.5,0.3-0.7,0.6-0.7,1c0,0.1,0,0.1,0,0.2c0-0.1,0-0.1,0-0.2v1.4c0,0.4,0.2,0.7,0.7,1c0,0,0,0,0,0v0v0.2v0.2v0.2v0.2v0.2v0.2
				v0.2v0.2v0c0,0,0,0,0,0c-0.5,0.3-0.7,0.6-0.7,1c0,0.1,0,0.1,0,0.2c0-0.1,0-0.1,0-0.2v2.3c0,0.3,0.1,0.5,0.4,0.8
				c0,0.1,0,0.1,0,0.2c0,0.9,0.6,1.9,1.3,2.3c0.4,0.2,0.7,0.2,0.9,0.1h0l1.4-0.8c0.2-0.1,0.4-0.4,0.4-0.9c0-0.3-0.1-0.6-0.2-0.8
				c0.4-0.3,0.6-0.6,0.6-0.9v-2.3v0c0-0.4-0.2-0.7-0.7-1c0,0,0,0,0,0v0V10.2z M17.2,15L17.2,15c0,0.1,0,0.3,0.1,0.4
				C17.2,15.2,17.2,15.1,17.2,15z M18.1,4.4C18.1,4.4,18.1,4.5,18.1,4.4L18.1,4.4C18.1,4.5,18.1,4.4,18.1,4.4
				c-0.1,0-0.2-0.1-0.2-0.1C17.9,4.4,18,4.4,18.1,4.4z M17.7,4.8c0,0.1-0.1,0.1-0.1,0.2c0,0.1,0,0.3,0.1,0.4l0,0
				c-0.1-0.1-0.1-0.3-0.1-0.4C17.6,4.9,17.6,4.8,17.7,4.8z M17.4,12.6c0.3,0.1,0.6,0.2,0.9,0.2C17.9,12.7,17.7,12.7,17.4,12.6z
				 M18.6,16.5c-0.1,0.1-0.3,0.1-0.5,0C18.4,16.6,18.5,16.6,18.6,16.5L18.6,16.5L18.6,16.5z M19.1,15.1L19.1,15.1L19.1,15.1
				L19.1,15.1L19.1,15.1z"/>
			<path class="st53" d="M20.4,7.4c-0.1,0.1-0.2,0.2-0.3,0.2C20.2,7.6,20.3,7.5,20.4,7.4z M19,16.8c0.1-0.1,0.1-0.3,0.1-0.5
				c0-0.1,0-0.1,0-0.2l0,0c0,0.1,0,0.1,0,0.2C19.1,16.4,19,16.6,19,16.8z M19,15.6c0-0.1-0.1-0.2-0.1-0.3
				C18.9,15.4,18.9,15.5,19,15.6L19,15.6z M20.1,10.2v-0.2V9.9V9.7V9.6V9.4V9.3V9.1v0c0,0,0,0,0,0c0.5-0.3,0.7-0.6,0.7-1V6.7v0
				c0-0.4-0.2-0.7-0.7-1c0,0-0.1,0-0.1,0v0c0-0.2-0.1-0.4-0.3-0.6c0,0,0,0,0-0.1c0-0.5-0.3-1-0.7-1.3c-0.2-0.1-0.4-0.1-0.5-0.1
				l-1.2,0.7C17.1,4.5,17,4.6,17,4.8c0,0,0,0.1,0,0.1c-0.1,0-0.1,0-0.1,0c-0.1,0-0.1,0.1-0.1,0.2v0.5c0,0-0.1,0-0.1,0
				c-0.5,0.3-0.7,0.6-0.7,1c0,0.1,0,0.1,0,0.2c0-0.1,0-0.1,0-0.2v1.4c0,0.4,0.2,0.7,0.7,1c0,0,0,0,0,0v0v0.2v0.2v0.2v0.2v0.2v0.2
				v0.2v0.2v0c0,0,0,0,0,0c-0.5,0.3-0.7,0.6-0.7,1c0,0.1,0,0.1,0,0.2c0-0.1,0-0.1,0-0.2v2.3c0,0.3,0.1,0.5,0.4,0.8
				c0,0.1,0,0.1,0,0.2c0,0.9,0.6,1.9,1.3,2.3c0.4,0.2,0.7,0.2,0.9,0.1h0l1.4-0.8c0.2-0.1,0.4-0.4,0.4-0.9c0-0.3-0.1-0.6-0.2-0.8
				c0.4-0.3,0.6-0.6,0.6-0.9v-2.3v0c0-0.4-0.2-0.7-0.7-1c0,0,0,0,0,0v0V10.2z M16.9,15L16.9,15c0,0.1,0,0.3,0.1,0.4
				C16.9,15.2,16.9,15.1,16.9,15z M17.8,4.4C17.8,4.4,17.8,4.5,17.8,4.4L17.8,4.4C17.8,4.5,17.8,4.4,17.8,4.4
				c-0.1,0-0.2-0.1-0.2-0.1C17.6,4.4,17.7,4.4,17.8,4.4z M17.4,4.8c0,0.1-0.1,0.1-0.1,0.2c0,0.1,0,0.3,0.1,0.4l0,0
				c-0.1-0.1-0.1-0.3-0.1-0.4C17.3,4.9,17.3,4.8,17.4,4.8z M17.1,12.6c0.3,0.1,0.6,0.2,0.9,0.2C17.6,12.7,17.4,12.7,17.1,12.6z
				 M18.3,16.5c-0.1,0.1-0.3,0.1-0.5,0C18.1,16.6,18.2,16.6,18.3,16.5L18.3,16.5L18.3,16.5z M18.8,15.1L18.8,15.1L18.8,15.1
				L18.8,15.1L18.8,15.1z"/>
			<path class="st54" d="M20.1,7.4c-0.1,0.1-0.2,0.2-0.3,0.2C19.9,7.6,20,7.5,20.1,7.4z M18.7,16.8c0.1-0.1,0.1-0.3,0.1-0.5
				c0-0.1,0-0.1,0-0.2l0,0c0,0.1,0,0.1,0,0.2C18.8,16.4,18.7,16.6,18.7,16.8z M18.7,15.6c0-0.1-0.1-0.2-0.1-0.3
				C18.6,15.4,18.6,15.5,18.7,15.6L18.7,15.6z M19.8,10.2v-0.2V9.9V9.7V9.6V9.4V9.3V9.1v0c0,0,0,0,0,0c0.5-0.3,0.7-0.6,0.7-1V6.7v0
				c0-0.4-0.2-0.7-0.7-1c0,0-0.1,0-0.1,0v0c0-0.2-0.1-0.4-0.3-0.6c0,0,0,0,0-0.1c0-0.5-0.3-1-0.7-1.3c-0.2-0.1-0.4-0.1-0.5-0.1
				L17,4.4c-0.1,0.1-0.2,0.2-0.2,0.5c0,0,0,0.1,0,0.1c-0.1,0-0.1,0-0.1,0c-0.1,0-0.1,0.1-0.1,0.2v0.5c0,0-0.1,0-0.1,0
				c-0.5,0.3-0.7,0.6-0.7,1c0,0.1,0,0.1,0,0.2c0-0.1,0-0.1,0-0.2v1.4c0,0.4,0.2,0.7,0.7,1c0,0,0,0,0,0v0v0.2v0.2v0.2v0.2v0.2v0.2
				v0.2v0.2v0c0,0,0,0,0,0c-0.5,0.3-0.7,0.6-0.7,1c0,0.1,0,0.1,0,0.2c0-0.1,0-0.1,0-0.2v2.3c0,0.3,0.1,0.5,0.4,0.8
				c0,0.1,0,0.1,0,0.2c0,0.9,0.6,1.9,1.3,2.3c0.4,0.2,0.7,0.2,0.9,0.1h0l1.4-0.8c0.2-0.1,0.4-0.4,0.4-0.9c0-0.3-0.1-0.6-0.2-0.8
				c0.4-0.3,0.6-0.6,0.6-0.9v-2.3v0c0-0.4-0.2-0.7-0.7-1c0,0,0,0,0,0v0V10.2z M16.6,15L16.6,15c0,0.1,0,0.3,0.1,0.4
				C16.6,15.2,16.6,15.1,16.6,15z M17.5,4.4C17.5,4.4,17.5,4.5,17.5,4.4L17.5,4.4C17.5,4.5,17.5,4.4,17.5,4.4
				c-0.1,0-0.2-0.1-0.2-0.1C17.3,4.4,17.4,4.4,17.5,4.4z M17.1,4.8C17,4.8,17,4.9,17,5c0,0.1,0,0.3,0.1,0.4l0,0
				C17.1,5.3,17,5.1,17,5C17,4.9,17,4.8,17.1,4.8z M16.8,12.6c0.3,0.1,0.6,0.2,0.9,0.2C17.3,12.7,17.1,12.7,16.8,12.6z M18,16.5
				c-0.1,0.1-0.3,0.1-0.5,0C17.8,16.6,17.9,16.6,18,16.5L18,16.5L18,16.5z M18.5,15.1L18.5,15.1L18.5,15.1L18.5,15.1L18.5,15.1z"/>
			<path class="st55" d="M19.8,7.4c-0.1,0.1-0.2,0.2-0.3,0.2C19.6,7.6,19.7,7.5,19.8,7.4z M18.4,16.8c0.1-0.1,0.1-0.3,0.1-0.5
				c0-0.1,0-0.1,0-0.2l0,0c0,0.1,0,0.1,0,0.2C18.5,16.4,18.4,16.6,18.4,16.8z M18.4,15.6c0-0.1-0.1-0.2-0.1-0.3
				C18.3,15.4,18.3,15.5,18.4,15.6L18.4,15.6z M19.5,10.2v-0.2V9.9V9.7V9.6V9.4V9.3V9.1v0c0,0,0,0,0,0c0.5-0.3,0.7-0.6,0.7-1V6.7v0
				c0-0.4-0.2-0.7-0.7-1c0,0-0.1,0-0.1,0v0c0-0.2-0.1-0.4-0.3-0.6c0,0,0,0,0-0.1c0-0.5-0.3-1-0.7-1.3c-0.2-0.1-0.4-0.1-0.5-0.1
				l-1.2,0.7c-0.1,0.1-0.2,0.2-0.2,0.5c0,0,0,0.1,0,0.1c-0.1,0-0.1,0-0.1,0c-0.1,0-0.1,0.1-0.1,0.2v0.5c0,0-0.1,0-0.1,0
				c-0.5,0.3-0.7,0.6-0.7,1c0,0.1,0,0.1,0,0.2c0-0.1,0-0.1,0-0.2v1.4c0,0.4,0.2,0.7,0.7,1c0,0,0,0,0,0v0v0.2v0.2v0.2v0.2v0.2v0.2
				v0.2v0.2v0c0,0,0,0,0,0c-0.5,0.3-0.7,0.6-0.7,1c0,0.1,0,0.1,0,0.2c0-0.1,0-0.1,0-0.2v2.3c0,0.3,0.1,0.5,0.4,0.8
				c0,0.1,0,0.1,0,0.2c0,0.9,0.6,1.9,1.3,2.3c0.4,0.2,0.7,0.2,0.9,0.1h0l1.4-0.8c0.2-0.1,0.4-0.4,0.4-0.9c0-0.3-0.1-0.6-0.2-0.8
				c0.4-0.3,0.6-0.6,0.6-0.9v-2.3v0c0-0.4-0.2-0.7-0.7-1c0,0,0,0,0,0v0V10.2z M16.3,15L16.3,15c0,0.1,0,0.3,0.1,0.4
				C16.3,15.2,16.3,15.1,16.3,15z M17.2,4.4C17.2,4.4,17.2,4.5,17.2,4.4L17.2,4.4C17.2,4.5,17.2,4.4,17.2,4.4
				c-0.1,0-0.2-0.1-0.2-0.1C17,4.4,17.1,4.4,17.2,4.4z M16.8,4.8c0,0.1-0.1,0.1-0.1,0.2c0,0.1,0,0.3,0.1,0.4l0,0
				c-0.1-0.1-0.1-0.3-0.1-0.4C16.7,4.9,16.7,4.8,16.8,4.8z M16.5,12.6c0.3,0.1,0.6,0.2,0.9,0.2C17,12.7,16.8,12.7,16.5,12.6z
				 M17.7,16.5c-0.1,0.1-0.3,0.1-0.5,0C17.4,16.6,17.6,16.6,17.7,16.5L17.7,16.5L17.7,16.5z M18.2,15.1L18.2,15.1L18.2,15.1
				L18.2,15.1L18.2,15.1z"/>
			<path class="st56" d="M19.5,7.4c-0.1,0.1-0.2,0.2-0.3,0.2C19.3,7.6,19.4,7.5,19.5,7.4z M18.1,16.8c0.1-0.1,0.1-0.3,0.1-0.5
				c0-0.1,0-0.1,0-0.2l0,0c0,0.1,0,0.1,0,0.2C18.2,16.4,18.1,16.6,18.1,16.8z M18.1,15.6c0-0.1-0.1-0.2-0.1-0.3
				C18,15.4,18,15.5,18.1,15.6L18.1,15.6z M19.2,10.2v-0.2V9.9V9.7V9.6V9.4V9.3V9.1v0c0,0,0,0,0,0c0.5-0.3,0.7-0.6,0.7-1V6.7v0
				c0-0.4-0.2-0.7-0.7-1c0,0-0.1,0-0.1,0v0c0-0.2-0.1-0.4-0.3-0.6c0,0,0,0,0-0.1c0-0.5-0.3-1-0.7-1.3c-0.2-0.1-0.4-0.1-0.5-0.1
				l-1.2,0.7c-0.1,0.1-0.2,0.2-0.2,0.5c0,0,0,0.1,0,0.1c-0.1,0-0.1,0-0.1,0c-0.1,0-0.1,0.1-0.1,0.2v0.5c0,0-0.1,0-0.1,0
				c-0.5,0.3-0.7,0.6-0.7,1c0,0.1,0,0.1,0,0.2c0-0.1,0-0.1,0-0.2v1.4c0,0.4,0.2,0.7,0.7,1c0,0,0,0,0,0v0v0.2v0.2v0.2v0.2v0.2v0.2
				v0.2v0.2v0c0,0,0,0,0,0c-0.5,0.3-0.7,0.6-0.7,1c0,0.1,0,0.1,0,0.2c0-0.1,0-0.1,0-0.2v2.3c0,0.3,0.1,0.5,0.4,0.8
				c0,0.1,0,0.1,0,0.2c0,0.9,0.6,1.9,1.3,2.3c0.4,0.2,0.7,0.2,0.9,0.1h0l1.4-0.8c0.2-0.1,0.4-0.4,0.4-0.9c0-0.3-0.1-0.6-0.2-0.8
				c0.4-0.3,0.6-0.6,0.6-0.9v-2.3v0c0-0.4-0.2-0.7-0.7-1c0,0,0,0,0,0v0V10.2z M16,15L16,15c0,0.1,0,0.3,0.1,0.4
				C16,15.2,16,15.1,16,15z M16.9,4.4C16.9,4.4,16.9,4.5,16.9,4.4L16.9,4.4C16.9,4.5,16.9,4.4,16.9,4.4c-0.1,0-0.2-0.1-0.2-0.1
				C16.7,4.4,16.8,4.4,16.9,4.4z M16.5,4.8c0,0.1-0.1,0.1-0.1,0.2c0,0.1,0,0.3,0.1,0.4l0,0c-0.1-0.1-0.1-0.3-0.1-0.4
				C16.4,4.9,16.4,4.8,16.5,4.8z M16.2,12.6c0.3,0.1,0.6,0.2,0.9,0.2C16.7,12.7,16.5,12.7,16.2,12.6z M17.4,16.5
				c-0.1,0.1-0.3,0.1-0.5,0C17.1,16.6,17.3,16.6,17.4,16.5L17.4,16.5L17.4,16.5z M17.9,15.1L17.9,15.1L17.9,15.1L17.9,15.1
				L17.9,15.1z"/>
			<path class="st57" d="M19.2,7.4c-0.1,0.1-0.2,0.2-0.3,0.2C19,7.6,19.1,7.5,19.2,7.4z M17.8,16.8c0.1-0.1,0.1-0.3,0.1-0.5
				c0-0.1,0-0.1,0-0.2l0,0c0,0.1,0,0.1,0,0.2C17.9,16.4,17.8,16.6,17.8,16.8z M17.8,15.6c0-0.1-0.1-0.2-0.1-0.3
				C17.7,15.4,17.7,15.5,17.8,15.6L17.8,15.6z M18.9,10.2v-0.2V9.9V9.7V9.6V9.4V9.3V9.1v0c0,0,0,0,0,0c0.5-0.3,0.7-0.6,0.7-1V6.7v0
				c0-0.4-0.2-0.7-0.7-1c0,0-0.1,0-0.1,0v0c0-0.2-0.1-0.4-0.3-0.6c0,0,0,0,0-0.1c0-0.5-0.3-1-0.7-1.3c-0.2-0.1-0.4-0.1-0.5-0.1
				l-1.2,0.7c-0.1,0.1-0.2,0.2-0.2,0.5c0,0,0,0.1,0,0.1c-0.1,0-0.1,0-0.1,0c-0.1,0-0.1,0.1-0.1,0.2v0.5c0,0-0.1,0-0.1,0
				c-0.5,0.3-0.7,0.6-0.7,1c0,0.1,0,0.1,0,0.2c0-0.1,0-0.1,0-0.2v1.4c0,0.4,0.2,0.7,0.7,1c0,0,0,0,0,0v0v0.2v0.2v0.2v0.2v0.2v0.2
				v0.2v0.2v0c0,0,0,0,0,0c-0.5,0.3-0.7,0.6-0.7,1c0,0.1,0,0.1,0,0.2c0-0.1,0-0.1,0-0.2v2.3c0,0.3,0.1,0.5,0.4,0.8
				c0,0.1,0,0.1,0,0.2c0,0.9,0.6,1.9,1.3,2.3c0.4,0.2,0.7,0.2,0.9,0.1h0l1.4-0.8c0.2-0.1,0.4-0.4,0.4-0.9c0-0.3-0.1-0.6-0.2-0.8
				c0.4-0.3,0.6-0.6,0.6-0.9v-2.3v0c0-0.4-0.2-0.7-0.7-1c0,0,0,0,0,0v0V10.2z M15.7,15L15.7,15c0,0.1,0,0.3,0.1,0.4
				C15.7,15.2,15.7,15.1,15.7,15z M16.6,4.4C16.6,4.4,16.6,4.5,16.6,4.4L16.6,4.4C16.6,4.5,16.6,4.4,16.6,4.4
				c-0.1,0-0.2-0.1-0.2-0.1C16.4,4.4,16.5,4.4,16.6,4.4z M16.2,4.8c0,0.1-0.1,0.1-0.1,0.2c0,0.1,0,0.3,0.1,0.4l0,0
				c-0.1-0.1-0.1-0.3-0.1-0.4C16.1,4.9,16.1,4.8,16.2,4.8z M15.9,12.6c0.3,0.1,0.6,0.2,0.9,0.2C16.4,12.7,16.2,12.7,15.9,12.6z
				 M17.1,16.5c-0.1,0.1-0.3,0.1-0.5,0C16.8,16.6,17,16.6,17.1,16.5L17.1,16.5L17.1,16.5z M17.6,15.1L17.6,15.1L17.6,15.1L17.6,15.1
				L17.6,15.1z"/>
			<path class="st58" d="M18.9,7.4c-0.1,0.1-0.2,0.2-0.3,0.2C18.7,7.6,18.8,7.5,18.9,7.4z M17.5,16.8c0.1-0.1,0.1-0.3,0.1-0.5
				c0-0.1,0-0.1,0-0.2l0,0c0,0.1,0,0.1,0,0.2C17.6,16.4,17.5,16.6,17.5,16.8z M17.5,15.6c0-0.1-0.1-0.2-0.1-0.3
				C17.4,15.4,17.4,15.5,17.5,15.6L17.5,15.6z M18.6,10.2v-0.2V9.9V9.7V9.6V9.4V9.3V9.1v0c0,0,0,0,0,0c0.5-0.3,0.7-0.6,0.7-1V6.7v0
				c0-0.4-0.2-0.7-0.7-1c0,0-0.1,0-0.1,0v0c0-0.2-0.1-0.4-0.3-0.6c0,0,0,0,0-0.1c0-0.5-0.3-1-0.7-1.3c-0.2-0.1-0.4-0.1-0.5-0.1
				l-1.2,0.7c-0.1,0.1-0.2,0.2-0.2,0.5c0,0,0,0.1,0,0.1c-0.1,0-0.1,0-0.1,0c-0.1,0-0.1,0.1-0.1,0.2v0.5c0,0-0.1,0-0.1,0
				c-0.5,0.3-0.7,0.6-0.7,1c0,0.1,0,0.1,0,0.2c0-0.1,0-0.1,0-0.2v1.4c0,0.4,0.2,0.7,0.7,1c0,0,0,0,0,0v0v0.2v0.2v0.2v0.2v0.2v0.2
				v0.2v0.2v0c0,0,0,0,0,0c-0.5,0.3-0.7,0.6-0.7,1c0,0.1,0,0.1,0,0.2c0-0.1,0-0.1,0-0.2v2.3c0,0.3,0.1,0.5,0.4,0.8
				c0,0.1,0,0.1,0,0.2c0,0.9,0.6,1.9,1.3,2.3c0.4,0.2,0.7,0.2,0.9,0.1h0l1.4-0.8c0.2-0.1,0.4-0.4,0.4-0.9c0-0.3-0.1-0.6-0.2-0.8
				c0.4-0.3,0.6-0.6,0.6-0.9v-2.3v0c0-0.4-0.2-0.7-0.7-1c0,0,0,0,0,0v0V10.2z M15.4,15L15.4,15c0,0.1,0,0.3,0.1,0.4
				C15.4,15.2,15.4,15.1,15.4,15z M16.3,4.4C16.3,4.4,16.3,4.5,16.3,4.4L16.3,4.4C16.3,4.5,16.3,4.4,16.3,4.4
				c-0.1,0-0.2-0.1-0.2-0.1C16.1,4.4,16.2,4.4,16.3,4.4z M15.9,4.8c0,0.1-0.1,0.1-0.1,0.2c0,0.1,0,0.3,0.1,0.4l0,0
				c-0.1-0.1-0.1-0.3-0.1-0.4C15.8,4.9,15.8,4.8,15.9,4.8z M15.6,12.6c0.3,0.1,0.6,0.2,0.9,0.2C16.1,12.7,15.8,12.7,15.6,12.6z
				 M16.8,16.5c-0.1,0.1-0.3,0.1-0.5,0C16.5,16.6,16.7,16.6,16.8,16.5L16.8,16.5L16.8,16.5z M17.3,15.1L17.3,15.1L17.3,15.1
				L17.3,15.1L17.3,15.1z"/>
			<path class="st59" d="M18.6,7.4c-0.1,0.1-0.2,0.2-0.3,0.2C18.4,7.6,18.5,7.5,18.6,7.4z M17.2,16.8c0.1-0.1,0.1-0.3,0.1-0.5
				c0-0.1,0-0.1,0-0.2l0,0c0,0.1,0,0.1,0,0.2C17.3,16.4,17.2,16.6,17.2,16.8z M17.2,15.6c0-0.1-0.1-0.2-0.1-0.3
				C17.1,15.4,17.1,15.5,17.2,15.6L17.2,15.6z M18.3,10.2v-0.2V9.9V9.7V9.6V9.4V9.3V9.1v0c0,0,0,0,0,0c0.5-0.3,0.7-0.6,0.7-1V6.7v0
				c0-0.4-0.2-0.7-0.7-1c0,0-0.1,0-0.1,0v0c0-0.2-0.1-0.4-0.3-0.6c0,0,0,0,0-0.1c0-0.5-0.3-1-0.7-1.3c-0.2-0.1-0.4-0.1-0.5-0.1
				l-1.2,0.7c-0.1,0.1-0.2,0.2-0.2,0.5c0,0,0,0.1,0,0.1c-0.1,0-0.1,0-0.1,0C15,5,15,5.1,15,5.2v0.5c0,0-0.1,0-0.1,0
				c-0.5,0.3-0.7,0.6-0.7,1c0,0.1,0,0.1,0,0.2c0-0.1,0-0.1,0-0.2v1.4c0,0.4,0.2,0.7,0.7,1c0,0,0,0,0,0v0v0.2v0.2v0.2v0.2v0.2v0.2
				v0.2v0.2v0c0,0,0,0,0,0c-0.5,0.3-0.7,0.6-0.7,1c0,0.1,0,0.1,0,0.2c0-0.1,0-0.1,0-0.2v2.3c0,0.3,0.1,0.5,0.4,0.8
				c0,0.1,0,0.1,0,0.2c0,0.9,0.6,1.9,1.3,2.3c0.4,0.2,0.7,0.2,0.9,0.1h0l1.4-0.8c0.2-0.1,0.4-0.4,0.4-0.9c0-0.3-0.1-0.6-0.2-0.8
				c0.4-0.3,0.6-0.6,0.6-0.9v-2.3v0c0-0.4-0.2-0.7-0.7-1c0,0,0,0,0,0v0V10.2z M15.1,15L15.1,15c0,0.1,0,0.3,0.1,0.4
				C15.1,15.2,15.1,15.1,15.1,15z M16,4.4C16,4.4,16,4.5,16,4.4L16,4.4C16,4.5,16,4.4,16,4.4c-0.1,0-0.2-0.1-0.2-0.1
				C15.8,4.4,15.9,4.4,16,4.4z M15.6,4.8c0,0.1-0.1,0.1-0.1,0.2c0,0.1,0,0.3,0.1,0.4l0,0c-0.1-0.1-0.1-0.3-0.1-0.4
				C15.5,4.9,15.5,4.8,15.6,4.8z M15.3,12.6c0.3,0.1,0.6,0.2,0.9,0.2C15.8,12.7,15.5,12.7,15.3,12.6z M16.5,16.5
				c-0.1,0.1-0.3,0.1-0.5,0C16.2,16.6,16.4,16.6,16.5,16.5L16.5,16.5L16.5,16.5z M17,15.1L17,15.1L17,15.1L17,15.1L17,15.1z"/>
			<path class="st60" d="M18.3,7.4c-0.1,0.1-0.2,0.2-0.3,0.2C18.1,7.6,18.2,7.5,18.3,7.4z M16.9,16.8c0.1-0.1,0.1-0.3,0.1-0.5
				c0-0.1,0-0.1,0-0.2l0,0c0,0.1,0,0.1,0,0.2C17,16.4,16.9,16.6,16.9,16.8z M16.9,15.6c0-0.1-0.1-0.2-0.1-0.3
				C16.8,15.4,16.8,15.5,16.9,15.6L16.9,15.6z M18,10.2v-0.2V9.9V9.7V9.6V9.4V9.3V9.1v0c0,0,0,0,0,0c0.5-0.3,0.7-0.6,0.7-1V6.7v0
				c0-0.4-0.2-0.7-0.7-1c0,0-0.1,0-0.1,0v0c0-0.2-0.1-0.4-0.3-0.6c0,0,0,0,0-0.1c0-0.5-0.3-1-0.7-1.3c-0.2-0.1-0.4-0.1-0.5-0.1
				l-1.2,0.7c-0.1,0.1-0.2,0.2-0.2,0.5c0,0,0,0.1,0,0.1c-0.1,0-0.1,0-0.1,0c-0.1,0-0.1,0.1-0.1,0.2v0.5c0,0-0.1,0-0.1,0
				c-0.5,0.3-0.7,0.6-0.7,1c0,0.1,0,0.1,0,0.2c0-0.1,0-0.1,0-0.2v1.4c0,0.4,0.2,0.7,0.7,1c0,0,0,0,0,0v0v0.2v0.2v0.2v0.2v0.2v0.2
				v0.2v0.2v0c0,0,0,0,0,0c-0.5,0.3-0.7,0.6-0.7,1c0,0.1,0,0.1,0,0.2c0-0.1,0-0.1,0-0.2v2.3c0,0.3,0.1,0.5,0.4,0.8
				c0,0.1,0,0.1,0,0.2c0,0.9,0.6,1.9,1.3,2.3c0.4,0.2,0.7,0.2,0.9,0.1h0l1.4-0.8c0.2-0.1,0.4-0.4,0.4-0.9c0-0.3-0.1-0.6-0.2-0.8
				c0.4-0.3,0.6-0.6,0.6-0.9v-2.3v0c0-0.4-0.2-0.7-0.7-1c0,0,0,0,0,0v0V10.2z M14.8,15L14.8,15c0,0.1,0,0.3,0.1,0.4
				C14.8,15.2,14.8,15.1,14.8,15z M15.7,4.4C15.7,4.4,15.7,4.5,15.7,4.4L15.7,4.4C15.7,4.5,15.7,4.4,15.7,4.4
				c-0.1,0-0.2-0.1-0.2-0.1C15.5,4.4,15.6,4.4,15.7,4.4z M15.3,4.8c0,0.1-0.1,0.1-0.1,0.2c0,0.1,0,0.3,0.1,0.4l0,0
				c-0.1-0.1-0.1-0.3-0.1-0.4C15.2,4.9,15.2,4.8,15.3,4.8z M15,12.6c0.3,0.1,0.6,0.2,0.9,0.2C15.5,12.7,15.2,12.7,15,12.6z
				 M16.2,16.5c-0.1,0.1-0.3,0.1-0.5,0C15.9,16.6,16.1,16.6,16.2,16.5L16.2,16.5L16.2,16.5z M16.7,15.1L16.7,15.1L16.7,15.1
				L16.7,15.1L16.7,15.1z"/>
			<path class="st61" d="M18,7.4c-0.1,0.1-0.2,0.2-0.3,0.2C17.8,7.6,17.9,7.5,18,7.4z M16.6,16.8c0.1-0.1,0.1-0.3,0.1-0.5
				c0-0.1,0-0.1,0-0.2l0,0c0,0.1,0,0.1,0,0.2C16.7,16.4,16.6,16.6,16.6,16.8z M16.6,15.6c0-0.1-0.1-0.2-0.1-0.3
				C16.5,15.4,16.5,15.5,16.6,15.6L16.6,15.6z M17.7,10.2v-0.2V9.9V9.7V9.6V9.4V9.3V9.1v0c0,0,0,0,0,0c0.5-0.3,0.7-0.6,0.7-1V6.7v0
				c0-0.4-0.2-0.7-0.7-1c0,0-0.1,0-0.1,0v0c0-0.2-0.1-0.4-0.3-0.6c0,0,0,0,0-0.1c0-0.5-0.3-1-0.7-1.3c-0.2-0.1-0.4-0.1-0.5-0.1
				l-1.2,0.7c-0.1,0.1-0.2,0.2-0.2,0.5c0,0,0,0.1,0,0.1c-0.1,0-0.1,0-0.1,0c-0.1,0-0.1,0.1-0.1,0.2v0.5c0,0-0.1,0-0.1,0
				c-0.5,0.3-0.7,0.6-0.7,1c0,0.1,0,0.1,0,0.2c0-0.1,0-0.1,0-0.2v1.4c0,0.4,0.2,0.7,0.7,1c0,0,0,0,0,0v0v0.2v0.2v0.2v0.2v0.2v0.2
				v0.2v0.2v0c0,0,0,0,0,0c-0.5,0.3-0.7,0.6-0.7,1c0,0.1,0,0.1,0,0.2c0-0.1,0-0.1,0-0.2v2.3c0,0.3,0.1,0.5,0.4,0.8
				c0,0.1,0,0.1,0,0.2c0,0.9,0.6,1.9,1.3,2.3c0.4,0.2,0.7,0.2,0.9,0.1h0l1.4-0.8c0.2-0.1,0.4-0.4,0.4-0.9c0-0.3-0.1-0.6-0.2-0.8
				c0.4-0.3,0.6-0.6,0.6-0.9v-2.3v0c0-0.4-0.2-0.7-0.7-1c0,0,0,0,0,0v0V10.2z M14.5,15L14.5,15c0,0.1,0,0.3,0.1,0.4
				C14.5,15.2,14.5,15.1,14.5,15z M15.4,4.4C15.4,4.4,15.4,4.5,15.4,4.4L15.4,4.4C15.4,4.5,15.4,4.4,15.4,4.4
				c-0.1,0-0.2-0.1-0.2-0.1C15.2,4.4,15.3,4.4,15.4,4.4z M15,4.8c0,0.1-0.1,0.1-0.1,0.2c0,0.1,0,0.3,0.1,0.4l0,0
				C15,5.3,14.9,5.1,14.9,5C14.9,4.9,14.9,4.8,15,4.8z M14.7,12.6c0.3,0.1,0.6,0.2,0.9,0.2C15.2,12.7,14.9,12.7,14.7,12.6z
				 M15.9,16.5c-0.1,0.1-0.3,0.1-0.5,0C15.6,16.6,15.8,16.6,15.9,16.5L15.9,16.5L15.9,16.5z M16.4,15.1L16.4,15.1L16.4,15.1
				L16.4,15.1L16.4,15.1z"/>
			<path class="st62" d="M17.7,7.4c-0.1,0.1-0.2,0.2-0.3,0.2C17.5,7.6,17.6,7.5,17.7,7.4z M16.3,16.8c0.1-0.1,0.1-0.3,0.1-0.5
				c0-0.1,0-0.1,0-0.2l0,0c0,0.1,0,0.1,0,0.2C16.4,16.4,16.3,16.6,16.3,16.8z M16.3,15.6c0-0.1-0.1-0.2-0.1-0.3
				C16.2,15.4,16.2,15.5,16.3,15.6L16.3,15.6z M17.4,10.2v-0.2V9.9V9.7V9.6V9.4V9.3V9.1v0c0,0,0,0,0,0c0.5-0.3,0.7-0.6,0.7-1V6.7v0
				c0-0.4-0.2-0.7-0.7-1c0,0-0.1,0-0.1,0v0c0-0.2-0.1-0.4-0.3-0.6c0,0,0,0,0-0.1c0-0.5-0.3-1-0.7-1.3c-0.2-0.1-0.4-0.1-0.5-0.1
				l-1.2,0.7c-0.1,0.1-0.2,0.2-0.2,0.5c0,0,0,0.1,0,0.1c-0.1,0-0.1,0-0.1,0c-0.1,0-0.1,0.1-0.1,0.2v0.5c0,0-0.1,0-0.1,0
				c-0.5,0.3-0.7,0.6-0.7,1c0,0.1,0,0.1,0,0.2c0-0.1,0-0.1,0-0.2v1.4c0,0.4,0.2,0.7,0.7,1c0,0,0,0,0,0v0v0.2v0.2v0.2v0.2v0.2v0.2
				v0.2v0.2v0c0,0,0,0,0,0c-0.5,0.3-0.7,0.6-0.7,1c0,0.1,0,0.1,0,0.2c0-0.1,0-0.1,0-0.2v2.3c0,0.3,0.1,0.5,0.4,0.8
				c0,0.1,0,0.1,0,0.2c0,0.9,0.6,1.9,1.3,2.3c0.4,0.2,0.7,0.2,0.9,0.1h0l1.4-0.8c0.2-0.1,0.4-0.4,0.4-0.9c0-0.3-0.1-0.6-0.2-0.8
				c0.4-0.3,0.6-0.6,0.6-0.9v-2.3v0c0-0.4-0.2-0.7-0.7-1c0,0,0,0,0,0v0V10.2z M14.2,15L14.2,15c0,0.1,0,0.3,0.1,0.4
				C14.2,15.2,14.2,15.1,14.2,15z M15.1,4.4C15.1,4.4,15.1,4.5,15.1,4.4L15.1,4.4C15.1,4.5,15.1,4.4,15.1,4.4
				c-0.1,0-0.2-0.1-0.2-0.1C14.9,4.4,15,4.4,15.1,4.4z M14.7,4.8c0,0.1-0.1,0.1-0.1,0.2c0,0.1,0,0.3,0.1,0.4l0,0
				c-0.1-0.1-0.1-0.3-0.1-0.4C14.6,4.9,14.6,4.8,14.7,4.8z M14.4,12.6c0.3,0.1,0.6,0.2,0.9,0.2C14.9,12.7,14.6,12.7,14.4,12.6z
				 M15.6,16.5c-0.1,0.1-0.3,0.1-0.5,0C15.3,16.6,15.5,16.6,15.6,16.5L15.6,16.5L15.6,16.5z M16.1,15.1L16.1,15.1L16.1,15.1
				L16.1,15.1L16.1,15.1z"/>
			<path class="st63" d="M17.4,7.4c-0.1,0.1-0.2,0.2-0.3,0.2C17.2,7.6,17.3,7.5,17.4,7.4z M16,16.8c0.1-0.1,0.1-0.3,0.1-0.5
				c0-0.1,0-0.1,0-0.2l0,0c0,0.1,0,0.1,0,0.2C16.1,16.4,16,16.6,16,16.8z M16,15.6c0-0.1-0.1-0.2-0.1-0.3
				C15.9,15.4,15.9,15.5,16,15.6L16,15.6z M17.1,10.2v-0.2V9.9V9.7V9.6V9.4V9.3V9.1v0c0,0,0,0,0,0c0.5-0.3,0.7-0.6,0.7-1V6.7v0
				c0-0.4-0.2-0.7-0.7-1c0,0-0.1,0-0.1,0v0c0-0.2-0.1-0.4-0.3-0.6c0,0,0,0,0-0.1c0-0.5-0.3-1-0.7-1.3c-0.2-0.1-0.4-0.1-0.5-0.1
				l-1.2,0.7C14.1,4.5,14,4.6,14,4.8c0,0,0,0.1,0,0.1c-0.1,0-0.1,0-0.1,0c-0.1,0-0.1,0.1-0.1,0.2v0.5c0,0-0.1,0-0.1,0
				c-0.5,0.3-0.7,0.6-0.7,1c0,0.1,0,0.1,0,0.2c0-0.1,0-0.1,0-0.2v1.4c0,0.4,0.2,0.7,0.7,1c0,0,0,0,0,0v0v0.2v0.2v0.2v0.2v0.2v0.2
				v0.2v0.2v0c0,0,0,0,0,0c-0.5,0.3-0.7,0.6-0.7,1c0,0.1,0,0.1,0,0.2c0-0.1,0-0.1,0-0.2v2.3c0,0.3,0.1,0.5,0.4,0.8
				c0,0.1,0,0.1,0,0.2c0,0.9,0.6,1.9,1.3,2.3c0.4,0.2,0.7,0.2,0.9,0.1h0l1.4-0.8c0.2-0.1,0.4-0.4,0.4-0.9c0-0.3-0.1-0.6-0.2-0.8
				c0.4-0.3,0.6-0.6,0.6-0.9v-2.3v0c0-0.4-0.2-0.7-0.7-1c0,0,0,0,0,0v0V10.2z M13.9,15L13.9,15c0,0.1,0,0.3,0.1,0.4
				C13.9,15.2,13.9,15.1,13.9,15z M14.8,4.4C14.8,4.4,14.8,4.5,14.8,4.4L14.8,4.4C14.8,4.5,14.8,4.4,14.8,4.4
				c-0.1,0-0.2-0.1-0.2-0.1C14.6,4.4,14.7,4.4,14.8,4.4z M14.4,4.8c0,0.1-0.1,0.1-0.1,0.2c0,0.1,0,0.3,0.1,0.4l0,0
				c-0.1-0.1-0.1-0.3-0.1-0.4C14.3,4.9,14.3,4.8,14.4,4.8z M14.1,12.6c0.3,0.1,0.6,0.2,0.9,0.2C14.6,12.7,14.3,12.7,14.1,12.6z
				 M15.3,16.5c-0.1,0.1-0.3,0.1-0.5,0C15,16.6,15.2,16.6,15.3,16.5L15.3,16.5L15.3,16.5z M15.8,15.1L15.8,15.1L15.8,15.1L15.8,15.1
				L15.8,15.1z"/>
			<path class="st64" d="M17.1,7.4c-0.1,0.1-0.2,0.2-0.3,0.2C16.9,7.6,17,7.5,17.1,7.4z M15.7,16.8c0.1-0.1,0.1-0.3,0.1-0.5
				c0-0.1,0-0.1,0-0.2l0,0c0,0.1,0,0.1,0,0.2C15.8,16.4,15.7,16.6,15.7,16.8z M15.7,15.6c0-0.1-0.1-0.2-0.1-0.3
				C15.6,15.4,15.6,15.5,15.7,15.6L15.7,15.6z M16.8,10.2v-0.2V9.9V9.7V9.6V9.4V9.3V9.1v0c0,0,0,0,0,0c0.5-0.3,0.7-0.6,0.7-1V6.7v0
				c0-0.4-0.2-0.7-0.7-1c0,0-0.1,0-0.1,0v0c0-0.2-0.1-0.4-0.3-0.6c0,0,0,0,0-0.1c0-0.5-0.3-1-0.7-1.3c-0.2-0.1-0.4-0.1-0.5-0.1
				L14,4.4c-0.1,0.1-0.2,0.2-0.2,0.5c0,0,0,0.1,0,0.1c-0.1,0-0.1,0-0.1,0c-0.1,0-0.1,0.1-0.1,0.2v0.5c0,0-0.1,0-0.1,0
				c-0.5,0.3-0.7,0.6-0.7,1c0,0.1,0,0.1,0,0.2c0-0.1,0-0.1,0-0.2v1.4c0,0.4,0.2,0.7,0.7,1c0,0,0,0,0,0v0v0.2v0.2v0.2v0.2v0.2v0.2
				v0.2v0.2v0c0,0,0,0,0,0c-0.5,0.3-0.7,0.6-0.7,1c0,0.1,0,0.1,0,0.2c0-0.1,0-0.1,0-0.2v2.3c0,0.3,0.1,0.5,0.4,0.8
				c0,0.1,0,0.1,0,0.2c0,0.9,0.6,1.9,1.3,2.3c0.4,0.2,0.7,0.2,0.9,0.1h0l1.4-0.8c0.2-0.1,0.4-0.4,0.4-0.9c0-0.3-0.1-0.6-0.2-0.8
				c0.4-0.3,0.6-0.6,0.6-0.9v-2.3v0c0-0.4-0.2-0.7-0.7-1c0,0,0,0,0,0v0V10.2z M13.6,15L13.6,15c0,0.1,0,0.3,0.1,0.4
				C13.6,15.2,13.6,15.1,13.6,15z M14.5,4.4C14.5,4.4,14.5,4.5,14.5,4.4L14.5,4.4C14.5,4.5,14.5,4.4,14.5,4.4
				c-0.1,0-0.2-0.1-0.2-0.1C14.3,4.4,14.4,4.4,14.5,4.4z M14.1,4.8C14,4.8,14,4.9,14,5c0,0.1,0,0.3,0.1,0.4l0,0
				C14.1,5.3,14,5.1,14,5C14,4.9,14,4.8,14.1,4.8z M13.8,12.6c0.3,0.1,0.6,0.2,0.9,0.2C14.3,12.7,14,12.7,13.8,12.6z M15,16.5
				c-0.1,0.1-0.3,0.1-0.5,0C14.7,16.6,14.9,16.6,15,16.5L15,16.5L15,16.5z M15.5,15.1L15.5,15.1L15.5,15.1L15.5,15.1L15.5,15.1z"/>
			<path class="st65" d="M16.8,7.4c-0.1,0.1-0.2,0.2-0.3,0.2C16.6,7.6,16.7,7.5,16.8,7.4z M15.4,16.8c0.1-0.1,0.1-0.3,0.1-0.5
				c0-0.1,0-0.1,0-0.2l0,0c0,0.1,0,0.1,0,0.2C15.5,16.4,15.4,16.6,15.4,16.8z M15.4,15.6c0-0.1-0.1-0.2-0.1-0.3
				C15.3,15.4,15.3,15.5,15.4,15.6L15.4,15.6z M16.5,10.2v-0.2V9.9V9.7V9.6V9.4V9.3V9.1v0c0,0,0,0,0,0c0.5-0.3,0.7-0.6,0.7-1V6.7v0
				c0-0.4-0.2-0.7-0.7-1c0,0-0.1,0-0.1,0v0c0-0.2-0.1-0.4-0.3-0.6c0,0,0,0,0-0.1c0-0.5-0.3-1-0.7-1.3c-0.2-0.1-0.4-0.1-0.5-0.1
				l-1.2,0.7c-0.1,0.1-0.2,0.2-0.2,0.5c0,0,0,0.1,0,0.1c-0.1,0-0.1,0-0.1,0c-0.1,0-0.1,0.1-0.1,0.2v0.5c0,0-0.1,0-0.1,0
				c-0.5,0.3-0.7,0.6-0.7,1c0,0.1,0,0.1,0,0.2c0-0.1,0-0.1,0-0.2v1.4c0,0.4,0.2,0.7,0.7,1c0,0,0,0,0,0v0v0.2v0.2v0.2v0.2v0.2v0.2
				v0.2v0.2v0c0,0,0,0,0,0c-0.5,0.3-0.7,0.6-0.7,1c0,0.1,0,0.1,0,0.2c0-0.1,0-0.1,0-0.2v2.3c0,0.3,0.1,0.5,0.4,0.8
				c0,0.1,0,0.1,0,0.2c0,0.9,0.6,1.9,1.3,2.3c0.4,0.2,0.7,0.2,0.9,0.1h0l1.4-0.8c0.2-0.1,0.4-0.4,0.4-0.9c0-0.3-0.1-0.6-0.2-0.8
				c0.4-0.3,0.6-0.6,0.6-0.9v-2.3v0c0-0.4-0.2-0.7-0.7-1c0,0,0,0,0,0v0V10.2z M13.3,15L13.3,15c0,0.1,0,0.3,0.1,0.4
				C13.3,15.2,13.3,15.1,13.3,15z M14.2,4.4C14.2,4.4,14.2,4.5,14.2,4.4L14.2,4.4C14.2,4.5,14.2,4.4,14.2,4.4
				c-0.1,0-0.2-0.1-0.2-0.1C14,4.4,14.1,4.4,14.2,4.4z M13.8,4.8c0,0.1-0.1,0.1-0.1,0.2c0,0.1,0,0.3,0.1,0.4l0,0
				c-0.1-0.1-0.1-0.3-0.1-0.4C13.7,4.9,13.7,4.8,13.8,4.8z M13.5,12.6c0.3,0.1,0.6,0.2,0.9,0.2C14,12.7,13.7,12.7,13.5,12.6z
				 M14.7,16.5c-0.1,0.1-0.3,0.1-0.5,0C14.4,16.6,14.6,16.6,14.7,16.5L14.7,16.5L14.7,16.5z M15.2,15.1L15.2,15.1L15.2,15.1
				L15.2,15.1L15.2,15.1z"/>
			<path class="st66" d="M16.5,7.4c-0.1,0.1-0.2,0.2-0.3,0.2C16.3,7.6,16.4,7.5,16.5,7.4z M15.1,16.8c0.1-0.1,0.1-0.3,0.1-0.5
				c0-0.1,0-0.1,0-0.2l0,0c0,0.1,0,0.1,0,0.2C15.2,16.4,15.1,16.6,15.1,16.8z M15.1,15.6c0-0.1-0.1-0.2-0.1-0.3
				C15,15.4,15,15.5,15.1,15.6L15.1,15.6z M16.2,10.2v-0.2V9.9V9.7V9.6V9.4V9.3V9.1v0c0,0,0,0,0,0c0.5-0.3,0.7-0.6,0.7-1V6.7v0
				c0-0.4-0.2-0.7-0.7-1c0,0-0.1,0-0.1,0v0c0-0.2-0.1-0.4-0.3-0.6c0,0,0,0,0-0.1c0-0.5-0.3-1-0.7-1.3c-0.2-0.1-0.4-0.1-0.5-0.1
				l-1.2,0.7c-0.1,0.1-0.2,0.2-0.2,0.5c0,0,0,0.1,0,0.1c-0.1,0-0.1,0-0.1,0c-0.1,0-0.1,0.1-0.1,0.2v0.5c0,0-0.1,0-0.1,0
				c-0.5,0.3-0.7,0.6-0.7,1c0,0.1,0,0.1,0,0.2c0-0.1,0-0.1,0-0.2v1.4c0,0.4,0.2,0.7,0.7,1c0,0,0,0,0,0v0v0.2v0.2v0.2v0.2v0.2v0.2
				v0.2v0.2v0c0,0,0,0,0,0c-0.5,0.3-0.7,0.6-0.7,1c0,0.1,0,0.1,0,0.2c0-0.1,0-0.1,0-0.2v2.3c0,0.3,0.1,0.5,0.4,0.8
				c0,0.1,0,0.1,0,0.2c0,0.9,0.6,1.9,1.3,2.3c0.4,0.2,0.7,0.2,0.9,0.1h0l1.4-0.8c0.2-0.1,0.4-0.4,0.4-0.9c0-0.3-0.1-0.6-0.2-0.8
				c0.4-0.3,0.6-0.6,0.6-0.9v-2.3v0c0-0.4-0.2-0.7-0.7-1c0,0,0,0,0,0v0V10.2z M13,15L13,15c0,0.1,0,0.3,0.1,0.4
				C13,15.2,13,15.1,13,15z M13.9,4.4C13.9,4.4,13.9,4.5,13.9,4.4L13.9,4.4C13.9,4.5,13.9,4.4,13.9,4.4c-0.1,0-0.2-0.1-0.2-0.1
				C13.7,4.4,13.8,4.4,13.9,4.4z M13.5,4.8c0,0.1-0.1,0.1-0.1,0.2c0,0.1,0,0.3,0.1,0.4l0,0c-0.1-0.1-0.1-0.3-0.1-0.4
				C13.4,4.9,13.4,4.8,13.5,4.8z M13.2,12.6c0.3,0.1,0.6,0.2,0.9,0.2C13.7,12.7,13.4,12.7,13.2,12.6z M14.4,16.5
				c-0.1,0.1-0.3,0.1-0.5,0C14.1,16.6,14.3,16.6,14.4,16.5L14.4,16.5L14.4,16.5z M14.9,15.1L14.9,15.1L14.9,15.1L14.9,15.1
				L14.9,15.1z"/>
			<path class="st67" d="M16.2,7.4c-0.1,0.1-0.2,0.2-0.3,0.2C16,7.6,16.1,7.5,16.2,7.4z M14.8,16.8c0.1-0.1,0.1-0.3,0.1-0.5
				c0-0.1,0-0.1,0-0.2l0,0c0,0.1,0,0.1,0,0.2C14.9,16.4,14.8,16.6,14.8,16.8z M14.8,15.6c0-0.1-0.1-0.2-0.1-0.3
				C14.7,15.4,14.7,15.5,14.8,15.6L14.8,15.6z M15.9,10.2v-0.2V9.9V9.7V9.6V9.4V9.3V9.1v0c0,0,0,0,0,0c0.5-0.3,0.7-0.6,0.7-1V6.7v0
				c0-0.4-0.2-0.7-0.7-1c0,0-0.1,0-0.1,0v0c0-0.2-0.1-0.4-0.3-0.6c0,0,0,0,0-0.1c0-0.5-0.3-1-0.7-1.3c-0.2-0.1-0.4-0.1-0.5-0.1
				l-1.2,0.7c-0.1,0.1-0.2,0.2-0.2,0.5c0,0,0,0.1,0,0.1c-0.1,0-0.1,0-0.1,0c-0.1,0-0.1,0.1-0.1,0.2v0.5c0,0-0.1,0-0.1,0
				c-0.5,0.3-0.7,0.6-0.7,1c0,0.1,0,0.1,0,0.2c0-0.1,0-0.1,0-0.2v1.4c0,0.4,0.2,0.7,0.7,1c0,0,0,0,0,0v0v0.2v0.2v0.2v0.2v0.2v0.2
				v0.2v0.2v0c0,0,0,0,0,0c-0.5,0.3-0.7,0.6-0.7,1c0,0.1,0,0.1,0,0.2c0-0.1,0-0.1,0-0.2v2.3c0,0.3,0.1,0.5,0.4,0.8
				c0,0.1,0,0.1,0,0.2c0,0.9,0.6,1.9,1.3,2.3c0.4,0.2,0.7,0.2,0.9,0.1h0l1.4-0.8c0.2-0.1,0.4-0.4,0.4-0.9c0-0.3-0.1-0.6-0.2-0.8
				c0.4-0.3,0.6-0.6,0.6-0.9v-2.3v0c0-0.4-0.2-0.7-0.7-1c0,0,0,0,0,0v0V10.2z M12.7,15L12.7,15c0,0.1,0,0.3,0.1,0.4
				C12.7,15.2,12.7,15.1,12.7,15z M13.6,4.4C13.6,4.4,13.6,4.5,13.6,4.4L13.6,4.4C13.6,4.5,13.6,4.4,13.6,4.4
				c-0.1,0-0.2-0.1-0.2-0.1C13.4,4.4,13.5,4.4,13.6,4.4z M13.2,4.8c0,0.1-0.1,0.1-0.1,0.2c0,0.1,0,0.3,0.1,0.4l0,0
				c-0.1-0.1-0.1-0.3-0.1-0.4C13.1,4.9,13.1,4.8,13.2,4.8z M12.9,12.6c0.3,0.1,0.6,0.2,0.9,0.2C13.4,12.7,13.1,12.7,12.9,12.6z
				 M14.1,16.5c-0.1,0.1-0.3,0.1-0.5,0C13.8,16.6,14,16.6,14.1,16.5L14.1,16.5L14.1,16.5z M14.6,15.1L14.6,15.1L14.6,15.1L14.6,15.1
				L14.6,15.1z"/>
			<path class="st68" d="M15.9,7.4c-0.1,0.1-0.2,0.2-0.3,0.2C15.7,7.6,15.8,7.5,15.9,7.4z M14.5,16.8c0.1-0.1,0.1-0.3,0.1-0.5
				c0-0.1,0-0.1,0-0.2l0,0c0,0.1,0,0.1,0,0.2C14.6,16.4,14.5,16.6,14.5,16.8z M14.5,15.6c0-0.1-0.1-0.2-0.1-0.3
				C14.4,15.4,14.4,15.5,14.5,15.6L14.5,15.6z M15.6,10.2v-0.2V9.9V9.7V9.6V9.4V9.3V9.1v0c0,0,0,0,0,0c0.5-0.3,0.7-0.6,0.7-1V6.7v0
				c0-0.4-0.2-0.7-0.7-1c0,0-0.1,0-0.1,0v0c0-0.2-0.1-0.4-0.3-0.6c0,0,0,0,0-0.1c0-0.5-0.3-1-0.7-1.3c-0.2-0.1-0.4-0.1-0.5-0.1
				l-1.2,0.7c-0.1,0.1-0.2,0.2-0.2,0.5c0,0,0,0.1,0,0.1c-0.1,0-0.1,0-0.1,0c-0.1,0-0.1,0.1-0.1,0.2v0.5c0,0-0.1,0-0.1,0
				c-0.5,0.3-0.7,0.6-0.7,1c0,0.1,0,0.1,0,0.2c0-0.1,0-0.1,0-0.2v1.4c0,0.4,0.2,0.7,0.7,1c0,0,0,0,0,0v0v0.2v0.2v0.2v0.2v0.2v0.2
				v0.2v0.2v0c0,0,0,0,0,0c-0.5,0.3-0.7,0.6-0.7,1c0,0.1,0,0.1,0,0.2c0-0.1,0-0.1,0-0.2v2.3c0,0.3,0.1,0.5,0.4,0.8
				c0,0.1,0,0.1,0,0.2c0,0.9,0.6,1.9,1.3,2.3c0.4,0.2,0.7,0.2,0.9,0.1h0l1.4-0.8c0.2-0.1,0.4-0.4,0.4-0.9c0-0.3-0.1-0.6-0.2-0.8
				c0.4-0.3,0.6-0.6,0.6-0.9v-2.3v0c0-0.4-0.2-0.7-0.7-1c0,0,0,0,0,0v0V10.2z M12.4,15L12.4,15c0,0.1,0,0.3,0.1,0.4
				C12.4,15.2,12.4,15.1,12.4,15z M13.3,4.4C13.3,4.4,13.3,4.5,13.3,4.4L13.3,4.4C13.3,4.5,13.3,4.4,13.3,4.4
				c-0.1,0-0.2-0.1-0.2-0.1C13.1,4.4,13.2,4.4,13.3,4.4z M12.9,4.8c0,0.1-0.1,0.1-0.1,0.2c0,0.1,0,0.3,0.1,0.4l0,0
				c-0.1-0.1-0.1-0.3-0.1-0.4C12.8,4.9,12.8,4.8,12.9,4.8z M12.6,12.6c0.3,0.1,0.6,0.2,0.9,0.2C13.1,12.7,12.8,12.7,12.6,12.6z
				 M13.8,16.5c-0.1,0.1-0.3,0.1-0.5,0C13.5,16.6,13.7,16.6,13.8,16.5L13.8,16.5L13.8,16.5z M14.3,15.1L14.3,15.1L14.3,15.1
				L14.3,15.1L14.3,15.1z"/>
			<path class="st69" d="M15.6,7.4c-0.1,0.1-0.2,0.2-0.3,0.2C15.4,7.6,15.5,7.5,15.6,7.4z M14.2,16.8c0.1-0.1,0.1-0.3,0.1-0.5
				c0-0.1,0-0.1,0-0.2l0,0c0,0.1,0,0.1,0,0.2C14.3,16.4,14.2,16.6,14.2,16.8z M14.2,15.6c0-0.1-0.1-0.2-0.1-0.3
				C14.1,15.4,14.1,15.5,14.2,15.6L14.2,15.6z M15.3,10.2v-0.2V9.9V9.7V9.6V9.4V9.3V9.1v0c0,0,0,0,0,0c0.5-0.3,0.7-0.6,0.7-1V6.7v0
				c0-0.4-0.2-0.7-0.7-1c0,0-0.1,0-0.1,0v0c0-0.2-0.1-0.4-0.3-0.6c0,0,0,0,0-0.1c0-0.5-0.3-1-0.7-1.3c-0.2-0.1-0.4-0.1-0.5-0.1
				l-1.2,0.7c-0.1,0.1-0.2,0.2-0.2,0.5c0,0,0,0.1,0,0.1c-0.1,0-0.1,0-0.1,0C12,5,12,5.1,12,5.2v0.5c0,0-0.1,0-0.1,0
				c-0.5,0.3-0.7,0.6-0.7,1c0,0.1,0,0.1,0,0.2c0-0.1,0-0.1,0-0.2v1.4c0,0.4,0.2,0.7,0.7,1c0,0,0,0,0,0v0v0.2v0.2v0.2v0.2v0.2v0.2
				v0.2v0.2v0c0,0,0,0,0,0c-0.5,0.3-0.7,0.6-0.7,1c0,0.1,0,0.1,0,0.2c0-0.1,0-0.1,0-0.2v2.3c0,0.3,0.1,0.5,0.4,0.8
				c0,0.1,0,0.1,0,0.2c0,0.9,0.6,1.9,1.3,2.3c0.4,0.2,0.7,0.2,0.9,0.1h0l1.4-0.8c0.2-0.1,0.4-0.4,0.4-0.9c0-0.3-0.1-0.6-0.2-0.8
				c0.4-0.3,0.6-0.6,0.6-0.9v-2.3v0c0-0.4-0.2-0.7-0.7-1c0,0,0,0,0,0v0V10.2z M12.1,15L12.1,15c0,0.1,0,0.3,0.1,0.4
				C12.1,15.2,12.1,15.1,12.1,15z M13,4.4C13,4.4,13,4.5,13,4.4L13,4.4C13,4.5,13,4.4,13,4.4c-0.1,0-0.2-0.1-0.2-0.1
				C12.8,4.4,12.9,4.4,13,4.4z M12.6,4.8c0,0.1-0.1,0.1-0.1,0.2c0,0.1,0,0.3,0.1,0.4l0,0c-0.1-0.1-0.1-0.3-0.1-0.4
				C12.5,4.9,12.5,4.8,12.6,4.8z M12.3,12.6c0.3,0.1,0.6,0.2,0.9,0.2C12.8,12.7,12.5,12.7,12.3,12.6z M13.5,16.5
				c-0.1,0.1-0.3,0.1-0.5,0C13.2,16.6,13.4,16.6,13.5,16.5L13.5,16.5L13.5,16.5z M14,15.1L14,15.1L14,15.1L14,15.1L14,15.1z"/>
			<path class="st70" d="M15.3,7.4c-0.1,0.1-0.2,0.2-0.3,0.2C15.1,7.6,15.2,7.5,15.3,7.4z M13.9,16.8c0.1-0.1,0.1-0.3,0.1-0.5
				c0-0.1,0-0.1,0-0.2l0,0c0,0.1,0,0.1,0,0.2C14,16.4,13.9,16.6,13.9,16.8z M13.9,15.6c0-0.1-0.1-0.2-0.1-0.3
				C13.8,15.4,13.8,15.5,13.9,15.6L13.9,15.6z M15,10.2v-0.2V9.9V9.7V9.6V9.4V9.3V9.1v0c0,0,0,0,0,0c0.5-0.3,0.7-0.6,0.7-1V6.7v0
				c0-0.4-0.2-0.7-0.7-1c0,0-0.1,0-0.1,0v0c0-0.2-0.1-0.4-0.3-0.6c0,0,0,0,0-0.1c0-0.5-0.3-1-0.7-1.3c-0.2-0.1-0.4-0.1-0.5-0.1
				l-1.2,0.7c-0.1,0.1-0.2,0.2-0.2,0.5c0,0,0,0.1,0,0.1c-0.1,0-0.1,0-0.1,0c-0.1,0-0.1,0.1-0.1,0.2v0.5c0,0-0.1,0-0.1,0
				c-0.5,0.3-0.7,0.6-0.7,1c0,0.1,0,0.1,0,0.2c0-0.1,0-0.1,0-0.2v1.4c0,0.4,0.2,0.7,0.7,1c0,0,0,0,0,0v0v0.2v0.2v0.2v0.2v0.2v0.2
				v0.2v0.2v0c0,0,0,0,0,0c-0.5,0.3-0.7,0.6-0.7,1c0,0.1,0,0.1,0,0.2c0-0.1,0-0.1,0-0.2v2.3c0,0.3,0.1,0.5,0.4,0.8
				c0,0.1,0,0.1,0,0.2c0,0.9,0.6,1.9,1.3,2.3c0.4,0.2,0.7,0.2,0.9,0.1h0l1.4-0.8c0.2-0.1,0.4-0.4,0.4-0.9c0-0.3-0.1-0.6-0.2-0.8
				c0.4-0.3,0.6-0.6,0.6-0.9v-2.3v0c0-0.4-0.2-0.7-0.7-1c0,0,0,0,0,0v0V10.2z M11.8,15L11.8,15c0,0.1,0,0.3,0.1,0.4
				C11.8,15.2,11.8,15.1,11.8,15z M12.7,4.4C12.7,4.4,12.7,4.5,12.7,4.4L12.7,4.4C12.7,4.5,12.7,4.4,12.7,4.4
				c-0.1,0-0.2-0.1-0.2-0.1C12.5,4.4,12.6,4.4,12.7,4.4z M12.3,4.8c0,0.1-0.1,0.1-0.1,0.2c0,0.1,0,0.3,0.1,0.4l0,0
				c-0.1-0.1-0.1-0.3-0.1-0.4C12.2,4.9,12.2,4.8,12.3,4.8z M12,12.6c0.3,0.1,0.6,0.2,0.9,0.2C12.5,12.7,12.2,12.7,12,12.6z
				 M13.2,16.5c-0.1,0.1-0.3,0.1-0.5,0C12.9,16.6,13.1,16.6,13.2,16.5L13.2,16.5L13.2,16.5z M13.7,15.1L13.7,15.1L13.7,15.1
				L13.7,15.1L13.7,15.1z"/>
		</g>
	</g>
	<g>
		<g>
			
				<linearGradient id="SVGID_4_" gradientUnits="userSpaceOnUse" x1="-90.2063" y1="17.3624" x2="-89.0069" y2="19.4397" gradientTransform="matrix(1 0 0 1 102.6075 -3.1676)">
				<stop  offset="0" style="stop-color:#141627"/>
				<stop  offset="0.1667" style="stop-color:#1A1C2E"/>
				<stop  offset="0.4113" style="stop-color:#292D42"/>
				<stop  offset="0.7037" style="stop-color:#434862"/>
				<stop  offset="1" style="stop-color:#636A8A"/>
			</linearGradient>
			<path class="st71" d="M14,15.6c-0.5-0.3-0.8-0.9-0.8-1.5c0-0.3,0.1-0.5,0.2-0.5L12,14.4c-0.2,0.1-0.2,0.3-0.2,0.5
				c0,0.5,0.4,1.2,0.8,1.5c0.2,0.1,0.4,0.1,0.6,0.1l1.4-0.8C14.4,15.8,14.2,15.8,14,15.6z"/>
			
				<linearGradient id="SVGID_5_" gradientUnits="userSpaceOnUse" x1="-88.7187" y1="18.1608" x2="-87.8887" y2="19.5984" gradientTransform="matrix(1 0 0 1 102.6075 -3.1676)">
				<stop  offset="0" style="stop-color:#323445"/>
				<stop  offset="0.1579" style="stop-color:#2B2D3E"/>
				<stop  offset="0.6391" style="stop-color:#1A1C2D"/>
				<stop  offset="1" style="stop-color:#141627"/>
			</linearGradient>
			<path class="st72" d="M15,14.3l-1.4,0.8c0.2,0.4,0.3,0.8,0.3,1.1c0,0.4-0.1,0.7-0.4,0.9l1.4-0.8c0.2-0.1,0.4-0.4,0.4-0.9
				C15.3,15.1,15.2,14.7,15,14.3z"/>
			<path class="st73" d="M15,14.3l-1.4,0.8c-0.7-1.4-1.2-1.7-1.9-1.4l1.4-0.8C13.8,12.6,14.3,13,15,14.3z"/>
			<path class="st74" d="M11.6,13.9c-0.2,0.2-0.3,0.4-0.3,0.8c0,0.9,0.6,1.9,1.3,2.3c0.4,0.2,0.7,0.2,0.9,0.1
				c0.2-0.1,0.4-0.4,0.4-0.9c0-0.4-0.1-0.7-0.3-1.1c-0.7-1.4-1.2-1.7-1.9-1.4C11.7,13.8,11.6,13.8,11.6,13.9z M12.6,16.4
				c-0.5-0.3-0.8-0.9-0.8-1.5c0-0.3,0.1-0.5,0.2-0.5c0.2-0.1,0.4-0.1,0.6,0.1c0.5,0.3,0.8,0.9,0.8,1.5c0,0.3-0.1,0.5-0.2,0.5
				C13.1,16.6,12.9,16.6,12.6,16.4z"/>
		</g>
		<g>
			<g>
				<g>
					<g>
						<g>
							<g>
								<path class="st75" d="M11.6,12.4c-0.5-0.3-0.7-0.6-0.7-1s0.2-0.7,0.7-1c0.9-0.5,2.5-0.5,3.4,0c0.5,0.3,0.7,0.6,0.7,1
									c0,0.4-0.2,0.7-0.7,1C14.1,12.9,12.5,12.9,11.6,12.4z"/>
							</g>
						</g>
					</g>
				</g>
			</g>
			
				<linearGradient id="SVGID_6_" gradientUnits="userSpaceOnUse" x1="-91.7149" y1="16.4231" x2="-86.8992" y2="16.4231" gradientTransform="matrix(1 0 0 1 102.6075 -3.1676)">
				<stop  offset="0" style="stop-color:#DEE0E3"/>
				<stop  offset="6.397092e-02" style="stop-color:#D4D5D9"/>
				<stop  offset="0.1637" style="stop-color:#CCCCD0"/>
				<stop  offset="0.3006" style="stop-color:#C9C9CD"/>
				<stop  offset="0.5873" style="stop-color:#AFAFB3"/>
				<stop  offset="0.699" style="stop-color:#A3A4A8"/>
				<stop  offset="0.8548" style="stop-color:#8B8B8F"/>
				<stop  offset="1" style="stop-color:#717173"/>
			</linearGradient>
			<path class="st76" d="M15,12.4c-0.9,0.5-2.5,0.5-3.4,0c-0.5-0.3-0.7-0.6-0.7-1v2.3c0,0.4,0.2,0.7,0.7,1c0.9,0.5,2.5,0.5,3.4,0
				c0.5-0.3,0.7-0.6,0.7-1v-2.3C15.7,11.8,15.5,12.1,15,12.4z"/>
		</g>
		<g>
			
				<linearGradient id="SVGID_7_" gradientUnits="userSpaceOnUse" x1="-90.9868" y1="12.4245" x2="-87.6272" y2="12.4245" gradientTransform="matrix(1 0 0 1 102.6075 -3.1676)">
				<stop  offset="0" style="stop-color:#D0D2D7"/>
				<stop  offset="0.1047" style="stop-color:#D6D8DD"/>
				<stop  offset="0.3006" style="stop-color:#D9DBE0"/>
				<stop  offset="0.4913" style="stop-color:#D6D8DD"/>
				<stop  offset="0.6277" style="stop-color:#CDCFD4"/>
				<stop  offset="0.7472" style="stop-color:#BDBFC4"/>
				<stop  offset="0.857" style="stop-color:#A7A9AE"/>
				<stop  offset="0.9591" style="stop-color:#8B8D92"/>
				<stop  offset="1" style="stop-color:#7D7F84"/>
			</linearGradient>
			<path class="st77" d="M13.3,7.2c-0.9,0-1.7-0.4-1.7-1v5.1c0,0.5,0.8,1,1.7,1s1.7-0.4,1.7-1V6.2C15,6.8,14.2,7.2,13.3,7.2z"/>
			<g>
				<path class="st78" d="M13.3,7.2c-0.9,0-1.7-0.4-1.7-1v0.2c0,0.5,0.8,1,1.7,1s1.7-0.4,1.7-1V6.2C15,6.8,14.2,7.2,13.3,7.2z"/>
				<path class="st78" d="M13.3,7.5c-0.9,0-1.7-0.4-1.7-1v0.2c0,0.5,0.8,1,1.7,1s1.7-0.4,1.7-1V6.6C15,7.1,14.2,7.5,13.3,7.5z"/>
				<path class="st78" d="M13.3,7.8c-0.9,0-1.7-0.4-1.7-1V7c0,0.5,0.8,1,1.7,1S15,7.6,15,7V6.9C15,7.4,14.2,7.8,13.3,7.8z"/>
				<path class="st78" d="M13.3,8.2c-0.9,0-1.7-0.4-1.7-1v0.2c0,0.5,0.8,1,1.7,1s1.7-0.4,1.7-1V7.2C15,7.7,14.2,8.2,13.3,8.2z"/>
				<path class="st78" d="M13.3,8.5c-0.9,0-1.7-0.4-1.7-1v0.2c0,0.5,0.8,1,1.7,1s1.7-0.4,1.7-1V7.5C15,8,14.2,8.5,13.3,8.5z"/>
				<path class="st78" d="M13.3,8.8c-0.9,0-1.7-0.4-1.7-1V8c0,0.5,0.8,1,1.7,1S15,8.5,15,8V7.8C15,8.4,14.2,8.8,13.3,8.8z"/>
				<path class="st78" d="M13.3,9.1c-0.9,0-1.7-0.4-1.7-1v0.2c0,0.5,0.8,1,1.7,1s1.7-0.4,1.7-1V8.1C15,8.7,14.2,9.1,13.3,9.1z"/>
				<path class="st78" d="M13.3,9.4c-0.9,0-1.7-0.4-1.7-1v0.2c0,0.5,0.8,1,1.7,1s1.7-0.4,1.7-1V8.5C15,9,14.2,9.4,13.3,9.4z"/>
				<path class="st78" d="M13.3,9.8c-0.9,0-1.7-0.4-1.7-1v0.2c0,0.5,0.8,1,1.7,1s1.7-0.4,1.7-1V8.8C15,9.3,14.2,9.8,13.3,9.8z"/>
				<path class="st78" d="M13.3,10.1c-0.9,0-1.7-0.4-1.7-1v0.2c0,0.5,0.8,1,1.7,1s1.7-0.4,1.7-1V9.1C15,9.6,14.2,10.1,13.3,10.1z"/>
				<path class="st78" d="M13.3,10.4c-0.9,0-1.7-0.4-1.7-1v0.2c0,0.5,0.8,1,1.7,1s1.7-0.4,1.7-1V9.4C15,10,14.2,10.4,13.3,10.4z"/>
				<path class="st78" d="M13.3,10.7c-0.9,0-1.7-0.4-1.7-1v0.2c0,0.5,0.8,1,1.7,1s1.7-0.4,1.7-1V9.7C15,10.3,14.2,10.7,13.3,10.7z"
					/>
				<path class="st78" d="M13.3,11c-0.9,0-1.7-0.4-1.7-1v0.2c0,0.5,0.8,1,1.7,1s1.7-0.4,1.7-1v-0.2C15,10.6,14.2,11,13.3,11z"/>
				<path class="st78" d="M13.3,11.3c-0.9,0-1.7-0.4-1.7-1v0.2c0,0.5,0.8,1,1.7,1s1.7-0.4,1.7-1v-0.2C15,10.9,14.2,11.3,13.3,11.3z"
					/>
				<path class="st78" d="M13.3,11.7c-0.9,0-1.7-0.4-1.7-1v0.2c0,0.5,0.8,1,1.7,1s1.7-0.4,1.7-1v-0.2C15,11.2,14.2,11.7,13.3,11.7z"
					/>
				<path class="st78" d="M13.3,12c-0.9,0-1.7-0.4-1.7-1v0.2c0,0.5,0.8,1,1.7,1s1.7-0.4,1.7-1V11C15,11.5,14.2,12,13.3,12z"/>
			</g>
		</g>
		<g>
			<g>
				<g>
					<g>
						<g>
							<g>
								<path class="st75" d="M11.6,7.6c-0.5-0.3-0.7-0.6-0.7-1c0-0.4,0.2-0.7,0.7-1c0.9-0.5,2.5-0.5,3.4,0c0.5,0.3,0.7,0.6,0.7,1
									c0,0.4-0.2,0.7-0.7,1C14.1,8.2,12.5,8.2,11.6,7.6z"/>
							</g>
						</g>
					</g>
				</g>
			</g>
			
				<linearGradient id="SVGID_8_" gradientUnits="userSpaceOnUse" x1="-91.7149" y1="11.2381" x2="-86.8992" y2="11.2381" gradientTransform="matrix(1 0 0 1 102.6075 -3.1676)">
				<stop  offset="0" style="stop-color:#DEE0E3"/>
				<stop  offset="6.397092e-02" style="stop-color:#D4D5D9"/>
				<stop  offset="0.1637" style="stop-color:#CCCCD0"/>
				<stop  offset="0.3006" style="stop-color:#C9C9CD"/>
				<stop  offset="0.5873" style="stop-color:#AFAFB3"/>
				<stop  offset="0.699" style="stop-color:#A3A4A8"/>
				<stop  offset="0.8548" style="stop-color:#8B8B8F"/>
				<stop  offset="1" style="stop-color:#717173"/>
			</linearGradient>
			<path class="st79" d="M15,7.6c-0.9,0.5-2.5,0.5-3.4,0c-0.5-0.3-0.7-0.6-0.7-1v1.4c0,0.4,0.2,0.7,0.7,1c0.9,0.5,2.5,0.5,3.4,0
				c0.5-0.3,0.7-0.6,0.7-1V6.7C15.7,7,15.5,7.4,15,7.6z"/>
		</g>
		<g>
			
				<linearGradient id="SVGID_9_" gradientUnits="userSpaceOnUse" x1="-88.83" y1="8.712" x2="-88.0334" y2="10.0918" gradientTransform="matrix(1 0 0 1 102.6075 -3.1676)">
				<stop  offset="0" style="stop-color:#323445"/>
				<stop  offset="0.1579" style="stop-color:#2B2D3E"/>
				<stop  offset="0.6391" style="stop-color:#1A1C2D"/>
				<stop  offset="1" style="stop-color:#141627"/>
			</linearGradient>
			<path class="st80" d="M14.6,5.1l-1.2,0.7c0.2,0.1,0.3,0.4,0.3,0.6v1.1l1.2-0.7V5.6C14.9,5.4,14.8,5.2,14.6,5.1z"/>
			
				<linearGradient id="SVGID_10_" gradientUnits="userSpaceOnUse" x1="-89.8164" y1="7.6188" x2="-89.1645" y2="8.748" gradientTransform="matrix(1 0 0 1 102.6075 -3.1676)">
				<stop  offset="0" style="stop-color:#141627"/>
				<stop  offset="0.1667" style="stop-color:#1A1C2E"/>
				<stop  offset="0.4113" style="stop-color:#292D42"/>
				<stop  offset="0.7037" style="stop-color:#434862"/>
				<stop  offset="1" style="stop-color:#636A8A"/>
			</linearGradient>
			<path class="st81" d="M13.9,5.1c-0.3-0.1-0.5-0.5-0.5-0.8c0-0.1,0.1-0.2,0.1-0.3l-1.2,0.7c-0.1,0-0.1,0.2-0.1,0.3
				c0,0.3,0.2,0.7,0.5,0.8c0.1,0.1,0.2,0.1,0.3,0l1.2-0.7C14.1,5.2,14,5.2,13.9,5.1z"/>
			
				<linearGradient id="SVGID_11_" gradientUnits="userSpaceOnUse" x1="-89.5871" y1="7.0404" x2="-88.6739" y2="8.6221" gradientTransform="matrix(1 0 0 1 102.6075 -3.1676)">
				<stop  offset="0" style="stop-color:#36394B"/>
				<stop  offset="7.167615e-02" style="stop-color:#343648"/>
				<stop  offset="0.2996" style="stop-color:#323445"/>
				<stop  offset="0.5432" style="stop-color:#242636"/>
				<stop  offset="0.7441" style="stop-color:#1E2030"/>
				<stop  offset="1" style="stop-color:#141627"/>
			</linearGradient>
			<path class="st82" d="M13.9,3.7c-0.2-0.1-0.4-0.1-0.5-0.1l-1.2,0.7c0.1-0.1,0.3-0.1,0.5,0.1c0.4,0.2,0.7,0.8,0.7,1.3
				c0,0,0,0,0,0.1l1.2-0.7c0,0,0,0,0-0.1C14.6,4.5,14.3,4,13.9,3.7z"/>
			<path class="st74" d="M12.8,6.9l0.8,0.4l0,0l0.1,0.1V6.3c0-0.2-0.1-0.4-0.3-0.6c0,0,0,0,0-0.1c0-0.5-0.3-1-0.7-1.3
				c-0.2-0.1-0.4-0.1-0.5-0.1c-0.1,0.1-0.2,0.2-0.2,0.5c0,0,0,0.1,0,0.1c-0.1,0-0.1,0-0.1,0c-0.1,0-0.1,0.1-0.1,0.2v1.1L12.8,6.9
				L12.8,6.9z M12.2,5c0-0.1,0.1-0.2,0.1-0.3c0.1,0,0.2,0,0.3,0c0.3,0.1,0.5,0.5,0.5,0.8c0,0.1-0.1,0.3-0.1,0.3c-0.1,0-0.2,0-0.3,0
				C12.4,5.7,12.2,5.3,12.2,5z"/>
		</g>
	</g>
</g>
</svg>
