<?xml version="1.0" encoding="utf-8"?>
<!-- Generator: Adobe Illustrator 24.2.1, SVG Export Plug-In . SVG Version: 6.00 Build 0)  -->
<svg version="1.1" id="Layer_1" xmlns="http://www.w3.org/2000/svg" xmlns:xlink="http://www.w3.org/1999/xlink" x="0px" y="0px"
	 viewBox="0 0 170.1 170.1" style="enable-background:new 0 0 170.1 170.1;" xml:space="preserve">
<style type="text/css">
	.st0{fill:#4D4D4D;}
</style>
<g>
	<g>
		<path class="st0" d="M85,126.7c-23,0-41.6-18.7-41.6-41.6c0-23,18.7-41.6,41.6-41.6s41.6,18.7,41.6,41.6
			C126.7,108,108,126.7,85,126.7z M85,47.2c-20.9,0-37.9,17-37.9,37.9c0,20.9,17,37.9,37.9,37.9s37.9-17,37.9-37.9
			C122.9,64.2,105.9,47.2,85,47.2z M94.1,117c-0.4,0-0.8-0.1-1.1-0.4c-0.5-0.4-0.8-0.9-0.8-1.5v-12.3c0-0.7,0.4-1.4,1-1.7
			c4.3-2.2,7.6-6.1,9-10.7c0.2-0.8,1-1.3,1.8-1.3h11.8c0.6,0,1.1,0.3,1.5,0.7c0.4,0.4,0.5,1,0.4,1.6c-2.3,12.2-11.1,22-23,25.6
			C94.5,116.9,94.3,117,94.1,117z M96,103.9v8.6c8.6-3.4,15.1-10.7,17.5-19.6h-8.1C103.7,97.4,100.3,101.3,96,103.9z M75.9,117
			c-0.2,0-0.4,0-0.5-0.1c-11.9-3.6-20.7-13.4-23-25.6c-0.1-0.6,0-1.1,0.4-1.6c0.4-0.4,0.9-0.7,1.5-0.7H66c0.8,0,1.6,0.5,1.8,1.3
			c1.4,4.6,4.7,8.5,9,10.7c0.6,0.3,1,1,1,1.7v12.3c0,0.6-0.3,1.2-0.8,1.5C76.7,116.8,76.3,117,75.9,117z M56.6,92.8
			c2.4,8.9,8.9,16.2,17.5,19.6v-8.6c-4.3-2.5-7.6-6.5-9.4-11.1H56.6z M115.9,81.1h-12.4c-0.5,0-1-0.2-1.4-0.6
			c-3.2-3.5-9.8-5.7-17-5.7c-7.2,0-13.8,2.3-17,5.7c-0.4,0.4-0.9,0.6-1.4,0.6H54.2c-0.6,0-1.1-0.3-1.5-0.7c-0.4-0.4-0.5-1-0.4-1.6
			c3-15.7,16.7-27.1,32.7-27.1c16,0,29.7,11.4,32.7,27.1c0.1,0.6,0,1.1-0.4,1.6C117,80.8,116.4,81.1,115.9,81.1z M104.2,77.3h9.3
			C110,64.6,98.4,55.5,85,55.5s-25,9-28.5,21.8h9.3c4.1-3.9,11.3-6.4,19.2-6.4S100.2,73.4,104.2,77.3z"/>
	</g>
	<g>
		<path class="st0" d="M91.8,86.6H78.3c-1,0-1.9-0.8-1.9-1.9c0-1,0.8-1.9,1.9-1.9h13.4c1,0,1.9,0.8,1.9,1.9
			C93.6,85.8,92.8,86.6,91.8,86.6z"/>
	</g>
	<g>
		<path class="st0" d="M87.6,95.8h-5.2c-1,0-1.9-0.8-1.9-1.9s0.8-1.9,1.9-1.9h5.2c1,0,1.9,0.8,1.9,1.9S88.7,95.8,87.6,95.8z"/>
	</g>
</g>
</svg>
