<?xml version="1.0" encoding="utf-8"?>
<!-- Generator: Adobe Illustrator 24.2.1, SVG Export Plug-In . SVG Version: 6.00 Build 0)  -->
<svg version="1.1" id="Layer_1" xmlns="http://www.w3.org/2000/svg" xmlns:xlink="http://www.w3.org/1999/xlink" x="0px" y="0px"
	 viewBox="0 0 170.1 170.1" style="enable-background:new 0 0 170.1 170.1;" xml:space="preserve">
<style type="text/css">
	.st0{fill:#4D4D4D;}
</style>
<g>
	<path class="st0" d="M85,43.4c-23,0-41.6,18.7-41.6,41.6c0,23,18.7,41.6,41.6,41.6c23,0,41.6-18.7,41.6-41.6
		C126.7,62.1,108,43.4,85,43.4z M116.9,105.4l-6.8-11.3c1-2.9,1.6-5.9,1.6-9.1c0,0,0-0.1,0-0.1l10.7,5.9
		C121.6,96.2,119.7,101.1,116.9,105.4z M85,108c-12.7,0-23-10.3-23-23c0-12.7,10.3-23,23-23c12.7,0,23,10.3,23,23
		C108,97.7,97.7,108,85,108z M64.6,116.9l11.3-6.8c2.9,1,5.9,1.6,9.1,1.6c0,0,0.1,0,0.1,0l-5.9,10.7C73.9,121.6,69,119.7,64.6,116.9
		z M47.2,85c0-0.6,0-1.2,0-1.7l11.5,6.4c0.6,3.2,1.7,6.1,3.2,8.8l-12.2,0.2C48.1,94.5,47.2,89.9,47.2,85z M53.1,64.6l6.8,11.3
		c-1,2.9-1.6,5.9-1.6,9.1c0,0,0,0.1,0,0.1l-10.7-5.9C48.4,73.9,50.4,69,53.1,64.6z M105.4,53.1l-11.3,6.8c-2.9-1-5.9-1.6-9.1-1.6
		c0,0-0.1,0-0.1,0l5.9-10.7C96.2,48.4,101.1,50.4,105.4,53.1z M111.4,80.4c-0.6-3.2-1.7-6.1-3.2-8.8l12.2-0.2
		c1.7,4.2,2.6,8.9,2.6,13.7c0,0.6,0,1.2,0,1.7L111.4,80.4z M118.7,67.6l-13.2,0.2c-2-2.4-4.5-4.4-7.2-6l10.5-6.3
		C112.8,58.8,116.2,62.9,118.7,67.6z M86.8,47.2l-6.4,11.5c-3.2,0.6-6.1,1.7-8.8,3.2l-0.2-12.2c4.2-1.6,8.9-2.6,13.7-2.6
		C85.6,47.2,86.2,47.2,86.8,47.2z M67.6,51.4l0.2,13.2c-2.4,2-4.4,4.5-6,7.2l-6.3-10.5C58.8,57.2,62.9,53.9,67.6,51.4z M51.4,102.5
		l13.2-0.2c2,2.4,4.5,4.4,7.2,6l-10.5,6.3C57.2,111.2,53.9,107.1,51.4,102.5z M83.3,122.9l6.4-11.5c3.2-0.6,6.1-1.7,8.8-3.2
		l0.2,12.2c-4.2,1.7-8.9,2.6-13.7,2.6C84.5,122.9,83.9,122.9,83.3,122.9z M102.5,118.7l-0.2-13.2c2.4-2,4.4-4.5,6-7.2l6.3,10.5
		C111.2,112.8,107.1,116.2,102.5,118.7z"/>
	<path class="st0" d="M85,76.8c-4.5,0-8.2,3.7-8.2,8.2c0,4.5,3.7,8.2,8.2,8.2c4.5,0,8.2-3.7,8.2-8.2C93.3,80.5,89.6,76.8,85,76.8z
		 M85,89.5c-2.5,0-4.4-2-4.4-4.4c0-2.5,2-4.4,4.4-4.4c2.5,0,4.4,2,4.4,4.4C89.5,87.5,87.5,89.5,85,89.5z"/>
	<path class="st0" d="M94.8,70.3c-0.7-0.7-1.9-0.7-2.7,0c-0.7,0.7-0.7,1.9,0,2.7l5,5c0.4,0.4,0.8,0.6,1.3,0.6c0.5,0,1-0.2,1.3-0.6
		c0.7-0.7,0.7-1.9,0-2.7L94.8,70.3z"/>
	<path class="st0" d="M73,92.1c-0.7-0.7-1.9-0.7-2.7,0c-0.7,0.7-0.7,1.9,0,2.7l5,5c0.4,0.4,0.8,0.6,1.3,0.6c0.5,0,1-0.2,1.3-0.6
		c0.7-0.7,0.7-1.9,0-2.7L73,92.1z"/>
	<path class="st0" d="M97.1,92.1l-5,5c-0.7,0.7-0.7,1.9,0,2.7c0.4,0.4,0.8,0.6,1.3,0.6c0.5,0,1-0.2,1.3-0.6l5-5
		c0.7-0.7,0.7-1.9,0-2.7C99,91.4,97.8,91.4,97.1,92.1z"/>
	<path class="st0" d="M71.6,78.5c0.5,0,1-0.2,1.3-0.6l5-5c0.7-0.7,0.7-1.9,0-2.7c-0.7-0.7-1.9-0.7-2.7,0l-5,5
		c-0.7,0.7-0.7,1.9,0,2.7C70.7,78.3,71.2,78.5,71.6,78.5z"/>
</g>
</svg>
