<?xml version="1.0" encoding="utf-8"?>
<!-- Generator: Adobe Illustrator 24.2.1, SVG Export Plug-In . SVG Version: 6.00 Build 0)  -->
<svg version="1.1" id="Layer_1" xmlns="http://www.w3.org/2000/svg" xmlns:xlink="http://www.w3.org/1999/xlink" x="0px" y="0px"
	 viewBox="0 0 512 512" style="enable-background:new 0 0 512 512;" xml:space="preserve">
<style type="text/css">
	.st0{fill:#FFFFFF;}
</style>
<path d="M503.2,88.3H256v0H8.8c-4.9,0-8.8,4-8.8,8.8v317.8c0,4.9,4,8.8,8.8,8.8H256v0h247.2c4.9,0,8.8-4,8.8-8.8V97.1
	C512,92.2,508,88.3,503.2,88.3z"/>
<g>
	<path class="st0" d="M115.6,242.2c-2.2-2.3-4.9-4.4-8.1-6.3c-4.1-2.4-9-3.6-14.5-3.6c-7.3,0-13.9,1.7-19.6,5.1
		c-5.7,3.4-10.3,8.2-13.5,14.3c-3.2,6.1-4.9,13.1-4.9,20.9c0,7.8,1.6,14.9,4.7,21c3.2,6.1,7.5,11,12.9,14.4c5.4,3.5,11.4,5.2,18,5.2
		c6.1,0,11.6-1.5,16.3-4.3c3.6-2.2,6.5-4.6,8.7-7v9.9h17v-78h-17V242.2z M113.4,260.1c1.9,3.7,2.8,7.9,2.8,12.6
		c0,4.7-0.9,9-2.8,12.8c-1.8,3.7-4.5,6.7-7.8,8.9c-3.3,2.1-7.2,3.2-11.6,3.2c-4.2,0-8-1.1-11.3-3.2c-3.3-2.2-5.9-5.1-7.8-8.9
		c-1.9-3.7-2.8-8.1-2.8-12.8c0-4.7,0.9-9,2.8-12.7c1.8-3.7,4.4-6.6,7.7-8.7c3.3-2.1,7.1-3.2,11.3-3.2c4.4,0,8.3,1.1,11.6,3.2
		C108.9,253.5,111.5,256.5,113.4,260.1z"/>
	<path class="st0" d="M178.6,221c1.1-1.4,3.3-2.1,6.5-2.1c1.4,0,2.8,0.4,4.2,1.1c1.4,0.8,2.6,1.6,3.5,2.5l1,1l5.9-13.3l-0.4-0.5
		c-1.2-1.4-3.2-2.9-5.8-4.4c-2.7-1.5-6.1-2.3-10.1-2.3c-6.9,0-12.6,2.2-17,6.6c-4.4,4.4-6.6,10-6.6,16.8v8.8h-12.2V251h12.2v60.9h17
		V251h17.9v-15.7h-17.9v-8.8C176.8,224.2,177.4,222.4,178.6,221z"/>
	<path class="st0" d="M247.5,232.4c-4.9,0-9.7,1.6-14.1,4.7c-3.3,2.3-6,5.1-8.1,8.3v-11.4h-17v78h17v-43c0-3.8,0.9-7.2,2.8-9.9
		c1.9-2.8,4.3-5,7.1-6.5c2.8-1.5,5.7-2.3,8.6-2.3c1.5,0,2.9,0.2,4.2,0.5c1.3,0.3,2.4,0.7,3.3,1.2l1.1,0.6l4.4-18.2l-0.7-0.4
		C254.2,232.9,251.2,232.4,247.5,232.4z"/>
	<path class="st0" d="M277.6,198.6c-3.7,0-6.5,1.1-8.3,3.2c-1.8,2.1-2.7,4.5-2.7,7.2c0,3.1,0.9,5.6,2.7,7.5c1.8,1.9,4.6,2.9,8.3,2.9
		c3.7,0,6.5-1.1,8.3-3.2c1.8-2.1,2.7-4.5,2.7-7.2c0-3-0.9-5.6-2.7-7.5C284.1,199.6,281.3,198.6,277.6,198.6z"/>
	<rect x="269.4" y="233.9" class="st0" width="16.9" height="78"/>
	<path class="st0" d="M362.2,286.7c-2.2,2.6-5,5.2-8.5,7.6c-3.4,2.4-7.4,3.6-12,3.6c-4,0-7.9-1.1-11.4-3.3c-3.6-2.2-6.5-5.2-8.6-8.9
		c-2.2-3.7-3.3-8.1-3.3-12.9c0-4.8,1-9.2,3.1-12.9c2-3.7,4.8-6.7,8.3-8.9c3.5-2.2,7.5-3.3,11.8-3.3c3.7,0,7.5,1.1,11.4,3.4
		c3.9,2.3,7,5,9.1,8.2l0.8,1.1l9.5-11.7l-0.4-0.6c-2.8-4.7-7.1-8.5-12.7-11.4c-5.6-2.9-12.1-4.4-19.3-4.4c-7.1,0-13.6,1.8-19.3,5.4
		c-5.7,3.5-10.3,8.4-13.6,14.5c-3.3,6.1-5,13-5,20.7c0,7.6,1.7,14.5,5,20.6c3.3,6.1,7.9,11,13.6,14.6c5.7,3.6,12.2,5.4,19.3,5.4
		c4.5,0,8.9-0.7,13.1-2.2c4.1-1.4,7.9-3.3,11.1-5.6c3.3-2.3,5.9-4.9,7.8-7.5l0.4-0.6l-9.5-11.7L362.2,286.7z"/>
	<path class="st0" d="M440,233.9v8.3c-2.2-2.3-4.9-4.4-8.1-6.3c-4.1-2.4-9-3.6-14.5-3.6c-7.3,0-13.9,1.7-19.6,5.1
		c-5.7,3.4-10.3,8.2-13.5,14.3c-3.2,6.1-4.9,13.1-4.9,20.9c0,7.8,1.6,14.9,4.7,21c3.2,6.1,7.5,11,12.9,14.4c5.4,3.5,11.4,5.2,18,5.2
		c6.1,0,11.6-1.5,16.3-4.3c3.6-2.2,6.5-4.6,8.7-7v9.9h17v-78H440z M440.6,272.7c0,4.7-0.9,9-2.8,12.8c-1.8,3.7-4.5,6.7-7.8,8.9
		c-3.3,2.1-7.2,3.2-11.6,3.2c-4.2,0-8-1.1-11.3-3.2c-3.3-2.2-5.9-5.1-7.8-8.9c-1.9-3.7-2.8-8.1-2.8-12.8c0-4.7,0.9-9,2.8-12.7
		c1.8-3.7,4.4-6.6,7.7-8.7c3.3-2.1,7.1-3.2,11.3-3.2c4.4,0,8.3,1.1,11.6,3.2c3.3,2.2,5.9,5.1,7.8,8.8
		C439.6,263.8,440.6,268.1,440.6,272.7z"/>
</g>
</svg>
