<?xml version="1.0" encoding="utf-8"?>
<!-- Generator: Adobe Illustrator 24.2.1, SVG Export Plug-In . SVG Version: 6.00 Build 0)  -->
<svg version="1.1" xmlns="http://www.w3.org/2000/svg" xmlns:xlink="http://www.w3.org/1999/xlink" x="0px" y="0px"
	 viewBox="0 0 28.3 28.3" style="enable-background:new 0 0 28.3 28.3;" xml:space="preserve">
<style type="text/css">
	.st0{opacity:0;fill:#FFFFFF;}
	.st1{opacity:3.030303e-02;fill:#FCFCFC;}
	.st2{opacity:6.060606e-02;fill:#F9F9F9;}
	.st3{opacity:9.090909e-02;fill:#F5F5F5;}
	.st4{opacity:0.1212;fill:#F2F2F2;}
	.st5{opacity:0.1515;fill:#EFEFEF;}
	.st6{opacity:0.1818;fill:#ECECEC;}
	.st7{opacity:0.2121;fill:#E8E8E8;}
	.st8{opacity:0.2424;fill:#E5E5E5;}
	.st9{opacity:0.2727;fill:#E2E2E2;}
	.st10{opacity:0.303;fill:#DFDFDF;}
	.st11{opacity:0.3333;fill:#DBDBDB;}
	.st12{opacity:0.3636;fill:#D8D8D8;}
	.st13{opacity:0.3939;fill:#D5D5D5;}
	.st14{opacity:0.4242;fill:#D2D2D2;}
	.st15{opacity:0.4545;fill:#CECECE;}
	.st16{opacity:0.4848;fill:#CBCBCB;}
	.st17{opacity:0.5152;fill:#C8C8C8;}
	.st18{opacity:0.5455;fill:#C5C5C5;}
	.st19{opacity:0.5758;fill:#C1C1C1;}
	.st20{opacity:0.6061;fill:#BEBEBE;}
	.st21{opacity:0.6364;fill:#BBBBBB;}
	.st22{opacity:0.6667;fill:#B8B8B8;}
	.st23{opacity:0.697;fill:#B4B4B4;}
	.st24{opacity:0.7273;fill:#B1B1B1;}
	.st25{opacity:0.7576;fill:#AEAEAE;}
	.st26{opacity:0.7879;fill:#ABABAB;}
	.st27{opacity:0.8182;fill:#A7A7A7;}
	.st28{opacity:0.8485;fill:#A4A4A4;}
	.st29{opacity:0.8788;fill:#A1A1A1;}
	.st30{opacity:0.9091;fill:#9E9E9E;}
	.st31{opacity:0.9394;fill:#9A9A9A;}
	.st32{opacity:0.9697;fill:#979797;}
	.st33{fill:#949494;}
	.st34{fill:#EF5619;}
	.st35{fill:url(#SVGID_1_);}
	.st36{clip-path:url(#SVGID_3_);}
	.st37{opacity:3.030303e-02;fill:#FEF8F7;}
	.st38{opacity:6.060606e-02;fill:#FDF1F0;}
	.st39{opacity:9.090909e-02;fill:#FCEBE8;}
	.st40{opacity:0.1212;fill:#FBE4E1;}
	.st41{opacity:0.1515;fill:#FADDD9;}
	.st42{opacity:0.1818;fill:#F9D6D2;}
	.st43{opacity:0.2121;fill:#F8CFCA;}
	.st44{opacity:0.2424;fill:#F7C9C3;}
	.st45{opacity:0.2727;fill:#F7C2BB;}
	.st46{opacity:0.303;fill:#F6BBB4;}
	.st47{opacity:0.3333;fill:#F5B4AC;}
	.st48{opacity:0.3636;fill:#F4AEA5;}
	.st49{opacity:0.3939;fill:#F3A79D;}
	.st50{opacity:0.4242;fill:#F2A096;}
	.st51{opacity:0.4545;fill:#F1998E;}
	.st52{opacity:0.4848;fill:#F09287;}
	.st53{opacity:0.5152;fill:#EF8C7F;}
	.st54{opacity:0.5455;fill:#EE8578;}
	.st55{opacity:0.5758;fill:#ED7E70;}
	.st56{opacity:0.6061;fill:#EC7769;}
	.st57{opacity:0.6364;fill:#EB7061;}
	.st58{opacity:0.6667;fill:#EA6A5A;}
	.st59{opacity:0.697;fill:#E96352;}
	.st60{opacity:0.7273;fill:#E85C4B;}
	.st61{opacity:0.7576;fill:#E85543;}
	.st62{opacity:0.7879;fill:#E74F3C;}
	.st63{opacity:0.8182;fill:#E64834;}
	.st64{opacity:0.8485;fill:#E5412D;}
	.st65{opacity:0.8788;fill:#E43A25;}
	.st66{opacity:0.9091;fill:#E3331E;}
	.st67{opacity:0.9394;fill:#E22D16;}
	.st68{opacity:0.9697;fill:#E1260F;}
	.st69{fill:#E01F07;}
	.st70{enable-background:new    ;}
	.st71{fill:#D9BC75;}
	.st72{fill:#CDB26F;}
	.st73{fill:#BAA265;}
	.st74{fill:#E34444;}
	.st75{fill:#E35F5F;}
	.st76{fill:#9E8956;}
	.st77{fill:#BDBDBD;}
	.st78{fill:#73643F;}
	.st79{fill:#636363;}
	.st80{fill:#595959;}
	.st81{fill:#4F4F4F;}
	.st82{fill:#454545;}
	.st83{fill:#383838;}
	.st84{fill:#4A4A4A;}
</style>
<g id="Layer_3">
	<g>
		<g>
			<path class="st0" d="M23.9,13c-5.3-3-10.7-3-16,0l0,0c-2.6,1.5-4,3.1-4,4.6c0,1.5,1.3,3.1,4,4.6c5.3,3,10.7,3,16,0
				c2.6-1.5,4-3.1,4-4.6C27.9,16.1,26.6,14.5,23.9,13z"/>
			<path class="st1" d="M23.8,13c-5.3-3-10.7-3-16,0l0,0c-2.6,1.5-4,3.1-4,4.6c0,1.5,1.3,3.1,4,4.6c5.3,3,10.7,3,16,0
				c2.6-1.5,4-3.1,4-4.6C27.8,16.1,26.5,14.5,23.8,13z"/>
			<path class="st2" d="M23.8,13c-5.3-3-10.7-3-16,0l0,0c-2.6,1.5-4,3.1-4,4.6c0,1.5,1.3,3.1,4,4.6c5.3,3,10.7,3,16,0
				c2.6-1.5,4-3.1,4-4.6C27.7,16.1,26.4,14.5,23.8,13z"/>
			<path class="st3" d="M23.7,13c-5.3-3-10.7-3-16,0l0,0c-2.6,1.5-4,3.1-4,4.6c0,1.5,1.3,3.1,4,4.6c5.3,3,10.7,3,16,0
				c2.6-1.5,4-3.1,4-4.6C27.6,16.1,26.3,14.5,23.7,13z"/>
			<path class="st4" d="M23.6,13c-5.3-3-10.7-3-16,0l0,0c-2.6,1.5-4,3.1-4,4.6c0,1.5,1.3,3.1,4,4.6c5.3,3,10.7,3,16,0
				c2.6-1.5,4-3.1,4-4.6C27.6,16.1,26.2,14.5,23.6,13z"/>
			<path class="st5" d="M23.5,13c-5.3-3-10.7-3-16,0l0,0c-2.6,1.5-4,3.1-4,4.6c0,1.5,1.3,3.1,4,4.6c5.3,3,10.7,3,16,0
				c2.6-1.5,4-3.1,4-4.6C27.5,16.1,26.2,14.5,23.5,13z"/>
			<path class="st6" d="M23.5,13c-5.3-3-10.7-3-16,0l0,0c-2.6,1.5-4,3.1-4,4.6c0,1.5,1.3,3.1,4,4.6c5.3,3,10.7,3,16,0
				c2.6-1.5,4-3.1,4-4.6C27.4,16.1,26.1,14.5,23.5,13z"/>
			<path class="st7" d="M23.4,13c-5.3-3-10.7-3-16,0l0,0c-2.6,1.5-4,3.1-4,4.6c0,1.5,1.3,3.1,4,4.6c5.3,3,10.7,3,16,0
				c2.6-1.5,4-3.1,4-4.6C27.3,16.1,26,14.5,23.4,13z"/>
			<path class="st8" d="M23.3,13c-5.3-3-10.7-3-16,0l0,0c-2.6,1.5-4,3.1-4,4.6c0,1.5,1.3,3.1,4,4.6c5.3,3,10.7,3,16,0
				c2.6-1.5,4-3.1,4-4.6C27.2,16.1,25.9,14.5,23.3,13z"/>
			<path class="st9" d="M23.2,13c-5.3-3-10.7-3-16,0l0,0c-2.6,1.5-4,3.1-4,4.6c0,1.5,1.3,3.1,4,4.6c5.3,3,10.7,3,16,0
				c2.6-1.5,4-3.1,4-4.6C27.2,16.1,25.8,14.5,23.2,13z"/>
			<path class="st10" d="M23.1,13c-5.3-3-10.7-3-16,0l0,0c-2.6,1.5-4,3.1-4,4.6c0,1.5,1.3,3.1,4,4.6c5.3,3,10.7,3,16,0
				c2.6-1.5,4-3.1,4-4.6C27.1,16.1,25.8,14.5,23.1,13z"/>
			<path class="st11" d="M23.1,13c-5.3-3-10.7-3-16,0l0,0c-2.6,1.5-4,3.1-4,4.6c0,1.5,1.3,3.1,4,4.6c5.3,3,10.7,3,16,0
				c2.6-1.5,4-3.1,4-4.6C27,16.1,25.7,14.5,23.1,13z"/>
			<path class="st12" d="M23,13c-5.3-3-10.7-3-16,0l0,0c-2.6,1.5-4,3.1-4,4.6c0,1.5,1.3,3.1,4,4.6c5.3,3,10.7,3,16,0
				c2.6-1.5,4-3.1,4-4.6C26.9,16.1,25.6,14.5,23,13z"/>
			<path class="st13" d="M22.9,13c-5.3-3-10.7-3-16,0l0,0c-2.6,1.5-4,3.1-4,4.6c0,1.5,1.3,3.1,4,4.6c5.3,3,10.7,3,16,0
				c2.6-1.5,4-3.1,4-4.6C26.8,16.1,25.5,14.5,22.9,13z"/>
			<path class="st14" d="M22.8,13c-5.3-3-10.7-3-16,0l0,0c-2.6,1.5-4,3.1-4,4.6c0,1.5,1.3,3.1,4,4.6c5.3,3,10.7,3,16,0
				c2.6-1.5,4-3.1,4-4.6C26.8,16.1,25.4,14.5,22.8,13z"/>
			<path class="st15" d="M22.7,13c-5.3-3-10.7-3-16,0l0,0c-2.6,1.5-4,3.1-4,4.6c0,1.5,1.3,3.1,4,4.6c5.3,3,10.7,3,16,0
				c2.6-1.5,4-3.1,4-4.6C26.7,16.1,25.4,14.5,22.7,13z"/>
			<path class="st16" d="M22.7,13c-5.3-3-10.7-3-16,0l0,0c-2.6,1.5-4,3.1-4,4.6c0,1.5,1.3,3.1,4,4.6c5.3,3,10.7,3,16,0
				c2.6-1.5,4-3.1,4-4.6C26.6,16.1,25.3,14.5,22.7,13z"/>
			<path class="st17" d="M22.6,13c-5.3-3-10.7-3-16,0l0,0c-2.6,1.5-4,3.1-4,4.6c0,1.5,1.3,3.1,4,4.6c5.3,3,10.7,3,16,0
				c2.6-1.5,4-3.1,4-4.6C26.5,16.1,25.2,14.5,22.6,13z"/>
			<path class="st18" d="M22.5,13c-5.3-3-10.7-3-16,0l0,0c-2.6,1.5-4,3.1-4,4.6c0,1.5,1.3,3.1,4,4.6c5.3,3,10.7,3,16,0
				c2.6-1.5,4-3.1,4-4.6C26.4,16.1,25.1,14.5,22.5,13z"/>
			<path class="st19" d="M22.4,13c-5.3-3-10.7-3-16,0l0,0c-2.6,1.5-4,3.1-4,4.6c0,1.5,1.3,3.1,4,4.6c5.3,3,10.7,3,16,0
				c2.6-1.5,4-3.1,4-4.6C26.4,16.1,25.1,14.5,22.4,13z"/>
			<path class="st20" d="M22.3,13c-5.3-3-10.7-3-16,0l0,0c-2.6,1.5-4,3.1-4,4.6c0,1.5,1.3,3.1,4,4.6c5.3,3,10.7,3,16,0
				c2.6-1.5,4-3.1,4-4.6C26.3,16.1,25,14.5,22.3,13z"/>
			<path class="st21" d="M22.3,13c-5.3-3-10.7-3-16,0l0,0c-2.6,1.5-4,3.1-4,4.6c0,1.5,1.3,3.1,4,4.6c5.3,3,10.7,3,16,0
				c2.6-1.5,4-3.1,4-4.6C26.2,16.1,24.9,14.5,22.3,13z"/>
			<path class="st22" d="M22.2,13c-5.3-3-10.7-3-16,0l0,0c-2.6,1.5-4,3.1-4,4.6c0,1.5,1.3,3.1,4,4.6c5.3,3,10.7,3,16,0
				c2.6-1.5,4-3.1,4-4.6C26.1,16.1,24.8,14.5,22.2,13z"/>
			<path class="st23" d="M22.1,13c-5.3-3-10.7-3-16,0l0,0c-2.6,1.5-4,3.1-4,4.6c0,1.5,1.3,3.1,4,4.6c5.3,3,10.7,3,16,0
				c2.6-1.5,4-3.1,4-4.6C26.1,16.1,24.7,14.5,22.1,13z"/>
			<path class="st24" d="M22,13c-5.3-3-10.7-3-16,0l0,0c-2.6,1.5-4,3.1-4,4.6c0,1.5,1.3,3.1,4,4.6c5.3,3,10.7,3,16,0
				c2.6-1.5,4-3.1,4-4.6C26,16.1,24.7,14.5,22,13z"/>
			<path class="st25" d="M21.9,13c-5.3-3-10.7-3-16,0l0,0c-2.6,1.5-4,3.1-4,4.6c0,1.5,1.3,3.1,4,4.6c5.3,3,10.7,3,16,0
				c2.6-1.5,4-3.1,4-4.6C25.9,16.1,24.6,14.5,21.9,13z"/>
			<path class="st26" d="M21.9,13c-5.3-3-10.7-3-16,0l0,0c-2.6,1.5-4,3.1-4,4.6c0,1.5,1.3,3.1,4,4.6c5.3,3,10.7,3,16,0
				c2.6-1.5,4-3.1,4-4.6C25.8,16.1,24.5,14.5,21.9,13z"/>
			<path class="st27" d="M21.8,13c-5.3-3-10.7-3-16,0l0,0c-2.6,1.5-4,3.1-4,4.6c0,1.5,1.3,3.1,4,4.6c5.3,3,10.7,3,16,0
				c2.6-1.5,4-3.1,4-4.6C25.7,16.1,24.4,14.5,21.8,13z"/>
			<path class="st28" d="M21.7,13c-5.3-3-10.7-3-16,0l0,0c-2.6,1.5-4,3.1-4,4.6c0,1.5,1.3,3.1,4,4.6c5.3,3,10.7,3,16,0
				c2.6-1.5,4-3.1,4-4.6C25.7,16.1,24.3,14.5,21.7,13z"/>
			<path class="st29" d="M21.6,13c-5.3-3-10.7-3-16,0l0,0c-2.6,1.5-4,3.1-4,4.6c0,1.5,1.3,3.1,4,4.6c5.3,3,10.7,3,16,0
				c2.6-1.5,4-3.1,4-4.6C25.6,16.1,24.3,14.5,21.6,13z"/>
			<path class="st30" d="M21.5,13c-5.3-3-10.7-3-16,0l0,0c-2.6,1.5-4,3.1-4,4.6c0,1.5,1.3,3.1,4,4.6c5.3,3,10.7,3,16,0
				c2.6-1.5,4-3.1,4-4.6C25.5,16.1,24.2,14.5,21.5,13z"/>
			<path class="st31" d="M21.5,13c-5.3-3-10.7-3-16,0l0,0c-2.6,1.5-4,3.1-4,4.6c0,1.5,1.3,3.1,4,4.6c5.3,3,10.7,3,16,0
				c2.6-1.5,4-3.1,4-4.6C25.4,16.1,24.1,14.5,21.5,13z"/>
			<path class="st32" d="M21.4,13c-5.3-3-10.7-3-16,0l0,0c-2.6,1.5-4,3.1-4,4.6c0,1.5,1.3,3.1,4,4.6c5.3,3,10.7,3,16,0
				c2.6-1.5,4-3.1,4-4.6C25.3,16.1,24,14.5,21.4,13z"/>
			<path class="st33" d="M21.3,13c-5.3-3-10.7-3-16,0l0,0c-2.6,1.5-4,3.1-4,4.6c0,1.5,1.3,3.1,4,4.6c5.3,3,10.7,3,16,0
				c2.6-1.5,4-3.1,4-4.6C25.3,16.1,23.9,14.5,21.3,13z"/>
		</g>
		<g>
			<path class="st34" d="M21.3,13c-5.3-3-10.7-3-16,0l0,0c-2.6,1.5-4,3.1-4,4.6c0,1.5,1.3,3.1,4,4.6c5.3,3,10.7,3,16,0
				c2.6-1.5,4-3.1,4-4.6C25.3,16.1,23.9,14.5,21.3,13z"/>
			
				<linearGradient id="SVGID_1_" gradientUnits="userSpaceOnUse" x1="-100.9978" y1="75.0913" x2="-77.1162" y2="75.0913" gradientTransform="matrix(1 0 0 1 102.3737 -55.1646)">
				<stop  offset="0" style="stop-color:#FF682B"/>
				<stop  offset="7.192162e-02" style="stop-color:#FF6B2E"/>
				<stop  offset="0.3006" style="stop-color:#FF6D31"/>
				<stop  offset="0.5494" style="stop-color:#F65D21"/>
				<stop  offset="0.7441" style="stop-color:#F3571B"/>
				<stop  offset="1" style="stop-color:#C93000"/>
			</linearGradient>
			<path class="st35" d="M21.3,19.9c-5.3,3-10.7,3-16,0c-2.6-1.5-4-3.1-4-4.6v2.3c0,1.5,1.3,3.1,4,4.6c5.3,3,10.7,3,16,0
				c2.6-1.5,4-3.1,4-4.6v-2.3C25.3,16.9,23.9,18.4,21.3,19.9z"/>
			<path class="st34" d="M21.3,10.7c-5.3-3-10.7-3-16,0l0,0c-2.6,1.5-4,3.1-4,4.6s1.3,3.1,4,4.6c5.3,3,10.7,3,16,0
				c2.6-1.5,4-3.1,4-4.6S23.9,12.2,21.3,10.7z"/>
		</g>
		<g>
			<defs>
				<path id="SVGID_2_" d="M21.3,10.7c-5.3-3-10.7-3-16,0l0,0c-2.6,1.5-4,3.1-4,4.6s1.3,3.1,4,4.6c5.3,3,10.7,3,16,0
					c2.6-1.5,4-3.1,4-4.6S23.9,12.2,21.3,10.7z"/>
			</defs>
			<clipPath id="SVGID_3_">
				<use xlink:href="#SVGID_2_"  style="overflow:visible;"/>
			</clipPath>
			<g class="st36">
				<path class="st0" d="M28.6,13.1C28.6,13.1,28.6,13.2,28.6,13.1c0,0.1,0,0.1,0,0.2c0,0.1,0,0.1,0,0.2c0-0.1,0-0.1,0-0.2
					C28.6,13.2,28.6,13.2,28.6,13.1C28.6,13.2,28.6,13.1,28.6,13.1L28.6,13.1z M28.6,14.1c0-0.2,0-0.4,0-0.7
					C28.6,13.7,28.6,13.9,28.6,14.1z M26.5,6.7L26,7c-1-0.6-1.9-0.8-2.6-0.3l-0.7,0.5l0,0l0,0l0,0l0,0c-0.2,0.2-0.4,0.4-0.6,0.7
					l-2.3,1.6l-0.4,0.3l0,0l-0.4,0.2c-0.3,0-0.6,0.1-0.8,0.3l-0.7,0.5l0,0l0,0l0,0l0,0c-0.7,0.5-1,1.5-0.8,2.7l-1,0.7
					c-0.5,0.5,0,1.9,1.3,3.2c1.1,1.1,2.3,1.8,2.9,1.6c1,0.7,2,0.8,2.7,0.3c0.1-0.1,0.2-0.1,0.2-0.2c-0.1,0.1-0.1,0.1-0.2,0.2
					l0.7-0.5c0.2-0.2,0.4-0.4,0.6-0.7l0.4-0.2l0,0l1.8-1.3l0,0l0.9-0.6c0.3,0,0.6-0.1,0.8-0.3c0.2-0.1,0.3-0.2,0.4-0.4
					c-0.1,0.2-0.2,0.3-0.4,0.4l0.7-0.5c0.7-0.5,1-1.5,0.8-2.7l0.5-0.4c0.8-0.6,0.7-2.3-0.2-3.8C28.7,6.9,27.3,6.1,26.5,6.7z
					 M25.3,7.5c-0.1,0-0.1-0.1-0.2-0.1C25.2,7.5,25.2,7.5,25.3,7.5L25.3,7.5z M28.3,15.2C28.3,15.2,28.3,15.2,28.3,15.2
					C28.3,15.2,28.3,15.2,28.3,15.2z"/>
				<path class="st37" d="M28.3,13.1L28.3,13.1C28.3,13.2,28.3,13.2,28.3,13.1c0,0.1,0,0.1,0,0.2c0,0,0,0.1,0,0.1c0,0,0,0.1,0,0.1
					c0,0,0-0.1,0-0.1c0,0,0-0.1,0-0.1C28.3,13.3,28.3,13.3,28.3,13.1C28.3,13.2,28.3,13.2,28.3,13.1z M28.3,14.2c0-0.2,0-0.4,0-0.7
					C28.3,13.7,28.3,13.9,28.3,14.2z M26.2,6.7c0,0-0.5,0.3-0.6,0.3c-0.9-0.6-1.9-0.7-2.6-0.3l-0.7,0.5l0,0l0,0l0,0c0,0,0,0,0,0
					c-0.2,0.2-0.5,0.4-0.6,0.7l-2.2,1.6l-0.4,0.3l0,0c0,0-0.4,0.2-0.4,0.2c-0.3,0-0.6,0.1-0.8,0.3l-0.7,0.5l0,0l0,0l0,0
					c0,0,0,0,0,0.1c-0.7,0.5-1,1.5-0.8,2.7c0,0-1,0.7-0.9,0.8c-0.5,0.5,0.1,1.9,1.3,3.2c1.1,1.1,2.3,1.7,2.9,1.6
					c0.9,0.6,1.9,0.8,2.6,0.3c0.1-0.1,0.1-0.1,0.2-0.2c-0.1,0.1-0.1,0.1-0.2,0.2c0,0,0.7-0.5,0.7-0.5c0.2-0.2,0.4-0.4,0.6-0.7
					l0.3-0.2l0.1,0l1.8-1.3l0,0c0,0,0.8-0.6,0.9-0.6c0.3,0,0.6-0.1,0.8-0.3c0.1-0.1,0.3-0.2,0.4-0.4c-0.1,0.2-0.2,0.3-0.4,0.4
					c0,0,0.7-0.5,0.7-0.6c0.7-0.5,0.9-1.5,0.8-2.7c0,0,0.5-0.4,0.5-0.5c0.8-0.6,0.7-2.3-0.2-3.8C28.4,6.9,27,6.2,26.2,6.7z M25,7.6
					c-0.1,0-0.1-0.1-0.2-0.1C24.9,7.5,25,7.5,25,7.6L25,7.6z M28,15.2C28,15.2,28,15.2,28,15.2C28,15.2,28,15.2,28,15.2z"/>
				<path class="st38" d="M28,13.2L28,13.2C28,13.2,28,13.3,28,13.2c0,0.1,0,0.1,0,0.2c0,0,0,0.1,0,0.1c0,0,0,0.1,0,0.1
					c0,0,0-0.1,0-0.1c0,0,0-0.1,0-0.1C28,13.3,28,13.3,28,13.2C28,13.3,28,13.2,28,13.2z M28,14.2c0-0.2,0-0.4,0-0.7
					C28,13.8,28,14,28,14.2z M25.9,6.8c0-0.1-0.6,0.3-0.6,0.3c-0.9-0.6-1.9-0.7-2.5-0.3l-0.7,0.5l0,0l0,0l0,0c0,0,0,0,0,0
					c-0.2,0.2-0.6,0.5-0.7,0.7l-2.2,1.5l-0.4,0.3l0,0c0,0-0.4,0.2-0.4,0.2c-0.3,0-0.6,0.1-0.8,0.3L17,10.8l0,0l0,0l0,0
					c0,0-0.1,0.1-0.1,0.2c-0.6,0.5-1,1.4-0.8,2.6c0,0-0.9,0.8-0.9,0.9c-0.5,0.5,0.1,1.9,1.3,3.2c1,1.1,2.2,1.7,2.9,1.6
					c0.9,0.6,1.9,0.8,2.5,0.3c0.1,0,0.1-0.1,0.2-0.2c-0.1,0.1-0.1,0.1-0.2,0.2c0,0,0.7-0.5,0.7-0.5c0.2-0.2,0.4-0.4,0.6-0.7l0.3-0.2
					l0.1-0.1l1.7-1.2l0.1,0c0,0,0.8-0.6,0.9-0.6c0.3,0,0.6-0.1,0.8-0.3c0.1-0.1,0.3-0.2,0.4-0.4c-0.1,0.2-0.2,0.3-0.3,0.4
					c0,0,0.7-0.5,0.7-0.6c0.6-0.5,0.9-1.4,0.8-2.6c0.1,0,0.5-0.5,0.5-0.6c0.7-0.6,0.6-2.3-0.3-3.7C28,7,26.7,6.2,25.9,6.8z
					 M24.8,7.6c-0.1,0-0.1-0.1-0.2-0.1C24.7,7.5,24.7,7.6,24.8,7.6L24.8,7.6z M27.6,15.3C27.7,15.3,27.7,15.3,27.6,15.3
					C27.7,15.3,27.7,15.3,27.6,15.3z"/>
				<path class="st39" d="M27.7,13.3L27.7,13.3C27.7,13.3,27.7,13.3,27.7,13.3c0,0.1,0,0.1,0,0.2c0,0,0,0.1,0,0.1c0,0,0,0.1,0,0.1
					c0,0,0-0.1,0-0.1c0,0,0-0.1,0-0.1C27.7,13.4,27.7,13.4,27.7,13.3C27.7,13.3,27.7,13.3,27.7,13.3z M27.6,14.3c0-0.2,0-0.4,0-0.7
					C27.7,13.8,27.7,14.1,27.6,14.3z M25.7,6.8C25.6,6.7,25,7,25,7.1c-0.9-0.6-1.8-0.7-2.4-0.2l-0.6,0.5l0,0l0,0l0,0
					c0,0,0,0-0.1,0.1c-0.2,0.2-0.6,0.5-0.8,0.7l-2.1,1.5l-0.4,0.3l0,0c0,0-0.4,0.2-0.4,0.2c-0.3,0-0.6,0.1-0.8,0.3l-0.6,0.5l0,0l0,0
					l0,0c-0.1,0-0.1,0.1-0.1,0.2c-0.6,0.4-1,1.4-0.9,2.5c-0.1,0-0.9,0.8-0.8,0.9c-0.4,0.6,0.2,1.9,1.4,3.1c1,1.1,2.2,1.7,2.9,1.6
					c0.9,0.6,1.8,0.7,2.4,0.3c0.1,0,0.1-0.1,0.2-0.2c-0.1,0.1-0.1,0.1-0.1,0.1c0,0,0.7-0.5,0.7-0.5c0.2-0.2,0.4-0.4,0.6-0.7l0.3-0.2
					l0.2-0.1l1.7-1.2l0.1,0c0,0,0.8-0.5,0.9-0.6c0.3,0,0.6-0.1,0.8-0.3c0.1-0.1,0.2-0.2,0.3-0.3c-0.1,0.1-0.2,0.2-0.3,0.3
					c0.1,0,0.8-0.6,0.8-0.7c0.6-0.4,0.9-1.4,0.8-2.5c0.1,0,0.6-0.5,0.5-0.7c0.7-0.7,0.5-2.3-0.4-3.7C27.7,7,26.4,6.3,25.7,6.8z
					 M24.5,7.6c-0.1,0-0.1-0.1-0.2-0.1C24.4,7.6,24.4,7.6,24.5,7.6L24.5,7.6z M27.3,15.3C27.3,15.3,27.3,15.3,27.3,15.3
					C27.3,15.3,27.3,15.3,27.3,15.3z"/>
				<path class="st40" d="M27.3,13.3L27.3,13.3C27.4,13.3,27.4,13.4,27.3,13.3c0,0.1,0,0.1,0,0.2c0,0,0,0.1,0,0.1c0,0,0,0.1,0,0.1
					c0,0,0-0.1,0-0.1c0,0,0-0.1,0-0.1C27.4,13.4,27.4,13.4,27.3,13.3C27.4,13.4,27.4,13.3,27.3,13.3z M27.3,14.3c0-0.2,0-0.4,0-0.7
					C27.4,13.9,27.4,14.1,27.3,14.3z M25.4,6.9c-0.1-0.1-0.7,0.2-0.7,0.2c-0.8-0.6-1.8-0.6-2.4-0.2l-0.6,0.4l0,0l0,0l0,0
					c0,0-0.1,0-0.1,0.1c-0.2,0.2-0.7,0.5-0.8,0.7l-2.1,1.4l-0.3,0.2l0,0c0,0-0.4,0.2-0.4,0.2c-0.3,0-0.6,0.1-0.8,0.3l-0.6,0.4l0,0
					l0,0l0,0c-0.1,0-0.1,0.2-0.2,0.3c-0.6,0.4-1,1.4-0.9,2.5c-0.1,0-0.9,0.8-0.8,1c-0.4,0.6,0.2,2,1.4,3.1c1,1.1,2.2,1.7,2.9,1.5
					c0.9,0.6,1.7,0.7,2.4,0.3c0.1,0,0.1-0.1,0.2-0.1c-0.1,0.1,0,0.1-0.1,0.1c0,0,0.7-0.5,0.7-0.5c0.2-0.2,0.4-0.4,0.6-0.6l0.3-0.2
					l0.2-0.1l1.6-1.1l0.1,0c0,0,0.8-0.5,0.9-0.5c0.3,0,0.5-0.1,0.8-0.3c0.1-0.1,0.2-0.2,0.3-0.3c-0.1,0.1-0.1,0.2-0.3,0.3
					c0.1,0,0.8-0.6,0.8-0.7c0.6-0.4,0.9-1.4,0.8-2.4c0.1,0,0.6-0.6,0.5-0.8c0.6-0.7,0.4-2.3-0.5-3.7C27.4,7,26.1,6.4,25.4,6.9z
					 M24.2,7.7c-0.1,0-0.1-0.1-0.2-0.1C24.1,7.6,24.2,7.6,24.2,7.7L24.2,7.7z M27,15.4C27,15.4,27,15.4,27,15.4
					C27,15.4,27,15.4,27,15.4z"/>
				<path class="st41" d="M27,13.4L27,13.4C27,13.4,27,13.4,27,13.4c0,0.1,0,0.1,0,0.2c0,0,0,0.1,0,0.1c0,0,0,0.1,0,0.1
					c0,0,0-0.1,0-0.1c0,0,0-0.1,0-0.1C27.1,13.5,27.1,13.5,27,13.4C27,13.4,27,13.4,27,13.4z M27,14.4c0-0.2,0-0.4,0-0.7
					C27.1,13.9,27.1,14.2,27,14.4z M25.1,6.9C25,6.8,24.4,7,24.3,7.1c-0.8-0.5-1.7-0.6-2.3-0.2l-0.6,0.4l0,0l0,0l0,0
					c0,0-0.1,0-0.1,0.1c-0.2,0.1-0.8,0.5-0.9,0.8l-2,1.4L18,9.8l-0.1,0c0,0-0.4,0.2-0.4,0.2c-0.3,0-0.6,0.1-0.8,0.3l-0.6,0.4l0,0
					l0,0l0,0c-0.1,0-0.2,0.2-0.2,0.4c-0.6,0.4-1,1.4-0.9,2.4c-0.1,0.1-0.9,0.9-0.7,1.1c-0.3,0.6,0.3,2,1.5,3.1
					c1,1.1,2.2,1.7,2.9,1.5c0.8,0.6,1.7,0.7,2.3,0.3c0.1,0,0.1-0.1,0.1-0.1c-0.1,0.1,0,0.1-0.1,0.1c0,0,0.7-0.5,0.7-0.5
					c0.2-0.1,0.4-0.4,0.5-0.6l0.3-0.2l0.3-0.1l1.5-1.1l0.1-0.1c0,0,0.8-0.5,0.9-0.5c0.3,0,0.5-0.1,0.8-0.3c0.1-0.1,0.2-0.2,0.3-0.3
					c-0.1,0.1-0.1,0.2-0.2,0.3c0.1,0,0.8-0.6,0.8-0.8c0.6-0.4,0.9-1.3,0.8-2.4c0.1-0.1,0.6-0.6,0.5-0.9c0.6-0.7,0.4-2.4-0.6-3.6
					C27,7.1,25.8,6.4,25.1,6.9z M23.9,7.7c0,0-0.1-0.1-0.1-0.1C23.9,7.6,23.9,7.6,23.9,7.7L23.9,7.7z M26.7,15.4
					C26.7,15.4,26.7,15.4,26.7,15.4C26.7,15.4,26.7,15.4,26.7,15.4z"/>
				<path class="st42" d="M26.7,13.4L26.7,13.4C26.7,13.4,26.7,13.5,26.7,13.4c0,0.1,0,0.1,0,0.2c0,0,0,0.1,0,0.1c0,0,0,0.1,0,0.1
					c0,0,0-0.1,0-0.1c0,0,0-0.1,0-0.1C26.7,13.5,26.7,13.5,26.7,13.4C26.7,13.5,26.7,13.4,26.7,13.4z M26.7,14.4c0-0.2,0-0.4,0-0.7
					C26.8,14,26.7,14.2,26.7,14.4z M24.8,7C24.7,6.8,24.1,7,24,7.1c-0.8-0.5-1.7-0.6-2.3-0.2l-0.6,0.4l0,0l0,0l0,0
					c0,0-0.1,0.1-0.1,0.1c-0.2,0.1-0.8,0.5-0.9,0.8l-2,1.4l-0.3,0.2l-0.1,0c-0.1,0-0.4,0.2-0.4,0.2c-0.2,0-0.6,0.2-0.8,0.3l-0.6,0.4
					l0,0l0,0l0,0c-0.1,0.1-0.2,0.2-0.2,0.5c-0.6,0.4-1,1.3-0.9,2.3c-0.1,0.1-0.9,0.9-0.7,1.2c-0.3,0.6,0.4,2,1.5,3
					c1,1.1,2.2,1.7,2.9,1.5c0.8,0.5,1.6,0.7,2.2,0.2c0,0,0.1-0.1,0.1-0.1c-0.1,0.1,0,0,0,0.1c0,0,0.7-0.5,0.7-0.5
					c0.2-0.1,0.4-0.4,0.5-0.6l0.3-0.2l0.4-0.2l1.5-1.1l0.2-0.1c0.1,0,0.8-0.5,0.9-0.5c0.3,0,0.5-0.1,0.8-0.3
					c0.1-0.1,0.2-0.2,0.2-0.3C26.1,15.9,26.1,16,26,16c0.1-0.1,0.8-0.6,0.8-0.9c0.6-0.4,0.9-1.3,0.8-2.3c0.2-0.1,0.6-0.7,0.5-1
					c0.6-0.8,0.3-2.4-0.6-3.6C26.7,7.1,25.5,6.5,24.8,7z M23.7,7.7c0,0-0.1-0.1-0.1-0.1C23.6,7.6,23.6,7.7,23.7,7.7L23.7,7.7z
					 M26.4,15.5C26.4,15.5,26.4,15.5,26.4,15.5C26.4,15.5,26.4,15.5,26.4,15.5z"/>
				<path class="st43" d="M26.4,13.5L26.4,13.5C26.4,13.5,26.4,13.5,26.4,13.5c0,0.1,0,0.1,0,0.2c0,0,0,0.1,0,0.1c0,0,0,0.1,0,0.1
					c0,0,0-0.1,0-0.1c0,0,0-0.1,0-0.1C26.4,13.6,26.4,13.6,26.4,13.5C26.4,13.5,26.4,13.5,26.4,13.5z M26.4,14.5c0-0.2,0-0.4,0-0.7
					C26.5,14,26.4,14.3,26.4,14.5z M24.5,7c-0.2-0.2-0.8,0-0.9,0.1c-0.8-0.5-1.7-0.5-2.2-0.2l-0.6,0.4l0,0l0,0l0,0
					c-0.1,0-0.1,0.1-0.1,0.1c-0.2,0.1-0.9,0.6-1,0.8l-1.9,1.3l-0.3,0.2l-0.1,0c-0.1,0-0.4,0.2-0.5,0.2c-0.2,0-0.6,0.2-0.8,0.3
					l-0.6,0.4l0,0l0,0l0,0c-0.2,0.1-0.3,0.3-0.3,0.5c-0.5,0.4-1,1.3-0.9,2.2c-0.1,0.1-0.8,1-0.6,1.3c-0.3,0.7,0.4,2,1.5,3
					c1,1.1,2.2,1.7,2.9,1.5c0.8,0.5,1.6,0.6,2.2,0.2c0,0,0.1-0.1,0.1-0.1c-0.1,0.1,0.1,0,0,0.1c0.1,0,0.7-0.5,0.7-0.5
					c0.2-0.1,0.4-0.4,0.5-0.6l0.3-0.2l0.4-0.2l1.4-1l0.2-0.1c0.1,0,0.8-0.5,0.9-0.5c0.3,0,0.5-0.1,0.7-0.3c0.1-0.1,0.2-0.1,0.2-0.3
					c-0.1,0.1,0,0.2-0.2,0.3c0.2-0.1,0.8-0.7,0.8-0.9c0.5-0.4,0.9-1.2,0.8-2.2c0.2-0.1,0.6-0.7,0.5-1.1c0.5-0.8,0.2-2.4-0.7-3.5
					C26.4,7.1,25.2,6.5,24.5,7z M23.4,7.7c0,0-0.1-0.1-0.1-0.1C23.3,7.7,23.4,7.7,23.4,7.7L23.4,7.7z M26.1,15.5
					C26.1,15.5,26.1,15.5,26.1,15.5C26.1,15.5,26.1,15.5,26.1,15.5z"/>
				<path class="st44" d="M26.1,13.5L26.1,13.5C26.1,13.5,26.1,13.6,26.1,13.5c0,0.1,0,0.1,0,0.2c0,0,0,0.1,0,0.1c0,0,0,0.1,0,0.1
					c0,0,0-0.1,0-0.1c0,0,0-0.1,0-0.1C26.1,13.7,26.1,13.6,26.1,13.5C26.1,13.6,26.1,13.5,26.1,13.5z M26.1,14.5
					c0-0.2,0.1-0.4,0.1-0.7C26.1,14.1,26.1,14.3,26.1,14.5z M24.3,7c-0.2-0.2-0.8,0-1,0c-0.7-0.5-1.6-0.5-2.2-0.1l-0.5,0.4l0,0l0,0
					l0,0c-0.1,0-0.1,0.1-0.2,0.1c-0.2,0.1-0.9,0.6-1.1,0.8l-1.8,1.3l-0.3,0.2l-0.1,0c-0.1,0-0.4,0.2-0.5,0.2c-0.2,0-0.6,0.2-0.8,0.3
					l-0.5,0.4l0,0l0,0l0,0C15.1,10.7,15,11,15,11.3c-0.5,0.4-1,1.3-0.9,2.2c-0.2,0.1-0.8,1-0.6,1.4c-0.2,0.7,0.5,2,1.6,3
					c1,1.1,2.1,1.6,2.8,1.5c0.8,0.5,1.5,0.6,2.1,0.2c0,0,0.1-0.1,0.1-0.1c-0.1,0.1,0.1,0,0,0.1c0.1,0,0.7-0.5,0.7-0.5
					c0.2-0.1,0.4-0.4,0.5-0.6l0.3-0.2l0.5-0.2l1.4-1l0.2-0.1c0.1,0,0.8-0.5,0.9-0.5c0.3,0,0.5-0.1,0.7-0.3c0.1-0.1,0.1-0.1,0.2-0.2
					c-0.1,0.1,0,0.1-0.1,0.2c0.2-0.1,0.8-0.7,0.9-1c0.5-0.4,0.9-1.2,0.8-2.1c0.2-0.1,0.7-0.8,0.5-1.2c0.5-0.9,0.1-2.4-0.8-3.5
					C26.1,7.1,24.9,6.6,24.3,7z M23.1,7.8c0,0-0.1-0.1-0.1-0.1C23,7.7,23.1,7.7,23.1,7.8L23.1,7.8z M25.8,15.6
					C25.8,15.6,25.8,15.6,25.8,15.6C25.8,15.6,25.8,15.6,25.8,15.6z"/>
				<path class="st45" d="M25.8,13.6L25.8,13.6C25.8,13.6,25.8,13.6,25.8,13.6c0,0.1,0,0.1,0,0.2c0,0,0,0.1,0,0.1c0,0,0,0.1,0,0.1
					c0,0,0-0.1,0-0.1c0,0,0-0.1,0-0.1C25.8,13.7,25.8,13.7,25.8,13.6C25.8,13.6,25.8,13.6,25.8,13.6z M25.8,14.6
					c0-0.2,0.1-0.4,0.1-0.7C25.8,14.1,25.8,14.4,25.8,14.6z M24,7.1c-0.2-0.2-0.8-0.1-1,0c-0.7-0.5-1.6-0.5-2.1-0.1l-0.5,0.4l0,0
					l0,0l0,0c-0.1,0-0.1,0.1-0.2,0.2c-0.2,0.1-1,0.6-1.1,0.8l-1.8,1.2l-0.3,0.2l-0.1,0c-0.1,0-0.4,0.2-0.5,0.2
					c-0.2,0-0.6,0.2-0.8,0.3L15,10.6l0,0l0,0l0,0c-0.2,0.1-0.3,0.3-0.4,0.7c-0.5,0.4-1,1.2-0.9,2.1c-0.2,0.1-0.8,1-0.6,1.5
					c-0.2,0.7,0.5,2,1.6,3c1,1.1,2.1,1.6,2.8,1.4c0.7,0.5,1.5,0.6,2,0.2c0,0,0.1-0.1,0.1-0.1c0,0,0.1,0,0.1,0c0.1,0,0.7-0.4,0.7-0.5
					c0.2-0.1,0.4-0.3,0.5-0.6l0.3-0.2l0.6-0.2l1.3-0.9l0.3-0.1c0.1,0,0.8-0.4,0.9-0.5c0.3,0,0.5-0.1,0.7-0.3c0.1,0,0.1-0.1,0.2-0.2
					c-0.1,0.1,0,0.1-0.1,0.2c0.2-0.1,0.9-0.7,0.9-1.1c0.5-0.4,0.9-1.2,0.8-2c0.2-0.1,0.7-0.8,0.5-1.3c0.4-0.9,0-2.4-0.9-3.4
					C25.7,7.2,24.6,6.7,24,7.1z M22.9,7.8c0,0-0.1-0.1-0.1-0.1C22.8,7.7,22.8,7.8,22.9,7.8L22.9,7.8z M25.4,15.6
					C25.4,15.6,25.4,15.6,25.4,15.6C25.4,15.6,25.4,15.6,25.4,15.6z"/>
				<path class="st46" d="M25.5,13.6L25.5,13.6C25.5,13.6,25.5,13.7,25.5,13.6c0,0.1,0,0.1,0,0.2c0,0,0,0.1,0,0.1c0,0,0,0.1,0,0.1
					c0,0,0-0.1,0-0.1c0,0,0-0.1,0-0.1C25.5,13.8,25.5,13.7,25.5,13.6C25.5,13.7,25.5,13.6,25.5,13.6z M25.5,14.6
					c0-0.2,0.1-0.4,0.1-0.7C25.5,14.2,25.5,14.4,25.5,14.6z M23.7,7.1c-0.2-0.3-0.9-0.1-1.1,0C21.9,6.7,21,6.7,20.5,7l-0.5,0.3l0,0
					l0,0l0,0c-0.1,0-0.2,0.1-0.2,0.2c-0.2,0.1-1.1,0.6-1.2,0.8l-1.7,1.2l-0.3,0.2l-0.1,0c-0.1,0-0.4,0.2-0.5,0.2
					c-0.2,0-0.6,0.2-0.8,0.3l-0.5,0.3l0,0l0,0l0,0c-0.2,0.1-0.4,0.4-0.4,0.8c-0.5,0.3-1,1.2-0.9,2c-0.2,0.1-0.8,1.1-0.5,1.5
					c-0.1,0.8,0.6,2,1.7,2.9c1,1,2.1,1.6,2.8,1.4c0.7,0.4,1.4,0.6,1.9,0.2c0,0,0.1-0.1,0.1-0.1c0,0,0.1,0,0.1,0
					c0.1,0,0.6-0.4,0.7-0.5c0.2-0.1,0.4-0.3,0.5-0.5l0.2-0.2l0.6-0.3l1.3-0.9l0.3-0.1c0.1,0,0.8-0.4,0.9-0.4c0.3,0,0.5-0.1,0.7-0.3
					c0.1,0,0.1-0.1,0.1-0.2c-0.1,0.1,0.1,0.1,0,0.2c0.2-0.1,0.9-0.7,0.9-1.1c0.5-0.3,0.8-1.1,0.7-2c0.3-0.1,0.7-0.9,0.5-1.4
					c0.4-0.9,0-2.5-0.9-3.4C25.4,7.2,24.3,6.7,23.7,7.1z M22.6,7.8c0,0-0.1-0.1-0.1-0.1C22.5,7.8,22.6,7.8,22.6,7.8L22.6,7.8z
					 M25.1,15.7C25.1,15.7,25.1,15.7,25.1,15.7C25.1,15.7,25.1,15.7,25.1,15.7z"/>
				<path class="st47" d="M25.2,13.7L25.2,13.7C25.3,13.7,25.3,13.7,25.2,13.7c0,0.1,0,0.1,0,0.2c0,0,0,0.1,0,0.1c0,0,0,0.1,0,0.1
					c0,0,0-0.1,0-0.1c0,0,0-0.1,0-0.1C25.3,13.8,25.3,13.8,25.2,13.7C25.3,13.7,25.3,13.7,25.2,13.7z M25.2,14.7
					c0-0.2,0.1-0.4,0.1-0.7C25.2,14.3,25.2,14.5,25.2,14.7z M23.4,7.2c-0.3-0.3-0.9-0.2-1.2-0.1c-0.6-0.4-1.5-0.4-2-0.1l-0.5,0.3
					l0,0l0,0l0,0c-0.1,0-0.2,0.1-0.2,0.2c-0.2,0.1-1.1,0.6-1.2,0.8l-1.7,1.1l-0.3,0.2l-0.1,0.1c-0.1,0-0.4,0.2-0.5,0.2
					c-0.2,0-0.6,0.2-0.8,0.3l-0.5,0.3l0,0l0,0l0,0C14.2,10.7,14,11,14,11.4c-0.5,0.3-1,1.2-0.9,2c-0.2,0.1-0.8,1.1-0.5,1.6
					c-0.1,0.8,0.6,2,1.7,2.9c1,1,2.1,1.6,2.8,1.4c0.7,0.4,1.4,0.5,1.9,0.2c0,0,0,0,0.1-0.1c0,0,0.2,0,0.1,0c0.1,0,0.6-0.4,0.7-0.5
					c0.2-0.1,0.4-0.3,0.5-0.5l0.2-0.2l0.7-0.3l1.2-0.9l0.3-0.1c0.1,0,0.8-0.4,0.9-0.4c0.3,0,0.5-0.2,0.7-0.3c0.1,0,0.1-0.1,0.1-0.2
					c-0.1,0.1,0.1,0.1,0,0.2c0.3-0.1,0.9-0.8,0.9-1.2c0.5-0.3,0.8-1.1,0.7-1.9c0.3-0.1,0.7-0.9,0.5-1.5c0.3-1-0.1-2.5-1-3.4
					C25.1,7.2,24,6.8,23.4,7.2z M22.4,7.9c0,0-0.1-0.1-0.1-0.1C22.3,7.8,22.3,7.8,22.4,7.9L22.4,7.9z M24.8,15.7
					C24.8,15.7,24.8,15.7,24.8,15.7C24.8,15.7,24.8,15.7,24.8,15.7z"/>
				<path class="st48" d="M25,13.7L25,13.7C25,13.8,25,13.8,25,13.7c0,0.1,0,0.1,0,0.2c0,0,0,0.1,0,0.1c0,0,0,0.1,0,0.1
					c0,0,0-0.1,0-0.1c0,0,0-0.1,0-0.1C25,13.9,25,13.8,25,13.7C25,13.8,25,13.8,25,13.7z M24.9,14.7c0-0.2,0.1-0.4,0.1-0.7
					C25,14.3,24.9,14.5,24.9,14.7z M23.2,7.2c-0.3-0.3-0.9-0.2-1.2-0.1c-0.6-0.4-1.5-0.4-1.9-0.1l-0.5,0.3l0,0l0,0l0,0
					c-0.1,0-0.2,0.1-0.3,0.2c-0.2,0.1-1.2,0.7-1.3,0.8l-1.6,1.1l-0.3,0.2L16,9.8c-0.1,0-0.4,0.1-0.5,0.2c-0.2,0-0.7,0.2-0.8,0.3
					l-0.5,0.3l0,0l0,0l0,0c-0.3,0.1-0.4,0.5-0.5,0.9c-0.4,0.3-1,1.1-0.9,1.9c-0.2,0.1-0.8,1.1-0.4,1.7c-0.1,0.8,0.7,2,1.7,2.9
					c1,1,2.1,1.6,2.8,1.4c0.7,0.4,1.3,0.5,1.8,0.2c0,0,0,0,0-0.1c0,0,0.2,0,0.1,0c0.1,0,0.6-0.4,0.7-0.5c0.2-0.1,0.4-0.3,0.5-0.5
					l0.2-0.2l0.7-0.3l1.2-0.8l0.3-0.1c0.1,0,0.8-0.4,0.9-0.4c0.3,0,0.5-0.2,0.7-0.3c0,0,0.1-0.1,0.1-0.1c-0.1,0.1,0.1,0.1,0,0.1
					c0.3-0.1,0.9-0.8,0.9-1.2c0.4-0.3,0.8-1,0.7-1.8c0.3-0.1,0.7-1,0.5-1.6c0.3-1-0.2-2.5-1.1-3.3C24.8,7.3,23.7,6.9,23.2,7.2z
					 M22.1,7.9c0,0-0.1-0.1-0.1-0.1C22,7.8,22.1,7.9,22.1,7.9L22.1,7.9z M24.5,15.8C24.5,15.8,24.5,15.8,24.5,15.8
					C24.5,15.8,24.5,15.8,24.5,15.8z"/>
				<path class="st49" d="M24.7,13.8L24.7,13.8C24.7,13.8,24.7,13.8,24.7,13.8c0,0.1,0,0.1,0,0.2c0,0,0,0.1,0,0.1c0,0,0,0.1,0,0.1
					c0,0,0-0.1,0-0.1c0,0,0-0.1,0-0.1C24.7,13.9,24.7,13.9,24.7,13.8C24.7,13.8,24.7,13.8,24.7,13.8z M24.6,14.8
					c0-0.2,0.1-0.4,0.1-0.7C24.7,14.4,24.6,14.6,24.6,14.8z M22.9,7.3c-0.3-0.3-1-0.3-1.3-0.1c-0.6-0.4-1.5-0.3-1.9,0l-0.4,0.3l0,0
					l0,0l0,0c-0.1,0-0.2,0.1-0.3,0.2c-0.1,0.1-1.3,0.7-1.4,0.8l-1.6,1.1l-0.2,0.2l-0.2,0.1c-0.1,0-0.4,0.1-0.6,0.2
					c-0.2,0-0.7,0.2-0.8,0.3l-0.4,0.3l0,0l0,0l0,0c-0.3,0.1-0.5,0.5-0.5,1c-0.4,0.3-1,1.1-0.9,1.8c-0.2,0.1-0.7,1.2-0.4,1.8
					c0,0.8,0.8,2.1,1.8,2.9c1,1,2.1,1.6,2.8,1.4c0.6,0.4,1.3,0.5,1.7,0.1c0,0,0,0,0-0.1c0,0,0.2-0.1,0.2,0c0.1,0,0.6-0.4,0.7-0.5
					c0.1-0.1,0.4-0.3,0.5-0.5l0.2-0.2l0.8-0.3l1.1-0.8l0.4-0.2c0.1,0,0.8-0.4,0.9-0.4c0.3,0,0.5-0.2,0.7-0.3c0,0,0.1-0.1,0.1-0.1
					c-0.1,0.1,0.2,0.1,0.1,0.1c0.3-0.1,0.9-0.8,1-1.3c0.4-0.3,0.8-1,0.7-1.7c0.4-0.1,0.8-1,0.5-1.7c0.3-1-0.3-2.5-1.2-3.3
					C24.5,7.3,23.4,6.9,22.9,7.3z M21.9,7.9c0,0-0.1-0.1-0.1-0.1C21.8,7.8,21.8,7.9,21.9,7.9L21.9,7.9z M24.2,15.8
					C24.2,15.8,24.2,15.8,24.2,15.8C24.2,15.8,24.2,15.8,24.2,15.8z"/>
				<path class="st50" d="M24.4,13.8L24.4,13.8C24.4,13.9,24.4,13.9,24.4,13.8c0,0.1,0,0.1,0,0.2c0,0,0,0.1,0,0.1c0,0,0,0.1,0,0.1
					c0,0,0-0.1,0-0.1c0,0,0-0.1,0-0.1C24.4,14,24.4,13.9,24.4,13.8C24.4,13.9,24.4,13.9,24.4,13.8z M24.3,14.8
					c0-0.2,0.1-0.4,0.1-0.7C24.4,14.4,24.3,14.6,24.3,14.8z M22.6,7.3c-0.3-0.4-1-0.3-1.3-0.2c-0.6-0.4-1.4-0.3-1.8,0L19,7.4l0,0
					l0,0l0,0c-0.1,0-0.2,0.1-0.3,0.2c-0.1,0.1-1.3,0.7-1.4,0.9l-1.5,1l-0.2,0.2l-0.2,0.1c-0.1,0-0.5,0.1-0.6,0.2
					c-0.2,0-0.7,0.2-0.8,0.3l-0.4,0.3l0,0l0,0l0,0c-0.3,0.1-0.5,0.5-0.6,1.1c-0.4,0.3-1,1.1-0.9,1.8c-0.3,0.2-0.7,1.2-0.3,1.9
					c0,0.9,0.8,2.1,1.8,2.8c1,1,2,1.6,2.8,1.3c0.6,0.4,1.2,0.5,1.6,0.1c0,0,0,0,0-0.1c0,0,0.3-0.1,0.2,0c0.1,0,0.6-0.4,0.7-0.5
					c0.1-0.1,0.4-0.3,0.5-0.5l0.2-0.1l0.9-0.4l1.1-0.7L22,17c0.1,0,0.7-0.3,0.9-0.4c0.2,0,0.5-0.1,0.7-0.3c0,0,0,0,0-0.1
					c-0.1,0.1,0.2,0,0.1,0.1c0.3-0.1,0.9-0.8,1-1.4c0.4-0.3,0.8-1,0.7-1.7c0.4-0.2,0.8-1.1,0.5-1.8c0.2-1.1-0.3-2.5-1.2-3.2
					C24.1,7.3,23.1,7,22.6,7.3z M21.6,7.9c0,0-0.1-0.1-0.1-0.1C21.5,7.9,21.5,7.9,21.6,7.9L21.6,7.9z M23.9,15.9
					C23.9,15.9,23.9,15.9,23.9,15.9C23.9,15.9,23.9,15.9,23.9,15.9z"/>
				<path class="st51" d="M24.1,13.9L24.1,13.9C24.1,13.9,24.1,13.9,24.1,13.9c0,0.1,0,0.1,0,0.2c0,0,0,0.1,0,0.1c0,0,0,0.1,0,0.1
					c0,0,0-0.1,0-0.1c0,0,0-0.1,0-0.1C24.1,14,24.1,14,24.1,13.9C24.1,13.9,24.1,13.9,24.1,13.9z M24,14.9c0-0.2,0.1-0.4,0.1-0.7
					C24.1,14.5,24,14.7,24,14.9z M22.4,7.4C22,7,21.3,7,20.9,7.1c-0.5-0.3-1.4-0.3-1.8,0l-0.4,0.3l0,0l0,0l0,0
					c-0.1,0.1-0.2,0.1-0.3,0.3c-0.1,0.1-1.4,0.7-1.5,0.9l-1.4,1l-0.2,0.2l-0.2,0.1c-0.1,0-0.5,0.1-0.6,0.2c-0.2,0-0.7,0.2-0.8,0.3
					l-0.4,0.3l0,0l0,0l0,0c-0.3,0.1-0.6,0.6-0.6,1.1c-0.4,0.3-1,1-1,1.7c-0.3,0.2-0.7,1.2-0.3,2c0.1,0.9,0.9,2.1,1.8,2.8
					c1,1,2,1.5,2.8,1.3c0.6,0.3,1.2,0.4,1.6,0.1c0,0,0,0,0,0c0,0,0.3-0.1,0.2,0c0.1-0.1,0.6-0.4,0.7-0.5c0.1-0.1,0.4-0.3,0.5-0.5
					l0.2-0.1l0.9-0.4l1-0.7l0.4-0.2c0.1,0,0.7-0.3,0.9-0.4c0.2,0,0.5-0.1,0.7-0.3c0,0,0,0,0-0.1c-0.1,0.1,0.2,0,0.1,0.1
					c0.3-0.1,0.9-0.9,1-1.4c0.4-0.3,0.8-0.9,0.7-1.6c0.4-0.2,0.8-1.1,0.5-1.9c0.2-1.1-0.4-2.5-1.3-3.2C23.8,7.4,22.8,7,22.4,7.4z
					 M21.3,8c0,0-0.1-0.1-0.1-0.1C21.2,7.9,21.3,7.9,21.3,8L21.3,8z M23.6,15.9C23.6,15.9,23.6,15.9,23.6,15.9
					C23.6,15.9,23.6,15.9,23.6,15.9z"/>
				<path class="st52" d="M23.8,13.9L23.8,13.9C23.8,14,23.8,14,23.8,13.9c0,0.1,0,0.1,0,0.2c0,0,0,0.1,0,0.1c0,0,0,0.1,0,0.1
					c0,0,0-0.1,0-0.1c0,0,0-0.1,0-0.1C23.8,14.1,23.8,14,23.8,13.9C23.8,14,23.8,14,23.8,13.9z M23.7,14.9c0-0.2,0.1-0.4,0.1-0.7
					C23.7,14.5,23.7,14.7,23.7,14.9z M22.1,7.4C21.7,7,21,7,20.6,7.2c-0.5-0.3-1.4-0.2-1.7,0l-0.4,0.3l0,0l0,0l0,0
					c-0.1,0.1-0.2,0.2-0.3,0.3c-0.1,0.1-1.5,0.7-1.5,0.9l-1.4,0.9L15,9.6l-0.2,0.1c-0.1,0-0.5,0.1-0.6,0.2c-0.2,0-0.7,0.2-0.8,0.3
					l-0.4,0.3l0,0l0,0l0,0c-0.4,0.2-0.6,0.6-0.7,1.2c-0.4,0.3-1,1-1,1.6c-0.3,0.2-0.7,1.3-0.2,2.1c0.1,0.9,0.9,2.1,1.9,2.8
					c0.9,1,2,1.5,2.7,1.3c0.5,0.3,1.1,0.4,1.5,0.1c0,0,0,0,0,0c0,0,0.3-0.1,0.3-0.1c0.1-0.1,0.6-0.4,0.7-0.5
					c0.1-0.1,0.4-0.3,0.5-0.4l0.2-0.1l1-0.4l0.9-0.7l0.5-0.2c0.1,0,0.7-0.3,0.9-0.4c0.2,0,0.5-0.1,0.7-0.3c0,0,0,0,0-0.1
					c-0.1,0.1,0.3,0,0.2,0c0.4-0.2,1-0.9,1-1.5c0.4-0.3,0.8-0.9,0.7-1.5c0.4-0.2,0.8-1.2,0.5-2c0.1-1.1-0.5-2.6-1.4-3.2
					C23.5,7.4,22.5,7.1,22.1,7.4z M21.1,8c0,0-0.1-0.1-0.1-0.1C21,7.9,21,8,21.1,8L21.1,8z M23.3,16C23.3,16,23.3,16,23.3,16
					C23.3,16,23.3,16,23.3,16z"/>
				<path class="st53" d="M23.5,14L23.5,14C23.5,14,23.5,14,23.5,14c0,0.1,0,0.1,0,0.2c0,0,0,0.1,0,0.1c0,0,0,0.1,0,0.1
					c0,0,0-0.1,0-0.1c0,0,0-0.1,0-0.1C23.5,14.1,23.5,14.1,23.5,14C23.5,14,23.5,14,23.5,14z M23.4,15c0-0.2,0.1-0.4,0.1-0.7
					C23.4,14.6,23.4,14.8,23.4,15z M21.8,7.5C21.4,7,20.7,7,20.3,7.2c-0.5-0.3-1.3-0.2-1.7,0l-0.3,0.2l0,0l0,0l0,0
					c-0.1,0.1-0.3,0.2-0.4,0.3c-0.1,0.1-1.5,0.8-1.6,0.9L15,9.5l-0.2,0.1l-0.2,0.1c-0.2,0-0.5,0.1-0.6,0.2c-0.1,0-0.7,0.2-0.8,0.3
					l-0.3,0.2l0,0l0,0l0,0c-0.4,0.2-0.6,0.7-0.7,1.3c-0.3,0.2-1,1-1,1.6c-0.3,0.2-0.7,1.3-0.2,2.1c0.2,0.9,1,2.1,1.9,2.7
					c0.9,1,2,1.5,2.7,1.3c0.5,0.3,1,0.4,1.4,0.1c0,0,0,0,0,0c0,0,0.3-0.1,0.3-0.1c0.1-0.1,0.6-0.4,0.7-0.5c0.1-0.1,0.4-0.3,0.5-0.4
					l0.2-0.1l1.1-0.4l0.9-0.6l0.5-0.2c0.2,0,0.7-0.3,0.9-0.3c0.2,0,0.5-0.1,0.6-0.3c0,0,0,0,0,0c-0.1,0.1,0.3,0,0.2,0
					c0.4-0.2,1-0.9,1-1.5c0.3-0.2,0.8-0.9,0.7-1.4c0.5-0.2,0.8-1.3,0.5-2.2c0.1-1.2-0.6-2.6-1.5-3.1C23.1,7.4,22.2,7.2,21.8,7.5z
					 M20.8,8c0,0-0.1-0.1-0.1-0.1C20.7,8,20.7,8,20.8,8L20.8,8z M23,16C23,16,23,16,23,16C23,16,23,16,23,16z"/>
				<path class="st54" d="M23.2,14L23.2,14C23.2,14.1,23.2,14.1,23.2,14c0,0.1,0,0.1,0,0.2c0,0,0,0.1,0,0.1c0,0,0,0.1,0,0.1
					c0,0,0-0.1,0-0.1c0,0,0-0.1,0-0.1C23.2,14.2,23.2,14.2,23.2,14C23.2,14.1,23.2,14.1,23.2,14z M23.1,15.1c0-0.2,0.1-0.4,0.1-0.7
					C23.1,14.6,23.1,14.8,23.1,15.1z M21.5,7.5C21.1,7,20.3,7,19.9,7.2c-0.4-0.3-1.3-0.2-1.6,0L18,7.4l0,0l0,0l0,0
					c-0.1,0.1-0.3,0.2-0.4,0.3c-0.1,0.1-1.6,0.8-1.7,0.9l-1.3,0.8l-0.2,0.1l-0.2,0.1c-0.2,0-0.5,0.1-0.6,0.2c-0.1,0-0.7,0.2-0.8,0.3
					l-0.3,0.2l0,0l0,0l0,0c-0.4,0.2-0.7,0.7-0.7,1.4c-0.3,0.2-1,0.9-1,1.5c-0.3,0.2-0.6,1.4-0.1,2.2c0.2,1,1,2.1,2,2.7
					c0.9,1,2,1.5,2.7,1.3c0.5,0.3,1,0.3,1.3,0.1c0,0,0,0,0,0c0,0,0.4-0.1,0.3-0.1c0.1-0.1,0.6-0.4,0.7-0.5c0.1-0.1,0.4-0.3,0.5-0.4
					l0.2-0.1l1.1-0.5l0.8-0.6l0.5-0.2c0.2,0,0.7-0.3,0.9-0.3c0.2,0,0.4-0.1,0.6-0.3c0,0,0,0-0.1,0c-0.1,0.1,0.3,0,0.2,0
					c0.4-0.2,1-0.9,1.1-1.6c0.3-0.2,0.7-0.8,0.7-1.4c0.5-0.2,0.9-1.3,0.5-2.3c0.1-1.2-0.6-2.6-1.5-3.1C22.8,7.5,21.9,7.2,21.5,7.5z
					 M20.5,8.1c0,0-0.1-0.1-0.1-0.1C20.4,8,20.5,8,20.5,8.1L20.5,8.1z M22.7,16.1C22.7,16.1,22.7,16.1,22.7,16.1
					C22.7,16.1,22.7,16.1,22.7,16.1z"/>
				<path class="st55" d="M22.9,14.1L22.9,14.1C22.8,14.1,22.8,14.2,22.9,14.1c0,0.1,0,0.1,0,0.2c0,0,0,0.1,0,0.1c0,0,0,0.1,0,0.1
					c0,0,0-0.1,0-0.1c0,0,0-0.1,0-0.1C22.8,14.2,22.8,14.2,22.9,14.1C22.8,14.2,22.8,14.1,22.9,14.1z M22.7,15.1
					c0-0.2,0.1-0.4,0.1-0.7C22.8,14.7,22.8,14.9,22.7,15.1z M21.2,7.6C20.8,7.1,20,7,19.6,7.2C19.2,6.9,18.3,7,18,7.2l-0.3,0.2l0,0
					l0,0l0,0c-0.2,0.1-0.3,0.2-0.4,0.3c-0.1,0.1-1.7,0.8-1.7,0.9l-1.2,0.8l-0.2,0.1L14,9.7c-0.2,0-0.5,0.1-0.6,0.2
					c-0.1,0-0.7,0.2-0.8,0.3l-0.3,0.2l0,0l0,0l0,0c-0.4,0.2-0.7,0.7-0.8,1.5c-0.3,0.2-1,0.9-1,1.4c-0.4,0.2-0.6,1.4-0.1,2.3
					c0.2,1,1.1,2.1,2,2.7c0.9,1,2,1.5,2.7,1.2c0.5,0.3,0.9,0.3,1.3,0.1c0,0,0,0-0.1,0c0,0,0.4-0.1,0.4-0.1c0.2-0.1,0.6-0.4,0.7-0.5
					c0.1-0.1,0.4-0.3,0.5-0.4l0.1-0.1l1.2-0.5l0.8-0.5l0.6-0.2c0.2,0,0.7-0.2,0.9-0.3c0.2-0.1,0.4-0.1,0.6-0.3c0,0-0.1,0-0.1,0
					c0,0.1,0.4-0.1,0.3,0c0.4-0.2,1-0.9,1.1-1.7c0.3-0.2,0.7-0.8,0.7-1.3c0.5-0.2,0.9-1.4,0.6-2.4c0-1.2-0.7-2.6-1.6-3
					C22.5,7.5,21.6,7.3,21.2,7.6z M20.3,8.1c0,0-0.1-0.1-0.1-0.1C20.2,8,20.2,8.1,20.3,8.1L20.3,8.1z M22.3,16.1
					C22.3,16.1,22.3,16.1,22.3,16.1C22.3,16.1,22.3,16.1,22.3,16.1z"/>
				<path class="st56" d="M22.5,14.2L22.5,14.2C22.5,14.2,22.5,14.2,22.5,14.2c0,0.1,0,0.1,0,0.2c0,0,0,0.1,0,0.1c0,0,0,0.1,0,0.1
					c0,0,0-0.1,0-0.1c0,0,0-0.1,0-0.1C22.5,14.3,22.5,14.3,22.5,14.2C22.5,14.2,22.5,14.2,22.5,14.2z M22.4,15.2
					c0-0.2,0.1-0.4,0.1-0.7C22.5,14.7,22.5,15,22.4,15.2z M20.9,7.6c-0.5-0.5-1.2-0.6-1.7-0.4c-0.4-0.2-1.2-0.1-1.5,0.1l-0.3,0.2
					l0,0l0,0l0,0c-0.2,0.1-0.3,0.2-0.4,0.3c-0.1,0.1-1.7,0.8-1.8,0.9l-1.2,0.7l-0.2,0.1l-0.2,0.1c-0.2,0-0.5,0.1-0.7,0.2
					c-0.1,0-0.7,0.2-0.8,0.3l-0.3,0.2l0,0l0,0l0,0c-0.5,0.2-0.7,0.8-0.8,1.5c-0.3,0.2-1,0.9-1,1.4c-0.4,0.2-0.6,1.4,0,2.4
					c0.3,1,1.1,2.1,2,2.7c0.9,1,2,1.5,2.7,1.2c0.4,0.2,0.9,0.3,1.2,0c0,0,0,0-0.1,0c0,0,0.4-0.1,0.4-0.1c0.2-0.1,0.6-0.4,0.7-0.5
					c0.1-0.1,0.4-0.3,0.5-0.4l0.1-0.1l1.2-0.5l0.7-0.5l0.6-0.2c0.2,0,0.7-0.2,0.9-0.3c0.2-0.1,0.4-0.2,0.6-0.3c0,0-0.1,0-0.1,0
					c0,0.1,0.4-0.1,0.3,0c0.5-0.2,1-1,1.1-1.7c0.3-0.2,0.7-0.7,0.7-1.2c0.5-0.2,0.9-1.4,0.6-2.5c0-1.3-0.8-2.6-1.7-3
					C22.1,7.5,21.3,7.4,20.9,7.6z M20,8.1c0,0-0.1-0.1-0.1-0.1C19.9,8.1,19.9,8.1,20,8.1L20,8.1z M22,16.2C22,16.2,22,16.2,22,16.2
					C22,16.2,22,16.2,22,16.2z"/>
				<path class="st57" d="M22.2,14.2L22.2,14.2C22.2,14.2,22.2,14.3,22.2,14.2c0,0.1,0,0.1,0,0.2c0,0,0,0.1,0,0.1c0,0,0,0.1,0,0.1
					c0,0,0-0.1,0-0.1c0,0,0-0.1,0-0.1C22.2,14.3,22.2,14.3,22.2,14.2C22.2,14.3,22.2,14.2,22.2,14.2z M22.1,15.2
					c0-0.2,0.1-0.4,0.1-0.7C22.2,14.8,22.2,15,22.1,15.2z M20.7,7.7c-0.5-0.5-1.3-0.7-1.8-0.4c-0.3-0.2-1.2-0.1-1.5,0.1l-0.3,0.2
					l0,0l0,0l0,0c-0.2,0.1-0.3,0.2-0.4,0.4c-0.1,0.1-1.8,0.8-1.8,0.9l-1.1,0.7l-0.1,0.1l-0.3,0.1c-0.2,0-0.5,0.1-0.7,0.1
					c-0.1,0-0.7,0.3-0.8,0.3l-0.3,0.2l0,0l0,0l0,0c-0.5,0.2-0.8,0.8-0.9,1.6c-0.3,0.2-1,0.8-1,1.3c-0.4,0.2-0.6,1.5,0,2.5
					c0.3,1,1.2,2.1,2.1,2.6c0.9,1,1.9,1.5,2.7,1.2c0.4,0.2,0.8,0.2,1.1,0c0,0,0,0-0.1,0c0,0,0.5-0.2,0.4-0.1
					c0.2-0.1,0.6-0.4,0.7-0.5c0.1-0.1,0.4-0.3,0.5-0.4l0.1-0.1l1.3-0.5l0.7-0.5l0.6-0.3c0.2,0,0.7-0.2,0.9-0.3
					c0.2-0.1,0.4-0.2,0.6-0.3c0,0-0.1,0.1-0.2,0.1c0,0.1,0.4-0.1,0.4-0.1c0.5-0.2,1-1,1.1-1.8c0.3-0.2,0.7-0.7,0.7-1.1
					c0.6-0.2,0.9-1.5,0.6-2.6c-0.1-1.3-0.9-2.6-1.8-3C21.8,7.6,21,7.4,20.7,7.7z M19.7,8.2c0,0-0.1-0.1-0.1-0.1
					C19.6,8.1,19.7,8.1,19.7,8.2L19.7,8.2z M21.7,16.2C21.7,16.2,21.7,16.2,21.7,16.2C21.7,16.2,21.7,16.2,21.7,16.2z"/>
				<path class="st58" d="M21.9,14.3L21.9,14.3C21.9,14.3,21.9,14.3,21.9,14.3c0,0.1,0,0.1,0,0.2c0,0,0,0.1,0,0.1c0,0,0,0.1,0,0.1
					c0,0,0-0.1,0-0.1c0,0,0-0.1,0-0.1C21.9,14.4,21.9,14.4,21.9,14.3C21.9,14.3,21.9,14.3,21.9,14.3z M21.8,15.3
					c0-0.2,0.1-0.4,0.1-0.7C21.9,14.8,21.9,15.1,21.8,15.3z M20.4,7.7c-0.5-0.6-1.3-0.7-1.8-0.5c-0.3-0.2-1.2,0-1.4,0.1l-0.2,0.2
					l0,0l0,0l0,0c-0.2,0.1-0.3,0.2-0.5,0.4c-0.1,0.1-1.8,0.9-1.9,1l-1.1,0.7l-0.1,0.1l-0.3,0.1c-0.2,0-0.5,0.1-0.7,0.1
					c-0.1,0-0.7,0.3-0.8,0.3l-0.2,0.2l0,0l0,0l0,0c-0.5,0.2-0.8,0.9-0.9,1.7c-0.2,0.2-1.1,0.8-1,1.2c-0.4,0.2-0.6,1.5,0.1,2.6
					c0.4,1.1,1.3,2.2,2.1,2.6c0.9,1,1.9,1.4,2.7,1.2c0.4,0.2,0.8,0.2,1.1,0c0,0-0.1,0-0.1,0c0,0,0.5-0.2,0.5-0.2
					c0.2-0.1,0.6-0.4,0.7-0.5c0.1-0.1,0.4-0.2,0.5-0.3l0.1-0.1l1.4-0.6l0.6-0.4l0.6-0.3c0.2,0,0.7-0.2,0.9-0.3
					c0.2-0.1,0.4-0.2,0.6-0.3c0,0.1-0.1,0.1-0.2,0.1c0,0.1,0.4-0.1,0.4-0.1c0.5-0.2,1.1-1,1.1-1.8c0.2-0.2,0.7-0.7,0.7-1.1
					c0.6-0.3,0.9-1.5,0.6-2.7c-0.1-1.4-0.9-2.7-1.8-2.9C21.5,7.6,20.7,7.5,20.4,7.7z M19.5,8.2c0,0-0.1-0.1-0.1-0.1
					C19.4,8.1,19.4,8.2,19.5,8.2L19.5,8.2z M21.4,16.3C21.4,16.3,21.4,16.3,21.4,16.3C21.4,16.3,21.4,16.3,21.4,16.3z"/>
				<path class="st59" d="M21.6,14.3L21.6,14.3C21.6,14.3,21.6,14.4,21.6,14.3c0,0.1,0,0.1,0,0.2c0,0,0,0.1,0,0.1c0,0,0,0.1,0,0.1
					c0,0,0-0.1,0-0.1c0,0,0-0.1,0-0.1C21.6,14.5,21.6,14.4,21.6,14.3C21.6,14.4,21.6,14.3,21.6,14.3z M21.5,15.3
					c0.1-0.2,0.1-0.4,0.1-0.7C21.6,14.9,21.6,15.1,21.5,15.3z M20.1,7.7c-0.6-0.6-1.4-0.8-1.9-0.5c-0.3-0.2-1.1,0-1.3,0.1l-0.2,0.2
					l0,0l0,0l0,0c-0.2,0.1-0.4,0.2-0.5,0.4c-0.1,0.1-1.9,0.9-2,1l-1,0.6l-0.1,0.1l-0.3,0.1c-0.2,0-0.5,0.1-0.7,0.1
					c-0.1,0-0.7,0.3-0.8,0.3l-0.2,0.2l0,0l0,0l0,0c-0.5,0.2-0.9,0.9-0.9,1.8c-0.2,0.1-1.1,0.8-1,1.1c-0.4,0.2-0.5,1.5,0.1,2.6
					c0.4,1.1,1.3,2.2,2.2,2.6c0.9,1,1.9,1.4,2.7,1.2c0.4,0.2,0.7,0.2,1,0c0,0-0.1,0-0.1,0c0,0,0.5-0.2,0.5-0.2
					c0.2-0.1,0.6-0.4,0.7-0.5c0.1-0.1,0.4-0.2,0.4-0.3l0.1-0.1l1.4-0.6l0.6-0.4l0.7-0.3c0.2,0,0.7-0.2,0.9-0.2
					c0.2-0.1,0.4-0.2,0.6-0.3c-0.1,0.1-0.1,0.1-0.2,0.1c0,0,0.5-0.1,0.4-0.1c0.5-0.2,1.1-1,1.2-1.9c0.2-0.1,0.7-0.6,0.6-1
					c0.6-0.3,1-1.6,0.6-2.8c-0.2-1.4-1-2.7-1.9-2.9C21.2,7.6,20.3,7.6,20.1,7.7z M19.2,8.2c0,0-0.1-0.1-0.1-0.1
					C19.1,8.2,19.1,8.2,19.2,8.2L19.2,8.2z M21.1,16.3C21.1,16.3,21.1,16.3,21.1,16.3C21.1,16.3,21.1,16.3,21.1,16.3z"/>
				<path class="st60" d="M21.3,14.4L21.3,14.4C21.3,14.4,21.3,14.4,21.3,14.4c0,0.1,0,0.1,0,0.2c0,0,0,0.1,0,0.1c0,0,0,0.1,0,0.1
					c0,0,0-0.1,0-0.1c0,0,0-0.1,0-0.1C21.3,14.5,21.3,14.5,21.3,14.4C21.3,14.4,21.3,14.4,21.3,14.4z M21.2,15.4
					c0.1-0.2,0.1-0.4,0.1-0.7C21.3,15,21.3,15.2,21.2,15.4z M19.8,7.8c-0.6-0.6-1.4-0.8-1.9-0.6c-0.3-0.2-1.1,0-1.3,0.2l-0.2,0.1
					l0,0l0,0l0,0c-0.2,0.1-0.4,0.2-0.5,0.4c-0.1,0-2,0.9-2,1l-0.9,0.6l-0.1,0.1l-0.3,0.1c-0.2,0-0.5,0-0.7,0.1
					c-0.1,0-0.7,0.3-0.8,0.3l-0.2,0.1l0,0l0,0l0,0c-0.6,0.2-0.9,0.9-1,1.8c-0.2,0.1-1.1,0.7-1,1.1c-0.5,0.3-0.5,1.6,0.2,2.7
					c0.4,1.1,1.4,2.2,2.2,2.6c0.9,1,1.9,1.4,2.6,1.1c0.3,0.2,0.7,0.2,0.9,0c0,0-0.1,0-0.1,0c0,0,0.5-0.2,0.5-0.2
					c0.2-0.1,0.6-0.4,0.7-0.5c0.1,0,0.4-0.2,0.4-0.3l0.1-0.1l1.5-0.6l0.5-0.4l0.7-0.3c0.2,0,0.7-0.1,0.9-0.2
					c0.2-0.1,0.4-0.2,0.6-0.3c-0.1,0.1-0.1,0.1-0.2,0.1c0,0,0.5-0.2,0.5-0.1c0.6-0.2,1.1-1.1,1.2-2c0.2-0.1,0.7-0.6,0.6-0.9
					c0.7-0.3,1-1.6,0.6-2.9c-0.2-1.4-1.1-2.7-2-2.8C20.8,7.7,20,7.6,19.8,7.8z M18.9,8.3c0,0-0.1-0.1-0.1-0.1
					C18.8,8.2,18.9,8.2,18.9,8.3L18.9,8.3z M20.8,16.4C20.8,16.4,20.8,16.4,20.8,16.4C20.8,16.4,20.8,16.4,20.8,16.4z"/>
				<path class="st61" d="M21,14.4L21,14.4C21,14.5,21,14.5,21,14.4c0,0.1,0,0.1,0,0.2c0,0,0,0.1,0,0.1c0,0,0,0.1,0,0.1
					c0,0,0-0.1,0-0.1c0,0,0-0.1,0-0.1C21,14.6,21,14.5,21,14.4C21,14.5,21,14.5,21,14.4z M20.9,15.4c0.1-0.2,0.1-0.4,0.1-0.7
					C21,15,20.9,15.2,20.9,15.4z M19.5,7.9c-0.6-0.6-1.4-0.8-2-0.6c-0.2-0.2-1.1,0.1-1.2,0.2l-0.2,0.1l0,0l0,0l0,0
					c-0.2,0.1-0.4,0.2-0.5,0.4c-0.1,0-2,0.9-2.1,1l-0.9,0.5l-0.1,0.1l-0.3,0.1c-0.2,0-0.5,0-0.7,0.1c-0.1,0-0.7,0.3-0.8,0.3
					l-0.2,0.1l0,0l0,0l0,0c-0.6,0.2-0.9,1-1,1.9c-0.2,0.1-1.1,0.7-1,1C8,13.4,8,14.8,8.7,16c0.5,1.1,1.4,2.2,2.2,2.5
					c0.9,0.9,1.9,1.4,2.6,1.1c0.3,0.1,0.6,0.1,0.8,0c0,0-0.1,0-0.1,0.1c0,0,0.6-0.2,0.5-0.2c0.2-0.1,0.6-0.4,0.7-0.6
					c0.1,0,0.4-0.2,0.4-0.3l0.1-0.1l1.5-0.6l0.4-0.3l0.7-0.3c0.2,0,0.7-0.1,0.9-0.2c0.2-0.1,0.4-0.2,0.6-0.3
					c-0.1,0.1-0.2,0.1-0.3,0.1c0,0,0.5-0.2,0.5-0.2c0.6-0.2,1.1-1.1,1.2-2c0.2-0.1,0.7-0.5,0.6-0.8c0.7-0.3,1-1.7,0.6-3
					c-0.2-1.5-1.2-2.7-2.1-2.8C20.5,7.7,19.7,7.7,19.5,7.9z M18.7,8.3c0,0-0.1-0.1-0.1-0.1C18.6,8.2,18.6,8.3,18.7,8.3L18.7,8.3z
					 M20.4,16.5C20.5,16.5,20.5,16.5,20.4,16.5C20.5,16.5,20.5,16.5,20.4,16.5z"/>
				<path class="st62" d="M20.7,14.5L20.7,14.5C20.7,14.5,20.7,14.6,20.7,14.5c0,0.1,0,0.1,0,0.2c0,0,0,0.1,0,0.1c0,0,0,0.1,0,0.1
					c0,0,0-0.1,0-0.1c0,0,0-0.1,0-0.1C20.7,14.6,20.7,14.6,20.7,14.5C20.7,14.6,20.7,14.5,20.7,14.5z M20.6,15.5
					c0.1-0.2,0.1-0.4,0.1-0.7C20.7,15.1,20.6,15.3,20.6,15.5z M19.3,7.9c-0.6-0.7-1.5-0.9-2.1-0.6c-0.2-0.1-1,0.1-1.2,0.2l-0.2,0.1
					l0,0l0,0l0,0c-0.2,0.1-0.4,0.2-0.6,0.4c-0.1,0-2.1,0.9-2.1,1l-0.8,0.5l-0.1,0.1L12,9.7c-0.2,0-0.5,0-0.8,0.1
					c-0.1,0-0.7,0.3-0.8,0.3l-0.2,0.1l0,0l0,0l0,0c-0.6,0.3-1,1-1.1,2c-0.1,0.1-1.1,0.7-1,0.9c-0.5,0.3-0.5,1.7,0.3,2.9
					c0.5,1.2,1.5,2.2,2.3,2.5c0.9,0.9,1.9,1.4,2.6,1.1c0.3,0.1,0.5,0.1,0.8,0c0,0-0.1,0.1-0.2,0.1c0,0,0.6-0.2,0.6-0.2
					c0.2-0.1,0.5-0.4,0.7-0.6c0.1,0,0.4-0.2,0.4-0.3l0.1-0.1l1.6-0.7l0.4-0.3l0.8-0.3c0.2,0,0.6-0.1,0.9-0.2
					c0.2-0.1,0.4-0.2,0.5-0.3c-0.1,0.1-0.2,0.1-0.3,0.2c0,0,0.6-0.2,0.5-0.2c0.6-0.3,1.1-1.1,1.2-2.1c0.1-0.1,0.6-0.5,0.6-0.8
					c0.7-0.3,1-1.7,0.6-3.1c-0.3-1.5-1.2-2.7-2.2-2.8C20.2,7.8,19.4,7.8,19.3,7.9z M18.4,8.4c0,0-0.1-0.1-0.1-0.1
					C18.3,8.3,18.3,8.3,18.4,8.4L18.4,8.4z M20.1,16.5C20.1,16.5,20.1,16.5,20.1,16.5C20.1,16.5,20.1,16.5,20.1,16.5z"/>
				<path class="st63" d="M20.4,14.6L20.4,14.6C20.4,14.6,20.4,14.6,20.4,14.6c0,0.1,0,0.1,0,0.2c0,0,0,0.1,0,0.1c0,0,0,0.1,0,0.1
					c0,0,0-0.1,0-0.1c0,0,0-0.1,0-0.1C20.4,14.7,20.4,14.7,20.4,14.6C20.4,14.6,20.4,14.6,20.4,14.6z M20.3,15.6
					c0.1-0.2,0.1-0.4,0.1-0.7C20.4,15.2,20.3,15.4,20.3,15.6z M19,8c-0.7-0.7-1.5-0.9-2.1-0.7c-0.2-0.1-1,0.1-1.1,0.2l-0.1,0.1l0,0
					l0,0l0,0c-0.2,0.1-0.4,0.3-0.6,0.5c0,0-2.2,1-2.2,1l-0.8,0.4L12,9.6l-0.3,0.1c-0.2,0-0.5,0-0.8,0.1c-0.1,0-0.8,0.3-0.8,0.3
					L10,10.2l0,0l0,0l0,0c-0.6,0.3-1,1-1.1,2.1c-0.1,0.1-1.1,0.7-1,0.9c-0.5,0.3-0.5,1.7,0.3,3c0.6,1.2,1.5,2.2,2.3,2.5
					c0.9,0.9,1.8,1.4,2.6,1.1c0.2,0.1,0.5,0.1,0.7,0c-0.1,0-0.1,0.1-0.2,0.1c0,0,0.6-0.2,0.6-0.2c0.2-0.1,0.5-0.3,0.7-0.6
					c0,0,0.4-0.2,0.4-0.3l0.1,0l1.7-0.7l0.3-0.2l0.8-0.3c0.2,0,0.6-0.1,0.9-0.2c0.2-0.1,0.4-0.2,0.5-0.3c-0.1,0.1-0.2,0.2-0.3,0.2
					c0,0,0.6-0.2,0.6-0.2c0.6-0.3,1.1-1.1,1.2-2.2c0.1-0.1,0.6-0.5,0.6-0.7c0.7-0.3,1-1.8,0.6-3.2c-0.3-1.5-1.3-2.7-2.2-2.7
					C19.9,7.8,19.1,7.9,19,8z M18.1,8.4c0,0-0.1-0.1-0.1-0.1C18,8.3,18.1,8.4,18.1,8.4L18.1,8.4z M19.8,16.6
					C19.8,16.6,19.8,16.6,19.8,16.6C19.8,16.6,19.8,16.6,19.8,16.6z"/>
				<path class="st64" d="M20.1,14.6L20.1,14.6C20.1,14.7,20.1,14.7,20.1,14.6c0,0.1,0,0.1,0,0.2c0,0,0,0.1,0,0.1c0,0,0,0.1,0,0.1
					c0,0,0-0.1,0-0.1c0,0,0-0.1,0-0.1C20.1,14.8,20.1,14.7,20.1,14.6C20.1,14.7,20.1,14.7,20.1,14.6z M20,15.6
					c0.1-0.2,0.1-0.4,0.1-0.7C20.1,15.2,20,15.4,20,15.6z M18.7,8c-0.7-0.7-1.5-1-2.2-0.7c-0.1-0.1-1,0.2-1.1,0.2l-0.1,0.1l0,0l0,0
					l0,0c-0.2,0.1-0.4,0.3-0.6,0.5c0,0-2.2,1-2.3,1l-0.7,0.4l-0.1,0l-0.3,0.1c-0.3,0-0.6,0-0.8,0.1c0,0-0.8,0.3-0.8,0.3l-0.1,0.1
					l0,0l0,0l0,0c-0.7,0.3-1,1.1-1.1,2.1c-0.1,0.1-1.1,0.6-1.1,0.8c-0.5,0.3-0.4,1.7,0.4,3.1c0.6,1.2,1.6,2.2,2.4,2.4
					c0.9,0.9,1.8,1.4,2.6,1.1c0.2,0.1,0.4,0.1,0.6-0.1c-0.1,0-0.1,0.1-0.2,0.1c0,0,0.6-0.3,0.6-0.3c0.2-0.1,0.5-0.3,0.7-0.6
					c0,0,0.4-0.2,0.4-0.2l0.1,0l1.7-0.7l0.3-0.2l0.8-0.3c0.3,0,0.6-0.1,0.9-0.2c0.2-0.1,0.4-0.2,0.5-0.3c-0.1,0.1-0.2,0.2-0.3,0.2
					c0,0,0.6-0.2,0.6-0.2c0.7-0.3,1.2-1.2,1.3-2.2c0.1-0.1,0.6-0.4,0.6-0.6c0.8-0.3,1.1-1.8,0.6-3.3c-0.4-1.6-1.4-2.8-2.3-2.7
					C19.5,7.9,18.8,7.9,18.7,8z M17.9,8.4c0,0-0.1-0.1-0.1-0.1C17.8,8.3,17.8,8.4,17.9,8.4L17.9,8.4z M19.5,16.6
					C19.5,16.6,19.5,16.6,19.5,16.6C19.5,16.6,19.5,16.6,19.5,16.6z"/>
				<path class="st65" d="M19.8,14.7L19.8,14.7C19.8,14.7,19.8,14.7,19.8,14.7c0,0.1,0,0.1,0,0.2c0,0,0,0.1,0,0.1c0,0,0,0.1,0,0.1
					c0,0,0-0.1,0-0.1c0,0,0-0.1,0-0.1C19.8,14.8,19.8,14.8,19.8,14.7C19.8,14.7,19.8,14.7,19.8,14.7z M19.7,15.7
					c0.1-0.2,0.1-0.4,0.1-0.7C19.8,15.3,19.7,15.5,19.7,15.7z M18.4,8.1c-0.7-0.8-1.6-1-2.3-0.8c-0.1-0.1-0.9,0.2-1,0.3l-0.1,0.1
					l0,0l0,0l0,0c-0.2,0.1-0.4,0.3-0.6,0.5c0,0-2.3,1-2.3,1l-0.7,0.4l0,0l-0.3,0.1c-0.3,0-0.6,0-0.8,0.1c0,0-0.8,0.3-0.8,0.3
					l-0.1,0.1l0,0l0,0l0,0c-0.7,0.3-1.1,1.1-1.2,2.2c-0.1,0.1-1.1,0.6-1.1,0.7c-0.6,0.3-0.4,1.8,0.4,3.2c0.6,1.3,1.6,2.2,2.4,2.4
					c0.9,0.9,1.8,1.3,2.6,1c0.2,0,0.4,0,0.5-0.1c-0.1,0-0.1,0.1-0.2,0.1c0,0,0.7-0.3,0.7-0.3c0.2-0.1,0.5-0.3,0.7-0.6
					c0,0,0.4-0.2,0.4-0.2l0,0l1.8-0.8l0.2-0.2l0.8-0.4c0.3,0,0.6-0.1,0.9-0.2c0.2-0.1,0.4-0.2,0.5-0.3c-0.1,0.1-0.2,0.2-0.4,0.2
					c0,0,0.7-0.3,0.6-0.2c0.7-0.3,1.2-1.2,1.3-2.3c0.1-0.1,0.6-0.4,0.6-0.5c0.8-0.3,1.1-1.9,0.6-3.4c-0.4-1.6-1.5-2.8-2.4-2.6
					C19.2,7.9,18.5,8,18.4,8.1z M17.6,8.5c0,0-0.1-0.1-0.1-0.1C17.5,8.4,17.6,8.4,17.6,8.5L17.6,8.5z M19.2,16.7
					C19.2,16.7,19.2,16.7,19.2,16.7C19.2,16.7,19.2,16.7,19.2,16.7z"/>
				<path class="st66" d="M19.5,14.7L19.5,14.7C19.5,14.8,19.5,14.8,19.5,14.7c0,0.1,0,0.1,0,0.2c0,0,0,0.1,0,0.1c0,0,0,0.1,0,0.1
					c0,0,0-0.1,0-0.1c0,0,0-0.1,0-0.1C19.5,14.9,19.5,14.8,19.5,14.7C19.5,14.8,19.5,14.8,19.5,14.7z M19.4,15.7
					c0.1-0.2,0.1-0.4,0.1-0.7C19.5,15.3,19.4,15.5,19.4,15.7z M18.2,8.1c-0.7-0.8-1.6-1.1-2.3-0.8c-0.1-0.1-0.9,0.2-1,0.3l-0.1,0
					l0,0l0,0l0,0c-0.2,0.1-0.5,0.3-0.6,0.5c0,0-2.4,1-2.4,1l-0.6,0.3l0,0l-0.4,0.2c-0.3,0-0.6,0-0.8,0.1c0,0-0.8,0.3-0.8,0.3l-0.1,0
					l0,0l0,0l0,0c-0.7,0.3-1.1,1.2-1.2,2.3c-0.1,0-1.1,0.6-1.1,0.7c-0.6,0.3-0.4,1.8,0.5,3.2C8,17.6,9,18.6,9.7,18.8
					c0.8,0.9,1.8,1.3,2.6,1c0.2,0,0.3,0,0.5-0.1c-0.1,0-0.1,0.1-0.2,0.1c0,0,0.7-0.3,0.7-0.3c0.2-0.1,0.5-0.3,0.7-0.6
					c0,0,0.4-0.2,0.4-0.2l0,0l1.9-0.8l0.2-0.1l0.9-0.4c0.3,0,0.6,0,0.9-0.1c0.2-0.1,0.4-0.2,0.5-0.3c-0.1,0.1-0.2,0.2-0.4,0.2
					c0,0,0.7-0.3,0.7-0.3c0.7-0.3,1.2-1.2,1.3-2.3c0.1,0,0.6-0.4,0.6-0.5c0.8-0.3,1.1-1.9,0.6-3.5C21,9,19.9,7.9,19,8.1
					C18.9,7.9,18.2,8.1,18.2,8.1z M17.3,8.5c0,0-0.1-0.1-0.1-0.1C17.2,8.4,17.3,8.4,17.3,8.5L17.3,8.5z M18.9,16.7
					C18.9,16.7,18.9,16.7,18.9,16.7C18.9,16.7,18.9,16.7,18.9,16.7z"/>
				<path class="st67" d="M19.2,14.8L19.2,14.8C19.2,14.8,19.2,14.8,19.2,14.8c0,0.1,0,0.1,0,0.2c0,0,0,0.1,0,0.1c0,0,0,0.1,0,0.1
					c0,0,0-0.1,0-0.1c0,0,0-0.1,0-0.1C19.2,14.9,19.2,14.9,19.2,14.8C19.2,14.8,19.2,14.8,19.2,14.8z M19.1,15.8
					c0.1-0.2,0.1-0.4,0.1-0.7C19.2,15.4,19.1,15.6,19.1,15.8z M17.9,8.2c-0.8-0.8-1.6-1.1-2.4-0.8c-0.1,0-0.9,0.3-0.9,0.3l0,0l0,0
					l0,0l0,0c-0.3,0.1-0.5,0.3-0.7,0.5c0,0-2.4,1-2.4,1.1l-0.6,0.3l0,0l-0.4,0.2c-0.3,0-0.6,0-0.8,0.1c0,0-0.8,0.3-0.8,0.3l0,0l0,0
					l0,0l0,0c-0.7,0.3-1.2,1.2-1.3,2.4c0,0-1.1,0.5-1.1,0.6c-0.6,0.3-0.4,1.8,0.5,3.3c0.7,1.3,1.8,2.3,2.5,2.4
					c0.8,0.9,1.8,1.3,2.6,1c0.1,0,0.3,0,0.4-0.1c-0.1,0-0.1,0.1-0.2,0.1c0,0,0.7-0.3,0.7-0.3c0.3-0.1,0.5-0.3,0.7-0.6
					c0,0,0.4-0.2,0.4-0.2l0,0l1.9-0.8l0.1-0.1l0.9-0.4c0.3,0,0.6,0,0.9-0.1c0.2-0.1,0.3-0.2,0.5-0.3c-0.1,0.1-0.3,0.2-0.4,0.3
					c0,0,0.7-0.3,0.7-0.3c0.7-0.3,1.2-1.2,1.3-2.4c0,0,0.6-0.3,0.6-0.4c0.8-0.4,1.1-2,0.6-3.6c-0.5-1.7-1.6-2.8-2.5-2.6
					C18.5,7.9,17.9,8.1,17.9,8.2z M17.1,8.5c0,0-0.1-0.1-0.1-0.1C17,8.4,17,8.5,17.1,8.5L17.1,8.5z M18.6,16.8
					C18.6,16.8,18.6,16.8,18.6,16.8C18.6,16.8,18.6,16.8,18.6,16.8z"/>
				<path class="st68" d="M18.9,14.8L18.9,14.8C18.9,14.9,18.9,14.9,18.9,14.8c0,0.1,0,0.1,0,0.2c0,0,0,0.1,0,0.1c0,0,0,0.1,0,0.1
					c0,0,0-0.1,0-0.1c0,0,0-0.1,0-0.1C18.9,15,18.9,14.9,18.9,14.8C18.9,14.9,18.9,14.9,18.9,14.8z M18.8,15.8
					c0.1-0.2,0.1-0.4,0.1-0.7C18.9,15.4,18.8,15.6,18.8,15.8z M17.6,8.2c-0.8-0.8-1.7-1.2-2.4-0.9c0,0-0.8,0.3-0.8,0.3l0,0l0,0l0,0
					l0,0c-0.3,0.1-0.5,0.3-0.7,0.5c0,0-2.5,1.1-2.5,1.1l-0.5,0.2l0,0l-0.4,0.2c-0.3,0-0.6,0-0.8,0.1c0,0-0.8,0.3-0.8,0.3l0,0l0,0
					l0,0l0,0c-0.7,0.3-1.2,1.2-1.3,2.4c0,0-1.1,0.5-1.1,0.5c-0.6,0.3-0.4,1.9,0.5,3.4c0.8,1.3,1.8,2.3,2.5,2.3
					c0.8,0.9,1.8,1.3,2.5,1c0.1,0,0.2-0.1,0.3-0.1c-0.1,0-0.2,0.1-0.2,0.1c0,0,0.8-0.3,0.8-0.3c0.3-0.1,0.5-0.3,0.7-0.6
					c0,0,0.4-0.2,0.4-0.2l0,0l2-0.8l0.1,0l0.9-0.4c0.3,0,0.6,0,0.9-0.1c0.2-0.1,0.3-0.2,0.5-0.3c-0.1,0.1-0.3,0.2-0.4,0.3
					c0,0,0.8-0.3,0.8-0.3c0.7-0.3,1.2-1.3,1.3-2.5c0,0,0.6-0.3,0.6-0.3c0.9-0.4,1.1-2,0.6-3.7c-0.5-1.7-1.7-2.8-2.6-2.5
					C18.2,8,17.6,8.2,17.6,8.2z M16.8,8.6c0,0-0.1-0.1-0.1-0.1C16.7,8.5,16.8,8.5,16.8,8.6L16.8,8.6z M18.3,16.8
					C18.3,16.8,18.3,16.8,18.3,16.8C18.3,16.8,18.3,16.8,18.3,16.8z"/>
				<path class="st69" d="M18.6,14.9C18.6,14.9,18.6,14.9,18.6,14.9c0,0.1,0,0.1,0,0.2c0,0,0,0.1,0,0.1c0,0,0,0.1,0,0.1
					c0,0,0-0.1,0-0.1c0,0,0-0.1,0-0.1C18.6,15,18.6,15,18.6,14.9C18.6,14.9,18.6,14.9,18.6,14.9L18.6,14.9z M18.5,15.9
					c0.1-0.2,0.1-0.4,0.2-0.7C18.6,15.5,18.5,15.7,18.5,15.9z M17.9,8l-0.6,0.2c-0.8-0.9-1.7-1.2-2.5-0.9l-0.8,0.3l0,0l0,0l0,0l0,0
					c-0.3,0.1-0.5,0.3-0.7,0.6l-2.6,1.1l-0.4,0.2l0,0L10,9.7c-0.3-0.1-0.6,0-0.9,0.1l-0.8,0.3l0,0l0,0l0,0l0,0
					c-0.8,0.3-1.2,1.3-1.4,2.5l-1.1,0.5c-0.6,0.4-0.4,1.9,0.6,3.5c0.8,1.4,1.9,2.3,2.6,2.3c0.8,0.9,1.8,1.3,2.5,1
					c0.1,0,0.2-0.1,0.2-0.1c-0.1,0.1-0.2,0.1-0.2,0.1l0.8-0.3c0.3-0.1,0.5-0.3,0.7-0.6l0.4-0.2l0,0l2-0.9l0,0l1-0.4
					c0.3,0.1,0.6,0,0.9-0.1c0.2-0.1,0.3-0.2,0.5-0.3c-0.1,0.1-0.3,0.2-0.5,0.3l0.8-0.3c0.8-0.3,1.2-1.3,1.4-2.5l0.6-0.2
					c0.9-0.4,1.2-2.1,0.6-3.8C20,8.7,18.8,7.6,17.9,8z M16.5,8.6c0,0-0.1-0.1-0.1-0.1C16.5,8.5,16.5,8.5,16.5,8.6L16.5,8.6z
					 M18,16.9C18,16.9,18,16.9,18,16.9C18,16.9,18,16.9,18,16.9z"/>
			</g>
		</g>
	</g>
	<g>
		<g>
			<g class="st70">
				<g>
					<path class="st71" d="M17.6,9.7L16.5,9c0.2-0.1,0.4-0.5,0.4-0.8l1.2,0.7C18.1,9.2,17.9,9.5,17.6,9.7z"/>
				</g>
				<g>
					<path class="st71" d="M17.3,9.7L16.1,9c0.1,0,0.2,0,0.3,0l1.2,0.7C17.5,9.7,17.4,9.7,17.3,9.7z"/>
				</g>
				<g>
					<polygon class="st72" points="18.1,8.9 16.9,8.2 16.9,5.4 18.1,6.1 					"/>
				</g>
				<g>
					<path class="st72" d="M18.1,6.1l-1.2-0.7c0-0.1-0.1-0.2-0.1-0.3l1.2,0.7C18,5.9,18.1,6,18.1,6.1z"/>
				</g>
				<g>
					<polygon class="st72" points="16.6,11.9 15.5,11.2 15.4,5.6 16.6,6.3 					"/>
				</g>
				<g>
					<polygon class="st72" points="13.5,6.7 10,4.7 14.2,4.8 17.6,6.8 					"/>
				</g>
				<g>
					<path class="st72" d="M17.1,2.9l1.2,0.7c0,0-0.1,0-0.1,0l-1.2-0.7C17,2.9,17,2.9,17.1,2.9z"/>
				</g>
				<g>
					<path class="st72" d="M16.5,5.1l-1.2-0.7c0.1,0,0.1,0,0.2-0.1c0.2-0.1,0.3-0.3,0.4-0.5l1.2,0.7C17,4.8,16.8,5,16.7,5.1
						C16.6,5.1,16.5,5.1,16.5,5.1z"/>
				</g>
				<g>
					<path class="st72" d="M15.8,3.4L17,4c0.1,0.1,0.2,0.3,0.1,0.5l-1.2-0.7C16,3.6,16,3.4,15.8,3.4z"/>
				</g>
				<g>
					<polygon class="st71" points="14.3,5.1 13.2,4.4 15.3,4.5 16.5,5.1 					"/>
				</g>
				<g>
					<path class="st72" d="M14.2,5.1L13,4.4c0,0,0.1,0,0.1,0l1.2,0.7C14.3,5.1,14.3,5.1,14.2,5.1z"/>
				</g>
				<g>
					<polygon class="st71" points="14,3.4 12.8,2.7 16.9,2.9 18.1,3.5 					"/>
				</g>
				<g>
					<path class="st71" d="M13.7,3.4l-1.2-0.7c0.1-0.1,0.2-0.1,0.3-0.1L14,3.4C13.9,3.4,13.8,3.4,13.7,3.4z"/>
				</g>
				<g>
					<polygon class="st71" points="13.2,3.7 12.1,3 12.5,2.8 13.7,3.4 					"/>
				</g>
				<g>
					<polygon class="st72" points="12.5,6.1 11.3,5.4 11,4.8 12.2,5.4 					"/>
				</g>
				<g>
					<polygon class="st72" points="12.2,5.4 11,4.8 11.6,3.6 12.7,4.3 					"/>
				</g>
				<g>
					<path class="st73" d="M18.1,3.5c0.2,0,0.3,0.2,0.3,0.4l0,5.9c0,0.4-0.2,0.8-0.5,1l-1.3,1l0-5.7l-4.1-0.2l-0.3-0.6l0.5-1.1
						c0.1-0.3,0.3-0.5,0.5-0.6l0.5-0.3c0.1-0.1,0.2-0.1,0.3-0.1L18.1,3.5z M17.1,4.6c0.1-0.3,0-0.6-0.2-0.6l-2.1,0
						c-0.1,0-0.1,0-0.2,0.1c-0.2,0.1-0.3,0.3-0.4,0.5c-0.1,0.3,0,0.6,0.2,0.6l2.1,0c0.1,0,0.1,0,0.2-0.1C16.8,5,17,4.8,17.1,4.6
						L17.1,4.6z M17.6,9.7c0.2-0.1,0.4-0.5,0.4-0.8l0-2.8c0-0.1-0.1-0.2-0.1-0.3c-0.1,0-0.2,0-0.3,0c-0.2,0.1-0.4,0.5-0.4,0.8l0,2.8
						C17.2,9.7,17.4,9.8,17.6,9.7L17.6,9.7z"/>
				</g>
				<g>
					<path class="st71" d="M12.7,4.3l-1.2-0.7c0.1-0.3,0.3-0.5,0.5-0.6l1.2,0.7C13,3.8,12.8,4.1,12.7,4.3z"/>
				</g>
			</g>
		</g>
		<g>
			<g class="st70">
				<g>
					<polygon class="st71" points="11.5,7 8.1,5 9.8,4 13.2,6 					"/>
				</g>
				<g>
					<path class="st72" d="M9,18.1l-3.4-2c-0.1-0.1-0.2-0.2-0.2-0.5C5.5,10.9,7,7.1,7.5,5.7C7.6,5.4,7.9,5.1,8.1,5l3.4,2
						c-0.2,0.1-0.5,0.4-0.6,0.7c-0.6,1.3-2,5.2-2.1,9.9C8.8,17.9,8.9,18,9,18.1z"/>
				</g>
				<g>
					<path class="st73" d="M13.2,6l0.3,0.6l4.1,0.2l0,5.7L17.5,13c-0.1,0.3-0.4,0.7-0.6,0.8l-7.3,4.2c-0.4,0.2-0.7,0-0.7-0.4
						C9,12.9,10.4,9,11,7.7c0.1-0.3,0.4-0.6,0.6-0.7L13.2,6z"/>
				</g>
			</g>
		</g>
		<g>
			<path class="st72" d="M11.7,4.5v0.9h0c0,0.2-0.1,0.4-0.4,0.5c-0.5,0.3-1.2,0.3-1.7,0C9.4,5.8,9.3,5.6,9.3,5.4h0V4.5H11.7z"/>
			<path class="st74" d="M11.9,3.5v1.1h0c0,0.2-0.1,0.4-0.4,0.6c-0.5,0.3-1.4,0.3-1.9,0C9.3,5,9.2,4.8,9.2,4.6h0V3.5H11.9z"/>
			<path class="st75" d="M11.5,4.1c-0.5,0.3-1.4,0.3-1.9,0C9,3.8,9,3.3,9.6,3c0.5-0.3,1.4-0.3,1.9,0C12,3.3,12,3.8,11.5,4.1z"/>
		</g>
		<g>
			<path class="st76" d="M16.4,8.1v4.5l-0.3,0.9l-6.7,3.9c0-5,1.9-9,1.9-9l1.6-0.9L13.1,8L16.4,8.1z"/>
			<g>
				<polygon class="st77" points="14.3,9.4 11.5,11.1 11.5,10.3 14.3,8.7 				"/>
				<path class="st72" d="M14.7,10.4l-3.7,2.1c-0.1,0.1-0.3,0-0.3-0.2v-0.1c0-0.2,0.1-0.4,0.3-0.5l3.7-2.1c0.1-0.1,0.3,0,0.3,0.2
					v0.1C15,10,14.9,10.3,14.7,10.4z"/>
			</g>
			<polygon class="st72" points="16.4,11.8 13.7,13.4 13.7,12.5 16.4,11 			"/>
			<g>
				<polygon class="st72" points="11.3,14.9 9.7,15.8 9.7,15.4 11.3,14.5 				"/>
				<polygon class="st77" points="11.9,15.1 9.7,16.4 9.7,16 11.9,14.8 				"/>
			</g>
			<g>
				<polygon class="st78" points="15.3,13.1 13.7,14 13.7,13.8 15.3,12.9 				"/>
				<polygon class="st78" points="15.3,13.5 13.7,14.4 13.7,14.2 15.3,13.2 				"/>
			</g>
			<g>
				<path class="st78" d="M13.4,12.3c0,0.3-0.2,0.8-0.5,0.9c-0.3,0.2-0.5,0-0.5-0.3c0-0.3,0.2-0.8,0.5-0.9
					C13.2,11.8,13.4,11.9,13.4,12.3z"/>
				<path class="st72" d="M13.3,12.4c0,0.3-0.2,0.6-0.4,0.7c-0.2,0.1-0.4,0-0.4-0.2c0-0.3,0.2-0.6,0.4-0.7
					C13.1,12,13.3,12.1,13.3,12.4z"/>
				<path class="st76" d="M13.1,12.5c0,0.1-0.1,0.3-0.2,0.3c-0.1,0.1-0.2,0-0.2-0.1c0-0.1,0.1-0.3,0.2-0.3
					C13,12.3,13.1,12.4,13.1,12.5z"/>
			</g>
		</g>
	</g>
	<g>
		<g>
			<g class="st70">
				<g>
					<polygon class="st79" points="20.4,14.7 17.1,12.8 17.4,12.2 20.7,14.1 					"/>
				</g>
				<g>
					<path class="st79" d="M20.1,14.9L16.9,13c0,0,0.1,0,0.1,0c0,0,0.1-0.1,0.1-0.1l3.2,1.9c0,0.1-0.1,0.1-0.1,0.1
						C20.2,14.9,20.2,14.9,20.1,14.9z"/>
				</g>
				<g>
					<path class="st80" d="M20.7,14.1l-3.2-1.9c0-0.1,0.1-0.2,0.1-0.3l3.2,1.9C20.8,13.9,20.7,14,20.7,14.1z"/>
				</g>
				<g>
					<polygon class="st81" points="20.8,13.7 17.5,11.9 17.5,8.6 20.7,10.5 					"/>
				</g>
				<g>
					<path class="st81" d="M17.4,8.4l3.2,1.9c0.1,0,0.1,0.1,0.1,0.3l-3.2-1.9C17.5,8.5,17.5,8.4,17.4,8.4z"/>
				</g>
				<g>
					<path class="st81" d="M15.1,19.6l-3.2-1.9c-0.1-0.1-0.2-0.2-0.2-0.4l3.2,1.9C14.9,19.4,15,19.5,15.1,19.6z"/>
				</g>
				<g>
					<polygon class="st80" points="18.2,9.4 15,7.6 18.3,6.9 21.6,8.8 					"/>
				</g>
				<g>
					<g class="st70">
						<g>
							<polygon class="st81" points="19.8,8.4 18.9,7.9 18.9,7.3 19.8,7.9 							"/>
						</g>
						<g>
							<path class="st81" d="M18.7,6.9l0.9,0.5c0.1,0.1,0.2,0.2,0.2,0.4l-0.9-0.5C18.9,7.1,18.8,7,18.7,6.9z"/>
						</g>
						<g>
							<path class="st79" d="M19.5,5.9l0.9,0.5c-0.1,0-0.2-0.1-0.3,0l-0.9-0.5C19.4,5.8,19.5,5.8,19.5,5.9z"/>
						</g>
						<g>
							<polygon class="st79" points="18.1,7 17.2,6.5 19.2,5.9 20.2,6.4 							"/>
						</g>
						<g>
							<path class="st79" d="M18,7.1L17,6.5c0.1,0,0.1-0.1,0.1-0.1L18.1,7C18.1,7,18,7,18,7.1z"/>
						</g>
						<g>
							<path class="st79" d="M17.6,7.4l-0.9-0.5c0.1-0.1,0.2-0.3,0.4-0.3L18,7.1C17.8,7.1,17.7,7.3,17.6,7.4z"/>
						</g>
						<g>
							<polygon class="st80" points="16.9,8.4 16,7.8 16.7,6.9 17.6,7.4 							"/>
						</g>
						<g>
							<path class="st82" d="M18,7.1C18,7,18.1,7,18.1,7l2-0.6c0.3-0.1,0.5,0.1,0.5,0.4l0,1.4l-0.8,0.2l0-0.5c0-0.3-0.2-0.5-0.4-0.4
								l-1,0.2c-0.1,0-0.1,0-0.2,0.1c-0.1,0.1-0.3,0.2-0.4,0.4l-0.6,0.8l-0.4-0.5l0.7-1C17.7,7.3,17.8,7.1,18,7.1z"/>
						</g>
						<g>
							<polygon class="st80" points="17.3,8.9 16.4,8.4 16,7.8 16.9,8.4 							"/>
						</g>
					</g>
				</g>
				<g>
					<polygon class="st81" points="14.9,19.2 11.7,17.3 11.7,10.6 14.9,12.5 					"/>
				</g>
				<g>
					<path class="st79" d="M14.3,6.6l3.2,1.9c-0.1,0-0.2,0-0.3,0L14,6.6C14.1,6.6,14.2,6.6,14.3,6.6z"/>
				</g>
				<g>
					<path class="st79" d="M14.9,12.5l-3.2-1.9c0-0.1,0-0.3,0.1-0.4c0.1-0.1,0.1-0.3,0.1-0.4l3.2,1.9c0,0.1,0,0.3-0.1,0.4
						C14.9,12.2,14.9,12.4,14.9,12.5z"/>
				</g>
				<g>
					<polygon class="st80" points="15.1,11.7 11.9,9.8 11.9,8.4 15.1,10.2 					"/>
				</g>
				<g>
					<polygon class="st79" points="15.6,9.5 12.3,7.6 14,6.6 17.2,8.5 					"/>
				</g>
				<g>
					<path class="st82" d="M18.2,9.4l3.3-0.7l0,6.5c0,0.4-0.3,0.9-0.6,1.1l-5.4,3.1c-0.3,0.2-0.6,0-0.6-0.4l0-6.7
						c0-0.1,0-0.3,0.1-0.4c0.1-0.1,0.1-0.3,0.1-0.4l0-1.5c0-0.3,0.2-0.6,0.4-0.8l1.6-0.9c0.2-0.1,0.3-0.1,0.4,0L18.2,9.4z
						 M20.8,13.7l0-3.2c0-0.2-0.1-0.3-0.2-0.3c0,0,0,0,0,0l-0.3,0.2c0,0-0.1,0.1-0.1,0.2c-0.8,2-0.3,3.5-0.1,4.1
						c0,0.1,0.1,0.1,0.2,0.1c0,0,0.1-0.1,0.1-0.1l0.3-0.6C20.7,14,20.8,13.9,20.8,13.7L20.8,13.7z"/>
				</g>
				<g>
					<path class="st79" d="M15.1,10.2l-3.2-1.9c0-0.3,0.2-0.6,0.4-0.8l3.2,1.9C15.3,9.6,15.1,10,15.1,10.2z"/>
				</g>
			</g>
		</g>
		<g>
			<path class="st80" d="M15.7,7.4v0.7h0c0,0.2-0.1,0.3-0.3,0.4c-0.4,0.2-1.1,0.2-1.5,0c-0.2-0.1-0.3-0.3-0.3-0.4V7.4H15.7z"/>
			<path class="st83" d="M16,6.5v0.8h0c0,0.2-0.1,0.4-0.4,0.6c-0.5,0.3-1.4,0.3-1.9,0c-0.3-0.2-0.4-0.4-0.4-0.6V6.5H16z"/>
			<path class="st84" d="M15.6,7.1c-0.5,0.3-1.4,0.3-1.9,0c-0.5-0.3-0.5-0.8,0-1.1c0.5-0.3,1.4-0.3,1.9,0
				C16.2,6.3,16.2,6.8,15.6,7.1z"/>
			<path class="st83" d="M15.3,6.1c-0.4-0.2-1-0.2-1.3,0c-0.4,0.2-0.4,0.6,0,0.8c0.4,0.2,1,0.2,1.3,0C15.7,6.7,15.7,6.3,15.3,6.1z
				 M15.1,6.8c-0.3,0.2-0.7,0.2-0.9,0c-0.3-0.2-0.3-0.4,0-0.5c0.3-0.2,0.7-0.2,0.9,0C15.4,6.4,15.4,6.6,15.1,6.8z"/>
		</g>
	</g>
</g>
<g id="Layer_2">
</g>
</svg>
