<?xml version="1.0" encoding="utf-8"?>
<!-- Generator: Adobe Illustrator 24.2.1, SVG Export Plug-In . SVG Version: 6.00 Build 0)  -->
<svg version="1.1" id="Layer_1" xmlns="http://www.w3.org/2000/svg" xmlns:xlink="http://www.w3.org/1999/xlink" x="0px" y="0px"
	 viewBox="0 0 170.1 170.1" style="enable-background:new 0 0 170.1 170.1;" xml:space="preserve">
<style type="text/css">
	.st0{fill:#4D4D4D;}
</style>
<g>
	<path class="st0" d="M124.1,63h-6.8c-0.9,0-1.7,0.8-1.7,1.7v1.7h-10.2V63c1.9,0,3.4-1.5,3.4-3.4v-5.1c0-1.9-1.5-3.4-3.4-3.4h-6.8
		v-3.4c1.9,0,3.4-1.5,3.4-3.4v-6.8c0-1.9-1.5-3.4-3.4-3.4H71.4c-1.9,0-3.4,1.5-3.4,3.4v6.8c0,1.9,1.5,3.4,3.4,3.4V63h-17
		c0-0.9-0.8-1.7-1.7-1.7H46c-0.9,0-1.7,0.8-1.7,1.7v37.4c0,0.9,0.8,1.7,1.7,1.7h6.8c0.9,0,1.7-0.8,1.7-1.7h10.2v9.8
		c0,5,3.6,9.2,8.5,10.1l11.9,2v2c0,2.8,2.3,5.1,5.1,5.1l0,0v3.4c0,1.9,1.5,3.4,3.4,3.4h3.4c1.9,0,3.4-1.5,3.4-3.4v-3.4
		c2.8,0,5.1-2.3,5.1-5.1l0,0V96.9h10.2v1.7c0,0.9,0.8,1.7,1.7,1.7h6.8c0.9,0,1.7-0.8,1.7-1.7v-34C125.8,63.7,125.1,63,124.1,63z
		 M83.3,85h-8.5v-6.8h6.8c0.9,0,1.7,0.8,1.7,1.7V85z M73.1,88.4h23.8c2.8,0,5.1,2.3,5.1,5.1v3.4H68v-3.4
		C68,90.7,70.3,88.4,73.1,88.4z M102,68v18.7c-1-0.8-2.2-1.3-3.4-1.6V63h3.4V68z M105.4,59.6H95.2v-5.1h10.2V59.6z M71.4,37.5h27.2
		v6.8h-5.1v-3.4h-3.4v3.4h-3.4v-3.4h-3.4v3.4h-3.4v-3.4h-3.4v3.4h-5.1V37.5z M95.2,47.7v3.4c-1.9,0-3.4,1.5-3.4,3.4v5.1
		c0,1.9,1.5,3.4,3.4,3.4V85h-8.5v-5.1c0-2.8-2.3-5.1-5.1-5.1h-6.8V47.7H95.2z M47.7,98.6v-34h3.4v34H47.7z M54.5,66.3h17v18.9
		c-4,0.8-6.8,4.3-6.8,8.3v3.4H54.5V66.3z M96.9,132.6h-3.4v-3.4h3.4V132.6z M102,124.1c0,0.9-0.8,1.7-1.7,1.7H90.1
		c-0.9,0-1.7-0.8-1.7-1.7v-3.4c0-0.8-0.6-1.5-1.4-1.7l-13.3-2.2c-3.3-0.5-5.7-3.4-5.7-6.7v-9.8h34V124.1z M105.4,93.5V69.7h10.2
		v23.8H105.4z M122.4,96.9H119V66.3h3.4V96.9z"/>
	<path class="st0" d="M85,71.4c2.8,0,5.1-2.3,5.1-5.1c0-2.8-2.3-5.1-5.1-5.1s-5.1,2.3-5.1,5.1C79.9,69.2,82.2,71.4,85,71.4z
		 M85,64.7c0.9,0,1.7,0.8,1.7,1.7c0,0.9-0.8,1.7-1.7,1.7c-0.9,0-1.7-0.8-1.7-1.7C83.3,65.4,84.1,64.7,85,64.7z"/>
	<rect x="83.3" y="52.8" class="st0" width="3.4" height="3.4"/>
</g>
</svg>
