<?xml version="1.0" encoding="utf-8"?>
<!-- Generator: Adobe Illustrator 24.2.1, SVG Export Plug-In . SVG Version: 6.00 Build 0)  -->
<svg version="1.1" id="Layer_1" xmlns="http://www.w3.org/2000/svg" xmlns:xlink="http://www.w3.org/1999/xlink" x="0px" y="0px"
	 viewBox="0 0 170.1 170.1" style="enable-background:new 0 0 170.1 170.1;" xml:space="preserve">
<style type="text/css">
	.st0{fill:#4D4D4D;}
</style>
<g>
	<path class="st0" d="M85,94.4c5.2,0,9.4-4.2,9.4-9.4c0-5.2-4.2-9.4-9.4-9.4c-5.2,0-9.4,4.2-9.4,9.4C75.7,90.2,79.9,94.4,85,94.4z
		 M79.4,85c0-3.1,2.5-5.6,5.6-5.6c3.1,0,5.6,2.5,5.6,5.6c0,3.1-2.5,5.6-5.6,5.6C81.9,90.7,79.4,88.1,79.4,85z"/>
	<path class="st0" d="M63.3,90.6c2.5,9.9,11.5,16.9,21.8,16.9c12.4,0,22.5-10.1,22.5-22.5c0-10.3-6.9-19.2-16.9-21.8
		c-1-0.3-2,0.3-2.3,1.4c-0.3,1,0.3,2,1.4,2.3C98,69,103.7,76.5,103.7,85c0,10.3-8.4,18.7-18.7,18.7c-8.6,0-16-5.8-18.1-14.1
		c-0.3-1-1.3-1.6-2.3-1.4C63.6,88.6,63,89.6,63.3,90.6z"/>
	<path class="st0" d="M90.1,45.6c-0.2,1,0.5,2,1.5,2.2c18.1,3.2,31.3,18.9,31.3,37.3c0,20.9-17,37.9-37.9,37.9
		c-18.4,0-34.1-13.2-37.3-31.3c-0.2-1-1.2-1.7-2.2-1.5c-1,0.2-1.7,1.2-1.5,2.2c3.5,19.9,20.7,34.4,41,34.4c23,0,41.6-18.7,41.6-41.6
		c0-20.3-14.5-37.5-34.4-41C91.3,43.9,90.3,44.5,90.1,45.6z"/>
	<path class="st0" d="M65.8,44L44,65.8c-0.4,0.4-0.6,0.8-0.6,1.3v12.4c0,0.5,0.2,1,0.6,1.3l6,6c2.5,2.5,6.6,2.5,9.2,0l2.7-2.7
		c0.3-0.3,0.5-0.7,0.5-1.2c1-11,9.6-19.7,20.6-20.6c0.4,0,0.9-0.2,1.2-0.5l2.7-2.7c1.2-1.2,1.9-2.9,1.9-4.6c0-1.7-0.7-3.4-1.9-4.6
		l-6-6c-0.4-0.4-0.8-0.6-1.3-0.6H67.1C66.6,43.4,66.2,43.6,65.8,44z M78.8,47.2l5.5,5.5c0.5,0.5,0.8,1.2,0.8,1.9
		c0,0.7-0.3,1.4-0.8,1.9L82,58.7c-12.3,1.4-21.9,11-23.3,23.3l-2.2,2.2C56,84.8,55.3,85,54.6,85s-1.4-0.3-1.9-0.8l-5.5-5.5V67.9
		l2.5-2.5l1.7,1.7c0.7,0.7,1.9,0.7,2.7,0c0.4-0.4,0.6-0.8,0.6-1.3c0-0.5-0.2-1-0.6-1.3l-1.7-1.7l3.8-3.8l1.7,1.7
		c0.7,0.7,1.9,0.7,2.7,0c0.4-0.4,0.6-0.8,0.6-1.3c0-0.5-0.2-1-0.6-1.3l-1.7-1.7l3.8-3.8l1.7,1.7c0.7,0.7,1.9,0.7,2.7,0
		c0.4-0.4,0.6-0.8,0.6-1.3s-0.2-1-0.6-1.3l-1.7-1.7l2.5-2.5H78.8z"/>
</g>
</svg>
