<?xml version="1.0" encoding="utf-8"?>
<!-- Generator: Adobe Illustrator 24.2.1, SVG Export Plug-In . SVG Version: 6.00 Build 0)  -->
<svg version="1.1" id="batteries" xmlns="http://www.w3.org/2000/svg" xmlns:xlink="http://www.w3.org/1999/xlink" x="0px" y="0px"
	 viewBox="0 0 28.3 28.3" style="enable-background:new 0 0 28.3 28.3;" xml:space="preserve">
<style type="text/css">
	.st0{opacity:0;fill:#FFFFFF;}
	.st1{opacity:3.030303e-02;fill:#FCFCFC;}
	.st2{opacity:6.060606e-02;fill:#F9F9F9;}
	.st3{opacity:9.090909e-02;fill:#F5F5F5;}
	.st4{opacity:0.1212;fill:#F2F2F2;}
	.st5{opacity:0.1515;fill:#EFEFEF;}
	.st6{opacity:0.1818;fill:#ECECEC;}
	.st7{opacity:0.2121;fill:#E8E8E8;}
	.st8{opacity:0.2424;fill:#E5E5E5;}
	.st9{opacity:0.2727;fill:#E2E2E2;}
	.st10{opacity:0.303;fill:#DFDFDF;}
	.st11{opacity:0.3333;fill:#DBDBDB;}
	.st12{opacity:0.3636;fill:#D8D8D8;}
	.st13{opacity:0.3939;fill:#D5D5D5;}
	.st14{opacity:0.4242;fill:#D2D2D2;}
	.st15{opacity:0.4545;fill:#CECECE;}
	.st16{opacity:0.4848;fill:#CBCBCB;}
	.st17{opacity:0.5152;fill:#C8C8C8;}
	.st18{opacity:0.5455;fill:#C5C5C5;}
	.st19{opacity:0.5758;fill:#C1C1C1;}
	.st20{opacity:0.6061;fill:#BEBEBE;}
	.st21{opacity:0.6364;fill:#BBBBBB;}
	.st22{opacity:0.6667;fill:#B8B8B8;}
	.st23{opacity:0.697;fill:#B4B4B4;}
	.st24{opacity:0.7273;fill:#B1B1B1;}
	.st25{opacity:0.7576;fill:#AEAEAE;}
	.st26{opacity:0.7879;fill:#ABABAB;}
	.st27{opacity:0.8182;fill:#A7A7A7;}
	.st28{opacity:0.8485;fill:#A4A4A4;}
	.st29{opacity:0.8788;fill:#A1A1A1;}
	.st30{opacity:0.9091;fill:#9E9E9E;}
	.st31{opacity:0.9394;fill:#9A9A9A;}
	.st32{opacity:0.9697;fill:#979797;}
	.st33{fill:#949494;}
	.st34{fill:#2E2E2E;}
	.st35{fill:url(#SVGID_1_);}
	.st36{fill:#37384F;}
	.st37{clip-path:url(#SVGID_3_);}
	.st38{opacity:3.030303e-02;fill:#F8F8F8;}
	.st39{opacity:6.060606e-02;fill:#F1F1F1;}
	.st40{opacity:9.090909e-02;fill:#E9E9EA;}
	.st41{opacity:0.1212;fill:#E2E2E3;}
	.st42{opacity:0.1515;fill:#DBDBDC;}
	.st43{opacity:0.1818;fill:#D4D4D6;}
	.st44{opacity:0.2121;fill:#CDCDCF;}
	.st45{opacity:0.2424;fill:#C5C5C8;}
	.st46{opacity:0.2727;fill:#BEBEC1;}
	.st47{opacity:0.303;fill:#B7B7BA;}
	.st48{opacity:0.3333;fill:#B0B0B3;}
	.st49{opacity:0.3636;fill:#A8A8AC;}
	.st50{opacity:0.3939;fill:#A1A1A5;}
	.st51{opacity:0.4242;fill:#9A9A9E;}
	.st52{opacity:0.4545;fill:#939397;}
	.st53{opacity:0.4848;fill:#8C8C90;}
	.st54{opacity:0.5152;fill:#84848A;}
	.st55{opacity:0.5455;fill:#7D7D83;}
	.st56{opacity:0.5758;fill:#76767C;}
	.st57{opacity:0.6061;fill:#6F6F75;}
	.st58{opacity:0.6364;fill:#68686E;}
	.st59{opacity:0.6667;fill:#606067;}
	.st60{opacity:0.697;fill:#595960;}
	.st61{opacity:0.7273;fill:#525259;}
	.st62{opacity:0.7576;fill:#4B4B52;}
	.st63{opacity:0.7879;fill:#43434B;}
	.st64{opacity:0.8182;fill:#3C3C44;}
	.st65{opacity:0.8485;fill:#35353E;}
	.st66{opacity:0.8788;fill:#2E2E37;}
	.st67{opacity:0.9091;fill:#272730;}
	.st68{opacity:0.9394;fill:#1F1F29;}
	.st69{opacity:0.9697;fill:#181822;}
	.st70{fill:#11111B;}
	.st71{fill:#BDBDBD;}
	.st72{fill:#EDEDED;}
	.st73{fill:#F57525;}
	.st74{fill:#FF8E1D;}
	.st75{fill:#FFAA2B;}
	.st76{fill:#262626;}
	.st77{fill:#ABC700;}
	.st78{fill:#D6D6D6;}
	.st79{fill:url(#SVGID_4_);}
	.st80{fill:url(#SVGID_5_);}
</style>
<g>
	<g>
		<path class="st0" d="M24.1,12.9c-5.3-3.1-10.8-3.1-16.1,0l0,0c-2.6,1.5-4,3.1-4,4.6s1.3,3.1,4,4.6c5.3,3.1,10.8,3.1,16.1,0
			c2.6-1.5,4-3.1,4-4.6C28,16,26.7,14.5,24.1,12.9z"/>
		<path class="st1" d="M24,12.9c-5.3-3.1-10.8-3.1-16.1,0l0,0c-2.6,1.5-4,3.1-4,4.6s1.3,3.1,4,4.6c5.3,3.1,10.8,3.1,16.1,0
			c2.6-1.5,4-3.1,4-4.6C28,16,26.6,14.5,24,12.9z"/>
		<path class="st2" d="M23.9,12.9c-5.3-3.1-10.8-3.1-16.1,0l0,0c-2.6,1.5-4,3.1-4,4.6s1.3,3.1,4,4.6c5.3,3.1,10.8,3.1,16.1,0
			c2.6-1.5,4-3.1,4-4.6C27.9,16,26.6,14.5,23.9,12.9z"/>
		<path class="st3" d="M23.8,12.9c-5.3-3.1-10.8-3.1-16.1,0l0,0c-2.6,1.5-4,3.1-4,4.6s1.3,3.1,4,4.6c5.3,3.1,10.8,3.1,16.1,0
			c2.6-1.5,4-3.1,4-4.6C27.8,16,26.5,14.5,23.8,12.9z"/>
		<path class="st4" d="M23.8,12.9c-5.3-3.1-10.8-3.1-16.1,0l0,0c-2.6,1.5-4,3.1-4,4.6s1.3,3.1,4,4.6c5.3,3.1,10.8,3.1,16.1,0
			c2.6-1.5,4-3.1,4-4.6C27.7,16,26.4,14.5,23.8,12.9z"/>
		<path class="st5" d="M23.7,12.9c-5.3-3.1-10.8-3.1-16.1,0l0,0c-2.6,1.5-4,3.1-4,4.6s1.3,3.1,4,4.6c5.3,3.1,10.8,3.1,16.1,0
			c2.6-1.5,4-3.1,4-4.6C27.6,16,26.3,14.5,23.7,12.9z"/>
		<path class="st6" d="M23.6,12.9c-5.3-3.1-10.8-3.1-16.1,0l0,0c-2.6,1.5-4,3.1-4,4.6s1.3,3.1,4,4.6c5.3,3.1,10.8,3.1,16.1,0
			c2.6-1.5,4-3.1,4-4.6C27.6,16,26.2,14.5,23.6,12.9z"/>
		<path class="st7" d="M23.5,12.9c-5.3-3.1-10.8-3.1-16.1,0l0,0c-2.6,1.5-4,3.1-4,4.6s1.3,3.1,4,4.6c5.3,3.1,10.8,3.1,16.1,0
			c2.6-1.5,4-3.1,4-4.6C27.5,16,26.2,14.5,23.5,12.9z"/>
		<path class="st8" d="M23.4,12.9c-5.3-3.1-10.8-3.1-16.1,0l0,0c-2.6,1.5-4,3.1-4,4.6s1.3,3.1,4,4.6c5.3,3.1,10.8,3.1,16.1,0
			c2.6-1.5,4-3.1,4-4.6C27.4,16,26.1,14.5,23.4,12.9z"/>
		<path class="st9" d="M23.4,12.9c-5.3-3.1-10.8-3.1-16.1,0l0,0c-2.6,1.5-4,3.1-4,4.6s1.3,3.1,4,4.6c5.3,3.1,10.8,3.1,16.1,0
			c2.6-1.5,4-3.1,4-4.6C27.3,16,26,14.5,23.4,12.9z"/>
		<path class="st10" d="M23.3,12.9c-5.3-3.1-10.8-3.1-16.1,0l0,0c-2.6,1.5-4,3.1-4,4.6s1.3,3.1,4,4.6c5.3,3.1,10.8,3.1,16.1,0
			c2.6-1.5,4-3.1,4-4.6C27.2,16,25.9,14.5,23.3,12.9z"/>
		<path class="st11" d="M23.2,12.9c-5.3-3.1-10.8-3.1-16.1,0l0,0c-2.6,1.5-4,3.1-4,4.6s1.3,3.1,4,4.6c5.3,3.1,10.8,3.1,16.1,0
			c2.6-1.5,4-3.1,4-4.6C27.2,16,25.8,14.5,23.2,12.9z"/>
		<path class="st12" d="M23.1,12.9c-5.3-3.1-10.8-3.1-16.1,0l0,0c-2.6,1.5-4,3.1-4,4.6s1.3,3.1,4,4.6c5.3,3.1,10.8,3.1,16.1,0
			c2.6-1.5,4-3.1,4-4.6C27.1,16,25.8,14.5,23.1,12.9z"/>
		<path class="st13" d="M23,12.9c-5.3-3.1-10.8-3.1-16.1,0l0,0c-2.6,1.5-4,3.1-4,4.6s1.3,3.1,4,4.6c5.3,3.1,10.8,3.1,16.1,0
			c2.6-1.5,4-3.1,4-4.6C27,16,25.7,14.5,23,12.9z"/>
		<path class="st14" d="M23,12.9c-5.3-3.1-10.8-3.1-16.1,0l0,0c-2.6,1.5-4,3.1-4,4.6s1.3,3.1,4,4.6c5.3,3.1,10.8,3.1,16.1,0
			c2.6-1.5,4-3.1,4-4.6C26.9,16,25.6,14.5,23,12.9z"/>
		<path class="st15" d="M22.9,12.9c-5.3-3.1-10.8-3.1-16.1,0l0,0c-2.6,1.5-4,3.1-4,4.6s1.3,3.1,4,4.6c5.3,3.1,10.8,3.1,16.1,0
			c2.6-1.5,4-3.1,4-4.6C26.8,16,25.5,14.5,22.9,12.9z"/>
		<path class="st16" d="M22.8,12.9c-5.3-3.1-10.8-3.1-16.1,0l0,0c-2.6,1.5-4,3.1-4,4.6s1.3,3.1,4,4.6c5.3,3.1,10.8,3.1,16.1,0
			c2.6-1.5,4-3.1,4-4.6C26.8,16,25.4,14.5,22.8,12.9z"/>
		<path class="st17" d="M22.7,12.9c-5.3-3.1-10.8-3.1-16.1,0l0,0c-2.6,1.5-4,3.1-4,4.6s1.3,3.1,4,4.6c5.3,3.1,10.8,3.1,16.1,0
			c2.6-1.5,4-3.1,4-4.6C26.7,16,25.4,14.5,22.7,12.9z"/>
		<path class="st18" d="M22.6,12.9c-5.3-3.1-10.8-3.1-16.1,0l0,0c-2.6,1.5-4,3.1-4,4.6s1.3,3.1,4,4.6c5.3,3.1,10.8,3.1,16.1,0
			c2.6-1.5,4-3.1,4-4.6C26.6,16,25.3,14.5,22.6,12.9z"/>
		<path class="st19" d="M22.5,12.9c-5.3-3.1-10.8-3.1-16.1,0l0,0c-2.6,1.5-4,3.1-4,4.6s1.3,3.1,4,4.6c5.3,3.1,10.8,3.1,16.1,0
			c2.6-1.5,4-3.1,4-4.6C26.5,16,25.2,14.5,22.5,12.9z"/>
		<path class="st20" d="M22.5,12.9c-5.3-3.1-10.8-3.1-16.1,0l0,0c-2.6,1.5-4,3.1-4,4.6s1.3,3.1,4,4.6c5.3,3.1,10.8,3.1,16.1,0
			c2.6-1.5,4-3.1,4-4.6C26.4,16,25.1,14.5,22.5,12.9z"/>
		<path class="st21" d="M22.4,12.9c-5.3-3.1-10.8-3.1-16.1,0l0,0c-2.6,1.5-4,3.1-4,4.6s1.3,3.1,4,4.6c5.3,3.1,10.8,3.1,16.1,0
			c2.6-1.5,4-3.1,4-4.6C26.4,16,25,14.5,22.4,12.9z"/>
		<path class="st22" d="M22.3,12.9c-5.3-3.1-10.8-3.1-16.1,0l0,0c-2.6,1.5-4,3.1-4,4.6s1.3,3.1,4,4.6c5.3,3.1,10.8,3.1,16.1,0
			c2.6-1.5,4-3.1,4-4.6C26.3,16,25,14.5,22.3,12.9z"/>
		<path class="st23" d="M22.2,12.9c-5.3-3.1-10.8-3.1-16.1,0l0,0c-2.6,1.5-4,3.1-4,4.6s1.3,3.1,4,4.6c5.3,3.1,10.8,3.1,16.1,0
			c2.6-1.5,4-3.1,4-4.6C26.2,16,24.9,14.5,22.2,12.9z"/>
		<path class="st24" d="M22.1,12.9c-5.3-3.1-10.8-3.1-16.1,0l0,0c-2.6,1.5-4,3.1-4,4.6s1.3,3.1,4,4.6c5.3,3.1,10.8,3.1,16.1,0
			c2.6-1.5,4-3.1,4-4.6C26.1,16,24.8,14.5,22.1,12.9z"/>
		<path class="st25" d="M22.1,12.9c-5.3-3.1-10.8-3.1-16.1,0l0,0c-2.6,1.5-4,3.1-4,4.6s1.3,3.1,4,4.6c5.3,3.1,10.8,3.1,16.1,0
			c2.6-1.5,4-3.1,4-4.6C26,16,24.7,14.5,22.1,12.9z"/>
		<path class="st26" d="M22,12.9c-5.3-3.1-10.8-3.1-16.1,0l0,0c-2.6,1.5-4,3.1-4,4.6s1.3,3.1,4,4.6c5.3,3.1,10.8,3.1,16.1,0
			c2.6-1.5,4-3.1,4-4.6C26,16,24.6,14.5,22,12.9z"/>
		<path class="st27" d="M21.9,12.9c-5.3-3.1-10.8-3.1-16.1,0l0,0c-2.6,1.5-4,3.1-4,4.6s1.3,3.1,4,4.6c5.3,3.1,10.8,3.1,16.1,0
			c2.6-1.5,4-3.1,4-4.6C25.9,16,24.6,14.5,21.9,12.9z"/>
		<path class="st28" d="M21.8,12.9c-5.3-3.1-10.8-3.1-16.1,0l0,0c-2.6,1.5-4,3.1-4,4.6s1.3,3.1,4,4.6c5.3,3.1,10.8,3.1,16.1,0
			c2.6-1.5,4-3.1,4-4.6C25.8,16,24.5,14.5,21.8,12.9z"/>
		<path class="st29" d="M21.7,12.9c-5.3-3.1-10.8-3.1-16.1,0l0,0c-2.6,1.5-4,3.1-4,4.6s1.3,3.1,4,4.6c5.3,3.1,10.8,3.1,16.1,0
			c2.6-1.5,4-3.1,4-4.6C25.7,16,24.4,14.5,21.7,12.9z"/>
		<path class="st30" d="M21.7,12.9c-5.3-3.1-10.8-3.1-16.1,0l0,0c-2.6,1.5-4,3.1-4,4.6s1.3,3.1,4,4.6c5.3,3.1,10.8,3.1,16.1,0
			c2.6-1.5,4-3.1,4-4.6C25.6,16,24.3,14.5,21.7,12.9z"/>
		<path class="st31" d="M21.6,12.9c-5.3-3.1-10.8-3.1-16.1,0l0,0c-2.6,1.5-4,3.1-4,4.6s1.3,3.1,4,4.6c5.3,3.1,10.8,3.1,16.1,0
			c2.6-1.5,4-3.1,4-4.6C25.6,16,24.2,14.5,21.6,12.9z"/>
		<path class="st32" d="M21.5,12.9c-5.3-3.1-10.8-3.1-16.1,0l0,0c-2.6,1.5-4,3.1-4,4.6s1.3,3.1,4,4.6c5.3,3.1,10.8,3.1,16.1,0
			c2.6-1.5,4-3.1,4-4.6C25.5,16,24.2,14.5,21.5,12.9z"/>
		<path class="st33" d="M21.4,12.9c-5.3-3.1-10.8-3.1-16.1,0l0,0c-2.6,1.5-4,3.1-4,4.6s1.3,3.1,4,4.6c5.3,3.1,10.8,3.1,16.1,0
			c2.6-1.5,4-3.1,4-4.6C25.4,16,24.1,14.5,21.4,12.9z"/>
	</g>
	<g>
		<path class="st34" d="M21.4,12.9c-5.3-3.1-10.8-3.1-16.1,0v0c-2.6,1.5-4,3.1-4,4.6s1.3,3.1,4,4.6c5.3,3.1,10.8,3.1,16.1,0
			c2.6-1.5,4-3.1,4-4.6S24.1,14.5,21.4,12.9z"/>
		<linearGradient id="SVGID_1_" gradientUnits="userSpaceOnUse" x1="1.402" y1="19.8761" x2="25.3953" y2="19.8761">
			<stop  offset="0" style="stop-color:#545770"/>
			<stop  offset="9.538691e-02" style="stop-color:#50536B"/>
			<stop  offset="0.2996" style="stop-color:#4E5168"/>
			<stop  offset="0.3775" style="stop-color:#464960"/>
			<stop  offset="0.587" style="stop-color:#353850"/>
			<stop  offset="0.7441" style="stop-color:#2F324A"/>
			<stop  offset="1" style="stop-color:#20233D"/>
		</linearGradient>
		<path class="st35" d="M21.4,19.9c-5.3,3.1-10.8,3.1-16.1,0c-2.6-1.5-4-3.1-4-4.6v2.3c0,1.6,1.3,3.1,4,4.6c5.3,3.1,10.8,3.1,16.1,0
			c2.6-1.5,4-3.1,4-4.6v-2.3C25.4,16.8,24.1,18.4,21.4,19.9z"/>
		<path class="st36" d="M21.4,10.6c-5.3-3.1-10.8-3.1-16.1,0l0,0c-2.6,1.5-4,3.1-4,4.6s1.3,3.1,4,4.6c5.3,3.1,10.8,3.1,16.1,0
			c2.6-1.5,4-3.1,4-4.6C25.4,13.7,24.1,12.2,21.4,10.6z"/>
	</g>
	<g>
		<defs>
			<path id="SVGID_2_" d="M21.4,10.6c-5.3-3.1-10.8-3.1-16.1,0l0,0c-2.6,1.5-4,3.1-4,4.6s1.3,3.1,4,4.6c5.3,3.1,10.8,3.1,16.1,0
				c2.6-1.5,4-3.1,4-4.6C25.4,13.7,24.1,12.2,21.4,10.6z"/>
		</defs>
		<clipPath id="SVGID_3_">
			<use xlink:href="#SVGID_2_"  style="overflow:visible;"/>
		</clipPath>
		<g class="st37">
			<polygon class="st0" points="16.7,15 24.3,19.4 30.1,16 30.1,10.8 30.5,10.6 30.5,8.2 22.4,3.5 16.2,7.1 16.2,9.5 16.7,9.8 			
				"/>
			<polygon class="st38" points="16.4,15 24,19.4 29.8,16 29.8,10.8 30.2,10.6 30.2,8.2 22.1,3.5 15.9,7.1 15.9,9.5 16.4,9.8 			"/>
			<polygon class="st39" points="16.1,15 23.7,19.4 29.5,16 29.5,10.8 29.9,10.6 29.9,8.2 21.8,3.5 15.6,7.1 15.6,9.5 16.1,9.8 			
				"/>
			<polygon class="st40" points="15.8,15 23.4,19.4 29.1,16 29.1,10.8 29.6,10.6 29.6,8.2 21.5,3.5 15.3,7.1 15.3,9.5 15.8,9.8 			
				"/>
			<polygon class="st41" points="15.5,15 23.1,19.4 28.8,16 28.8,10.8 29.3,10.6 29.3,8.2 21.2,3.5 15,7.1 15,9.5 15.5,9.8 			"/>
			<polygon class="st42" points="15.2,15 22.8,19.4 28.5,16 28.5,10.8 29,10.6 29,8.2 20.9,3.5 14.7,7.1 14.7,9.5 15.2,9.8 			"/>
			<polygon class="st43" points="14.9,15 22.5,19.4 28.2,16 28.2,10.8 28.7,10.6 28.7,8.2 20.6,3.5 14.4,7.1 14.4,9.5 14.9,9.8 			
				"/>
			<polygon class="st44" points="14.6,15 22.2,19.4 27.9,16 27.9,10.8 28.4,10.6 28.4,8.2 20.3,3.5 14.1,7.1 14.1,9.5 14.6,9.8 			
				"/>
			<polygon class="st45" points="14.3,15 21.9,19.4 27.6,16 27.6,10.8 28.1,10.6 28.1,8.2 20,3.5 13.8,7.1 13.8,9.5 14.3,9.8 			"/>
			<polygon class="st46" points="14,15 21.6,19.4 27.3,16 27.3,10.8 27.8,10.6 27.8,8.2 19.7,3.5 13.5,7.1 13.5,9.5 14,9.8 			"/>
			<polygon class="st47" points="13.7,15 21.3,19.4 27,16 27,10.8 27.5,10.6 27.5,8.2 19.4,3.5 13.2,7.1 13.2,9.5 13.7,9.8 			"/>
			<polygon class="st48" points="13.4,15 21,19.4 26.7,16 26.7,10.8 27.2,10.6 27.2,8.2 19.1,3.5 12.9,7.1 12.9,9.5 13.4,9.8 			"/>
			<polygon class="st49" points="13.1,15 20.7,19.4 26.4,16 26.4,10.8 26.9,10.6 26.9,8.2 18.8,3.5 12.6,7.1 12.6,9.5 13.1,9.8 			
				"/>
			<polygon class="st50" points="12.8,15 20.4,19.4 26.1,16 26.1,10.8 26.6,10.6 26.6,8.2 18.5,3.5 12.3,7.1 12.3,9.5 12.8,9.8 			
				"/>
			<polygon class="st51" points="12.5,15 20.1,19.4 25.8,16 25.8,10.8 26.3,10.6 26.3,8.2 18.2,3.5 12,7.1 12,9.5 12.5,9.8 			"/>
			<polygon class="st52" points="12.2,15 19.8,19.4 25.5,16 25.5,10.8 26,10.6 26,8.2 17.9,3.5 11.7,7.1 11.7,9.5 12.2,9.8 			"/>
			<polygon class="st53" points="11.9,15 19.5,19.4 25.2,16 25.2,10.8 25.7,10.6 25.7,8.2 17.6,3.5 11.4,7.1 11.4,9.5 11.9,9.8 			
				"/>
			<polygon class="st54" points="11.6,15 19.2,19.4 24.9,16 24.9,10.8 25.4,10.6 25.4,8.2 17.3,3.5 11.1,7.1 11.1,9.5 11.6,9.8 			
				"/>
			<polygon class="st55" points="11.3,15 18.9,19.4 24.6,16 24.6,10.8 25.1,10.6 25.1,8.2 17,3.5 10.8,7.1 10.8,9.5 11.3,9.8 			"/>
			<polygon class="st56" points="11,15 18.6,19.4 24.3,16 24.3,10.8 24.8,10.6 24.8,8.2 16.7,3.5 10.5,7.1 10.5,9.5 11,9.8 			"/>
			<polygon class="st57" points="10.7,15 18.3,19.4 24,16 24,10.8 24.5,10.6 24.5,8.2 16.4,3.5 10.2,7.1 10.2,9.5 10.7,9.8 			"/>
			<polygon class="st58" points="10.3,15 18,19.4 23.7,16 23.7,10.8 24.2,10.6 24.2,8.2 16.1,3.5 9.9,7.1 9.9,9.5 10.3,9.8 			"/>
			<polygon class="st59" points="10,15 17.7,19.4 23.4,16 23.4,10.8 23.9,10.6 23.9,8.2 15.8,3.5 9.6,7.1 9.6,9.5 10,9.8 			"/>
			<polygon class="st60" points="9.7,15 17.4,19.4 23.1,16 23.1,10.8 23.6,10.6 23.6,8.2 15.5,3.5 9.2,7.1 9.2,9.5 9.7,9.8 			"/>
			<polygon class="st61" points="9.4,15 17.1,19.4 22.8,16 22.8,10.8 23.3,10.6 23.3,8.2 15.2,3.5 8.9,7.1 8.9,9.5 9.4,9.8 			"/>
			<polygon class="st62" points="9.1,15 16.8,19.4 22.5,16 22.5,10.8 23,10.6 23,8.2 14.9,3.5 8.6,7.1 8.6,9.5 9.1,9.8 			"/>
			<polygon class="st63" points="8.8,15 16.5,19.4 22.2,16 22.2,10.8 22.7,10.6 22.7,8.2 14.6,3.5 8.3,7.1 8.3,9.5 8.8,9.8 			"/>
			<polygon class="st64" points="8.5,15 16.2,19.4 21.9,16 21.9,10.8 22.4,10.6 22.4,8.2 14.3,3.5 8,7.1 8,9.5 8.5,9.8 			"/>
			<polygon class="st65" points="8.2,15 15.9,19.4 21.6,16 21.6,10.8 22.1,10.6 22.1,8.2 14,3.5 7.7,7.1 7.7,9.5 8.2,9.8 			"/>
			<polygon class="st66" points="7.9,15 15.5,19.4 21.3,16 21.3,10.8 21.8,10.6 21.8,8.2 13.7,3.5 7.4,7.1 7.4,9.5 7.9,9.8 			"/>
			<polygon class="st67" points="7.6,15 15.2,19.4 21,16 21,10.8 21.5,10.6 21.5,8.2 13.4,3.5 7.1,7.1 7.1,9.5 7.6,9.8 			"/>
			<polygon class="st68" points="7.3,15 14.9,19.4 20.7,16 20.7,10.8 21.2,10.6 21.2,8.2 13.1,3.5 6.8,7.1 6.8,9.5 7.3,9.8 			"/>
			<polygon class="st69" points="7,15 14.6,19.4 20.4,16 20.4,10.8 20.9,10.6 20.9,8.2 12.8,3.5 6.5,7.1 6.5,9.5 7,9.8 			"/>
			<polygon class="st70" points="6.7,15 14.3,19.4 20.1,16 20.1,10.8 20.6,10.6 20.6,8.2 12.5,3.5 6.2,7.1 6.2,9.5 6.7,9.8 			"/>
		</g>
	</g>
	<g>
		<g>
			<g>
				<g>
					<polygon class="st71" points="20.1,10 20.1,16 14.3,19.4 14.3,13.4 					"/>
					<polygon class="st72" points="14.3,13.4 14.3,19.4 6.7,15 6.7,9 					"/>
				</g>
				<g>
					<polygon class="st73" points="20.6,8.2 20.6,10.6 14.3,14.2 14.3,11.8 					"/>
					<polygon class="st74" points="14.3,11.8 14.3,14.2 6.2,9.5 6.2,7.1 					"/>
					<polygon class="st75" points="6.2,7.1 12.5,3.5 20.6,8.2 14.3,11.8 					"/>
				</g>
			</g>
		</g>
		<g>
			<g>
				<g>
					<g>
						<polygon class="st76" points="12,16.2 9,14.5 9,12.4 12,14.2 						"/>
						<g>
							<polygon class="st77" points="10,14.6 9.4,14.3 9.4,13.1 10,13.4 							"/>
							<polygon class="st77" points="10.8,15.1 10.2,14.7 10.2,13.5 10.8,13.9 							"/>
							<polygon class="st77" points="11.6,15.6 11,15.2 11,14 11.6,14.4 							"/>
						</g>
					</g>
					<g>
						<polygon class="st78" points="13.8,16.3 12.6,15.7 12.6,15.3 13.8,16 						"/>
						<polygon class="st78" points="8.4,12.9 8,12.7 8,12.2 7.7,12 7.7,12.5 7.3,12.2 7.3,12.6 7.7,12.8 7.7,13.3 8,13.5 8,13 
							8.4,13.2 						"/>
					</g>
				</g>
			</g>
		</g>
		<g>
			<g>
				
					<linearGradient id="SVGID_4_" gradientUnits="userSpaceOnUse" x1="9.3184" y1="10.273" x2="11.0355" y2="10.273" gradientTransform="matrix(1 0 0 1 1.1064 -4.129)">
					<stop  offset="0" style="stop-color:#383838"/>
					<stop  offset="9.571359e-02" style="stop-color:#3D3B3C"/>
					<stop  offset="0.3006" style="stop-color:#403D3E"/>
					<stop  offset="0.3969" style="stop-color:#333031"/>
					<stop  offset="0.6347" style="stop-color:#171616"/>
					<stop  offset="0.8436" style="stop-color:#060606"/>
					<stop  offset="1" style="stop-color:#000000"/>
				</linearGradient>
				<path class="st79" d="M11.3,5.9c-0.5,0-0.9-0.2-0.9-0.5v1c0,0.3,0.4,0.5,0.9,0.5c0.5,0,0.9-0.2,0.9-0.5v-1
					C12.1,5.7,11.8,5.9,11.3,5.9z"/>
				<path class="st76" d="M11.3,5.9c-0.5,0-0.9-0.2-0.9-0.5c0-0.3,0.4-0.5,0.9-0.5c0.5,0,0.9,0.2,0.9,0.5
					C12.1,5.7,11.8,5.9,11.3,5.9z"/>
			</g>
			<g>
				
					<linearGradient id="SVGID_5_" gradientUnits="userSpaceOnUse" x1="13.549" y1="12.7154" x2="15.2661" y2="12.7154" gradientTransform="matrix(1 0 0 1 1.1064 -4.129)">
					<stop  offset="0" style="stop-color:#383838"/>
					<stop  offset="9.571359e-02" style="stop-color:#3D3B3C"/>
					<stop  offset="0.3006" style="stop-color:#403D3E"/>
					<stop  offset="0.3969" style="stop-color:#333031"/>
					<stop  offset="0.6347" style="stop-color:#171616"/>
					<stop  offset="0.8436" style="stop-color:#060606"/>
					<stop  offset="1" style="stop-color:#000000"/>
				</linearGradient>
				<path class="st80" d="M15.5,8.3c-0.5,0-0.9-0.2-0.9-0.5v1c0,0.3,0.4,0.5,0.9,0.5c0.5,0,0.9-0.2,0.9-0.5v-1
					C16.4,8.1,16,8.3,15.5,8.3z"/>
				<path class="st76" d="M15.5,8.3c-0.5,0-0.9-0.2-0.9-0.5c0-0.3,0.4-0.5,0.9-0.5c0.5,0,0.9,0.2,0.9,0.5C16.4,8.1,16,8.3,15.5,8.3z
					"/>
			</g>
		</g>
	</g>
</g>
</svg>
