<?xml version="1.0" encoding="utf-8"?>
<!-- Generator: Adobe Illustrator 24.2.1, SVG Export Plug-In . SVG Version: 6.00 Build 0)  -->
<svg version="1.1" id="Layer_1" xmlns="http://www.w3.org/2000/svg" xmlns:xlink="http://www.w3.org/1999/xlink" x="0px" y="0px"
	 viewBox="0 0 170.1 170.1" style="enable-background:new 0 0 170.1 170.1;" xml:space="preserve">
<style type="text/css">
	.st0{fill:#4D4D4D;}
</style>
<g>
	<path class="st0" d="M125.6,116.8l-6.9-3c-0.6-6.7-6.3-11.9-13.1-11.9H91.9V83.4c1.5-3.8,10.2-25.5,10.2-31.1c0-6.6-5.4-12-12-12
		H80c-6.6,0-12,5.4-12,12c0,5.7,8.9,28.2,10.2,31.3v18.3H64.6c-6.8,0-12.5,5.2-13.1,11.9l-6.9,3c-0.7,0.3-1.1,1-1.1,1.7v9.4
		c0,1,0.8,1.9,1.9,1.9h79.5c1,0,1.9-0.8,1.9-1.9v-9.4C126.7,117.8,126.2,117.1,125.6,116.8z M80,44h10.1c4.5,0,8.2,3.7,8.2,8.2
		c0,3.7-5.5,18.8-9.6,28.9h-7.6c-4-10-9.5-25.2-9.5-28.9C71.7,47.7,75.4,44,80,44z M81.9,84.9h6.3v17h-6.3V84.9z M122.9,126H47.2
		v-6.3l6.8-3c0.7-0.3,1.1-1,1.1-1.7c0-5.2,4.2-9.4,9.4-9.4h41c5.2,0,9.4,4.2,9.4,9.4c0,0.7,0.4,1.4,1.1,1.7l6.8,3V126z"/>
	<path class="st0" d="M82.8,64.5h4.5c1,0,1.9-0.8,1.9-1.9s-0.8-1.9-1.9-1.9h-4.5c-1,0-1.9,0.8-1.9,1.9S81.8,64.5,82.8,64.5z"/>
	<path class="st0" d="M91.7,52.5c0-1-0.8-1.9-1.9-1.9h-9.5c-1,0-1.9,0.8-1.9,1.9c0,1,0.8,1.9,1.9,1.9h9.5
		C90.8,54.4,91.7,53.6,91.7,52.5z"/>
	<path class="st0" d="M101.3,116H68.8c-1,0-1.9,0.8-1.9,1.9s0.8,1.9,1.9,1.9h32.4c1,0,1.9-0.8,1.9-1.9S102.3,116,101.3,116z"/>
</g>
</svg>
