<?xml version="1.0" encoding="utf-8"?>
<!-- Generator: Adobe Illustrator 24.2.1, SVG Export Plug-In . SVG Version: 6.00 Build 0)  -->
<svg version="1.1" id="Layer_3" xmlns="http://www.w3.org/2000/svg" xmlns:xlink="http://www.w3.org/1999/xlink" x="0px" y="0px"
	 viewBox="0 0 28.3 28.3" style="enable-background:new 0 0 28.3 28.3;" xml:space="preserve">
<style type="text/css">
	.st0{opacity:0;fill:#FFFFFF;}
	.st1{opacity:3.030303e-02;fill:#FCFCFC;}
	.st2{opacity:6.060606e-02;fill:#F9F9F9;}
	.st3{opacity:9.090909e-02;fill:#F5F5F5;}
	.st4{opacity:0.1212;fill:#F2F2F2;}
	.st5{opacity:0.1515;fill:#EFEFEF;}
	.st6{opacity:0.1818;fill:#ECECEC;}
	.st7{opacity:0.2121;fill:#E8E8E8;}
	.st8{opacity:0.2424;fill:#E5E5E5;}
	.st9{opacity:0.2727;fill:#E2E2E2;}
	.st10{opacity:0.303;fill:#DFDFDF;}
	.st11{opacity:0.3333;fill:#DBDBDB;}
	.st12{opacity:0.3636;fill:#D8D8D8;}
	.st13{opacity:0.3939;fill:#D5D5D5;}
	.st14{opacity:0.4242;fill:#D2D2D2;}
	.st15{opacity:0.4545;fill:#CECECE;}
	.st16{opacity:0.4848;fill:#CBCBCB;}
	.st17{opacity:0.5152;fill:#C8C8C8;}
	.st18{opacity:0.5455;fill:#C5C5C5;}
	.st19{opacity:0.5758;fill:#C1C1C1;}
	.st20{opacity:0.6061;fill:#BEBEBE;}
	.st21{opacity:0.6364;fill:#BBBBBB;}
	.st22{opacity:0.6667;fill:#B8B8B8;}
	.st23{opacity:0.697;fill:#B4B4B4;}
	.st24{opacity:0.7273;fill:#B1B1B1;}
	.st25{opacity:0.7576;fill:#AEAEAE;}
	.st26{opacity:0.7879;fill:#ABABAB;}
	.st27{opacity:0.8182;fill:#A7A7A7;}
	.st28{opacity:0.8485;fill:#A4A4A4;}
	.st29{opacity:0.8788;fill:#A1A1A1;}
	.st30{opacity:0.9091;fill:#9E9E9E;}
	.st31{opacity:0.9394;fill:#9A9A9A;}
	.st32{opacity:0.9697;fill:#979797;}
	.st33{fill:#949494;}
	.st34{fill:#ABCF00;}
	.st35{fill:url(#SVGID_1_);}
	.st36{fill:#FFDB32;}
	.st37{clip-path:url(#SVGID_3_);}
	.st38{opacity:3.030303e-02;fill:#FFFDF8;}
	.st39{opacity:6.060606e-02;fill:#FFFBF0;}
	.st40{opacity:9.090909e-02;fill:#FFF9E9;}
	.st41{opacity:0.1212;fill:#FFF7E2;}
	.st42{opacity:0.1515;fill:#FFF5DB;}
	.st43{opacity:0.1818;fill:#FFF2D3;}
	.st44{opacity:0.2121;fill:#FFF0CC;}
	.st45{opacity:0.2424;fill:#FFEEC5;}
	.st46{opacity:0.2727;fill:#FFECBE;}
	.st47{opacity:0.303;fill:#FFEAB6;}
	.st48{opacity:0.3333;fill:#FFE8AF;}
	.st49{opacity:0.3636;fill:#FFE6A8;}
	.st50{opacity:0.3939;fill:#FFE4A0;}
	.st51{opacity:0.4242;fill:#FFE299;}
	.st52{opacity:0.4545;fill:#FFE092;}
	.st53{opacity:0.4848;fill:#FFDE8B;}
	.st54{opacity:0.5152;fill:#FFDB83;}
	.st55{opacity:0.5455;fill:#FFD97C;}
	.st56{opacity:0.5758;fill:#FFD775;}
	.st57{opacity:0.6061;fill:#FFD56E;}
	.st58{opacity:0.6364;fill:#FFD366;}
	.st59{opacity:0.6667;fill:#FFD15F;}
	.st60{opacity:0.697;fill:#FFCF58;}
	.st61{opacity:0.7273;fill:#FFCD50;}
	.st62{opacity:0.7576;fill:#FFCB49;}
	.st63{opacity:0.7879;fill:#FFC942;}
	.st64{opacity:0.8182;fill:#FFC73B;}
	.st65{opacity:0.8485;fill:#FFC433;}
	.st66{opacity:0.8788;fill:#FFC22C;}
	.st67{opacity:0.9091;fill:#FFC025;}
	.st68{opacity:0.9394;fill:#FFBE1E;}
	.st69{opacity:0.9697;fill:#FFBC16;}
	.st70{fill:#FFBA0F;}
	.st71{fill:url(#SVGID_4_);}
	.st72{fill:#262626;}
	.st73{fill:url(#SVGID_5_);}
	.st74{fill:#454545;}
	.st75{fill:url(#SVGID_6_);}
	.st76{fill:url(#SVGID_7_);}
	.st77{fill:url(#SVGID_8_);}
	.st78{fill:url(#SVGID_9_);}
	.st79{fill:#404040;}
	.st80{fill:#CCCCCC;}
</style>
<g>
	<g>
		<path class="st0" d="M23.1,13C17.8,9.9,12.3,9.9,7,13l0,0c-2.6,1.5-4,3.1-4,4.6s1.3,3.1,4,4.6c5.3,3.1,10.8,3.1,16.1,0
			c2.6-1.5,4-3.1,4-4.6C27,16,25.7,14.5,23.1,13z"/>
		<path class="st1" d="M23,13c-5.3-3.1-10.8-3.1-16.1,0h0c-2.6,1.5-4,3.1-4,4.6s1.3,3.1,4,4.6c5.3,3.1,10.8,3.1,16.1,0
			c2.6-1.5,4-3.1,4-4.6C27,16,25.6,14.5,23,13z"/>
		<path class="st2" d="M23,13c-5.3-3.1-10.8-3.1-16.1,0h0c-2.6,1.5-4,3.1-4,4.6s1.3,3.1,4,4.6c5.3,3.1,10.8,3.1,16.1,0
			c2.6-1.5,4-3.1,4-4.6C26.9,16,25.6,14.5,23,13z"/>
		<path class="st3" d="M22.9,13c-5.3-3.1-10.8-3.1-16.1,0h0c-2.6,1.5-4,3.1-4,4.6s1.3,3.1,4,4.6c5.3,3.1,10.8,3.1,16.1,0
			c2.6-1.5,4-3.1,4-4.6C26.9,16,25.5,14.5,22.9,13z"/>
		<path class="st4" d="M22.9,13c-5.3-3.1-10.8-3.1-16.1,0h0c-2.6,1.5-4,3.1-4,4.6s1.3,3.1,4,4.6c5.3,3.1,10.8,3.1,16.1,0
			c2.6-1.5,4-3.1,4-4.6C26.8,16,25.5,14.5,22.9,13z"/>
		<path class="st5" d="M22.8,13C17.5,9.9,12,9.9,6.7,13h0c-2.6,1.5-4,3.1-4,4.6s1.3,3.1,4,4.6c5.3,3.1,10.8,3.1,16.1,0
			c2.6-1.5,4-3.1,4-4.6C26.8,16,25.4,14.5,22.8,13z"/>
		<path class="st6" d="M22.8,13C17.5,9.9,12,9.9,6.7,13h0c-2.6,1.5-4,3.1-4,4.6s1.3,3.1,4,4.6c5.3,3.1,10.8,3.1,16.1,0
			c2.6-1.5,4-3.1,4-4.6C26.7,16,25.4,14.5,22.8,13z"/>
		<path class="st7" d="M22.7,13c-5.3-3.1-10.8-3.1-16.1,0h0c-2.6,1.5-4,3.1-4,4.6s1.3,3.1,4,4.6c5.3,3.1,10.8,3.1,16.1,0
			c2.6-1.5,4-3.1,4-4.6C26.7,16,25.3,14.5,22.7,13z"/>
		<path class="st8" d="M22.7,13c-5.3-3.1-10.8-3.1-16.1,0h0c-2.6,1.5-4,3.1-4,4.6s1.3,3.1,4,4.6c5.3,3.1,10.8,3.1,16.1,0
			c2.6-1.5,4-3.1,4-4.6C26.6,16,25.3,14.5,22.7,13z"/>
		<path class="st9" d="M22.6,13c-5.3-3.1-10.8-3.1-16.1,0h0c-2.6,1.5-4,3.1-4,4.6s1.3,3.1,4,4.6c5.3,3.1,10.8,3.1,16.1,0
			c2.6-1.5,4-3.1,4-4.6C26.6,16,25.2,14.5,22.6,13z"/>
		<path class="st10" d="M22.6,13c-5.3-3.1-10.8-3.1-16.1,0h0c-2.6,1.5-4,3.1-4,4.6s1.3,3.1,4,4.6c5.3,3.1,10.8,3.1,16.1,0
			c2.6-1.5,4-3.1,4-4.6C26.5,16,25.2,14.5,22.6,13z"/>
		<path class="st11" d="M22.5,13c-5.3-3.1-10.8-3.1-16.1,0h0c-2.6,1.5-4,3.1-4,4.6s1.3,3.1,4,4.6c5.3,3.1,10.8,3.1,16.1,0
			c2.6-1.5,4-3.1,4-4.6C26.5,16,25.1,14.5,22.5,13z"/>
		<path class="st12" d="M22.5,13c-5.3-3.1-10.8-3.1-16.1,0h0c-2.6,1.5-4,3.1-4,4.6s1.3,3.1,4,4.6c5.3,3.1,10.8,3.1,16.1,0
			c2.6-1.5,4-3.1,4-4.6C26.4,16,25.1,14.5,22.5,13z"/>
		<path class="st13" d="M22.4,13c-5.3-3.1-10.8-3.1-16.1,0h0c-2.6,1.5-4,3.1-4,4.6s1.3,3.1,4,4.6c5.3,3.1,10.8,3.1,16.1,0
			c2.6-1.5,4-3.1,4-4.6C26.4,16,25,14.5,22.4,13z"/>
		<path class="st14" d="M22.3,13c-5.3-3.1-10.8-3.1-16.1,0h0c-2.6,1.5-4,3.1-4,4.6s1.3,3.1,4,4.6c5.3,3.1,10.8,3.1,16.1,0
			c2.6-1.5,4-3.1,4-4.6C26.3,16,25,14.5,22.3,13z"/>
		<path class="st15" d="M22.3,13C17,9.9,11.5,9.9,6.2,13h0c-2.6,1.5-4,3.1-4,4.6s1.3,3.1,4,4.6c5.3,3.1,10.8,3.1,16.1,0
			c2.6-1.5,4-3.1,4-4.6C26.3,16,24.9,14.5,22.3,13z"/>
		<path class="st16" d="M22.2,13C17,9.9,11.5,9.9,6.2,13h0c-2.6,1.5-4,3.1-4,4.6s1.3,3.1,4,4.6c5.3,3.1,10.8,3.1,16.1,0
			c2.6-1.5,4-3.1,4-4.6C26.2,16,24.9,14.5,22.2,13z"/>
		<path class="st17" d="M22.2,13c-5.3-3.1-10.8-3.1-16.1,0h0c-2.6,1.5-4,3.1-4,4.6s1.3,3.1,4,4.6c5.3,3.1,10.8,3.1,16.1,0
			c2.6-1.5,4-3.1,4-4.6C26.2,16,24.8,14.5,22.2,13z"/>
		<path class="st18" d="M22.1,13c-5.3-3.1-10.8-3.1-16.1,0h0c-2.6,1.5-4,3.1-4,4.6s1.3,3.1,4,4.6c5.3,3.1,10.8,3.1,16.1,0
			c2.6-1.5,4-3.1,4-4.6C26.1,16,24.8,14.5,22.1,13z"/>
		<path class="st19" d="M22.1,13C16.8,9.9,11.3,9.9,6,13h0c-2.6,1.5-4,3.1-4,4.6s1.3,3.1,4,4.6c5.3,3.1,10.8,3.1,16.1,0
			c2.6-1.5,4-3.1,4-4.6C26.1,16,24.7,14.5,22.1,13z"/>
		<path class="st20" d="M22,13C16.8,9.9,11.3,9.9,6,13h0c-2.6,1.5-4,3.1-4,4.6s1.3,3.1,4,4.6c5.3,3.1,10.8,3.1,16.1,0
			c2.6-1.5,4-3.1,4-4.6C26,16,24.7,14.5,22,13z"/>
		<path class="st21" d="M22,13c-5.3-3.1-10.8-3.1-16.1,0h0c-2.6,1.5-4,3.1-4,4.6s1.3,3.1,4,4.6c5.3,3.1,10.8,3.1,16.1,0
			c2.6-1.5,4-3.1,4-4.6C26,16,24.6,14.5,22,13z"/>
		<path class="st22" d="M21.9,13c-5.3-3.1-10.8-3.1-16.1,0h0c-2.6,1.5-4,3.1-4,4.6s1.3,3.1,4,4.6c5.3,3.1,10.8,3.1,16.1,0
			c2.6-1.5,4-3.1,4-4.6C25.9,16,24.6,14.5,21.9,13z"/>
		<path class="st23" d="M21.9,13c-5.3-3.1-10.8-3.1-16.1,0h0c-2.6,1.5-4,3.1-4,4.6s1.3,3.1,4,4.6c5.3,3.1,10.8,3.1,16.1,0
			c2.6-1.5,4-3.1,4-4.6C25.9,16,24.5,14.5,21.9,13z"/>
		<path class="st24" d="M21.8,13c-5.3-3.1-10.8-3.1-16.1,0h0c-2.6,1.5-4,3.1-4,4.6s1.3,3.1,4,4.6c5.3,3.1,10.8,3.1,16.1,0
			c2.6-1.5,4-3.1,4-4.6C25.8,16,24.5,14.5,21.8,13z"/>
		<path class="st25" d="M21.8,13C16.5,9.9,11,9.9,5.7,13h0c-2.6,1.5-4,3.1-4,4.6s1.3,3.1,4,4.6c5.3,3.1,10.8,3.1,16.1,0
			c2.6-1.5,4-3.1,4-4.6C25.8,16,24.4,14.5,21.8,13z"/>
		<path class="st26" d="M21.7,13C16.5,9.9,11,9.9,5.7,13h0c-2.6,1.5-4,3.1-4,4.6s1.3,3.1,4,4.6c5.3,3.1,10.8,3.1,16.1,0
			c2.6-1.5,4-3.1,4-4.6C25.7,16,24.4,14.5,21.7,13z"/>
		<path class="st27" d="M21.7,13c-5.3-3.1-10.8-3.1-16.1,0h0c-2.6,1.5-4,3.1-4,4.6s1.3,3.1,4,4.6c5.3,3.1,10.8,3.1,16.1,0
			c2.6-1.5,4-3.1,4-4.6C25.7,16,24.3,14.5,21.7,13z"/>
		<path class="st28" d="M21.6,13c-5.3-3.1-10.8-3.1-16.1,0h0c-2.6,1.5-4,3.1-4,4.6s1.3,3.1,4,4.6c5.3,3.1,10.8,3.1,16.1,0
			c2.6-1.5,4-3.1,4-4.6C25.6,16,24.3,14.5,21.6,13z"/>
		<path class="st29" d="M21.6,13c-5.3-3.1-10.8-3.1-16.1,0h0c-2.6,1.5-4,3.1-4,4.6s1.3,3.1,4,4.6c5.3,3.1,10.8,3.1,16.1,0
			c2.6-1.5,4-3.1,4-4.6C25.6,16,24.2,14.5,21.6,13z"/>
		<path class="st30" d="M21.5,13c-5.3-3.1-10.8-3.1-16.1,0h0c-2.6,1.5-4,3.1-4,4.6s1.3,3.1,4,4.6c5.3,3.1,10.8,3.1,16.1,0
			c2.6-1.5,4-3.1,4-4.6C25.5,16,24.2,14.5,21.5,13z"/>
		<path class="st31" d="M21.5,13c-5.3-3.1-10.8-3.1-16.1,0h0c-2.6,1.5-4,3.1-4,4.6s1.3,3.1,4,4.6c5.3,3.1,10.8,3.1,16.1,0
			c2.6-1.5,4-3.1,4-4.6C25.5,16,24.1,14.5,21.5,13z"/>
		<path class="st32" d="M21.4,13c-5.3-3.1-10.8-3.1-16.1,0h0c-2.6,1.5-4,3.1-4,4.6s1.3,3.1,4,4.6c5.3,3.1,10.8,3.1,16.1,0
			c2.6-1.5,4-3.1,4-4.6C25.4,16,24.1,14.5,21.4,13z"/>
		<path class="st33" d="M21.4,13c-5.3-3.1-10.8-3.1-16.1,0h0c-2.6,1.5-4,3.1-4,4.6s1.3,3.1,4,4.6c5.3,3.1,10.8,3.1,16.1,0
			c2.6-1.5,4-3.1,4-4.6C25.4,16,24,14.5,21.4,13z"/>
	</g>
	<g>
		<path class="st34" d="M21.4,13c-5.3-3.1-10.8-3.1-16.1,0v0c-2.6,1.5-4,3.1-4,4.6s1.3,3.1,4,4.6c5.3,3.1,10.8,3.1,16.1,0
			c2.6-1.5,4-3.1,4-4.6C25.4,16,24,14.5,21.4,13z"/>
		
			<linearGradient id="SVGID_1_" gradientUnits="userSpaceOnUse" x1="-0.8554" y1="22.9946" x2="23.138" y2="22.9946" gradientTransform="matrix(1 0 0 1 2.2313 -3.0903)">
			<stop  offset="0" style="stop-color:#FFED44"/>
			<stop  offset="7.192162e-02" style="stop-color:#FFF047"/>
			<stop  offset="0.3006" style="stop-color:#FFF24A"/>
			<stop  offset="0.5494" style="stop-color:#FFE23A"/>
			<stop  offset="0.7441" style="stop-color:#FFDC34"/>
			<stop  offset="1" style="stop-color:#F9B519"/>
		</linearGradient>
		<path class="st35" d="M21.4,19.9c-5.3,3.1-10.8,3.1-16.1,0c-2.6-1.5-4-3.1-4-4.6v2.3c0,1.6,1.3,3.1,4,4.6c5.3,3.1,10.8,3.1,16.1,0
			c2.6-1.5,4-3.1,4-4.6v-2.3C25.4,16.8,24,18.4,21.4,19.9z"/>
		<path class="st36" d="M21.4,10.7c-5.3-3.1-10.8-3.1-16.1,0l0,0c-2.6,1.5-4,3.1-4,4.6s1.3,3.1,4,4.6c5.3,3.1,10.8,3.1,16.1,0
			c2.6-1.5,4-3.1,4-4.6C25.4,13.7,24,12.2,21.4,10.7z"/>
	</g>
	<g>
		<defs>
			<path id="SVGID_2_" d="M21.4,10.7c-5.3-3.1-10.8-3.1-16.1,0l0,0c-2.6,1.5-4,3.1-4,4.6s1.3,3.1,4,4.6c5.3,3.1,10.8,3.1,16.1,0
				c2.6-1.5,4-3.1,4-4.6C25.4,13.7,24,12.2,21.4,10.7z"/>
		</defs>
		<clipPath id="SVGID_3_">
			<use xlink:href="#SVGID_2_"  style="overflow:visible;"/>
		</clipPath>
		<g class="st37">
			<path class="st0" d="M28.3,11.4c-1.1-0.7-2.3-1.1-3.4-1.3c0.3-0.4,0.6-0.8,0.8-1.2c1.1-1.7,0.7-3.3-0.2-4.2
				C23.8,3,21.3,4,20.6,5.4c-0.3,0.6-0.5,1.3-0.5,2c0,0.9,0.3,2.1,0.9,3c-0.8,0.2-1.7,0.6-2.5,1.1c-1.6,0.9-2.4,1.9-2.4,2.8V15
				c0,1,0.8,1.9,2.4,2.8c3.2,1.9,6.6,1.9,9.8,0c1.6-0.9,2.4-1.9,2.4-2.8v-0.8C30.7,13.3,29.9,12.3,28.3,11.4z"/>
			<path class="st38" d="M28,11.4c-1.1-0.7-2.3-1.1-3.4-1.3c0.3-0.4,0.6-0.8,0.8-1.2c1.1-1.7,0.7-3.2-0.2-4.2C23.5,3,21,4,20.3,5.4
				c-0.3,0.6-0.5,1.3-0.5,2c0,0.9,0.3,2.1,0.9,3c-0.8,0.2-1.7,0.6-2.5,1.1c-1.6,0.9-2.4,1.9-2.4,2.8V15c0,1,0.8,1.9,2.4,2.8
				c3.2,1.9,6.6,1.9,9.8,0c1.6-0.9,2.4-1.9,2.4-2.8v-0.8C30.4,13.3,29.6,12.3,28,11.4z"/>
			<path class="st39" d="M27.7,11.4c-1.1-0.7-2.3-1.1-3.4-1.3c0.3-0.4,0.6-0.8,0.8-1.2c1.1-1.7,0.7-3.2-0.2-4.2
				C23.2,3,20.7,4,20,5.4c-0.3,0.6-0.5,1.3-0.5,2c0,0.9,0.3,2.1,0.9,3c-0.8,0.2-1.7,0.6-2.5,1.1c-1.6,0.9-2.4,1.9-2.4,2.8V15
				c0,1,0.8,1.9,2.4,2.8c3.2,1.9,6.6,1.9,9.8,0c1.6-0.9,2.4-1.9,2.4-2.8v-0.8C30.1,13.3,29.3,12.3,27.7,11.4z"/>
			<path class="st40" d="M27.4,11.4c-1.1-0.7-2.3-1.1-3.4-1.3c0.3-0.4,0.6-0.8,0.8-1.2c1.1-1.7,0.7-3.2-0.2-4.2
				C22.9,3,20.4,4,19.7,5.4c-0.3,0.6-0.5,1.3-0.5,2c0,0.9,0.3,2.1,0.9,3c-0.8,0.2-1.7,0.6-2.5,1.1c-1.6,0.9-2.4,1.9-2.4,2.8V15
				c0,1,0.8,1.9,2.4,2.8c3.2,1.9,6.6,1.9,9.8,0c1.6-0.9,2.4-1.9,2.4-2.8v-0.8C29.8,13.3,29,12.3,27.4,11.4z"/>
			<path class="st41" d="M27.1,11.4c-1.1-0.7-2.3-1.1-3.4-1.3c0.3-0.4,0.6-0.8,0.8-1.2c1.1-1.7,0.7-3.2-0.2-4.2
				C22.6,3,20.1,4,19.4,5.4c-0.3,0.6-0.5,1.3-0.5,2c0,0.9,0.3,2.1,0.9,3c-0.8,0.2-1.7,0.6-2.5,1.1c-1.6,0.9-2.4,1.9-2.4,2.8V15
				c0,1,0.8,1.9,2.4,2.8c3.2,1.9,6.6,1.9,9.8,0c1.6-0.9,2.4-1.9,2.4-2.8v-0.8C29.5,13.3,28.7,12.3,27.1,11.4z"/>
			<path class="st42" d="M26.8,11.4c-1.1-0.7-2.3-1.1-3.4-1.3c0.3-0.4,0.6-0.8,0.8-1.2c1.1-1.7,0.7-3.2-0.2-4.2
				C22.3,3,19.8,4,19.1,5.4c-0.3,0.6-0.5,1.3-0.5,2c0,0.9,0.3,2.1,0.9,3c-0.8,0.2-1.7,0.6-2.5,1.1c-1.6,0.9-2.4,1.9-2.4,2.8V15
				c0,1,0.8,1.9,2.4,2.8c3.2,1.9,6.6,1.9,9.8,0c1.6-0.9,2.4-1.9,2.4-2.8v-0.8C29.2,13.3,28.4,12.3,26.8,11.4z"/>
			<path class="st43" d="M26.4,11.4c-1.1-0.7-2.3-1.1-3.4-1.3c0.3-0.4,0.6-0.8,0.8-1.2c1.1-1.7,0.7-3.2-0.2-4.2
				C22,3,19.5,4,18.8,5.4c-0.3,0.6-0.5,1.3-0.5,2c0,0.9,0.3,2.1,0.9,3c-0.8,0.2-1.7,0.6-2.5,1.1c-1.6,0.9-2.4,1.9-2.4,2.8V15
				c0,1,0.8,1.9,2.4,2.8c3.2,1.9,6.6,1.9,9.8,0c1.6-0.9,2.4-1.9,2.4-2.8v-0.8C28.9,13.3,28.1,12.3,26.4,11.4z"/>
			<path class="st44" d="M26.1,11.4c-1.1-0.7-2.3-1.1-3.4-1.3C23,9.8,23.3,9.4,23.5,9c1.1-1.7,0.7-3.2-0.2-4.2
				C21.7,3,19.2,4,18.5,5.4c-0.3,0.6-0.5,1.3-0.5,2c0,0.9,0.3,2.1,0.9,3c-0.8,0.2-1.7,0.6-2.5,1.1c-1.6,0.9-2.4,1.9-2.4,2.8V15
				c0,1,0.8,1.9,2.4,2.8c3.2,1.9,6.6,1.9,9.8,0c1.6-0.9,2.4-1.9,2.4-2.8v-0.8C28.6,13.3,27.8,12.3,26.1,11.4z"/>
			<path class="st45" d="M25.8,11.4c-1.1-0.7-2.3-1.1-3.4-1.3C22.7,9.8,23,9.4,23.2,9c1.1-1.7,0.7-3.2-0.2-4.2
				C21.4,3,18.9,4,18.2,5.4c-0.3,0.6-0.5,1.3-0.5,2c0,0.9,0.3,2.1,0.9,3c-0.8,0.2-1.7,0.6-2.5,1.1c-1.6,0.9-2.4,1.9-2.4,2.8V15
				c0,1,0.8,1.9,2.4,2.8c3.2,1.9,6.6,1.9,9.8,0c1.6-0.9,2.4-1.9,2.4-2.8v-0.8C28.3,13.3,27.5,12.3,25.8,11.4z"/>
			<path class="st46" d="M25.5,11.4c-1.1-0.7-2.3-1.1-3.4-1.3c0.3-0.4,0.6-0.8,0.8-1.2c1.1-1.7,0.7-3.2-0.2-4.2
				C21.1,3,18.6,4,17.9,5.4c-0.3,0.6-0.5,1.3-0.5,2c0,0.9,0.3,2.1,0.9,3c-0.8,0.2-1.7,0.6-2.5,1.1c-1.6,0.9-2.4,1.9-2.4,2.8V15
				c0,1,0.8,1.9,2.4,2.8c3.2,1.9,6.6,1.9,9.8,0c1.6-0.9,2.4-1.9,2.4-2.8v-0.8C28,13.3,27.2,12.3,25.5,11.4z"/>
			<path class="st47" d="M25.2,11.4c-1.1-0.7-2.3-1.1-3.4-1.3c0.3-0.4,0.6-0.8,0.8-1.2c1.1-1.7,0.7-3.2-0.2-4.2
				C20.8,3,18.3,4,17.6,5.4c-0.3,0.6-0.5,1.3-0.5,2c0,0.9,0.3,2.1,0.9,3c-0.8,0.2-1.7,0.6-2.5,1.1c-1.6,0.9-2.4,1.9-2.4,2.8V15
				c0,1,0.8,1.9,2.4,2.8c3.2,1.9,6.6,1.9,9.8,0c1.6-0.9,2.4-1.9,2.4-2.8v-0.8C27.7,13.3,26.9,12.3,25.2,11.4z"/>
			<path class="st48" d="M24.9,11.4c-1.1-0.7-2.3-1.1-3.4-1.3c0.3-0.4,0.6-0.8,0.8-1.2c1.1-1.7,0.7-3.2-0.2-4.2
				C20.5,3,18,4,17.3,5.4c-0.3,0.6-0.5,1.3-0.5,2c0,0.9,0.3,2.1,0.9,3c-0.8,0.2-1.7,0.6-2.5,1.1c-1.6,0.9-2.4,1.9-2.4,2.8V15
				c0,1,0.8,1.9,2.4,2.8c3.2,1.9,6.6,1.9,9.8,0c1.6-0.9,2.4-1.9,2.4-2.8v-0.8C27.4,13.3,26.6,12.3,24.9,11.4z"/>
			<path class="st49" d="M24.6,11.4c-1.1-0.7-2.3-1.1-3.4-1.3C21.5,9.8,21.8,9.4,22,9c1.1-1.7,0.7-3.2-0.2-4.2C20.2,3,17.7,4,17,5.4
				c-0.3,0.6-0.5,1.3-0.5,2c0,0.9,0.3,2.1,0.9,3c-0.8,0.2-1.7,0.6-2.5,1.1c-1.6,0.9-2.4,1.9-2.4,2.8V15c0,1,0.8,1.9,2.4,2.8
				c3.2,1.9,6.6,1.9,9.8,0c1.6-0.9,2.4-1.9,2.4-2.8v-0.8C27.1,13.3,26.3,12.3,24.6,11.4z"/>
			<path class="st50" d="M24.3,11.4c-1.1-0.7-2.3-1.1-3.4-1.3c0.3-0.4,0.6-0.8,0.8-1.2c1.1-1.7,0.7-3.2-0.2-4.2
				C19.9,3,17.4,4,16.7,5.4c-0.3,0.6-0.5,1.3-0.5,2c0,0.9,0.3,2.1,0.9,3c-0.8,0.2-1.7,0.6-2.5,1.1c-1.6,0.9-2.4,1.9-2.4,2.8V15
				c0,1,0.8,1.9,2.4,2.8c3.2,1.9,6.6,1.9,9.8,0c1.6-0.9,2.4-1.9,2.4-2.8v-0.8C26.8,13.3,26,12.3,24.3,11.4z"/>
			<path class="st51" d="M24,11.4c-1.1-0.7-2.3-1.1-3.4-1.3c0.3-0.4,0.6-0.8,0.8-1.2c1.1-1.7,0.7-3.2-0.2-4.2
				C19.6,3,17.1,4,16.4,5.4c-0.3,0.6-0.5,1.3-0.5,2c0,0.9,0.3,2.1,0.9,3c-0.8,0.2-1.7,0.6-2.5,1.1c-1.6,0.9-2.4,1.9-2.4,2.8V15
				c0,1,0.8,1.9,2.4,2.8c3.2,1.9,6.6,1.9,9.8,0c1.6-0.9,2.4-1.9,2.4-2.8v-0.8C26.5,13.3,25.6,12.3,24,11.4z"/>
			<path class="st52" d="M23.7,11.4c-1.1-0.7-2.3-1.1-3.4-1.3c0.3-0.4,0.6-0.8,0.8-1.2c1.1-1.7,0.7-3.2-0.2-4.2
				C19.3,3,16.8,4,16.1,5.4c-0.3,0.6-0.5,1.3-0.5,2c0,0.9,0.3,2.1,0.9,3c-0.8,0.2-1.7,0.6-2.5,1.1c-1.6,0.9-2.4,1.9-2.4,2.8V15
				c0,1,0.8,1.9,2.4,2.8c3.2,1.9,6.6,1.9,9.8,0c1.6-0.9,2.4-1.9,2.4-2.8v-0.8C26.2,13.3,25.3,12.3,23.7,11.4z"/>
			<path class="st53" d="M23.4,11.4c-1.1-0.7-2.3-1.1-3.4-1.3c0.3-0.4,0.6-0.8,0.8-1.2c1.1-1.7,0.7-3.2-0.2-4.2
				C19,3,16.5,4,15.8,5.4c-0.3,0.6-0.5,1.3-0.5,2c0,0.9,0.3,2.1,0.9,3c-0.8,0.2-1.7,0.6-2.5,1.1c-1.6,0.9-2.4,1.9-2.4,2.8V15
				c0,1,0.8,1.9,2.4,2.8c3.2,1.9,6.6,1.9,9.8,0c1.6-0.9,2.4-1.9,2.4-2.8v-0.8C25.9,13.3,25,12.3,23.4,11.4z"/>
			<path class="st54" d="M23.1,11.4c-1.1-0.7-2.3-1.1-3.4-1.3C20,9.8,20.3,9.4,20.5,9c1.1-1.7,0.7-3.2-0.2-4.2
				C18.7,3,16.2,4,15.5,5.4c-0.3,0.6-0.5,1.3-0.5,2c0,0.9,0.3,2.1,0.9,3c-0.8,0.2-1.7,0.6-2.5,1.1c-1.6,0.9-2.4,1.9-2.4,2.8V15
				c0,1,0.8,1.9,2.4,2.8c3.2,1.9,6.6,1.9,9.8,0c1.6-0.9,2.4-1.9,2.4-2.8v-0.8C25.6,13.3,24.7,12.3,23.1,11.4z"/>
			<path class="st55" d="M22.8,11.4c-1.1-0.7-2.3-1.1-3.4-1.3C19.7,9.8,20,9.4,20.2,9c1.1-1.7,0.7-3.2-0.2-4.2
				C18.3,3,15.9,4,15.2,5.4c-0.3,0.6-0.5,1.3-0.5,2c0,0.9,0.3,2.1,0.9,3c-0.8,0.2-1.7,0.6-2.5,1.1c-1.6,0.9-2.4,1.9-2.4,2.8V15
				c0,1,0.8,1.9,2.4,2.8c3.2,1.9,6.6,1.9,9.8,0c1.6-0.9,2.4-1.9,2.4-2.8v-0.8C25.3,13.3,24.4,12.3,22.8,11.4z"/>
			<path class="st56" d="M22.5,11.4c-1.1-0.7-2.3-1.1-3.4-1.3c0.3-0.4,0.6-0.8,0.8-1.2c1.1-1.7,0.7-3.2-0.2-4.2
				C18,3,15.6,4,14.9,5.4c-0.3,0.6-0.5,1.3-0.5,2c0,0.9,0.3,2.1,0.9,3c-0.8,0.2-1.7,0.6-2.5,1.1c-1.6,0.9-2.4,1.9-2.4,2.8V15
				c0,1,0.8,1.9,2.4,2.8c3.2,1.9,6.6,1.9,9.8,0c1.6-0.9,2.4-1.9,2.4-2.8v-0.8C24.9,13.3,24.1,12.3,22.5,11.4z"/>
			<path class="st57" d="M22.2,11.4c-1.1-0.7-2.3-1.1-3.4-1.3c0.3-0.4,0.6-0.8,0.8-1.2c1.1-1.7,0.7-3.2-0.2-4.2
				C17.7,3,15.3,4,14.6,5.4c-0.3,0.6-0.5,1.3-0.5,2c0,0.9,0.3,2.1,0.9,3c-0.8,0.2-1.7,0.6-2.5,1.1c-1.6,0.9-2.4,1.9-2.4,2.8V15
				c0,1,0.8,1.9,2.4,2.8c3.2,1.9,6.6,1.9,9.8,0c1.6-0.9,2.4-1.9,2.4-2.8v-0.8C24.6,13.3,23.8,12.3,22.2,11.4z"/>
			<path class="st58" d="M21.9,11.4c-1.1-0.7-2.3-1.1-3.4-1.3c0.3-0.4,0.6-0.8,0.8-1.2c1.1-1.7,0.7-3.2-0.2-4.2
				C17.4,3,15,4,14.3,5.4c-0.3,0.6-0.5,1.3-0.5,2c0,0.9,0.3,2.1,0.9,3c-0.8,0.2-1.7,0.6-2.5,1.1c-1.6,0.9-2.4,1.9-2.4,2.8V15
				c0,1,0.8,1.9,2.4,2.8c3.2,1.9,6.6,1.9,9.8,0c1.6-0.9,2.4-1.9,2.4-2.8v-0.8C24.3,13.3,23.5,12.3,21.9,11.4z"/>
			<path class="st59" d="M21.6,11.4c-1.1-0.7-2.3-1.1-3.4-1.3C18.5,9.8,18.8,9.4,19,9c1.1-1.7,0.7-3.2-0.2-4.2C17.1,3,14.7,4,14,5.4
				c-0.3,0.6-0.5,1.3-0.5,2c0,0.9,0.3,2.1,0.9,3c-0.8,0.2-1.7,0.6-2.5,1.1c-1.6,0.9-2.4,1.9-2.4,2.8V15c0,1,0.8,1.9,2.4,2.8
				c3.2,1.9,6.6,1.9,9.8,0c1.6-0.9,2.4-1.9,2.4-2.8v-0.8C24,13.3,23.2,12.3,21.6,11.4z"/>
			<path class="st60" d="M21.3,11.4c-1.1-0.7-2.3-1.1-3.4-1.3c0.3-0.4,0.6-0.8,0.8-1.2c1.1-1.7,0.7-3.2-0.2-4.2
				C16.8,3,14.4,4,13.6,5.4c-0.3,0.6-0.5,1.3-0.5,2c0,0.9,0.3,2.1,0.9,3c-0.8,0.2-1.7,0.6-2.5,1.1c-1.6,0.9-2.4,1.9-2.4,2.8V15
				c0,1,0.8,1.9,2.4,2.8c3.2,1.9,6.6,1.9,9.8,0c1.6-0.9,2.4-1.9,2.4-2.8v-0.8C23.7,13.3,22.9,12.3,21.3,11.4z"/>
			<path class="st61" d="M21,11.4c-1.1-0.7-2.3-1.1-3.4-1.3c0.3-0.4,0.6-0.8,0.8-1.2c1.1-1.7,0.7-3.2-0.2-4.2
				C16.5,3,14.1,4,13.3,5.4c-0.3,0.6-0.5,1.3-0.5,2c0,0.9,0.3,2.1,0.9,3c-0.8,0.2-1.7,0.6-2.5,1.1c-1.6,0.9-2.4,1.9-2.4,2.8V15
				c0,1,0.8,1.9,2.4,2.8c3.2,1.9,6.6,1.9,9.8,0c1.6-0.9,2.4-1.9,2.4-2.8v-0.8C23.4,13.3,22.6,12.3,21,11.4z"/>
			<path class="st62" d="M20.7,11.4c-1.1-0.7-2.3-1.1-3.4-1.3c0.3-0.4,0.6-0.8,0.8-1.2c1.1-1.7,0.7-3.2-0.2-4.2
				C16.2,3,13.8,4,13,5.4c-0.3,0.6-0.5,1.3-0.5,2c0,0.9,0.3,2.1,0.9,3c-0.8,0.2-1.7,0.6-2.5,1.1c-1.6,0.9-2.4,1.9-2.4,2.8V15
				c0,1,0.8,1.9,2.4,2.8c3.2,1.9,6.6,1.9,9.8,0c1.6-0.9,2.4-1.9,2.4-2.8v-0.8C23.1,13.3,22.3,12.3,20.7,11.4z"/>
			<path class="st63" d="M20.4,11.4c-1.1-0.7-2.3-1.1-3.4-1.3c0.3-0.4,0.6-0.8,0.8-1.2c1.1-1.7,0.7-3.2-0.2-4.2
				C15.9,3,13.5,4,12.7,5.4c-0.3,0.6-0.5,1.3-0.5,2c0,0.9,0.3,2.1,0.9,3c-0.8,0.2-1.7,0.6-2.5,1.1c-1.6,0.9-2.4,1.9-2.4,2.8V15
				c0,1,0.8,1.9,2.4,2.8c3.2,1.9,6.6,1.9,9.8,0c1.6-0.9,2.4-1.9,2.4-2.8v-0.8C22.8,13.3,22,12.3,20.4,11.4z"/>
			<path class="st64" d="M20.1,11.4c-1.1-0.7-2.3-1.1-3.4-1.3C17,9.8,17.3,9.4,17.5,9c1.1-1.7,0.7-3.2-0.2-4.2
				C15.6,3,13.2,4,12.4,5.4c-0.3,0.6-0.5,1.3-0.5,2c0,0.9,0.3,2.1,0.9,3c-0.8,0.2-1.7,0.6-2.5,1.1c-1.6,0.9-2.4,1.9-2.4,2.8V15
				c0,1,0.8,1.9,2.4,2.8c3.2,1.9,6.6,1.9,9.8,0c1.6-0.9,2.4-1.9,2.4-2.8v-0.8C22.5,13.3,21.7,12.3,20.1,11.4z"/>
			<path class="st65" d="M19.8,11.4c-1.1-0.7-2.3-1.1-3.4-1.3C16.7,9.8,17,9.4,17.2,9c1.1-1.7,0.7-3.2-0.2-4.2
				C15.3,3,12.9,4,12.1,5.4c-0.3,0.6-0.5,1.3-0.5,2c0,0.9,0.3,2.1,0.9,3c-0.8,0.2-1.7,0.6-2.5,1.1c-1.6,0.9-2.4,1.9-2.4,2.8V15
				c0,1,0.8,1.9,2.4,2.8c3.2,1.9,6.6,1.9,9.8,0c1.6-0.9,2.4-1.9,2.4-2.8v-0.8C22.2,13.3,21.4,12.3,19.8,11.4z"/>
			<path class="st66" d="M19.5,11.4c-1.1-0.7-2.3-1.1-3.4-1.3c0.3-0.4,0.6-0.8,0.8-1.2c1.1-1.7,0.7-3.2-0.2-4.2
				C15,3,12.6,4,11.8,5.4c-0.3,0.6-0.5,1.3-0.5,2c0,0.9,0.3,2.1,0.9,3c-0.8,0.2-1.7,0.6-2.5,1.1c-1.6,0.9-2.4,1.9-2.4,2.8V15
				c0,1,0.8,1.9,2.4,2.8c3.2,1.9,6.6,1.9,9.8,0c1.6-0.9,2.4-1.9,2.4-2.8v-0.8C21.9,13.3,21.1,12.3,19.5,11.4z"/>
			<path class="st67" d="M19.2,11.4c-1.1-0.7-2.3-1.1-3.4-1.3c0.3-0.4,0.6-0.8,0.8-1.2c1.1-1.7,0.7-3.2-0.2-4.2
				C14.7,3,12.3,4,11.5,5.4c-0.3,0.6-0.5,1.3-0.5,2c0,0.9,0.3,2.1,0.9,3c-0.8,0.2-1.7,0.6-2.5,1.1c-1.6,0.9-2.4,1.9-2.4,2.8V15
				c0,1,0.8,1.9,2.4,2.8c3.2,1.9,6.6,1.9,9.8,0c1.6-0.9,2.4-1.9,2.4-2.8v-0.8C21.6,13.3,20.8,12.3,19.2,11.4z"/>
			<path class="st68" d="M18.9,11.4c-1.1-0.7-2.3-1.1-3.4-1.3C15.8,9.8,16,9.4,16.3,9c1.1-1.7,0.7-3.2-0.2-4.2C14.4,3,12,4,11.2,5.4
				c-0.3,0.6-0.5,1.3-0.5,2c0,0.9,0.3,2.1,0.9,3c-0.8,0.2-1.7,0.6-2.5,1.1c-1.6,0.9-2.4,1.9-2.4,2.8V15c0,1,0.8,1.9,2.4,2.8
				c3.2,1.9,6.6,1.9,9.8,0c1.6-0.9,2.4-1.9,2.4-2.8v-0.8C21.3,13.3,20.5,12.3,18.9,11.4z"/>
			<path class="st69" d="M18.6,11.4c-1.1-0.7-2.3-1.1-3.4-1.3C15.5,9.8,15.7,9.4,16,9c1.1-1.7,0.7-3.2-0.2-4.2
				C14.1,3,11.7,4,10.9,5.4c-0.3,0.6-0.5,1.3-0.5,2c0,0.9,0.3,2.1,0.9,3c-0.8,0.2-1.7,0.6-2.5,1.1c-1.6,0.9-2.4,1.9-2.4,2.8V15
				c0,1,0.8,1.9,2.4,2.8c3.2,1.9,6.6,1.9,9.8,0c1.6-0.9,2.4-1.9,2.4-2.8v-0.8C21,13.3,20.2,12.3,18.6,11.4z"/>
			<path class="st70" d="M18.3,11.4c-1.1-0.7-2.3-1.1-3.4-1.3c0.3-0.4,0.6-0.8,0.8-1.2c1.1-1.7,0.7-3.3-0.2-4.2
				C13.8,3,11.4,4,10.6,5.4c-0.3,0.6-0.5,1.3-0.5,2c0,0.9,0.3,2.1,0.9,3c-0.8,0.2-1.7,0.6-2.5,1.1C6.8,12.3,6,13.3,6,14.2V15
				c0,1,0.8,1.9,2.4,2.8c3.2,1.9,6.6,1.9,9.8,0c1.6-0.9,2.4-1.9,2.4-2.8v-0.8C20.7,13.3,19.9,12.3,18.3,11.4z"/>
		</g>
	</g>
	<g>
		
			<linearGradient id="SVGID_4_" gradientUnits="userSpaceOnUse" x1="3.7989" y1="19.8327" x2="18.4837" y2="19.8327" gradientTransform="matrix(1 0 0 1 2.2313 -3.0903)">
			<stop  offset="0" style="stop-color:#383838"/>
			<stop  offset="9.571359e-02" style="stop-color:#3D3B3C"/>
			<stop  offset="0.3006" style="stop-color:#403D3E"/>
			<stop  offset="0.5494" style="stop-color:#302D2E"/>
			<stop  offset="0.7441" style="stop-color:#2A2728"/>
			<stop  offset="1" style="stop-color:#000000"/>
		</linearGradient>
		<path class="st71" d="M18.3,17.1c-3.2,1.9-6.6,1.9-9.8,0C6.8,16.1,6,15.2,6,14.2V15c0,1,0.8,1.9,2.4,2.8c3.2,1.9,6.6,1.9,9.8,0
			c1.6-0.9,2.4-1.9,2.4-2.8v-0.8C20.7,15.2,19.9,16.1,18.3,17.1z"/>
		<path class="st72" d="M18.3,11.4c-3.2-1.9-6.6-1.9-9.8,0l0,0C6.8,12.3,6,13.3,6,14.2c0,1,0.8,1.9,2.4,2.8c3.2,1.9,6.6,1.9,9.8,0
			c1.6-0.9,2.4-1.9,2.4-2.8C20.7,13.3,19.9,12.3,18.3,11.4z"/>
	</g>
	<g>
		<g>
			
				<linearGradient id="SVGID_5_" gradientUnits="userSpaceOnUse" x1="9.0288" y1="17.8386" x2="13.2538" y2="17.8386" gradientTransform="matrix(1 0 0 1 2.2313 -3.0903)">
				<stop  offset="0" style="stop-color:#383838"/>
				<stop  offset="9.571359e-02" style="stop-color:#3D3B3C"/>
				<stop  offset="0.3006" style="stop-color:#403D3E"/>
				<stop  offset="0.3969" style="stop-color:#333031"/>
				<stop  offset="0.6347" style="stop-color:#171616"/>
				<stop  offset="0.8436" style="stop-color:#060606"/>
				<stop  offset="1" style="stop-color:#000000"/>
			</linearGradient>
			<path class="st73" d="M13.4,15c-1.2,0-2.1-0.5-2.1-1.2v0.8c0,0.7,0.9,1.2,2.1,1.2s2.1-0.5,2.1-1.2v-0.8
				C15.5,14.4,14.5,15,13.4,15z"/>
			<path class="st74" d="M13.4,15c-1.2,0-2.1-0.5-2.1-1.2c0-0.7,0.9-1.2,2.1-1.2s2.1,0.5,2.1,1.2C15.5,14.4,14.5,15,13.4,15z"/>
		</g>
		<g>
			
				<linearGradient id="SVGID_6_" gradientUnits="userSpaceOnUse" x1="9.459" y1="16.9987" x2="12.8236" y2="16.9987" gradientTransform="matrix(1 0 0 1 2.2313 -3.0903)">
				<stop  offset="0" style="stop-color:#383838"/>
				<stop  offset="9.571359e-02" style="stop-color:#3D3B3C"/>
				<stop  offset="0.3006" style="stop-color:#403D3E"/>
				<stop  offset="0.3969" style="stop-color:#333031"/>
				<stop  offset="0.6347" style="stop-color:#171616"/>
				<stop  offset="0.8436" style="stop-color:#060606"/>
				<stop  offset="1" style="stop-color:#000000"/>
			</linearGradient>
			<path class="st75" d="M13.4,14.1c-0.9,0-1.7-0.4-1.7-1v0.6c0,0.5,0.8,1,1.7,1s1.7-0.4,1.7-1v-0.6C15.1,13.7,14.3,14.1,13.4,14.1z
				"/>
			<path class="st74" d="M13.4,14.1c-0.9,0-1.7-0.4-1.7-1s0.8-1,1.7-1s1.7,0.4,1.7,1S14.3,14.1,13.4,14.1z"/>
		</g>
		<g>
			
				<linearGradient id="SVGID_7_" gradientUnits="userSpaceOnUse" x1="9.7496" y1="16.3002" x2="12.5329" y2="16.3002" gradientTransform="matrix(1 0 0 1 2.2313 -3.0903)">
				<stop  offset="0" style="stop-color:#383838"/>
				<stop  offset="9.571359e-02" style="stop-color:#3D3B3C"/>
				<stop  offset="0.3006" style="stop-color:#403D3E"/>
				<stop  offset="0.3969" style="stop-color:#333031"/>
				<stop  offset="0.6347" style="stop-color:#171616"/>
				<stop  offset="0.8436" style="stop-color:#060606"/>
				<stop  offset="1" style="stop-color:#000000"/>
			</linearGradient>
			<path class="st76" d="M13.4,13.4c-0.8,0-1.4-0.4-1.4-0.8v0.5c0,0.4,0.6,0.8,1.4,0.8c0.8,0,1.4-0.4,1.4-0.8v-0.5
				C14.8,13,14.1,13.4,13.4,13.4z"/>
			<path class="st74" d="M13.4,13.4c-0.8,0-1.4-0.4-1.4-0.8c0-0.4,0.6-0.8,1.4-0.8c0.8,0,1.4,0.4,1.4,0.8
				C14.8,13,14.1,13.4,13.4,13.4z"/>
		</g>
		
			<linearGradient id="SVGID_8_" gradientUnits="userSpaceOnUse" x1="10.1158" y1="14.117" x2="12.1668" y2="14.117" gradientTransform="matrix(1 0 0 1 2.2313 -3.0903)">
			<stop  offset="0" style="stop-color:#00AAFF"/>
			<stop  offset="3.940326e-02" style="stop-color:#00A9FF"/>
			<stop  offset="0.3524" style="stop-color:#00A6FF"/>
			<stop  offset="0.5368" style="stop-color:#0086DD"/>
			<stop  offset="0.7441" style="stop-color:#0066BA"/>
			<stop  offset="1" style="stop-color:#0041AD"/>
		</linearGradient>
		<path class="st77" d="M13.4,9.5c-0.6,0-1-0.3-1-0.6v3.6c0,0.3,0.5,0.6,1,0.6c0.6,0,1-0.3,1-0.6V8.9C14.4,9.3,13.9,9.5,13.4,9.5z"
			/>
		<g>
			<g>
				
					<linearGradient id="SVGID_9_" gradientUnits="userSpaceOnUse" x1="7.854" y1="10.7666" x2="14.1266" y2="10.7666" gradientTransform="matrix(1 0 0 1 2.2313 -3.0903)">
					<stop  offset="0" style="stop-color:#383838"/>
					<stop  offset="9.571359e-02" style="stop-color:#3D3B3C"/>
					<stop  offset="0.3006" style="stop-color:#403D3E"/>
					<stop  offset="0.5494" style="stop-color:#302D2E"/>
					<stop  offset="0.7441" style="stop-color:#2A2728"/>
					<stop  offset="1" style="stop-color:#000000"/>
				</linearGradient>
				<path class="st78" d="M15.7,9c-0.6,1-1.6,2.3-2.7,2.5c-1.7,0.4-2.9-2.4-2.9-4.1c0-1.7,1.1-3.2,2.8-3.5C15.1,3.5,17.6,6,15.7,9z"
					/>
			</g>
		</g>
		<path class="st79" d="M15.7,5C15.7,5,15.7,5,15.7,5c-2.5-3.2-7.3,0.8-4.4,2.6c1.3,0.8,1.8,0.2,2-0.2c0.3-0.7,0.6-1.2,1.5-1.4
			C15.3,5.9,16.3,5.6,15.7,5z"/>
		<g>
			<path class="st80" d="M14.5,5.4c-0.3,0.1-0.5,0.1-0.8,0.3c-0.3-0.1-0.4-0.2-0.7-0.3c0.3-0.2,0.4-0.3,0.8-0.3
				c-0.1-0.1-0.2-0.1-0.3-0.1C13.2,5,13,5,12.7,5.2c-0.3-0.1-0.4-0.2-0.7-0.4c0.2-0.2,0.4-0.2,0.7-0.3c-0.1-0.1-0.1-0.1-0.2-0.2
				c-0.3,0.1-0.4,0.2-0.7,0.3c-0.1,0.1-0.1,0.1-0.2,0.2c0,0,0,0,0,0c0.3,0.3,0.5,0.4,0.8,0.6c-0.2,0.2-0.3,0.4-0.5,0.7
				c0.1,0.1,0.1,0.1,0.2,0.1c0.2-0.3,0.3-0.5,0.5-0.7c0.3,0.1,0.4,0.2,0.7,0.3c-0.3,0.2-0.4,0.4-0.6,0.7c0.1,0,0.1,0.1,0.2,0.1
				c0.5-0.8,0.9-1.1,1.7-1.2C14.6,5.4,14.6,5.4,14.5,5.4z"/>
		</g>
		<path class="st80" d="M13.1,4.1c0.1,0,0.2,0,0.3,0c0.1,0.1,0.1,0.1,0,0.2c-0.1,0-0.2,0-0.3,0C12.9,4.2,13,4.1,13.1,4.1z"/>
		<path class="st80" d="M14,4.6c0.1,0,0.2,0,0.3,0c0.1,0.1,0.1,0.1,0,0.2c-0.1,0-0.2,0-0.3,0C13.9,4.7,13.9,4.6,14,4.6z"/>
		<path class="st80" d="M12.5,7.1c0-0.1,0-0.2,0-0.3c0.1-0.1,0.1-0.1,0.2,0c0,0.1,0,0.2,0,0.3C12.7,7.2,12.6,7.2,12.5,7.1z"/>
		<path class="st80" d="M11.8,6.7c0-0.1,0-0.2,0-0.3c0.1-0.1,0.1-0.1,0.2,0c0,0.1,0,0.2,0,0.3C11.9,6.8,11.9,6.8,11.8,6.7z"/>
		<path class="st80" d="M14.9,5.1c0.1,0,0.2,0,0.3,0c0.1,0.1,0.1,0.1,0,0.2c-0.1,0-0.2,0-0.3,0C14.8,5.2,14.8,5.1,14.9,5.1z"/>
	</g>
</g>
</svg>
