<?xml version="1.0" encoding="utf-8"?>
<!-- Generator: Adobe Illustrator 24.2.1, SVG Export Plug-In . SVG Version: 6.00 Build 0)  -->
<svg version="1.1" id="Layer_1" xmlns="http://www.w3.org/2000/svg" xmlns:xlink="http://www.w3.org/1999/xlink" x="0px" y="0px"
	 viewBox="0 0 170.1 170.1" style="enable-background:new 0 0 170.1 170.1;" xml:space="preserve">
<style type="text/css">
	.st0{fill:#4D4D4D;}
</style>
<g>
	<path class="st0" d="M119.2,55.9c-5-8.1-11.8-12.5-19.1-12.5H70c-7.3,0-14,4.5-19.1,12.5c-4.9,7.8-7.5,18.1-7.5,29.1
		c0,11,2.7,21.3,7.5,29.1c5,8.1,11.8,12.5,19.1,12.5h30.1c7.3,0,14-4.5,19.1-12.5c4.8-7.8,7.5-18.1,7.5-29.1
		C126.7,74.1,124,63.7,119.2,55.9z M70,122.9c-3.9,0-7.7-1.7-10.9-4.6h11.2c1,0,1.9-0.8,1.9-1.9s-0.8-1.9-1.9-1.9H55.7
		c-1-1.4-2-2.9-2.9-4.6h5.3c1,0,1.9-0.8,1.9-1.9c0-1-0.8-1.9-1.9-1.9h-7.1c-2.5-6-3.9-13.3-3.9-21.1c0-20.9,10.2-37.9,22.8-37.9
		h18.9c-2.9,2.1-5.6,5-7.9,8.8c-4.8,7.8-7.5,18.1-7.5,29.1c0,11,2.7,21.3,7.5,29.1c2.3,3.7,5,6.7,7.9,8.8H70z M100.1,122.9
		c-12.6,0-22.8-17-22.8-37.9c0-20.9,10.2-37.9,22.8-37.9s22.8,17,22.8,37.9C122.9,105.9,112.7,122.9,100.1,122.9z"/>
	<path class="st0" d="M100.1,56C94.4,56,86,67.3,86,85s8.3,29.1,14,29.1c5.7,0,14-11.3,14-29.1S105.8,56,100.1,56z M100.1,110.4
		c-2.6,0-10.3-8.7-10.3-25.3c0-16.6,7.6-25.3,10.3-25.3c2.6,0,10.3,8.7,10.3,25.3C110.4,101.7,102.7,110.4,100.1,110.4z"/>
</g>
</svg>
