<?xml version="1.0" encoding="utf-8"?>
<!-- Generator: Adobe Illustrator 24.2.1, SVG Export Plug-In . SVG Version: 6.00 Build 0)  -->
<svg version="1.1" id="Layer_2" xmlns="http://www.w3.org/2000/svg" xmlns:xlink="http://www.w3.org/1999/xlink" x="0px" y="0px"
	 viewBox="0 0 28.3 28.3" style="enable-background:new 0 0 28.3 28.3;" xml:space="preserve">
<style type="text/css">
	.st0{opacity:0;fill:#FFFFFF;}
	.st1{opacity:3.030303e-02;fill:#FCFCFC;}
	.st2{opacity:6.060606e-02;fill:#F9F9F9;}
	.st3{opacity:9.090909e-02;fill:#F5F5F5;}
	.st4{opacity:0.1212;fill:#F2F2F2;}
	.st5{opacity:0.1515;fill:#EFEFEF;}
	.st6{opacity:0.1818;fill:#ECECEC;}
	.st7{opacity:0.2121;fill:#E8E8E8;}
	.st8{opacity:0.2424;fill:#E5E5E5;}
	.st9{opacity:0.2727;fill:#E2E2E2;}
	.st10{opacity:0.303;fill:#DFDFDF;}
	.st11{opacity:0.3333;fill:#DBDBDB;}
	.st12{opacity:0.3636;fill:#D8D8D8;}
	.st13{opacity:0.3939;fill:#D5D5D5;}
	.st14{opacity:0.4242;fill:#D2D2D2;}
	.st15{opacity:0.4545;fill:#CECECE;}
	.st16{opacity:0.4848;fill:#CBCBCB;}
	.st17{opacity:0.5152;fill:#C8C8C8;}
	.st18{opacity:0.5455;fill:#C5C5C5;}
	.st19{opacity:0.5758;fill:#C1C1C1;}
	.st20{opacity:0.6061;fill:#BEBEBE;}
	.st21{opacity:0.6364;fill:#BBBBBB;}
	.st22{opacity:0.6667;fill:#B8B8B8;}
	.st23{opacity:0.697;fill:#B4B4B4;}
	.st24{opacity:0.7273;fill:#B1B1B1;}
	.st25{opacity:0.7576;fill:#AEAEAE;}
	.st26{opacity:0.7879;fill:#ABABAB;}
	.st27{opacity:0.8182;fill:#A7A7A7;}
	.st28{opacity:0.8485;fill:#A4A4A4;}
	.st29{opacity:0.8788;fill:#A1A1A1;}
	.st30{opacity:0.9091;fill:#9E9E9E;}
	.st31{opacity:0.9394;fill:#9A9A9A;}
	.st32{opacity:0.9697;fill:#979797;}
	.st33{fill:#949494;}
	.st34{fill:#2E2E2E;}
	.st35{fill:url(#SVGID_1_);}
	.st36{fill:#37384F;}
	.st37{clip-path:url(#SVGID_3_);}
	.st38{opacity:3.030303e-02;fill:#F8F8F9;}
	.st39{opacity:6.060606e-02;fill:#F1F1F2;}
	.st40{opacity:9.090909e-02;fill:#EBEBEC;}
	.st41{opacity:0.1212;fill:#E4E4E6;}
	.st42{opacity:0.1515;fill:#DDDDDF;}
	.st43{opacity:0.1818;fill:#D6D6D9;}
	.st44{opacity:0.2121;fill:#CFCFD3;}
	.st45{opacity:0.2424;fill:#C9C9CC;}
	.st46{opacity:0.2727;fill:#C2C2C6;}
	.st47{opacity:0.303;fill:#BBBBC0;}
	.st48{opacity:0.3333;fill:#B4B4B9;}
	.st49{opacity:0.3636;fill:#AEAEB3;}
	.st50{opacity:0.3939;fill:#A7A7AD;}
	.st51{opacity:0.4242;fill:#A0A0A6;}
	.st52{opacity:0.4545;fill:#9999A0;}
	.st53{opacity:0.4848;fill:#92929A;}
	.st54{opacity:0.5152;fill:#8C8C93;}
	.st55{opacity:0.5455;fill:#85858D;}
	.st56{opacity:0.5758;fill:#7E7E87;}
	.st57{opacity:0.6061;fill:#777780;}
	.st58{opacity:0.6364;fill:#70707A;}
	.st59{opacity:0.6667;fill:#6A6A74;}
	.st60{opacity:0.697;fill:#63636D;}
	.st61{opacity:0.7273;fill:#5C5C67;}
	.st62{opacity:0.7576;fill:#555561;}
	.st63{opacity:0.7879;fill:#4F4F5A;}
	.st64{opacity:0.8182;fill:#484854;}
	.st65{opacity:0.8485;fill:#41414E;}
	.st66{opacity:0.8788;fill:#3A3A47;}
	.st67{opacity:0.9091;fill:#333341;}
	.st68{opacity:0.9394;fill:#2D2D3B;}
	.st69{opacity:0.9697;fill:#262634;}
	.st70{fill:#1F1F2E;}
	.st71{fill:url(#SVGID_4_);}
	.st72{fill:url(#SVGID_5_);}
	.st73{fill:#008CFF;}
</style>
<g>
	<g>
		<path class="st0" d="M23,13c-5.3-3-10.7-3-16,0h0c-2.6,1.5-4,3.1-4,4.6c0,1.5,1.3,3.1,4,4.6c5.3,3,10.7,3,16,0
			c2.6-1.5,4-3.1,4-4.6C27,16.1,25.6,14.5,23,13z"/>
		<path class="st1" d="M22.9,13c-5.3-3-10.7-3-16,0h0c-2.6,1.5-4,3.1-4,4.6c0,1.5,1.3,3.1,4,4.6c5.3,3,10.7,3,16,0
			c2.6-1.5,4-3.1,4-4.6C26.9,16.1,25.6,14.5,22.9,13z"/>
		<path class="st2" d="M22.9,13c-5.3-3-10.7-3-16,0h0c-2.6,1.5-4,3.1-4,4.6c0,1.5,1.3,3.1,4,4.6c5.3,3,10.7,3,16,0
			c2.6-1.5,4-3.1,4-4.6C26.9,16.1,25.5,14.5,22.9,13z"/>
		<path class="st3" d="M22.8,13c-5.3-3-10.7-3-16,0h0c-2.6,1.5-4,3.1-4,4.6c0,1.5,1.3,3.1,4,4.6c5.3,3,10.7,3,16,0
			c2.6-1.5,4-3.1,4-4.6C26.8,16.1,25.5,14.5,22.8,13z"/>
		<path class="st4" d="M22.8,13c-5.3-3-10.7-3-16,0h0c-2.6,1.5-4,3.1-4,4.6c0,1.5,1.3,3.1,4,4.6c5.3,3,10.7,3,16,0
			c2.6-1.5,4-3.1,4-4.6C26.8,16.1,25.4,14.5,22.8,13z"/>
		<path class="st5" d="M22.7,13c-5.3-3-10.7-3-16,0h0c-2.6,1.5-4,3.1-4,4.6c0,1.5,1.3,3.1,4,4.6c5.3,3,10.7,3,16,0
			c2.6-1.5,4-3.1,4-4.6C26.7,16.1,25.4,14.5,22.7,13z"/>
		<path class="st6" d="M22.7,13c-5.3-3-10.7-3-16,0h0c-2.6,1.5-4,3.1-4,4.6c0,1.5,1.3,3.1,4,4.6c5.3,3,10.7,3,16,0
			c2.6-1.5,4-3.1,4-4.6C26.7,16.1,25.3,14.5,22.7,13z"/>
		<path class="st7" d="M22.6,13c-5.3-3-10.7-3-16,0h0c-2.6,1.5-4,3.1-4,4.6c0,1.5,1.3,3.1,4,4.6c5.3,3,10.7,3,16,0
			c2.6-1.5,4-3.1,4-4.6C26.6,16.1,25.3,14.5,22.6,13z"/>
		<path class="st8" d="M22.6,13c-5.3-3-10.7-3-16,0h0c-2.6,1.5-4,3.1-4,4.6c0,1.5,1.3,3.1,4,4.6c5.3,3,10.7,3,16,0
			c2.6-1.5,4-3.1,4-4.6C26.6,16.1,25.2,14.5,22.6,13z"/>
		<path class="st9" d="M22.5,13c-5.3-3-10.7-3-16,0h0c-2.6,1.5-4,3.1-4,4.6c0,1.5,1.3,3.1,4,4.6c5.3,3,10.7,3,16,0
			c2.6-1.5,4-3.1,4-4.6C26.5,16.1,25.2,14.5,22.5,13z"/>
		<path class="st10" d="M22.5,13c-5.3-3-10.7-3-16,0h0c-2.6,1.5-4,3.1-4,4.6c0,1.5,1.3,3.1,4,4.6c5.3,3,10.7,3,16,0
			c2.6-1.5,4-3.1,4-4.6C26.5,16.1,25.1,14.5,22.5,13z"/>
		<path class="st11" d="M22.4,13c-5.3-3-10.7-3-16,0h0c-2.6,1.5-4,3.1-4,4.6c0,1.5,1.3,3.1,4,4.6c5.3,3,10.7,3,16,0
			c2.6-1.5,4-3.1,4-4.6C26.4,16.1,25.1,14.5,22.4,13z"/>
		<path class="st12" d="M22.4,13c-5.3-3-10.7-3-16,0h0c-2.6,1.5-4,3.1-4,4.6c0,1.5,1.3,3.1,4,4.6c5.3,3,10.7,3,16,0
			c2.6-1.5,4-3.1,4-4.6C26.4,16.1,25,14.5,22.4,13z"/>
		<path class="st13" d="M22.3,13c-5.3-3-10.7-3-16,0h0c-2.6,1.5-4,3.1-4,4.6c0,1.5,1.3,3.1,4,4.6c5.3,3,10.7,3,16,0
			c2.6-1.5,4-3.1,4-4.6C26.3,16.1,25,14.5,22.3,13z"/>
		<path class="st14" d="M22.3,13c-5.3-3-10.7-3-16,0h0c-2.6,1.5-4,3.1-4,4.6c0,1.5,1.3,3.1,4,4.6c5.3,3,10.7,3,16,0
			c2.6-1.5,4-3.1,4-4.6C26.3,16.1,24.9,14.5,22.3,13z"/>
		<path class="st15" d="M22.2,13c-5.3-3-10.7-3-16,0h0c-2.6,1.5-4,3.1-4,4.6c0,1.5,1.3,3.1,4,4.6c5.3,3,10.7,3,16,0
			c2.6-1.5,4-3.1,4-4.6C26.2,16.1,24.9,14.5,22.2,13z"/>
		<path class="st16" d="M22.2,13c-5.3-3-10.7-3-16,0h0c-2.6,1.5-4,3.1-4,4.6c0,1.5,1.3,3.1,4,4.6c5.3,3,10.7,3,16,0
			c2.6-1.5,4-3.1,4-4.6C26.2,16.1,24.8,14.5,22.2,13z"/>
		<path class="st17" d="M22.1,13c-5.3-3-10.7-3-16,0h0c-2.6,1.5-4,3.1-4,4.6c0,1.5,1.3,3.1,4,4.6c5.3,3,10.7,3,16,0
			c2.6-1.5,4-3.1,4-4.6C26.1,16.1,24.8,14.5,22.1,13z"/>
		<path class="st18" d="M22.1,13c-5.3-3-10.7-3-16,0h0c-2.6,1.5-4,3.1-4,4.6c0,1.5,1.3,3.1,4,4.6c5.3,3,10.7,3,16,0
			c2.6-1.5,4-3.1,4-4.6C26.1,16.1,24.7,14.5,22.1,13z"/>
		<path class="st19" d="M22,13c-5.3-3-10.7-3-16,0h0c-2.6,1.5-4,3.1-4,4.6c0,1.5,1.3,3.1,4,4.6c5.3,3,10.7,3,16,0
			c2.6-1.5,4-3.1,4-4.6C26,16.1,24.7,14.5,22,13z"/>
		<path class="st20" d="M22,13c-5.3-3-10.7-3-16,0h0c-2.6,1.5-4,3.1-4,4.6c0,1.5,1.3,3.1,4,4.6c5.3,3,10.7,3,16,0
			c2.6-1.5,4-3.1,4-4.6C26,16.1,24.6,14.5,22,13z"/>
		<path class="st21" d="M22,13c-5.3-3-10.7-3-16,0h0c-2.6,1.5-4,3.1-4,4.6c0,1.5,1.3,3.1,4,4.6c5.3,3,10.7,3,16,0
			c2.6-1.5,4-3.1,4-4.6C25.9,16.1,24.6,14.5,22,13z"/>
		<path class="st22" d="M21.9,13c-5.3-3-10.7-3-16,0h0c-2.6,1.5-4,3.1-4,4.6c0,1.5,1.3,3.1,4,4.6c5.3,3,10.7,3,16,0
			c2.6-1.5,4-3.1,4-4.6C25.9,16.1,24.5,14.5,21.9,13z"/>
		<path class="st23" d="M21.9,13c-5.3-3-10.7-3-16,0h0c-2.6,1.5-4,3.1-4,4.6c0,1.5,1.3,3.1,4,4.6c5.3,3,10.7,3,16,0
			c2.6-1.5,4-3.1,4-4.6C25.8,16.1,24.5,14.5,21.9,13z"/>
		<path class="st24" d="M21.8,13c-5.3-3-10.7-3-16,0h0c-2.6,1.5-4,3.1-4,4.6c0,1.5,1.3,3.1,4,4.6c5.3,3,10.7,3,16,0
			c2.6-1.5,4-3.1,4-4.6C25.8,16.1,24.4,14.5,21.8,13z"/>
		<path class="st25" d="M21.8,13c-5.3-3-10.7-3-16,0h0c-2.6,1.5-4,3.1-4,4.6c0,1.5,1.3,3.1,4,4.6c5.3,3,10.7,3,16,0
			c2.6-1.5,4-3.1,4-4.6C25.7,16.1,24.4,14.5,21.8,13z"/>
		<path class="st26" d="M21.7,13c-5.3-3-10.7-3-16,0h0c-2.6,1.5-4,3.1-4,4.6c0,1.5,1.3,3.1,4,4.6c5.3,3,10.7,3,16,0
			c2.6-1.5,4-3.1,4-4.6C25.7,16.1,24.3,14.5,21.7,13z"/>
		<path class="st27" d="M21.7,13c-5.3-3-10.7-3-16,0h0c-2.6,1.5-4,3.1-4,4.6c0,1.5,1.3,3.1,4,4.6c5.3,3,10.7,3,16,0
			c2.6-1.5,4-3.1,4-4.6C25.6,16.1,24.3,14.5,21.7,13z"/>
		<path class="st28" d="M21.6,13c-5.3-3-10.7-3-16,0h0c-2.6,1.5-4,3.1-4,4.6c0,1.5,1.3,3.1,4,4.6c5.3,3,10.7,3,16,0
			c2.6-1.5,4-3.1,4-4.6C25.6,16.1,24.2,14.5,21.6,13z"/>
		<path class="st29" d="M21.6,13c-5.3-3-10.7-3-16,0h0c-2.6,1.5-4,3.1-4,4.6c0,1.5,1.3,3.1,4,4.6c5.3,3,10.7,3,16,0
			c2.6-1.5,4-3.1,4-4.6C25.5,16.1,24.2,14.5,21.6,13z"/>
		<path class="st30" d="M21.5,13c-5.3-3-10.7-3-16,0h0c-2.6,1.5-4,3.1-4,4.6c0,1.5,1.3,3.1,4,4.6c5.3,3,10.7,3,16,0
			c2.6-1.5,4-3.1,4-4.6C25.5,16.1,24.1,14.5,21.5,13z"/>
		<path class="st31" d="M21.5,13c-5.3-3-10.7-3-16,0h0c-2.6,1.5-4,3.1-4,4.6c0,1.5,1.3,3.1,4,4.6c5.3,3,10.7,3,16,0
			c2.6-1.5,4-3.1,4-4.6C25.4,16.1,24.1,14.5,21.5,13z"/>
		<path class="st32" d="M21.4,13c-5.3-3-10.7-3-16,0h0c-2.6,1.5-4,3.1-4,4.6c0,1.5,1.3,3.1,4,4.6c5.3,3,10.7,3,16,0
			c2.6-1.5,4-3.1,4-4.6C25.4,16.1,24,14.5,21.4,13z"/>
		<path class="st33" d="M21.4,13c-5.3-3-10.7-3-16,0l0,0c-2.6,1.5-4,3.1-4,4.6c0,1.5,1.3,3.1,4,4.6c5.3,3,10.7,3,16,0
			c2.6-1.5,4-3.1,4-4.6C25.3,16.1,24,14.5,21.4,13z"/>
	</g>
	<g>
		<path class="st34" d="M21.4,13c-5.3-3-10.7-3-16,0h0c-2.6,1.5-4,3.1-4,4.6c0,1.5,1.3,3.1,4,4.6c5.3,3,10.7,3,16,0
			c2.6-1.5,4-3.1,4-4.6C25.3,16.1,24,14.5,21.4,13z"/>
		<linearGradient id="SVGID_1_" gradientUnits="userSpaceOnUse" x1="1.376" y1="19.9142" x2="25.3165" y2="19.9142">
			<stop  offset="0" style="stop-color:#545770"/>
			<stop  offset="9.538691e-02" style="stop-color:#50536B"/>
			<stop  offset="0.2996" style="stop-color:#4E5168"/>
			<stop  offset="0.3775" style="stop-color:#464960"/>
			<stop  offset="0.587" style="stop-color:#353850"/>
			<stop  offset="0.7441" style="stop-color:#2F324A"/>
			<stop  offset="1" style="stop-color:#20233D"/>
		</linearGradient>
		<path class="st35" d="M21.4,19.9c-5.3,3-10.7,3-16,0c-2.6-1.5-4-3.1-4-4.6v2.3c0,1.5,1.3,3.1,4,4.6c5.3,3,10.7,3,16,0
			c2.6-1.5,4-3.1,4-4.6v-2.3C25.3,16.9,24,18.4,21.4,19.9z"/>
		<path class="st36" d="M21.4,10.7c-5.3-3-10.7-3-16,0h0c-2.6,1.5-4,3.1-4,4.6c0,1.5,1.3,3.1,4,4.6c5.3,3,10.7,3,16,0
			c2.6-1.5,4-3.1,4-4.6C25.3,13.8,24,12.2,21.4,10.7z"/>
	</g>
	<g>
		<defs>
			<path id="SVGID_2_" d="M21.4,10.7c-5.3-3-10.7-3-16,0h0c-2.6,1.5-4,3.1-4,4.6c0,1.5,1.3,3.1,4,4.6c5.3,3,10.7,3,16,0
				c2.6-1.5,4-3.1,4-4.6C25.3,13.8,24,12.2,21.4,10.7z"/>
		</defs>
		<clipPath id="SVGID_3_">
			<use xlink:href="#SVGID_2_"  style="overflow:visible;"/>
		</clipPath>
		<g class="st37">
			<path class="st0" d="M28.8,10.7l-1.4-0.8l1.5-2.4c0.2-0.3,0-0.8-0.4-1l-4.9-2.8c-0.2-0.1-0.4-0.1-0.6-0.1l-2.8,1.6
				c-0.1,0.1-0.2,0.2-0.2,0.4l-0.5,5.8c0,0.5,0.3,1,0.7,1.3l1.5,0.9l-0.7,2.8c-0.1,0.4,0,0.9,0.3,1c0.2,0.1,0.5,0.1,0.8,0
				c0,0,0.1-0.1,0.1-0.1c0,0-0.1,0.1-0.1,0.1l2.8-1.6c0.1,0,0.1-0.1,0.2-0.1l4.2-4C29.4,11.3,29.2,10.9,28.8,10.7z"/>
			<path class="st38" d="M28.5,10.7l-1.4-0.8l1.5-2.4c0.2-0.3,0-0.8-0.4-1l-4.9-2.8c-0.2-0.1-0.4-0.1-0.6-0.1l-2.8,1.6
				c-0.1,0.1-0.2,0.2-0.2,0.4l-0.5,5.8c0,0.5,0.3,1,0.7,1.3l1.5,0.9l-0.7,2.8c-0.1,0.4,0,0.9,0.3,1c0.2,0.1,0.5,0.1,0.8,0
				c0,0,0.1-0.1,0.1-0.1c0,0-0.1,0.1-0.1,0.1l2.8-1.6c0.1,0,0.1-0.1,0.2-0.1l4.2-4C29.1,11.3,28.9,10.9,28.5,10.7z"/>
			<path class="st39" d="M28.2,10.7l-1.4-0.8l1.5-2.4c0.2-0.3,0-0.8-0.4-1L23,3.6c-0.2-0.1-0.4-0.1-0.6-0.1l-2.8,1.6
				c-0.1,0.1-0.2,0.2-0.2,0.4l-0.5,5.8c0,0.5,0.3,1,0.7,1.3l1.5,0.9l-0.7,2.8c-0.1,0.4,0,0.9,0.3,1c0.2,0.1,0.5,0.1,0.8,0
				c0,0,0.1-0.1,0.1-0.1c0,0-0.1,0.1-0.1,0.1l2.8-1.6c0.1,0,0.1-0.1,0.2-0.1l4.2-4C28.8,11.3,28.6,10.9,28.2,10.7z"/>
			<path class="st40" d="M27.9,10.7l-1.4-0.8L28,7.5c0.2-0.3,0-0.8-0.4-1l-4.9-2.8c-0.2-0.1-0.4-0.1-0.6-0.1l-2.8,1.6
				c-0.1,0.1-0.2,0.2-0.2,0.4l-0.5,5.8c0,0.5,0.3,1,0.7,1.3l1.5,0.9L20,16.3c-0.1,0.4,0,0.9,0.3,1c0.2,0.1,0.5,0.1,0.8,0
				c0,0,0.1-0.1,0.1-0.1c0,0-0.1,0.1-0.1,0.1l2.8-1.6c0.1,0,0.1-0.1,0.2-0.1l4.2-4C28.5,11.3,28.3,10.9,27.9,10.7z"/>
			<path class="st41" d="M27.6,10.7l-1.4-0.8l1.5-2.4c0.2-0.3,0-0.8-0.4-1l-4.9-2.8c-0.2-0.1-0.4-0.1-0.6-0.1L19,5.2
				c-0.1,0.1-0.2,0.2-0.2,0.4l-0.5,5.8c0,0.5,0.3,1,0.7,1.3l1.5,0.9l-0.7,2.8c-0.1,0.4,0,0.9,0.3,1c0.2,0.1,0.5,0.1,0.8,0
				c0,0,0.1-0.1,0.1-0.1c0,0-0.1,0.1-0.1,0.1l2.8-1.6c0.1,0,0.1-0.1,0.2-0.1l4.2-4C28.2,11.3,28,10.9,27.6,10.7z"/>
			<path class="st42" d="M27.3,10.7l-1.4-0.8l1.5-2.4c0.2-0.3,0-0.8-0.4-1l-4.9-2.8c-0.2-0.1-0.4-0.1-0.6-0.1l-2.8,1.6
				c-0.1,0.1-0.2,0.2-0.2,0.4l-0.5,5.8c0,0.5,0.3,1,0.7,1.3l1.5,0.9l-0.7,2.8c-0.1,0.4,0,0.9,0.3,1c0.2,0.1,0.5,0.1,0.8,0
				c0,0,0.1-0.1,0.1-0.1c0,0-0.1,0.1-0.1,0.1l2.8-1.6c0.1,0,0.1-0.1,0.2-0.1l4.2-4C27.9,11.3,27.7,10.9,27.3,10.7z"/>
			<path class="st43" d="M27,10.7l-1.4-0.8l1.5-2.4c0.2-0.3,0-0.8-0.4-1l-4.9-2.8c-0.2-0.1-0.4-0.1-0.6-0.1l-2.8,1.6
				c-0.1,0.1-0.2,0.2-0.2,0.4l-0.5,5.8c0,0.5,0.3,1,0.7,1.3l1.5,0.9l-0.7,2.8c-0.1,0.4,0,0.9,0.3,1c0.2,0.1,0.5,0.1,0.8,0
				c0,0,0.1-0.1,0.1-0.1c0,0-0.1,0.1-0.1,0.1l2.8-1.6c0.1,0,0.1-0.1,0.2-0.1l4.2-4C27.6,11.3,27.4,10.9,27,10.7z"/>
			<path class="st44" d="M26.7,10.7l-1.4-0.8l1.5-2.4c0.2-0.3,0-0.8-0.4-1l-4.9-2.8c-0.2-0.1-0.4-0.1-0.6-0.1l-2.8,1.6
				c-0.1,0.1-0.2,0.2-0.2,0.4l-0.5,5.8c0,0.5,0.3,1,0.7,1.3l1.5,0.9l-0.7,2.8c-0.1,0.4,0,0.9,0.3,1c0.2,0.1,0.5,0.1,0.8,0
				c0,0,0.1-0.1,0.1-0.1c0,0-0.1,0.1-0.1,0.1l2.8-1.6c0.1,0,0.1-0.1,0.2-0.1l4.2-4C27.3,11.3,27.1,10.9,26.7,10.7z"/>
			<path class="st45" d="M26.4,10.7L25,9.9l1.5-2.4c0.2-0.3,0-0.8-0.4-1l-4.9-2.8c-0.2-0.1-0.4-0.1-0.6-0.1l-2.8,1.6
				c-0.1,0.1-0.2,0.2-0.2,0.4L17,11.4c0,0.5,0.3,1,0.7,1.3l1.5,0.9l-0.7,2.8c-0.1,0.4,0,0.9,0.3,1c0.2,0.1,0.5,0.1,0.8,0
				c0,0,0.1-0.1,0.1-0.1c0,0-0.1,0.1-0.1,0.1l2.8-1.6c0.1,0,0.1-0.1,0.2-0.1l4.2-4C27,11.3,26.8,10.9,26.4,10.7z"/>
			<path class="st46" d="M26.1,10.7l-1.4-0.8l1.5-2.4c0.2-0.3,0-0.8-0.4-1l-4.9-2.8c-0.2-0.1-0.4-0.1-0.6-0.1l-2.8,1.6
				c-0.1,0.1-0.2,0.2-0.2,0.4l-0.5,5.8c0,0.5,0.3,1,0.7,1.3l1.5,0.9l-0.7,2.8c-0.1,0.4,0,0.9,0.3,1c0.2,0.1,0.5,0.1,0.8,0
				c0,0,0.1-0.1,0.1-0.1c0,0-0.1,0.1-0.1,0.1l2.8-1.6c0.1,0,0.1-0.1,0.2-0.1l4.2-4C26.7,11.3,26.5,10.9,26.1,10.7z"/>
			<path class="st47" d="M25.8,10.7l-1.4-0.8l1.5-2.4c0.2-0.3,0-0.8-0.4-1l-4.9-2.8c-0.2-0.1-0.4-0.1-0.6-0.1l-2.8,1.6
				C17,5.3,17,5.4,16.9,5.6l-0.5,5.8c0,0.5,0.3,1,0.7,1.3l1.5,0.9l-0.7,2.8c-0.1,0.4,0,0.9,0.3,1c0.2,0.1,0.5,0.1,0.8,0
				c0,0,0.1-0.1,0.1-0.1c0,0-0.1,0.1-0.1,0.1l2.8-1.6c0.1,0,0.1-0.1,0.2-0.1l4.2-4C26.4,11.3,26.2,10.9,25.8,10.7z"/>
			<path class="st48" d="M25.5,10.7l-1.4-0.8l1.5-2.4c0.2-0.3,0-0.8-0.4-1l-4.9-2.8c-0.2-0.1-0.4-0.1-0.6-0.1l-2.8,1.6
				c-0.1,0.1-0.2,0.2-0.2,0.4l-0.5,5.8c0,0.5,0.3,1,0.7,1.3l1.5,0.9l-0.7,2.8c-0.1,0.4,0,0.9,0.3,1c0.2,0.1,0.5,0.1,0.8,0
				c0,0,0.1-0.1,0.1-0.1c0,0-0.1,0.1-0.1,0.1l2.8-1.6c0.1,0,0.1-0.1,0.2-0.1l4.2-4C26.1,11.3,25.9,10.9,25.5,10.7z"/>
			<path class="st49" d="M25.2,10.7l-1.4-0.8l1.5-2.4c0.2-0.3,0-0.8-0.4-1L20,3.6c-0.2-0.1-0.4-0.1-0.6-0.1l-2.8,1.6
				c-0.1,0.1-0.2,0.2-0.2,0.4l-0.5,5.8c0,0.5,0.3,1,0.7,1.3l1.5,0.9l-0.7,2.8c-0.1,0.4,0,0.9,0.3,1c0.2,0.1,0.5,0.1,0.8,0
				c0,0,0.1-0.1,0.1-0.1c0,0-0.1,0.1-0.1,0.1l2.8-1.6c0.1,0,0.1-0.1,0.2-0.1l4.2-4C25.8,11.3,25.6,10.9,25.2,10.7z"/>
			<path class="st50" d="M24.9,10.7l-1.4-0.8L25,7.5c0.2-0.3,0-0.8-0.4-1l-4.9-2.8c-0.2-0.1-0.4-0.1-0.6-0.1l-2.8,1.6
				C16.1,5.3,16,5.4,16,5.6l-0.5,5.8c0,0.5,0.3,1,0.7,1.3l1.5,0.9L17,16.3c-0.1,0.4,0,0.9,0.3,1c0.2,0.1,0.5,0.1,0.8,0
				c0,0,0.1-0.1,0.1-0.1c0,0-0.1,0.1-0.1,0.1l2.8-1.6c0.1,0,0.1-0.1,0.2-0.1l4.2-4C25.5,11.3,25.3,10.9,24.9,10.7z"/>
			<path class="st51" d="M24.6,10.7l-1.4-0.8l1.5-2.4c0.2-0.3,0-0.8-0.4-1l-4.9-2.8c-0.2-0.1-0.4-0.1-0.6-0.1L16,5.2
				c-0.1,0.1-0.2,0.2-0.2,0.4l-0.5,5.8c0,0.5,0.3,1,0.7,1.3l1.5,0.9l-0.7,2.8c-0.1,0.4,0,0.9,0.3,1c0.2,0.1,0.5,0.1,0.8,0
				c0,0,0.1-0.1,0.1-0.1c0,0-0.1,0.1-0.1,0.1l2.8-1.6c0.1,0,0.1-0.1,0.2-0.1l4.2-4C25.2,11.3,25,10.9,24.6,10.7z"/>
			<path class="st52" d="M24.3,10.7l-1.4-0.8l1.5-2.4c0.2-0.3,0-0.8-0.4-1l-4.9-2.8c-0.2-0.1-0.4-0.1-0.6-0.1l-2.8,1.6
				c-0.1,0.1-0.2,0.2-0.2,0.4l-0.5,5.8c0,0.5,0.3,1,0.7,1.3l1.5,0.9l-0.7,2.8c-0.1,0.4,0,0.9,0.3,1c0.2,0.1,0.5,0.1,0.8,0
				c0,0,0.1-0.1,0.1-0.1c0,0-0.1,0.1-0.1,0.1l2.8-1.6c0.1,0,0.1-0.1,0.2-0.1l4.2-4C24.9,11.3,24.7,10.9,24.3,10.7z"/>
			<path class="st53" d="M24,10.7l-1.4-0.8l1.5-2.4c0.2-0.3,0-0.8-0.4-1l-4.9-2.8c-0.2-0.1-0.4-0.1-0.6-0.1l-2.8,1.6
				c-0.1,0.1-0.2,0.2-0.2,0.4l-0.5,5.8c0,0.5,0.3,1,0.7,1.3l1.5,0.9l-0.7,2.8c-0.1,0.4,0,0.9,0.3,1c0.2,0.1,0.5,0.1,0.8,0
				c0,0,0.1-0.1,0.1-0.1c0,0-0.1,0.1-0.1,0.1l2.8-1.6c0.1,0,0.1-0.1,0.2-0.1l4.2-4C24.6,11.3,24.4,10.9,24,10.7z"/>
			<path class="st54" d="M23.7,10.7l-1.4-0.8l1.5-2.4c0.2-0.3,0-0.8-0.4-1l-4.9-2.8c-0.2-0.1-0.4-0.1-0.6-0.1l-2.8,1.6
				c-0.1,0.1-0.2,0.2-0.2,0.4l-0.5,5.8c0,0.5,0.3,1,0.7,1.3l1.5,0.9l-0.7,2.8c-0.1,0.4,0,0.9,0.3,1c0.2,0.1,0.5,0.1,0.8,0
				c0,0,0.1-0.1,0.1-0.1c0,0-0.1,0.1-0.1,0.1l2.8-1.6c0.1,0,0.1-0.1,0.2-0.1l4.2-4C24.3,11.3,24.1,10.9,23.7,10.7z"/>
			<path class="st55" d="M23.4,10.7L22,9.9l1.5-2.4c0.2-0.3,0-0.8-0.4-1l-4.9-2.8c-0.2-0.1-0.4-0.1-0.6-0.1l-2.8,1.6
				c-0.1,0.1-0.2,0.2-0.2,0.4L14,11.4c0,0.5,0.3,1,0.7,1.3l1.5,0.9l-0.7,2.8c-0.1,0.4,0,0.9,0.3,1c0.2,0.1,0.5,0.1,0.8,0
				c0,0,0.1-0.1,0.1-0.1c0,0-0.1,0.1-0.1,0.1l2.8-1.6c0.1,0,0.1-0.1,0.2-0.1l4.2-4C24,11.3,23.8,10.9,23.4,10.7z"/>
			<path class="st56" d="M23.1,10.7l-1.4-0.8l1.5-2.4c0.2-0.3,0-0.8-0.4-1l-4.9-2.8c-0.2-0.1-0.4-0.1-0.6-0.1l-2.8,1.6
				c-0.1,0.1-0.2,0.2-0.2,0.4l-0.5,5.8c0,0.5,0.3,1,0.7,1.3l1.5,0.9l-0.7,2.8c-0.1,0.4,0,0.9,0.3,1c0.2,0.1,0.5,0.1,0.8,0
				c0,0,0.1-0.1,0.1-0.1c0,0-0.1,0.1-0.1,0.1l2.8-1.6c0.1,0,0.1-0.1,0.2-0.1l4.2-4C23.6,11.3,23.5,10.9,23.1,10.7z"/>
			<path class="st57" d="M22.8,10.7l-1.4-0.8l1.5-2.4c0.2-0.3,0-0.8-0.4-1l-4.9-2.8c-0.2-0.1-0.4-0.1-0.6-0.1l-2.8,1.6
				c-0.1,0.1-0.2,0.2-0.2,0.4l-0.5,5.8c0,0.5,0.3,1,0.7,1.3l1.5,0.9l-0.7,2.8c-0.1,0.4,0,0.9,0.3,1c0.2,0.1,0.5,0.1,0.8,0
				c0,0,0.1-0.1,0.1-0.1c0,0-0.1,0.1-0.1,0.1l2.8-1.6c0.1,0,0.1-0.1,0.2-0.1l4.2-4C23.3,11.3,23.2,10.9,22.8,10.7z"/>
			<path class="st58" d="M22.5,10.7l-1.4-0.8l1.5-2.4c0.2-0.3,0-0.8-0.4-1l-4.9-2.8c-0.2-0.1-0.4-0.1-0.6-0.1l-2.8,1.6
				c-0.1,0.1-0.2,0.2-0.2,0.4l-0.5,5.8c0,0.5,0.3,1,0.7,1.3l1.5,0.9l-0.7,2.8c-0.1,0.4,0,0.9,0.3,1c0.2,0.1,0.5,0.1,0.8,0
				c0,0,0.1-0.1,0.1-0.1c0,0-0.1,0.1-0.1,0.1l2.8-1.6c0.1,0,0.1-0.1,0.2-0.1l4.2-4C23,11.3,22.9,10.9,22.5,10.7z"/>
			<path class="st59" d="M22.2,10.7l-1.4-0.8l1.5-2.4c0.2-0.3,0-0.8-0.4-1L17,3.6c-0.2-0.1-0.4-0.1-0.6-0.1l-2.8,1.6
				c-0.1,0.1-0.2,0.2-0.2,0.4l-0.5,5.8c0,0.5,0.3,1,0.7,1.3l1.5,0.9l-0.7,2.8c-0.1,0.4,0,0.9,0.3,1c0.2,0.1,0.5,0.1,0.8,0
				c0,0,0.1-0.1,0.1-0.1c0,0-0.1,0.1-0.1,0.1l2.8-1.6c0.1,0,0.1-0.1,0.2-0.1l4.2-4C22.7,11.3,22.6,10.9,22.2,10.7z"/>
			<path class="st60" d="M21.9,10.7l-1.4-0.8L22,7.5c0.2-0.3,0-0.8-0.4-1l-4.9-2.8c-0.2-0.1-0.4-0.1-0.6-0.1l-2.8,1.6
				C13.1,5.3,13,5.4,13,5.6l-0.5,5.8c0,0.5,0.3,1,0.7,1.3l1.5,0.9L14,16.3c-0.1,0.4,0,0.9,0.3,1c0.2,0.1,0.5,0.1,0.8,0
				c0,0,0.1-0.1,0.1-0.1c0,0-0.1,0.1-0.1,0.1l2.8-1.6c0.1,0,0.1-0.1,0.2-0.1l4.2-4C22.4,11.3,22.3,10.9,21.9,10.7z"/>
			<path class="st61" d="M21.6,10.7l-1.4-0.8l1.5-2.4c0.2-0.3,0-0.8-0.4-1l-4.9-2.8c-0.2-0.1-0.4-0.1-0.6-0.1L13,5.2
				c-0.1,0.1-0.2,0.2-0.2,0.4l-0.5,5.8c0,0.5,0.3,1,0.7,1.3l1.5,0.9l-0.7,2.8c-0.1,0.4,0,0.9,0.3,1c0.2,0.1,0.5,0.1,0.8,0
				c0,0,0.1-0.1,0.1-0.1c0,0-0.1,0.1-0.1,0.1l2.8-1.6c0.1,0,0.1-0.1,0.2-0.1l4.2-4C22.1,11.3,22,10.9,21.6,10.7z"/>
			<path class="st62" d="M21.3,10.7l-1.4-0.8l1.5-2.4c0.2-0.3,0-0.8-0.4-1l-4.9-2.8c-0.2-0.1-0.4-0.1-0.6-0.1l-2.8,1.6
				c-0.1,0.1-0.2,0.2-0.2,0.4l-0.5,5.8c0,0.5,0.3,1,0.7,1.3l1.5,0.9l-0.7,2.8c-0.1,0.4,0,0.9,0.3,1c0.2,0.1,0.5,0.1,0.8,0
				c0,0,0.1-0.1,0.1-0.1c0,0-0.1,0.1-0.1,0.1l2.8-1.6c0.1,0,0.1-0.1,0.2-0.1l4.2-4C21.8,11.3,21.7,10.9,21.3,10.7z"/>
			<path class="st63" d="M21,10.7l-1.4-0.8l1.5-2.4c0.2-0.3,0-0.8-0.4-1l-4.9-2.8c-0.2-0.1-0.4-0.1-0.6-0.1l-2.8,1.6
				c-0.1,0.1-0.2,0.2-0.2,0.4l-0.5,5.8c0,0.5,0.3,1,0.7,1.3l1.5,0.9l-0.7,2.8c-0.1,0.4,0,0.9,0.3,1c0.2,0.1,0.5,0.1,0.8,0
				c0,0,0.1-0.1,0.1-0.1c0,0-0.1,0.1-0.1,0.1l2.8-1.6c0.1,0,0.1-0.1,0.2-0.1l4.2-4C21.5,11.3,21.4,10.9,21,10.7z"/>
			<path class="st64" d="M20.7,10.7l-1.4-0.8l1.5-2.4c0.2-0.3,0-0.8-0.4-1l-4.9-2.8c-0.2-0.1-0.4-0.1-0.6-0.1l-2.8,1.6
				c-0.1,0.1-0.2,0.2-0.2,0.4l-0.5,5.8c0,0.5,0.3,1,0.7,1.3l1.5,0.9l-0.7,2.8c-0.1,0.4,0,0.9,0.3,1c0.2,0.1,0.5,0.1,0.8,0
				c0,0,0.1-0.1,0.1-0.1c0,0-0.1,0.1-0.1,0.1l2.8-1.6c0.1,0,0.1-0.1,0.2-0.1l4.2-4C21.2,11.3,21.1,10.9,20.7,10.7z"/>
			<path class="st65" d="M20.4,10.7L19,9.9l1.5-2.4c0.2-0.3,0-0.8-0.4-1l-4.9-2.8c-0.2-0.1-0.4-0.1-0.6-0.1l-2.8,1.6
				c-0.1,0.1-0.2,0.2-0.2,0.4L11,11.4c0,0.5,0.3,1,0.7,1.3l1.5,0.9l-0.7,2.8c-0.1,0.4,0,0.9,0.3,1c0.2,0.1,0.5,0.1,0.8,0
				c0,0,0.1-0.1,0.1-0.1c0,0-0.1,0.1-0.1,0.1l2.8-1.6c0.1,0,0.1-0.1,0.2-0.1l4.2-4C20.9,11.3,20.8,10.9,20.4,10.7z"/>
			<path class="st66" d="M20.1,10.7l-1.4-0.8l1.5-2.4c0.2-0.3,0-0.8-0.4-1l-4.9-2.8c-0.2-0.1-0.4-0.1-0.6-0.1l-2.8,1.6
				c-0.1,0.1-0.2,0.2-0.2,0.4l-0.5,5.8c0,0.5,0.3,1,0.7,1.3l1.5,0.9l-0.7,2.8c-0.1,0.4,0,0.9,0.3,1c0.2,0.1,0.5,0.1,0.8,0
				c0,0,0.1-0.1,0.1-0.1c0,0-0.1,0.1-0.1,0.1l2.8-1.6c0.1,0,0.1-0.1,0.2-0.1l4.2-4C20.6,11.3,20.5,10.9,20.1,10.7z"/>
			<path class="st67" d="M19.8,10.7l-1.4-0.8l1.5-2.4c0.2-0.3,0-0.8-0.4-1l-4.9-2.8c-0.2-0.1-0.4-0.1-0.6-0.1l-2.8,1.6
				c-0.1,0.1-0.2,0.2-0.2,0.4l-0.5,5.8c0,0.5,0.3,1,0.7,1.3l1.5,0.9l-0.7,2.8c-0.1,0.4,0,0.9,0.3,1c0.2,0.1,0.5,0.1,0.8,0
				c0,0,0.1-0.1,0.1-0.1c0,0-0.1,0.1-0.1,0.1l2.8-1.6c0.1,0,0.1-0.1,0.2-0.1l4.2-4C20.3,11.3,20.2,10.9,19.8,10.7z"/>
			<path class="st68" d="M19.5,10.7l-1.4-0.8l1.5-2.4c0.2-0.3,0-0.8-0.4-1l-4.9-2.8c-0.2-0.1-0.4-0.1-0.6-0.1l-2.8,1.6
				c-0.1,0.1-0.2,0.2-0.2,0.4l-0.5,5.8c0,0.5,0.3,1,0.7,1.3l1.5,0.9l-0.7,2.8c-0.1,0.4,0,0.9,0.3,1c0.2,0.1,0.5,0.1,0.8,0
				c0,0,0.1-0.1,0.1-0.1c0,0-0.1,0.1-0.1,0.1l2.8-1.6c0.1,0,0.1-0.1,0.2-0.1l4.2-4C20,11.3,19.9,10.9,19.5,10.7z"/>
			<path class="st69" d="M19.2,10.7l-1.4-0.8l1.5-2.4c0.2-0.3,0-0.8-0.4-1L14,3.6c-0.2-0.1-0.4-0.1-0.6-0.1l-2.8,1.6
				c-0.1,0.1-0.2,0.2-0.2,0.4l-0.5,5.8c0,0.5,0.3,1,0.7,1.3l1.5,0.9l-0.7,2.8c-0.1,0.4,0,0.9,0.3,1c0.2,0.1,0.5,0.1,0.8,0
				c0,0,0.1-0.1,0.1-0.1c0,0-0.1,0.1-0.1,0.1l2.8-1.6c0.1,0,0.1-0.1,0.2-0.1l4.2-4C19.7,11.3,19.6,10.9,19.2,10.7z"/>
			<path class="st70" d="M18.9,10.7l-1.4-0.8L19,7.5c0.2-0.3,0-0.8-0.4-1l-4.9-2.8c-0.2-0.1-0.4-0.1-0.6-0.1l-2.8,1.6
				C10.1,5.3,10,5.4,10,5.6l-0.5,5.8c0,0.5,0.3,1,0.7,1.3l1.5,0.9L11,16.3c-0.1,0.4,0,0.9,0.3,1c0.2,0.1,0.5,0.1,0.8,0
				c0,0,0.1-0.1,0.1-0.1c0,0-0.1,0.1-0.1,0.1l2.8-1.6c0.1,0,0.1-0.1,0.2-0.1l4.2-4C19.4,11.3,19.3,10.9,18.9,10.7z"/>
		</g>
	</g>
	<g>
		<linearGradient id="SVGID_4_" gradientUnits="userSpaceOnUse" x1="14.2213" y1="11.7359" x2="16.0937" y2="14.9789">
			<stop  offset="0" style="stop-color:#00AAFF"/>
			<stop  offset="4.649715e-02" style="stop-color:#00A9FF"/>
			<stop  offset="0.4158" style="stop-color:#00A6FF"/>
			<stop  offset="1" style="stop-color:#0041AD"/>
		</linearGradient>
		<path class="st71" d="M18.9,10.7l-1.4-0.8l-2.8,1.6l1.4,0.8c0.4,0.2,0.6,0.6,0.3,0.9l-4.2,4c-0.1,0-0.1,0.1-0.2,0.1l2.8-1.6
			c0.1,0,0.1-0.1,0.2-0.1l4.2-4C19.4,11.3,19.3,10.9,18.9,10.7z"/>
		<linearGradient id="SVGID_5_" gradientUnits="userSpaceOnUse" x1="13.147" y1="3.4966" x2="16.9835" y2="10.1417">
			<stop  offset="0" style="stop-color:#00AAFF"/>
			<stop  offset="8.181613e-02" style="stop-color:#00A9FF"/>
			<stop  offset="0.7317" style="stop-color:#00A6FF"/>
			<stop  offset="1" style="stop-color:#0041AD"/>
		</linearGradient>
		<path class="st72" d="M18.5,6.4l-4.9-2.8c-0.2-0.1-0.4-0.1-0.6-0.1l-2.8,1.6c0.2-0.1,0.4-0.1,0.6,0.1l4.9,2.8
			c0.4,0.2,0.6,0.7,0.4,1l-1.5,2.4l2.8-1.6L19,7.5C19.2,7.1,19,6.7,18.5,6.4z"/>
		<path class="st73" d="M16.1,12.3l-1.4-0.8l1.5-2.4c0.2-0.3,0-0.8-0.4-1l-4.9-2.8c-0.2-0.1-0.4-0.1-0.6-0.1C10.1,5.3,10,5.4,10,5.6
			l-0.5,5.8c0,0.5,0.3,1,0.7,1.3l1.5,0.9L11,16.3c-0.1,0.4,0,0.9,0.3,1c0.2,0.1,0.5,0.1,0.8,0c0.1,0,0.1-0.1,0.2-0.1l4.2-4
			C16.6,12.9,16.5,12.5,16.1,12.3z"/>
	</g>
</g>
</svg>
