<?xml version="1.0" encoding="utf-8"?>
<!-- Generator: Adobe Illustrator 24.2.1, SVG Export Plug-In . SVG Version: 6.00 Build 0)  -->
<svg version="1.1" id="Layer_1" xmlns="http://www.w3.org/2000/svg" xmlns:xlink="http://www.w3.org/1999/xlink" x="0px" y="0px"
	 viewBox="0 0 170.1 170.1" style="enable-background:new 0 0 170.1 170.1;" xml:space="preserve">
<style type="text/css">
	.st0{fill:#4D4D4D;}
</style>
<g>
	<path class="st0" d="M123.7,75.1c1.6,0,2.9-1.3,2.9-2.9s-1.3-2.9-2.9-2.9c-1.6,0-2.9,1.3-2.9,2.9S122.1,75.1,123.7,75.1z"/>
	<path class="st0" d="M123.7,82.1c-1.6,0-2.9,1.3-2.9,2.9c0,1.6,1.3,2.9,2.9,2.9c1.6,0,2.9-1.3,2.9-2.9
		C126.7,83.4,125.4,82.1,123.7,82.1z"/>
	<path class="st0" d="M123.7,95c-1.6,0-2.9,1.3-2.9,2.9s1.3,2.9,2.9,2.9c1.6,0,2.9-1.3,2.9-2.9S125.4,95,123.7,95z"/>
	<path class="st0" d="M90.4,43.4c-1.9,0-3.7,0.7-5.5,2.1c-0.1,0.1-1.1,0.9-1.4,1.3l-20,18.7l-11.5,0c-5.6,0-8.6,9.8-8.6,19.5
		c0,9.7,3,19.5,8.6,19.5h11.5l20,18.7c0.4,0.4,1.4,1.3,1.5,1.3c1.7,1.3,3.5,2,5.4,2c4.9,0,9.3-4.6,12.4-12.9
		c2.9-7.7,4.5-17.9,4.5-28.8s-1.6-21.1-4.5-28.8C99.7,48,95.3,43.4,90.4,43.4z M47.2,85c0-10.2,3.2-15.8,4.8-15.8l8.1,0
		c-2.7,3.9-4,9.1-4,15.8c0,6.7,1.3,11.8,4,15.8H52C50.4,100.8,47.2,95.2,47.2,85z M59.8,85c0-10.3,3.2-14.3,6-16.6
		c0,0,6-5.6,11.6-10.9c-2.6,7.6-4.1,17.2-4.1,27.5s1.4,19.9,4.1,27.5c-5.6-5.3-11.6-10.9-11.6-10.9C63.1,99.3,59.8,95.3,59.8,85z
		 M90.4,122.9c-1.1,0-2.2-0.5-3.4-1.4c-0.2-0.2-0.5-0.4-0.8-0.8c-4.8-5-9-18.3-9-35.7s4.2-30.6,9-35.7c0.4-0.3,0.7-0.6,0.8-0.8
		c1.1-0.9,2.2-1.4,3.4-1.4c6.2,0,13.2,15.6,13.2,37.9S96.6,122.9,90.4,122.9z"/>
	<path class="st0" d="M89.2,76.1c-0.7,0.7-0.7,1.9,0,2.7c3.5,3.5,3.5,9.1,0,12.6c-0.7,0.7-0.7,1.9,0,2.7c0.4,0.4,0.8,0.6,1.3,0.6
		c0.5,0,1-0.2,1.3-0.6c4.9-4.9,4.9-13,0-17.9C91.1,75.4,89.9,75.4,89.2,76.1z"/>
</g>
</svg>
