<?xml version="1.0" encoding="utf-8"?>
<!-- Generator: Adobe Illustrator 24.2.1, SVG Export Plug-In . SVG Version: 6.00 Build 0)  -->
<svg version="1.1" id="Layer_1" xmlns="http://www.w3.org/2000/svg" xmlns:xlink="http://www.w3.org/1999/xlink" x="0px" y="0px"
	 viewBox="0 0 170.1 170.1" style="enable-background:new 0 0 170.1 170.1;" xml:space="preserve">
<style type="text/css">
	.st0{fill:#4D4D4D;}
</style>
<g>
	<path class="st0" d="M106.6,80.9L82.7,68.3c-0.9-0.5-2.1-0.1-2.5,0.8c-0.5,0.9-0.1,2.1,0.8,2.5l23.9,12.5c0.3,0.1,0.6,0.2,0.9,0.2
		c0.7,0,1.3-0.4,1.7-1C107.9,82.5,107.5,81.3,106.6,80.9z"/>
	<path class="st0" d="M97.9,89.6L74,77.1c-0.9-0.5-2.1-0.1-2.5,0.8c-0.5,0.9-0.1,2.1,0.8,2.5L96.1,93c0.3,0.1,0.6,0.2,0.9,0.2
		c0.7,0,1.3-0.4,1.7-1C99.1,91.3,98.8,90.1,97.9,89.6z"/>
	<path class="st0" d="M89.1,98.4L65.2,85.9c-0.9-0.5-2.1-0.1-2.5,0.8c-0.5,0.9-0.1,2.1,0.8,2.5l23.9,12.5c0.3,0.1,0.6,0.2,0.9,0.2
		c0.7,0,1.3-0.4,1.7-1C90.4,100,90,98.9,89.1,98.4z"/>
	<path class="st0" d="M123.7,46.4c-1.9-1.9-4.5-3-7.2-3c-2.7,0-5.3,1.1-7.2,3c-1.8,1.8-2.8,4.1-3,6.5l-7.2-1.6
		c-0.6-0.1-1.3,0.1-1.7,0.5l-4.7,4.7c-0.7,0.7-0.7,1.9,0,2.7l4.6,4.6L96,65.1c-0.7,0.7-0.7,1.9,0,2.7c0.4,0.4,0.9,0.6,1.3,0.6
		c0.5,0,1-0.2,1.3-0.6l1.3-1.3l3.6,3.6l-1.3,1.3c-0.7,0.7-0.7,1.9,0,2.7c0.4,0.4,0.8,0.6,1.3,0.6c0.5,0,1-0.2,1.3-0.6l1.3-1.3
		l4.6,4.6c0.4,0.4,0.8,0.6,1.3,0.6c0.5,0,1-0.2,1.3-0.6l4.7-4.7c0.5-0.5,0.6-1.1,0.5-1.7l-1.6-7.1c2.4-0.2,4.7-1.2,6.5-3
		C127.7,56.9,127.7,50.4,123.7,46.4z M112.2,73.4L96.7,57.9l2.7-2.7l7.4,1.6c0.5,1.5,1.3,2.8,2.5,4c1.1,1.1,2.5,2,4,2.5l1.6,7.4
		L112.2,73.4z M121,58.2c-1.2,1.2-2.8,1.9-4.6,1.9c-1.7,0-3.3-0.7-4.6-1.9c-2.5-2.5-2.5-6.6,0-9.1c1.2-1.2,2.8-1.9,4.6-1.9
		c1.7,0,3.3,0.7,4.6,1.9C123.5,51.6,123.5,55.7,121,58.2z"/>
	<path class="st0" d="M72.8,106.2l1.3-1.3c0.7-0.7,0.7-1.9,0-2.7c-0.7-0.7-1.9-0.7-2.7,0l-1.3,1.3l-3.6-3.6l1.3-1.3
		c0.7-0.7,0.7-1.9,0-2.7c-0.7-0.7-1.9-0.7-2.7,0l-1.3,1.3l-4.6-4.6c-0.7-0.7-1.9-0.7-2.7,0l-4.7,4.7c-0.5,0.5-0.6,1.1-0.5,1.7
		l1.6,7.1c-2.4,0.2-4.7,1.2-6.5,3c-4,4-4,10.5,0,14.5c1.9,1.9,4.5,3,7.2,3c2.7,0,5.3-1.1,7.2-3c1.8-1.8,2.8-4,3-6.5l7.1,1.6
		c0.1,0,0.3,0,0.4,0c0.5,0,1-0.2,1.3-0.6l4.7-4.7c0.7-0.7,0.7-1.9,0-2.7L72.8,106.2z M58.2,121c-1.2,1.2-2.8,1.9-4.6,1.9
		c-1.7,0-3.3-0.7-4.6-1.9c-2.5-2.5-2.5-6.6,0-9.1c1.2-1.2,2.8-1.9,4.6-1.9c1.7,0,3.3,0.7,4.6,1.9c1.2,1.2,1.9,2.8,1.9,4.6
		C60.1,118.2,59.4,119.8,58.2,121z M70.8,114.9l-7.4-1.6c-0.5-1.5-1.3-2.9-2.5-4c-1.1-1.1-2.5-2-4-2.5l-1.6-7.4l2.7-2.7l15.5,15.5
		L70.8,114.9z"/>
</g>
</svg>
