<?xml version="1.0" encoding="utf-8"?>
<!-- Generator: Adobe Illustrator 24.2.1, SVG Export Plug-In . SVG Version: 6.00 Build 0)  -->
<svg version="1.1" id="Layer_2" xmlns="http://www.w3.org/2000/svg" xmlns:xlink="http://www.w3.org/1999/xlink" x="0px" y="0px"
	 viewBox="0 0 28.3 28.3" style="enable-background:new 0 0 28.3 28.3;" xml:space="preserve">
<style type="text/css">
	.st0{opacity:0;fill:#FFFFFF;}
	.st1{opacity:3.030303e-02;fill:#FCFCFC;}
	.st2{opacity:6.060606e-02;fill:#F9F9F9;}
	.st3{opacity:9.090909e-02;fill:#F5F5F5;}
	.st4{opacity:0.1212;fill:#F2F2F2;}
	.st5{opacity:0.1515;fill:#EFEFEF;}
	.st6{opacity:0.1818;fill:#ECECEC;}
	.st7{opacity:0.2121;fill:#E8E8E8;}
	.st8{opacity:0.2424;fill:#E5E5E5;}
	.st9{opacity:0.2727;fill:#E2E2E2;}
	.st10{opacity:0.303;fill:#DFDFDF;}
	.st11{opacity:0.3333;fill:#DBDBDB;}
	.st12{opacity:0.3636;fill:#D8D8D8;}
	.st13{opacity:0.3939;fill:#D5D5D5;}
	.st14{opacity:0.4242;fill:#D2D2D2;}
	.st15{opacity:0.4545;fill:#CECECE;}
	.st16{opacity:0.4848;fill:#CBCBCB;}
	.st17{opacity:0.5152;fill:#C8C8C8;}
	.st18{opacity:0.5455;fill:#C5C5C5;}
	.st19{opacity:0.5758;fill:#C1C1C1;}
	.st20{opacity:0.6061;fill:#BEBEBE;}
	.st21{opacity:0.6364;fill:#BBBBBB;}
	.st22{opacity:0.6667;fill:#B8B8B8;}
	.st23{opacity:0.697;fill:#B4B4B4;}
	.st24{opacity:0.7273;fill:#B1B1B1;}
	.st25{opacity:0.7576;fill:#AEAEAE;}
	.st26{opacity:0.7879;fill:#ABABAB;}
	.st27{opacity:0.8182;fill:#A7A7A7;}
	.st28{opacity:0.8485;fill:#A4A4A4;}
	.st29{opacity:0.8788;fill:#A1A1A1;}
	.st30{opacity:0.9091;fill:#9E9E9E;}
	.st31{opacity:0.9394;fill:#9A9A9A;}
	.st32{opacity:0.9697;fill:#979797;}
	.st33{fill:#949494;}
	.st34{fill:#ABCF00;}
	.st35{fill:url(#SVGID_1_);}
	.st36{fill:#008CFF;}
	.st37{clip-path:url(#SVGID_3_);}
	.st38{opacity:3.030303e-02;fill:#F7F9FF;}
	.st39{opacity:6.060606e-02;fill:#F0F4FF;}
	.st40{opacity:9.090909e-02;fill:#E8EEFF;}
	.st41{opacity:0.1212;fill:#E0E9FF;}
	.st42{opacity:0.1515;fill:#D8E3FF;}
	.st43{opacity:0.1818;fill:#D1DEFF;}
	.st44{opacity:0.2121;fill:#C9D8FF;}
	.st45{opacity:0.2424;fill:#C1D2FF;}
	.st46{opacity:0.2727;fill:#B9CDFF;}
	.st47{opacity:0.303;fill:#B2C7FF;}
	.st48{opacity:0.3333;fill:#AAC2FF;}
	.st49{opacity:0.3636;fill:#A2BCFF;}
	.st50{opacity:0.3939;fill:#9BB7FF;}
	.st51{opacity:0.4242;fill:#93B1FF;}
	.st52{opacity:0.4545;fill:#8BABFF;}
	.st53{opacity:0.4848;fill:#83A6FF;}
	.st54{opacity:0.5152;fill:#7CA0FF;}
	.st55{opacity:0.5455;fill:#749BFF;}
	.st56{opacity:0.5758;fill:#6C95FF;}
	.st57{opacity:0.6061;fill:#648FFF;}
	.st58{opacity:0.6364;fill:#5D8AFF;}
	.st59{opacity:0.6667;fill:#5584FF;}
	.st60{opacity:0.697;fill:#4D7FFF;}
	.st61{opacity:0.7273;fill:#4679FF;}
	.st62{opacity:0.7576;fill:#3E74FF;}
	.st63{opacity:0.7879;fill:#366EFF;}
	.st64{opacity:0.8182;fill:#2E68FF;}
	.st65{opacity:0.8485;fill:#2763FF;}
	.st66{opacity:0.8788;fill:#1F5DFF;}
	.st67{opacity:0.9091;fill:#1758FF;}
	.st68{opacity:0.9394;fill:#0F52FF;}
	.st69{opacity:0.9697;fill:#084DFF;}
	.st70{fill:#0047FF;}
	.st71{fill:url(#SVGID_4_);}
	.st72{fill:url(#SVGID_5_);}
	.st73{fill:#ECECEC;}
	.st74{fill:#F0F0F0;}
	.st75{fill:#003452;}
	.st76{fill:#E8E8E8;}
	.st77{fill:url(#SVGID_6_);}
	.st78{fill:url(#SVGID_7_);}
	.st79{fill:#37384F;}
	.st80{fill:url(#SVGID_8_);}
	.st81{fill:#FFDB32;}
	.st82{fill:url(#SVGID_9_);}
</style>
<g>
	<g>
		<path class="st0" d="M23.1,13c-5.3-3-10.7-3-16,0l0,0c-2.6,1.5-4,3.1-4,4.6c0,1.5,1.3,3.1,4,4.6c5.3,3,10.7,3,16,0
			c2.6-1.5,4-3.1,4-4.6C27,16,25.7,14.5,23.1,13z"/>
		<path class="st1" d="M23,13c-5.3-3-10.7-3-16,0l0,0c-2.6,1.5-4,3.1-4,4.6c0,1.5,1.3,3.1,4,4.6c5.3,3,10.7,3,16,0
			c2.6-1.5,4-3.1,4-4.6C27,16,25.6,14.5,23,13z"/>
		<path class="st2" d="M23,13c-5.3-3-10.7-3-16,0l0,0c-2.6,1.5-4,3.1-4,4.6c0,1.5,1.3,3.1,4,4.6c5.3,3,10.7,3,16,0
			c2.6-1.5,4-3.1,4-4.6C26.9,16,25.6,14.5,23,13z"/>
		<path class="st3" d="M22.9,13c-5.3-3-10.7-3-16,0l0,0c-2.6,1.5-4,3.1-4,4.6c0,1.5,1.3,3.1,4,4.6c5.3,3,10.7,3,16,0
			c2.6-1.5,4-3.1,4-4.6C26.9,16,25.5,14.5,22.9,13z"/>
		<path class="st4" d="M22.9,13c-5.3-3-10.7-3-16,0l0,0c-2.6,1.5-4,3.1-4,4.6c0,1.5,1.3,3.1,4,4.6c5.3,3,10.7,3,16,0
			c2.6-1.5,4-3.1,4-4.6C26.8,16,25.5,14.5,22.9,13z"/>
		<path class="st5" d="M22.8,13c-5.3-3-10.7-3-16,0l0,0c-2.6,1.5-4,3.1-4,4.6c0,1.5,1.3,3.1,4,4.6c5.3,3,10.7,3,16,0
			c2.6-1.5,4-3.1,4-4.6C26.8,16,25.4,14.5,22.8,13z"/>
		<path class="st6" d="M22.8,13c-5.3-3-10.7-3-16,0l0,0c-2.6,1.5-4,3.1-4,4.6c0,1.5,1.3,3.1,4,4.6c5.3,3,10.7,3,16,0
			c2.6-1.5,4-3.1,4-4.6C26.7,16,25.4,14.5,22.8,13z"/>
		<path class="st7" d="M22.7,13c-5.3-3-10.7-3-16,0l0,0c-2.6,1.5-4,3.1-4,4.6c0,1.5,1.3,3.1,4,4.6c5.3,3,10.7,3,16,0
			c2.6-1.5,4-3.1,4-4.6C26.7,16,25.3,14.5,22.7,13z"/>
		<path class="st8" d="M22.7,13c-5.3-3-10.7-3-16,0l0,0c-2.6,1.5-4,3.1-4,4.6c0,1.5,1.3,3.1,4,4.6c5.3,3,10.7,3,16,0
			c2.6-1.5,4-3.1,4-4.6C26.6,16,25.3,14.5,22.7,13z"/>
		<path class="st9" d="M22.6,13c-5.3-3-10.7-3-16,0l0,0c-2.6,1.5-4,3.1-4,4.6c0,1.5,1.3,3.1,4,4.6c5.3,3,10.7,3,16,0
			c2.6-1.5,4-3.1,4-4.6C26.6,16,25.2,14.5,22.6,13z"/>
		<path class="st10" d="M22.6,13c-5.3-3-10.7-3-16,0l0,0c-2.6,1.5-4,3.1-4,4.6c0,1.5,1.3,3.1,4,4.6c5.3,3,10.7,3,16,0
			c2.6-1.5,4-3.1,4-4.6C26.5,16,25.2,14.5,22.6,13z"/>
		<path class="st11" d="M22.5,13c-5.3-3-10.7-3-16,0l0,0c-2.6,1.5-4,3.1-4,4.6c0,1.5,1.3,3.1,4,4.6c5.3,3,10.7,3,16,0
			c2.6-1.5,4-3.1,4-4.6C26.5,16,25.1,14.5,22.5,13z"/>
		<path class="st12" d="M22.5,13c-5.3-3-10.7-3-16,0l0,0c-2.6,1.5-4,3.1-4,4.6c0,1.5,1.3,3.1,4,4.6c5.3,3,10.7,3,16,0
			c2.6-1.5,4-3.1,4-4.6C26.4,16,25.1,14.5,22.5,13z"/>
		<path class="st13" d="M22.4,13c-5.3-3-10.7-3-16,0l0,0c-2.6,1.5-4,3.1-4,4.6c0,1.5,1.3,3.1,4,4.6c5.3,3,10.7,3,16,0
			c2.6-1.5,4-3.1,4-4.6C26.4,16,25,14.5,22.4,13z"/>
		<path class="st14" d="M22.4,13c-5.3-3-10.7-3-16,0l0,0c-2.6,1.5-4,3.1-4,4.6c0,1.5,1.3,3.1,4,4.6c5.3,3,10.7,3,16,0
			c2.6-1.5,4-3.1,4-4.6C26.3,16,25,14.5,22.4,13z"/>
		<path class="st15" d="M22.3,13c-5.3-3-10.7-3-16,0l0,0c-2.6,1.5-4,3.1-4,4.6c0,1.5,1.3,3.1,4,4.6c5.3,3,10.7,3,16,0
			c2.6-1.5,4-3.1,4-4.6C26.3,16,25,14.5,22.3,13z"/>
		<path class="st16" d="M22.3,13c-5.3-3-10.7-3-16,0l0,0c-2.6,1.5-4,3.1-4,4.6c0,1.5,1.3,3.1,4,4.6c5.3,3,10.7,3,16,0
			c2.6-1.5,4-3.1,4-4.6C26.2,16,24.9,14.5,22.3,13z"/>
		<path class="st17" d="M22.2,13c-5.3-3-10.7-3-16,0l0,0c-2.6,1.5-4,3.1-4,4.6c0,1.5,1.3,3.1,4,4.6c5.3,3,10.7,3,16,0
			c2.6-1.5,4-3.1,4-4.6C26.2,16,24.9,14.5,22.2,13z"/>
		<path class="st18" d="M22.2,13c-5.3-3-10.7-3-16,0l0,0c-2.6,1.5-4,3.1-4,4.6c0,1.5,1.3,3.1,4,4.6c5.3,3,10.7,3,16,0
			c2.6-1.5,4-3.1,4-4.6C26.1,16,24.8,14.5,22.2,13z"/>
		<path class="st19" d="M22.1,13c-5.3-3-10.7-3-16,0l0,0c-2.6,1.5-4,3.1-4,4.6c0,1.5,1.3,3.1,4,4.6c5.3,3,10.7,3,16,0
			c2.6-1.5,4-3.1,4-4.6C26.1,16,24.8,14.5,22.1,13z"/>
		<path class="st20" d="M22.1,13c-5.3-3-10.7-3-16,0l0,0c-2.6,1.5-4,3.1-4,4.6c0,1.5,1.3,3.1,4,4.6c5.3,3,10.7,3,16,0
			c2.6-1.5,4-3.1,4-4.6C26,16,24.7,14.5,22.1,13z"/>
		<path class="st21" d="M22,13c-5.3-3-10.7-3-16,0l0,0c-2.6,1.5-4,3.1-4,4.6c0,1.5,1.3,3.1,4,4.6c5.3,3,10.7,3,16,0
			c2.6-1.5,4-3.1,4-4.6C26,16,24.7,14.5,22,13z"/>
		<path class="st22" d="M22,13c-5.3-3-10.7-3-16,0l0,0c-2.6,1.5-4,3.1-4,4.6c0,1.5,1.3,3.1,4,4.6c5.3,3,10.7,3,16,0
			c2.6-1.5,4-3.1,4-4.6C25.9,16,24.6,14.5,22,13z"/>
		<path class="st23" d="M21.9,13c-5.3-3-10.7-3-16,0l0,0c-2.6,1.5-4,3.1-4,4.6c0,1.5,1.3,3.1,4,4.6c5.3,3,10.7,3,16,0
			c2.6-1.5,4-3.1,4-4.6C25.9,16,24.6,14.5,21.9,13z"/>
		<path class="st24" d="M21.9,13c-5.3-3-10.7-3-16,0l0,0c-2.6,1.5-4,3.1-4,4.6c0,1.5,1.3,3.1,4,4.6c5.3,3,10.7,3,16,0
			c2.6-1.5,4-3.1,4-4.6C25.8,16,24.5,14.5,21.9,13z"/>
		<path class="st25" d="M21.8,13c-5.3-3-10.7-3-16,0l0,0c-2.6,1.5-4,3.1-4,4.6c0,1.5,1.3,3.1,4,4.6c5.3,3,10.7,3,16,0
			c2.6-1.5,4-3.1,4-4.6C25.8,16,24.5,14.5,21.8,13z"/>
		<path class="st26" d="M21.8,13c-5.3-3-10.7-3-16,0l0,0c-2.6,1.5-4,3.1-4,4.6c0,1.5,1.3,3.1,4,4.6c5.3,3,10.7,3,16,0
			c2.6-1.5,4-3.1,4-4.6C25.7,16,24.4,14.5,21.8,13z"/>
		<path class="st27" d="M21.7,13c-5.3-3-10.7-3-16,0l0,0c-2.6,1.5-4,3.1-4,4.6c0,1.5,1.3,3.1,4,4.6c5.3,3,10.7,3,16,0
			c2.6-1.5,4-3.1,4-4.6C25.7,16,24.4,14.5,21.7,13z"/>
		<path class="st28" d="M21.7,13c-5.3-3-10.7-3-16,0l0,0c-2.6,1.5-4,3.1-4,4.6c0,1.5,1.3,3.1,4,4.6c5.3,3,10.7,3,16,0
			c2.6-1.5,4-3.1,4-4.6C25.6,16,24.3,14.5,21.7,13z"/>
		<path class="st29" d="M21.6,13c-5.3-3-10.7-3-16,0l0,0c-2.6,1.5-4,3.1-4,4.6c0,1.5,1.3,3.1,4,4.6c5.3,3,10.7,3,16,0
			c2.6-1.5,4-3.1,4-4.6C25.6,16,24.3,14.5,21.6,13z"/>
		<path class="st30" d="M21.6,13c-5.3-3-10.7-3-16,0l0,0c-2.6,1.5-4,3.1-4,4.6c0,1.5,1.3,3.1,4,4.6c5.3,3,10.7,3,16,0
			c2.6-1.5,4-3.1,4-4.6C25.5,16,24.2,14.5,21.6,13z"/>
		<path class="st31" d="M21.5,13c-5.3-3-10.7-3-16,0l0,0c-2.6,1.5-4,3.1-4,4.6c0,1.5,1.3,3.1,4,4.6c5.3,3,10.7,3,16,0
			c2.6-1.5,4-3.1,4-4.6C25.5,16,24.2,14.5,21.5,13z"/>
		<path class="st32" d="M21.5,13c-5.3-3-10.7-3-16,0l0,0c-2.6,1.5-4,3.1-4,4.6c0,1.5,1.3,3.1,4,4.6c5.3,3,10.7,3,16,0
			c2.6-1.5,4-3.1,4-4.6C25.4,16,24.1,14.5,21.5,13z"/>
		<path class="st33" d="M21.4,13c-5.3-3-10.7-3-16,0l0,0c-2.6,1.5-4,3.1-4,4.6c0,1.5,1.3,3.1,4,4.6c5.3,3,10.7,3,16,0
			c2.6-1.5,4-3.1,4-4.6C25.4,16,24.1,14.5,21.4,13z"/>
	</g>
	<g>
		<path class="st34" d="M21.4,13c-5.3-3-10.7-3-16,0l0,0c-2.6,1.5-4,3.1-4,4.6c0,1.5,1.3,3.1,4,4.6c5.3,3,10.7,3,16,0
			c2.6-1.5,4-3.1,4-4.6C25.4,16,24.1,14.5,21.4,13z"/>
		
			<linearGradient id="SVGID_1_" gradientUnits="userSpaceOnUse" x1="-207.3849" y1="25.6784" x2="-183.4537" y2="25.6784" gradientTransform="matrix(1 0 0 1 208.8327 -5.7905)">
			<stop  offset="0" style="stop-color:#00AAFF"/>
			<stop  offset="3.940326e-02" style="stop-color:#00A9FF"/>
			<stop  offset="0.3524" style="stop-color:#00A6FF"/>
			<stop  offset="0.5368" style="stop-color:#0086DD"/>
			<stop  offset="0.7441" style="stop-color:#0066BA"/>
			<stop  offset="1" style="stop-color:#0041AD"/>
		</linearGradient>
		<path class="st35" d="M21.4,19.9c-5.3,3-10.7,3-16,0c-2.6-1.5-4-3.1-4-4.6v2.3c0,1.5,1.3,3.1,4,4.6c5.3,3,10.7,3,16,0
			c2.6-1.5,4-3.1,4-4.6v-2.3C25.4,16.8,24.1,18.4,21.4,19.9z"/>
		<path class="st36" d="M21.4,10.7c-5.3-3-10.7-3-16,0l0,0c-2.6,1.5-4,3.1-4,4.6s1.3,3.1,4,4.6c5.3,3,10.7,3,16,0
			c2.6-1.5,4-3.1,4-4.6C25.4,13.7,24.1,12.2,21.4,10.7z"/>
	</g>
	<g>
		<defs>
			<path id="SVGID_2_" d="M21.4,10.7c-5.3-3-10.7-3-16,0l0,0c-2.6,1.5-4,3.1-4,4.6s1.3,3.1,4,4.6c5.3,3,10.7,3,16,0
				c2.6-1.5,4-3.1,4-4.6C25.4,13.7,24.1,12.2,21.4,10.7z"/>
		</defs>
		<clipPath id="SVGID_3_">
			<use xlink:href="#SVGID_2_"  style="overflow:visible;"/>
		</clipPath>
		<g class="st37">
			<path class="st0" d="M26.8,13.2c0.1,0.5,0.1,0.9,0.1,1.4c0,0.8-0.2,1.5-0.4,2c0.3-0.5,0.4-1.2,0.4-2C27,14.2,26.9,13.7,26.8,13.2
				z M23.1,13.4L23.1,13.4L23.1,13.4L23.1,13.4z M23.4,5.8c-0.3-0.2-0.6-0.3-0.9-0.4c0-0.2,0-0.2-0.1-0.3c-0.1-0.1-0.2-0.2-0.3-0.5
				c-0.4-0.7-0.8-1.1-1.2-1.1c-0.3,0.1-0.6,0.2-0.9,0.3l-1.5,0.9l0,0L18,4.9c0.3-0.2,0.6-0.3,0.9-0.3c0.1,0,0.3,0,0.4,0
				c-0.1-0.1-0.2-0.1-0.4,0c-0.3,0.1-0.6,0.2-0.9,0.3c0,0,0,0,0,0c-1.1,0.6-1.8,2.1-1.8,4c0,0.8,0.3,1.1,0.9,1.6
				c0.4,0.3,0.5,0.5,0.8,0.4c0.6,2.5,2.4,5.2,4.5,6.4c1.3,0.7,2.5,0.8,3.3,0.3l0,0l1.1-0.7c0.9-0.5,1.4-1.5,1.4-3
				C28.1,11,26,7.3,23.4,5.8z M20.9,5.9L20.9,5.9c0.2,0,0.4,0.1,0.6,0.2C21.3,6,21.1,6,20.9,5.9z M22.7,13.5c-0.1,0-0.1,0-0.2,0
				c0,0,0,0,0,0c0,0-0.1,0-0.1-0.1C22.5,13.5,22.7,13.5,22.7,13.5C22.8,13.5,22.8,13.5,22.7,13.5z M23,13.5C23,13.5,23,13.5,23,13.5
				c-0.1,0-0.2,0-0.2,0c0,0,0,0,0,0C22.9,13.5,23,13.5,23,13.5C23.1,13.4,23.1,13.4,23,13.5z M23.5,12.7
				C23.5,12.7,23.4,12.7,23.5,12.7c-0.8-0.4-1.3-1.4-1.3-2.2c0,0,0-0.1,0-0.1c0,0,0.1,0,0.1,0c0.7,0.4,1.2,1.4,1.2,2.2
				C23.5,12.7,23.5,12.7,23.5,12.7z"/>
			<path class="st38" d="M26.5,13.2c0.1,0.5,0.1,0.9,0.1,1.4c0,0.8-0.2,1.5-0.4,2c0.3-0.5,0.4-1.2,0.4-2
				C26.7,14.2,26.6,13.7,26.5,13.2z M22.8,13.4L22.8,13.4L22.8,13.4L22.8,13.4z M23.1,5.8c-0.3-0.2-0.6-0.3-0.9-0.4
				c0-0.2,0-0.2-0.1-0.3c-0.1-0.1-0.2-0.2-0.3-0.5c-0.4-0.7-0.8-1.1-1.2-1.1c-0.3,0.1-0.6,0.2-0.9,0.3l-1.5,0.9l0,0l-0.4,0.2
				c0.3-0.2,0.6-0.3,0.9-0.3c0.1,0,0.3,0,0.4,0c-0.1-0.1-0.2-0.1-0.4,0c-0.3,0.1-0.6,0.2-0.9,0.3c0,0,0,0,0,0
				c-1.1,0.6-1.8,2.1-1.8,4c0,0.8,0.3,1.1,0.9,1.6c0.4,0.3,0.5,0.5,0.8,0.4c0.6,2.5,2.4,5.2,4.5,6.4c1.3,0.7,2.5,0.8,3.3,0.3l0,0
				l1.1-0.7c0.9-0.5,1.4-1.5,1.4-3C27.8,11,25.7,7.3,23.1,5.8z M20.6,5.9L20.6,5.9C20.8,6,21,6,21.2,6.1C21,6,20.8,6,20.6,5.9z
				 M22.4,13.5c-0.1,0-0.1,0-0.2,0c0,0,0,0,0,0c0,0-0.1,0-0.1-0.1C22.2,13.5,22.4,13.5,22.4,13.5C22.5,13.5,22.5,13.5,22.4,13.5z
				 M22.7,13.5C22.7,13.5,22.7,13.5,22.7,13.5c-0.1,0-0.2,0-0.2,0c0,0,0,0,0,0C22.6,13.5,22.7,13.5,22.7,13.5
				C22.8,13.4,22.8,13.4,22.7,13.5z M23.2,12.7C23.2,12.7,23.1,12.7,23.2,12.7c-0.8-0.4-1.3-1.4-1.3-2.2c0,0,0-0.1,0-0.1
				c0,0,0.1,0,0.1,0c0.7,0.4,1.2,1.4,1.2,2.2C23.2,12.7,23.2,12.7,23.2,12.7z"/>
			<path class="st39" d="M26.2,13.2c0.1,0.5,0.1,0.9,0.1,1.4c0,0.8-0.2,1.5-0.4,2c0.3-0.5,0.4-1.2,0.4-2
				C26.4,14.2,26.3,13.7,26.2,13.2z M22.5,13.4L22.5,13.4L22.5,13.4L22.5,13.4z M22.8,5.8c-0.3-0.2-0.6-0.3-0.9-0.4
				c0-0.2,0-0.2-0.1-0.3c-0.1-0.1-0.2-0.2-0.3-0.5c-0.4-0.7-0.8-1.1-1.2-1.1c-0.3,0.1-0.6,0.2-0.9,0.3l-1.5,0.9l0,0l-0.4,0.2
				c0.3-0.2,0.6-0.3,0.9-0.3c0.1,0,0.3,0,0.4,0c-0.1-0.1-0.2-0.1-0.4,0c-0.3,0.1-0.6,0.2-0.9,0.3c0,0,0,0,0,0
				c-1.1,0.6-1.8,2.1-1.8,4c0,0.8,0.3,1.1,0.9,1.6c0.4,0.3,0.5,0.5,0.8,0.4c0.6,2.5,2.4,5.2,4.5,6.4c1.3,0.7,2.5,0.8,3.3,0.3l0,0
				l1.1-0.7c0.9-0.5,1.4-1.5,1.4-3C27.5,11,25.4,7.3,22.8,5.8z M20.3,5.9L20.3,5.9c0.2,0,0.4,0.1,0.6,0.2C20.7,6,20.5,6,20.3,5.9z
				 M22.1,13.5c-0.1,0-0.1,0-0.2,0c0,0,0,0,0,0c0,0-0.1,0-0.1-0.1C21.9,13.5,22.1,13.5,22.1,13.5C22.2,13.5,22.2,13.5,22.1,13.5z
				 M22.4,13.5C22.4,13.5,22.4,13.5,22.4,13.5c-0.1,0-0.2,0-0.2,0c0,0,0,0,0,0C22.3,13.5,22.4,13.5,22.4,13.5
				C22.5,13.4,22.5,13.4,22.4,13.5z M22.9,12.7C22.9,12.7,22.8,12.7,22.9,12.7c-0.8-0.4-1.3-1.4-1.3-2.2c0,0,0-0.1,0-0.1
				c0,0,0.1,0,0.1,0c0.7,0.4,1.2,1.4,1.2,2.2C22.9,12.7,22.9,12.7,22.9,12.7z"/>
			<path class="st40" d="M25.9,13.2c0.1,0.5,0.1,0.9,0.1,1.4c0,0.8-0.2,1.5-0.4,2c0.3-0.5,0.4-1.2,0.4-2
				C26.1,14.2,26,13.7,25.9,13.2z M22.2,13.4L22.2,13.4L22.2,13.4L22.2,13.4z M22.5,5.8c-0.3-0.2-0.6-0.3-0.9-0.4
				c0-0.2,0-0.2-0.1-0.3c-0.1-0.1-0.2-0.2-0.3-0.5c-0.4-0.7-0.8-1.1-1.2-1.1c-0.3,0.1-0.6,0.2-0.9,0.3l-1.5,0.9l0,0l-0.4,0.2
				c0.3-0.2,0.6-0.3,0.9-0.3c0.1,0,0.3,0,0.4,0c-0.1-0.1-0.2-0.1-0.4,0c-0.3,0.1-0.6,0.2-0.9,0.3c0,0,0,0,0,0
				c-1.1,0.6-1.8,2.1-1.8,4c0,0.8,0.3,1.1,0.9,1.6c0.4,0.3,0.5,0.5,0.8,0.4c0.6,2.5,2.4,5.2,4.5,6.4c1.3,0.7,2.5,0.8,3.3,0.3l0,0
				l1.1-0.7c0.9-0.5,1.4-1.5,1.4-3C27.2,11,25.1,7.3,22.5,5.8z M20,5.9L20,5.9c0.2,0,0.4,0.1,0.6,0.2C20.4,6,20.2,6,20,5.9z
				 M21.8,13.5c-0.1,0-0.1,0-0.2,0c0,0,0,0,0,0c0,0-0.1,0-0.1-0.1C21.6,13.5,21.8,13.5,21.8,13.5C21.9,13.5,21.9,13.5,21.8,13.5z
				 M22.1,13.5C22.1,13.5,22.1,13.5,22.1,13.5c-0.1,0-0.2,0-0.2,0c0,0,0,0,0,0C22,13.5,22.1,13.5,22.1,13.5
				C22.2,13.4,22.2,13.4,22.1,13.5z M22.6,12.7C22.6,12.7,22.5,12.7,22.6,12.7c-0.8-0.4-1.3-1.4-1.3-2.2c0,0,0-0.1,0-0.1
				c0,0,0.1,0,0.1,0c0.7,0.4,1.2,1.4,1.2,2.2C22.6,12.7,22.6,12.7,22.6,12.7z"/>
			<path class="st41" d="M25.6,13.2c0.1,0.5,0.1,0.9,0.1,1.4c0,0.8-0.2,1.5-0.4,2c0.3-0.5,0.4-1.2,0.4-2
				C25.8,14.2,25.7,13.7,25.6,13.2z M21.9,13.4L21.9,13.4L21.9,13.4L21.9,13.4z M22.2,5.8c-0.3-0.2-0.6-0.3-0.9-0.4
				c0-0.2,0-0.2-0.1-0.3c-0.1-0.1-0.2-0.2-0.3-0.5c-0.4-0.7-0.8-1.1-1.2-1.1c-0.3,0.1-0.6,0.2-0.9,0.3l-1.5,0.9l0,0l-0.4,0.2
				c0.3-0.2,0.6-0.3,0.9-0.3c0.1,0,0.3,0,0.4,0c-0.1-0.1-0.2-0.1-0.4,0c-0.3,0.1-0.6,0.2-0.9,0.3c0,0,0,0,0,0
				c-1.1,0.6-1.8,2.1-1.8,4c0,0.8,0.3,1.1,0.9,1.6c0.4,0.3,0.5,0.5,0.8,0.4c0.6,2.5,2.4,5.2,4.5,6.4c1.3,0.7,2.5,0.8,3.3,0.3l0,0
				l1.1-0.7c0.9-0.5,1.4-1.5,1.4-3C26.9,11,24.8,7.3,22.2,5.8z M19.7,5.9L19.7,5.9c0.2,0,0.4,0.1,0.6,0.2C20.1,6,19.9,6,19.7,5.9z
				 M21.5,13.5c-0.1,0-0.1,0-0.2,0c0,0,0,0,0,0c0,0-0.1,0-0.1-0.1C21.3,13.5,21.5,13.5,21.5,13.5C21.6,13.5,21.6,13.5,21.5,13.5z
				 M21.8,13.5C21.8,13.5,21.8,13.5,21.8,13.5c-0.1,0-0.2,0-0.2,0c0,0,0,0,0,0C21.7,13.5,21.8,13.5,21.8,13.5
				C21.9,13.4,21.9,13.4,21.8,13.5z M22.3,12.7C22.3,12.7,22.2,12.7,22.3,12.7c-0.8-0.4-1.3-1.4-1.3-2.2c0,0,0-0.1,0-0.1
				c0,0,0.1,0,0.1,0c0.7,0.4,1.2,1.4,1.2,2.2C22.3,12.7,22.3,12.7,22.3,12.7z"/>
			<path class="st42" d="M25.3,13.2c0.1,0.5,0.1,0.9,0.1,1.4c0,0.8-0.2,1.5-0.4,2c0.3-0.5,0.4-1.2,0.4-2
				C25.4,14.2,25.4,13.7,25.3,13.2z M21.6,13.4L21.6,13.4L21.6,13.4L21.6,13.4z M21.9,5.8c-0.3-0.2-0.6-0.3-0.9-0.4
				c0-0.2,0-0.2-0.1-0.3c-0.1-0.1-0.2-0.2-0.3-0.5c-0.4-0.7-0.8-1.1-1.2-1.1c-0.3,0.1-0.6,0.2-0.9,0.3l-1.5,0.9l0,0l-0.4,0.2
				c0.3-0.2,0.6-0.3,0.9-0.3c0.1,0,0.3,0,0.4,0c-0.1-0.1-0.2-0.1-0.4,0c-0.3,0.1-0.6,0.2-0.9,0.3c0,0,0,0,0,0
				c-1.1,0.6-1.8,2.1-1.8,4c0,0.8,0.3,1.1,0.9,1.6c0.4,0.3,0.5,0.5,0.8,0.4c0.6,2.5,2.4,5.2,4.5,6.4c1.3,0.7,2.5,0.8,3.3,0.3l0,0
				l1.1-0.7c0.9-0.5,1.4-1.5,1.4-3C26.6,11,24.5,7.3,21.9,5.8z M19.4,5.9L19.4,5.9C19.6,6,19.8,6,20,6.1C19.8,6,19.6,6,19.4,5.9z
				 M21.2,13.5c-0.1,0-0.1,0-0.2,0c0,0,0,0,0,0c0,0-0.1,0-0.1-0.1C21,13.5,21.2,13.5,21.2,13.5C21.3,13.5,21.3,13.5,21.2,13.5z
				 M21.5,13.5C21.5,13.5,21.5,13.5,21.5,13.5c-0.1,0-0.2,0-0.2,0c0,0,0,0,0,0C21.4,13.5,21.5,13.5,21.5,13.5
				C21.6,13.4,21.6,13.4,21.5,13.5z M22,12.7C22,12.7,21.9,12.7,22,12.7c-0.8-0.4-1.3-1.4-1.3-2.2c0,0,0-0.1,0-0.1c0,0,0.1,0,0.1,0
				c0.7,0.4,1.2,1.4,1.2,2.2C22,12.7,22,12.7,22,12.7z"/>
			<path class="st43" d="M25,13.2c0.1,0.5,0.1,0.9,0.1,1.4c0,0.8-0.2,1.5-0.4,2c0.3-0.5,0.4-1.2,0.4-2C25.1,14.2,25.1,13.7,25,13.2z
				 M21.3,13.4L21.3,13.4L21.3,13.4L21.3,13.4z M21.6,5.8c-0.3-0.2-0.6-0.3-0.9-0.4c0-0.2,0-0.2-0.1-0.3c-0.1-0.1-0.2-0.2-0.3-0.5
				c-0.4-0.7-0.8-1.1-1.2-1.1c-0.3,0.1-0.6,0.2-0.9,0.3l-1.5,0.9l0,0l-0.4,0.2c0.3-0.2,0.6-0.3,0.9-0.3c0.1,0,0.3,0,0.4,0
				c-0.1-0.1-0.2-0.1-0.4,0c-0.3,0.1-0.6,0.2-0.9,0.3c0,0,0,0,0,0c-1.1,0.6-1.8,2.1-1.8,4c0,0.8,0.3,1.1,0.9,1.6
				c0.4,0.3,0.5,0.5,0.8,0.4c0.6,2.5,2.4,5.2,4.5,6.4c1.3,0.7,2.5,0.8,3.3,0.3l0,0l1.1-0.7c0.9-0.5,1.4-1.5,1.4-3
				C26.3,11,24.2,7.3,21.6,5.8z M19.1,5.9L19.1,5.9c0.2,0,0.4,0.1,0.6,0.2C19.5,6,19.3,6,19.1,5.9z M20.9,13.5c-0.1,0-0.1,0-0.2,0
				c0,0,0,0,0,0c0,0-0.1,0-0.1-0.1C20.7,13.5,20.9,13.5,20.9,13.5C21,13.5,21,13.5,20.9,13.5z M21.2,13.5
				C21.2,13.5,21.2,13.5,21.2,13.5c-0.1,0-0.2,0-0.2,0c0,0,0,0,0,0C21.1,13.5,21.2,13.5,21.2,13.5C21.3,13.4,21.3,13.4,21.2,13.5z
				 M21.7,12.7C21.7,12.7,21.6,12.7,21.7,12.7c-0.8-0.4-1.3-1.4-1.3-2.2c0,0,0-0.1,0-0.1c0,0,0.1,0,0.1,0c0.7,0.4,1.2,1.4,1.2,2.2
				C21.7,12.7,21.7,12.7,21.7,12.7z"/>
			<path class="st44" d="M24.7,13.2c0.1,0.5,0.1,0.9,0.1,1.4c0,0.8-0.2,1.5-0.4,2c0.3-0.5,0.4-1.2,0.4-2
				C24.8,14.2,24.8,13.7,24.7,13.2z M21,13.4L21,13.4L21,13.4L21,13.4z M21.3,5.8c-0.3-0.2-0.6-0.3-0.9-0.4c0-0.2,0-0.2-0.1-0.3
				c-0.1-0.1-0.2-0.2-0.3-0.5c-0.4-0.7-0.8-1.1-1.2-1.1c-0.3,0.1-0.6,0.2-0.9,0.3l-1.5,0.9l0,0l-0.4,0.2c0.3-0.2,0.6-0.3,0.9-0.3
				c0.1,0,0.3,0,0.4,0c-0.1-0.1-0.2-0.1-0.4,0c-0.3,0.1-0.6,0.2-0.9,0.3c0,0,0,0,0,0C14.8,5.5,14,7,14,8.9c0,0.8,0.3,1.1,0.9,1.6
				c0.4,0.3,0.5,0.5,0.8,0.4c0.6,2.5,2.4,5.2,4.5,6.4c1.3,0.7,2.5,0.8,3.3,0.3l0,0l1.1-0.7c0.9-0.5,1.4-1.5,1.4-3
				C26,11,23.9,7.3,21.3,5.8z M18.8,5.9L18.8,5.9c0.2,0,0.4,0.1,0.6,0.2C19.2,6,18.9,6,18.8,5.9z M20.6,13.5c-0.1,0-0.1,0-0.2,0
				c0,0,0,0,0,0c0,0-0.1,0-0.1-0.1C20.4,13.5,20.6,13.5,20.6,13.5C20.7,13.5,20.7,13.5,20.6,13.5z M20.9,13.5
				C20.9,13.5,20.9,13.5,20.9,13.5c-0.1,0-0.2,0-0.2,0c0,0,0,0,0,0C20.8,13.5,20.9,13.5,20.9,13.5C21,13.4,21,13.4,20.9,13.5z
				 M21.4,12.7C21.4,12.7,21.3,12.7,21.4,12.7c-0.8-0.4-1.3-1.4-1.3-2.2c0,0,0-0.1,0-0.1c0,0,0.1,0,0.1,0c0.7,0.4,1.2,1.4,1.2,2.2
				C21.4,12.7,21.4,12.7,21.4,12.7z"/>
			<path class="st45" d="M24.4,13.2c0.1,0.5,0.1,0.9,0.1,1.4c0,0.8-0.2,1.5-0.4,2c0.3-0.5,0.4-1.2,0.4-2
				C24.5,14.2,24.5,13.7,24.4,13.2z M20.7,13.4L20.7,13.4L20.7,13.4L20.7,13.4z M21,5.8c-0.3-0.2-0.6-0.3-0.9-0.4
				C20,5.2,20,5.1,20,5c-0.1-0.1-0.2-0.2-0.3-0.5c-0.4-0.7-0.8-1.1-1.2-1.1c-0.3,0.1-0.6,0.2-0.9,0.3L16,4.7l0,0l-0.4,0.2
				c0.3-0.2,0.6-0.3,0.9-0.3c0.1,0,0.3,0,0.4,0c-0.1-0.1-0.2-0.1-0.4,0c-0.3,0.1-0.6,0.2-0.9,0.3c0,0,0,0,0,0
				c-1.1,0.6-1.8,2.1-1.8,4c0,0.8,0.3,1.1,0.9,1.6c0.4,0.3,0.5,0.5,0.8,0.4c0.6,2.5,2.4,5.2,4.5,6.4c1.3,0.7,2.5,0.8,3.3,0.3l0,0
				l1.1-0.7c0.9-0.5,1.4-1.5,1.4-3C25.7,11,23.6,7.3,21,5.8z M18.5,5.9L18.5,5.9c0.2,0,0.4,0.1,0.6,0.2C18.8,6,18.6,6,18.5,5.9z
				 M20.3,13.5c-0.1,0-0.1,0-0.2,0c0,0,0,0,0,0c0,0-0.1,0-0.1-0.1C20.1,13.5,20.3,13.5,20.3,13.5C20.4,13.5,20.3,13.5,20.3,13.5z
				 M20.6,13.5C20.6,13.5,20.6,13.5,20.6,13.5c-0.1,0-0.2,0-0.2,0c0,0,0,0,0,0C20.5,13.5,20.6,13.5,20.6,13.5
				C20.7,13.4,20.7,13.4,20.6,13.5z M21.1,12.7C21.1,12.7,21,12.7,21.1,12.7c-0.8-0.4-1.3-1.4-1.3-2.2c0,0,0-0.1,0-0.1
				c0,0,0.1,0,0.1,0c0.7,0.4,1.2,1.4,1.2,2.2C21.1,12.7,21.1,12.7,21.1,12.7z"/>
			<path class="st46" d="M24.1,13.2c0.1,0.5,0.1,0.9,0.1,1.4c0,0.8-0.2,1.5-0.4,2c0.3-0.5,0.4-1.2,0.4-2
				C24.2,14.2,24.2,13.7,24.1,13.2z M20.4,13.4L20.4,13.4L20.4,13.4L20.4,13.4z M20.7,5.8c-0.3-0.2-0.6-0.3-0.9-0.4
				c0-0.2,0-0.2-0.1-0.3c-0.1-0.1-0.2-0.2-0.3-0.5c-0.4-0.7-0.8-1.1-1.2-1.1c-0.3,0.1-0.6,0.2-0.9,0.3l-1.5,0.9l0,0l-0.4,0.2
				c0.3-0.2,0.6-0.3,0.9-0.3c0.1,0,0.3,0,0.4,0c-0.1-0.1-0.2-0.1-0.4,0c-0.3,0.1-0.6,0.2-0.9,0.3c0,0,0,0,0,0
				c-1.1,0.6-1.8,2.1-1.8,4c0,0.8,0.3,1.1,0.9,1.6c0.4,0.3,0.5,0.5,0.8,0.4c0.6,2.5,2.4,5.2,4.5,6.4c1.3,0.7,2.5,0.8,3.3,0.3l0,0
				L24,17c0.9-0.5,1.4-1.5,1.4-3C25.4,11,23.3,7.3,20.7,5.8z M18.1,5.9L18.1,5.9c0.2,0,0.4,0.1,0.6,0.2C18.5,6,18.3,6,18.1,5.9z
				 M20,13.5c-0.1,0-0.1,0-0.2,0c0,0,0,0,0,0c0,0-0.1,0-0.1-0.1C19.8,13.5,20,13.5,20,13.5C20.1,13.5,20,13.5,20,13.5z M20.3,13.5
				C20.3,13.5,20.3,13.5,20.3,13.5c-0.1,0-0.2,0-0.2,0c0,0,0,0,0,0C20.2,13.5,20.3,13.5,20.3,13.5C20.4,13.4,20.4,13.4,20.3,13.5z
				 M20.8,12.7C20.8,12.7,20.7,12.7,20.8,12.7c-0.8-0.4-1.3-1.4-1.3-2.2c0,0,0-0.1,0-0.1c0,0,0.1,0,0.1,0c0.7,0.4,1.2,1.4,1.2,2.2
				C20.8,12.7,20.8,12.7,20.8,12.7z"/>
			<path class="st47" d="M23.8,13.2c0.1,0.5,0.1,0.9,0.1,1.4c0,0.8-0.2,1.5-0.4,2c0.3-0.5,0.4-1.2,0.4-2
				C23.9,14.2,23.9,13.7,23.8,13.2z M20.1,13.4L20.1,13.4L20.1,13.4L20.1,13.4z M20.4,5.8c-0.3-0.2-0.6-0.3-0.9-0.4
				c0-0.2,0-0.2-0.1-0.3c-0.1-0.1-0.2-0.2-0.3-0.5c-0.4-0.7-0.8-1.1-1.2-1.1c-0.3,0.1-0.6,0.2-0.9,0.3l-1.5,0.9l0,0L15,4.9
				c0.3-0.2,0.6-0.3,0.9-0.3c0.1,0,0.3,0,0.4,0c-0.1-0.1-0.2-0.1-0.4,0c-0.3,0.1-0.6,0.2-0.9,0.3c0,0,0,0,0,0
				c-1.1,0.6-1.8,2.1-1.8,4c0,0.8,0.3,1.1,0.9,1.6c0.4,0.3,0.5,0.5,0.8,0.4c0.6,2.5,2.4,5.2,4.5,6.4c1.3,0.7,2.5,0.8,3.3,0.3l0,0
				l1.1-0.7c0.9-0.5,1.4-1.5,1.4-3C25.1,11,23,7.3,20.4,5.8z M17.8,5.9L17.8,5.9C18,6,18.2,6,18.5,6.1C18.2,6,18,6,17.8,5.9z
				 M19.7,13.5c-0.1,0-0.1,0-0.2,0c0,0,0,0,0,0c0,0-0.1,0-0.1-0.1C19.5,13.5,19.6,13.5,19.7,13.5C19.8,13.5,19.7,13.5,19.7,13.5z
				 M20,13.5C20,13.5,20,13.5,20,13.5c-0.1,0-0.2,0-0.2,0c0,0,0,0,0,0C19.9,13.5,20,13.5,20,13.5C20.1,13.4,20.1,13.4,20,13.5z
				 M20.5,12.7C20.4,12.7,20.4,12.7,20.5,12.7c-0.8-0.4-1.3-1.4-1.3-2.2c0,0,0-0.1,0-0.1c0,0,0.1,0,0.1,0c0.7,0.4,1.2,1.4,1.2,2.2
				C20.5,12.7,20.5,12.7,20.5,12.7z"/>
			<path class="st48" d="M23.5,13.2c0.1,0.5,0.1,0.9,0.1,1.4c0,0.8-0.2,1.5-0.4,2c0.3-0.5,0.4-1.2,0.4-2
				C23.6,14.2,23.6,13.7,23.5,13.2z M19.8,13.4L19.8,13.4L19.8,13.4L19.8,13.4z M20.1,5.8c-0.3-0.2-0.6-0.3-0.9-0.4
				c0-0.2,0-0.2-0.1-0.3c-0.1-0.1-0.2-0.2-0.3-0.5c-0.4-0.7-0.8-1.1-1.2-1.1c-0.3,0.1-0.6,0.2-0.9,0.3l-1.5,0.9l0,0l-0.4,0.2
				c0.3-0.2,0.6-0.3,0.9-0.3c0.1,0,0.3,0,0.4,0c-0.1-0.1-0.2-0.1-0.4,0c-0.3,0.1-0.6,0.2-0.9,0.3c0,0,0,0,0,0
				c-1.1,0.6-1.8,2.1-1.8,4c0,0.8,0.3,1.1,0.9,1.6c0.4,0.3,0.5,0.5,0.8,0.4c0.6,2.5,2.4,5.2,4.5,6.4c1.3,0.7,2.5,0.8,3.3,0.3l0,0
				l1.1-0.7c0.9-0.5,1.4-1.5,1.4-3C24.8,11,22.7,7.3,20.1,5.8z M17.5,5.9L17.5,5.9c0.2,0,0.4,0.1,0.6,0.2C17.9,6,17.7,6,17.5,5.9z
				 M19.4,13.5c-0.1,0-0.1,0-0.2,0c0,0,0,0,0,0c0,0-0.1,0-0.1-0.1C19.2,13.5,19.3,13.5,19.4,13.5C19.5,13.5,19.4,13.5,19.4,13.5z
				 M19.7,13.5C19.7,13.5,19.7,13.5,19.7,13.5c-0.1,0-0.2,0-0.2,0c0,0,0,0,0,0C19.6,13.5,19.7,13.5,19.7,13.5
				C19.8,13.4,19.8,13.4,19.7,13.5z M20.2,12.7C20.1,12.7,20.1,12.7,20.2,12.7c-0.8-0.4-1.3-1.4-1.3-2.2c0,0,0-0.1,0-0.1
				c0,0,0.1,0,0.1,0c0.7,0.4,1.2,1.4,1.2,2.2C20.2,12.7,20.2,12.7,20.2,12.7z"/>
			<path class="st49" d="M23.2,13.2c0.1,0.5,0.1,0.9,0.1,1.4c0,0.8-0.2,1.5-0.4,2c0.3-0.5,0.4-1.2,0.4-2
				C23.3,14.2,23.3,13.7,23.2,13.2z M19.5,13.4L19.5,13.4L19.5,13.4L19.5,13.4z M19.8,5.8c-0.3-0.2-0.6-0.3-0.9-0.4
				c0-0.2,0-0.2-0.1-0.3c-0.1-0.1-0.2-0.2-0.3-0.5c-0.4-0.7-0.8-1.1-1.2-1.1c-0.3,0.1-0.6,0.2-0.9,0.3l-1.5,0.9l0,0l-0.4,0.2
				c0.3-0.2,0.6-0.3,0.9-0.3c0.1,0,0.3,0,0.4,0c-0.1-0.1-0.2-0.1-0.4,0c-0.3,0.1-0.6,0.2-0.9,0.3c0,0,0,0,0,0
				c-1.1,0.6-1.8,2.1-1.8,4c0,0.8,0.3,1.1,0.9,1.6c0.4,0.3,0.5,0.5,0.8,0.4c0.6,2.5,2.4,5.2,4.5,6.4c1.3,0.7,2.5,0.8,3.3,0.3l0,0
				l1.1-0.7c0.9-0.5,1.4-1.5,1.4-3C24.5,11,22.4,7.3,19.8,5.8z M17.2,5.9L17.2,5.9c0.2,0,0.4,0.1,0.6,0.2C17.6,6,17.4,6,17.2,5.9z
				 M19.1,13.5c-0.1,0-0.1,0-0.2,0c0,0,0,0,0,0c0,0-0.1,0-0.1-0.1C18.9,13.5,19,13.5,19.1,13.5C19.2,13.5,19.1,13.5,19.1,13.5z
				 M19.4,13.5C19.4,13.5,19.4,13.5,19.4,13.5c-0.1,0-0.2,0-0.2,0c0,0,0,0,0,0C19.3,13.5,19.4,13.5,19.4,13.5
				C19.5,13.4,19.5,13.4,19.4,13.5z M19.9,12.7C19.8,12.7,19.8,12.7,19.9,12.7c-0.8-0.4-1.3-1.4-1.3-2.2c0,0,0-0.1,0-0.1
				c0,0,0.1,0,0.1,0c0.7,0.4,1.2,1.4,1.2,2.2C19.9,12.7,19.9,12.7,19.9,12.7z"/>
			<path class="st50" d="M22.9,13.2c0.1,0.5,0.1,0.9,0.1,1.4c0,0.8-0.2,1.5-0.4,2c0.3-0.5,0.4-1.2,0.4-2C23,14.2,23,13.7,22.9,13.2z
				 M19.2,13.4L19.2,13.4L19.2,13.4L19.2,13.4z M19.5,5.8c-0.3-0.2-0.6-0.3-0.9-0.4c0-0.2,0-0.2-0.1-0.3c-0.1-0.1-0.2-0.2-0.3-0.5
				c-0.4-0.7-0.8-1.1-1.2-1.1c-0.3,0.1-0.6,0.2-0.9,0.3l-1.5,0.9l0,0l-0.4,0.2c0.3-0.2,0.6-0.3,0.9-0.3c0.1,0,0.3,0,0.4,0
				c-0.1-0.1-0.2-0.1-0.4,0c-0.3,0.1-0.6,0.2-0.9,0.3c0,0,0,0,0,0c-1.1,0.6-1.8,2.1-1.8,4c0,0.8,0.3,1.1,0.9,1.6
				c0.4,0.3,0.5,0.5,0.8,0.4c0.6,2.5,2.4,5.2,4.5,6.4c1.3,0.7,2.5,0.8,3.3,0.3l0,0l1.1-0.7c0.9-0.5,1.4-1.5,1.4-3
				C24.2,11,22.1,7.3,19.5,5.8z M16.9,5.9L16.9,5.9c0.2,0,0.4,0.1,0.6,0.2C17.3,6,17.1,6,16.9,5.9z M18.8,13.5c-0.1,0-0.1,0-0.2,0
				c0,0,0,0,0,0c0,0-0.1,0-0.1-0.1C18.6,13.5,18.7,13.5,18.8,13.5C18.9,13.5,18.8,13.5,18.8,13.5z M19.1,13.5
				C19.1,13.5,19.1,13.5,19.1,13.5c-0.1,0-0.2,0-0.2,0c0,0,0,0,0,0C19,13.5,19.1,13.5,19.1,13.5C19.2,13.4,19.1,13.4,19.1,13.5z
				 M19.6,12.7C19.5,12.7,19.5,12.7,19.6,12.7c-0.8-0.4-1.3-1.4-1.3-2.2c0,0,0-0.1,0-0.1c0,0,0.1,0,0.1,0c0.7,0.4,1.2,1.4,1.2,2.2
				C19.6,12.7,19.6,12.7,19.6,12.7z"/>
			<path class="st51" d="M22.6,13.2c0.1,0.5,0.1,0.9,0.1,1.4c0,0.8-0.2,1.5-0.4,2c0.3-0.5,0.4-1.2,0.4-2
				C22.7,14.2,22.7,13.7,22.6,13.2z M18.9,13.4L18.9,13.4L18.9,13.4L18.9,13.4z M19.2,5.8c-0.3-0.2-0.6-0.3-0.9-0.4
				c0-0.2,0-0.2-0.1-0.3c-0.1-0.1-0.2-0.2-0.3-0.5c-0.4-0.7-0.8-1.1-1.2-1.1c-0.3,0.1-0.6,0.2-0.9,0.3l-1.5,0.9l0,0l-0.4,0.2
				c0.3-0.2,0.6-0.3,0.9-0.3c0.1,0,0.3,0,0.4,0c-0.1-0.1-0.2-0.1-0.4,0c-0.3,0.1-0.6,0.2-0.9,0.3c0,0,0,0,0,0
				c-1.1,0.6-1.8,2.1-1.8,4c0,0.8,0.3,1.1,0.9,1.6c0.4,0.3,0.5,0.5,0.8,0.4c0.6,2.5,2.4,5.2,4.5,6.4c1.3,0.7,2.5,0.8,3.3,0.3l0,0
				l1.1-0.7c0.9-0.5,1.4-1.5,1.4-3C23.9,11,21.8,7.3,19.2,5.8z M16.6,5.9L16.6,5.9C16.8,6,17,6,17.2,6.1C17,6,16.8,6,16.6,5.9z
				 M18.5,13.5c-0.1,0-0.1,0-0.2,0c0,0,0,0,0,0c0,0-0.1,0-0.1-0.1C18.3,13.5,18.4,13.5,18.5,13.5C18.6,13.5,18.5,13.5,18.5,13.5z
				 M18.8,13.5C18.8,13.5,18.8,13.5,18.8,13.5c-0.1,0-0.2,0-0.2,0c0,0,0,0,0,0C18.7,13.5,18.8,13.5,18.8,13.5
				C18.9,13.4,18.8,13.4,18.8,13.5z M19.3,12.7C19.2,12.7,19.2,12.7,19.3,12.7c-0.8-0.4-1.3-1.4-1.3-2.2c0,0,0-0.1,0-0.1
				c0,0,0.1,0,0.1,0c0.7,0.4,1.2,1.4,1.2,2.2C19.3,12.7,19.3,12.7,19.3,12.7z"/>
			<path class="st52" d="M22.3,13.2c0.1,0.5,0.1,0.9,0.1,1.4c0,0.8-0.2,1.5-0.4,2c0.3-0.5,0.4-1.2,0.4-2
				C22.4,14.2,22.4,13.7,22.3,13.2z M18.6,13.4L18.6,13.4L18.6,13.4L18.6,13.4z M18.9,5.8c-0.3-0.2-0.6-0.3-0.9-0.4
				c0-0.2,0-0.2-0.1-0.3c-0.1-0.1-0.2-0.2-0.3-0.5c-0.4-0.7-0.8-1.1-1.2-1.1c-0.3,0.1-0.6,0.2-0.9,0.3l-1.5,0.9l0,0l-0.4,0.2
				c0.3-0.2,0.6-0.3,0.9-0.3c0.1,0,0.3,0,0.4,0c-0.1-0.1-0.2-0.1-0.4,0c-0.3,0.1-0.6,0.2-0.9,0.3c0,0,0,0,0,0
				c-1.1,0.6-1.8,2.1-1.8,4c0,0.8,0.3,1.1,0.9,1.6c0.4,0.3,0.5,0.5,0.8,0.4c0.6,2.5,2.4,5.2,4.5,6.4c1.3,0.7,2.5,0.8,3.3,0.3l0,0
				l1.1-0.7c0.9-0.5,1.4-1.5,1.4-3C23.6,11,21.5,7.3,18.9,5.8z M16.3,5.9L16.3,5.9c0.2,0,0.4,0.1,0.6,0.2C16.7,6,16.5,6,16.3,5.9z
				 M18.2,13.5c-0.1,0-0.1,0-0.2,0c0,0,0,0,0,0c0,0-0.1,0-0.1-0.1C18,13.5,18.1,13.5,18.2,13.5C18.3,13.5,18.2,13.5,18.2,13.5z
				 M18.5,13.5C18.5,13.5,18.5,13.5,18.5,13.5c-0.1,0-0.2,0-0.2,0c0,0,0,0,0,0C18.4,13.5,18.5,13.5,18.5,13.5
				C18.6,13.4,18.5,13.4,18.5,13.5z M19,12.7C18.9,12.7,18.9,12.7,19,12.7c-0.8-0.4-1.3-1.4-1.3-2.2c0,0,0-0.1,0-0.1
				c0,0,0.1,0,0.1,0c0.7,0.4,1.2,1.4,1.2,2.2C19,12.7,19,12.7,19,12.7z"/>
			<path class="st53" d="M22,13.2c0.1,0.5,0.1,0.9,0.1,1.4c0,0.8-0.2,1.5-0.4,2c0.3-0.5,0.4-1.2,0.4-2C22.1,14.2,22.1,13.7,22,13.2z
				 M18.3,13.4L18.3,13.4L18.3,13.4L18.3,13.4z M18.6,5.8c-0.3-0.2-0.6-0.3-0.9-0.4c0-0.2,0-0.2-0.1-0.3c-0.1-0.1-0.2-0.2-0.3-0.5
				c-0.4-0.7-0.8-1.1-1.2-1.1c-0.3,0.1-0.6,0.2-0.9,0.3l-1.5,0.9l0,0l-0.4,0.2c0.3-0.2,0.6-0.3,0.9-0.3c0.1,0,0.3,0,0.4,0
				c-0.1-0.1-0.2-0.1-0.4,0c-0.3,0.1-0.6,0.2-0.9,0.3c0,0,0,0,0,0c-1.1,0.6-1.8,2.1-1.8,4c0,0.8,0.3,1.1,0.9,1.6
				c0.4,0.3,0.5,0.5,0.8,0.4c0.6,2.5,2.4,5.2,4.5,6.4c1.3,0.7,2.5,0.8,3.3,0.3l0,0l1.1-0.7c0.9-0.5,1.4-1.5,1.4-3
				C23.3,11,21.2,7.3,18.6,5.8z M16,5.9L16,5.9c0.2,0,0.4,0.1,0.6,0.2C16.4,6,16.2,6,16,5.9z M17.9,13.5c-0.1,0-0.1,0-0.2,0
				c0,0,0,0,0,0c0,0-0.1,0-0.1-0.1C17.7,13.5,17.8,13.5,17.9,13.5C18,13.5,17.9,13.5,17.9,13.5z M18.2,13.5
				C18.2,13.5,18.2,13.5,18.2,13.5c-0.1,0-0.2,0-0.2,0c0,0,0,0,0,0C18.1,13.5,18.2,13.5,18.2,13.5C18.3,13.4,18.2,13.4,18.2,13.5z
				 M18.7,12.7C18.6,12.7,18.6,12.7,18.7,12.7c-0.8-0.4-1.3-1.4-1.3-2.2c0,0,0-0.1,0-0.1c0,0,0.1,0,0.1,0c0.7,0.4,1.2,1.4,1.2,2.2
				C18.7,12.7,18.7,12.7,18.7,12.7z"/>
			<path class="st54" d="M21.7,13.2c0.1,0.5,0.1,0.9,0.1,1.4c0,0.8-0.2,1.5-0.4,2c0.3-0.5,0.4-1.2,0.4-2
				C21.8,14.2,21.8,13.7,21.7,13.2z M18,13.4L18,13.4L18,13.4L18,13.4z M18.3,5.8c-0.3-0.2-0.6-0.3-0.9-0.4c0-0.2,0-0.2-0.1-0.3
				c-0.1-0.1-0.2-0.2-0.3-0.5c-0.4-0.7-0.8-1.1-1.2-1.1c-0.3,0.1-0.6,0.2-0.9,0.3l-1.5,0.9l0,0l-0.4,0.2c0.3-0.2,0.6-0.3,0.9-0.3
				c0.1,0,0.3,0,0.4,0c-0.1-0.1-0.2-0.1-0.4,0c-0.3,0.1-0.6,0.2-0.9,0.3c0,0,0,0,0,0C11.7,5.5,11,7,11,8.9c0,0.8,0.3,1.1,0.9,1.6
				c0.4,0.3,0.5,0.5,0.8,0.4c0.6,2.5,2.4,5.2,4.5,6.4c1.3,0.7,2.5,0.8,3.3,0.3l0,0l1.1-0.7c0.9-0.5,1.4-1.5,1.4-3
				C23,11,20.9,7.3,18.3,5.8z M15.7,5.9L15.7,5.9c0.2,0,0.4,0.1,0.6,0.2C16.1,6,15.9,6,15.7,5.9z M17.6,13.5c-0.1,0-0.1,0-0.2,0
				c0,0,0,0,0,0c0,0-0.1,0-0.1-0.1C17.4,13.5,17.5,13.5,17.6,13.5C17.6,13.5,17.6,13.5,17.6,13.5z M17.9,13.5
				C17.9,13.5,17.9,13.5,17.9,13.5c-0.1,0-0.2,0-0.2,0c0,0,0,0,0,0C17.8,13.5,17.9,13.5,17.9,13.5C18,13.4,17.9,13.4,17.9,13.5z
				 M18.4,12.7C18.3,12.7,18.3,12.7,18.4,12.7c-0.8-0.4-1.3-1.4-1.3-2.2c0,0,0-0.1,0-0.1c0,0,0.1,0,0.1,0c0.7,0.4,1.2,1.4,1.2,2.2
				C18.4,12.7,18.4,12.7,18.4,12.7z"/>
			<path class="st55" d="M21.4,13.2c0.1,0.5,0.1,0.9,0.1,1.4c0,0.8-0.2,1.5-0.4,2c0.3-0.5,0.4-1.2,0.4-2
				C21.5,14.2,21.5,13.7,21.4,13.2z M17.7,13.4L17.7,13.4L17.7,13.4L17.7,13.4z M18,5.8c-0.3-0.2-0.6-0.3-0.9-0.4
				C17,5.2,17,5.1,17,5c-0.1-0.1-0.2-0.2-0.3-0.5c-0.4-0.7-0.8-1.1-1.2-1.1c-0.3,0.1-0.6,0.2-0.9,0.3L13,4.7l0,0l-0.4,0.2
				c0.3-0.2,0.6-0.3,0.9-0.3c0.1,0,0.3,0,0.4,0c-0.1-0.1-0.2-0.1-0.4,0c-0.3,0.1-0.6,0.2-0.9,0.3c0,0,0,0,0,0
				c-1.1,0.6-1.8,2.1-1.8,4c0,0.8,0.3,1.1,0.9,1.6c0.4,0.3,0.5,0.5,0.8,0.4c0.6,2.5,2.4,5.2,4.5,6.4c1.3,0.7,2.5,0.8,3.3,0.3l0,0
				l1.1-0.7c0.9-0.5,1.4-1.5,1.4-3C22.7,11,20.6,7.3,18,5.8z M15.4,5.9L15.4,5.9C15.6,6,15.8,6,16,6.1C15.8,6,15.6,6,15.4,5.9z
				 M17.3,13.5c-0.1,0-0.1,0-0.2,0c0,0,0,0,0,0c0,0-0.1,0-0.1-0.1C17.1,13.5,17.2,13.5,17.3,13.5C17.3,13.5,17.3,13.5,17.3,13.5z
				 M17.6,13.5C17.6,13.5,17.6,13.5,17.6,13.5c-0.1,0-0.2,0-0.2,0c0,0,0,0,0,0C17.5,13.5,17.6,13.5,17.6,13.5
				C17.7,13.4,17.6,13.4,17.6,13.5z M18.1,12.7C18,12.7,18,12.7,18.1,12.7c-0.8-0.4-1.3-1.4-1.3-2.2c0,0,0-0.1,0-0.1
				c0,0,0.1,0,0.1,0c0.7,0.4,1.2,1.4,1.2,2.2C18.1,12.7,18.1,12.7,18.1,12.7z"/>
			<path class="st56" d="M21.1,13.2c0.1,0.5,0.1,0.9,0.1,1.4c0,0.8-0.2,1.5-0.4,2c0.3-0.5,0.4-1.2,0.4-2
				C21.2,14.2,21.2,13.7,21.1,13.2z M17.4,13.4L17.4,13.4L17.4,13.4L17.4,13.4z M17.7,5.8c-0.3-0.2-0.6-0.3-0.9-0.4
				c0-0.2,0-0.2-0.1-0.3c-0.1-0.1-0.2-0.2-0.3-0.5c-0.4-0.7-0.8-1.1-1.2-1.1c-0.3,0.1-0.6,0.2-0.9,0.3l-1.5,0.9l0,0l-0.4,0.2
				c0.3-0.2,0.6-0.3,0.9-0.3c0.1,0,0.3,0,0.4,0c-0.1-0.1-0.2-0.1-0.4,0c-0.3,0.1-0.6,0.2-0.9,0.3c0,0,0,0,0,0
				c-1.1,0.6-1.8,2.1-1.8,4c0,0.8,0.3,1.1,0.9,1.6c0.4,0.3,0.5,0.5,0.8,0.4c0.6,2.5,2.4,5.2,4.5,6.4c1.3,0.7,2.5,0.8,3.3,0.3l0,0
				L21,17c0.9-0.5,1.4-1.5,1.4-3C22.4,11,20.3,7.3,17.7,5.8z M15.1,5.9L15.1,5.9c0.2,0,0.4,0.1,0.6,0.2C15.5,6,15.3,6,15.1,5.9z
				 M17,13.5c-0.1,0-0.1,0-0.2,0c0,0,0,0,0,0c0,0-0.1,0-0.1-0.1C16.8,13.5,16.9,13.5,17,13.5C17,13.5,17,13.5,17,13.5z M17.3,13.5
				C17.3,13.5,17.3,13.5,17.3,13.5c-0.1,0-0.2,0-0.2,0c0,0,0,0,0,0C17.2,13.5,17.3,13.5,17.3,13.5C17.4,13.4,17.3,13.4,17.3,13.5z
				 M17.8,12.7C17.7,12.7,17.7,12.7,17.8,12.7c-0.8-0.4-1.3-1.4-1.3-2.2c0,0,0-0.1,0-0.1c0,0,0.1,0,0.1,0c0.7,0.4,1.2,1.4,1.2,2.2
				C17.8,12.7,17.8,12.7,17.8,12.7z"/>
			<path class="st57" d="M20.8,13.2c0.1,0.5,0.1,0.9,0.1,1.4c0,0.8-0.2,1.5-0.4,2c0.3-0.5,0.4-1.2,0.4-2
				C20.9,14.2,20.9,13.7,20.8,13.2z M17.1,13.4L17.1,13.4L17.1,13.4L17.1,13.4z M17.4,5.8c-0.3-0.2-0.6-0.3-0.9-0.4
				c0-0.2,0-0.2-0.1-0.3c-0.1-0.1-0.2-0.2-0.3-0.5c-0.4-0.7-0.8-1.1-1.2-1.1c-0.3,0.1-0.6,0.2-0.9,0.3l-1.5,0.9l0,0L12,4.9
				c0.3-0.2,0.6-0.3,0.9-0.3c0.1,0,0.3,0,0.4,0c-0.1-0.1-0.2-0.1-0.4,0c-0.3,0.1-0.6,0.2-0.9,0.3c0,0,0,0,0,0
				c-1.1,0.6-1.8,2.1-1.8,4c0,0.8,0.3,1.1,0.9,1.6c0.4,0.3,0.5,0.5,0.8,0.4c0.6,2.5,2.4,5.2,4.5,6.4c1.3,0.7,2.5,0.8,3.3,0.3l0,0
				l1.1-0.7c0.9-0.5,1.4-1.5,1.4-3C22.1,11,20,7.3,17.4,5.8z M14.8,5.9L14.8,5.9C15,6,15.2,6,15.4,6.1C15.2,6,15,6,14.8,5.9z
				 M16.7,13.5c-0.1,0-0.1,0-0.2,0c0,0,0,0,0,0c0,0-0.1,0-0.1-0.1C16.5,13.5,16.6,13.5,16.7,13.5C16.7,13.5,16.7,13.5,16.7,13.5z
				 M17,13.5C17,13.5,17,13.5,17,13.5c-0.1,0-0.2,0-0.2,0c0,0,0,0,0,0C16.9,13.5,17,13.5,17,13.5C17.1,13.4,17,13.4,17,13.5z
				 M17.5,12.7C17.4,12.7,17.4,12.7,17.5,12.7c-0.8-0.4-1.3-1.4-1.3-2.2c0,0,0-0.1,0-0.1c0,0,0.1,0,0.1,0c0.7,0.4,1.2,1.4,1.2,2.2
				C17.5,12.7,17.5,12.7,17.5,12.7z"/>
			<path class="st58" d="M20.5,13.2c0.1,0.5,0.1,0.9,0.1,1.4c0,0.8-0.2,1.5-0.4,2c0.3-0.5,0.4-1.2,0.4-2
				C20.6,14.2,20.6,13.7,20.5,13.2z M16.8,13.4L16.8,13.4L16.8,13.4L16.8,13.4z M17.1,5.8c-0.3-0.2-0.6-0.3-0.9-0.4
				c0-0.2,0-0.2-0.1-0.3c-0.1-0.1-0.2-0.2-0.3-0.5c-0.4-0.7-0.8-1.1-1.2-1.1c-0.3,0.1-0.6,0.2-0.9,0.3L12,4.7l0,0l-0.4,0.2
				c0.3-0.2,0.6-0.3,0.9-0.3c0.1,0,0.3,0,0.4,0c-0.1-0.1-0.2-0.1-0.4,0c-0.3,0.1-0.6,0.2-0.9,0.3c0,0,0,0,0,0
				c-1.1,0.6-1.8,2.1-1.8,4c0,0.8,0.3,1.1,0.9,1.6c0.4,0.3,0.5,0.5,0.8,0.4c0.6,2.5,2.4,5.2,4.5,6.4c1.3,0.7,2.5,0.8,3.3,0.3l0,0
				l1.1-0.7c0.9-0.5,1.4-1.5,1.4-3C21.8,11,19.7,7.3,17.1,5.8z M14.5,5.9L14.5,5.9c0.2,0,0.4,0.1,0.6,0.2C14.9,6,14.7,6,14.5,5.9z
				 M16.4,13.5c-0.1,0-0.1,0-0.2,0c0,0,0,0,0,0c0,0-0.1,0-0.1-0.1C16.2,13.5,16.3,13.5,16.4,13.5C16.4,13.5,16.4,13.5,16.4,13.5z
				 M16.7,13.5C16.7,13.5,16.7,13.5,16.7,13.5c-0.1,0-0.2,0-0.2,0c0,0,0,0,0,0C16.6,13.5,16.7,13.5,16.7,13.5
				C16.8,13.4,16.7,13.4,16.7,13.5z M17.2,12.7C17.1,12.7,17.1,12.7,17.2,12.7c-0.8-0.4-1.3-1.4-1.3-2.2c0,0,0-0.1,0-0.1
				c0,0,0.1,0,0.1,0c0.7,0.4,1.2,1.4,1.2,2.2C17.2,12.7,17.2,12.7,17.2,12.7z"/>
			<path class="st59" d="M20.2,13.2c0.1,0.5,0.1,0.9,0.1,1.4c0,0.8-0.2,1.5-0.4,2c0.3-0.5,0.4-1.2,0.4-2
				C20.3,14.2,20.3,13.7,20.2,13.2z M16.5,13.4L16.5,13.4L16.5,13.4L16.5,13.4z M16.8,5.8c-0.3-0.2-0.6-0.3-0.9-0.4
				c0-0.2,0-0.2-0.1-0.3c-0.1-0.1-0.2-0.2-0.3-0.5c-0.4-0.7-0.8-1.1-1.2-1.1c-0.3,0.1-0.6,0.2-0.9,0.3l-1.5,0.9l0,0l-0.4,0.2
				c0.3-0.2,0.6-0.3,0.9-0.3c0.1,0,0.3,0,0.4,0c-0.1-0.1-0.2-0.1-0.4,0c-0.3,0.1-0.6,0.2-0.9,0.3c0,0,0,0,0,0
				c-1.1,0.6-1.8,2.1-1.8,4c0,0.8,0.3,1.1,0.9,1.6c0.4,0.3,0.5,0.5,0.8,0.4c0.6,2.5,2.4,5.2,4.5,6.4c1.3,0.7,2.5,0.8,3.3,0.3l0,0
				l1.1-0.7c0.9-0.5,1.4-1.5,1.4-3C21.5,11,19.4,7.3,16.8,5.8z M14.2,5.9L14.2,5.9c0.2,0,0.4,0.1,0.6,0.2C14.6,6,14.4,6,14.2,5.9z
				 M16.1,13.5c-0.1,0-0.1,0-0.2,0c0,0,0,0,0,0c0,0-0.1,0-0.1-0.1C15.9,13.5,16,13.5,16.1,13.5C16.1,13.5,16.1,13.5,16.1,13.5z
				 M16.4,13.5C16.4,13.5,16.4,13.5,16.4,13.5c-0.1,0-0.2,0-0.2,0c0,0,0,0,0,0C16.3,13.5,16.4,13.5,16.4,13.5
				C16.5,13.4,16.4,13.4,16.4,13.5z M16.9,12.7C16.8,12.7,16.8,12.7,16.9,12.7c-0.8-0.4-1.3-1.4-1.3-2.2c0,0,0-0.1,0-0.1
				c0,0,0.1,0,0.1,0c0.7,0.4,1.2,1.4,1.2,2.2C16.9,12.7,16.9,12.7,16.9,12.7z"/>
			<path class="st60" d="M19.9,13.2c0.1,0.5,0.1,0.9,0.1,1.4c0,0.8-0.2,1.5-0.4,2c0.3-0.5,0.4-1.2,0.4-2C20,14.2,20,13.7,19.9,13.2z
				 M16.2,13.4L16.2,13.4L16.2,13.4L16.2,13.4z M16.5,5.8c-0.3-0.2-0.6-0.3-0.9-0.4c0-0.2,0-0.2-0.1-0.3c-0.1-0.1-0.2-0.2-0.3-0.5
				c-0.4-0.7-0.8-1.1-1.2-1.1c-0.3,0.1-0.6,0.2-0.9,0.3l-1.5,0.9l0,0l-0.4,0.2c0.3-0.2,0.6-0.3,0.9-0.3c0.1,0,0.3,0,0.4,0
				c-0.1-0.1-0.2-0.1-0.4,0c-0.3,0.1-0.6,0.2-0.9,0.3c0,0,0,0,0,0C9.9,5.5,9.2,7,9.2,8.9c0,0.8,0.3,1.1,0.9,1.6
				c0.4,0.3,0.5,0.5,0.8,0.4c0.6,2.5,2.4,5.2,4.5,6.4c1.3,0.7,2.5,0.8,3.3,0.3l0,0l1.1-0.7c0.9-0.5,1.4-1.5,1.4-3
				C21.2,11,19.1,7.3,16.5,5.8z M13.9,5.9L13.9,5.9c0.2,0,0.4,0.1,0.6,0.2C14.3,6,14.1,6,13.9,5.9z M15.8,13.5c-0.1,0-0.1,0-0.2,0
				c0,0,0,0,0,0c0,0-0.1,0-0.1-0.1C15.6,13.5,15.7,13.5,15.8,13.5C15.8,13.5,15.8,13.5,15.8,13.5z M16.1,13.5
				C16.1,13.5,16,13.5,16.1,13.5c-0.1,0-0.2,0-0.2,0c0,0,0,0,0,0C16,13.5,16.1,13.5,16.1,13.5C16.2,13.4,16.1,13.4,16.1,13.5z
				 M16.6,12.7C16.5,12.7,16.5,12.7,16.6,12.7c-0.8-0.4-1.3-1.4-1.3-2.2c0,0,0-0.1,0-0.1c0,0,0.1,0,0.1,0c0.7,0.4,1.2,1.4,1.2,2.2
				C16.6,12.7,16.6,12.7,16.6,12.7z"/>
			<path class="st61" d="M19.6,13.2c0.1,0.5,0.1,0.9,0.1,1.4c0,0.8-0.2,1.5-0.4,2c0.3-0.5,0.4-1.2,0.4-2
				C19.7,14.2,19.7,13.7,19.6,13.2z M15.9,13.4L15.9,13.4L15.9,13.4L15.9,13.4z M16.2,5.8c-0.3-0.2-0.6-0.3-0.9-0.4
				c0-0.2,0-0.2-0.1-0.3c-0.1-0.1-0.2-0.2-0.3-0.5c-0.4-0.7-0.8-1.1-1.2-1.1c-0.3,0.1-0.6,0.2-0.9,0.3l-1.5,0.9l0,0l-0.4,0.2
				c0.3-0.2,0.6-0.3,0.9-0.3c0.1,0,0.3,0,0.4,0c-0.1-0.1-0.2-0.1-0.4,0c-0.3,0.1-0.6,0.2-0.9,0.3c0,0,0,0,0,0C9.6,5.5,8.9,7,8.9,8.9
				c0,0.8,0.3,1.1,0.9,1.6c0.4,0.3,0.5,0.5,0.8,0.4c0.6,2.5,2.4,5.2,4.5,6.4c1.3,0.7,2.5,0.8,3.3,0.3l0,0l1.1-0.7
				c0.9-0.5,1.4-1.5,1.4-3C20.9,11,18.8,7.3,16.2,5.8z M13.6,5.9L13.6,5.9C13.8,6,14,6,14.2,6.1C14,6,13.8,6,13.6,5.9z M15.5,13.5
				c-0.1,0-0.1,0-0.2,0c0,0,0,0,0,0c0,0-0.1,0-0.1-0.1C15.3,13.5,15.4,13.5,15.5,13.5C15.5,13.5,15.5,13.5,15.5,13.5z M15.8,13.5
				C15.8,13.5,15.7,13.5,15.8,13.5c-0.1,0-0.2,0-0.2,0c0,0,0,0,0,0C15.7,13.5,15.8,13.5,15.8,13.5C15.9,13.4,15.8,13.4,15.8,13.5z
				 M16.3,12.7C16.2,12.7,16.2,12.7,16.3,12.7c-0.8-0.4-1.3-1.4-1.3-2.2c0,0,0-0.1,0-0.1c0,0,0.1,0,0.1,0c0.7,0.4,1.2,1.4,1.2,2.2
				C16.3,12.7,16.3,12.7,16.3,12.7z"/>
			<path class="st62" d="M19.3,13.2c0.1,0.5,0.1,0.9,0.1,1.4c0,0.8-0.2,1.5-0.4,2c0.3-0.5,0.4-1.2,0.4-2
				C19.4,14.2,19.4,13.7,19.3,13.2z M15.6,13.4L15.6,13.4L15.6,13.4L15.6,13.4z M15.9,5.8c-0.3-0.2-0.6-0.3-0.9-0.4
				c0-0.2,0-0.2-0.1-0.3c-0.1-0.1-0.2-0.2-0.3-0.5c-0.4-0.7-0.8-1.1-1.2-1.1c-0.3,0.1-0.6,0.2-0.9,0.3l-1.5,0.9l0,0l-0.4,0.2
				c0.3-0.2,0.6-0.3,0.9-0.3c0.1,0,0.3,0,0.4,0c-0.1-0.1-0.2-0.1-0.4,0c-0.3,0.1-0.6,0.2-0.9,0.3c0,0,0,0,0,0C9.3,5.5,8.6,7,8.6,8.9
				c0,0.8,0.3,1.1,0.9,1.6c0.4,0.3,0.5,0.5,0.8,0.4c0.6,2.5,2.4,5.2,4.5,6.4c1.3,0.7,2.5,0.8,3.3,0.3l0,0l1.1-0.7
				c0.9-0.5,1.4-1.5,1.4-3C20.6,11,18.5,7.3,15.9,5.8z M13.3,5.9L13.3,5.9c0.2,0,0.4,0.1,0.6,0.2C13.7,6,13.5,6,13.3,5.9z
				 M15.2,13.5c-0.1,0-0.1,0-0.2,0c0,0,0,0,0,0c0,0-0.1,0-0.1-0.1C15,13.5,15.1,13.5,15.2,13.5C15.2,13.5,15.2,13.5,15.2,13.5z
				 M15.5,13.5C15.5,13.5,15.4,13.5,15.5,13.5c-0.1,0-0.2,0-0.2,0c0,0,0,0,0,0C15.4,13.5,15.5,13.5,15.5,13.5
				C15.6,13.4,15.5,13.4,15.5,13.5z M16,12.7C15.9,12.7,15.9,12.7,16,12.7c-0.8-0.4-1.3-1.4-1.3-2.2c0,0,0-0.1,0-0.1
				c0,0,0.1,0,0.1,0c0.7,0.4,1.2,1.4,1.2,2.2C16,12.7,16,12.7,16,12.7z"/>
			<path class="st63" d="M19,13.2c0.1,0.5,0.1,0.9,0.1,1.4c0,0.8-0.2,1.5-0.4,2c0.3-0.5,0.4-1.2,0.4-2C19.1,14.2,19.1,13.7,19,13.2z
				 M15.3,13.4L15.3,13.4L15.3,13.4L15.3,13.4z M15.6,5.8c-0.3-0.2-0.6-0.3-0.9-0.4c0-0.2,0-0.2-0.1-0.3c-0.1-0.1-0.2-0.2-0.3-0.5
				c-0.4-0.7-0.8-1.1-1.2-1.1c-0.3,0.1-0.6,0.2-0.9,0.3l-1.5,0.9l0,0l-0.4,0.2c0.3-0.2,0.6-0.3,0.9-0.3c0.1,0,0.3,0,0.4,0
				c-0.1-0.1-0.2-0.1-0.4,0c-0.3,0.1-0.6,0.2-0.9,0.3c0,0,0,0,0,0C9,5.5,8.3,7,8.3,8.9c0,0.8,0.3,1.1,0.9,1.6
				c0.4,0.3,0.5,0.5,0.8,0.4c0.6,2.5,2.4,5.2,4.5,6.4c1.3,0.7,2.5,0.8,3.3,0.3l0,0l1.1-0.7c0.9-0.5,1.4-1.5,1.4-3
				C20.3,11,18.2,7.3,15.6,5.8z M13,5.9L13,5.9c0.2,0,0.4,0.1,0.6,0.2C13.4,6,13.2,6,13,5.9z M14.9,13.5c-0.1,0-0.1,0-0.2,0
				c0,0,0,0,0,0c0,0-0.1,0-0.1-0.1C14.7,13.5,14.8,13.5,14.9,13.5C14.9,13.5,14.9,13.5,14.9,13.5z M15.2,13.5
				C15.2,13.5,15.1,13.5,15.2,13.5c-0.1,0-0.2,0-0.2,0c0,0,0,0,0,0C15.1,13.5,15.2,13.5,15.2,13.5C15.3,13.4,15.2,13.4,15.2,13.5z
				 M15.7,12.7C15.6,12.7,15.6,12.7,15.7,12.7c-0.8-0.4-1.3-1.4-1.3-2.2c0,0,0-0.1,0-0.1c0,0,0.1,0,0.1,0c0.7,0.4,1.2,1.4,1.2,2.2
				C15.7,12.7,15.7,12.7,15.7,12.7z"/>
			<path class="st64" d="M18.7,13.2c0.1,0.5,0.1,0.9,0.1,1.4c0,0.8-0.2,1.5-0.4,2c0.3-0.5,0.4-1.2,0.4-2
				C18.8,14.2,18.8,13.7,18.7,13.2z M15,13.4L15,13.4L15,13.4L15,13.4z M15.3,5.8c-0.3-0.2-0.6-0.3-0.9-0.4c0-0.2,0-0.2-0.1-0.3
				c-0.1-0.1-0.2-0.2-0.3-0.5c-0.4-0.7-0.8-1.1-1.2-1.1c-0.3,0.1-0.6,0.2-0.9,0.3l-1.5,0.9l0,0L9.9,4.9c0.3-0.2,0.6-0.3,0.9-0.3
				c0.1,0,0.3,0,0.4,0c-0.1-0.1-0.2-0.1-0.4,0c-0.3,0.1-0.6,0.2-0.9,0.3c0,0,0,0,0,0C8.7,5.5,8,7,8,8.9c0,0.8,0.3,1.1,0.9,1.6
				c0.4,0.3,0.5,0.5,0.8,0.4c0.6,2.5,2.4,5.2,4.5,6.4c1.3,0.7,2.5,0.8,3.3,0.3l0,0l1.1-0.7c0.9-0.5,1.4-1.5,1.4-3
				C20,11,17.9,7.3,15.3,5.8z M12.7,5.9L12.7,5.9c0.2,0,0.4,0.1,0.6,0.2C13.1,6,12.9,6,12.7,5.9z M14.6,13.5c-0.1,0-0.1,0-0.2,0
				c0,0,0,0,0,0c0,0-0.1,0-0.1-0.1C14.4,13.5,14.5,13.5,14.6,13.5C14.6,13.5,14.6,13.5,14.6,13.5z M14.9,13.5
				C14.9,13.5,14.8,13.5,14.9,13.5c-0.1,0-0.2,0-0.2,0c0,0,0,0,0,0C14.8,13.5,14.9,13.5,14.9,13.5C15,13.4,14.9,13.4,14.9,13.5z
				 M15.4,12.7C15.3,12.7,15.3,12.7,15.4,12.7c-0.8-0.4-1.3-1.4-1.3-2.2c0,0,0-0.1,0-0.1c0,0,0.1,0,0.1,0c0.7,0.4,1.2,1.4,1.2,2.2
				C15.4,12.7,15.4,12.7,15.4,12.7z"/>
			<path class="st65" d="M18.4,13.2c0.1,0.5,0.1,0.9,0.1,1.4c0,0.8-0.2,1.5-0.4,2c0.3-0.5,0.4-1.2,0.4-2
				C18.5,14.2,18.5,13.7,18.4,13.2z M14.7,13.4L14.7,13.4L14.7,13.4L14.7,13.4z M15,5.8c-0.3-0.2-0.6-0.3-0.9-0.4
				c0-0.2,0-0.2-0.1-0.3c-0.1-0.1-0.2-0.2-0.3-0.5c-0.4-0.7-0.8-1.1-1.2-1.1c-0.3,0.1-0.6,0.2-0.9,0.3L9.9,4.7l0,0L9.6,4.9
				c0.3-0.2,0.6-0.3,0.9-0.3c0.1,0,0.3,0,0.4,0c-0.1-0.1-0.2-0.1-0.4,0c-0.3,0.1-0.6,0.2-0.9,0.3c0,0,0,0,0,0C8.4,5.5,7.7,7,7.7,8.9
				c0,0.8,0.3,1.1,0.9,1.6C9,10.8,9.1,11,9.3,10.9c0.6,2.5,2.4,5.2,4.5,6.4c1.3,0.7,2.5,0.8,3.3,0.3l0,0l1.1-0.7
				c0.9-0.5,1.4-1.5,1.4-3C19.7,11,17.5,7.3,15,5.8z M12.4,5.9L12.4,5.9C12.6,6,12.8,6,13,6.1C12.8,6,12.6,6,12.4,5.9z M14.3,13.5
				c-0.1,0-0.1,0-0.2,0c0,0,0,0,0,0c0,0-0.1,0-0.1-0.1C14.1,13.5,14.2,13.5,14.3,13.5C14.3,13.5,14.3,13.5,14.3,13.5z M14.6,13.5
				C14.6,13.5,14.5,13.5,14.6,13.5c-0.1,0-0.2,0-0.2,0c0,0,0,0,0,0C14.5,13.5,14.6,13.5,14.6,13.5C14.7,13.4,14.6,13.4,14.6,13.5z
				 M15.1,12.7C15,12.7,15,12.7,15.1,12.7c-0.8-0.4-1.3-1.4-1.3-2.2c0,0,0-0.1,0-0.1c0,0,0.1,0,0.1,0c0.7,0.4,1.2,1.4,1.2,2.2
				C15.1,12.7,15.1,12.7,15.1,12.7z"/>
			<path class="st66" d="M18.1,13.2c0.1,0.5,0.1,0.9,0.1,1.4c0,0.8-0.2,1.5-0.4,2c0.3-0.5,0.4-1.2,0.4-2
				C18.2,14.2,18.2,13.7,18.1,13.2z M14.4,13.4L14.4,13.4L14.4,13.4L14.4,13.4z M14.7,5.8c-0.3-0.2-0.6-0.3-0.9-0.4
				c0-0.2,0-0.2-0.1-0.3c-0.1-0.1-0.2-0.2-0.3-0.5c-0.4-0.7-0.8-1.1-1.2-1.1c-0.3,0.1-0.6,0.2-0.9,0.3L9.6,4.7l0,0L9.3,4.9
				c0.3-0.2,0.6-0.3,0.9-0.3c0.1,0,0.3,0,0.4,0c-0.1-0.1-0.2-0.1-0.4,0C9.9,4.6,9.5,4.7,9.3,4.9c0,0,0,0,0,0C8.1,5.5,7.4,7,7.4,8.9
				c0,0.8,0.3,1.1,0.9,1.6C8.7,10.8,8.8,11,9,10.9c0.6,2.5,2.4,5.2,4.5,6.4c1.3,0.7,2.5,0.8,3.3,0.3l0,0L18,17
				c0.9-0.5,1.4-1.5,1.4-3C19.4,11,17.2,7.3,14.7,5.8z M12.1,5.9L12.1,5.9c0.2,0,0.4,0.1,0.6,0.2C12.5,6,12.3,6,12.1,5.9z M14,13.5
				c-0.1,0-0.1,0-0.2,0c0,0,0,0,0,0c0,0-0.1,0-0.1-0.1C13.8,13.5,13.9,13.5,14,13.5C14,13.5,14,13.5,14,13.5z M14.3,13.5
				C14.3,13.5,14.2,13.5,14.3,13.5c-0.1,0-0.2,0-0.2,0c0,0,0,0,0,0C14.2,13.5,14.3,13.5,14.3,13.5C14.4,13.4,14.3,13.4,14.3,13.5z
				 M14.8,12.7C14.7,12.7,14.7,12.7,14.8,12.7c-0.8-0.4-1.3-1.4-1.3-2.2c0,0,0-0.1,0-0.1c0,0,0.1,0,0.1,0c0.7,0.4,1.2,1.4,1.2,2.2
				C14.8,12.7,14.8,12.7,14.8,12.7z"/>
			<path class="st67" d="M17.8,13.2c0.1,0.5,0.1,0.9,0.1,1.4c0,0.8-0.2,1.5-0.4,2c0.3-0.5,0.4-1.2,0.4-2
				C17.9,14.2,17.9,13.7,17.8,13.2z M14.1,13.4L14.1,13.4L14.1,13.4L14.1,13.4z M14.4,5.8c-0.3-0.2-0.6-0.3-0.9-0.4
				c0-0.2,0-0.2-0.1-0.3c-0.1-0.1-0.2-0.2-0.3-0.5c-0.4-0.7-0.8-1.1-1.2-1.1c-0.3,0.1-0.6,0.2-0.9,0.3L9.3,4.7l0,0L9,4.9
				c0.3-0.2,0.6-0.3,0.9-0.3c0.1,0,0.3,0,0.4,0c-0.1-0.1-0.2-0.1-0.4,0C9.5,4.6,9.2,4.7,9,4.9c0,0,0,0,0,0C7.8,5.5,7.1,7,7.1,8.9
				c0,0.8,0.3,1.1,0.9,1.6c0.4,0.3,0.5,0.5,0.8,0.4c0.6,2.5,2.4,5.2,4.5,6.4c1.3,0.7,2.5,0.8,3.3,0.3l0,0l1.1-0.7
				c0.9-0.5,1.4-1.5,1.4-3C19,11,16.9,7.3,14.4,5.8z M11.8,5.9L11.8,5.9C12,6,12.2,6,12.4,6.1C12.2,6,12,6,11.8,5.9z M13.7,13.5
				c-0.1,0-0.1,0-0.2,0c0,0,0,0,0,0c0,0-0.1,0-0.1-0.1C13.5,13.5,13.6,13.5,13.7,13.5C13.7,13.5,13.7,13.5,13.7,13.5z M14,13.5
				C14,13.5,13.9,13.5,14,13.5c-0.1,0-0.2,0-0.2,0c0,0,0,0,0,0C13.9,13.5,14,13.5,14,13.5C14.1,13.4,14,13.4,14,13.5z M14.4,12.7
				C14.4,12.7,14.4,12.7,14.4,12.7c-0.8-0.4-1.3-1.4-1.3-2.2c0,0,0-0.1,0-0.1c0,0,0.1,0,0.1,0c0.7,0.4,1.2,1.4,1.2,2.2
				C14.5,12.7,14.5,12.7,14.4,12.7z"/>
			<path class="st68" d="M17.5,13.2c0.1,0.5,0.1,0.9,0.1,1.4c0,0.8-0.2,1.5-0.4,2c0.3-0.5,0.4-1.2,0.4-2
				C17.6,14.2,17.6,13.7,17.5,13.2z M13.8,13.4L13.8,13.4L13.8,13.4L13.8,13.4z M14.1,5.8c-0.3-0.2-0.6-0.3-0.9-0.4
				c0-0.2,0-0.2-0.1-0.3c-0.1-0.1-0.2-0.2-0.3-0.5c-0.4-0.7-0.8-1.1-1.2-1.1c-0.3,0.1-0.6,0.2-0.9,0.3L9,4.7l0,0L8.7,4.9
				c0.3-0.2,0.6-0.3,0.9-0.3c0.1,0,0.3,0,0.4,0c-0.1-0.1-0.2-0.1-0.4,0C9.2,4.6,8.9,4.7,8.7,4.9c0,0,0,0,0,0C7.5,5.5,6.8,7,6.8,8.9
				c0,0.8,0.3,1.1,0.9,1.6c0.4,0.3,0.5,0.5,0.8,0.4c0.6,2.5,2.4,5.2,4.5,6.4c1.3,0.7,2.5,0.8,3.3,0.3l0,0l1.1-0.7
				c0.9-0.5,1.4-1.5,1.4-3C18.7,11,16.6,7.3,14.1,5.8z M11.5,5.9L11.5,5.9c0.2,0,0.4,0.1,0.6,0.2C11.9,6,11.7,6,11.5,5.9z
				 M13.4,13.5c-0.1,0-0.1,0-0.2,0c0,0,0,0,0,0c0,0-0.1,0-0.1-0.1C13.2,13.5,13.3,13.5,13.4,13.5C13.4,13.5,13.4,13.5,13.4,13.5z
				 M13.7,13.5C13.7,13.5,13.6,13.5,13.7,13.5c-0.1,0-0.2,0-0.2,0c0,0,0,0,0,0C13.6,13.5,13.7,13.5,13.7,13.5
				C13.8,13.4,13.7,13.4,13.7,13.5z M14.1,12.7C14.1,12.7,14.1,12.7,14.1,12.7c-0.8-0.4-1.3-1.4-1.3-2.2c0,0,0-0.1,0-0.1
				c0,0,0.1,0,0.1,0c0.7,0.4,1.2,1.4,1.2,2.2C14.2,12.7,14.2,12.7,14.1,12.7z"/>
			<path class="st69" d="M17.2,13.2c0.1,0.5,0.1,0.9,0.1,1.4c0,0.8-0.2,1.5-0.4,2c0.3-0.5,0.4-1.2,0.4-2
				C17.3,14.2,17.3,13.7,17.2,13.2z M13.5,13.4L13.5,13.4L13.5,13.4L13.5,13.4z M13.7,5.8c-0.3-0.2-0.6-0.3-0.9-0.4
				c0-0.2,0-0.2-0.1-0.3c-0.1-0.1-0.2-0.2-0.3-0.5c-0.4-0.7-0.8-1.1-1.2-1.1c-0.3,0.1-0.6,0.2-0.9,0.3L8.7,4.7l0,0L8.4,4.9
				c0.3-0.2,0.6-0.3,0.9-0.3c0.1,0,0.3,0,0.4,0c-0.1-0.1-0.2-0.1-0.4,0C8.9,4.6,8.6,4.7,8.4,4.9c0,0,0,0,0,0C7.2,5.5,6.5,7,6.5,8.9
				c0,0.8,0.3,1.1,0.9,1.6c0.4,0.3,0.5,0.5,0.8,0.4c0.6,2.5,2.4,5.2,4.5,6.4c1.3,0.7,2.5,0.8,3.3,0.3l0,0l1.1-0.7
				c0.9-0.5,1.4-1.5,1.4-3C18.4,11,16.3,7.3,13.7,5.8z M11.2,5.9L11.2,5.9c0.2,0,0.4,0.1,0.6,0.2C11.6,6,11.4,6,11.2,5.9z
				 M13.1,13.5c-0.1,0-0.1,0-0.2,0c0,0,0,0,0,0c0,0-0.1,0-0.1-0.1C12.9,13.5,13,13.5,13.1,13.5C13.1,13.5,13.1,13.5,13.1,13.5z
				 M13.4,13.5C13.4,13.5,13.3,13.5,13.4,13.5c-0.1,0-0.2,0-0.2,0c0,0,0,0,0,0C13.3,13.5,13.4,13.5,13.4,13.5
				C13.5,13.4,13.4,13.4,13.4,13.5z M13.8,12.7C13.8,12.7,13.8,12.7,13.8,12.7c-0.8-0.4-1.3-1.4-1.3-2.2c0,0,0-0.1,0-0.1
				c0,0,0.1,0,0.1,0c0.7,0.4,1.2,1.4,1.2,2.2C13.9,12.7,13.8,12.7,13.8,12.7z"/>
			<path class="st70" d="M16.9,13.2c0.1,0.5,0.1,0.9,0.1,1.4c0,0.8-0.2,1.5-0.4,2c0.3-0.5,0.4-1.2,0.4-2C17,14.2,17,13.7,16.9,13.2z
				 M13.2,13.4L13.2,13.4L13.2,13.4L13.2,13.4z M13.4,5.8c-0.3-0.2-0.6-0.3-0.9-0.4c0-0.2,0-0.2-0.1-0.3c-0.1-0.1-0.2-0.2-0.3-0.5
				c-0.4-0.7-0.8-1.1-1.2-1.1c-0.3,0.1-0.6,0.2-0.9,0.3L8.4,4.7l0,0L8.1,4.9C8.3,4.7,8.6,4.6,9,4.5c0.1,0,0.3,0,0.4,0
				C9.2,4.5,9.1,4.5,9,4.5C8.6,4.6,8.3,4.7,8.1,4.9c0,0,0,0,0,0C6.9,5.5,6.2,7,6.2,8.9c0,0.8,0.3,1.1,0.9,1.6
				c0.4,0.3,0.5,0.5,0.8,0.4c0.6,2.5,2.4,5.2,4.5,6.4c1.3,0.7,2.5,0.8,3.3,0.3l0,0l1.1-0.7c0.9-0.5,1.4-1.5,1.4-3
				C18.1,11,16,7.3,13.4,5.8z M10.9,5.9L10.9,5.9c0.2,0,0.4,0.1,0.6,0.2C11.3,6,11.1,6,10.9,5.9z M12.8,13.5c-0.1,0-0.1,0-0.2,0
				c0,0,0,0,0,0c0,0-0.1,0-0.1-0.1C12.6,13.5,12.7,13.5,12.8,13.5C12.8,13.5,12.8,13.5,12.8,13.5z M13.1,13.5
				C13.1,13.5,13,13.5,13.1,13.5c-0.1,0-0.2,0-0.2,0c0,0,0,0,0,0C13,13.5,13.1,13.5,13.1,13.5C13.2,13.4,13.1,13.4,13.1,13.5z
				 M13.5,12.7C13.5,12.7,13.5,12.7,13.5,12.7c-0.8-0.4-1.3-1.4-1.3-2.2c0,0,0-0.1,0-0.1c0,0,0.1,0,0.1,0c0.7,0.4,1.2,1.4,1.2,2.2
				C13.6,12.7,13.5,12.7,13.5,12.7z"/>
		</g>
	</g>
	<g>
		
			<linearGradient id="SVGID_4_" gradientUnits="userSpaceOnUse" x1="-195.0475" y1="12.9919" x2="-193.2832" y2="16.0476" gradientTransform="matrix(1 0 0 1 206.6014 -2.7002)">
			<stop  offset="0" style="stop-color:#B8B8B8"/>
			<stop  offset="0.2147" style="stop-color:#CECECE"/>
			<stop  offset="0.4879" style="stop-color:#E4E4E4"/>
			<stop  offset="0.7534" style="stop-color:#F1F1F1"/>
			<stop  offset="1" style="stop-color:#F5F5F5"/>
		</linearGradient>
		<path class="st71" d="M13.4,12.7c-0.7-0.4-1.2-1.4-1.2-2.2c0-0.4,0.1-0.7,0.4-0.8l-1.1,0.7c-0.2,0.1-0.4,0.4-0.4,0.8
			c0,0.8,0.6,1.8,1.2,2.2c0.3,0.2,0.7,0.2,0.9,0.1l1.1-0.7C14.1,12.9,13.8,12.9,13.4,12.7z"/>
		
			<linearGradient id="SVGID_5_" gradientUnits="userSpaceOnUse" x1="-195.3853" y1="7.5538" x2="-188.7427" y2="19.0593" gradientTransform="matrix(1 0 0 1 206.6014 -2.7002)">
			<stop  offset="0" style="stop-color:#F5F5F5"/>
			<stop  offset="0.2466" style="stop-color:#F1F1F1"/>
			<stop  offset="0.5121" style="stop-color:#E4E4E4"/>
			<stop  offset="0.7853" style="stop-color:#CECECE"/>
			<stop  offset="1" style="stop-color:#B8B8B8"/>
		</linearGradient>
		<path class="st72" d="M13.4,5.8C12.2,5.1,11,5,10.1,5.5L9,6.1c0.8-0.5,2-0.4,3.3,0.3C14.9,8,17,11.6,17,14.6c0,1.5-0.5,2.6-1.4,3
			l1.1-0.7c0.9-0.5,1.4-1.5,1.4-3C18.1,11,16,7.3,13.4,5.8z"/>
		<path class="st73" d="M12.3,6.5C11,5.7,9.8,5.7,9,6.1c-0.9,0.5-1.4,1.5-1.4,3c0,3,2.1,6.6,4.7,8.1c1.3,0.7,2.5,0.8,3.3,0.3
			c0.9-0.5,1.4-1.5,1.4-3C17,11.6,14.9,8,12.3,6.5z M12.3,13.3c-0.7-0.4-1.2-1.4-1.2-2.2c0-0.4,0.1-0.7,0.4-0.8
			c0.2-0.1,0.5-0.1,0.9,0.1c0.7,0.4,1.2,1.4,1.2,2.2c0,0.4-0.1,0.7-0.4,0.8C13,13.6,12.7,13.5,12.3,13.3z"/>
		<g>
			<path d="M11.7,8.1C11.6,8.1,11.6,8,11.7,8.1c-0.1-0.1-0.1-0.2-0.1-0.3c0.3-0.5,0.8-0.6,1.4-0.5c0.1,0,0.1,0.1,0.2,0.2
				c0,0.1,0,0.2-0.1,0.1c-0.5-0.1-1,0-1.2,0.4C11.7,8.1,11.7,8.1,11.7,8.1z"/>
			<path d="M10.2,8.1c-0.1,0-0.1-0.1-0.1-0.2c0-0.7,0.2-1.2,0.7-1.5c0,0,0.1,0,0.2,0.1s0.1,0.2,0,0.2c-0.4,0.2-0.6,0.7-0.6,1.4
				C10.3,8.1,10.3,8.1,10.2,8.1L10.2,8.1z"/>
			<path d="M9.3,9.2c0,0-0.1-0.1-0.1-0.1C8.9,8.2,8.8,7.5,8.9,6.8c0-0.1,0.1-0.1,0.2,0C9.2,6.9,9.2,7,9.2,7.1C9,7.6,9.1,8.3,9.4,9
				C9.4,9.1,9.4,9.2,9.3,9.2C9.3,9.2,9.3,9.2,9.3,9.2z"/>
			<path d="M9.2,11C9.2,11,9.2,11,9.2,11c-0.6-0.7-1-1.5-1.2-2.3c0-0.1,0-0.2,0.1-0.1c0.1,0,0.1,0.1,0.2,0.2c0.2,0.7,0.5,1.4,1,2
				c0.1,0.1,0.1,0.2,0,0.2C9.3,11,9.2,11,9.2,11z"/>
			<path d="M9.9,13.1c-0.6-0.4-1.2-0.9-1.6-1.7c-0.1-0.1-0.1-0.2,0-0.2s0.1,0,0.2,0.1c0.4,0.7,0.9,1.2,1.5,1.5c0,0,0,0,0,0
				c0.1,0,0.1,0.1,0.1,0.2C10.1,13.1,10,13.2,9.9,13.1C9.9,13.1,9.9,13.1,9.9,13.1z"/>
			<path d="M10.2,14.7c-0.2-0.1-0.4-0.3-0.6-0.4c-0.1-0.1-0.1-0.2-0.1-0.2c0-0.1,0.1-0.1,0.2,0c0.6,0.5,1.1,0.7,1.6,0.7
				c0.1,0,0.1,0.1,0.2,0.2c0,0.1,0,0.2,0,0.2C11,15,10.6,14.9,10.2,14.7z"/>
			<path d="M11.6,16.4c-0.1,0-0.1-0.1-0.1-0.2c0-0.1,0-0.1,0.1-0.1c0.5,0.1,1,0,1.2-0.4c0-0.1,0.1,0,0.2,0c0.1,0.1,0.1,0.2,0,0.2
				C12.8,16.5,12.3,16.6,11.6,16.4C11.7,16.5,11.6,16.4,11.6,16.4z"/>
			<path d="M13.8,17.4C13.8,17.4,13.7,17.4,13.8,17.4c-0.1-0.2-0.1-0.3-0.1-0.3c0.4-0.2,0.6-0.7,0.6-1.4c0-0.1,0.1-0.1,0.1-0.1l0,0
				c0.1,0,0.1,0.1,0.1,0.2C14.6,16.7,14.3,17.2,13.8,17.4C13.9,17.5,13.8,17.5,13.8,17.4z"/>
			<path d="M15.6,17C15.5,17,15.5,17,15.6,17c-0.1-0.1-0.1-0.2-0.1-0.3c0.1-0.6,0.1-1.2-0.2-1.9c0-0.1,0-0.2,0-0.2
				c0.1,0,0.1,0.1,0.2,0.2c0.3,0.8,0.4,1.6,0.2,2.2C15.7,17,15.6,17,15.6,17z"/>
			<path d="M16.4,15.2c-0.1,0-0.1-0.1-0.1-0.2c-0.2-0.7-0.5-1.4-1-2c-0.1-0.1-0.1-0.2,0-0.2c0-0.1,0.1,0,0.2,0
				c0.6,0.7,0.9,1.4,1.1,2.3C16.6,15.2,16.6,15.2,16.4,15.2C16.5,15.2,16.5,15.2,16.4,15.2z"/>
			<path d="M16.2,12.6C16.2,12.6,16.2,12.5,16.2,12.6c-0.5-0.8-1-1.3-1.5-1.6c0,0,0,0,0,0c-0.1,0-0.1-0.1-0.1-0.2
				c0-0.1,0.1-0.1,0.1-0.1c0,0,0,0,0,0c0.6,0.4,1.2,0.9,1.6,1.7C16.4,12.5,16.4,12.6,16.2,12.6C16.3,12.6,16.3,12.6,16.2,12.6z"/>
			<path d="M13.3,9.1c0,0-0.1-0.1-0.1-0.1c0-0.1,0-0.2,0-0.2C13.8,8.8,14.4,9,15,9.5c0.1,0.1,0.1,0.2,0.1,0.2c0,0.1-0.1,0.1-0.2,0
				C14.4,9.3,13.8,9.1,13.3,9.1C13.3,9.1,13.3,9.1,13.3,9.1z"/>
		</g>
		<path class="st74" d="M12.3,8.7c-1.5-0.9-2.8-0.2-2.8,1.6s1.3,3.9,2.8,4.8c1.5,0.9,2.8,0.2,2.8-1.6S13.8,9.6,12.3,8.7z M12.3,13.3
			c-0.7-0.4-1.2-1.4-1.2-2.2s0.6-1.1,1.2-0.7c0.7,0.4,1.2,1.4,1.2,2.2C13.6,13.4,13,13.7,12.3,13.3z"/>
		<path class="st75" d="M12.3,9c-1.4-0.8-2.5-0.2-2.5,1.5s1.1,3.6,2.5,4.4c1.4,0.8,2.5,0.2,2.5-1.5S13.7,9.8,12.3,9z M12.3,13.3
			c-0.7-0.4-1.2-1.4-1.2-2.2s0.6-1.1,1.2-0.7c0.7,0.4,1.2,1.4,1.2,2.2C13.6,13.4,13,13.7,12.3,13.3z"/>
		<path class="st76" d="M12.3,10.1c-0.4-0.2-0.8-0.3-1.1-0.1c-0.3,0.2-0.5,0.5-0.5,1c0,1,0.7,2.2,1.6,2.7c0.4,0.2,0.8,0.3,1.1,0.1
			c0.3-0.2,0.5-0.5,0.5-1C13.9,11.8,13.2,10.6,12.3,10.1z M12.3,13.3c-0.7-0.4-1.2-1.4-1.2-2.2c0-0.4,0.1-0.7,0.4-0.8
			c0.2-0.1,0.5-0.1,0.9,0.1c0.7,0.4,1.2,1.4,1.2,2.2c0,0.4-0.1,0.7-0.4,0.8C13,13.6,12.7,13.5,12.3,13.3z"/>
		
			<linearGradient id="SVGID_6_" gradientUnits="userSpaceOnUse" x1="-198.0118" y1="10.9281" x2="-196.9722" y2="12.7287" gradientTransform="matrix(1 0 0 1 206.6014 -2.7002)">
			<stop  offset="0" style="stop-color:#20233D"/>
			<stop  offset="0.2559" style="stop-color:#2F324A"/>
			<stop  offset="0.413" style="stop-color:#353850"/>
			<stop  offset="0.6225" style="stop-color:#464960"/>
			<stop  offset="0.7004" style="stop-color:#4E5168"/>
			<stop  offset="0.9046" style="stop-color:#50536B"/>
			<stop  offset="1" style="stop-color:#545770"/>
		</linearGradient>
		<path class="st77" d="M10,7.4L9.6,7.7c-0.7,0.4-1.1,1.3-1.1,2.5c0,0.2,0,0.4-0.1,0.5c0,0.1-0.1,0.1-0.1,0.1l0.4-0.2
			c0,0,0.1-0.1,0.1-0.1c0.1-0.1,0.1-0.3,0.1-0.5C8.8,8.7,9.3,7.8,10,7.4z"/>
		
			<linearGradient id="SVGID_7_" gradientUnits="userSpaceOnUse" x1="-196.9417" y1="6.643" x2="-195.2623" y2="9.5518" gradientTransform="matrix(1 0 0 1 206.6014 -2.7002)">
			<stop  offset="0" style="stop-color:#545770"/>
			<stop  offset="9.538691e-02" style="stop-color:#50536B"/>
			<stop  offset="0.2996" style="stop-color:#4E5168"/>
			<stop  offset="0.3775" style="stop-color:#464960"/>
			<stop  offset="0.587" style="stop-color:#353850"/>
			<stop  offset="0.7441" style="stop-color:#2F324A"/>
			<stop  offset="1" style="stop-color:#20233D"/>
		</linearGradient>
		<path class="st78" d="M12.5,5.4c0-0.2,0-0.2-0.1-0.3c-0.1-0.1-0.2-0.2-0.3-0.5c-0.4-0.7-0.8-1.1-1.2-1.1c-0.3,0.1-0.6,0.2-0.9,0.3
			L8.4,4.7l0,0L8.1,4.9C8.3,4.7,8.6,4.6,9,4.5c0.5-0.1,0.8,0.3,1.2,1.1c0.2,0.3,0.3,0.4,0.3,0.5c0.1,0.1,0.1,0.3,0.1,0.6
			c0,0.2,0,0.4-0.1,0.6c0,0-0.1,0.1-0.1,0.1l0.4-0.2c0,0,0.1,0,0.1-0.1C11,6.9,11,6.7,11,6.5c0-0.3,0-0.5-0.1-0.6L12,5.3
			C12.2,5.3,12.3,5.3,12.5,5.4z"/>
		<path class="st79" d="M8,10.9c0.1,0,0.2,0,0.3-0.1l0,0c0,0,0.1-0.1,0.1-0.1c0.1-0.1,0.1-0.3,0.1-0.5c0-1.2,0.4-2.1,1.1-2.5l0,0
			c0.2-0.1,0.4-0.2,0.6-0.2c0.1,0,0.2,0,0.3-0.1c0,0,0.1,0,0.1-0.1c0.1-0.1,0.1-0.4,0.1-0.6c0-0.3,0-0.5-0.1-0.6
			c-0.1-0.1-0.2-0.2-0.3-0.5C9.8,4.9,9.5,4.5,9,4.5C8.6,4.6,8.3,4.7,8.1,4.9c0,0,0,0,0,0C6.9,5.5,6.2,7,6.2,8.9
			c0,0.8,0.3,1.1,0.9,1.6C7.6,10.9,7.6,11,8,10.9z"/>
		<g>
			
				<linearGradient id="SVGID_8_" gradientUnits="userSpaceOnUse" x1="-199.5925" y1="11.5375" x2="-198.8998" y2="12.7373" gradientTransform="matrix(1 0 0 1 206.6014 -2.7002)">
				<stop  offset="0" style="stop-color:#FFED44"/>
				<stop  offset="7.192162e-02" style="stop-color:#FFF047"/>
				<stop  offset="0.3006" style="stop-color:#FFF24A"/>
				<stop  offset="0.5494" style="stop-color:#FFE23A"/>
				<stop  offset="0.7441" style="stop-color:#FFDC34"/>
				<stop  offset="1" style="stop-color:#F9B519"/>
			</linearGradient>
			<path class="st80" d="M7.3,8.9C7.1,8.8,7,8.8,6.9,8.9L6.7,9c0.1-0.1,0.2,0,0.3,0c0.3,0.2,0.5,0.5,0.5,0.8c0,0.2-0.1,0.3-0.1,0.3
				l0.2-0.1C7.7,10,7.8,9.9,7.8,9.8C7.8,9.5,7.5,9.1,7.3,8.9z"/>
			<path class="st81" d="M7.6,9.9c0,0.2-0.1,0.3-0.1,0.3l0,0c-0.1,0.1-0.2,0-0.3,0C6.8,10,6.6,9.6,6.6,9.3C6.6,9.2,6.7,9,6.7,9l0,0
				c0.1-0.1,0.2,0,0.3,0C7.4,9.2,7.6,9.6,7.6,9.9z"/>
		</g>
		<g>
			
				<linearGradient id="SVGID_9_" gradientUnits="userSpaceOnUse" x1="-197.3956" y1="8.0031" x2="-196.6591" y2="9.2787" gradientTransform="matrix(1 0 0 1 206.6014 -2.7002)">
				<stop  offset="0" style="stop-color:#FFED44"/>
				<stop  offset="7.192162e-02" style="stop-color:#FFF047"/>
				<stop  offset="0.3006" style="stop-color:#FFF24A"/>
				<stop  offset="0.5494" style="stop-color:#FFE23A"/>
				<stop  offset="0.7441" style="stop-color:#FFDC34"/>
				<stop  offset="1" style="stop-color:#F9B519"/>
			</linearGradient>
			<path class="st82" d="M9.5,5.4c-0.1-0.1-0.3-0.1-0.4,0L8.9,5.5c0.1-0.1,0.2,0,0.4,0c0.3,0.2,0.5,0.6,0.5,0.9
				c0,0.2-0.1,0.3-0.2,0.3l0.2-0.1C9.9,6.6,10,6.5,10,6.3C10,6,9.8,5.6,9.5,5.4z"/>
			<path class="st81" d="M9.8,6.4c0,0.2-0.1,0.3-0.2,0.3l0,0c-0.1,0.1-0.2,0-0.4,0C9,6.5,8.8,6.1,8.8,5.8c0-0.2,0.1-0.3,0.2-0.3l0,0
				c0.1-0.1,0.2,0,0.4,0C9.6,5.7,9.8,6.1,9.8,6.4z"/>
		</g>
	</g>
</g>
</svg>
