<?xml version="1.0" encoding="utf-8"?>
<!-- Generator: Adobe Illustrator 24.2.1, SVG Export Plug-In . SVG Version: 6.00 Build 0)  -->
<svg version="1.1" id="Layer_1" xmlns="http://www.w3.org/2000/svg" xmlns:xlink="http://www.w3.org/1999/xlink" x="0px" y="0px"
	 viewBox="0 0 170.1 170.1" style="enable-background:new 0 0 170.1 170.1;" xml:space="preserve">
<style type="text/css">
	.st0{fill:#4D4D4D;}
</style>
<g>
	<path class="st0" d="M126.3,90.1l-8-10.3c-0.2-0.3-0.6-0.5-0.9-0.6L81.1,68L66.6,48.4c-0.4-0.6-3.6-5-9.1-5H45.3
		c-1,0-1.9,0.8-1.9,1.9v68c0,1,0.8,1.9,1.9,1.9h30.5c2.5,6.7,8.9,11.5,16.5,11.5c7.6,0,14-4.8,16.5-11.5h7.7c0.6,0,1.2-0.3,1.5-0.8
		l8.3-11.7c0.2-0.3,0.3-0.7,0.3-1.1V91.3C126.7,90.9,126.5,90.5,126.3,90.1z M57.6,47.2c3.7,0,5.9,3.3,6,3.3c0,0,0,0.1,0.1,0.1
		l13.6,18.5L69,74H47.2V47.2H57.6z M92.3,122.9c-7.6,0-13.8-6.2-13.8-13.8c0-7.6,6.2-13.8,13.8-13.8c7.6,0,13.8,6.2,13.8,13.8
		C106.1,116.7,99.9,122.9,92.3,122.9z M115.5,111.4h-5.8c0.1-0.7,0.1-1.5,0.1-2.2c0-9.7-7.9-17.5-17.5-17.5
		c-9.7,0-17.5,7.9-17.5,17.5c0,0.8,0.1,1.5,0.1,2.2H47.2v-8h15.1c1,0,1.9-0.8,1.9-1.9s-0.8-1.9-1.9-1.9H47.2V77.8h22.3
		c0.3,0,0.7-0.1,1-0.3l9.7-5.9l35.5,11l5.3,6.8h-9c-1,0-1.9,0.8-1.9,1.9s0.8,1.9,1.9,1.9h11v7.8L115.5,111.4z"/>
	<path class="st0" d="M92.3,100.8c-4.6,0-8.3,3.7-8.3,8.3c0,4.6,3.7,8.3,8.3,8.3c4.6,0,8.3-3.7,8.3-8.3
		C100.6,104.5,96.9,100.8,92.3,100.8z M92.3,113.7c-2.5,0-4.6-2.1-4.6-4.6c0-2.5,2.1-4.6,4.6-4.6c2.5,0,4.6,2.1,4.6,4.6
		C96.9,111.7,94.8,113.7,92.3,113.7z"/>
</g>
</svg>
