<?xml version="1.0" encoding="utf-8"?>
<!-- Generator: Adobe Illustrator 24.2.1, SVG Export Plug-In . SVG Version: 6.00 Build 0)  -->
<svg version="1.1" id="Layer_1" xmlns="http://www.w3.org/2000/svg" xmlns:xlink="http://www.w3.org/1999/xlink" x="0px" y="0px"
	 viewBox="0 0 170.1 170.1" style="enable-background:new 0 0 170.1 170.1;" xml:space="preserve">
<style type="text/css">
	.st0{fill:#4D4D4D;}
</style>
<g>
	<path class="st0" d="M105.9,48.5c-1-0.2-2,0.4-2.2,1.5c-0.2,1,0.4,2,1.5,2.2c10.8,2.2,15.7,5.7,15.7,8.2c0,4.2-13.6,10-35.8,10
		s-35.8-5.8-35.8-10c0-2.5,4.8-5.9,15.7-8.2c1-0.2,1.7-1.2,1.5-2.2c-0.2-1-1.2-1.7-2.2-1.5c-7,1.4-18.7,4.9-18.7,11.8v52.5
		c0,9,20.4,13.8,39.5,13.8s39.5-4.8,39.5-13.8V60.4C124.6,53.4,112.9,49.9,105.9,48.5z M85,74.2c14.2,0,29-2.6,35.8-7.7v35
		c0,4.2-13.6,10-35.8,10s-35.8-5.8-35.8-10v-35C56,71.5,70.9,74.2,85,74.2z M85,122.9c-22.2,0-35.8-5.8-35.8-10v-5.3
		c6.8,5,21.6,7.7,35.8,7.7s29-2.6,35.8-7.7v5.3C120.8,117.1,107.2,122.9,85,122.9z"/>
	<path class="st0" d="M72.5,60.4c1,0,1.9-0.8,1.9-1.9v-5.1c3.1,1.3,7.5,1.7,10.7,1.7c3.1,0,7.5-0.4,10.7-1.7v5.1
		c0,1,0.8,1.9,1.9,1.9c1,0,1.9-0.8,1.9-1.9v-9.2c0,0,0,0,0,0c0-4.6-9.1-5.8-14.4-5.8c-5.3,0-14.4,1.2-14.4,5.8c0,0,0,0,0,0v9.2
		C70.6,59.5,71.5,60.4,72.5,60.4z M85,47.2c6,0,9.6,1.3,10.5,2.1C94.6,50,91,51.3,85,51.3c-6,0-9.6-1.3-10.5-2.1
		C75.5,48.5,79.1,47.2,85,47.2z"/>
	<path class="st0" d="M58.1,103.3c1,0,1.9-0.8,1.9-1.9V77.1c0-1-0.8-1.9-1.9-1.9c-1,0-1.9,0.8-1.9,1.9v24.4
		C56.3,102.5,57.1,103.3,58.1,103.3z"/>
	<path class="st0" d="M111.9,103.3c1,0,1.9-0.8,1.9-1.9V77.1c0-1-0.8-1.9-1.9-1.9c-1,0-1.9,0.8-1.9,1.9v24.4
		C110.1,102.5,110.9,103.3,111.9,103.3z"/>
	<path class="st0" d="M79.7,106.8c1,0,1.9-0.8,1.9-1.9V80.5c0-1-0.8-1.9-1.9-1.9c-1,0-1.9,0.8-1.9,1.9v24.4
		C77.8,105.9,78.6,106.8,79.7,106.8z"/>
	<path class="st0" d="M90.4,106.8c1,0,1.9-0.8,1.9-1.9V80.5c0-1-0.8-1.9-1.9-1.9c-1,0-1.9,0.8-1.9,1.9v24.4
		C88.5,105.9,89.4,106.8,90.4,106.8z"/>
	<path class="st0" d="M68.9,105.8c1,0,1.9-0.8,1.9-1.9V79.5c0-1-0.8-1.9-1.9-1.9c-1,0-1.9,0.8-1.9,1.9v24.4
		C67,104.9,67.9,105.8,68.9,105.8z"/>
	<path class="st0" d="M101.2,105.8c1,0,1.9-0.8,1.9-1.9V79.5c0-1-0.8-1.9-1.9-1.9c-1,0-1.9,0.8-1.9,1.9v24.4
		C99.3,104.9,100.1,105.8,101.2,105.8z"/>
</g>
</svg>
