<?xml version="1.0" encoding="utf-8"?>
<!-- Generator: Adobe Illustrator 24.2.1, SVG Export Plug-In . SVG Version: 6.00 Build 0)  -->
<svg version="1.1" id="Layer_1" xmlns="http://www.w3.org/2000/svg" xmlns:xlink="http://www.w3.org/1999/xlink" x="0px" y="0px"
	 viewBox="0 0 170.1 170.1" style="enable-background:new 0 0 170.1 170.1;" xml:space="preserve">
<style type="text/css">
	.st0{fill:#4D4D4D;}
</style>
<g>
	<path class="st0" d="M118.5,103.1c-1.1-0.7-2.3-1-3.6-1c-2.1,0-7.2,1.1-10.4,10.9c-5.9-2.7-12.6-4.2-19.5-4.2
		c-6.9,0-13.6,1.4-19.5,4.2c-3.3-9.8-8.3-10.9-10.4-10.9c-1.2,0-2.4,0.3-3.6,1c-4.7,2.8-5.6,9.9-2.5,21.8c0.7,2.8,1.6,5.4,2.6,7.8
		c0.3,0.7,1,1.1,1.7,1.1h63.3c0.7,0,1.4-0.4,1.7-1.1c1-2.4,1.9-5,2.6-7.8C124.1,113,123.3,105.9,118.5,103.1z M117.4,124
		c-0.6,2.2-1.2,4.2-2,6.1H54.7c-0.8-1.9-1.4-3.9-2-6.1c-2.5-9.8-2.3-15.8,0.7-17.6c0.5-0.3,1.1-0.5,1.7-0.5c2.2,0,5.4,2.7,7.4,10.3
		c0.2,0.6,0.5,1,1.1,1.2c0.5,0.2,1.1,0.2,1.6-0.1c5.8-3.1,12.7-4.8,19.8-4.8c7.1,0,14,1.6,19.8,4.8c0.5,0.3,1.1,0.3,1.6,0.1
		c0.5-0.2,0.9-0.7,1.1-1.2c2.1-7.6,5.2-10.3,7.4-10.3c0.6,0,1.1,0.2,1.7,0.5C119.7,108.1,119.9,114.2,117.4,124z"/>
	<path class="st0" d="M72.9,73.7c-0.8-0.7-1.9-0.6-2.6,0.1c-0.7,0.8-0.6,2,0.1,2.7c0.1,0.1,7.4,7.1,7.4,26.1c0,1,0.8,1.9,1.9,1.9
		s1.9-0.8,1.9-1.9C81.5,81.7,73.2,74,72.9,73.7z"/>
	<path class="st0" d="M97.2,73.7c-0.4,0.3-8.6,8-8.6,28.9c0,1,0.8,1.9,1.9,1.9c1,0,1.9-0.8,1.9-1.9c0-19,7.2-26,7.4-26.1
		c0.8-0.7,0.8-1.9,0.1-2.7C99.2,73.1,98,73,97.2,73.7z"/>
	<path class="st0" d="M59.1,98.2c1,0,1.9-0.8,1.9-1.9V70.2c0-6.1,5-11.1,11.1-11.1h26c6.1,0,11.1,5,11.1,11.1v26.1
		c0,1,0.8,1.9,1.9,1.9s1.9-0.8,1.9-1.9V70.2c0-7.3-5.3-13.3-12.2-14.6c0.9-1.3,1.5-2.9,1.5-4.6v-6.6c0-4.5-3.7-8.1-8.1-8.1h-18
		c-4.5,0-8.1,3.7-8.1,8.1V51c0,1.7,0.5,3.3,1.5,4.6c-6.9,1.3-12.2,7.3-12.2,14.6v26.1C57.2,97.3,58,98.2,59.1,98.2z M71.7,44.4
		c0-2.4,2-4.4,4.4-4.4h18c2.4,0,4.4,2,4.4,4.4V51c0,2.4-2,4.4-4.4,4.4h-18c-2.4,0-4.4-2-4.4-4.4V44.4z"/>
</g>
</svg>
