<?xml version="1.0" encoding="utf-8"?>
<!-- Generator: Adobe Illustrator 24.2.1, SVG Export Plug-In . SVG Version: 6.00 Build 0)  -->
<svg version="1.1" id="Layer_1" xmlns="http://www.w3.org/2000/svg" xmlns:xlink="http://www.w3.org/1999/xlink" x="0px" y="0px"
	 viewBox="0 0 28.3 28.3" style="enable-background:new 0 0 28.3 28.3;" xml:space="preserve">
<style type="text/css">
	.st0{fill:#1A0451;}
	.st1{fill:#1D71B8;}
	.st2{fill:#F39200;}
</style>
<g>
	<g>
		<path class="st0" d="M20,6c-0.1-3.1-2.6-5.5-5.7-5.5C11.2,0.5,8.7,3,8.6,6H5.6v2.7H20L20,6L20,6z"/>
		<g>
			<path class="st1" d="M7.7,13.3c0.5-0.3,1.1-0.4,1.8-0.4c1.1,0,2.1,0.4,2.9,1.2c0.8,0.8,1.2,1.8,1.2,2.9c0,1.1-0.4,2.1-1.2,2.9
				c-0.8,0.8-1.8,1.2-2.9,1.2c-0.6,0-1.2-0.1-1.8-0.4v0.1H5.6v-9.7h2.1V13.3z M7.7,18.1c0.1,0.1,0.2,0.3,0.3,0.4
				c0.4,0.4,0.9,0.6,1.5,0.6c0.6,0,1-0.2,1.4-0.6c0.4-0.4,0.6-0.9,0.6-1.5c0-0.6-0.2-1-0.6-1.4C10.5,15.2,10,15,9.5,15
				c-0.6,0-1.1,0.2-1.5,0.6c-0.1,0.1-0.2,0.3-0.3,0.4V18.1z"/>
			<path class="st2" d="M16.8,22.9h-2.1v-9.7h2.1v0.1c0.5-0.3,1.1-0.4,1.8-0.4c1.1,0,2.1,0.4,2.9,1.2c0.8,0.8,1.2,1.8,1.2,2.9
				c0,1.1-0.4,2.1-1.2,2.9c-0.8,0.8-1.8,1.2-2.9,1.2c-0.6,0-1.2-0.1-1.8-0.4V22.9z M16.8,18.1c0.1,0.1,0.2,0.3,0.3,0.4
				c0.4,0.4,0.9,0.6,1.5,0.6c0.6,0,1-0.2,1.4-0.6c0.4-0.4,0.6-0.9,0.6-1.4c0-0.6-0.2-1.1-0.6-1.5c-0.4-0.4-0.9-0.6-1.4-0.6
				c-0.6,0-1.1,0.2-1.5,0.6c-0.1,0.1-0.2,0.2-0.3,0.4V18.1z"/>
		</g>
		<g>
			<path class="st0" d="M12.4,27.8c-1.6,0-3.1-1.1-3.5-2.7l1.5-0.4c0.3,0.9,1.1,1.6,2.1,1.6c0.5,0,0.9-0.2,1.3-0.4
				c0.1-0.1,0.2-0.2,0.3-0.3l1.2,1c-0.2,0.2-0.4,0.4-0.6,0.6C14,27.6,13.2,27.8,12.4,27.8z"/>
		</g>
	</g>
	<path class="st2" d="M19,21.3"/>
</g>
</svg>
