<?xml version="1.0" encoding="utf-8"?>
<!-- Generator: Adobe Illustrator 24.2.1, SVG Export Plug-In . SVG Version: 6.00 Build 0)  -->
<svg version="1.1" id="Layer_1" xmlns="http://www.w3.org/2000/svg" xmlns:xlink="http://www.w3.org/1999/xlink" x="0px" y="0px"
	 viewBox="0 0 170.1 56.7" style="enable-background:new 0 0 170.1 56.7;" xml:space="preserve">
<g>
	<path d="M87,13.5C87.1,13.6,87.1,13.6,87,13.5c1.3,0.4,1.8,1.1,1.9,2.2c0,0.6,0,1.3,0,1.9c0,0.6-0.4,1-0.9,1.1
		c-0.5,0.1-1-0.2-1.2-0.7c-0.1-0.1-0.1-0.3-0.1-0.5c0-0.5,0-1,0-1.4c0-0.2-0.1-0.3-0.3-0.3c-0.5,0-0.9,0-1.4,0
		c-0.2,0-0.3,0.1-0.3,0.3c0,0.5,0,1,0,1.5c0,0.6-0.3,1-0.9,1.1c-1.2,0.3-2.3,0.8-3.4,1.5c-0.5,0.3-1,0.2-1.4-0.2
		c-0.4-0.4-0.7-0.8-1.1-1.1c0,0,0,0,0,0.1c-0.5,0.4-0.9,0.8-1.4,1.3c0.4,0.4,0.8,0.8,1.1,1.2c0.5,0.5,0.5,1,0.2,1.6
		c-0.6,1-1.1,2.1-1.3,3.3c-0.1,0.8-0.5,1.1-1.3,1.1c-0.5,0-1,0-1.5,0c0,0.6,0,1.2,0,1.8c0,0.1,0.2,0.2,0.3,0.2c0.5,0,1,0,1.4,0
		c0.6,0,0.9,0.3,1.1,0.8c0.3,1.3,0.7,2.5,1.4,3.6c0.3,0.5,0.2,1-0.2,1.4c-0.4,0.4-0.8,0.8-1.2,1.2c0.5,0.4,1,0.8,1.4,1.3
		c0.3-0.3,0.6-0.6,1-1c0.6-0.6,1-0.6,1.7-0.2c0.9,0.6,1.9,1.1,3,1.3c0.7,0.1,1,0.6,1.1,1.3c0,0.5,0,1,0,1.5c0,0,0,0,0,0.1
		c0.5,0,1.1,0,1.7,0c0.1,0,0.2-0.2,0.2-0.3c0-0.5,0-1,0-1.5c0-0.6,0.3-1,0.9-1.1c1.2-0.3,2.3-0.8,3.3-1.4c0.5-0.3,1-0.2,1.4,0.2
		c0.4,0.4,0.8,0.7,1.1,1c0.4-0.4,0.9-0.8,1.4-1.2c-0.4-0.4-0.7-0.8-1.1-1.2c-0.5-0.6-0.6-1-0.2-1.7c0.6-1,1-2.1,1.3-3.2
		c0.1-0.8,0.5-1.1,1.4-1.1c0.5,0,1,0,1.5,0c0-0.6,0-1.2,0-1.8c0-0.1-0.2-0.2-0.3-0.2c-0.5,0-1,0-1.4,0c-0.6,0-0.9-0.3-1.1-0.9
		c-0.3-1.3-0.7-2.5-1.4-3.6c-0.3-0.5-0.2-1,0.2-1.5c0.4-0.4,0.7-0.8,1.1-1.2c0,0,0,0,0-0.1c-0.5-0.4-0.9-0.8-1.5-1.3
		c-1.3,1.4-2.8,2.9-4.3,4.5c0.2,0.1,0.3,0.2,0.4,0.3c1.8,1.7,2.4,3.7,1.8,6.1c-0.5,2.2-1.8,3.7-4,4.4c-3.3,1-6.7-1.2-7.3-4.7
		c-0.3-2.2,0.2-4.1,1.7-5.6c0.6-0.6,1.2-0.6,1.7-0.1c0.5,0.5,0.4,1.2-0.1,1.7c-1.9,1.8-1.6,4.8,0.6,6.1c2.2,1.3,5-0.1,5.4-2.7
		c0.3-1.8-0.7-3.7-2.4-4.3c-0.8-0.3-1-1.2-0.4-1.8c1.8-1.9,3.6-3.8,5.5-5.7c0.8-0.9,2.2-0.9,3,0c0.5,0.5,0.9,0.9,1.4,1.4
		c0.8,0.9,0.9,2.2,0.1,3.1c-0.5,0.6-0.7,1-0.2,1.7c0.2,0.4,0.4,0.8,0.5,1.3c0.1,0.4,0.3,0.5,0.6,0.4c0.2,0,0.5,0,0.7,0
		c0.9,0.2,1.7,0.8,1.8,1.8c0.1,1,0.1,2,0,2.9c-0.1,1.1-1.1,1.8-2.1,1.8c-0.8,0-0.8,0-1.1,0.8c-0.2,0.5-0.4,1.1-0.7,1.6
		c-0.1,0.2-0.1,0.4,0.1,0.5c0.5,0.4,0.8,0.9,1,1.5c0.1,0.8,0,1.5-0.6,2.1c-0.4,0.5-0.9,1-1.4,1.4c-0.9,0.8-2.2,0.8-3,0
		c-0.2-0.2-0.4-0.5-0.7-0.6c-0.2,0-0.5,0.2-0.8,0.3c-0.5,0.2-0.9,0.4-1.4,0.6c-0.2,0.1-0.3,0.2-0.3,0.4c0,0.3,0,0.6,0,0.9
		c-0.1,1-0.8,1.8-1.9,1.9c-0.8,0.1-1.6,0.1-2.4,0c-1.2-0.1-1.9-1.1-1.9-2.3c0-0.7-0.2-1-0.8-1.2c-0.5-0.1-0.9-0.4-1.4-0.6
		c-0.2-0.1-0.4-0.1-0.6,0.1c-0.4,0.4-0.7,0.8-1.3,1c-0.8,0.2-1.5,0.1-2-0.5c-0.5-0.5-1-1-1.5-1.6c-0.8-0.9-0.8-2.3,0.1-3.1
		c0.5-0.5,0.6-0.9,0.2-1.5c-0.3-0.4-0.4-1-0.6-1.5c-0.1-0.3-0.2-0.4-0.5-0.3c-0.3,0-0.6,0-0.9,0c-0.9-0.2-1.5-0.8-1.7-1.6
		c0-0.1-0.1-0.2-0.1-0.3c0-0.9,0-1.8,0-2.6c0-0.1,0.1-0.2,0.1-0.3c0.3-0.9,0.8-1.5,1.7-1.6c0.3-0.1,0.6-0.1,0.8,0
		c0.3,0,0.4-0.1,0.5-0.4c0.1-0.5,0.3-1,0.6-1.5c0.4-0.6,0.3-1-0.2-1.5c-0.9-0.8-0.9-2.3-0.1-3.1c0.5-0.5,0.9-1,1.4-1.5
		c0.8-0.8,2.1-0.8,3,0c0.2,0.1,0.3,0.3,0.4,0.5c0.2,0.2,0.3,0.2,0.5,0.1c0.5-0.3,1-0.5,1.5-0.7c0.7-0.3,0.7-0.3,0.8-1.1
		c0-1.1,0.6-2,1.5-2.3c0.1,0,0.3-0.1,0.4-0.1C85.4,13.5,86.2,13.5,87,13.5z"/>
	<path d="M111.1,18.8c0.9,0,1.7,0.2,2.5,0.7c0.8,0.5,1.4,1.1,1.8,1.9c0.4,0.8,0.7,1.7,0.7,2.6c0,1-0.2,1.8-0.7,2.6
		c-0.5,0.8-1.1,1.4-1.8,1.9c-0.8,0.5-1.6,0.7-2.5,0.7h-4.3v6.5h-2.6V18.8H111.1z M111,26.7c0.4,0,0.8-0.1,1.2-0.4
		c0.4-0.2,0.6-0.6,0.9-1s0.3-0.9,0.3-1.4c0-0.8-0.2-1.4-0.7-1.9c-0.5-0.5-1-0.8-1.7-0.8h-4.2v5.4H111z"/>
	<path d="M127.1,35.7l-1.6-4.2h-7.1l-1.6,4.2h-2.7l6.5-16.9h2.7l6.5,16.9H127.1z M120.7,25.6l-1.3,3.4h5.2l-1.3-3.5
		c-0.2-0.6-0.4-1.2-0.6-1.8c-0.2-0.7-0.4-1.3-0.6-2c-0.2,0.7-0.4,1.4-0.7,2C121.1,24.5,120.9,25.1,120.7,25.6z"/>
	<path d="M143.3,24.2c0,1-0.3,2-0.9,2.8c-0.6,0.9-1.4,1.5-2.3,1.9l3.9,6.8l-3.2,0l-3.6-6.3h-3.9v6.3h-2.6V18.8h7.2
		c0.9,0,1.7,0.2,2.5,0.7c0.8,0.4,1.5,1.1,2,1.9C143,22.2,143.3,23.1,143.3,24.2z M137.5,21.3h-4.1v5.5h4.8c0.8,0,1.4-0.3,1.8-0.8
		c0.4-0.5,0.6-1.2,0.6-1.9c0-0.9-0.3-1.6-0.9-2.1C139.1,21.6,138.4,21.3,137.5,21.3z"/>
	<path d="M148.3,35.7V21.3h-4.7v-2.5h12.2v2.5h-4.9v14.4H148.3z"/>
	<path d="M157.5,30.6c0.7,0.9,1.3,1.7,2.1,2.2c0.7,0.5,1.6,0.8,2.8,0.8c0.5,0,1.1-0.1,1.6-0.3c0.5-0.2,0.9-0.4,1.2-0.8
		c0.3-0.3,0.5-0.7,0.5-1.2c0-0.8-0.3-1.4-1-1.9c-0.7-0.4-1.6-0.8-2.9-1c-1.6-0.3-2.8-0.9-3.8-1.7s-1.4-1.9-1.4-3.5
		c0-1,0.3-1.8,0.8-2.5c0.5-0.7,1.2-1.3,2.1-1.6c0.9-0.4,1.8-0.6,2.9-0.6c1.3,0,2.5,0.3,3.4,0.8c1,0.5,1.7,1.2,2.3,2.2l-1.8,1.8
		c-0.4-0.7-1-1.3-1.6-1.8c-0.7-0.4-1.4-0.7-2.3-0.7c-0.9,0-1.6,0.2-2.2,0.6c-0.6,0.4-0.9,1-0.9,1.7c0,0.8,0.3,1.4,1,1.8
		c0.6,0.4,1.5,0.7,2.5,0.9c0.9,0.2,1.8,0.5,2.7,0.9c0.9,0.4,1.5,0.9,2.1,1.6c0.5,0.6,0.8,1.4,0.8,2.3c0,1.6-0.5,2.9-1.6,3.8
		c-1.1,0.9-2.6,1.4-4.5,1.4c-1.3,0-2.5-0.3-3.6-0.8c-1.1-0.5-2-1.3-2.8-2.5L157.5,30.6z"/>
	<path d="M3.6,30.6c0.7,0.9,1.3,1.7,2.1,2.2c0.7,0.5,1.6,0.8,2.8,0.8c0.5,0,1.1-0.1,1.6-0.3c0.5-0.2,0.9-0.4,1.2-0.8
		c0.3-0.3,0.5-0.7,0.5-1.2c0-0.8-0.3-1.4-1-1.9C10,29,9,28.7,7.8,28.5C6.2,28.1,5,27.6,4,26.8s-1.4-1.9-1.4-3.5c0-1,0.3-1.8,0.8-2.5
		c0.5-0.7,1.2-1.3,2.1-1.6c0.9-0.4,1.8-0.6,2.9-0.6c1.3,0,2.5,0.3,3.4,0.8c1,0.5,1.7,1.2,2.3,2.2l-1.8,1.8c-0.4-0.7-1-1.3-1.6-1.8
		c-0.7-0.4-1.4-0.7-2.3-0.7c-0.9,0-1.6,0.2-2.2,0.6c-0.6,0.4-0.9,1-0.9,1.7c0,0.8,0.3,1.4,1,1.8c0.6,0.4,1.5,0.7,2.5,0.9
		c0.9,0.2,1.8,0.5,2.7,0.9c0.9,0.4,1.5,0.9,2.1,1.6c0.5,0.6,0.8,1.4,0.8,2.3c0,1.6-0.5,2.9-1.6,3.8S10.1,36,8.2,36
		c-1.3,0-2.5-0.3-3.6-0.8c-1.1-0.5-2-1.3-2.8-2.5L3.6,30.6z"/>
	<path d="M22.9,18.8c0.9,0,1.7,0.2,2.5,0.7c0.8,0.5,1.4,1.1,1.8,1.9c0.4,0.8,0.7,1.7,0.7,2.6c0,1-0.2,1.8-0.7,2.6
		c-0.5,0.8-1.1,1.4-1.8,1.9c-0.8,0.5-1.6,0.7-2.5,0.7h-4.3v6.5H16V18.8H22.9z M22.8,26.7c0.4,0,0.8-0.1,1.2-0.4
		c0.4-0.2,0.6-0.6,0.9-1s0.3-0.9,0.3-1.4c0-0.8-0.2-1.4-0.7-1.9c-0.5-0.5-1-0.8-1.7-0.8h-4.2v5.4H22.8z"/>
	<path d="M38.8,35.7l-1.6-4.2h-7.1l-1.6,4.2h-2.7l6.5-16.9h2.7l6.5,16.9H38.8z M32.4,25.6L31.1,29h5.2L35,25.5
		c-0.2-0.6-0.4-1.2-0.6-1.8c-0.2-0.7-0.4-1.3-0.6-2c-0.2,0.7-0.4,1.4-0.7,2C32.8,24.5,32.6,25.1,32.4,25.6z"/>
	<path d="M55.1,24.2c0,1-0.3,2-0.9,2.8c-0.6,0.9-1.4,1.5-2.3,1.9l3.9,6.8l-3.2,0L49,29.4h-3.9v6.3h-2.6V18.8h7.2
		c0.9,0,1.7,0.2,2.5,0.7c0.8,0.4,1.5,1.1,2,1.9C54.8,22.2,55.1,23.1,55.1,24.2z M49.3,21.3h-4.1v5.5H50c0.8,0,1.4-0.3,1.8-0.8
		c0.4-0.5,0.6-1.2,0.6-1.9c0-0.9-0.3-1.6-0.9-2.1C50.9,21.6,50.2,21.3,49.3,21.3z"/>
	<path d="M57.3,18.8h10.6v2.5h-8v4.5h6.7v2.5h-6.7v4.9h8v2.5H57.3V18.8z"/>
</g>
</svg>
