<?xml version="1.0" encoding="utf-8"?>
<!-- Generator: Adobe Illustrator 24.2.1, SVG Export Plug-In . SVG Version: 6.00 Build 0)  -->
<svg version="1.1" id="Layer_1" xmlns="http://www.w3.org/2000/svg" xmlns:xlink="http://www.w3.org/1999/xlink" x="0px" y="0px"
	 viewBox="0 0 85 28.3" style="enable-background:new 0 0 85 28.3;" xml:space="preserve">
<style type="text/css">
	.st0{fill:#1A0451;}
	.st1{fill:none;stroke:#1A0451;stroke-width:3.3635;stroke-miterlimit:10;}
	.st2{fill:#1D71B8;}
	.st3{fill:#F39200;}
</style>
<g>
	<g>
		<g>
			<g>
				<g>
					<rect x="1.6" y="6.1" class="st0" width="14.3" height="2.6"/>
					<path class="st0" d="M4.5,6.3c0-3.1,2.6-5.7,5.7-5.7s5.7,2.6,5.7,5.7"/>
				</g>
			</g>
			<g>
				<path class="st0" d="M3.7,13.3c0.5-0.3,1.1-0.4,1.8-0.4c1.1,0,2.1,0.4,2.9,1.2c0.8,0.8,1.2,1.8,1.2,2.9c0,1.1-0.4,2.1-1.2,2.9
					c-0.8,0.8-1.8,1.2-2.9,1.2c-0.6,0-1.2-0.1-1.8-0.4v0.1h-2v-9.6h2V13.3z M3.7,18.1c0.1,0.1,0.2,0.3,0.3,0.4
					c0.4,0.4,0.9,0.6,1.4,0.6c0.6,0,1-0.2,1.4-0.6c0.4-0.4,0.6-0.9,0.6-1.4c0-0.6-0.2-1-0.6-1.4C6.5,15.2,6,15,5.4,15
					c-0.6,0-1.1,0.2-1.4,0.6c-0.1,0.1-0.2,0.3-0.3,0.4V18.1z"/>
				<path class="st0" d="M12.8,22.9h-2v-9.6h2v0.1c0.5-0.3,1.1-0.4,1.8-0.4c1.1,0,2.1,0.4,2.9,1.2c0.8,0.8,1.2,1.8,1.2,2.9
					c0,1.1-0.4,2.1-1.2,2.9c-0.8,0.8-1.8,1.2-2.9,1.2c-0.6,0-1.2-0.1-1.8-0.4V22.9z M12.8,18.1c0.1,0.1,0.2,0.3,0.3,0.4
					c0.4,0.4,0.9,0.6,1.4,0.6c0.6,0,1-0.2,1.4-0.6c0.4-0.4,0.6-0.9,0.6-1.4c0-0.6-0.2-1.1-0.6-1.4c-0.4-0.4-0.9-0.6-1.4-0.6
					c-0.6,0-1.1,0.2-1.4,0.6c-0.1,0.1-0.2,0.2-0.3,0.4V18.1z"/>
			</g>
			<g>
				<path class="st0" d="M8.3,27.8c-1.6,0-3.1-1.1-3.5-2.7l1.5-0.4c0.2,0.9,1.1,1.6,2.1,1.6c0.5,0,0.9-0.2,1.3-0.4
					c0.1-0.1,0.2-0.2,0.3-0.3l1.2,1c-0.2,0.2-0.4,0.4-0.6,0.6C9.9,27.5,9.2,27.8,8.3,27.8z"/>
			</g>
		</g>
		<path class="st1" d="M15,21.3"/>
	</g>
	<g>
		<path class="st2" d="M23.4,14.7c0.4-0.2,0.9-0.3,1.4-0.3c0.9,0,1.7,0.3,2.4,1c0.7,0.7,1,1.4,1,2.4c0,0.9-0.3,1.7-1,2.4
			c-0.7,0.7-1.4,1-2.4,1c-0.5,0-1-0.1-1.4-0.3v0.1h-1.7V13h1.7V14.7z M23.4,18.6c0.1,0.1,0.2,0.2,0.2,0.3c0.3,0.3,0.7,0.5,1.2,0.5
			c0.5,0,0.9-0.2,1.2-0.5c0.3-0.3,0.5-0.7,0.5-1.2c0-0.5-0.2-0.9-0.5-1.2c-0.3-0.3-0.7-0.5-1.2-0.5c-0.5,0-0.9,0.2-1.2,0.5
			c-0.1,0.1-0.2,0.2-0.2,0.3V18.6z"/>
		<path class="st2" d="M33.7,18.6v-4h1.7v6.2h-1.7v-0.1c-0.4,0.2-0.9,0.3-1.4,0.3c-0.9,0-1.7-0.3-2.4-1c-0.7-0.7-1-1.4-1-2.4v-3.1
			h1.7v3.1c0,0.5,0.2,0.9,0.5,1.2c0.3,0.3,0.7,0.5,1.2,0.5c0.5,0,0.9-0.2,1.2-0.5C33.6,18.9,33.6,18.8,33.7,18.6z"/>
		<path class="st2" d="M41.4,20.8c-0.4,0.2-0.9,0.3-1.4,0.3c-0.9,0-1.7-0.3-2.4-1c-0.7-0.7-1-1.4-1-2.4v-3.1h1.7v3.1
			c0,0.5,0.2,0.9,0.5,1.2c0.3,0.3,0.7,0.5,1.2,0.5c0.5,0,0.9-0.2,1.2-0.5c0.1-0.1,0.2-0.2,0.2-0.3v-4h1.7v6.1c0,0.9-0.3,1.7-0.9,2.3
			c-0.6,0.6-1.4,0.9-2.3,0.9v-1.7c0.4,0,0.8-0.2,1.1-0.5C41.2,21.6,41.4,21.2,41.4,20.8z"/>
		<path class="st3" d="M46.2,22.6h-1.7v-7.9h1.7v0.1c0.4-0.2,0.9-0.3,1.4-0.3c0.9,0,1.7,0.3,2.4,1c0.7,0.7,1,1.4,1,2.4
			c0,0.9-0.3,1.7-1,2.4c-0.7,0.7-1.4,1-2.4,1c-0.5,0-1-0.1-1.4-0.3V22.6z M46.2,18.6c0.1,0.1,0.2,0.2,0.2,0.3
			c0.3,0.3,0.7,0.5,1.2,0.5c0.5,0,0.9-0.2,1.2-0.5c0.3-0.3,0.5-0.7,0.5-1.2c0-0.5-0.2-0.9-0.5-1.2c-0.3-0.3-0.7-0.5-1.2-0.5
			c-0.5,0-0.9,0.2-1.2,0.5c-0.1,0.1-0.2,0.2-0.2,0.3V18.6z"/>
		<path class="st3" d="M56.3,20.8c-0.4,0.2-0.9,0.3-1.4,0.3c-0.9,0-1.7-0.3-2.4-1c-0.7-0.7-1-1.4-1-2.4c0-0.9,0.3-1.7,1-2.4
			c0.7-0.7,1.4-1,2.4-1c0.5,0,1,0.1,1.4,0.3v-0.1h1.7v6.2L56.3,20.8L56.3,20.8z M56.3,18.6v-1.7c-0.1-0.1-0.2-0.2-0.2-0.3
			c-0.3-0.3-0.7-0.5-1.2-0.5c-0.5,0-0.9,0.2-1.2,0.5c-0.3,0.3-0.5,0.7-0.5,1.2c0,0.5,0.2,0.9,0.5,1.2c0.3,0.3,0.7,0.5,1.2,0.5
			c0.5,0,0.9-0.2,1.2-0.5C56.1,18.9,56.2,18.7,56.3,18.6z"/>
		<path class="st3" d="M62.5,16.1c-0.5,0-0.9,0.2-1.2,0.5c-0.1,0.1-0.2,0.2-0.2,0.3v4h-1.7v-6.2H61v0.1c0.4-0.2,0.9-0.3,1.4-0.3
			V16.1z"/>
		<path class="st3" d="M65.4,16.3v4.6h-1.7V13h1.7v1.7h1.2v1.7H65.4z"/>
		<path class="st3" d="M71.9,18c0.2,0.4,0.4,0.7,0.4,1c0,0.6-0.2,1.1-0.7,1.5c-0.5,0.4-1.1,0.6-1.9,0.6c-1.1,0-2-0.3-2.7-0.9
			l1.1-1.3c0.5,0.3,1.1,0.5,1.6,0.5c0.3,0,0.5,0,0.7-0.1c0.2-0.1,0.3-0.2,0.3-0.3c0-0.1-0.1-0.2-0.4-0.3l-1.4-0.4
			c-0.5-0.1-0.8-0.3-1.1-0.6c-0.3-0.3-0.5-0.8-0.5-1.3c0-0.5,0.2-1,0.7-1.4c0.5-0.4,1-0.6,1.7-0.6c1,0,1.9,0.3,2.6,0.8l-1.1,1.2
			c-0.5-0.2-0.9-0.4-1.3-0.4c-0.4,0-0.6,0-0.7,0.1C69,16.3,69,16.4,69,16.5c0,0.1,0.1,0.2,0.2,0.3l1.5,0.4
			C71.3,17.3,71.7,17.6,71.9,18z"/>
	</g>
	<g>
		<path class="st2" d="M73.4,16.6c0-0.6,0.2-1.2,0.7-1.6c0.4-0.4,1-0.7,1.6-0.7c0.6,0,1.2,0.2,1.6,0.7c0.4,0.4,0.7,1,0.7,1.6
			c0,0.6-0.2,1.2-0.6,1.6l-1.5,1.5H78v1.4h-4.4V20l2.7-2.7c0.2-0.2,0.2-0.4,0.2-0.6c0-0.2-0.1-0.5-0.3-0.6c-0.2-0.2-0.4-0.3-0.6-0.3
			c-0.2,0-0.5,0.1-0.6,0.3c-0.2,0.2-0.3,0.4-0.3,0.6v0.3h-1.4V16.6z"/>
		<path class="st2" d="M82.6,14.6v4h0.8v1.4h-0.8v1.2h-1.4v-1.2h-2.6v-1.1l1.8-4.3H82.6z M81.2,18.5v-2.6l-0.9,2.6H81.2z"/>
	</g>
</g>
</svg>
