<?xml version="1.0" encoding="utf-8"?>
<!-- Generator: Adobe Illustrator 24.2.1, SVG Export Plug-In . SVG Version: 6.00 Build 0)  -->
<svg version="1.1" id="Layer_1" xmlns="http://www.w3.org/2000/svg" xmlns:xlink="http://www.w3.org/1999/xlink" x="0px" y="0px"
	 viewBox="0 0 56.7 56.7" style="enable-background:new 0 0 56.7 56.7;" xml:space="preserve">
<style type="text/css">
	.st0{fill:#231F20;}
</style>
<g>
	<path class="st0" d="M11.1,20.5c-0.9,1.4-1.2,2.9-0.7,4.6c0.4,1.3,1.3,2.3,2.3,3.2c1.4,1.2,2.9,2,4.6,2.7c3.3,1.3,6.7,1.8,10.1,1.9
		c1.7,0.1,3.4,0,5.1-0.2c1.7-0.2,3.5-0.5,5.1-1c2.2-0.6,4.3-1.4,6.2-2.7c1.2-0.8,2.2-1.7,2.9-3c0.7-1.2,1-2.5,0.7-3.9
		c-0.2-1.1-0.8-2.1-1.6-2.9c-1.2-1.3-2.6-2.2-4.2-2.9c-1.8-0.9-3.8-1.5-5.8-1.9c-1.4-0.3-2.8-0.5-4.2-0.6c-0.3,0-0.6-0.1-1-0.1h-3.1
		c0,0-0.1,0-0.2,0c-0.5,0-1.1,0.1-1.6,0.1c-1.7,0.2-3.3,0.4-5,0.8c-2.2,0.6-4.4,1.3-6.4,2.6C13.1,18.2,12,19.2,11.1,20.5 M32.8,27.1
		c-0.3,1.5-1,2.8-2.2,3.8c-0.4,0.4-1,0.5-1.5,0.6c-0.4,0-0.8,0-1,0.1c-1.4,0-2.7-0.2-4-0.3c-1.3-0.2-2.6-0.4-3.9-0.8
		c-0.4-0.1-0.9-0.3-1.3-0.4c-0.3-0.1-0.4-0.4-0.1-0.6c2.8-2.2,5.9-3.6,9.3-4.4c0.9-0.2,1.8-0.4,2.7-0.3c0.7,0,1.3,0.2,1.7,0.9
		C32.8,26.1,32.9,26.6,32.8,27.1 M41.5,19.9c0.1-0.3,0.3-0.6,0.5-0.9c0.2-0.4,0.4-0.5,0.8-0.3c1.8,0.9,2.9,2.3,3.2,4.2
		c0,0.1,0,0.3,0,0.4c0,1-0.4,1.9-1,2.7c-0.8,1.1-1.9,1.8-3,2.5c-2,1.1-4.1,1.8-6.3,2.2c-0.1,0-0.3,0-0.3-0.1c0-0.1,0-0.3,0-0.3
		c0.3-0.4,0.6-0.8,0.9-1.2c1.1-1.4,2-3,2.9-4.5C39.9,23,40.7,21.4,41.5,19.9 M26.6,16.3c0.7-0.7,1.5-1,2.5-1.1
		c2.5-0.1,4.9,0.2,7.3,0.8c0.6,0.2,1.3,0.4,1.9,0.6c0.2,0.1,0.4,0.2,0.6,0.3c0.2,0.2,0.2,0.4,0.1,0.5c-0.1,0.1-0.3,0.2-0.4,0.3
		c-2.5,1.5-5.1,2.8-7.9,3.8c-1.1,0.3-2.1,0.6-3.3,0.7c-0.5,0-1,0-1.4-0.2c-0.7-0.3-0.9-0.9-0.9-1.8C25.1,18.8,25.5,17.4,26.6,16.3
		 M21.2,16.2c0.4-0.1,0.8-0.1,1.2-0.1c0.3,0,0.4,0.2,0.2,0.4c-0.5,0.7-1.1,1.4-1.6,2.1c-1.9,2.6-3.6,5.4-4.7,8.4
		c-0.1,0.3-0.2,0.6-0.4,0.8c-0.2,0.4-0.5,0.4-0.9,0.3c-0.5-0.2-0.8-0.5-1.2-0.8c-0.8-0.8-1.5-1.6-1.9-2.6c-0.1-0.4-0.2-0.9-0.3-1.3
		c0,0,0,0,0.1,0c0-1.1,0.5-2,1.1-2.8c0.8-0.9,1.7-1.6,2.8-2.2C17.4,17.4,19.3,16.7,21.2,16.2"/>
	<path class="st0" d="M41,35.7c-0.1,0-0.3,0-0.4,0h-5.2c-0.1,0-0.1,0-0.2,0v0.3v6.6c0,0.1,0,0.2,0,0.3H41c0.1,0,0.2-0.1,0.2-0.1
		c0.4-0.2,0.7-0.5,0.8-0.9c0-0.2,0.1-0.4,0.1-0.5c0-0.9,0-1.7,0-2.6c0-0.5,0-1,0-1.5C42,36.2,41.7,35.8,41,35.7 M40,40.4
		c0,0.5-0.2,0.6-0.7,0.7h-2.1v-3.7c0.7,0,1.5,0,2.2,0c0.3,0,0.4,0.2,0.5,0.5c0,0.1,0,0.2,0,0.3C40,38.9,40,39.6,40,40.4
		C40,40.4,40,40.4,40,40.4"/>
	<path class="st0" d="M49.9,35.9v-0.2c-0.1,0-0.2,0-0.2,0c-1.6,0-3.3,0-4.9,0c-0.1,0-0.1,0-0.2,0c-0.9,0.1-1.5,0.6-1.5,1.5
		c0,1.9,0,3.8,0,5.6h2v-1.6h2.7v1.6h2.1c0-0.1,0-0.2,0-0.2C49.9,40.3,49.9,38.1,49.9,35.9 M47.8,39.4h-2.7c0-0.5,0-1,0-1.6
		c0-0.3,0.2-0.5,0.5-0.5c0.5,0,1.1,0,1.6,0c0.2,0,0.4,0,0.6,0V39.4z"/>
	<path class="st0" d="M26.1,35.6c-0.6,0-1.1,0-1.7,0c-0.2,0-0.2,0.1-0.2,0.2c0,1.6,0,3.1,0,4.7c0,0.4-0.1,0.5-0.5,0.5h-2h-0.2v-5.4
		h-2.1v0.3c0,1.4,0,2.8,0,4.1c0,0.9,0,1.8,0,2.7h5.9c0,0,0,0,0.1,0c0.6-0.1,0.9-0.5,0.9-1c0-0.2,0-0.3,0-0.5c0-1.8,0-3.6,0-5.3v-0.2
		C26.2,35.6,26.1,35.6,26.1,35.6"/>
	<path class="st0" d="M34.2,38.6c0-0.6,0-1.1,0-1.7c0-0.6-0.4-1-0.9-1.1c-0.3-0.1-0.6-0.1-0.9-0.1c-1.7,0-3.4,0-5,0
		c-0.1,0-0.1,0-0.2,0v0.2v1.8c0,1.7,0,3.4,0,5.1h2.1c0-1.8,0-3.6,0-5.4c0,0,0,0,0-0.1c0,0,0.1,0,0.1,0c0.7,0,1.4,0,2.1,0
		c0.3,0,0.5,0.1,0.5,0.5c0,1.6,0,3.2,0,4.9c0,0,0,0.1,0,0.1h2.2c0,0,0-0.1,0-0.1C34.2,41.3,34.2,39.9,34.2,38.6"/>
	<path class="st0" d="M8.7,35.6c-0.1,0-0.1,0.1-0.1,0.2v2v0.4H5.9v-2.6H5.6c-0.6,0-1.2,0-1.8,0v7.2h2V40h2.7v2.8h2.1c0,0,0,0,0-0.1
		v-6.9c0,0,0-0.1,0-0.2C10,35.6,9.4,35.6,8.7,35.6"/>
	<path class="st0" d="M17,35.6c-0.1,0-0.2,0.1-0.2,0.1c-0.5,0.7-1,1.5-1.6,2.2c0,0.1-0.1,0.1-0.1,0.2C15,38.1,15,38,15,38
		c-0.5-0.7-0.9-1.4-1.4-2.2c-0.1-0.1-0.1-0.2-0.3-0.2c-0.6,0-1.3,0-2,0h-0.3c0.1,0.1,0.1,0.2,0.2,0.2c0.8,1.2,1.5,2.3,2.3,3.5
		c0.3,0.5,0.5,0.9,0.5,1.5c0,0.6,0,1.3,0,1.9h2.1c0-0.9,0-1.8,0-2.6c0-0.1,0-0.2,0.1-0.3c0.9-1.3,1.8-2.7,2.8-4
		c0-0.1,0.1-0.1,0.1-0.2c0,0-0.1,0-0.1,0C18.3,35.6,17.7,35.6,17,35.6"/>
	<path class="st0" d="M50.9,35.9c0,2.2,0,4.4,0,6.6c0,0.1,0,0.2,0,0.3h2v-7.1c-0.6,0-1.1,0-1.7,0C50.9,35.6,50.9,35.7,50.9,35.9"/>
</g>
</svg>
