<?xml version="1.0" encoding="utf-8"?>
<!-- Generator: Adobe Illustrator 24.2.1, SVG Export Plug-In . SVG Version: 6.00 Build 0)  -->
<svg version="1.1" id="Layer_1" xmlns="http://www.w3.org/2000/svg" xmlns:xlink="http://www.w3.org/1999/xlink" x="0px" y="0px"
	 viewBox="0 0 56.7 56.7" style="enable-background:new 0 0 56.7 56.7;" xml:space="preserve">
<style type="text/css">
	.st0{fill:#231F20;}
	.st1{fill:none;stroke:#000000;stroke-width:1.694;stroke-miterlimit:10;}
</style>
<g>
	<path class="st0" d="M33.9,33l1.6,1.8c-0.1,0-0.3,0-0.4,0c-2.2,0-4.1,0.9-4.1,2.7c0,1.5,1.8,2.7,4.1,2.7c2.2,0,4.1-1.2,4.1-2.7
		c0-1.4-1.8-3.3-2.8-4.5H33.9z M37.1,37.4c0,0.8-0.9,1.4-1.9,1.4c-1.1,0-1.9-0.6-1.9-1.4c0-0.8,0.9-1.4,1.9-1.4
		C36.2,36,37.1,36.7,37.1,37.4"/>
	<path class="st0" d="M28.5,37.8c0,1.5-2.4,1.5-2.4,0v-2.9H24V38c0,3,6.5,3,6.5,0v-3.1h-2V37.8z"/>
	<line class="st1" x1="40.8" y1="40.2" x2="40.8" y2="34.9"/>
	<path class="st0" d="M16.9,33.2l0.7,0.9l-4,6.1H16l0.7-1.1h4.6l0.7,1.1h2.5l-4.8-7H16.9z M17.6,37.7l1.4-2.3l1.4,2.3H17.6z"/>
	<path class="st0" d="M41,16.4c-1.6,0-3.1,0.5-4.3,1.4c-1.1-0.9-2.5-1.4-4.1-1.4c-1.6,0-3.1,0.5-4.3,1.4c-1.1-0.9-2.6-1.4-4.1-1.4
		c-1.6,0-3.1,0.5-4.3,1.4c-1.1-0.9-2.5-1.4-4.1-1.4c-3.8-0.1-6.9,3-7,6.8c0,3.8,3,6.9,6.8,7c1.6,0,3.1-0.5,4.3-1.4
		c1.1,0.9,2.5,1.4,4.1,1.4c1.6,0,3.1-0.5,4.3-1.4c1.1,0.9,2.5,1.4,4.1,1.4c1.6,0,3.1-0.5,4.3-1.4c1.1,0.9,2.6,1.4,4.1,1.4
		c3.8,0,6.9-3,7-6.8C47.8,19.6,44.8,16.5,41,16.4 M40.8,29.4c-1.6,0-3-0.7-4.1-1.7c-1.2,1.1-2.6,1.7-4.3,1.7c-1.6,0-3-0.6-4.1-1.7
		c-1.1,1.1-2.7,1.7-4.3,1.7c-1.5,0-3-0.6-4.1-1.6c-0.2,0.2-0.4,0.3-0.6,0.5c-1,0.7-2.3,1.2-3.7,1.2c-2.5,0-4.6-1.6-5.5-3.7
		c-0.2,0-0.4-0.1-0.6-0.1c-0.3-0.7-0.4-1.5-0.4-2.3c0-3.6,2.9-6.4,6.4-6.6c0.1,0.1,0.2,0.3,0.3,0.5h0c1.6,0,3.1,0.7,4.2,1.8l0-0.9
		c1.1-0.9,2.4-1.4,3.9-1.4c0.1,0.1,0.2,0.3,0.3,0.5c1.5,0,3.1,0.7,4.2,1.7l0-0.8c1.1-0.9,2.4-1.4,3.9-1.5c0.1,0.1,0.2,0.3,0.3,0.5h0
		c1.5,0,3.1,0.7,4.2,1.8l-0.1-0.9c1.1-0.9,2.4-1.4,3.9-1.5c0.1,0.1,0.3,0.5,0.3,0.5c3.3,0.2,5.9,2.1,6,6.2
		C47.1,26.7,44.2,29.4,40.8,29.4"/>
	<path class="st0" d="M17.9,25.6c-0.3-0.7-0.4-1.5-0.4-2.3c0-1.5,0.5-2.9,1.4-4c0.3,0,0.7,0,0.9,0c-1-1-2.5-1.6-3.9-1.6
		c-3.2,0-5.8,2.5-5.8,5.7c0,2.8,1.9,5.1,4.5,5.7c0.1-0.1,0.2-0.2,0.3-0.4c0.3,0.1,0.6,0.1,0.9,0.1c1.2,0,2.3-0.4,3.3-1.1l0.8,0
		c-0.5-0.5-1-1.2-1.3-1.9C18.3,25.7,18.1,25.6,17.9,25.6 M15.7,28.4c-2.8,0-5-2.3-5-5.1c0-2.8,2.4-5,5.1-5c1,0,2,0.3,2.8,0.9
		c-0.9,1.1-1.4,2.5-1.4,4.1c0,1.6,0.5,3.1,1.4,4.3C18,27.9,17,28.4,15.7,28.4"/>
	<path class="st0" d="M20.9,21.7c0.1-0.3,0.3-0.4,0.3-0.4c-0.2-0.7-0.7-1.4-1.2-1.9c-1,1-1.6,2.4-1.6,3.9c0,1,0.4,2.6,1.1,3.5
		c0.1,0.2,0.3,0.4,0.5,0.5l0-0.7c0.7-0.9,1.1-2,1.1-3.2C21.1,22.8,21.1,22.2,20.9,21.7 M20,26.2c-0.6-0.8-0.9-1.9-0.9-3
		c0-1,0.3-2,0.9-2.8c0.6,0.8,0.9,1.9,0.9,3C20.9,24.4,20.5,25.4,20,26.2"/>
	<path class="st0" d="M29.2,21.7c0.1-0.3,0.3-0.4,0.3-0.4c-0.2-0.6-0.7-1.4-1.2-1.9c-1,1-1.6,2.4-1.6,3.9c0,1.6,0.6,3,1.6,4.1l0-0.7
		c0.6-1,1.1-2,1.1-3.2C29.5,22.8,29.4,22.2,29.2,21.7 M28.3,26.2c-0.6-0.8-0.9-1.8-0.9-2.9c0-1,0.3-2,0.9-2.8
		c0.6,0.8,0.9,1.8,0.9,2.9C29.2,24.4,28.9,25.4,28.3,26.2"/>
	<path class="st0" d="M34.6,25.6c-0.3-0.7-0.4-1.5-0.4-2.3c0-1.5,0.6-2.9,1.4-4l0.9,0c-1.1-1-2.4-1.6-3.9-1.6c-1.6,0-3,0.6-4,1.6
		c1.1,1.1,1.7,2.7,1.7,4.3c0,1.5-0.6,3-1.6,4.1c0.7,0.7,1.6,1.2,2.7,1.4c0.1-0.1,0.2-0.2,0.3-0.4c0.3,0.1,0.6,0.1,0.9,0.1
		c1.3,0,2.4-0.5,3.3-1.1l0.7,0c-0.5-0.5-1-1.2-1.3-1.9C35,25.6,34.8,25.6,34.6,25.6 M32.5,28.4c-1.1,0-2-0.3-2.8-0.9
		c0.9-1.1,1.4-2.5,1.4-4.1c0-1.6-0.5-3.1-1.4-4.3c0.8-0.6,1.9-0.9,3-0.9c1,0,2,0.4,2.8,0.9c-0.9,1.1-1.4,2.5-1.4,4.1
		c0,1.6,0.5,3.1,1.4,4.3C34.8,27.9,33.7,28.4,32.5,28.4"/>
	<path class="st0" d="M46.3,21.2c-0.5-1.6-2.8-3.7-5.3-3.7c-1.6,0-3,0.6-4,1.6c1.1,1.1,1.7,2.7,1.7,4.3c0,1.5-0.6,3.1-1.7,4.1
		c0.7,0.7,1.7,1.2,2.7,1.4c0.1-0.1,0.2-0.2,0.3-0.4c0.3,0.1,0.6,0.1,0.9,0.1c2.9,0,5.4-2.3,5.4-5.3c0-0.6-0.1-1.2-0.3-1.7
		C46.1,21.4,46.3,21.2,46.3,21.2 M40.8,28.4c-1,0-2-0.3-2.8-0.9c0.9-1.1,1.4-2.5,1.4-4.1c0-1.6-0.5-3.1-1.4-4.3
		c0.8-0.6,1.9-0.9,3-0.9c2.8,0,5,2.4,5,5.1C45.9,26.2,43.6,28.4,40.8,28.4"/>
	<path class="st0" d="M37.6,21.7c0.1-0.3,0.3-0.4,0.3-0.4c-0.2-0.7-0.7-1.4-1.2-1.9c-1,1-1.5,2.4-1.6,3.9c0,1.6,0.6,3,1.6,4.1l0-0.7
		c0.7-1,1.1-1.9,1.1-3.2C37.9,22.8,37.8,22.2,37.6,21.7 M36.7,26.2c-0.6-0.8-0.9-1.9-0.9-2.9c0-1,0.3-2,0.9-2.8
		c0.6,0.8,0.9,1.8,0.9,2.9C37.6,24.4,37.3,25.4,36.7,26.2"/>
	<path class="st0" d="M26.3,25.6c-0.3-0.7-0.4-1.5-0.4-2.3c0-1.5,0.6-2.9,1.4-4l0.8,0c-1.1-1-2.4-1.6-3.9-1.6c-1.6,0-3,0.6-4,1.6
		c1.1,1.2,1.7,2.6,1.7,4.3c0,1.5-0.6,3-1.7,4.1c0.7,0.7,1.7,1.2,2.7,1.4c0.1-0.1,0.2-0.2,0.3-0.4c0.3,0.1,0.6,0.1,0.9,0.1
		c1.1,0,2.5-0.3,3.3-1.1l0.8,0c-0.5-0.5-1-1.2-1.3-1.9C26.7,25.7,26.5,25.6,26.3,25.6 M24.1,28.4c-1,0-2-0.3-2.8-0.9
		c0.9-1.1,1.4-2.5,1.4-4.1c0-1.6-0.5-3.1-1.4-4.3c0.8-0.6,1.9-0.9,2.9-0.9c1.1,0,2,0.3,2.8,0.9c-0.9,1.1-1.4,2.5-1.4,4.1
		c0,1.6,0.5,3.1,1.4,4.3C26.4,27.9,25.4,28.4,24.1,28.4"/>
</g>
</svg>
