<?xml version="1.0" encoding="utf-8"?>
<!-- Generator: Adobe Illustrator 24.2.1, SVG Export Plug-In . SVG Version: 6.00 Build 0)  -->
<svg version="1.1" id="Layer_1" xmlns="http://www.w3.org/2000/svg" xmlns:xlink="http://www.w3.org/1999/xlink" x="0px" y="0px"
	 viewBox="0 0 56.7 56.7" style="enable-background:new 0 0 56.7 56.7;" xml:space="preserve">
<style type="text/css">
	.st0{fill:#231F20;}
	.st1{fill:none;stroke:#000000;stroke-width:1.335;stroke-miterlimit:10;}
</style>
<g>
	<path class="st0" d="M44.9,23h-4.2c-0.5,0-1-0.5-1.3-0.9c-2.2-3.6-6.5-5.8-11.1-5.8c-4.8,0-9.1,2.4-11.3,6.2l0,0
		c0,0.2-0.2,0.5-0.7,0.5h-4.5c-0.6,0-1.1,0.5-1.1,1.1v7.5c0,0.6,0.5,1.1,1.1,1.1h3.8c0.3,0,0.6,0.2,0.8,0.5c0.1,0.1,0.1,0.2,0.2,0.3
		c0.2,0.2,0.4,0.5,0.5,0.7c2.3,3.7,6.6,6.1,11.3,6.1c4.5,0,8.5-2,10.9-5.2c0.1-0.1,0.1-0.2,0.2-0.3c0.3-0.4,0.7-1,1-1.6
		c0.2-0.4,0.3-0.4,0.6-0.4h3.8c0.6,0,1.1-0.5,1.1-1.1v-7.5C46,23.5,45.5,23,44.9,23 M16.6,23.3L16.6,23.3c0.4-0.1,0.7-0.3,0.8-0.7
		c2.1-3.7,6.3-6,11-6c4.5,0,8.6,2.2,10.8,5.7c0.3,0.5,0.9,1,1.5,1h4.2c0.2,0,0.3,0.1,0.5,0.2l-1,1c-0.1-0.1-0.2-0.1-0.4-0.1H12.7
		c-0.1,0-0.3,0-0.4,0.1l-0.8-1.1c0.1,0,0.2-0.1,0.3-0.1H16.6z M19.6,36.7c-0.3-0.2-0.7-0.7-1.1-1.1c-0.3-0.3-0.6-0.7-0.8-1.1
		c-0.3-0.4-0.5-0.7-0.7-1c-0.2-0.3-0.4-0.6-0.4-0.7c-0.1-0.3-0.3-0.6,0-0.9c0.2-0.3,0.8-0.7,1.2-0.8l2.2,1.3l-0.1,0.2l-1.9-1
		c1.4,4.1,5.6,7.1,10.5,7.1c4.8,0,8.6-2.9,10.1-6.9l-1.6,0.9l0-0.1c0,0,0-0.1,0-0.1c0,0,0,0,0,0l2.3-1.3l1.4,1.2
		c-0.5,1.2-1.7,3.2-3.5,3c-2.3,2.6-5,3.8-8.6,3.8c-3.6,0-6.8-1.4-8.9-3.7L18.4,35C18.7,35.7,19.2,36.4,19.6,36.7
		C19.6,36.7,19.6,36.7,19.6,36.7 M36.5,32.8c-1.2,3.5-5,4.8-8.2,4.8c-3.2-0.1-7-1.4-8.2-4.8c0-0.1,0-0.2,0-0.2c0,0,0,0,0,0h16.3
		c0,0,0,0,0,0C36.6,32.7,36.6,32.7,36.5,32.8 M44.3,25v5.1c0,0.2-0.2,0.4-0.4,0.4H12.7c-0.2,0-0.4-0.2-0.4-0.4V25
		c0-0.2,0.2-0.4,0.4-0.4H44C44.2,24.7,44.3,24.8,44.3,25"/>
	<path class="st0" d="M20.3,24.1h16.5c0.6,0,0.3-0.5,0.2-0.8c0.7,0.1,1.2,0.4,1.6,0.8c-1.4-4.4-5.5-6.6-10.2-6.6
		c-4.8,0-8.7,2.6-10.2,6.7c0.4-0.3,1-0.7,1.6-0.7C19.7,23.8,19.9,24.1,20.3,24.1 M20.3,23.2c1.4-3.6,4.6-4.9,8-4.9
		c3.6,0,7.3,1.2,8.4,4.9c0,0,0,0.1,0,0.1c0,0,0,0,0-0.1c0,0.2,0,0.3-0.2,0.3h-16C20.4,23.5,20.2,23.5,20.3,23.2"/>
	<polygon class="st0" points="18.3,28.6 16.9,25.3 14.9,25.3 14.9,29.7 16.2,29.7 16.2,26.2 17.6,29.7 19.5,29.7 19.5,25.3 
		18.3,25.3 	"/>
	<line class="st1" x1="21.1" y1="29.7" x2="21.1" y2="25.3"/>
	<polygon class="st0" points="33.1,25.3 31.5,29.7 32.8,29.7 33.1,28.9 34.9,28.9 34.5,27.9 33.4,27.9 34,26.2 35.2,29.7 36.4,29.7 
		34.9,25.3 	"/>
	<path class="st0" d="M25.1,27h-1.3v-0.7h2.5v-1h-2.5c-0.7,0-1.2,0.3-1.2,1.3c0,0.4,0.1,1.4,1.5,1.4h1.3v0.7h-2.7v1h2.7
		c0.6,0,1.3-0.5,1.3-1.4C26.7,27.4,26.2,27,25.1,27"/>
	<polygon class="st0" points="40.2,28.6 38.9,25.3 36.9,25.3 36.9,29.7 38.1,29.7 38.1,26.2 39.5,29.7 41.5,29.7 41.5,25.3 
		40.2,25.3 	"/>
	<path class="st0" d="M29.8,27h-1.3v-0.7h2.5v-1h-2.5c-0.7,0-1.2,0.3-1.2,1.3c0,0.4,0.1,1.4,1.5,1.4H30v0.7h-2.7v1H30
		c0.6,0,1.3-0.5,1.3-1.4C31.3,27.4,30.8,27,29.8,27"/>
</g>
</svg>
