<?xml version="1.0" encoding="utf-8"?>
<!-- Generator: Adobe Illustrator 24.2.1, SVG Export Plug-In . SVG Version: 6.00 Build 0)  -->
<svg version="1.1" id="Layer_1" xmlns="http://www.w3.org/2000/svg" xmlns:xlink="http://www.w3.org/1999/xlink" x="0px" y="0px"
	 viewBox="0 0 56.7 56.7" style="enable-background:new 0 0 56.7 56.7;" xml:space="preserve">
<style type="text/css">
	.st0{fill:#231F20;}
</style>
<g>
	<path class="st0" d="M41.9,30.4h-0.6l-0.4,1.1h0.6c0.1,0,0.2,0,0.4-0.1c0.1,0,0.2-0.1,0.3-0.2c0.1-0.1,0.2-0.2,0.2-0.3
		c0.1-0.2,0.1-0.3,0-0.4C42.3,30.4,42.2,30.4,41.9,30.4"/>
	<path class="st0" d="M33,26.7c0.3,0,0.5,0,0.7-0.1c0.2-0.1,0.3-0.2,0.4-0.4c0.1-0.2,0.3-0.5,0.5-1c0.2-0.6,0.3-1,0.2-1.2
		c-0.1-0.2-0.3-0.3-0.7-0.3h-0.3l-1.1,3.1H33z"/>
	<path class="st0" d="M20.6,30.4H20l-0.4,1.1h0.6c0.1,0,0.2,0,0.4-0.1c0.1,0,0.2-0.1,0.3-0.2c0.1-0.1,0.2-0.2,0.2-0.3
		c0.1-0.2,0.1-0.3,0-0.4C21,30.4,20.9,30.4,20.6,30.4"/>
	<polygon class="st0" points="23.4,23.7 22.2,25.8 23.1,25.8 	"/>
	<path class="st0" d="M28.3,18.3C16.6,18.3,7,22.8,7,28.3c0,5.6,9.6,10.1,21.3,10.1c11.7,0,21.3-4.5,21.3-10.1
		C49.7,22.8,40.1,18.3,28.3,18.3 M38,25.6l0.4-1.2l3.9-0.1l-0.8,1.2l-3.8,1.8l2-1.8L38,25.6z M34.9,22.3c0.4,0,0.7,0.1,0.9,0.2
		c0.2,0.1,0.3,0.3,0.4,0.6c0.1,0.3,0.1,0.6,0,0.9c0,0.3-0.1,0.7-0.3,1.1c-0.2,0.6-0.4,1.1-0.7,1.4c-0.2,0.3-0.5,0.6-0.8,0.8
		c-0.3,0.2-0.5,0.4-0.8,0.5c-0.3,0.1-0.6,0.2-0.9,0.2h-2.1l2-5.7H34.9z M23.1,22.3h1.5L24.3,28h-1.4L23,27h-1.6L20.9,28h-1.4
		L23.1,22.3z M17.3,22.3h1.4l-1.5,4.3h2.2L18.9,28h-3.6L17.3,22.3z M16.4,32.4l-3.9,0.1l0.8-1.2l3.8-1.8l-2,1.8l1.7-0.1L16.4,32.4z
		 M22.6,30.8c-0.1,0.3-0.2,0.6-0.4,0.8c-0.2,0.2-0.4,0.4-0.6,0.6c-0.1,0.1-0.3,0.2-0.6,0.2c0.1,0.1,0.2,0.1,0.3,0.2
		c0,0,0.1,0.1,0.1,0.3c0,0.2,0.1,0.3,0.1,0.4l0.2,1.6H20l-0.2-1.7c0-0.2-0.1-0.4-0.1-0.4c-0.1-0.1-0.2-0.1-0.3-0.1h-0.1l-0.7,2.3
		h-1.4l1.8-5.7h2.4c0.4,0,0.8,0,1,0.1c0.2,0.1,0.3,0.3,0.4,0.5C22.7,30.1,22.7,30.4,22.6,30.8 M27.9,32c-0.2,0.7-0.5,1.2-0.8,1.6
		c-0.3,0.4-0.7,0.7-1.1,1c-0.4,0.2-0.9,0.4-1.4,0.4c-0.5,0-0.9-0.1-1.2-0.3c-0.3-0.2-0.4-0.5-0.5-1c-0.1-0.4,0-1,0.2-1.6
		c0.3-0.9,0.7-1.6,1.3-2.2c0.6-0.5,1.3-0.8,2-0.8c0.8,0,1.3,0.3,1.5,0.8C28.2,30.4,28.2,31.1,27.9,32 M28.2,28l-0.6-3.1L26.5,28
		h-1.3l2-5.7h1.3l0.6,3.2l1.1-3.2h1.3l-2,5.7H28.2z M29.2,34.9l0.1-5.7h1.5l-0.3,4.1l2.3-4.1h1.4l-3.5,5.7H29.2z M37.7,32.5h-2.2
		l-0.4,1.1h2.4l-0.4,1.3h-3.9l1.8-5.7h3.8l-0.4,1.2h-2.4l-0.3,0.9h2.2L37.7,32.5z M43.9,30.8c-0.1,0.3-0.2,0.6-0.4,0.8
		c-0.2,0.2-0.4,0.4-0.6,0.6c-0.1,0.1-0.3,0.2-0.6,0.2c0.1,0.1,0.2,0.1,0.3,0.2c0,0,0.1,0.1,0.1,0.3c0,0.2,0.1,0.3,0.1,0.4l0.2,1.6
		h-1.6l-0.2-1.7c0-0.2-0.1-0.4-0.1-0.4c-0.1-0.1-0.2-0.1-0.3-0.1h-0.1l-0.7,2.3h-1.4l1.8-5.7h2.4c0.4,0,0.8,0,1,0.1
		c0.2,0.1,0.3,0.3,0.4,0.5C44,30.1,44,30.4,43.9,30.8"/>
	<path class="st0" d="M26,30.5c-0.3,0-0.6,0.1-0.8,0.4c-0.3,0.2-0.5,0.7-0.7,1.2c-0.2,0.6-0.2,1-0.1,1.2c0.1,0.2,0.3,0.4,0.6,0.4
		c0.3,0,0.6-0.1,0.8-0.4c0.2-0.2,0.5-0.7,0.7-1.3c0.2-0.5,0.2-0.9,0.1-1.2C26.5,30.6,26.3,30.5,26,30.5"/>
	<path class="st0" d="M28.3,17C16,17,5.8,22.1,5.8,28.3c0,6.2,10.1,11.3,22.5,11.3c12.4,0,22.5-5.1,22.5-11.3
		C50.9,22.1,40.7,17,28.3,17 M28.3,39c-12.1,0-22-4.8-22-10.7s9.9-10.7,22-10.7c12.1,0,22,4.8,22,10.7S40.5,39,28.3,39"/>
</g>
</svg>
