<?xml version="1.0" encoding="utf-8"?>
<!-- Generator: Adobe Illustrator 24.2.1, SVG Export Plug-In . SVG Version: 6.00 Build 0)  -->
<svg version="1.1" id="Layer_1" xmlns="http://www.w3.org/2000/svg" xmlns:xlink="http://www.w3.org/1999/xlink" x="0px" y="0px"
	 viewBox="0 0 56.7 56.7" style="enable-background:new 0 0 56.7 56.7;" xml:space="preserve">
<style type="text/css">
	.st0{fill:#231F20;}
</style>
<g>
	<path class="st0" d="M13.5,25.1h8.7c0.3,0,0.4,0.1,0.4,0.4v1.3c0,0.4,0.2,0.6,0.6,0.6H28H33c0.3,0,0.6-0.2,0.6-0.6v-1.3
		c0-0.3,0.1-0.4,0.4-0.4h5.5c0.4,0,0.6-0.1,0.8-0.5l2.7-5.3C43,19.2,43,19.2,43,19c0-0.4-0.3-0.5-0.5-0.5h-8.6
		c-0.2,0-0.4-0.1-0.4-0.4v-1.3c0-0.4-0.2-0.6-0.6-0.6h-9.9c-0.4,0-0.6,0.2-0.6,0.6v1.3c0,0.3-0.1,0.4-0.4,0.4l-5.6,0
		c-0.4,0-0.7,0.2-0.8,0.5L13,24.4c0,0.1-0.1,0.1-0.1,0.2C12.9,24.8,13.1,25.1,13.5,25.1 M15.6,23l1.3-2.6c0-0.1,0.1-0.2,0.3-0.2h6.6
		c0.2,0,0.4-0.1,0.4-0.4v-1.5c0-0.3,0.1-0.4,0.4-0.4h6.8c0.2,0,0.4,0.1,0.4,0.4v1.5c0,0.2,0.1,0.4,0.4,0.4H40c0.2,0,0.3,0.2,0.3,0.3
		c0,0.1,0,0.1,0,0.1L39,23.2c-0.1,0.1-0.2,0.1-0.3,0.1h-6.5c-0.3,0-0.4,0.1-0.4,0.4v1.5c0,0.2-0.1,0.4-0.4,0.4H28h-3.4
		c-0.2,0-0.4-0.1-0.4-0.4v-1.5c0-0.3-0.1-0.4-0.4-0.4h-8c-0.2,0-0.3-0.1-0.3-0.3C15.6,23.1,15.6,23,15.6,23"/>
	<path class="st0" d="M34.4,17.6h0.1l0.2,0.3h0.1l-0.2-0.3c0.1,0,0.2,0,0.2-0.2c0-0.1-0.1-0.2-0.2-0.2h-0.3v0.6h0.1V17.6z
		 M34.4,17.3h0.2c0.1,0,0.1,0,0.1,0.1c0,0.1,0,0.1-0.1,0.1h-0.2V17.3z"/>
	<path class="st0" d="M34.6,18.1c0.3,0,0.5-0.2,0.5-0.5c0-0.3-0.2-0.5-0.5-0.5c-0.3,0-0.5,0.2-0.5,0.5C34,17.9,34.3,18.1,34.6,18.1
		 M34.6,17.1c0.3,0,0.4,0.2,0.4,0.5c0,0.3-0.2,0.5-0.4,0.5c-0.3,0-0.5-0.2-0.5-0.5C34.1,17.3,34.3,17.1,34.6,17.1"/>
	<polygon class="st0" points="8.4,36.9 10.8,36.9 10.8,40.3 12.4,40.3 12.4,32.6 10.8,32.6 10.8,35.7 8.4,35.7 8.4,32.6 6.8,32.6 
		6.8,40.3 8.4,40.3 	"/>
	<polygon class="st0" points="51.5,40.3 53.1,40.3 53.1,33.8 55.3,33.8 55.3,32.6 49.3,32.6 49.3,33.8 51.5,33.8 	"/>
	<polygon class="st0" points="40.8,32.6 39.2,32.6 39.2,40.3 43.8,40.3 43.8,39.2 40.8,39.2 	"/>
	<path class="st0" d="M21.2,40.4h1.5c0.4,0,0.7-0.2,0.8-0.7l1.9-7.1H24l-1.7,6.5c0,0.1-0.1,0.1-0.2,0.1c-0.1,0-0.1,0-0.2-0.1
		l-1.7-6.5h-1.9l2,7.1C20.4,40.1,20.7,40.4,21.2,40.4"/>
	<path class="st0" d="M2.6,40.4l3.6,0v-1.2H3.6c-0.4,0-0.6-0.1-0.6-0.6v-4.2c0-0.5,0.1-0.6,0.6-0.6h2.6v-1.2H2.6
		c-0.8,0-1.2,0.4-1.2,1.2v5.3C1.4,40,1.8,40.4,2.6,40.4"/>
	<path class="st0" d="M15.5,33.8h2.7v-1.2h-3.7c-0.8,0-1.2,0.4-1.2,1.2v5.3c0,0.8,0.4,1.2,1.2,1.2h4v-1.2h-3c-0.4,0-0.6-0.1-0.6-0.6
		v-1.7h3.2v-1.2H15v-1.3C15,33.9,15.1,33.8,15.5,33.8"/>
	<path class="st0" d="M31.3,35.9v-2.1c0-0.8-0.4-1.2-1.2-1.2h-4.5v7.7h1.6v-6.6h1.9c0.5,0,0.6,0.1,0.6,0.6l0,0.9
		c0,0.5-0.1,0.6-0.6,0.6h-0.9c-0.3,0-0.5,0.2-0.5,0.5c0,0.2,0.1,0.3,0.2,0.4l2,3.5h2l-2.1-3.3h0.4C30.8,37.1,31.3,36.7,31.3,35.9"/>
	<path class="st0" d="M35.2,40.4H37c0.8,0,1.2-0.4,1.2-1.2l0-5.3c0-0.8-0.4-1.2-1.2-1.2h-3.6c-0.9,0-1.2,0.4-1.2,1.2v5.3
		c0,0.9,0.5,1.2,1.2,1.2H35.2z M33.8,34.4c0-0.4,0.1-0.6,0.6-0.6H36c0.4,0,0.6,0.1,0.6,0.6l0,4.2c0,0.5-0.2,0.6-0.6,0.6h-0.8h-0.8
		c-0.5,0-0.6-0.1-0.6-0.6V34.4z"/>
	<path class="st0" d="M45.3,40.4l4,0v-1.2h-3c-0.5,0-0.6-0.1-0.6-0.6v-1.7h3.2v-1.2h-3.2v-1.3c0-0.4,0.1-0.6,0.6-0.6H49v-1.2l-3.7,0
		c-0.8,0-1.2,0.4-1.2,1.2l0,5.3C44.1,40,44.5,40.4,45.3,40.4"/>
</g>
</svg>
