<?xml version="1.0" encoding="utf-8"?>
<!-- Generator: Adobe Illustrator 24.2.1, SVG Export Plug-In . SVG Version: 6.00 Build 0)  -->
<svg version="1.1" id="Layer_1" xmlns="http://www.w3.org/2000/svg" xmlns:xlink="http://www.w3.org/1999/xlink" x="0px" y="0px"
	 viewBox="0 0 56.7 56.7" style="enable-background:new 0 0 56.7 56.7;" xml:space="preserve">
<style type="text/css">
	.st0{fill:#231F20;}
</style>
<g>
	<path class="st0" d="M28.3,14.3c-7.7,0-13.9,6.2-13.9,13.9c0,7.7,6.2,13.9,13.9,13.9c7.7,0,13.9-6.2,13.9-13.9
		C42.2,20.6,36,14.3,28.3,14.3 M28.3,41.8c-7.5,0-13.5-6.1-13.5-13.5c0-7.5,6.1-13.5,13.5-13.5c7.5,0,13.5,6.1,13.5,13.5
		C41.8,35.7,35.8,41.8,28.3,41.8"/>
	<path class="st0" d="M20.4,22.8C20.4,22.8,20.4,22.8,20.4,22.8C20.5,22.8,20.5,22.8,20.4,22.8c0.3-0.3,0.6-0.7,0.9-1
		c0.1-0.1,0.2-0.2,0.3-0.4c0.1-0.1,0.1-0.3,0.1-0.4c-0.1-0.2-0.2-0.3-0.4-0.2c-0.1,0-0.3,0.1-0.3,0.2c-0.1,0.1-0.2,0.3-0.4,0.4
		c-0.2,0.3-0.5,0.6-0.7,0.9c0.1,0.1,0.3,0.2,0.4,0.3C20.3,22.7,20.3,22.7,20.4,22.8"/>
	<path class="st0" d="M28.3,15c-7.3,0-13.3,5.9-13.3,13.3c0,7.3,5.9,13.3,13.3,13.3c7.3,0,13.3-5.9,13.3-13.3
		C41.6,20.9,35.7,15,28.3,15 M26.2,15.8l1.2-0.1l0.9,2.6l0.9-2.6l1.2,0.1l0.1,3.7l-1-0.1l-0.1-2.5l-0.9,2.5H28l-0.9-2.5L27,19.4
		l-1,0.1L26.2,15.8z M17.8,21.9c-0.1-0.1-0.2-0.2-0.3-0.2c0,0,0,0,0,0c0,0,0,0,0.1-0.1c0.3-0.3,0.5-0.6,0.8-1
		c0.3-0.4,0.6-0.8,0.9-1.1c0.1-0.1,0.1-0.1,0.2-0.2c0.1-0.1,0.2-0.2,0.4-0.3c0.3-0.1,0.7,0,0.9,0.2c0.1,0.1,0.2,0.3,0.2,0.4
		c0,0.2,0,0.3,0,0.5c0,0,0,0,0.1-0.1c0.3-0.2,0.7-0.3,1-0.1c0.3,0.1,0.5,0.4,0.6,0.8c0,0.1,0,0.3,0,0.4c-0.1,0.2-0.3,0.4-0.4,0.6
		c-0.3,0.4-0.6,0.8-0.9,1.2c-0.3,0.3-0.5,0.6-0.8,1c0,0,0,0-0.1,0.1c0,0,0,0,0,0c-0.1-0.1-0.2-0.2-0.3-0.2c-0.4-0.3-0.8-0.6-1.1-0.9
		C18.6,22.5,18.2,22.2,17.8,21.9 M28.3,36.5c-4.6,0-8.3-3.7-8.3-8.3s3.7-8.3,8.3-8.3c4.6,0,8.3,3.7,8.3,8.3S32.9,36.5,28.3,36.5
		 M36.2,23.9l-0.5-0.8l1.6-2.2l-2.5,1.1l-0.7-0.6l2.2-2.9l0.7,0.6l-1.3,1.7l2.1-1l0.6,0.8l-1.4,1.8l1.9-0.9l0.5,0.8L36.2,23.9z"/>
	<path class="st0" d="M20.4,20.4c0-0.1,0-0.3-0.1-0.4c-0.1-0.1-0.3-0.2-0.5-0.1c-0.1,0-0.2,0.1-0.3,0.2c-0.3,0.4-0.6,0.7-0.9,1.1
		c0,0-0.1,0.1-0.1,0.1c0.1,0,0.1,0.1,0.2,0.1c0.2,0.1,0.3,0.3,0.5,0.4c0.2-0.2,0.3-0.4,0.5-0.6c0.2-0.2,0.3-0.4,0.5-0.6
		C20.3,20.6,20.3,20.5,20.4,20.4"/>
	<path class="st0" d="M20.5,28.2h7.9v-7.9C24,20.5,20.6,23.9,20.5,28.2"/>
	<path class="st0" d="M28.3,36.1c4.3-0.1,7.8-3.6,7.9-7.9h-7.9V36.1z"/>
</g>
</svg>
