<?xml version="1.0" encoding="utf-8"?>
<!-- Generator: Adobe Illustrator 24.2.1, SVG Export Plug-In . SVG Version: 6.00 Build 0)  -->
<svg version="1.1" id="Layer_1" xmlns="http://www.w3.org/2000/svg" xmlns:xlink="http://www.w3.org/1999/xlink" x="0px" y="0px"
	 viewBox="0 0 56.7 56.7" style="enable-background:new 0 0 56.7 56.7;" xml:space="preserve">
<style type="text/css">
	.st0{fill:#231F20;}
</style>
<g>
	<path class="st0" d="M39.5,15.6c-2.8-3-7.3-3.6-11.2-3.6c-3.9,0-8.5,0.6-11.3,3.8c-0.1,0.1-0.1,0.1-0.1,0.2c-1.3,1.6-2.2,3.9-2.2,7
		c0,9.5,7.7,11,13.6,11c5.9,0,13.6-1.5,13.6-11c0-3.1-0.8-5.4-2.2-7C39.7,15.8,39.6,15.7,39.5,15.6 M19.5,17.4
		c1.8-2.8,5.3-3.5,8.8-3.5c3.6,0,6.9,0.7,8.8,3.4c0,0.1,0.1,0.1,0.1,0.2c-3.2,1.8-6.8,1.9-8.9,6.6c-2.4-4.5-5.9-4.5-9-6.3
		C19.3,17.7,19.4,17.6,19.5,17.4 M28.3,31.9c-5.2,0-10.2-1.5-10.2-9c0-0.6,0-1.1,0.1-1.6c0-0.1,0.1-0.2,0.1-0.3
		c1.8,0.6,3.5,1.2,5.3,1.8c2.1,0.9,3.5,2.1,4.7,4.8c1.3-2.7,2.6-4.1,4.7-5c1.8-0.6,3.6-1.3,5.3-1.9c0,0,0,0.1,0,0.1
		c0.1,0.6,0.1,1.3,0.1,2.1C38.6,30.4,33.6,31.9,28.3,31.9"/>
	<g>
		<polygon class="st0" points="29.2,39.3 32,36.9 26.1,36.9 26.1,39.3 		"/>
		<path class="st0" d="M48.2,36.9H43v2.1h4.1c1.2,0,1,0.8,1,0.8h-3.3c-0.4,0-1.7-0.1-2.3,0.9v-0.4c0-3.5-2.7-3.5-2.7-3.5h-7
			l-7.1,5.6v-3.5c0-2.3-2.3-2.2-2.3-2.2h-5.2v2.1h4.1c1.2,0,1,0.8,1,0.8H20c-0.4,0-1.7-0.1-2.3,0.9v-0.9c0-3.1-2.8-2.9-2.8-2.9H6.2
			v7.8h2.6v-5.5h1.9v5.5h2.5v-5.5H14c1.2,0,1.1,1,1.1,1v4.5h2.6v-1c0.6,1,1.9,1,1.9,1h7.2L34,39v5.7h5.6c1.1,0,2.1-0.5,2.6-2
			c0.3,2,2.3,2,2.3,2h6.1v-5.6C50.5,36.9,48.2,36.9,48.2,36.9 M23.3,42.6h-2.8c0,0-0.6,0-0.6-0.5c0-0.5,0.4-0.5,0.6-0.5h2.7V42.6z
			 M38.9,42.4h-2.4v-3.3h2.4c0,0,1.1,0.1,1.1,1.5C40.1,42.1,39.5,42.4,38.9,42.4 M48.1,42.6h-2.8c0,0-0.6,0-0.6-0.5
			c0-0.5,0.5-0.5,0.6-0.5h2.7V42.6z"/>
		<polygon class="st0" points="27.7,44.7 33.6,44.7 33.6,42.4 30.5,42.4 		"/>
	</g>
</g>
</svg>
