<?xml version="1.0" encoding="utf-8"?>
<!-- Generator: Adobe Illustrator 24.2.1, SVG Export Plug-In . SVG Version: 6.00 Build 0)  -->
<svg version="1.1" id="Layer_1" xmlns="http://www.w3.org/2000/svg" xmlns:xlink="http://www.w3.org/1999/xlink" x="0px" y="0px"
	 viewBox="0 0 56.7 56.7" style="enable-background:new 0 0 56.7 56.7;" xml:space="preserve">
<style type="text/css">
	.st0{fill-rule:evenodd;clip-rule:evenodd;fill:#231F20;}
</style>
<path class="st0" d="M28.4,18.4c-14.5,0-26.2,4.4-26.2,9.9c0,5.5,11.7,9.9,26.2,9.9c14.5,0,26.2-4.4,26.2-9.9
	C54.5,22.9,42.8,18.4,28.4,18.4z M28.4,37.2c-13.9,0-25.2-4-25.2-8.9c0-4.9,11.3-8.9,25.2-8.9c13.9,0,25.2,4,25.2,8.9
	C53.6,33.3,42.3,37.2,28.4,37.2z M38.8,27.9c-0.6-0.1-1.3,0.4-1.9,1.2c-0.3,0.4-0.6,1.1-0.7,1.5c-0.1,0.4,0.1,0.8,0.2,1
	c0.2,0.1,0.8,0.5,1.9-0.6c0.6-0.6,1.2-1.6,1.2-1.6l-0.2-0.1C39.6,28.7,39.5,28,38.8,27.9z M28.4,20.2C14.9,20.2,4,23.8,4,28.4
	c0,4.5,10.9,8.2,24.4,8.2c13.5,0,24.4-3.7,24.4-8.2C52.8,23.8,41.8,20.2,28.4,20.2z M17,32.7c-1.5,0-2.8-1-2.8-2.7
	c0-1,0.8-2.3,2.4-2.7c0.2,0,0.3,0.1,0.3,0.2c0,0.1-0.1,0.2-0.2,0.2c-0.5,0.2-1.3,1.1-1.3,1.9c0,0.6,0.4,1.3,1,1.5
	c0.2,0.1,0.4,0,0.5,0c1.6,0,3.5-1.8,5.5-4.6c-0.3,0-1.7,0.2-2,0.6c-0.2,0.1-0.3,0.1-0.3-0.1c0,0,0.1-0.2,0.1-0.2
	c0.5-0.6,2.2-0.7,2.6-0.8c1.5-2.2,3.3-3.7,3.8-3.8c0,0,0,0,0,0c-1.3-0.3-2.5-0.6-3.4-0.6c-3.3,0-4.7,1.4-4.6,2.7
	c0,0.5,0.5,0.9,1.1,0.7c0.7-0.1,1.6-0.8,1.9-1.3c0.1-0.1,0.2-0.1,0.2-0.1c0.1,0.1,0.1,0.2,0.1,0.2c-0.1,0.7-1.1,2.5-2.9,2.5
	c-1,0-1.6-0.9-1.6-1.8c0-1.7,1.7-3.4,5.9-3.4c0.8,0,1.7,0.1,2.7,0.2c1.1,0.2,4,0.7,6.3,0.7c0.8,0,1.9,0,2.8-0.1
	c0.9-0.2,0.7-0.2,1.1-0.2c0.3,0,0.3,0.1,0.3,0.3c0,0.5-1.9,1.6-3.5,1.6c-2.4,0-4.8-1.1-6.1-1.4c0,0,0.1,0.1,0,0.2
	c0,0-0.2,0.2-0.3,0.3c-0.3,0.3-1.5,1-2.7,3.2c1-0.1,2.2-0.3,2.2-0.3s-0.1-0.2-0.1-0.4c0.1-0.7,0.5-1.2,1-1.1
	c0.3,0.1,0.5,0.3,0.5,0.6c0,0.3-0.2,0.7-0.4,0.9c-0.2,0.1-0.3,0.2-0.5,0.3c0,0.2,0.3,0.3,0.5,0.4c-0.1,0.2,0,0.3-0.1,0.3
	c-0.5,0-0.7-0.5-0.7-0.5c-0.7,0.1-1.3,0.2-2.7,0.3C20.1,31.8,19,32.7,17,32.7z M40.1,31.8c0.7,0,2.1-1.4,2.4-1.8
	c0.1-0.1,0.2-0.2,0.3-0.2c0.1,0,0.2,0.1,0.2,0.2c0,0.1-0.2,0.3-0.3,0.5c-0.7,0.8-1.8,2.1-3.1,2.2c-0.6,0-0.9-0.3-0.9-0.7
	c-0.3,0.3-1.3,0.7-2.3,0.7c-0.8,0-1.2-0.5-1.3-0.9c-0.2-0.3-0.2-0.8-0.1-1.3c-0.5,0.2-0.9,0.3-1.5,0.3c-0.7,0-1.1-0.3-1.4-1.2
	c-0.8,1.5-0.8,1.5-1.7,3.1H29l1.8-3.1c0.2-0.4,0.4-0.8,0.4-1.1c0.1-0.2-0.1-0.4-0.3-0.4c-0.2,0-0.6,0.2-1,0.6c0,0-0.9,1-1.6,2
	c-0.7,1-1.8,2.1-3,2.1c-0.9,0-1.7-0.5-1.9-1.4c0,0-0.1,0.2-0.9,0.7c-0.1,0-0.2,0.1-0.3,0.1c-0.2-0.1-0.2-0.3-0.3-0.4
	c0.1,0,0.2-0.1,0.5-0.3c0.6-0.5,0.8-0.8,0.8-0.8c0.2-0.3,0.4-0.8,0.6-1.2c0.5-1,1.4-2,2.8-2.1c0.2,0,0.3,0.1,0.4,0.2
	c0.1,0.1,0.1,0.3,0.1,0.3c-1,0.2-1.7,0.7-2.1,1.3c-0.3,0.4-0.5,1-0.6,1.4c-0.1,0.8,0.3,1.3,0.8,1.4c1,0.2,1.8-0.6,2.4-1.7
	c0.2-0.3,0.3-1,0.3-1.4c0-0.4-0.2-0.8-0.4-1c0-0.3,0.2-0.5,0.4-0.5c0.1,0,0.1,0,0.2,0.1c0.3,0.3,0.5,1,0.5,1.5c0,0.2,0,0.3,0,0.5
	c0.7-0.9,1.6-2,2.3-2.2c0.1-0.1,0.3-0.1,0.4-0.1c1.3,0,1.1,1.1,1.1,1.1c0.7-0.8,1.1-1.1,1.8-1c0.7,0,0.9,0.5,0.9,0.9
	c0,0.4-0.3,0.9-0.9,1c-0.5,0-0.8-0.2-0.9-0.7c-0.3,0.1-0.5,0.3-0.5,0.8c-0.1,0.6,0.3,1,0.9,1c0.9,0,1.3-0.4,1.7-0.7
	c1.1-1.1,1.8-2.2,3.4-2.2c1,0,1.3,0.8,1.4,1.1l2.2-3.7h1.3L40.1,31c-0.1,0.1-0.2,0.4-0.2,0.6C39.9,31.9,40.3,31.8,40.1,31.8z
	 M26.8,25.3c0.1-0.1,0.3-0.4,0.2-0.6c0-0.1-0.1-0.2-0.2-0.2c-0.3,0.1-0.4,0.2-0.5,0.4c-0.1,0.3-0.1,0.5,0,0.7
	C26.4,25.5,26.5,25.5,26.8,25.3z"/>
</svg>
