<?xml version="1.0" encoding="utf-8"?>
<!-- Generator: Adobe Illustrator 24.2.1, SVG Export Plug-In . SVG Version: 6.00 Build 0)  -->
<svg version="1.1" id="Layer_1" xmlns="http://www.w3.org/2000/svg" xmlns:xlink="http://www.w3.org/1999/xlink" x="0px" y="0px"
	 viewBox="0 0 56.7 56.7" style="enable-background:new 0 0 56.7 56.7;" xml:space="preserve">
<style type="text/css">
	.st0{fill:#231F20;}
</style>
<g>
	<path class="st0" d="M28.3,39c11.4,0,20.7-4.8,20.7-10.6s-9.3-10.6-20.7-10.6c-11.4,0-20.7,4.8-20.7,10.6S16.9,39,28.3,39
		 M28.3,20.2c10.5,0,19.1,3.6,19.1,8.1c0,4.5-8.6,8.1-19.1,8.1c-10.5,0-19.1-3.6-19.1-8.1C9.2,23.9,17.8,20.2,28.3,20.2"/>
	<polygon class="st0" points="35.7,33.4 37.7,26.3 39.7,33.4 42.5,33.4 39.6,23.3 38.5,23.3 36.9,23.3 35.4,23.3 35.4,23.7 
		35.8,23.7 32.9,33.4 	"/>
	<path class="st0" d="M15.8,33.4h2.8V29l3.1,4.2H25l-3.7-5l3.2-4.7h-3.2l-2.6,3.8v-3.8h-2.8v0h-0.5v0.4c0.2,0,0.3,0,0.5,0.1V33.4z"
		/>
	<path class="st0" d="M27.3,33.4h2.8v-9.9h-2.8v0h-0.5v0.4c0.2,0,0.3,0,0.5,0.1V33.4z"/>
</g>
</svg>
