<?xml version="1.0" encoding="utf-8"?>
<!-- Generator: Adobe Illustrator 24.2.1, SVG Export Plug-In . SVG Version: 6.00 Build 0)  -->
<svg version="1.1" id="Layer_1" xmlns="http://www.w3.org/2000/svg" xmlns:xlink="http://www.w3.org/1999/xlink" x="0px" y="0px"
	 viewBox="0 0 56.7 56.7" style="enable-background:new 0 0 56.7 56.7;" xml:space="preserve">
<style type="text/css">
	.st0{fill:#231F20;}
	.st1{fill:none;stroke:#000000;stroke-width:0.364;stroke-miterlimit:10;}
	.st2{fill:none;stroke:#000000;stroke-width:0.367;stroke-miterlimit:10;}
	.st3{fill:none;stroke:#000000;stroke-width:0.366;stroke-miterlimit:10;}
</style>
<g>
	<polygon class="st0" points="18.4,39.8 18.9,39.8 18.9,38.7 19.6,38.7 19.6,38.4 18.9,38.4 18.9,37.7 19.7,37.7 19.7,37.4 
		18.4,37.4 	"/>
	<line class="st1" x1="38.5" y1="39.8" x2="38.5" y2="37.4"/>
	<polygon class="st0" points="44.1,37.8 44.6,37.8 44.6,39.8 45.1,39.8 45.1,37.8 45.6,37.8 45.6,37.4 44.1,37.4 	"/>
	<line class="st2" x1="5.6" y1="39.8" x2="5.6" y2="37.4"/>
	<polygon class="st0" points="32.3,39.2 32.3,39.2 32.3,39.2 32.3,39.2 31.7,37.4 31.1,37.4 31.1,39.8 31.5,39.8 31.5,38 32.2,39.8 
		32.7,39.8 32.7,37.4 32.3,37.4 	"/>
	<line class="st2" x1="51.1" y1="39.8" x2="51.1" y2="37.4"/>
	<line class="st3" x1="25.3" y1="39.8" x2="25.3" y2="37.4"/>
	<polygon class="st0" points="12.5,39.2 12.5,39.2 12.5,39.2 12.5,39.2 11.9,37.4 11.3,37.4 11.3,39.8 11.7,39.8 11.7,38 12.3,39.8 
		12.9,39.8 12.9,37.4 12.5,37.4 	"/>
	<path class="st0" d="M28.3,16.9c-9.7,0-17.6,4-17.6,8.8c0,3.9,5.2,7.3,12.3,8.4l5.3-12.6l5.3,12.6c7.1-1.1,12.3-4.5,12.3-8.4
		C45.9,20.8,38,16.9,28.3,16.9 M36.4,30.1l-8.1-9.3l-8,9.3c-4-1.1-6.6-3-6.6-5.4c0-3.8,6.5-7.3,14.6-7.3c8.1,0,14.7,3.5,14.7,7.3
		C43.1,27.1,40.4,29,36.4,30.1"/>
</g>
</svg>
